/* XPM */
static char *result[] = {
/* columns rows colors chars-per-pixel */
"59 57 220 2 ",
"   c #000101",
".  c #0B0604",
"X  c #030B04",
"o  c #0C0B04",
"O  c #0A0C0C",
"+  c #120D08",
"@  c #1B0E0A",
"#  c #160C06",
"$  c #051405",
"%  c #051B06",
"&  c #041D0A",
"*  c #0C1707",
"=  c #1D140B",
"-  c #171705",
";  c #23160C",
":  c #321C0F",
">  c #251511",
",  c #2E1E15",
"<  c #351D17",
"1  c #062107",
"2  c #05240B",
"3  c #052A0F",
"4  c #092C09",
"5  c #092608",
"6  c #142409",
"7  c #09320A",
"8  c #0C3D0C",
"9  c #093E08",
"0  c #17380E",
"q  c #083A13",
"w  c #123115",
"e  c #3B2417",
"r  c #342713",
"t  c #121E2B",
"y  c #43251D",
"u  c #492A16",
"i  c #5D331C",
"p  c #573E1B",
"a  c #4F301A",
"s  c #663B1D",
"d  c #6B3B1C",
"f  c #713E1E",
"g  c #4C2A21",
"h  c #5B3821",
"j  c #433026",
"k  c #733E20",
"l  c #6C3B20",
"z  c #0D420D",
"x  c #15460E",
"c  c #0D4B13",
"v  c #0A4716",
"b  c #134D10",
"n  c #1C4C13",
"m  c #0E5416",
"M  c #0E5D1B",
"N  c #0B561D",
"B  c #155617",
"V  c #215215",
"C  c #225C16",
"Z  c #30591A",
"A  c #304916",
"S  c #0F651E",
"D  c #0E691F",
"F  c #1E6316",
"G  c #13641C",
"H  c #216B19",
"J  c #27731B",
"K  c #2C7B1E",
"L  c #30751E",
"P  c #0C5F20",
"I  c #195C3B",
"U  c #355A27",
"Y  c #344E20",
"T  c #0C6321",
"R  c #0F6D23",
"E  c #0F7124",
"W  c #0F7C29",
"Q  c #0E7A27",
"!  c #107426",
"~  c #107C29",
"^  c #1A7528",
"/  c #136828",
"(  c #266D25",
")  c #207428",
"_  c #2E6B38",
"`  c #404116",
"'  c #464601",
"]  c #73401F",
"[  c #68401F",
"{  c #5E620D",
"}  c #6A6A01",
"|  c #49492D",
" . c #425E25",
".. c #50512A",
"X. c #684621",
"o. c #684827",
"O. c #754120",
"+. c #7D4D2C",
"@. c #764622",
"#. c #695626",
"$. c #77592F",
"%. c #496722",
"&. c #5A7325",
"*. c #537E26",
"=. c #546E25",
"-. c #6E6931",
";. c #095A40",
":. c #3F6A40",
">. c #325271",
",. c #1E7877",
"<. c #0A725E",
"1. c #534B4B",
"2. c #6A5947",
"3. c #6B6656",
"4. c #786C59",
"5. c #496E6F",
"6. c #7B7673",
"7. c #596A51",
"8. c #867013",
"9. c #81522B",
"0. c #895B2F",
"q. c #835432",
"w. c #8C5E31",
"e. c #804F2C",
"r. c #866436",
"t. c #936938",
"y. c #9A7D3E",
"u. c #9B723C",
"i. c #926D29",
"p. c #A3783D",
"a. c #827E54",
"s. c #A47A41",
"d. c #A87E44",
"f. c #817460",
"g. c #917C77",
"h. c #168029",
"j. c #1E8629",
"k. c #258B2A",
"l. c #328521",
"z. c #358C22",
"x. c #3A8622",
"c. c #3A9425",
"v. c #3B9A26",
"b. c #369B29",
"n. c #369727",
"m. c #298C34",
"M. c #3CA129",
"N. c #6FBC1F",
"B. c #489929",
"V. c #528226",
"C. c #41A529",
"Z. c #43A92A",
"A. c #4CA02C",
"S. c #55AD25",
"D. c #53A72D",
"F. c #76B621",
"G. c #448919",
"H. c #2B8C42",
"J. c #808100",
"K. c #A58615",
"L. c #9C843D",
"P. c #B69D31",
"I. c #AD8730",
"U. c #B6AE2A",
"Y. c #C3A92B",
"T. c #D2BD21",
"R. c #CDB33E",
"E. c #CEBA0B",
"W. c #AFD016",
"Q. c #9DCF15",
"!. c #D6D60A",
"~. c #DEF01C",
"^. c #E3E302",
"/. c #EBF604",
"(. c #FEFE00",
"). c #FAF702",
"_. c #E7FC1C",
"`. c #D6C237",
"'. c #EAD325",
"]. c #88885B",
"[. c #AB844A",
"{. c #B08859",
"}. c #98A240",
"|. c #B38D61",
" X c #9DA172",
".X c #A5A97C",
"XX c #A0A258",
"oX c #C39746",
"OX c #CDA950",
"+X c #E5B34F",
"@X c #C9A77C",
"#X c #D2B17F",
"$X c #067E86",
"%X c #0F8F9D",
"&X c #17B2DC",
"*X c #29AAC0",
"=X c #00BAFE",
"-X c #12C3EF",
";X c #818182",
":X c #9CB59D",
">X c #C9AD85",
",X c #D7B58A",
"<X c #D7B58C",
"1X c #B1C3B1",
"2X c #DCC29C",
"3X c #E3C49A",
"4X c #ECD1A8",
"5X c #F1D6AD",
"6X c #F4D8AF",
"7X c #F6DDB3",
"8X c #EBCEA5",
"9X c #FFE8BF",
"0X c #BFCECD",
"qX c #DDEADF",
"wX c #FFEBC2",
"eX c #FFF0C5",
"rX c #DAE0E8",
"tX c #FEFEFE",
"yX c #EAF5EC",
"uX c #5EB054",
/* pixels */
"uXuXuXuXuXuXuXuXuXuXuXuXuXuXuXuXuXuXuXuXuXuXuXuXuXuXuXuXuXuXuXuXuXuXuXuXuXuXuXuXuXuXuXuXuXuXuXuXuXuXuXuXuXuXuXuXuXuXuX",
"uXuXuXuXuXuXuXuXuXuXuXuXuXuXuXuXuXuXuXuXuXuXuXO.O.9.s.s.s.s.p.d.L.9.] O.uXuXuXuXuXuXuXuXuXuXuXuXuXuXuXuXuXuXuXuXuXuXuX",
"uXuXuXuXuXuXuXuXuXuXuXuXuXuXuXuXuXuXuXuXuXuXuXk f 9.s.s.s.s.s.s.s.+.] O.uXuXuXuXuXuXuXuXuXuXuXuXuXuXuXuXuXuXuXuXuXuXuX",
"uXuXuXuXuXuXuXuXuXuXuXuXuXuXuXuXuXuXuXuXuX  . t.p.I.T.T.T.T.Y.d.s.t.w.i.).uXY.s.uXuXuXuXuXuXuXuXuXuXuXuXuXuXuXuXuXuXuX",
"uXuXuXuXuXuXuXuXuXuXuXuXuXuXuXuXuXuXuXuXuX  . I.+X`.(.(.(.(.^.d.y.s.s.P.).(.Y.s.s.uXuXuXuXuXuXuXuXuXuXuXuXuXuXuXuXuXuX",
"uXuXuXuXuXuXuXuXuXuXuXuXuXuXuXuXuXuXuXuXuX$ * L.+X`././././.!.s.y.[.y.P.(.).Y.s.s.uXuXuXuXuXuXuXuXuXuXuXuXuXuXuXuXuXuX",
"uXuXuXuXuXuXuXuXuXuXuXuXuXuXuXuXuXuX    0 c.c.A.D.D.S.S.S.S.D.A.A.A.B.F.).(.Y.s.s.s.s.uXuXuXuXuXuXuXuXuXuXuXuXuXuXuXuX",
"uXuXuXuXuXuXuXuXuXuXuXuXuXuXuXuXuXuX    0 C.C.C.C.C.Z.M.Z.Z.Z.M.Z.Z.M.N.(.(.Y.s.s.s.s.uXuXuXuXuXuXuXuXuXuXuXuXuXuXuXuX",
"uXuXuXuXuXuXuXuXuXuXuXuXuXuXuXuX    n V C J J J ( ( J J J J J J J J J G.Q.Q.P.oXoXT.`.K.uXuXuXuXuXuXuXuXuXuXuXuXuXuXuX",
"uXuXuXuXuXuXuXuXuXuXuXuXuXuXuXuX  X x.Z.l.8 z 9 z z 8 z z 8 z 8 8 8 8 B M.M.XX+X`.(.(.K.k @.uXuXuXuXuXuXuXuXuXuXuXuXuX",
"uXuXuXuXuXuXuXuXuXuXuXuXuXuXuXuXX $ K M.K b b b b b b b b b b b b b b F v.v.}.OXR.^.^.K.@.@.uXuXuXuXuXuXuXuXuXuXuXuXuX",
"uXuXuXuXuXuXuXuXuXuXuXuXuX    3 E R b b H v.v.v.v.v.v.v.v.v.v.v.v.v.v.l.b b J k.( ; - o.s.p.uXuXuXuXuXuXuXuXuXuXuXuXuX",
"uXuXuXuXuXuXuXuXuXuXuXuXuX    3 W W c 8 F C.C.C.C.C.C.C.M.C.C.C.C.C.C.z.z 8 D h.S     #.[.p.uXuXuXuXuXuXuXuXuXuXuXuXuX",
"uXuXuXuXuXuXuXuXuXuXuXuXuX    2 S M H J l.C.C.C.C.C.C.C.C.C.C.C.C.C.C.v.J J G M b     j uXuXuXuXuXuXuXuXuXuXuXuXuXuXuX",
"uXuXuXuXuXuXuXuXuXuXuXuXuX    % z z c.C.Z.C.M.M.C.C.C.C.C.C.C.C.C.C.C.C.Z.C.F 8 7     uXuXuXuXuXuXuXuXuXuXuXuXuXuXuXuX",
"uXuXuXuXuXuXuXuXuXuXuXuXuXX   1 c c z.v.v.C.Z.B.C.C.C.C.C.C.C.C.C.C.C.C.v.v.F c 8 X X uXuXuXuXuXuXuXuXuXuXuXuXuXuXuXuX",
"uXuXuXuXuXuXuXuXp.[.|.,X>XV 9 m ! ! B b H Z.Z.C.C.C.C.C.C.C.C.C.C.C.C.z.b b G ~ R 8 9 a.<X>X[.p.uXuXuXuXuXuXuXuXuXuXuX",
"uXuXuXuXuXuXuXuXy.p.|.,X>XY 9 M ~ Q c 9 B C.C.C.C.C.C.C.C.C.C.C.C.C.C.z.z z S ~ E z z ].,X@Xp.p.uXuXuXuXuXuXuXuXuXuXuX",
"uXuXuXuXuXuX] 9.@X#X<X8X2XU z m ~ ! G M ^ C.C.C.B.C.C.C.C.C.C.B.C.C.C.n.G M ! ~ R z z  X4X3X,X#X{.uXuXuXuXuXuXuXuXuXuX",
"uXuXuXuXuXuX] +.4X9XwXwX9XU z m ~ ~ W W k.C.C.Z.C.C.C.C.M.C.C.M.C.C.C.b.~ ~ Q ~ R z 8 .X9X9X9XwX{.f O.uXuXuXuXuXuXuXuX",
"uXuXuXuXuXuX] +.3X5X5X6X4XU z m ~ W ~ ! k.v.M.M.C.C.C.C.C.C.C.C.C.M.v.n.! ! ~ ~ R z z  X7X6X5X6X{.l O.uXuXuXuXuXuXuXuX",
"uXuXuXuXuXuXuXuX9.q.t.[.[.V z N ~ ~ m z M ~ h.v.C.C.C.C.C.C.C.C.M.k.h.! b c R ~ E z z -.{.d.q.q.uXuXuXuXuXuXuXuXuXuXuX",
"uXuXuXuXuXuXuXuX] ] w.d.u.A z m ~ Q c z m ~ ~ b.C.C.C.C.C.C.C.C.Z.k.~ E z z R ~ E z 8 -.s.u.] ] uXuXuXuXuXuXuXuXuXuXuX",
"uXuXuXuXuXuXuXuXuXuX+.w.w.<.%X<.M M 4 1 z ~ ~ k.k.n.C.C.C.C.M.k.k.h.~ T 5 % c M / $X$X7.w.0.@.] uXuXuXuXuXuXuXuXuXuXuX",
"uXuXuXuXuXuXuXuXuXuXuXf o.&X-X%X8 9 X   2 ~ ~ ~ Q k.M.Z.C.C.b.Q ~ ~ ~ P     4 z I =X=X5.k O.uXuXuXuXuXuXuXuXuXuXuXuXuX",
"uXuXuXuXuXuXuXuXuXuXuXd l *X-X%Xx x X   3 ~ ~ ~ Q j.B.C.M.M.n.~ ~ ~ ~ P     4 0 I &X-X5.s s uXuXuXuXuXuXuXuXuXuXuXuXuX",
"uXuXuXuXuXuXuXuXuXuXuX. + W._.U.d s +   3 ~ ~ ~ Q ~ ~ ~ ~ h.~ W ~ ~ ~ P     u X.8.~._.{ . . uXuXuXuXuXuXuXuXuXuXuXuXuX",
"uXuXuXuXuXuXuXuXuXuXuX  O !.(.E.k f @   3 ~ ~ ~ Q Q ~ ~ ~ ~ ~ ~ ~ ~ ~ T     u O.8.).(.{     uXuXuXuXuXuXuXuXuXuXuXuXuX",
"uXuXuXuXuXuXuXuXuXuXuX  # } F.8.w.q.=   2 M M ! ~ ~ ~ ~ ~ ~ Q ~ ~ S M v     p w.w.8.J.' uXuXuXuXuXuXuXuXuXuXuXuXuXuXuX",
"uXuXuXuXuXuXuXuXuXuXuXuXuX    e d.s.;   $ z z E ~ ! ~ ~ ~ ~ ~ ~ ~ m z 7     #.[.r.    uXuXuXuXuXuXuXuXuXuXuXuXuXuXuXuX",
"uXuXuXuXuXuXuXuXuXuXuXuXuX    e u.r.=   $ 8 8 R ~ ~ Q ~ ~ ~ ~ ~ ~ m 8 4     o.u.$.X   uXuXuXuXuXuXuXuXuXuXuXuXuXuXuXuX",
"uXuXuXuXuXuXuXuXuXuXuXuXuXuXuXuX+ + X       X T ~ ~ ~ ~ ~ ~ ~ ~ ~ 3         o + + uXuXuXuXuXuXuXuXuXuXuXuXuXuXuXuXuXuX",
"uXuXuXuXuXuXuXuXuXuXuXuXuXuXuXuX              T ~ ~ ~ ~ ~ ! W ~ ~ 2               uXuXuXuXuXuXuXuXuXuXuXuXuXuXuXuXuXuX",
"uXuXuXuXuXuXuXuXuXuXuXuXuXuXuX2 q q 3 & $     v T R ~ ~ ~ ~ ! M M &   X & 2 q q q     uXuXuXuXuXuXuXuXuXuXuXuXuXuXuXuX",
"uXuXuXuXuXuXuXuXuXuXuXuXuX    3 ~ W m z 4     7 z m ~ ~ ~ ~ R 8 z $   X z z R ~ T     uXuXuXuXuXuXuXuXuXuXuXuXuXuXuXuX",
"uXuXuXuXuXuXuXuXuXuXuXuXuX. . w H.m.b z 7 X X 7 8 c ! ~ ~ ~ R 8 8 & X % z z ) H._ O O uXuXuXuXuXuXuXuXuXuXuXuXuXuXuXuX",
"uXuXuXuXuXuXuXuXuXuXuX    < e f.yXqX_ 8 m R / &   3 ~ ~ ~ ~ P X   m E T z z :XyX0X>.>.t     uXuXuXuXuXuXuXuXuXuXuXuXuX",
"uXuXuXuXuXuXuXuXuXuXuX    y g g.tXtX:.8 N W W &   2 ~ ~ ~ ~ M     P ~ R z z 1XtXrX>.>.t     uXuXuXuXuXuXuXuXuXuXuXuXuX",
"uXuXuXuXuXuXuXuXuXuX; e < i h 2.;X6.| p Z Q ~ &   & M M S M v     N W ^ A ` 4.;X6.1.1.j : : X   uXuXuXuXuXuXuXuXuXuXuX",
"uXuXuXuXuXuXuXuX    : f f f k y     i f ..W ~ &   $ z z z z 4     N W ( k k >   # f ] ] O.s     uXuXuXuXuXuXuXuXuXuXuX",
"uXuXuXuXuXuXuXuX    < q.q.+.+.a   X p @.%.^ ^ - . * 8 9 8 8 4 . . B ^ L X.#.;   = +.+.e.q.o..   uXuXuXuXuXuXuXuXuXuXuX",
"uXuXuXuXuXuXuXuX    2.6X4X<X>Xa.8 z x.B.*.X.X.d d u   X     ; s d [ [ #.B.B.F 7 Y @X@X3X6X>XO   uXuXuXuXuXuXuXuXuXuXuX",
"uXuXuXuXuXuXuXuX    3.wX9X3X<X].z z n.M.V.k k k O.a         @ f k k f #.Z.C.F z U ,X<X5XeX2XO   uXuXuXuXuXuXuXuXuXuXuX",
"uXuXuXuXuXuXuXuXuXuX| f.f.3.2.| % 5 z.Z.B.&.&.&.&.%.V V V V Z &.&.&.&.*.C.Z.n % w 2.2.4.4.4.+   uXuXuXuXuXuXuXuXuXuXuX",
"uXuXuXuXuXuXuXuXuXuXuX              l.Z.C.Z.M.C.C.Z.C.Z.C.Z.Z.C.Z.Z.Z.C.C.C.0               uXuXuXuXuXuXuXuXuXuXuXuXuX",
"uXuXuXuXuXuXuXuXuXuXuX          . . L c.v.M.M.C.C.C.C.C.C.C.C.C.C.v.M.v.c.c.0 . .           uXuXuXuXuXuXuXuXuXuXuXuXuX",
"uXuXuXuXuXuXuXuXuXuXuXuXuX    @ y y - $ q ~ h.v.C.C.C.C.C.C.C.C.M.j.h./ $ $ , j <     uXuXuXuXuXuXuXuXuXuXuXuXuXuXuXuX",
"uXuXuXuXuXuXuXuXuXuXuXuXuX    @ g g .   3 ~ Q b.C.C.Z.C.Z.C.Z.C.M.j.W M     < g y     uXuXuXuXuXuXuXuXuXuXuXuXuXuXuXuX",
"uXuXuXuXuXuXuXuXuXuXuXuXuXuXuX+ > > > > r  . .=.&.%.V V V V Z &.&.%.%.Y > > > > >     uXuXuXuXuXuXuXuXuXuXuXuXuXuXuXuX",
"uXuXuXuXuXuXuXuXuXuXuXuXuXuXuXuX    e g h k k k k a         @ f O.@.O.l g g @     uXuXuXuXuXuXuXuXuXuXuXuXuXuXuXuXuXuX",
"uXuXuXuXuXuXuXuXuXuXuXuXuXuXuXuX    < y g l s s d u         ; s s l s i y j @     uXuXuXuXuXuXuXuXuXuXuXuXuXuXuXuXuXuX",
"uXuXuXuXuXuXuXuXuXuXuXuXuXuXuXuXuXuX. . . . . . . . uXuXuXuXuX. o . . .   . uXuXuXuXuXuXuXuXuXuXuXuXuXuXuXuXuXuXuXuXuX",
"uXuXuXuXuXuXuXuXuXuXuXuXuXuXuXuXuXuX                uXuXuXuXuX              uXuXuXuXuXuXuXuXuXuXuXuXuXuXuXuXuXuXuXuXuX",
"uXuXuXuXuXuXuXuXuXuXuXuXuXuXuXuXuXuXuX            uXuXuXuXuXuXuX            uXuXuXuXuXuXuXuXuXuXuXuXuXuXuXuXuXuXuXuXuX",
"uXuXuXuXuXuXuXuXuXuXuXuXuXuXuXuXuXuXuXuXuXuXuXuXuXuXuXuXuXuXuXuXuXuXuXuXuXuXuXuXuXuXuXuXuXuXuXuXuXuXuXuXuXuXuXuXuXuXuX",
"uXuXuXuXuXuXuXuXuXuXuXuXuXuXuXuXuXuXuXuXuXuXuXuXuXuXuXuXuXuXuXuXuXuXuXuXuXuXuXuXuXuXuXuXuXuXuXuXuXuXuXuXuXuXuXuXuXuXuX",
"uXuXuXuXuXuXuXuXuXuXuXuXuXuXuXuXuXuXuXuXuXuXuXuXuXuXuXuXuXuXuXuXuXuXuXuXuXuXuXuXuXuXuXuXuXuXuXuXuXuXuXuXuXuXuXuXuXuXuX"
};
