/* XPM */
static char *result[] = {
/* columns rows colors chars-per-pixel */
"59 63 198 2 ",
"   c #000101",
".  c #0B0604",
"X  c #020C04",
"o  c #07080A",
"O  c #150D08",
"+  c #051105",
"@  c #051F07",
"#  c #061808",
"$  c #1B1B01",
"%  c #18130A",
"&  c #161109",
"*  c #1B1917",
"=  c #0F1511",
"-  c #381F0F",
";  c #241411",
":  c #2A1A11",
">  c #381F10",
",  c #062107",
"<  c #072A0B",
"1  c #092409",
"2  c #152909",
"3  c #0C3D0C",
"4  c #0A350B",
"5  c #083D15",
"6  c #073A13",
"7  c #173413",
"8  c #3A2111",
"9  c #2D2B0B",
"0  c #172424",
"q  c #172839",
"w  c #43251D",
"e  c #5D381B",
"r  c #4D391F",
"t  c #663A1D",
"y  c #683A1D",
"u  c #653619",
"i  c #733F1E",
"p  c #4B2A20",
"a  c #543A22",
"s  c #4F3B21",
"d  c #663A21",
"f  c #743E20",
"g  c #0C420D",
"h  c #1B430D",
"j  c #12490F",
"k  c #0A4215",
"l  c #0D4A11",
"z  c #0B4E18",
"x  c #134C10",
"c  c #1F4A14",
"v  c #1F4718",
"b  c #0E5D1A",
"n  c #0E5014",
"m  c #165415",
"M  c #224D19",
"N  c #225215",
"B  c #27521E",
"V  c #384B19",
"C  c #0F611C",
"Z  c #13641C",
"A  c #27731B",
"S  c #2A781D",
"D  c #246919",
"F  c #285420",
"G  c #3C5E23",
"H  c #0E6D24",
"J  c #0D6321",
"K  c #196A25",
"L  c #0E7226",
"P  c #0E7B29",
"I  c #0C7C26",
"U  c #107526",
"Y  c #117927",
"T  c #1B7528",
"R  c #117D29",
"E  c #1C7722",
"W  c #236E27",
"Q  c #435004",
"!  c #46441A",
"~  c #5E401E",
"^  c #72401F",
"/  c #69451F",
"(  c #757701",
")  c #5B4622",
"_  c #425E25",
"`  c #5E4934",
"'  c #4D4020",
"]  c #694621",
"[  c #684825",
"{  c #744221",
"}  c #784623",
"|  c #774C29",
" . c #6C5329",
".. c #775332",
"X. c #664E39",
"o. c #5A7325",
"O. c #587A34",
"+. c #4B6624",
"@. c #7D613A",
"#. c #62682E",
"$. c #283644",
"%. c #0A604A",
"&. c #2E5174",
"*. c #315375",
"=. c #2E4B69",
"-. c #157B7D",
";. c #445F4B",
":. c #6E7658",
">. c #44627F",
",. c #716B67",
"<. c #8C7D12",
"1. c #85572D",
"2. c #835431",
"3. c #8C5E31",
"4. c #845639",
"5. c #8E6535",
"6. c #95743B",
"7. c #9E743E",
"8. c #A2783E",
"9. c #A67739",
"0. c #986D40",
"q. c #9C7F47",
"w. c #A47B41",
"e. c #A87E43",
"r. c #817561",
"t. c #14802A",
"y. c #288F29",
"u. c #268A28",
"i. c #358A22",
"p. c #299229",
"a. c #3B9425",
"s. c #3C9A26",
"d. c #389A28",
"f. c #3CA129",
"g. c #7F8000",
"h. c #64A218",
"j. c #628431",
"k. c #41A529",
"l. c #43AA2A",
"z. c #4FA32E",
"x. c #56AE25",
"c. c #53A72C",
"v. c #1A8279",
"b. c #838200",
"n. c #A69C1D",
"m. c #BCA20F",
"M. c #AE893A",
"N. c #A98A30",
"B. c #D2BE21",
"V. c #CDB523",
"C. c #A3D116",
"Z. c #98C818",
"A. c #CCDD19",
"S. c #E0DB08",
"D. c #E9E804",
"F. c #EAF504",
"G. c yellow",
"H. c #FDF808",
"J. c #E7FD1C",
"K. c #E8D529",
"L. c #B08850",
"P. c #BA9A45",
"I. c #BB9668",
"U. c #BD9671",
"Y. c #BFA77C",
"T. c #C89A4B",
"R. c #CBA648",
"E. c #D0B346",
"W. c #E6B84A",
"Q. c #E4AF55",
"!. c #E6B256",
"~. c #D1B07F",
"^. c #CCAA7A",
"/. c #057F89",
"(. c #496785",
"). c #79A884",
"_. c #24B3CE",
"`. c #0BAEEC",
"'. c DeepSkyBlue",
"]. c #1BC5E9",
"[. c #868889",
"{. c #9B9F9B",
"}. c #BDA292",
"|. c #97A187",
" X c #D7B68D",
".X c #D8BF93",
"XX c #8AC298",
"oX c #DCCA9E",
"OX c #E3C69E",
"+X c #E7CEA8",
"@X c #E6D4AB",
"#X c #F1D6AE",
"$X c #F7DCB1",
"%X c #D3D3D3",
"&X c #FFEBC1",
"*X c white",
"=X c #EDECED",
"-X c None",
/* pixels */
"-X-X-X-X-X-X-X-X-X-X-X-X-X-X-X-X-X-X-X-X-X-X-X-X-X-X-X-X-X-X-X-X-X-X-X-X-X-X-X-X-X-X-X-X-X-X-X-X-X-X-X-X-X-X-X-X-X-X-X",
"-X-X-X-X-X-X-X-X-X-X-X-X-X-X-X-X-X-X-X-X-X-X-X-X-X-X-X-X-X-X-X-X-X-X-X-X-X-X-X-X-X-X-X-X-X-X-X-X-X-X-X-X-X-X-X-X-X-X-X",
"-X-X-X-X-X-X-X-X-X-X-X-X-X-X-X-X-X-X-X-X-X-X-X    a e.w.w.w.w.w.7.} { -X-X-X-X-X-X-X-X-X-X-X-X-X-X-X-X-X-X-X-X-X-X-X-X",
"-X-X-X-X-X-X-X-X-X-X-X-X-X-X-X-X-X-X-X-X-X-X-X    a w.w.w.q.w.w.7.} f -X-X-X-X-X-X-X-X-X-X-X-X-X-X-X-X-X-X-X-X-X-X-X-X",
"-X-X-X-X-X-X-X-X-X-X-X-X-X-X-X-X-X-X-X-X-X  %  . .N.B.B.V.B.B.B.V.M.9.9.-X-X-X-X-X-X-X-X-X-X-X-X-X-X-X-X-X-X-X-X-X-X-X",
"-X-X-X-X-X-X-X-X-X-X-X-X-X-X-X-X-X-X-X-X    % T.Q.K.G.G.G.G.G.G.H.!.Q.T.w.w.-X-X-X-X-X-X-X-X-X-X-X-X-X-X-X-X-X-X-X-X-X",
"-X-X-X-X-X-X-X-X-X-X-X-X-X-X-X-X-X-X-X-XX + 2 P.R.K.F.F.F.F.F.F.D.E.R.T.M.M.-X-X-X-X-X-X-X-X-X-X-X-X-X-X-X-X-X-X-X-X-X",
"-X-X-X-X-X-X-X-X-X-X-X-X-X-X-X-X-X-X    N a.a.z.c.c.x.x.x.x.x.x.x.z.z.Z.H.D.M.w.-X-X-X-X-X-X-X-X-X-X-X-X-X-X-X-X-X-X-X",
"-X-X-X-X-X-X-X-X-X-X-X-X-X-X-X-X-X-X    N l.k.k.k.k.k.k.k.k.k.k.k.k.f.C.G.H.M.e.-X-X-X-X-X-X-X-X-X-X-X-X-X-X-X-X-X-X-X",
"-X-X-X-X-X-X-X-X-X-X-X-X-X-X-X-X  + c N D A A A A A A A A A A A A A A h.C.Z.j.O.#.-X-X-X-X-X-X-X-X-X-X-X-X-X-X-X-X-X-X",
"-X-X-X-X-X-X-X-X-X-X-X-X-X-X-X    + a.l.A 3 3 g g g 3 g g 3 g g 3 g 3 A f.f.I I _ f { -X-X-X-X-X-X-X-X-X-X-X-X-X-X-X-X",
"-X-X-X-X-X-X-X-X-X-X-X-X-X-X-X    # i.s.A x x x x x x x x x x x x x x A s.d.t.P +.} } -X-X-X-X-X-X-X-X-X-X-X-X-X-X-X-X",
"-X-X-X-X-X-X-X-X-X-X-X-X-X    @ 3 3 x x A s.s.s.s.s.s.a.s.s.s.s.s.s.s.A x x U P O.w.8.-X-X-X-X-X-X-X-X-X-X-X-X-X-X-X-X",
"-X-X-X-X-X-X-X-X-X-X-X-X-X    , g j 3 3 A k.k.k.k.k.k.k.k.k.k.k.k.k.l.A g l U P O.w.w.-X-X-X-X-X-X-X-X-X-X-X-X-X-X-X-X",
"-X-X-X-X-X-X-X-X-X-X-X-X-X    , g j A A i.k.k.k.k.k.k.k.k.k.k.k.f.k.k.A 3 l U R O.w.w.-X-X-X-X-X-X-X-X-X-X-X-X-X-X-X-X",
"-X-X-X-X-X-X-X-X-X-X-X-X-X    , g x s.k.k.k.k.k.k.k.k.k.k.k.k.f.k.k.l.A 3 l U R O.w.w.-X-X-X-X-X-X-X-X-X-X-X-X-X-X-X-X",
"-X-X-X-X-X-X-X-X-X-X-X-X-XX   , l x a.s.s.k.k.k.k.k.k.k.k.k.k.k.k.s.s.A g l U L O.6.6.-X-X-X-X-X-X-X-X-X-X-X-X-X-X-X-X",
"-X-X-X-X-X-X-X-Xe.8.I. XY.v 3 b L U x l S l.k.k.k.k.k.k.k.k.k.k.s.m x Z U L l l j h B }. XI.8.e.-X-X-X-X-X-X-X-X-X-X-X",
"-X-X-X-X-X-X-X-X8.8.I. XY.M g b t.L l 3 A l.k.k.k.k.k.k.k.s.k.k.s.x 3 b R U g g g g N ^. XI.8.8.-X-X-X-X-X-X-X-X-X-X-X",
"-X-X-X-X-X-X{ 2.^.~..X+X.XB g b P Y C b T y.p.k.k.k.k.k.k.k.k.k.s.Z b H P R C C n g M .X+X.X~.^.4.f -X-X-X-X-X-X-X-X-X",
"-X-X-X-X-X{ ^ 2.#X&X&X&X@XF g b P P P R P P t.f.k.k.k.k.k.k.k.k.f.t.R R R R R R b g F @X&X&X&X#X1.i { -X-X-X-X-X-X-X-X",
"-X-X-X-X-X-X^ 2.OX#X#X$XoXM g b Y U H H U R R f.k.k.k.k.k.k.k.k.f.R R U H H U U b g M oX$X@X#XOX2.i -X-X-X-X-X-X-X-X-X",
"-X-X-X-X-X-X-X-X2.2.6.L.L.x g k l g + X k R t.f.k.k.k.s.k.k.k.k.f.t.t.k X + g j g g h M.L.0...2.-X-X-X-X-X-X-X-X-X-X-X",
"-X-X-X-X-X-X-X-Xi i 3.w.6.h 3 k g 3     5 R t.f.k.k.k.k.k.k.k.k.f.t.P 5     3 g g 3 h 6.L.1.f ] -X-X-X-X-X-X-X-X-X-X-X",
"-X-X-X-X-X-X-X-X-X-X1.3.@.-./.%.3 3     5 R R y.y.a.k.k.k.k.d.y.u.R R 5     3 3 %./.-.@.3.1.-X-X-X-X-X-X-X-X-X-X-X-X-X",
"-X-X-X-X-X-X-X-X-X-X-Xi X.`.]./.g 3 X   5 R R P U y.k.k.k.k.u.P P R R k   X 3 g /.'.`.X.i -X-X-X-X-X-X-X-X-X-X-X-X-X-X",
"-X-X-X-X-X-X-X-X-X-Xt t ` _.].v.3 7 X   6 R U R R u.s.k.s.k.u.R R U Y 6     3 3 v.]._.X.y t -X-X-X-X-X-X-X-X-X-X-X-X-X",
"-X-X-X-X-X-X-X-X-X-X. . $ A.J.n./ t .   1 g l L R R t.t.R R R R U l l 1   . t / n.J.A.$ . . -X-X-X-X-X-X-X-X-X-X-X-X-X",
"-X-X-X-X-X-X-X-X-X-X    $ D.G.m.y u .   @ g l L R R P Y R R R R U l g @     u i m.G.D.$     -X-X-X-X-X-X-X-X-X-X-X-X-X",
"-X-X-X-X-X-X-X-X-X-X-X  $ ( <.<.9.9.b.b.Q , < b b H P R R R H b b < @ Q b.<.9.9.<.<.( $   -X-X-X-X-X-X-X-X-X-X-X-X-X-X",
"-X-X-X-X-X-X-X-X-X-X-X-X-X     .!.W.H.G.b.  . 4 5 b R Y Y R b g 3     b.G.H.W.!. .    -X-X-X-X-X-X-X-X-X-X-X-X-X-X-X-X",
"-X-X-X-X-X-X-X-X-X-X-X-X-X     .T.R.S.D.(   X 4 3 b R R R R b 3 4 X   ( D.S.R.T. .    -X-X-X-X-X-X-X-X-X-X-X-X-X-X-X-X",
"-X-X-X-X-X-X-X-X-X-X-X-X-X-X-X& % % $ $ 2 3 4 X   k R P R R k   X 4 3 2 $ $ % % & -X-X-X-X-X-X-X-X-X-X-X-X-X-X-X-X-X-X",
"-X-X-X-X-X-X-X-X-X-X-X-X-X-X-X-X        , g 3     k t.R R R 5   X 3 g ,           -X-X-X-X-X-X-X-X-X-X-X-X-X-X-X-X-X-X",
"-X-X-X-X-X-X-X-X-X-X-X-X-X-X-X      6 k k g 3 X   < C b b C 4   X 3 g ,         -X-X-X-X-X-X-X-X-X-X-X-X-X-X-X-X-X-X-X",
"-X-X-X-X-X-X-X-X-X-X-X-X-X-X-X-X  X L t.C g 3     , g g g g @     3 g ,     -X-X-X-X-X-X-X-X-X-X-X-X-X-X-X-X-X-X-X-X-X",
"-X-X-X-X-X-X-X-X-X-X-X-X-X-X-XX X # K T b l g X X , 3 3 3 3 ,   X 3 g < X X -X-X-X-X-X-X-X-X-X-X-X-X-X-X-X-X-X-X-X-X-X",
"-X-X-X-X-X-X-X-X-X-X-X-X-X    6 H H ~ ] G L H g 3 , X       1 3 3 g g b L C +   -X-X-X-X-X-X-X-X-X-X-X-X-X-X-X-X-X-X-X",
"-X-X-X-X-X-X-X-X-X-X-X-X-X    6 t.I ] { _ P Y l g @         @ g g 3 g C I C +     -X-X-X-X-X-X-X-X-X-X-X-X-X-X-X-X-X-X",
"-X-X-X-X-X-X-X-X-X-X-X-X-X    ;.XX|...{ _ P Y C b z 5 5 k 5 z b b V r :.XX).=     -X-X-X-X-X-X-X-X-X-X-X-X-X-X-X-X-X-X",
"-X-X-X-X-X-X-X-X-X-X-X-X-X    [.*X=X4.^ _ R t.R P P t.R P t.R R T { i }.*X=X*   -X-X-X-X-X-X-X-X-X-X-X-X-X-X-X-X-X-X-X",
"-X-X-X-X-X-X-X-X-X-X-X-X-X    ,.=X%X../ _ T T T T T T T T T T T W d u |.=X%X0 o o -X-X-X-X-X-X-X-X-X-X-X-X-X-X-X-X-X-X",
"-X-X-X-X-X-X-X-X-X-X-X-X-X-X-X* * 0 K T _ ^ ] ] ] ] ] ] [ ] ] ] a % . $.(.(.=.=.q     -X-X-X-X-X-X-X-X-X-X-X-X-X-X-X-X",
"-X-X-X-X-X-X-X-X-X-X-X-X-X-X-X-X  X H P _ ^ } ^ } { f f { ^ i { y .   q *.&.*.*.q     -X-X-X-X-X-X-X-X-X-X-X-X-X-X-X-X",
"-X-X-X-X-X-X-X-X-X-X-X-X-X-X-X    X u.y.G - 8 8 - ! o.o.o.o.o.o.+.2 , 0 q $.[.{.,.- 8 .   -X-X-X-X-X-X-X-X-X-X-X-X-X-X",
"-X-X-X-X-X-X-X-X-X-X-X-X-X-X-X    + a.l.c         c l.l.k.k.f.l.s.c g ,   * @X&XI.^ y .     -X-X-X-X-X-X-X-X-X-X-X-X-X",
"-X-X-X-X-X-X-X-X-X-X-X-X-X-X-X    + i.s.N . . O O B s.a.f.k.k.k.s.m l ,   * +X&XI.y t .     -X-X-X-X-X-X-X-X-X-X-X-X-X",
"-X-X-X-X-X-X-X-X-X-X-X-X-X-X-X    . g x V y y 5.6.! + 1 a.k.k.k.f.Y I 6   * +X&XI.i t .     -X-X-X-X-X-X-X-X-X-X-X-X-X",
"-X-X-X-X-X-X-X-X-X-X-X-X-X-X-X    o 3 g ! ^ } 7.e.a   + a.f.k.l.f.t.t.k   * +X&XU.{ y .     -X-X-X-X-X-X-X-X-X-X-X-X-X",
"-X-X-X-X-X-X-X-X-X-X-X-X-X-X-X-X    @ @ r 3.5.7.w.[ ; : M N N N c g 5 < -X* :.,.` - > .   -X-X-X-X-X-X-X-X-X-X-X-X-X-X",
"-X-X-X-X-X-X-X-X-X-X-X-X-X-X-X-X-X-X    a w.L.7.w...p w .             -X-X-X.         -X-X-X-X-X-X-X-X-X-X-X-X-X-X-X-X",
"-X-X-X-X-X-X-X-X-X-X-X-X-X-X-X-X-X-Xo . ) M.8.8.q...p w .             -X-X-X          -X-X-X-X-X-X-X-X-X-X-X-X-X-X-X-X",
"-X-X-X-X-X-X-X-X-X-X-X-X-X-X-X-X  . e t 1.w.w.w.w...p p .     -X-X-X-X-X-X-X-X-X-X-X-X-X-X-X-X-X-X-X-X-X-X-X-X-X-X-X-X",
"-X-X-X-X-X-X-X-X-X-X-X-X-X-X-X    . t ^ 3.w.q.w.w...p 8 .     -X-X-X-X-X-X-X-X-X-X-X-X-X-X-X-X-X-X-X-X-X-X-X-X-X-X-X-X",
"-X-X-X-X-X-X-X-X-X-X-X-X-X-X-X    . t { 3.w.w.w.e.[ ; ; .   -X-X-X-X-X-X-X-X-X-X-X-X-X-X-X-X-X-X-X-X-X-X-X-X-X-X-X-X-X",
"-X-X-X-X-X-X-X-X-X-X-X-X-X-X-X    . t { 3.w.w.e.e.a     -X-X-X-X-X-X-X-X-X-X-X-X-X-X-X-X-X-X-X-X-X-X-X-X-X-X-X-X-X-X-X",
"-X-X-X-X-X-X-X-X-X-X-X-X-X-X-X    . t f 1.w.7.0.w.s     -X-X-X-X-X-X-X-X-X-X-X-X-X-X-X-X-X-X-X-X-X-X-X-X-X-X-X-X-X-X-X",
"-X-X-X-X-X-X-X-X-X-X-X-X-X-X-X    . w p d } { a a ;     -X-X-X-X-X-X-X-X-X-X-X-X-X-X-X-X-X-X-X-X-X-X-X-X-X-X-X-X-X-X-X",
"-X-X-X-X-X-X-X-X-X-X-X-X-X-X-X    . w p t { { p p ;     -X-X-X-X-X-X-X-X-X-X-X-X-X-X-X-X-X-X-X-X-X-X-X-X-X-X-X-X-X-X-X",
"-X-X-X-X-X-X-X-X-X-X-X-X-X-X-X-X  . ; ; : 8 > ; ; & -X-X-X-X-X-X-X-X-X-X-X-X-X-X-X-X-X-X-X-X-X-X-X-X-X-X-X-X-X-X-X-X-X",
"-X-X-X-X-X-X-X-X-X-X-X-X-X-X-X-X-X-X              -X-X-X-X-X-X-X-X-X-X-X-X-X-X-X-X-X-X-X-X-X-X-X-X-X-X-X-X-X-X-X-X-X-X",
"-X-X-X-X-X-X-X-X-X-X-X-X-X-X-X-X-X-X              -X-X-X-X-X-X-X-X-X-X-X-X-X-X-X-X-X-X-X-X-X-X-X-X-X-X-X-X-X-X-X-X-X-X",
"-X-X-X-X-X-X-X-X-X-X-X-X-X-X-X-X-X-X-X-X-X-X-X-X-X-X-X-X-X-X-X-X-X-X-X-X-X-X-X-X-X-X-X-X-X-X-X-X-X-X-X-X-X-X-X-X-X-X-X"
};
