/* XPM */
static char *result[] = {
/* columns rows colors chars-per-pixel */
"54 63 201 2 ",
"   c #000101",
".  c #0B0604",
"X  c #020C05",
"o  c #050A0D",
"O  c #07070A",
"+  c #110D08",
"@  c #100C07",
"#  c #051105",
"$  c #051E06",
"%  c #031909",
"&  c #1A1A01",
"*  c #14150A",
"=  c #00131C",
"-  c #19191A",
";  c #381D0E",
":  c #251710",
">  c #3A1F10",
",  c #361F10",
"<  c #26160B",
"1  c #062107",
"2  c #072508",
"3  c #07290B",
"4  c #0A280A",
"5  c #142D07",
"6  c #0A350B",
"7  c #0B3D0B",
"8  c #043C0E",
"9  c #073D15",
"0  c #093C15",
"q  c #27230A",
"w  c #222A16",
"e  c #3A2111",
"r  c #392516",
"t  c #323201",
"y  c #42271C",
"u  c #4E3A1F",
"i  c #45361E",
"p  c #542F1D",
"a  c #673A1D",
"s  c #713E1D",
"d  c #523E22",
"f  c #5C3721",
"g  c #463229",
"h  c #753F20",
"j  c #0C420D",
"k  c #124B0F",
"l  c #0C4413",
"z  c #0E4911",
"x  c #0B4E18",
"c  c #134C11",
"v  c #1F4D14",
"b  c #0E5D1A",
"n  c #0D5317",
"m  c #195514",
"M  c #27570C",
"N  c #28580C",
"B  c #264114",
"V  c #215215",
"C  c #215917",
"Z  c #384914",
"A  c #0E611C",
"S  c #14651C",
"D  c #27731B",
"F  c #29751C",
"G  c #336812",
"H  c #0A4D26",
"J  c #184927",
"K  c #3B5A23",
"L  c #0E6E25",
"P  c #0E6321",
"I  c #0F7226",
"U  c #0E7B29",
"Y  c #107626",
"T  c #107C29",
"R  c #1A7827",
"E  c #347F2F",
"W  c #414117",
"Q  c #49501B",
"!  c #74401E",
"~  c #695F11",
"^  c #777801",
"/  c #425E25",
"(  c #475222",
")  c #54592A",
"_  c #6E4C21",
"`  c #684824",
"'  c #744220",
"]  c #794522",
"[  c #7B4B25",
"{  c #675125",
"}  c #72512E",
"|  c #536434",
" . c #4E6F27",
".. c #476F0E",
"X. c #27425D",
"o. c #294867",
"O. c #2C5074",
"+. c #484342",
"@. c #534A49",
"#. c #5D7F48",
"$. c #737D4E",
"%. c #747350",
"&. c #787777",
"*. c #85571C",
"=. c #81512C",
"-. c #845820",
";. c #8C5E31",
":. c #855534",
">. c #926E3A",
",. c #926B35",
"<. c #95713B",
"1. c #9D723C",
"2. c #9E7C35",
"3. c #826334",
"4. c #A2763E",
"5. c #927940",
"6. c #A47B41",
"7. c #A97F43",
"8. c #A27854",
"9. c #827661",
"0. c #13802A",
"q. c #1C8529",
"w. c #258225",
"e. c #278928",
"r. c #299029",
"t. c #3B9325",
"y. c #3B9A26",
"u. c #3A9C29",
"i. c #34882B",
"p. c #3DA229",
"a. c #789307",
"s. c #469928",
"d. c #489B29",
"f. c #41A529",
"g. c #43A92A",
"h. c #4EA322",
"j. c #56B025",
"k. c #7AAF15",
"l. c #2A8C42",
"z. c #79CA74",
"x. c #818000",
"c. c #839004",
"v. c #87A207",
"b. c #AE8A3A",
"n. c #93AB3B",
"m. c #94B234",
"M. c #BFB821",
"N. c #C4B31F",
"B. c #D3BE20",
"V. c #C7AE2C",
"C. c #95C717",
"Z. c #A0D215",
"A. c #CED702",
"S. c #D8D204",
"D. c #E6EC01",
"F. c #E9EB00",
"G. c #E9E600",
"H. c #F4EB05",
"J. c #EBF503",
"K. c #F5F107",
"L. c yellow",
"P. c #FFF908",
"I. c #D7C725",
"U. c #EED229",
"Y. c #D7EB08",
"T. c #AA824A",
"R. c #AB8143",
"E. c #B9914F",
"W. c #869364",
"Q. c #B9936E",
"!. c #BC9770",
"~. c #C8994B",
"^. c #D29F4E",
"/. c #D1A44C",
"(. c #E4B053",
"). c #CFAD7D",
"_. c #387E93",
"`. c #3D7A84",
"'. c #757981",
"]. c #019ACC",
"[. c #03A1CD",
"{. c #00A9EA",
"}. c #00B0EA",
"|. c #00BDFF",
" X c #828383",
".X c #889AA6",
"XX c #9AACBC",
"oX c #CFAD83",
"OX c #D0AE83",
"+X c #D6B488",
"@X c #DEBC93",
"#X c #81E182",
"$X c #E2C49D",
"%X c #F6DBB1",
"&X c #FDE2B9",
"*X c #D2D4CF",
"=X c #FFEBC2",
"-X c #FFF1C7",
";X c white",
":X c #ECEEEA",
">X c None",
/* pixels */
">X>X>X>X>X>X>X>X>X>X>X>X>X>X>X>X>X>X>X>X>X>X>X>X>X>X>X>X>X>X>X>X>X>X>X>X>X>X>X>X>X>X>X>X>X>X>X>X>X>X>X>X>X>X",
">X>X>X>X>X>X>X>X>X>X>X>X>X>X>X>X>X>X>X>X>X>X>X>X>X>X>X>X>X>X>X>X>X>X>X>X>X>X>X>X>X>X>X>X>X>X>X>X>X>X>X>X>X>X",
">X>X>X>X>X>X>X>X>X>X>X>X>X>X>X>X>X>X>X>X>X>X>X>X>X>X>X>X>X>X>X>X>X>X>X>X>X>X>X>X>X>X>X>X>X>X>X>X>X>X>X>X>X>X",
">X>X>X>X>X>X>X>X>X>X>X>X>X>X>X>X>X>X>X>X>X>X>X>X>X>X>X>X>X>X>X>X>X>X>X>X>X>X>X>X>X>X>X>X>X>X>X>X>X>X>X>X>X>X",
">X>X>X>X>X>X>X>X>X>X>X>X>X>X>X>X>X>X>X>X>X  + >.6.6.6.6.6.6.;.' >X>X>X>X>X>X>X>X>X>X>X>X>X>X>X>X>X>X>X>X>X>X",
">X>X>X>X>X>X>X>X>X>X>X>X>X>X>X>X>X>X>X>X    + >.6.6.6.7.6.6.;.h ' >X>X>X>X>X>X>X>X>X>X>X>X>X>X>X>X>X>X>X>X>X",
">X>X>X>X>X>X>X>X>X>X>X>X>X>X>X>X>X>X>X>X* * : 2.b.b.b.b.b.b.,.[ [ >X>X>X>X>X>X>X>X>X>X>X>X>X>X>X>X>X>X>X>X>X",
">X>X>X>X>X>X>X>X>X>X>X>X>X>X>X>X>X>X    { ~./.H.K.K.K.K.K.K.I.^.^.R.6.>X>X>X>X>X>X>X>X>X>X>X>X>X>X>X>X>X>X>X",
">X>X>X>X>X>X>X>X>X>X>X>X>X>X>X>X>X>X    } (.(.P.L.L.L.L.L.L.U.(.(.6.6.>X>X>X>X>X>X>X>X>X>X>X>X>X>X>X>X>X>X>X",
">X>X>X>X>X>X>X>X>X>X>X>X>X>X>X>X  # v v  .n.n.Z.Z.Z.Z.Z.Z.Z.m.n.n.B.B.M.>X6.] ' >X>X>X>X>X>X>X>X>X>X>X>X>X>X",
">X>X>X>X>X>X>X>X>X>X>X>X>X>X>X    # t.f.g.g.g.p.p.p.p.p.p.p.g.p.j.J.L.B.8.1.[ ! ! >X>X>X>X>X>X>X>X>X>X>X>X>X",
">X>X>X>X>X>X>X>X>X>X>X>X>X>X>X# # 1 t.y.y.p.y.y.t.y.y.y.y.y.y.y.h.Y.J.N.5.<.=.[ =.>X>X>X>X>X>X>X>X>X>X>X>X>X",
">X>X>X>X>X>X>X>X>X>X>X>X>X    v s.t.c k c c c k c c c c k k k k m h.j.t.R i.~./.E.4.4.>X>X>X>X>X>X>X>X>X>X>X",
">X>X>X>X>X>X>X>X>X>X>X>X>X    V g.y.k j 7 7 7 j j 7 7 7 j j j j k y.g.r.U q./.(.~.4.R.>X>X>X>X>X>X>X>X>X>X>X",
">X>X>X>X>X>X>X>X>X>X>X  X 0 9 m D D D D D D D D D D D D D D D D D D D R U e.I.U.V.6.6.>X>X>X>X>X>X>X>X>X>X>X",
">X>X>X>X>X>X>X>X>X>X    X I T b 7 k y.g.g.f.f.g.g.g.g.f.f.g.g.g.y.c 0 P U e.D.P.B.6.6.>X>X>X>X>X>X>X>X>X>X>X",
">X>X>X>X>X>X>X>X>X>X    X L Y A k m y.f.f.f.f.f.f.f.f.f.f.f.f.f.y.c j b U F A.D.N.6.6.>X>X>X>X>X>X>X>X>X>X>X",
">X>X>X>X>X>X>X>X>X>X      7 z D y.y.f.f.f.p.s.p.p.f.f.f.p.f.f.f.y.c j j z z M N G >X>X>X>X>X>X>X>X>X>X>X>X>X",
">X>X>X>X>X>X>X>X>X>X>X  X 6 7 F g.g.f.f.f.f.f.f.f.f.f.f.p.f.f.f.y.c j j j j j j >X>X>X>X>X>X>X>X>X>X>X>X>X>X",
">X>X>X>X>X>X6.T.OX>X) $ 2 b S S F F y.f.f.f.f.f.f.f.f.f.f.p.y.e.e.A A c j j j j | >XOXT.6.>X>X>X>X>X>X>X>X>X",
">X>X>X>X>X4.6.T.oX@X$.8 z Y T b 7 k y.p.f.f.f.f.f.f.f.f.f.f.e.Y T U U b j j j j $.@XoX8.6.4.>X>X>X>X>X>X>X>X",
">X>X>X>X>XT.T.E.+X@X$.7 j Y T b z m y.f.f.f.f.f.f.f.y.p.p.p.r.U T I L b j j j j $.@XoXE.T.T.>X>X>X>X>X>X>X>X",
">X>X>X' ! Q.%X&X&X&XW.8 j c j A I R p.f.f.f.f.f.f.r.0.0.0.0.T U L % X l U I z 7 W.&X&X%X&XQ.s ! >X>X>X>X>X>X",
">X>X>X' ! Q.=X=X&X=XW.j j j j b U 0.p.p.f.f.f.f.f.r.Y T T U T T L X   9 0.Y z 7 W.=X=X=X-XQ.s ! >X>X>X>X>X>X",
">X>X>X>X>X8.Q.!.).).$.j j 1 $ x T Y r.e.r.e.r.r.r.q.T T T Y T T L X   6 b b j j $.+XoXQ.Q.8.>X>X>X>X>X>X>X>X",
">X>X>X>X>X>Xs ] 4.4.) k 6 X   0 0.T T U T U U T Y T T T T T U 0.L X   1 l 7 j j ) 6.1.] h >X>X>X>X>X>X>X>X>X",
">X>X>X>X>X>X' ] 1.4.| H x     0 U I T T T T T T T T T Y Y I I L P #   2 j j H H ) 4.1.] ' >X>X>X>X>X>X>X>X>X",
">X>X>X>X>X>X>X>X[ ! `.}.].=   2 z z I T T T T T T T T Y z k 3 X # 7 7 j j H [.}.`.! ] >X>X>X>X>X>X>X>X>X>X>X",
">X>X>X>X>X>X>X>X! ! _.|.{.=   $ j z Y T T T T T T T T Y z j 1     7 j j j H }.|._.! ! >X>X>X>X>X>X>X>X>X>X>X",
">X>X>X>X>X>X>X>Xe , #.#Xz.i > q 1 3 Y T T T T T T L b n 3 2 1 1 2 7 j B W ( z.#X#.e e >X>X>X>X>X>X>X>X>X>X>X",
">X>X>X>X>X>X>X>X    *.L.H.*.' e   X L T Y T T T T A j 7     1 j j 7 j W h *.K.L.x.    >X>X>X>X>X>X>X>X>X>X>X",
">X>X>X>X>X>X>X>X    a.G.S.*.[ e   X L T T T T Y Y n 7 6 # X 5 N N N N Q ] -.S.F.^     >X>X>X>X>X>X>X>X>X>X>X",
">X>X>X>X>X>X>X>X>X>X& & q >.4.u   X L T T T Y c z 3   # 6 6 a.D.D.D.D.N.6.,.q & & >X>X>X>X>X>X>X>X>X>X>X>X>X",
">X>X>X>X>X>X>X>X>X>X    + <.R.d   X L T T T Y c j 2     6 8 v.L.L.L.L.I.7.>..     >X>X>X>X>X>X>X>X>X>X>X>X>X",
">X>X>X>X>X>X>X>X>X>X>X  + d d q   X n A S b b 3 1 1 1 5 a.v.c.^ *.x.^ ~ d u +   >X>X>X>X>X>X>X>X>X>X>X>X>X>X",
">X>X>X>X>X>X>X>X>X>X>X>X>X        X 7 j 7 j 6     1 j N J.L.x.  #           >X>X>X>X>X>X>X>X>X>X>X>X>X>X>X>X",
">X>X>X>X>X>X>X>X>X>X>X>X>X        X 7 j j j 6 X   5 M G S.G.^   #           >X>X>X>X>X>X>X>X>X>X>X>X>X>X>X>X",
">X>X>X>X>X>X>X>X>X>X>X>X>X        . 6 j j j 7     ^ D.A.t & 5 j 6 X     >X>X>X>X>X>X>X>X>X>X>X>X>X>X>X>X>X>X",
">X>X>X>X>X>X>X>X>X>X>X>X>X          7 j j j 7 X   x.L.G.&   $ j 7     >X>X>X>X>X>X>X>X>X>X>X>X>X>X>X>X>X>X>X",
">X>X>X>X>X>X>X>X>X>X>X  - &. X+.    $ 1 2 2 1 1 $ ..C.k.c 9 w Q Z 0 0 3 >X>X>X>X>X>X>X>X>X>X>X>X>X>X>X>X>X>X",
">X>X>X>X>X>X>X>X>X>X    - :X;X X              7 j b U U T T / s ` Y 0.l     >X>X>X>X>X>X>X>X>X>X>X>X>X>X>X>X",
">X>X>X>X>X>X>X>X>X>X    - *X:X&.      X X X # j z A U T T T / a ` i.l.J O o >X>X>X>X>X>X>X>X>X>X>X>X>X>X>X>X",
">X>X>X>X>X>X>X>X>X>X    @ } :.y   X 6 6 n I L U Y Y T T T T l . - *X:X.Xo.X.o   >X>X>X>X>X>X>X>X>X>X>X>X>X>X",
">X>X>X>X>X>X>X>X>X>X    . a ! y     7 j b U U U U U U U U T 0   - :X;XXXO.o.O   >X>X>X>X>X>X>X>X>X>X>X>X>X>X",
">X>X>X>X>X>X>X>X>X>X>X  . > > w l 0 Z i K / / / / / / / / / w   = .XXX'.@.+.r > < >X>X>X>X>X>X>X>X>X>X>X>X>X",
">X>X>X>X>X>X>X>X>X>X>X>X>X    0 0.R ` h s h h ' ' h h h ! ! e X o o.O.@.s h ] ] e     >X>X>X>X>X>X>X>X>X>X>X",
">X>X>X>X>X>X>X>X>X>X>X>X>XX X l 0.R { _ ' _ _ _ _ _ _ _ ! _ r   o X.o.@.=.:.' ' e     >X>X>X>X>X>X>X>X>X>X>X",
">X>X>X>X>X>X>X>X>X>X>X  X P L e.p.u.s.d.s.s.s.s.s.s.s.s.d.d.D 6 6 o O 9.%X$X=.' e     >X>X>X>X>X>X>X>X>X>X>X",
">X>X>X>X>X>X>X>X>X>X    X I T r.g.g.g.g.g.g.g.g.f.f.f.f.f.g.F j 6 X   9.-X%X:.h e     >X>X>X>X>X>X>X>X>X>X>X",
">X>X>X>X>X>X>X>X>X>X>X  X 0 0 c V V V V V V V e.r.u.f.f.f.f.w.b x X X g 9.%.y > < >X>X>X>X>X>X>X>X>X>X>X>X>X",
">X>X>X>X>X>X>X>X>X>X>X>X>X                  X L T r.f.g.f.f.r.T L X             >X>X>X>X>X>X>X>X>X>X>X>X>X>X",
">X>X>X>X>X>X>X>X>X>X>X>X>X    . + + + + + + * P Y R t.t.t.t.R L P X             >X>X>X>X>X>X>X>X>X>X>X>X>X>X",
">X>X>X>X>X>X>X>X>X>X>X>X>X    g <.<.>.>.>.>.3.* X # # # # # # X X >X>X>X>X>X>X>X>X>X>X>X>X>X>X>X>X>X>X>X>X>X",
">X>X>X>X>X>X>X>X>X>X>X>X>X    d R.6.6.6.7.7.<.+                   >X>X>X>X>X>X>X>X>X>X>X>X>X>X>X>X>X>X>X>X>X",
">X>X>X>X>X>X>X>X>X>X>X  . : : p ;.;.;.;.} d u + >X              >X>X>X>X>X>X>X>X>X>X>X>X>X>X>X>X>X>X>X>X>X>X",
">X>X>X>X>X>X>X>X>X>X      y p a ' ' h ! ,     >X>X>X>X>X>X>X>X>X>X>X>X>X>X>X>X>X>X>X>X>X>X>X>X>X>X>X>X>X>X>X",
">X>X>X>X>X>X>X>X>X>X>X    r y p a a a a >     >X>X>X>X>X>X>X>X>X>X>X>X>X>X>X>X>X>X>X>X>X>X>X>X>X>X>X>X>X>X>X",
">X>X>X>X>X>X>X>X>X>X>X>X>X. O O . . . . . >X>X>X>X>X>X>X>X>X>X>X>X>X>X>X>X>X>X>X>X>X>X>X>X>X>X>X>X>X>X>X>X>X",
">X>X>X>X>X>X>X>X>X>X>X>X>X                >X>X>X>X>X>X>X>X>X>X>X>X>X>X>X>X>X>X>X>X>X>X>X>X>X>X>X>X>X>X>X>X>X",
">X>X>X>X>X>X>X>X>X>X>X>X>X>X            >X>X>X>X>X>X>X>X>X>X>X>X>X>X>X>X>X>X>X>X>X>X>X>X>X>X>X>X>X>X>X>X>X>X",
">X>X>X>X>X>X>X>X>X>X>X>X>X>X>X>X>X>X>X>X>X>X>X>X>X>X>X>X>X>X>X>X>X>X>X>X>X>X>X>X>X>X>X>X>X>X>X>X>X>X>X>X>X>X",
">X>X>X>X>X>X>X>X>X>X>X>X>X>X>X>X>X>X>X>X>X>X>X>X>X>X>X>X>X>X>X>X>X>X>X>X>X>X>X>X>X>X>X>X>X>X>X>X>X>X>X>X>X>X",
">X>X>X>X>X>X>X>X>X>X>X>X>X>X>X>X>X>X>X>X>X>X>X>X>X>X>X>X>X>X>X>X>X>X>X>X>X>X>X>X>X>X>X>X>X>X>X>X>X>X>X>X>X>X"
};
