/* XPM */
static char *result[] = {
/* columns rows colors chars-per-pixel */
"58 63 191 2 ",
"   c #000101",
".  c #0C0604",
"X  c #020C04",
"o  c #0A0A09",
"O  c #110C07",
"+  c #061205",
"@  c #051F07",
"#  c #031909",
"$  c #1A1B01",
"%  c #16110B",
"&  c #1A1919",
"*  c #091713",
"=  c #381E0F",
"-  c #341D0E",
";  c #361F10",
":  c #391F10",
">  c #072107",
",  c #072C0C",
"<  c #08280A",
"1  c #142809",
"2  c #0B350B",
"3  c #0C3D0C",
"4  c #083C14",
"5  c #053C13",
"6  c #072B15",
"7  c #27210A",
"8  c #392211",
"9  c #382617",
"0  c #3D3D15",
"q  c #223906",
"w  c #172738",
"e  c #302B23",
"r  c #43281C",
"t  c #542F1D",
"y  c #41341E",
"u  c #5B341A",
"i  c #663A1D",
"p  c #6A3B1D",
"a  c #653719",
"s  c #713E1D",
"d  c #523E21",
"f  c #5E3520",
"g  c #4A2920",
"h  c #743E20",
"j  c #633F21",
"k  c #0C420D",
"l  c #14430F",
"z  c #18400E",
"x  c #0D4910",
"c  c #0A4416",
"v  c #134C10",
"b  c #1D4913",
"n  c #1D4711",
"m  c #0E5D1A",
"M  c #0D5216",
"N  c #1A5B14",
"B  c #26570C",
"V  c #234F1A",
"C  c #3D4116",
"Z  c #215115",
"A  c #23501B",
"S  c #30550E",
"D  c #0F611C",
"F  c #14661D",
"G  c #27731B",
"H  c #28741B",
"J  c #306D1C",
"K  c #135129",
"L  c #285420",
"P  c #0E6D24",
"I  c #186B24",
"U  c #0F7225",
"Y  c #0E7B29",
"T  c #0B7C26",
"R  c #117526",
"E  c #117927",
"W  c #117C29",
"Q  c #1C7729",
"!  c #247132",
"~  c #5B471E",
"^  c #43470A",
"/  c #66431E",
"(  c #73401F",
")  c #777703",
"_  c #425E25",
"`  c #475B24",
"'  c #584728",
"]  c #6D4B21",
"[  c #6C4320",
"{  c #744120",
"}  c #784622",
"|  c #734A25",
" . c #684F39",
".. c #67533B",
"X. c #6C5426",
"o. c #486324",
"O. c #597225",
"+. c #597A35",
"@. c #2C4D6E",
"#. c #077679",
"$. c #6A5C4D",
"%. c #6A6B54",
"&. c #405B75",
"*. c #82561D",
"=. c #85572F",
"-. c #8C5E31",
";. c #835431",
":. c #8E6333",
">. c #8C723A",
",. c #93733A",
"<. c #987B3C",
"1. c #956E33",
"2. c #A0763E",
"3. c #A2793F",
"4. c #A57B41",
"5. c #A97E43",
"6. c #8A7966",
"7. c #198229",
"8. c #278927",
"9. c #358C24",
"0. c #299129",
"q. c #269029",
"w. c #3A9325",
"e. c #3B9A26",
"r. c #379C29",
"t. c #3DA229",
"y. c #469928",
"u. c #408F25",
"i. c #41A529",
"p. c #43A82A",
"a. c #759239",
"s. c #2B8C42",
"d. c #608F4B",
"f. c #78C873",
"g. c #818100",
"h. c #AE9512",
"j. c #BDA10E",
"k. c #AE893A",
"l. c #A68237",
"z. c #B28D3B",
"x. c #91AB3C",
"c. c #9ECD19",
"v. c #A0D215",
"b. c #CCCC00",
"n. c #D7D806",
"m. c #E8E701",
"M. c #F1EA07",
"N. c #F5F107",
"B. c yellow",
"V. c #FDF808",
"C. c #EBF101",
"Z. c #AD864E",
"A. c #B58F6A",
"S. c #B9946F",
"D. c #BD9866",
"F. c #AD9B72",
"G. c #BD9671",
"H. c #BEA678",
"J. c #C5964A",
"K. c #D5A84B",
"L. c #E4B54A",
"P. c #E5AE55",
"I. c #C4A06F",
"U. c #C4A279",
"Y. c #037E89",
"T. c #456382",
"R. c #7FAC86",
"E. c #0EA2D0",
"W. c #08ADED",
"Q. c #00B0EA",
"!. c #00BDFF",
"~. c #999E9A",
"^. c #A69482",
"/. c #BDA393",
"(. c #A1A39D",
"). c #C4AB82",
"_. c #D6B588",
"`. c #DCBB92",
"'. c #8AC197",
"]. c #81E182",
"[. c #E5CDA4",
"{. c #E6D4AC",
"}. c #F2D7AF",
"|. c #F7DCB3",
" X c #FDE2B9",
".X c #CFD6D4",
"XX c #E8D8C5",
"oX c #FFEBC1",
"OX c white",
"+X c #E9EDEC",
"@X c None",
/* pixels */
"@X@X@X@X@X@X@X@X@X@X@X@X@X@X@X@X@X@X@X  O 1.4.4.4.2.4.4.-.p ( @X@X@X@X@X@X@X@X@X@X@X@X@X@X@X@X@X@X@X@X@X@X@X@X@X@X@X",
"@X@X@X@X@X@X@X@X@X@X@X@X@X@X@X@X@X@X% % 7 <.k.k.k.k.k.k.1.*.*.@X@X@X@X@X@X@X@X@X@X@X@X@X@X@X@X@X@X@X@X@X@X@X@X@X@X@X",
"@X@X@X@X@X@X@X@X@X@X@X@X@X@X@X@X    X.J.K.M.N.N.N.N.N.N.M.M.M.L.P.Z.4.4.@X@X@X@X@X@X@X@X@X@X@X@X@X@X@X@X@X@X@X@X@X@X",
"@X@X@X@X@X@X@X@X@X@X@X@X@X@X@X@X  . X.P.L.V.B.B.V.B.B.B.B.B.V.L.P.J.4.5.@X@X@X@X@X@X@X@X@X@X@X@X@X@X@X@X@X@X@X@X@X@X",
"@X@X@X@X@X@X@X@X@X@X@X@X@X@X    @ @ o.x.x.v.v.v.v.v.v.v.v.v.c.x.x.a.+.+.<.4.@X@X@X@X@X@X@X@X@X@X@X@X@X@X@X@X@X@X@X@X",
"@X@X@X@X@X@X@X@X@X@X@X@X@X      3 k G i.t.t.t.i.t.t.t.t.t.t.i.t.i.q.Y Q <.4.5.@X@X@X@X@X@X@X@X@X@X@X@X@X@X@X@X@X@X@X",
"@X@X@X@X@X@X@X@X@X@X@X@X@X    X l v G e.e.e.e.e.e.e.e.e.e.e.e.e.e.8.E Q >.>.,.@X@X@X@X@X@X@X@X@X@X@X@X@X@X@X@X@X@X@X",
"@X@X@X@X@X@X@X@X@X@X@X@X@X    + 9.e.G v v v v v v v v v v v v v v x x c b b ^ { { @X@X@X@X@X@X@X@X@X@X@X@X@X@X@X@X@X",
"@X@X@X@X@X@X@X@X@X@X@X@X@X@X  + w.p.H 3 k 3 3 3 k k k 3 k 3 3 k k k k k k k C { ( @X@X@X@X@X@X@X@X@X@X@X@X@X@X@X@X@X",
"@X@X@X@X@X@X@X@X@X@X@X@X@X+ > , G G G G G G G G H G G G G G G G H N k c m m ` :.-.@X@X@X@X@X@X@X@X@X@X@X@X@X@X@X@X@X",
"@X@X@X@X@X@X@X@X@X@X@X    > x k 3 3 H p.i.i.i.i.i.i.p.i.i.i.i.i.p.G k k E T +.5.5.@X@X@X@X@X@X@X@X@X@X@X@X@X@X@X@X@X",
"@X@X@X@X@X@X@X@X@X@X@X    > k k k k H i.i.i.i.i.i.i.i.i.i.i.i.t.t.G k v P U +.,.,.@X@X@X@X@X@X@X@X@X@X@X@X@X@X@X@X@X",
"@X@X@X@X@X@X@X@X@X@X@X    > k k k k G i.i.i.i.t.i.i.i.i.i.i.t.7.W E E P x x v b b @X@X@X@X@X@X@X@X@X@X@X@X@X@X@X@X@X",
"@X@X@X@X@X@X@X@X@X@X@X    > k k k 3 G i.i.i.i.i.y.i.i.i.i.i.t.W Y W W R x 3 k k k @X@X@X@X@X@X@X@X@X@X@X@X@X@X@X@X@X",
"@X@X@X@X@X@X@X3.D.@XF.1 @ k m D m m 8.i.i.i.i.i.i.i.i.i.i.i.t.W W W Y U x k k k b F.@XD.3.@X@X@X@X@X@X@X@X@X@X@X@X@X",
"@X@X@X@X@X@X4.3.D._./.Z k D W W W W 8.i.i.i.i.i.t.i.i.i.i.i.i.W Y W W E x k k k A )._.D.3.4.@X@X@X@X@X@X@X@X@X@X@X@X",
"@X@X@X@X@X@XZ.Z.I.`.).A 3 m P P W W q.e.t.i.i.i.i.i.i.i.y.r.r.7.Y E P P x x k k b /.`.I.Z.Z.@X@X@X@X@X@X@X@X@X@X@X@X",
"@X@X@X@X( =.[. X X X[.L k < X # P W W 7.7.t.i.i.i.i.i.i.0.7.W Y Y c X # P E m k L {. X|.}.[.;.( @X@X@X@X@X@X@X@X@X@X",
"@X@X@X{ ( ;.}. X XoX{.A k >   X P W W W W t.i.i.i.i.i.i.0.Y W W 7.5   X P Y D 3 L {. X XoX}.;.s { @X@X@X@X@X@X@X@X@X",
"@X@X@X@X( ;.A.G.U._.H.b k >   X M m P W W 8.0.0.0.0.0.0.7.W W D D ,   X M m M k B H._.U.S.A.;.{ @X@X@X@X@X@X@X@X@X@X",
"@X@X@X@X@X@X( ( -.3.,.n 3 >   X 3 k m W W Y E Y Y E Y Y W W R x k @     3 k 3 3 b ,.4.-.s s @X@X@X@X@X@X@X@X@X@X@X@X",
"@X@X@X@X@X@X( ( -.<.,.K K ,   X 2 3 m W W W Y E Y W W W R R P k 3 >   + 3 k c K K >.4.-.s s @X@X@X@X@X@X@X@X@X@X@X@X",
"@X@X@X@X@X@X@X@X} (  .E.Q.#.2 2 X   c Y Y W Y W W E W W D x k X X > 3 3 k k #.Q.E...( *.@X@X@X@X@X@X@X@X@X@X@X@X@X@X",
"@X@X@X@X@X@X@X@X@X(  .W.!.Y.k 3     c W W W W W W Y W W D k 3     > k k k 3 Y.!.W...( @X@X@X@X@X@X@X@X@X@X@X@X@X@X@X",
"@X@X@X@X@X@X@X@X8 : y f.].d.C 0 .   , m D R Y W W E W W m k 4     > k l C C d.].f.y : 8 @X@X@X@X@X@X@X@X@X@X@X@X@X@X",
"@X@X@X@X@X@X@X@X    $ m.B.j.s i .   > k x R W W W Y W W D k 3 X   @ k z / h j.B.m.$     @X@X@X@X@X@X@X@X@X@X@X@X@X@X",
"@X@X@X@X@X@X@X@X@X  $ b.m.h.} ( 7 $ 1 3 k U Y W W W U E m 3 2 $ $ q B S | } h.m.b.$   @X@X@X@X@X@X@X@X@X@X@X@X@X@X@X",
"@X@X@X@X@X@X@X@X@X@X@X$ $ ~ 4.3.n.m.)   # P W W W U x x <   $ b.m.m.C.n.l.<.~ $ $ @X@X@X@X@X@X@X@X@X@X@X@X@X@X@X@X@X",
"@X@X@X@X@X@X@X@X@X@X@X    d 5.z.V.B.g.  X P W W W R x k @   $ m.B.B.B.V.k.Z.d     @X@X@X@X@X@X@X@X@X@X@X@X@X@X@X@X@X",
"@X@X@X@X@X@X@X@X@X@X@X@X@X9 d ~ ) g.^   X P W Y W R , @ ^ g.g.g.a.*.g.) ~ d 9 @X@X@X@X@X@X@X@X@X@X@X@X@X@X@X@X@X@X@X",
"@X@X@X@X@X@X@X@X@X@X@X@X@X@X            X P Y R Y P X   g.B.m.$             @X@X@X@X@X@X@X@X@X@X@X@X@X@X@X@X@X@X@X@X",
"@X@X@X@X@X@X@X@X@X@X@X@X@X      . O     X P R R R P X   ) C.b.1 X   X         @X@X@X@X@X@X@X@X@X@X@X@X@X@X@X@X@X@X@X",
"@X@X@X@X@X@X@X@X@X@X@X@X@X    . u p -     k x x x k X   1 B B 3 3 3 3 2       @X@X@X@X@X@X@X@X@X@X@X@X@X@X@X@X@X@X@X",
"@X@X@X@X@X@X@X@X@X@X@X@X@X    . u p =     3 k k k 3     > k k k k k k 3 X     @X@X@X@X@X@X@X@X@X@X@X@X@X@X@X@X@X@X@X",
"@X@X@X@X@X@X@X@X@X@X@X@X@X    % F./.%.5 4 < > > > < > > 2 k k k k M D M X     @X@X@X@X@X@X@X@X@X@X@X@X@X@X@X@X@X@X@X",
"@X@X@X@X@X@X@X@X@X@X@X@X@X    & +XOX'.T U X         3 k k k k k k m Y P X   @X@X@X@X@X@X@X@X@X@X@X@X@X@X@X@X@X@X@X@X",
"@X@X@X@X@X@X@X@X@X@X@X@X@X@X  & .X+X~.P I # X X X + c x x x v l 3 ! s.s.* o o @X@X@X@X@X@X@X@X@X@X@X@X@X@X@X@X@X@X@X",
"@X@X@X@X@X@X@X@X@X@X@X@X@X@X@X@X& & 0 / ~ I U P P P U U U U I ~ p ^.+X.X@.@.w     @X@X@X@X@X@X@X@X@X@X@X@X@X@X@X@X@X",
"@X@X@X@X@X@X@X@X@X@X@X@X@X@X@X@X    : h [ Q Y Y Y W W Y W Y Q [ s ).OX+XT.@.w .   @X@X@X@X@X@X@X@X@X@X@X@X@X@X@X@X@X",
"@X@X@X@X@X@X@X@X@X@X@X@X@X@X  + V V J O.O.o._ o.o.J ` _ _ _ _ 9 = 6.XXXX(.(.%.: ; o   @X@X@X@X@X@X@X@X@X@X@X@X@X@X@X",
"@X@X@X@X@X@X@X@X@X@X@X@X@X    + e.p.i.p.y.] ( } s { h { h { a .   .._.`. XoXG.( i o     @X@X@X@X@X@X@X@X@X@X@X@X@X@X",
"@X@X@X@X@X@X@X@X@X@X@X@X@X    + 9.t.t.i.y.X.] / | ] ] ] ] ] / O   $.).).|.oXS.s p .     @X@X@X@X@X@X@X@X@X@X@X@X@X@X",
"@X@X@X@X@X@X@X@X@X@X@X@X@X    X R W 0.i.i.y.y.y.y.y.y.y.y.y.u.x 3 1 % e {.oXS.s p .     @X@X@X@X@X@X@X@X@X@X@X@X@X@X",
"@X@X@X@X@X@X@X@X@X@X@X@X@X    X P 7.0.i.p.p.t.p.i.i.i.i.i.i.e.v k @   & {.oXG.s p .     @X@X@X@X@X@X@X@X@X@X@X@X@X@X",
"@X@X@X@X@X@X@X@X@X@X@X@X@X@X  X 4 4 v Z Z Z Z J p.i.i.i.i.i.e.F m , X o %.6. .= ; .   @X@X@X@X@X@X@X@X@X@X@X@X@X@X@X",
"@X@X@X@X@X@X@X@X@X@X@X@X@X@X@X@X              Z p.i.i.i.i.i.t.7.Y 4               @X@X@X@X@X@X@X@X@X@X@X@X@X@X@X@X@X",
"@X@X@X@X@X@X@X@X@X@X@X@X@X@X@X@X      O O O O Z w.w.w.w.w.w.9.R P 4               @X@X@X@X@X@X@X@X@X@X@X@X@X@X@X@X@X",
"@X@X@X@X@X@X@X@X@X@X@X@X@X@X@X@X    - p [ :.,.d + + + + + + + X X X @X@X@X@X@X@X@X@X@X@X@X@X@X@X@X@X@X@X@X@X@X@X@X@X",
"@X@X@X@X@X@X@X@X@X@X@X@X@X@X@X@X    8 { } 2.5.d                     @X@X@X@X@X@X@X@X@X@X@X@X@X@X@X@X@X@X@X@X@X@X@X@X",
"@X@X@X@X@X@X@X@X@X@X@X@X@X@X  . ; : j -.:.2.4.d       @X          @X@X@X@X@X@X@X@X@X@X@X@X@X@X@X@X@X@X@X@X@X@X@X@X@X",
"@X@X@X@X@X@X@X@X@X@X@X@X@X    . p { :.4.4.4.5.d     @X@X@X@X@X@X@X@X@X@X@X@X@X@X@X@X@X@X@X@X@X@X@X@X@X@X@X@X@X@X@X@X",
"@X@X@X@X@X@X@X@X@X@X@X@X@X    . i h -.4.4.4.5.d     @X@X@X@X@X@X@X@X@X@X@X@X@X@X@X@X@X@X@X@X@X@X@X@X@X@X@X@X@X@X@X@X",
"@X@X@X@X@X@X@X@X@X@X@X@X@X    . i h -.4.4.4.4.d     @X@X@X@X@X@X@X@X@X@X@X@X@X@X@X@X@X@X@X@X@X@X@X@X@X@X@X@X@X@X@X@X",
"@X@X@X@X@X@X@X@X@X@X@X@X@X    . i { -.5.4.4.4.d     @X@X@X@X@X@X@X@X@X@X@X@X@X@X@X@X@X@X@X@X@X@X@X@X@X@X@X@X@X@X@X@X",
"@X@X@X@X@X@X@X@X@X@X@X@X@X    o t f | -.-.-.:.y     @X@X@X@X@X@X@X@X@X@X@X@X@X@X@X@X@X@X@X@X@X@X@X@X@X@X@X@X@X@X@X@X",
"@X@X@X@X@X@X@X@X@X@X@X@X@X    . r g i ( ( ( ( =     @X@X@X@X@X@X@X@X@X@X@X@X@X@X@X@X@X@X@X@X@X@X@X@X@X@X@X@X@X@X@X@X",
"@X@X@X@X@X@X@X@X@X@X@X@X@X@X  o : r g p p p p ;     @X@X@X@X@X@X@X@X@X@X@X@X@X@X@X@X@X@X@X@X@X@X@X@X@X@X@X@X@X@X@X@X",
"@X@X@X@X@X@X@X@X@X@X@X@X@X@X@X@Xo . . . o o . . @X@X@X@X@X@X@X@X@X@X@X@X@X@X@X@X@X@X@X@X@X@X@X@X@X@X@X@X@X@X@X@X@X@X",
"@X@X@X@X@X@X@X@X@X@X@X@X@X@X@X@X                @X@X@X@X@X@X@X@X@X@X@X@X@X@X@X@X@X@X@X@X@X@X@X@X@X@X@X@X@X@X@X@X@X@X",
"@X@X@X@X@X@X@X@X@X@X@X@X@X@X@X@X@X            @X@X@X@X@X@X@X@X@X@X@X@X@X@X@X@X@X@X@X@X@X@X@X@X@X@X@X@X@X@X@X@X@X@X@X",
"@X@X@X@X@X@X@X@X@X@X@X@X@X@X@X@X@X@X@X@X@X@X@X@X@X@X@X@X@X@X@X@X@X@X@X@X@X@X@X@X@X@X@X@X@X@X@X@X@X@X@X@X@X@X@X@X@X@X",
"@X@X@X@X@X@X@X@X@X@X@X@X@X@X@X@X@X@X@X@X@X@X@X@X@X@X@X@X@X@X@X@X@X@X@X@X@X@X@X@X@X@X@X@X@X@X@X@X@X@X@X@X@X@X@X@X@X@X",
"@X@X@X@X@X@X@X@X@X@X@X@X@X@X@X@X@X@X@X@X@X@X@X@X@X@X@X@X@X@X@X@X@X@X@X@X@X@X@X@X@X@X@X@X@X@X@X@X@X@X@X@X@X@X@X@X@X@X"
};
