/* XPM */
static char *result[] = {
/* columns rows colors chars-per-pixel */
"59 62 198 2 ",
"   c #000101",
".  c #0B0604",
"X  c #020C05",
"o  c #0D0A06",
"O  c #110B08",
"+  c #130D08",
"@  c #071205",
"#  c #041E06",
"$  c #09190C",
"%  c #1A1A01",
"&  c #18110D",
"*  c #00141C",
"=  c #181410",
"-  c #251411",
";  c #291B13",
":  c #361F10",
">  c #3A1F10",
",  c #30190E",
"<  c #072107",
"1  c #072508",
"2  c #072A0A",
"3  c #0C250A",
"4  c #1A2002",
"5  c #0B3D0C",
"6  c #09380C",
"7  c #073D15",
"8  c #083C15",
"9  c #073713",
"0  c #292507",
"q  c #323201",
"w  c #3A2111",
"e  c #37231A",
"r  c #22360A",
"t  c #19293A",
"y  c #182838",
"u  c #103328",
"i  c #101B27",
"p  c #45271D",
"a  c #4C3A1F",
"s  c #542F1D",
"d  c #663A1D",
"f  c #683B1D",
"g  c #713E1D",
"h  c #4B2B24",
"j  c #533E22",
"k  c #753F20",
"l  c #613621",
"z  c #0C420D",
"x  c #144A0E",
"c  c #0C4216",
"v  c #0D4910",
"b  c #0B4E18",
"n  c #134C11",
"m  c #1F4D14",
"M  c #0E5D1A",
"N  c #0D5418",
"B  c #1A5414",
"V  c #25550C",
"C  c #28580C",
"Z  c #275013",
"A  c #0F611C",
"S  c #16661E",
"D  c #27731B",
"F  c #29761C",
"G  c #3C660A",
"H  c #094D26",
"J  c #0C5327",
"K  c #3B5A23",
"L  c #0E6D24",
"P  c #0D6321",
"I  c #0F7226",
"U  c #0E7B29",
"Y  c #0C7B26",
"T  c #107526",
"R  c #117C29",
"E  c #187828",
"W  c #414117",
"Q  c #504F18",
"!  c #74401E",
"~  c #695F11",
"^  c #767601",
"/  c #425E25",
"(  c #475222",
")  c #5F503E",
"_  c #55542F",
"`  c #6E4C21",
"'  c #6B4523",
"]  c #744221",
"[  c #794623",
"{  c #7F4D2A",
"}  c #685224",
"|  c #6E4E36",
" . c #536434",
".. c #587D29",
"X. c #253643",
"o. c #38516D",
"O. c #315376",
"+. c #315070",
"@. c #544B48",
"#. c #6C5B46",
"$. c #476F4E",
"%. c #5D7F48",
"&. c #737D4E",
"*. c #6F7946",
"=. c #767676",
"-. c #83561C",
";. c #8A5C33",
":. c #845624",
">. c #9D733C",
",. c #95703B",
"<. c #8F6B32",
"1. c #A5773C",
"2. c #9F7450",
"3. c #A47B41",
"4. c #A57A55",
"5. c #13812A",
"6. c #1A8329",
"7. c #268927",
"8. c #368D24",
"9. c #2A9129",
"0. c #3A9225",
"q. c #3B9A26",
"w. c #3B9E29",
"e. c #3DA229",
"r. c #799607",
"t. c #7AAF15",
"y. c #469928",
"u. c #41A529",
"i. c #48A727",
"p. c #53AD25",
"a. c #579818",
"s. c #76C873",
"d. c #808100",
"f. c #849705",
"g. c #87A107",
"h. c #88BE14",
"j. c #AE893A",
"k. c #A98338",
"l. c #BD9A2D",
"z. c #91AB3C",
"x. c #C4B31F",
"c. c #D6BA2D",
"v. c #9BCA17",
"b. c #A0D215",
"n. c #A9D217",
"m. c #CED301",
"M. c #CDDB04",
"N. c #D2CF03",
"B. c #E5E601",
"V. c #E9E600",
"C. c #E6EC01",
"Z. c #E9EC00",
"A. c #EEE40B",
"S. c #F2EB06",
"D. c #EAF403",
"F. c #F5F107",
"G. c yellow",
"H. c #FFF908",
"J. c #F8ED11",
"K. c #D7C221",
"L. c #E5D427",
"P. c #F0D729",
"I. c #D7EB08",
"U. c #AA824A",
"Y. c #AB8143",
"T. c #B58C4E",
"R. c #869364",
"E. c #B9936E",
"W. c #B89671",
"Q. c #C0934A",
"!. c #D9AA49",
"~. c #DCAA53",
"^. c #E2B44A",
"/. c #E3AE55",
"(. c #C9A97E",
"). c #3B7C8C",
"_. c #476583",
"`. c #7CAC88",
"'. c #03A2CD",
"]. c #00B0EA",
"[. c #00BDFF",
"{. c #00A9EA",
"}. c #019ACC",
"|. c #828183",
" X c #CEAC83",
".X c #D0AE83",
"XX c #D6B488",
"oX c #DEBC93",
"OX c #8BC198",
"+X c #82E283",
"@X c #F7DCB1",
"#X c #FDE2B9",
"$X c #D9D9DA",
"%X c #FFEBC2",
"&X c #EEF1F6",
"*X c white",
"=X c #F4EEEC",
"-X c None",
/* pixels */
"-X-X-X-X-X-X-X-X-X-X-X-X-X-X-X-X-X-X-X-X-X-X-X-X-X-X-X-X-X-X-X-X-X-X-X-X-X-X-X-X-X-X-X-X-X-X-X-X-X-X-X-X-X-X-X-X-X-X-X",
"-X-X-X-X-X-X-X-X-X-X-X-X-X-X-X-X-X-X-X-X-X-X-X-X-X-X-X-X-X-X-X-X-X-X-X-X-X-X-X-X-X-X-X-X-X-X-X-X-X-X-X-X-X-X-X-X-X-X-X",
"-X-X-X-X-X-X-X-X-X-X-X-X-X-X-X-X-X-X-X-X-X-X-X-X-X-X-X-X-X-X-X-X-X-X-X-X-X-X-X-X-X-X-X-X-X-X-X-X-X-X-X-X-X-X-X-X-X-X-X",
"-X-X-X-X-X-X-X-X-X-X-X-X-X-X-X-X-X-X-X-X-X-X-X-X] [ >.Y.3.3.3.3.3.;.! -X-X-X-X-X-X-X-X-X-X-X-X-X-X-X-X-X-X-X-X-X-X-X-X",
"-X-X-X-X-X-X-X-X-X-X-X-X-X-X-X-X-X-X-X-X-X-X-X[ g [ 3.3.3.3.3.3.1.<.g k -X-X-X-X-X-X-X-X-X-X-X-X-X-X-X-X-X-X-X-X-X-X-X",
"-X-X-X-X-X-X-X-X-X-X-X-X-X-X-X-X-X-X-X-X-X-X-X! { :.k.j.j.j.j.j.j.<.-.-.-X-X-X-X-X-X-X-X-X-X-X-X-X-X-X-X-X-X-X-X-X-X-X",
"-X-X-X-X-X-X-X-X-X-X-X-X-X-X-X-X-X-X-X-X-X    | !.!.A.F.F.F.F.F.F.S.S.A.^./.Q.3.3.-X-X-X-X-X-X-X-X-X-X-X-X-X-X-X-X-X-X",
"-X-X-X-X-X-X-X-X-X-X-X-X-X-X-X-X-X-X-X-X-X    } /.!.H.G.G.G.G.G.G.G.G.H.^.~.T.3.3.-X-X-X-X-X-X-X-X-X-X-X-X-X-X-X-X-X-X",
"-X-X-X-X-X-X-X-X-X-X-X-X-X-X-X-X-X-X-X  o m m a.z.z.b.b.b.b.b.b.b.b.b.n.L.P.c.Q.T.Y.3.-X-X-X-X-X-X-X-X-X-X-X-X-X-X-X-X",
"-X-X-X-X-X-X-X-X-X-X-X-X-X-X-X-X-X-X    @ 0.u.e.e.u.e.e.e.e.e.e.e.e.e.p.D.G.P./.!.Y.3.3.-X-X-X-X-X-X-X-X-X-X-X-X-X-X-X",
"-X-X-X-X-X-X-X-X-X-X-X-X-X-X-X-X-X-XX @ 3 8.q.q.q.q.q.q.q.w.q.q.q.q.q.i.I.D.L.^.^.Y.3.1.-X-X-X-X-X-X-X-X-X-X-X-X-X-X-X",
"-X-X-X-X-X-X-X-X-X-X-X-X-X-X-X-X    m 0.8.B n x n n n n n n n n x x x B i.p.n.H.J.^.~.1.! ] -X-X-X-X-X-X-X-X-X-X-X-X-X",
"-X-X-X-X-X-X-X-X-X-X-X-X-X-X-X-X    m i.q.x z 5 5 5 5 c 5 z 5 5 z 5 z x q.e.b.G.H.^.~.1.! ] -X-X-X-X-X-X-X-X-X-X-X-X-X",
"-X-X-X-X-X-X-X-X-X-X-X-X-X-X  X 8 8 M F D F D D F D F F D D D D F F D D D D a.h.v.L.P.l.;.;.-X-X-X-X-X-X-X-X-X-X-X-X-X",
"-X-X-X-X-X-X-X-X-X-X-X-X-X    X T 5.A 8 x q.i.u.u.u.u.u.u.u.u.u.u.u.u.q.v z A Y 7.D.G.c.3.3.-X-X-X-X-X-X-X-X-X-X-X-X-X",
"-X-X-X-X-X-X-X-X-X-X-X-X-X    X P T M x N q.u.u.u.u.u.u.u.u.u.u.u.u.e.q.x z N I 7.M.C.x.3.3.-X-X-X-X-X-X-X-X-X-X-X-X-X",
"-X-X-X-X-X-X-X-X-X-X-X-X-X      c z A T R w.u.u.u.u.u.u.u.u.u.u.u.u.u.q.x z v v v C V C -X-X-X-X-X-X-X-X-X-X-X-X-X-X-X",
"-X-X-X-X-X-X-X-X-X-X-X-X-X-X  X 6 z A R 5.e.u.u.u.u.u.u.u.u.u.e.u.u.u.q.n 5 z z z z z -X-X-X-X-X-X-X-X-X-X-X-X-X-X-X-X",
"-X-X-X-X-X-X-X-X-X3.U. X-X_ < 1 M M A M S 7.9.9.9.9.e.u.y.u.u.u.u.u.u.q.F F n < 1 5 z  .-X.XU.3.-X-X-X-X-X-X-X-X-X-X-X",
"-X-X-X-X-X-X-X-X3.3.U. XXX&.z v T 5.M 5 v I U U R E e.u.e.u.u.u.u.u.u.u.u.u.Z     5 z &.XX XU.3.3.-X-X-X-X-X-X-X-X-X-X",
"-X-X-X-X-X-X-X-XU.U.T.XXoX&.v v T R A z v L L I U E q.e.e.e.e.u.u.u.u.u.e.e.m   X 5 z &.oXXXT.T.U.-X-X-X-X-X-X-X-X-X-X",
"-X-X-X-X-X-X] f E.@X@X#X#XR.z v T R T T L # X c 5.R 5.5.5.R 6.e.e.u.u.e.6.5.c     5 5 R.#X#X@X#XE.f ] -X-X-X-X-X-X-X-X",
"-X-X-X-X-X-X] g W.%X%X%X%XR.5 v T R R U L X   c 5.U U U R R R e.u.u.e.e.5.R 7   X 5 5 R.%X#X%X%XE.g ] -X-X-X-X-X-X-X-X",
"-X-X-X-X-X-X-X-X4.W.W. X(.*.5 v T U R R L 2 < 2 7 c M A S R R 7.9.9.9.9.E R 7     5 5 *..X(.W.W.4.-X-X-X-X-X-X-X-X-X-X",
"-X-X-X-X-X-X-X-X-Xg ] >.1._ 5 z T R R R T v z #     6 z A R R R R U I U R R 7     6 z } 1.>.[ f -X-X-X-X-X-X-X-X-X-X-X",
"-X-X-X-X-X-X-X-X-X] [ >.1. .H H L T T T L n z 3   @ 6 6 N T L T T R R R T T 8   X b J  .1.>.[ ] -X-X-X-X-X-X-X-X-X-X-X",
"-X-X-X-X-X-X-X-X-X-X-X[ ! `.{.}.J z v v v z z 5 5 6 X X X X @ z x A R T v v 1   * }.].).[ [ -X-X-X-X-X-X-X-X-X-X-X-X-X",
"-X-X-X-X-X-X-X-X-X-X-X] ! ).[.{.J z z z z z z z z 5           6 z M R T v z <   * {.[.).! ! -X-X-X-X-X-X-X-X-X-X-X-X-X",
"-X-X-X-X-X-X-X-X-X-X-Xw > %.+Xs.( W Z 5 z z z z z 5 3 # < # < < 1 8 A M v z <   $ s.+X%.> > -X-X-X-X-X-X-X-X-X-X-X-X-X",
"-X-X-X-X-X-X-X-X-X-X-X    d.G.F.-.k a 5 z 5 z z z z z z z x 5     # z z z z <   % V.G.-.    -X-X-X-X-X-X-X-X-X-X-X-X-X",
"-X-X-X-X-X-X-X-X-X-X-X    ^ C.N.:.] Q V V x z z z z z z z z 5 @   1 5 5 5 5 1 o 0 m.D.^     -X-X-X-X-X-X-X-X-X-X-X-X-X",
"-X-X-X-X-X-X-X-X-X-X-X-X-X% % 0 <.>.x.C.m.V z z z z z z z z z 5 5 1   X     a ,.<.0 % % -X-X-X-X-X-X-X-X-X-X-X-X-X-X-X",
"-X-X-X-X-X-X-X-X-X-X-X-X-X    + ,.3.K.G.D.V 7 5 5 z z z z z z 5 z #         Q 3.3.O     -X-X-X-X-X-X-X-X-X-X-X-X-X-X-X",
"-X-X-X-X-X-X-X-X-X-X-X-X-X-X  + a j ~ d.d.f.g.g.g.r.x z z z x r.g.f.^ ^ @   , j a O   -X-X-X-X-X-X-X-X-X-X-X-X-X-X-X-X",
"-X-X-X-X-X-X-X-X-X-X-X-X-X-X-X-X        % B.G.G.G.C.V 5 c 5 C Z.G.G.G.Z.%         -X-X-X-X-X-X-X-X-X-X-X-X-X-X-X-X-X-X",
"-X-X-X-X-X-X-X-X-X-X-X-X-X-X-X-XX @ X   4 m.C.B.B.m.G V C V G m.B.B.C.m.4   X X X -X-X-X-X-X-X-X-X-X-X-X-X-X-X-X-X-X-X",
"-X-X-X-X-X-X-X-X-X-X-X-X-X-X  X P I N 6 5 V C r % q m.C.C.C.N.q % r C V 5 6 N L P X   -X-X-X-X-X-X-X-X-X-X-X-X-X-X-X-X",
"-X-X-X-X-X-X-X-X-X-X-X-X-X-X  X A Y A z z z z #   % V.G.G.G.V.%   # z 5 z z M U L X   -X-X-X-X-X-X-X-X-X-X-X-X-X-X-X-X",
"-X-X-X-X-X-X-X-X-X      -X+ - e `.OX$.# 2 N A b 7 n t.h.h.h.t.b 7 b A M 2 # $.OX`.X.t i -X      -X-X-X-X-X-X-X-X-X-X-X",
"-X-X-X-X-X-X-X-X          - p ) =X*X|.  X I R R U R U U U I U U R R R L X   |.*X&X_.O.t           -X-X-X-X-X-X-X-X-X-X",
"-X-X-X-X-X-X-X-X. o . . . - h @.$X&X=.  X L R U U R R U R R R R R R R L X   =.&X$X_.O.t . . o . . -X-X-X-X-X-X-X-X-X-X",
"-X-X-X-X-X-X    > f d d d @.+.o._._.X.  X L R R R T R R R R U U U R R L X   h ;.#.o.O.@.d d f f :     -X-X-X-X-X-X-X-X",
"-X-X-X-X-X-X    > ] ] g g @.+.O.O.O.y   X L U U U U U U U U U U U U U L X   > k ] o.O.@.g g ! ] w     -X-X-X-X-X-X-X-X",
"-X-X-X-X-X-X    w ] [ 4.4.@.y y t t u c c K / / / / / / / / / / / / / K c 7 r > e y y @.4.4.{ ! w     -X-X-X-X-X-X-X-X",
"-X-X-X-X-X-X    > ] {  XoX#.        7 5.E ' k ] g k k g k k k k k k k ' E 5.8 .       #.oX X{ k e     -X-X-X-X-X-X-X-X",
"-X-X-X-X-X-X    : f ' W. X)     X X c 5.E } [ ` ` ` ` ` ` ` ` ` ` ` ` } E 5.c X X     @.(.E.' d :     -X-X-X-X-X-X-X-X",
"-X-X-X-X-X-X-X-X. . . = = o   X A L 7.e.u.y.y.y.y.y.y.y.y.y.y.y.y.y.y.y.w.w.7.L S X   o = = . . . -X-X-X-X-X-X-X-X-X-X",
"-X-X-X-X-X-X-X-X              X I R 9.u.u.u.u.u.u.u.u.u.u.u.u.u.u.u.u.u.u.u.9.R T X               -X-X-X-X-X-X-X-X-X-X",
"-X-X-X-X-X-X-X-X-X      -X    X 9 7 S 9.9.e.u.u.u.u.u.u.u.u.u.u.u.e.u.e.9.9.S 8 8 X -X          -X-X-X-X-X-X-X-X-X-X-X",
"-X-X-X-X-X-X-X-X-X-X-X-X-X-X        7 U 5.e.u.u.u.u.u.u.u.u.u.u.u.u.u.e.5.R 8     -X-X-X-X-X-X-X-X-X-X-X-X-X-X-X-X-X-X",
"-X-X-X-X-X-X-X-X-X-X-X-X-X      .   9 I E 8.0.0.0.0.0.0.0.0.0.0.0.0.0.8.T L 9     -X-X-X-X-X-X-X-X-X-X-X-X-X-X-X-X-X-X",
"-X-X-X-X-X-X-X-X-X-X-X-X-X    . > h - X X X @ $ @ @ @ @ @ @ @ @ @ @ @ @ X X X         -X-X-X-X-X-X-X-X-X-X-X-X-X-X-X-X",
"-X-X-X-X-X-X-X-X-X-X-X-X-X    . h h -                                                   -X-X-X-X-X-X-X-X-X-X-X-X-X-X-X",
"-X-X-X-X-X-X-X-X-X-X-X-X-X-X  . - - +           -X        -X      + p > w w : - -       -X-X-X-X-X-X-X-X-X-X-X-X-X-X-X",
"-X-X-X-X-X-X-X-X-X-X-X-X-X-X-X-X              -X-X-X-X-X-X-X-X    p k [ k g j h h       -X-X-X-X-X-X-X-X-X-X-X-X-X-X-X",
"-X-X-X-X-X-X-X-X-X-X-X-X-X-X-X-X              -X-X-X-X-X-X-X-X    : f f f f s p > .   -X-X-X-X-X-X-X-X-X-X-X-X-X-X-X-X",
"-X-X-X-X-X-X-X-X-X-X-X-X-X-X-X-X-X-X-X-X-X-X-X-X-X-X-X-X-X-X-X-X-X. . . . . . . . -X-X-X-X-X-X-X-X-X-X-X-X-X-X-X-X-X-X",
"-X-X-X-X-X-X-X-X-X-X-X-X-X-X-X-X-X-X-X-X-X-X-X-X-X-X-X-X-X-X-X-X-X                -X-X-X-X-X-X-X-X-X-X-X-X-X-X-X-X-X-X",
"-X-X-X-X-X-X-X-X-X-X-X-X-X-X-X-X-X-X-X-X-X-X-X-X-X-X-X-X-X-X-X-X-X-X            -X-X-X-X-X-X-X-X-X-X-X-X-X-X-X-X-X-X-X",
"-X-X-X-X-X-X-X-X-X-X-X-X-X-X-X-X-X-X-X-X-X-X-X-X-X-X-X-X-X-X-X-X-X-X-X-X-X-X-X-X-X-X-X-X-X-X-X-X-X-X-X-X-X-X-X-X-X-X-X",
"-X-X-X-X-X-X-X-X-X-X-X-X-X-X-X-X-X-X-X-X-X-X-X-X-X-X-X-X-X-X-X-X-X-X-X-X-X-X-X-X-X-X-X-X-X-X-X-X-X-X-X-X-X-X-X-X-X-X-X",
"-X-X-X-X-X-X-X-X-X-X-X-X-X-X-X-X-X-X-X-X-X-X-X-X-X-X-X-X-X-X-X-X-X-X-X-X-X-X-X-X-X-X-X-X-X-X-X-X-X-X-X-X-X-X-X-X-X-X-X"
};
