/* XPM */
static char *result[] = {
/* columns rows colors chars-per-pixel */
"58 63 202 2 ",
"   c #000101",
".  c #0A0605",
"X  c #030D04",
"o  c #0D0B03",
"O  c #0B0B0C",
"+  c #150C09",
"@  c #041405",
"#  c #051A06",
"$  c #041C0A",
"%  c #051808",
"&  c #18150A",
"*  c #0B151A",
"=  c #080F19",
"-  c #24140C",
";  c #2E1A0E",
":  c #28190C",
">  c #05240D",
",  c #05290E",
"<  c #092C09",
"1  c #0C2509",
"2  c #0A330B",
"3  c #0B3D0C",
"4  c #173A0F",
"5  c #14330E",
"6  c #093612",
"7  c #1D3813",
"8  c #10280B",
"9  c #373801",
"0  c #362715",
"q  c #2E2E01",
"w  c #372E2B",
"e  c #4A2A18",
"r  c #49371C",
"t  c #53331D",
"y  c #64381C",
"u  c #6C3F1D",
"i  c #723E1E",
"p  c #4B2A21",
"a  c #743F20",
"s  c #0D420D",
"d  c #11450E",
"f  c #11490F",
"g  c #0B4413",
"h  c #0E4E13",
"j  c #0A4D1A",
"k  c #1A4211",
"l  c #144E11",
"z  c #1E4B13",
"x  c #0E5316",
"c  c #0B541C",
"v  c #0D5B1C",
"b  c #155312",
"n  c #195916",
"m  c #254311",
"M  c #2A4715",
"N  c #215115",
"B  c #33460E",
"V  c #0E641E",
"C  c #0F681F",
"Z  c #1E6216",
"A  c #156019",
"S  c #246D1A",
"D  c #216718",
"F  c #2B7A1D",
"G  c #29731C",
"H  c #0C5F20",
"J  c #095638",
"K  c #175D20",
"L  c #345926",
"P  c #314532",
"I  c #0D6221",
"U  c #0F6B22",
"Y  c #176822",
"T  c #0F7225",
"R  c #0F7C29",
"E  c #0D7B27",
"W  c #107B29",
"Q  c #107728",
"!  c #256E27",
"~  c #2B6B26",
"^  c #37652A",
"/  c #257420",
"(  c #307732",
")  c #424201",
"_  c #5E5E01",
"`  c #72401F",
"'  c #6F501C",
"]  c #587B08",
"[  c #48680C",
"{  c #555624",
"}  c #52483D",
"|  c #50542D",
" . c #6B4528",
".. c #734120",
"X. c #7C4B29",
"o. c #7E4D27",
"O. c #675722",
"+. c #7B5831",
"@. c #5C7627",
"#. c #51722B",
"$. c #6E7033",
"%. c #253F59",
"&. c #28435D",
"*. c #3C7D4B",
"=. c #2D4E6F",
"-. c #2D4F72",
";. c #2E706D",
":. c #524F4B",
">. c #4A7070",
",. c #895A2E",
"<. c #87582D",
"1. c #814D25",
"2. c #9A6A35",
"3. c #9A743D",
"4. c #9D783F",
"5. c #896237",
"6. c #A57D3F",
"7. c #946C4A",
"8. c #A67C42",
"9. c #A97C43",
"0. c #A47B57",
"q. c #2F811F",
"w. c #1C8429",
"e. c #1F8829",
"r. c #0F812B",
"t. c #218A29",
"y. c #2A8429",
"u. c #328320",
"i. c #358D22",
"p. c #2F9429",
"a. c #399424",
"s. c #3C9B26",
"d. c #359A29",
"f. c #349929",
"g. c #3FA329",
"h. c #7FB716",
"j. c #538026",
"k. c #4D952A",
"l. c #748F35",
"z. c #728C34",
"x. c #41A429",
"c. c #43A92A",
"v. c #61A532",
"b. c #358548",
"n. c #4A9C5D",
"m. c #4D9F60",
"M. c #BDBD12",
"N. c #868D37",
"B. c #AB853C",
"V. c #CDBB0C",
"C. c #C0BF12",
"Z. c #BDCC03",
"A. c #B1D216",
"S. c #CCCC00",
"D. c #E4D813",
"F. c #C4E40D",
"G. c #FFFF00",
"H. c #F6F302",
"J. c #F7EC10",
"K. c #898B5C",
"L. c #BE9248",
"P. c #B18B55",
"I. c #A29279",
"U. c #B38C62",
"Y. c #9BA072",
"T. c #A2A87A",
"R. c #C29143",
"E. c #C28F45",
"W. c #D1AA4F",
"Q. c #E3B253",
"!. c #E1AE53",
"~. c #C9A67E",
"^. c #0B7A90",
"/. c #0081B4",
"(. c #098EAF",
"). c #72879C",
"_. c #778DA2",
"`. c #7D92A7",
"'. c #029FC9",
"]. c #0BA5D4",
"[. c #00BAFC",
"{. c #00C3FF",
"}. c #A79C8A",
"|. c #A3A5A4",
" X c #BAB5A5",
".X c #AFA999",
"XX c #CEAE85",
"oX c #D0AF88",
"OX c #D7B78D",
"+X c #DCBC91",
"@X c #CCB086",
"#X c #E3C394",
"$X c #E7C9A1",
"%X c #EDD2A7",
"&X c #F8DCB3",
"*X c #F0D5AA",
"=X c #F5E0B7",
"-X c #CCCDCC",
";X c #FFECC2",
":X c #FEFEFD",
">X c #F5F6F3",
",X c None",
/* pixels */
",X,X,X,X,X,X,X,X,X,X,X,X,X,X,X,X,X,X,X,X,X,X,X,X    <.9.8.8.9.8.6.2.` i ,X,X,X,X,X,X,X,X,X,X,X,X,X,X,X,X,X,X,X,X,X,X",
",X,X,X,X,X,X,X,X,X,X,X,X,X,X,X,X,X,X,X,X,X,X,X1 N N j.l.l.l.l.l.z.z.@.@.5.,X,X,X,X,X,X,X,X,X,X,X,X,X,X,X,X,X,X,X,X,X",
",X,X,X,X,X,X,X,X,X,X,X,X,X,X,X,X,X,X,X,X,X    4 c.c.x.g.g.g.g.g.g.g.g.x.N.B.P.,X,X,X,X,X,X,X,X,X,X,X,X,X,X,X,X,X,X,X",
",X,X,X,X,X,X,X,X,X,X,X,X,X,X,X,X,X,X,X,X,Xo X 4 s.s.s.s.s.s.s.s.s.g.x.g.N.B.B.,X,X,X,X,X,X,X,X,X,X,X,X,X,X,X,X,X,X,X",
",X,X,X,X,X,X,X,X,X,X,X,X,X,X,X,X,X,X,X    / a.F l l b l b l l l f Z g.x.A.H.D.8.8.,X,X,X,X,X,X,X,X,X,X,X,X,X,X,X,X,X",
",X,X,X,X,X,X,X,X,X,X,X,X,X,X,X,X,X,X,X  . u.c.u.s 3 3 s 3 g 3 3 s n g.x.F.G.D.8.8.,X,X,X,X,X,X,X,X,X,X,X,X,X,X,X,X,X",
",X,X,X,X,X,X,X,X,X,X,X,X,X,X,X,X,X,X8 z z S F F S S S S S S S S S G G G A.A.A.L.L.2.,X,X,X,X,X,X,X,X,X,X,X,X,X,X,X,X",
",X,X,X,X,X,X,X,X,X,X,X,X,X,X,X,X    4 c.x.n 3 n x.x.x.x.c.x.x.c.c.i.s 3 w.p.v.W.!.2.i ..,X,X,X,X,X,X,X,X,X,X,X,X,X,X",
",X,X,X,X,X,X,X,X,X,X,X,X,X,X,X,X    4 g.s.n d D x.x.x.x.x.x.x.x.x.i.l d q.s.v.W.W.2.i ..,X,X,X,X,X,X,X,X,X,X,X,X,X,X",
",X,X,X,X,X,X,X,X,X,X,X,X,X,X    2 2 s l b u.a.s.x.x.x.x.x.x.x.x.x.x.a.a.D b n y.y.{ ....,X,X,X,X,X,X,X,X,X,X,X,X,X,X",
",X,X,X,X,X,X,X,X,X,X,X,X,X,X    2 s s s s a.c.x.x.x.x.x.x.x.x.x.x.x.c.c.Z 3 h Q W { i ..,X,X,X,X,X,X,X,X,X,X,X,X,X,X",
",X,X,X,X,X,X,X,X,X,X,X,X,X,X    h v A D S F F i.x.x.x.x.x.x.x.x.x.x.F / b s l R Q #.,.<.,X,X,X,X,X,X,X,X,X,X,X,X,X,X",
",X,X,X,X,X,X,X,X,X,X,X,X,X,X    V R t.x.x.b 3 n x.x.x.x.x.x.x.x.x.i.s s s s l Q Q $.P.8.,X,X,X,X,X,X,X,X,X,X,X,X,X,X",
",X,X,X,X,X,X,X,X,X,X,X,X,X,X  X V R t.s.x.N d D x.x.x.x.x.x.x.x.x.i.d d d d b Q T $.8.3.,X,X,X,X,X,X,X,X,X,X,X,X,X,X",
",X,X,X,X,X,X,X,X,X,X,X,X,X,X    I W v $ $ F a.a.x.x.x.x.x.x.x.s.x.x.a.a.a.a./ $ % 4 z M ` ..,X,X,X,X,X,X,X,X,X,X,X,X",
",X,X,X,X,X,X,X,X,X,X,X,X,X,X    I w.j   . F x.x.x.x.x.x.x.x.x.x.x.x.x.x.x.c.u.    < s k u i ,X,X,X,X,X,X,X,X,X,X,X,X",
",X,X,X,X,X,X,X,X,X,X,X,X,X| # > U r.c     / p.f.x.x.x.x.x.x.x.x.x.x.x.x.a.p./ X   < s M 7.7.8.,X,X,X,X,X,X,X,X,X,X,X",
",X,X,X,X,X,X,X,X,X8.9.~.OXK.s s U W j     H r.e.x.x.x.x.x.x.x.x.x.x.x.x.w.R I     < s L @XOXU.6.8.,X,X,X,X,X,X,X,X,X",
",X,X,X,X,X,X,X,X,XP.P.~.OXK.s s T r.c     I Q e.g.g.g.x.x.x.x.x.x.x.x.x.t.R H     , s L @XOXU.8.9.,X,X,X,X,X,X,X,X,X",
",X,X,X,X,X,Xa i U.#X%X&X&XY.s s T W T I I , % 6 w.w.d.x.x.x.x.x.x.x.x.x.t.R I     , s L *X&X*X%X+XX.` ,X,X,X,X,X,X,X",
",X,X,X,X,X,X..i U.;X;X;X;X}.s f T W W W W $   > W W d.x.x.x.x.x.x.x.x.c.e.R I     < s ^ &X;X;X;X*XX...,X,X,X,X,X,X,X",
",X,X,X,X,X,X..i 0.oXoX+X#XK.s s v U U W Q $   > U U y.p.f.x.x.x.x.g.p.p.Y c g # @ 2 s L OX#XOXoX~.X...,X,X,X,X,X,X,X",
",X,X,X,X,X,X,X,X,Xi ..3.8.O.s s s s b W Q $   @ s s U W w.x.x.x.x.d.W W ,   X s s s 3 N 4.8.<.i ..,X,X,X,X,X,X,X,X,X",
",X,X,X,X,X,X,X,X,X....3.6.$.g g d 3 v R T $   @ 4 s U Q w.s.x.x.x.d.W W ,   X s s g g M 4.8.<.u ..,X,X,X,X,X,X,X,X,X",
",X,X,X,X,X,X,X,X,X,X,Xo.1.>.'.'.J 3 h h h 3 2 , @ X 3 h v w.w.w.w.w.R W ,   X s d ^.].(.+.o.X.,X,X,X,X,X,X,X,X,X,X,X",
",X,X,X,X,X,X,X,X,X,X,X` i >.{.[.J 3 3 s s s s 2     2 s b R R R R W W Q ,   X 3 3 (.{.]. .` ,X,X,X,X,X,X,X,X,X,X,X,X",
",X,X,X,X,X,X,X,X,X,X,X..i >.^.^.#.j.[ m m 4 s 2 % @ 1 < g W R R W W W W ,   & ] ] ;./.^. ...,X,X,X,X,X,X,X,X,X,X,X,X",
",X,X,X,X,X,X,X,X,X,X,X,X,X,X  O S.G.V.` ` m s s s 3 @   $ W W R W W W Q ,   9 H.G._     ,X,X,X,X,X,X,X,X,X,X,X,X,X,X",
",X,X,X,X,X,X,X,X,X,X,X,X,X,X  o S.G.V.i ..m d g d d @   > Q W W W W W W ,   9 H.G._     ,X,X,X,X,X,X,X,X,X,X,X,X,X,X",
",X,X,X,X,X,X,X,X,X,X,X,X,X,X,X,XB ) ' E.E.Z.Z.S.S.Z.q   @ x x U W W W W ,   o ) B q ,X,X,X,X,X,X,X,X,X,X,X,X,X,X,X,X",
",X,X,X,X,X,X,X,X,X,X,X,X,X,X,X,X    { !.!.J.G.G.G.G.)   @ s s U W W W W ,         ,X,X,X,X,X,X,X,X,X,X,X,X,X,X,X,X,X",
",X,X,X,X,X,X,X,X,X,X,X,X,X,X,X,X    e E.L.M.Z.Z.Z.Z.B X # 2 < v U U U U >         ,X,X,X,X,X,X,X,X,X,X,X,X,X,X,X,X,X",
",X,X,X,X,X,X,X,X,X,X,X,X,X,X,X,X    : ....m s d d d s s <     < s s s s %         ,X,X,X,X,X,X,X,X,X,X,X,X,X,X,X,X,X",
",X,X,X,X,X,X,X,X,X,X,X,X,X,X,X,X    : ` ..m s s s s s s 2     2 s s s s @         ,X,X,X,X,X,X,X,X,X,X,X,X,X,X,X,X,X",
",X,X,X,X,X,X,X,X,X,X,X,X,X,X    j c K ~ ~ l s h U U U U I v c > @ @ % @ 6 H j H H >     ,X,X,X,X,X,X,X,X,X,X,X,X,X,X",
",X,X,X,X,X,X,X,X,X,X,X,X,X,X    I E R R R h 3 x W W W W W W W >         H R R Q E ,     ,X,X,X,X,X,X,X,X,X,X,X,X,X,X",
",X,X,X,X,X,X,X,X,X,X,X,X,X,X  X *.m.b.v H x h V W W W W W W W 6 $ $ $ > n ~ ( n.n.P * = ,X,X,X,X,X,X,X,X,X,X,X,X,X,X",
",X,X,X,X,X,X,X,X,X,X,X,X,X,X  O -X:X|.    v W W W W W W W W W Q Q Q Q Q { a 7.>X:X_.=.%.    ,X,X,X,X,X,X,X,X,X,X,X,X",
",X,X,X,X,X,X,X,X,X,X,X,X,X,X  O -X:X|.    I W W W W W W Q W W W W W W W { i 7.>X:X`.-.=..   ,X,X,X,X,X,X,X,X,X,X,X,X",
",X,X,X,X,X,X,X,X,X,X,X,X,X,X  . :.:.} e t Y W W W W W W W W W W W W W W 7 - w )._.|. X}.t e :     ,X,X,X,X,X,X,X,X,X",
",X,X,X,X,X,X,X,X,X,X,X,X,X,X        - ....! W W R R r.r.R R R R R R E R >   = =.-. X;X$XX...;     ,X,X,X,X,X,X,X,X,X",
",X,X,X,X,X,X,X,X,X,X,X,X,X,X        : O.O.^ ! ! ! ! ! Y ! ! ! ! ! ! ! ! < X * %.%..X;X$XX...;     ,X,X,X,X,X,X,X,X,X",
",X,X,X,X,X,X,X,X,X,X,X,X,X,X,X,X    4 x.x.O.` .................. .` ....M s 2 X   I.;X$Xo...;     ,X,X,X,X,X,X,X,X,X",
",X,X,X,X,X,X,X,X,X,X,X,X,X,X,X,X    4 c.x.O.i ..........` ..` ` ....a a B s 2     I.;X$Xo...;     ,X,X,X,X,X,X,X,X,X",
",X,X,X,X,X,X,X,X,X,X,X,X,X,X,X,X    2 t.e.j.j.j.j.j.j.j.j.j.j.j.@.j.j.j./ I v < > | :.} ; : + ,X,X,X,X,X,X,X,X,X,X,X",
",X,X,X,X,X,X,X,X,X,X,X,X,X,X,X,X    , W r.d.c.x.g.g.c.g.x.x.g.c.g.g.g.g.t.R T s s @ .       ,X,X,X,X,X,X,X,X,X,X,X,X",
",X,X,X,X,X,X,X,X,X,X,X,X,X,X,X,X    , I U p.d.g.x.x.g.c.x.x.x.x.g.c.g.c.t.R U 2 2 @         ,X,X,X,X,X,X,X,X,X,X,X,X",
",X,X,X,X,X,X,X,X,X,X,X,X,X,X,X,X,X,X,X  X v W t.x.x.x.g.x.x.x.x.c.g.c.g.e.R I X   ,X,X,X,X,X,X,X,X,X,X,X,X,X,X,X,X,X",
",X,X,X,X,X,X,X,X,X,X,X,X,X,X,X,X,X,X,X    H R t.c.c.x.x.c.x.x.x.g.c.x.x.t.W I     ,X,X,X,X,X,X,X,X,X,X,X,X,X,X,X,X,X",
",X,X,X,X,X,X,X,X,X,X,X,X,X,X,X,X,X,X,X    , 6 6 k k k k k k k k k k k k 6 6 , ,X,X,X,X,X,X,X,X,X,X,X,X,X,X,X,X,X,X,X",
",X,X,X,X,X,X,X,X,X,X,X,X,X,X,X,X,X,X,X                                        ,X,X,X,X,X,X,X,X,X,X,X,X,X,X,X,X,X,X,X",
",X,X,X,X,X,X,X,X,X,X,X,X,X,X,X,X,X,X,X& & & & + . .                           ,X,X,X,X,X,X,X,X,X,X,X,X,X,X,X,X,X,X,X",
",X,X,X,X,X,X,X,X,X,X,X,X,X,X,X,X    0 4.8.3.3.+.p p .     ,X,X,X,X,X,X,X,X,X,X,X,X,X,X,X,X,X,X,X,X,X,X,X,X,X,X,X,X,X",
",X,X,X,X,X,X,X,X,X,X,X,X,X,X,X,X  . 0 9.8.8.8.5.p p O     ,X,X,X,X,X,X,X,X,X,X,X,X,X,X,X,X,X,X,X,X,X,X,X,X,X,X,X,X,X",
",X,X,X,X,X,X,X,X,X,X,X,X,X,X,X,X    ; ,.,.,.,. .- - . ,X,X,X,X,X,X,X,X,X,X,X,X,X,X,X,X,X,X,X,X,X,X,X,X,X,X,X,X,X,X,X",
",X,X,X,X,X,X,X,X,X,X,X,X,X,X,X,X    : ..i ....e     ,X,X,X,X,X,X,X,X,X,X,X,X,X,X,X,X,X,X,X,X,X,X,X,X,X,X,X,X,X,X,X,X",
",X,X,X,X,X,X,X,X,X,X,X,X,X,X,X,X    - y y y y e     ,X,X,X,X,X,X,X,X,X,X,X,X,X,X,X,X,X,X,X,X,X,X,X,X,X,X,X,X,X,X,X,X",
",X,X,X,X,X,X,X,X,X,X,X,X,X,X,X,X,X,X,X. . . . . ,X,X,X,X,X,X,X,X,X,X,X,X,X,X,X,X,X,X,X,X,X,X,X,X,X,X,X,X,X,X,X,X,X,X",
",X,X,X,X,X,X,X,X,X,X,X,X,X,X,X,X,X,X,X          ,X,X,X,X,X,X,X,X,X,X,X,X,X,X,X,X,X,X,X,X,X,X,X,X,X,X,X,X,X,X,X,X,X,X",
",X,X,X,X,X,X,X,X,X,X,X,X,X,X,X,X,X,X,X,X,X,X,X,X,X,X,X,X,X,X,X,X,X,X,X,X,X,X,X,X,X,X,X,X,X,X,X,X,X,X,X,X,X,X,X,X,X,X",
",X,X,X,X,X,X,X,X,X,X,X,X,X,X,X,X,X,X,X,X,X,X,X,X,X,X,X,X,X,X,X,X,X,X,X,X,X,X,X,X,X,X,X,X,X,X,X,X,X,X,X,X,X,X,X,X,X,X",
",X,X,X,X,X,X,X,X,X,X,X,X,X,X,X,X,X,X,X,X,X,X,X,X,X,X,X,X,X,X,X,X,X,X,X,X,X,X,X,X,X,X,X,X,X,X,X,X,X,X,X,X,X,X,X,X,X,X",
",X,X,X,X,X,X,X,X,X,X,X,X,X,X,X,X,X,X,X,X,X,X,X,X,X,X,X,X,X,X,X,X,X,X,X,X,X,X,X,X,X,X,X,X,X,X,X,X,X,X,X,X,X,X,X,X,X,X"
};
