/* XPM */
static char *result[] = {
/* columns rows colors chars-per-pixel */
"55 63 204 2 ",
"   c #000101",
".  c #0B0604",
"X  c #020B04",
"o  c #0D0907",
"O  c #1B0F08",
"+  c #140B07",
"@  c #041305",
"#  c #051D07",
"$  c #061A09",
"%  c #1B1A00",
"&  c #1B1409",
"*  c #1B1A18",
"=  c #25170C",
"-  c #251410",
";  c #361F10",
":  c #072107",
">  c #06290C",
",  c #07270A",
"<  c #0A330B",
"1  c #0C3C0C",
"2  c #16370D",
"3  c #083E15",
"4  c #093511",
"5  c #183C10",
"6  c #052D10",
"7  c #29260A",
"8  c #2D2211",
"9  c #3A2111",
"0  c #382418",
"q  c #2C3E05",
"w  c #162734",
"e  c #413F03",
"r  c #452718",
"t  c #522E1D",
"y  c #573D1A",
"u  c #4D3D18",
"i  c #66391D",
"p  c #6B3C1D",
"a  c #713E1E",
"s  c #493925",
"d  c #523E21",
"f  c #5E3420",
"g  c #53342C",
"h  c #753E20",
"j  c #6F3C20",
"k  c #0C420C",
"l  c #12420C",
"z  c #11490F",
"x  c #1C450E",
"c  c #0D4711",
"v  c #0D4A11",
"b  c #0A4D1A",
"n  c #194812",
"m  c #0E5416",
"M  c #0B531B",
"N  c #0E5D1A",
"B  c #07551A",
"V  c #165515",
"C  c #244A17",
"Z  c #25501D",
"A  c #37450F",
"S  c #0F631D",
"D  c #0F681F",
"F  c #17671D",
"G  c #27731B",
"H  c #2A781C",
"J  c #2B741C",
"K  c #236C19",
"L  c #0B5736",
"P  c #275420",
"I  c #0E6D23",
"U  c #0D6322",
"Y  c #126A20",
"T  c #0E7326",
"R  c #0F7B29",
"E  c #0D7A27",
"W  c #107526",
"Q  c #107C29",
"!  c #1C7729",
"~  c #286923",
"^  c #277D27",
"/  c #39692E",
"(  c #434301",
")  c #524F03",
"_  c #55471C",
"`  c #424619",
"'  c #68411E",
"]  c #73401F",
"[  c #5B7C0B",
"{  c #7F7F01",
"}  c #607608",
"|  c #525423",
" . c #525923",
".. c #58463B",
"X. c #564821",
"o. c #6A4722",
"O. c #744221",
"+. c #774824",
"@. c #685622",
"#. c #655B25",
"$. c #664E38",
"%. c #7D5527",
"&. c #597833",
"*. c #557027",
"=. c #64622B",
"-. c #26405B",
";. c #186B5B",
":. c #36516D",
">. c #076C62",
",. c #56534F",
"<. c #45617B",
"1. c #895B2F",
"2. c #84552C",
"3. c #8C5E31",
"4. c #825331",
"5. c #8A653D",
"6. c #946937",
"7. c #967B3F",
"8. c #9B743C",
"9. c #A2793E",
"0. c #8F6240",
"q. c #886A50",
"w. c #A47B42",
"e. c #A97E43",
"r. c #A37A4D",
"t. c #1C8529",
"y. c #17832A",
"u. c #298B28",
"i. c #348521",
"p. c #378C23",
"a. c #2A9129",
"s. c #3A9525",
"d. c #309629",
"f. c #3B9A29",
"g. c #3DA129",
"h. c #4A9427",
"j. c #41A429",
"k. c #49A52B",
"l. c #57AA29",
"z. c #59B024",
"x. c #4C9E60",
"c. c #729371",
"v. c #448C54",
"b. c #818401",
"n. c #998215",
"m. c #B89E12",
"M. c #86A007",
"N. c #A3A300",
"B. c #BEA20E",
"V. c #B2B300",
"C. c #AAB703",
"Z. c #8F982C",
"A. c #AB8939",
"S. c #B18C3B",
"D. c #D0BB21",
"F. c #C2AD21",
"G. c #C4AC19",
"H. c #B1D736",
"J. c #A9C60B",
"K. c #C3D103",
"L. c #C2E00B",
"P. c #E9EA04",
"I. c #F2ED07",
"U. c #EEF704",
"Y. c #EEF803",
"T. c yellow",
"R. c #F8F307",
"E. c #C7F43C",
"W. c #9D8040",
"Q. c #B08E55",
"!. c #B9966A",
"~. c #BC9670",
"^. c #BDA67C",
"/. c #C2944A",
"(. c #D3AB4A",
"). c #D3B346",
"_. c #E2B14E",
"`. c #C39F6C",
"'. c #C6A36F",
"]. c #C3A57C",
"[. c #097F85",
"{. c #7D8E9E",
"}. c #768DA4",
"|. c #12AEE1",
" X c #03BFFF",
".X c #0CADE8",
"XX c #B59F8D",
"oX c #BAA38E",
"OX c #B7B1AD",
"+X c #CDB88E",
"@X c #D7B58B",
"#X c #C6AA8B",
"$X c #8AC299",
"%X c #E7CDA6",
"&X c #E3D3A8",
"*X c #F1D5AD",
"=X c #E9D7B5",
"-X c #FDE4BA",
";X c #FDE5BB",
":X c #D0C7C4",
">X c #FFEBC2",
",X c #E9E8E7",
"<X c #FFFFFF",
"1X c None",
/* pixels */
"1X1X1X1X1X1X1X1X1X1X1X1X1X1X1X1X1X1X1X  + 6.r.w.w.w.w.w.4.p j 1X1X1X1X1X1X1X1X1X1X1X1X1X1X1X1X1X1X1X1X1X1X1X1X",
"1X1X1X1X1X1X1X1X1X1X1X1X1X1X1X1X1X1X0 d X.F.D.D.D.D.D.D.G.m.m.(.1X1X1X1X1X1X1X1X1X1X1X1X1X1X1X1X1X1X1X1X1X1X1X",
"1X1X1X1X1X1X1X1X1X1X1X1X1X1X1X1X    u W.S.U.T.T.T.T.T.T.T.T.R._.(./.w.w.1X1X1X1X1X1X1X1X1X1X1X1X1X1X1X1X1X1X1X",
"1X1X1X1X1X1X1X1X1X1X1X1X1X1X1X1XX X X.W.A.P.Y.Y.U.U.U.U.Y.Y.I.).(.Q.w.r.1X1X1X1X1X1X1X1X1X1X1X1X1X1X1X1X1X1X1X",
"1X1X1X1X1X1X1X1X1X1X1X1X1X1X  @ U I u.k.k.l.z.z.z.z.z.z.z.z.z.l.l.f.! ^ 7.w.1X1X1X1X1X1X1X1X1X1X1X1X1X1X1X1X1X",
"1X1X1X1X1X1X1X1X1X1X1X1X1X    X I R a.g.j.k.j.j.j.j.g.j.j.j.j.g.j.a.R ! 7.e.1X1X1X1X1X1X1X1X1X1X1X1X1X1X1X1X1X",
"1X1X1X1X1X1X1X1X1X1X1X1X1X    o ^ a.u.H H H H H H H H H H H ^ H H F S F  .=.@.1X1X1X1X1X1X1X1X1X1X1X1X1X1X1X1X",
"1X1X1X1X1X1X1X1X1X1X1X1X1X1X  @ s.j.~ 1 1 k k 1 k k k k 1 k k 1 k k 1 k k k u a O.1X1X1X1X1X1X1X1X1X1X1X1X1X1X",
"1X1X1X1X1X1X1X1X1X1X1X1X1X    $ p.g.G c z z z z z z z z z v z z c c k k k c ` 2.+.1X1X1X1X1X1X1X1X1X1X1X1X1X1X",
"1X1X1X1X1X1X1X1X1X1X1X    # 1 1 z V G f.s.s.s.s.s.s.s.s.s.s.s.s.f.K k c I T *.9.8.1X1X1X1X1X1X1X1X1X1X1X1X1X1X",
"1X1X1X1X1X1X1X1X1X1X1X    : k k k k G j.j.j.j.j.j.j.j.j.j.j.j.j.j.H 1 v E Q &.9.e.1X1X1X1X1X1X1X1X1X1X1X1X1X1X",
"1X1X1X1X1X1X1X1X1X1X1X    , k c m m H j.j.j.j.j.j.j.j.j.j.j.j.j.j.H N N S S / =.=.1X1X1X1X1X1X1X1X1X1X1X1X1X1X",
"1X1X1X1X1X1X1X1X1X1X1X    : k v E Q a.j.j.j.j.j.j.j.j.j.j.j.j.j.j.a.R T v k k k l j O.O.1X1X1X1X1X1X1X1X1X1X1X",
"1X1X1X1X1X1X1X1X1X1X1X    , k v W W u.j.j.j.j.j.j.j.j.j.j.j.j.j.j.a.R T v k k k x o.+.+.1X1X1X1X1X1X1X1X1X1X1X",
"1X1X1X1X1X1Xw.w.!.@X^.x < m T I m c D t.t.g.j.j.g.j.j.j.j.j.j.j.j.a.R R W W m k n !.].!.w.w.1X1X1X1X1X1X1X1X1X",
"1X1X1X1X1X1X9.9.!.@X].Z k S Q W z k S E Q g.j.j.j.j.j.g.j.j.j.j.j.u.R R y.Q S 1 Z ].@X!.9.9.1X1X1X1X1X1X1X1X1X",
"1X1X1X1X1X1X`.'.@X%X+XZ 1 S R T < , m R Q a.a.f.j.j.j.j.j.j.g.d.a.u.R W M b v k P +X%X@X'.`.1X1X1X1X1X1X1X1X1X",
"1X1X1XO.] 4.*X>X;X;X&XZ k S R I X   3 Q Q Q Q a.j.j.j.j.j.j.f.Q R R R I X   : k P &X;X;X>X*X4.] O.1X1X1X1X1X1X",
"1X1X1X1X] 4.%X-X-X-X&XZ k N y.I X   3 R Q Q Q a.j.j.j.j.j.j.g.y.R W W I X   : k Z &X-X-X-X%X4.] 1X1X1X1X1X1X1X",
"1X1X1X1X1X1X0.5.r.Q.Q.n k k z k X   3 Q W Q Q Q y.t.g.j.j.j.f.y.R b $ # 4 < 1 k n Q.Q.r.0.5.1X1X1X1X1X1X1X1X1X",
"1X1X1X1X1X1X] p 3.9.7.x 1 l k 1     c R R R Q R Q y.g.j.j.j.g.y.Q 3   X 1 k k k x 8.9.3.] ] 1X1X1X1X1X1X1X1X1X",
"1X1X1X1X1X1XO.] 1.6.5.;.>.L k 1 X   4 D I R Q Q Q Q a.d.d.d.d.Q Q c     1 k L >.;.5.6.1.] ] 1X1X1X1X1X1X1X1X1X",
"1X1X1X1X1X1X1X1X1X] $..X X[.1 1     : k c W Q Q Q Q Q W Q Q Q Q Q 3     1 l [. X.X$.] 1X1X1X1X1X1X1X1X1X1X1X1X",
"1X1X1X1X1X1X1X1X] ] $.|. X[.1 1 X   : k k W Q Q Q Q Q Q Q Q E Q Q 3   X 1 1 [. X|...] ] 1X1X1X1X1X1X1X1X1X1X1X",
"1X1X1X1X1X1X1X1XO O 8 H.E.Z.y _ < < : @ @ v m U Q Q W Q Q Q W m m ,   . u y Z.E.H.8 O O 1X1X1X1X1X1X1X1X1X1X1X",
"1X1X1X1X1X1X1X1X    % P.T.B.h ' l k #     1 k m E Q Q R Q R W c k :   . i h B.T.P.%     1X1X1X1X1X1X1X1X1X1X1X",
"1X1X1X1X1X1X1X1X1X  % N.V.n.2.%.[ [ A @ $ < < m Q Q Q Q Q Q T < , q ) ) %.2.6.V.N.%   1X1X1X1X1X1X1X1X1X1X1X1X",
"1X1X1X1X1X1X1X1X1X1X1X    d w.A.I.T.M.1 1     3 Q Q Q Q Q R I @   b.T.I.A.w._     1X1X1X1X1X1X1X1X1X1X1X1X1X1X",
"1X1X1X1X1X1X1X1X1X1X1X    X.w.A.I.T.M.k 1     3 Q Q R Q Q Q I X   { T.I.A.w.d     1X1X1X1X1X1X1X1X1X1X1X1X1X1X",
"1X1X1X1X1X1X1X1X1X1X1X1X1X& ; 8 ( ( b.K.C.%   > m m W Q U m c X   7 ( e 8 8 = 1X1X1X1X1X1X1X1X1X1X1X1X1X1X1X1X",
"1X1X1X1X1X1X1X1X1X1X1X1X1X1X        b.T.P.%   # k v W Q N k 1               1X1X1X1X1X1X1X1X1X1X1X1X1X1X1X1X1X",
"1X1X1X1X1X1X1X1X1X1X1X1X1X      @ X } L.J.2 # , < 1 Y I m k 1 X   + - O       1X1X1X1X1X1X1X1X1X1X1X1X1X1X1X1X",
"1X1X1X1X1X1X1X1X1X1X1X1X1X      1 k N Q Q R Q 3     1 k k k 1 X   9 O.i o     1X1X1X1X1X1X1X1X1X1X1X1X1X1X1X1X",
"1X1X1X1X1X1X1X1X1X1X1X1X1X    X 1 k S R Q Q Q 3   X 1 k k k 1     9 +.i o     1X1X1X1X1X1X1X1X1X1X1X1X1X1X1X1X",
"1X1X1X1X1X1X1X1X1X1X1X1X1X    X S D N v m W Q I M b # @ @ @ # b m c.:XOX*     1X1X1X1X1X1X1X1X1X1X1X1X1X1X1X1X",
"1X1X1X1X1X1X1X1X1X1X1X1X1X1X  X I E N 1 c E Q Q Q T X       X T E $X<X,X*     1X1X1X1X1X1X1X1X1X1X1X1X1X1X1X1X",
"1X1X1X1X1X1X1X1X1X1X1X1X1Xo + * v.x./ C C D I W Q T > $ # $ > ~ ~ c.:XOX*   1X1X1X1X1X1X1X1X1X1X1X1X1X1X1X1X1X",
"1X1X1X1X1X1X1X1X1X1X1X    - t g ,X<XXXj p x k N Q Q Q Q R R Q ' ] 0   . 1X1X1X1X1X1X1X1X1X1X1X1X1X1X1X1X1X1X1X",
"1X1X1X1X1X1X1X1X1X1X1X  X - t g ,X<XoXa ' l k N Q Q Q R R R ! ' +.9 .   1X1X1X1X1X1X1X1X1X1X1X1X1X1X1X1X1X1X1X",
"1X1X1X1X1X1X1X1X1X  o r r q.#XoX{.}.,.= = u _ _ | | | | | |  .&.h.~ b b X   1X1X1X1X1X1X1X1X1X1X1X1X1X1X1X1X1X",
"1X1X1X1X1X1X1X1X    . p a ~.>X=X<.:.w   o i ] a a O.] ] a a ] j.j.a.R T X     1X1X1X1X1X1X1X1X1X1X1X1X1X1X1X1X",
"1X1X1X1X1X1X1X1X    . i a ~.>X=X:.-.w X & _ @.@.@.@.@.' @.@.=.h.j.a.R I X     1X1X1X1X1X1X1X1X1X1X1X1X1X1X1X1X",
"1X1X1X1X1X1X1X1X    o i p ~.>X%X*   : k z f.j.k.k.k.j.j.k.j.j.j.j.a.R T X     1X1X1X1X1X1X1X1X1X1X1X1X1X1X1X1X",
"1X1X1X1X1X1X1X1X    o i O.~.>X%X*   : k z f.j.j.j.k.j.j.j.j.j.k.j.a.R T X     1X1X1X1X1X1X1X1X1X1X1X1X1X1X1X1X",
"1X1X1X1X1X1X1X1X1X1X1X= = s ,...o   4 D Y f.j.j.j.j.j.j.J 2 5 5 5 4 6 6 1X1X1X1X1X1X1X1X1X1X1X1X1X1X1X1X1X1X1X",
"1X1X1X1X1X1X1X1X1X1X1X              3 R t.g.j.j.j.j.j.j.V               1X1X1X1X1X1X1X1X1X1X1X1X1X1X1X1X1X1X1X",
"1X1X1X1X1X1X1X1X1X1X1X              4 U D i.i.i.i.i.i.i.C = & + + o     1X1X1X1X1X1X1X1X1X1X1X1X1X1X1X1X1X1X1X",
"1X1X1X1X1X1X1X1X1X1X1X1X1X1X1X1X1X1XX X   X . X X   X X d 9.8.O.h 9     1X1X1X1X1X1X1X1X1X1X1X1X1X1X1X1X1X1X1X",
"1X1X1X1X1X1X1X1X1X1X1X1X1X1X1X1X1X1X                    d e.9.+.h 9     1X1X1X1X1X1X1X1X1X1X1X1X1X1X1X1X1X1X1X",
"1X1X1X1X1X1X1X1X1X1X1X1X1X1X1X1X1X1X1X1X1X1X1X1X1X1X    d w.9.6.6.o.r r .   1X1X1X1X1X1X1X1X1X1X1X1X1X1X1X1X1X",
"1X1X1X1X1X1X1X1X1X1X1X1X1X1X1X1X1X1X1X1X1X1X1X1X1X1X    d w.w.w.w.3.O.i o     1X1X1X1X1X1X1X1X1X1X1X1X1X1X1X1X",
"1X1X1X1X1X1X1X1X1X1X1X1X1X1X1X1X1X1X1X1X1X1X1X1X1X1X    d e.w.w.w.3.h i .     1X1X1X1X1X1X1X1X1X1X1X1X1X1X1X1X",
"1X1X1X1X1X1X1X1X1X1X1X1X1X1X1X1X1X1X1X1X1X1X1X1X1X1X    d w.w.w.w.3.h i .     1X1X1X1X1X1X1X1X1X1X1X1X1X1X1X1X",
"1X1X1X1X1X1X1X1X1X1X1X1X1X1X1X1X1X1X1X1X1X1X1X1X1X1X    d w.w.w.w.3.h i .     1X1X1X1X1X1X1X1X1X1X1X1X1X1X1X1X",
"1X1X1X1X1X1X1X1X1X1X1X1X1X1X1X1X1X1X1X1X1X1X1X1X1X1X    r 3.1.1.3.+.f t o     1X1X1X1X1X1X1X1X1X1X1X1X1X1X1X1X",
"1X1X1X1X1X1X1X1X1X1X1X1X1X1X1X1X1X1X1X1X1X1X1X1X1X1X    9 ] O.h O.f r r .     1X1X1X1X1X1X1X1X1X1X1X1X1X1X1X1X",
"1X1X1X1X1X1X1X1X1X1X1X1X1X1X1X1X1X1X1X1X1X1X1X1X1X1X    ; i i i f t 0 0 .   1X1X1X1X1X1X1X1X1X1X1X1X1X1X1X1X1X",
"1X1X1X1X1X1X1X1X1X1X1X1X1X1X1X1X1X1X1X1X1X1X1X1X1X1X1X1X. .   . o . . . 1X1X1X1X1X1X1X1X1X1X1X1X1X1X1X1X1X1X1X",
"1X1X1X1X1X1X1X1X1X1X1X1X1X1X1X1X1X1X1X1X1X1X1X1X1X1X1X1X                1X1X1X1X1X1X1X1X1X1X1X1X1X1X1X1X1X1X1X",
"1X1X1X1X1X1X1X1X1X1X1X1X1X1X1X1X1X1X1X1X1X1X1X1X1X1X1X1X1X1X1X1X1X1X1X1X1X1X1X1X1X1X1X1X1X1X1X1X1X1X1X1X1X1X1X",
"1X1X1X1X1X1X1X1X1X1X1X1X1X1X1X1X1X1X1X1X1X1X1X1X1X1X1X1X1X1X1X1X1X1X1X1X1X1X1X1X1X1X1X1X1X1X1X1X1X1X1X1X1X1X1X",
"1X1X1X1X1X1X1X1X1X1X1X1X1X1X1X1X1X1X1X1X1X1X1X1X1X1X1X1X1X1X1X1X1X1X1X1X1X1X1X1X1X1X1X1X1X1X1X1X1X1X1X1X1X1X1X",
"1X1X1X1X1X1X1X1X1X1X1X1X1X1X1X1X1X1X1X1X1X1X1X1X1X1X1X1X1X1X1X1X1X1X1X1X1X1X1X1X1X1X1X1X1X1X1X1X1X1X1X1X1X1X1X"
};
