/* XPM */
static char *result[] = {
/* columns rows colors chars-per-pixel */
"56 63 210 2 ",
"   c #000101",
".  c #0B0604",
"X  c #030D04",
"o  c #090A08",
"O  c #120C08",
"+  c #110B06",
"@  c #041205",
"#  c #051A06",
"$  c #071806",
"%  c #05151C",
"&  c #11150C",
"*  c #24140A",
"=  c #28170C",
"-  c #311C0E",
";  c #391D0E",
":  c #251511",
">  c #381F18",
",  c #072107",
"<  c #05230B",
"1  c #052A0E",
"2  c #092B09",
"3  c #082707",
"4  c #0A320B",
"5  c #0B3D0C",
"6  c #073E0D",
"7  c #17370F",
"8  c #062F10",
"9  c #083E15",
"0  c #073813",
"q  c #133113",
"w  c #3A3A01",
"e  c #3A2211",
"r  c #372516",
"t  c #283F15",
"y  c #2D2F09",
"u  c #47271A",
"i  c #5B321D",
"p  c #663A1D",
"a  c #683B1D",
"s  c #733E1D",
"d  c #4C2A21",
"f  c #4D3C33",
"g  c #753F20",
"h  c #0C420D",
"j  c #14450F",
"k  c #0B4314",
"l  c #0D4A12",
"z  c #134D10",
"x  c #164514",
"c  c #0E5316",
"v  c #0A511B",
"b  c #0E5E1B",
"n  c #185B16",
"m  c #27560B",
"M  c #285609",
"N  c #264713",
"B  c #215215",
"V  c #2D4A10",
"C  c #0E641E",
"Z  c #0F681F",
"A  c #1D6519",
"S  c #236B1A",
"D  c #25641A",
"F  c #27731B",
"G  c #2C761D",
"H  c #0C5F20",
"J  c #09593E",
"K  c #345B28",
"L  c #2B4E20",
"P  c #0D6221",
"I  c #0E6D24",
"U  c #166621",
"Y  c #0F7224",
"T  c #0F7C29",
"R  c #107526",
"E  c #1B7528",
"W  c #107C29",
"Q  c #17782B",
"!  c #0D6530",
"~  c #276D27",
"^  c #2A782C",
"/  c #216A35",
"(  c #327E20",
")  c #464601",
"_  c #4A4018",
"`  c #67421E",
"'  c #72401F",
"]  c #675F06",
"[  c #767601",
"{  c #626100",
"}  c #445B24",
"|  c #555C25",
" . c #544C34",
".. c #694721",
"X. c #6D4C21",
"o. c #6C472C",
"O. c #744220",
"+. c #7D4D2B",
"@. c #774723",
"#. c #645623",
"$. c #7A5A2E",
"%. c #5A7325",
"&. c #4F7926",
"*. c #6D6830",
"=. c #576512",
"-. c #075B56",
";. c #2B4968",
":. c #2D5072",
">. c #1E7877",
",. c #64574F",
"<. c #746356",
"1. c #456E75",
"2. c #666667",
"3. c #586A52",
"4. c #81512C",
"5. c #8A5B2E",
"6. c #835331",
"7. c #8C5E31",
"8. c #804E2C",
"9. c #936D3B",
"0. c #997E3E",
"q. c #9C743C",
"w. c #876237",
"e. c #A2793E",
"r. c #8B6A4D",
"t. c #A47B41",
"y. c #A97E43",
"u. c #A77E4A",
"i. c #827466",
"p. c #917C76",
"a. c #2F821F",
"s. c #158029",
"d. c #1E8629",
"f. c #1F8729",
"g. c #218A29",
"h. c #268B28",
"j. c #328520",
"k. c #358D22",
"l. c #2A9129",
"z. c #3B9525",
"x. c #3B9A26",
"c. c #369B29",
"v. c #359728",
"b. c #25853B",
"n. c #3DA229",
"m. c #69B51F",
"M. c #489B29",
"N. c #59922F",
"B. c #788C3C",
"V. c #41A529",
"C. c #4CA02C",
"Z. c #43A92A",
"A. c #55AD24",
"S. c #62AA27",
"D. c #748309",
"F. c #2B8C42",
"G. c #818100",
"H. c #849E06",
"J. c #86A207",
"K. c #B6B307",
"L. c #BB9D30",
"P. c #C9B326",
"I. c #B7C007",
"U. c #CFC904",
"Y. c #DCE101",
"T. c #E5EB01",
"R. c #E9F303",
"E. c #FEFF00",
"W. c #858457",
"Q. c #AA864D",
"!. c #B28A58",
"~. c #ABAA43",
"^. c #97946E",
"/. c #AE8662",
"(. c #AE936C",
"). c #A2A87A",
"_. c #C99648",
"`. c #C9A679",
"'. c #D1B17F",
"]. c #E1AC53",
"[. c #067E84",
"{. c #0A848E",
"}. c #048FA7",
"|. c #0BA5DC",
" X c #00A8E8",
".X c #00BCFD",
"XX c #1296C4",
"oX c #00C2FF",
"OX c #838384",
"+X c #96A299",
"@X c #97A7B7",
"#X c #AAAAAB",
"$X c #CAAC83",
"%X c #D6B589",
"&X c #DABA94",
"*X c #B7C1BA",
"=X c #DFC39A",
"-X c #E6C89E",
";X c #ECCEA6",
":X c #ECD1A7",
">X c #F2D6AD",
",X c #F6DCB2",
"<X c #FFE8BF",
"1X c #FFEAC1",
"2X c #FFF2C8",
"3X c #EAF6ED",
"4X c #FFFEFD",
"5X c #E0EAE0",
"6X c #D2D1D2",
"7X c None",
/* pixels */
"7X7X7X7X7X7X7X7X7X7X7X7X7X7X7X7X7X7X7X7X7X7X    r e.0.e.e.q.e.e.5.' ' 7X7X7X7X7X7X7X7X7X7X7X7X7X7X7X7X7X7X7X7X7X",
"7X7X7X7X7X7X7X7X7X7X7X7X7X7X7X7X7X7X7X7X7X7X@ @ r 0.0.Q.0.Q.0.Q.$.` X.7X7X7X7X7X7X7X7X7X7X7X7X7X7X7X7X7X7X7X7X7X",
"7X7X7X7X7X7X7X7X7X7X7X7X7X7X7X7X7X7X7X7X    G z.x.C.C.C.C.C.V.M.M.M.N.r.Q.7X7X7X7X7X7X7X7X7X7X7X7X7X7X7X7X7X7X7X",
"7X7X7X7X7X7X7X7X7X7X7X7X7X7X7X7X7X7X7X7X    ( Z.Z.Z.Z.n.V.V.V.V.Z.n.N.L.q.7X7X7X7X7X7X7X7X7X7X7X7X7X7X7X7X7X7X7X",
"7X7X7X7X7X7X7X7X7X7X7X7X7X7X7X7X7X7X7X2 B B S F F F F F F F F F z.n.S.P.P.L.7X7X7X7X7X7X7X7X7X7X7X7X7X7X7X7X7X7X",
"7X7X7X7X7X7X7X7X7X7X7X7X7X7X7X7X7X    7 Z.Z.n h 5 h 5 5 h h 5 h a.Z.m.E.E.P.t.e.7X7X7X7X7X7X7X7X7X7X7X7X7X7X7X7X",
"7X7X7X7X7X7X7X7X7X7X7X7X7X7X7X7X7X@ o j M.z.n z z z z z z z z z G x.S.R.R.P.y.y.7X7X7X7X7X7X7X7X7X7X7X7X7X7X7X7X",
"7X7X7X7X7X7X7X7X7X7X7X7X7X7X7X    ( z.G z z j.x.x.x.x.x.x.x.x.x.A l D A.A.~.]._.@.' 7X7X7X7X7X7X7X7X7X7X7X7X7X7X",
"7X7X7X7X7X7X7X7X7X7X7X7X7X7X7X    j.Z.a.h h k.V.V.V.V.V.V.V.V.V.n 5 n V.V.~.]._.O.O.7X7X7X7X7X7X7X7X7X7X7X7X7X7X",
"7X7X7X7X7X7X7X7X7X7X7X7X7X7X< 9 h S F F F F z.V.V.V.V.V.V.V.V.V.a.F F F S N.B.B.O.O.7X7X7X7X7X7X7X7X7X7X7X7X7X7X",
"7X7X7X7X7X7X7X7X7X7X7X7X    8 s.W l 5 D V.V.V.V.V.V.V.V.V.V.V.V.Z.Z.k.h 5 C T E ..O.7X7X7X7X7X7X7X7X7X7X7X7X7X7X",
"7X7X7X7X7X7X7X7X7X7X7X7X    1 Y Y n j S V.V.V.V.V.V.V.V.V.V.V.V.n.Z.k.j h Z T ~ @.@.7X7X7X7X7X7X7X7X7X7X7X7X7X7X",
"7X7X7X7X7X7X7X7X7X7X7X7X    # l l j.x.n.V.V.V.V.V.V.V.x.x.V.V.V.V.Z.k.h h Z s.^ q.q.7X7X7X7X7X7X7X7X7X7X7X7X7X7X",
"7X7X7X7X7X7X7X7X7X7X7X7X    # 5 h z.Z.V.x.V.V.V.V.V.V.V.V.V.V.V.n.Z.k.h h Z T ^ t.y.7X7X7X7X7X7X7X7X7X7X7X7X7X7X",
"7X7X7X7X7X7X7X7X7X7X7X7X    < C C S F a.V.V.V.V.V.V.V.V.V.V.V.V.v.h.g.C b C C b | | #.7X7X7X7X7X7X7X7X7X7X7X7X7X",
"7X7X7X7X7X7X7X7X7X7X7X7X    1 s.R l 5 A V.V.V.V.V.V.V.V.V.V.V.V.d.T Y T T c h h l h i O.' 7X7X7X7X7X7X7X7X7X7X7X",
"7X7X7X7X7X7X7X7X7X7X7X7XX   8 I I l l A V.V.V.n.n.V.V.V.V.V.x.n.f.T W I Y v l h h h _ 6.+.7X7X7X7X7X7X7X7X7X7X7X",
"7X7X7X7X7X7X7Xt.y.!.%X$XL 5 2 X @ C Y g.V.V.V.M.V.V.V.V.V.v.s.s.W T P X X v Y I h h W.$X`.y.t.7X7X7X7X7X7X7X7X7X",
"7X7X7X7X7X7X7Xt.t.!.%X$XK 5 2     P T g.V.V.V.V.V.V.V.Z.Z.c.W W W s.P     v s.Y h h W.&X`.y.t.7X7X7X7X7X7X7X7X7X",
"7X7X7X7X7XO.6.`.'.=X;X=XK h 3     C T g.V.V.V.V.V.V.V.l.h.g.W W P b l     v T Y h h ^.:X-X%X$X!.7X7X7X7X7X7X7X7X",
"7X7X7X7X7XO.+.:X1X<X<X,XK h 1   X P W g.V.V.V.V.V.V.n.d.W W W W c h 4     v W I h h ).<X<X<X1X/.s O.7X7X7X7X7X7X",
"7X7X7X7X7XO.+.=X>X>X,X:XK h 2     b R g.x.x.V.V.V.V.V.d.W R R R l 5 4 X X v s.I h h ).,X>X>X>X/.s O.7X7X7X7X7X7X",
"7X7X7X7X7X7X7X$.+.9.Q.Q.V h 2     9 l b s.s.x.V.V.V.V.d.W I l h #   @ 4 5 C W R h h *.Q.Q.4.4.7X7X7X7X7X7X7X7X7X",
"7X7X7X7X7X7X7Xg s 5.t.0.V h 3     4 h c W W c.Z.V.V.V.f.W I h h @   @ h h C W R h h *.e.q.' ' 7X7X7X7X7X7X7X7X7X",
"7X7X7X7X7X7X7X7X7X4.7.w.>.{.-.# , , # k W W h.l.l.l.h.U C l 3 , 3 , 2 h h c b ! [.[.3.7.7.O.O.7X7X7X7X7X7X7X7X7X",
"7X7X7X7X7X7X7X7X7X7X' o.|.oX}.h h X   1 W W T W T T T c h 4     2 h h h h 5 5 J .X.X1.s s 7X7X7X7X7X7X7X7X7X7X7X",
"7X7X7X7X7X7X7X7X7X7X' o.XX X{.M m @   < R R W W W W R l 5 2 X   4 h 5 j x m M / |. X1.s O.7X7X7X7X7X7X7X7X7X7X7X",
"7X7X7X7X7X7X7X7X7X7X7X7X% % =.T.Y.y   # l h I W T W W <   @ 5 5 5 5 N ` a K.R.K.% % 7X7X7X7X7X7X7X7X7X7X7X7X7X7X",
"7X7X7X7X7X7X7X7X7X7X7X7X    { E.E.w   $ j h I W W W W <   X 6 6 6 6 N ' O.U.E.U..   7X7X7X7X7X7X7X7X7X7X7X7X7X7X",
"7X7X7X7X7X7X7X7X7X7X7X7X7X7X) G.[ *   X , , c b b b b $   y H.J.J.J.D.e > ] G.[ .   7X7X7X7X7X7X7X7X7X7X7X7X7X7X",
"7X7X7X7X7X7X7X7X7X7X7X7X7X7X7X              4 h h h h @ . ) E.E.E.E.U.          7X7X7X7X7X7X7X7X7X7X7X7X7X7X7X7X",
"7X7X7X7X7X7X7X7X7X7X7X7X7X7X7X      X       4 h h h h X   V Y.T.T.R.K.+ +       7X7X7X7X7X7X7X7X7X7X7X7X7X7X7X7X",
"7X7X7X7X7X7X7X7X7X7X7X7X7X7X7X    4 5 2     4 h h h j @   $ m M m m V a a *     7X7X7X7X7X7X7X7X7X7X7X7X7X7X7X7X",
"7X7X7X7X7X7X7X7X7X7X7X7X7X7X7X    4 h 2     4 h h h h @   @ 9 h h h N O.O.-     7X7X7X7X7X7X7X7X7X7X7X7X7X7X7X7X",
"7X7X7X7X7X7X7X7X7X7X7X7X7X7X< 9 k v b l , < , , , , , 4 9 k b b l h x } } x 0 0 X   7X7X7X7X7X7X7X7X7X7X7X7X7X7X",
"7X7X7X7X7X7X7X7X7X7X7X7X    8 T T W W U h h X         H W W W W c h l T T T W C     7X7X7X7X7X7X7X7X7X7X7X7X7X7X",
"7X7X7X7X7X7X7X7X7X7X7X7X. . q F.^ Q E U l l # X X X @ H T T W W c l c I I Q F./ X   7X7X7X7X7X7X7X7X7X7X7X7X7X7X",
"7X7X7X7X7X7X7X7X7X7X  . > r i.3X5Xr.o.} Y R I I I I I R W W W W R W b @ @ +X3X*Xo   7X7X7X7X7X7X7X7X7X7X7X7X7X7X",
"7X7X7X7X7X7X7X7X7X7X    > d p.4X4Xr.s | W W W W T W W W W W W W W W b     #X4X6Xo   7X7X7X7X7X7X7X7X7X7X7X7X7X7X",
"7X7X7X7X7X7X7X7X7X* > > i i <.@X@Xf ; t W W W W T W W W T W W R W W U e r 2.OX2.o   7X7X7X7X7X7X7X7X7X7X7X7X7X7X",
"7X7X7X7X7X7X7X    - @.' ' s  .:.:.%   1 W W W W T T T T T T T T W W ~ O.O.*         7X7X7X7X7X7X7X7X7X7X7X7X7X7X",
"7X7X7X7X7X7X7X    - ' ' 4.6.,.;.;.%   2 E E E E E E E E E E E E E E ~ X.X.=         7X7X7X7X7X7X7X7X7X7X7X7X7X7X",
"7X7X7X7X7X7X7X    - ' +.&X,X^.. o 4 4 t ..........................` #.M.M.7     7X7X7X7X7X7X7X7X7X7X7X7X7X7X7X7X",
"7X7X7X7X7X7X7X    - O.+.;X2X^.    4 h V g g g g g g g g g g O.O.g g #.Z.V.7     7X7X7X7X7X7X7X7X7X7X7X7X7X7X7X7X",
"7X7X7X7X7X7X7X7X7X* e r <.i. .< , c C D %.%.%.%.%.%.%.%.%.%.%.%.%.%.&.h.h.q     7X7X7X7X7X7X7X7X7X7X7X7X7X7X7X7X",
"7X7X7X7X7X7X7X7X7X7X        # j h R T f.n.Z.n.V.n.V.Z.n.n.V.V.V.V.Z.c.W T 8     7X7X7X7X7X7X7X7X7X7X7X7X7X7X7X7X",
"7X7X7X7X7X7X7X7X7X7X        # 5 5 I T g.V.V.V.V.n.V.V.V.V.V.V.V.n.n.v.Y I 8     7X7X7X7X7X7X7X7X7X7X7X7X7X7X7X7X",
"7X7X7X7X7X7X7X7X7X7X7X7X7X7X7XX X C T g.V.V.V.V.V.V.V.V.V.V.V.V.g.s.U X X 7X7X7X7X7X7X7X7X7X7X7X7X7X7X7X7X7X7X7X",
"7X7X7X7X7X7X7X7X7X7X7X7X7X7X7X    P T f.Z.Z.Z.n.V.Z.V.V.Z.Z.V.Z.f.s.P     7X7X7X7X7X7X7X7X7X7X7X7X7X7X7X7X7X7X7X",
"7X7X7X7X7X7X7X7X7X7X7X7X7X7X7X    0 9 x B B B B B B B B B B N n k 9 8     7X7X7X7X7X7X7X7X7X7X7X7X7X7X7X7X7X7X7X",
"7X7X7X7X7X7X7X7X7X7X7X7X7X7X7X7X7X                                        7X7X7X7X7X7X7X7X7X7X7X7X7X7X7X7X7X7X7X",
"7X7X7X7X7X7X7X7X7X7X7X7X7X7X7X7X7X                          . . O O O O O 7X7X7X7X7X7X7X7X7X7X7X7X7X7X7X7X7X7X7X",
"7X7X7X7X7X7X7X7X7X7X7X7X7X7X7X7X7X7X7X7X7X7X7X7X7X7X7X    O r u $.9.9.9.9.r     7X7X7X7X7X7X7X7X7X7X7X7X7X7X7X7X",
"7X7X7X7X7X7X7X7X7X7X7X7X7X7X7X7X7X7X7X7X7X7X7X7X7X7X7X    O d d w.e.Q.t.y.r     7X7X7X7X7X7X7X7X7X7X7X7X7X7X7X7X",
"7X7X7X7X7X7X7X7X7X7X7X7X7X7X7X7X7X7X7X7X7X7X7X7X7X7X7X7X  O : : X.7.7.7.7.r     7X7X7X7X7X7X7X7X7X7X7X7X7X7X7X7X",
"7X7X7X7X7X7X7X7X7X7X7X7X7X7X7X7X7X7X7X7X7X7X7X7X7X7X7X7X7X7X    u O.' ' ' =     7X7X7X7X7X7X7X7X7X7X7X7X7X7X7X7X",
"7X7X7X7X7X7X7X7X7X7X7X7X7X7X7X7X7X7X7X7X7X7X7X7X7X7X7X7X7X7X    u a p p a =     7X7X7X7X7X7X7X7X7X7X7X7X7X7X7X7X",
"7X7X7X7X7X7X7X7X7X7X7X7X7X7X7X7X7X7X7X7X7X7X7X7X7X7X7X7X7X7X7X7X+ + . . . 7X7X7X7X7X7X7X7X7X7X7X7X7X7X7X7X7X7X7X",
"7X7X7X7X7X7X7X7X7X7X7X7X7X7X7X7X7X7X7X7X7X7X7X7X7X7X7X7X7X7X7X7X          7X7X7X7X7X7X7X7X7X7X7X7X7X7X7X7X7X7X7X",
"7X7X7X7X7X7X7X7X7X7X7X7X7X7X7X7X7X7X7X7X7X7X7X7X7X7X7X7X7X7X7X7X7X        7X7X7X7X7X7X7X7X7X7X7X7X7X7X7X7X7X7X7X",
"7X7X7X7X7X7X7X7X7X7X7X7X7X7X7X7X7X7X7X7X7X7X7X7X7X7X7X7X7X7X7X7X7X7X7X7X7X7X7X7X7X7X7X7X7X7X7X7X7X7X7X7X7X7X7X7X",
"7X7X7X7X7X7X7X7X7X7X7X7X7X7X7X7X7X7X7X7X7X7X7X7X7X7X7X7X7X7X7X7X7X7X7X7X7X7X7X7X7X7X7X7X7X7X7X7X7X7X7X7X7X7X7X7X",
"7X7X7X7X7X7X7X7X7X7X7X7X7X7X7X7X7X7X7X7X7X7X7X7X7X7X7X7X7X7X7X7X7X7X7X7X7X7X7X7X7X7X7X7X7X7X7X7X7X7X7X7X7X7X7X7X"
};
