/* XPM */
static char *result[] = {
/* columns rows colors chars-per-pixel */
"56 63 210 2 ",
"   c #010101",
".  c #090504",
"X  c #030C04",
"o  c #0B0B0B",
"O  c #0F0F01",
"+  c #190E0B",
"@  c #150B07",
"#  c #041405",
"$  c #051A06",
"%  c #041D0A",
"&  c #0B1307",
"*  c #191708",
"=  c #25150B",
"-  c #251D0B",
";  c #2A1F12",
":  c #341D17",
">  c #05240C",
",  c #062A0F",
"<  c #092D0A",
"1  c #0B2509",
"2  c #13290C",
"3  c #0A320A",
"4  c #0B3E0B",
"5  c #07300F",
"6  c #16380F",
"7  c #073311",
"8  c #3D3C02",
"9  c #2C2112",
"0  c #39251A",
"q  c #33330A",
"w  c #1A2F3C",
"e  c #322E26",
"r  c #45261A",
"t  c #552E18",
"y  c #403618",
"u  c #5B331A",
"i  c #583C1B",
"p  c #66391C",
"a  c #713E1D",
"s  c #4B2A20",
"d  c #5A3B25",
"f  c #673D24",
"g  c #753E20",
"h  c #0D420D",
"j  c #10430C",
"k  c #11490F",
"l  c #0D4C12",
"z  c #0B4C1A",
"x  c #0B4111",
"c  c #174B12",
"v  c #0E5215",
"b  c #0B521B",
"n  c #0D5A1A",
"m  c #165614",
"M  c #284816",
"N  c #235719",
"B  c #364304",
"V  c #0D651E",
"C  c #0F681F",
"Z  c #18651A",
"A  c #246819",
"S  c #2B781C",
"D  c #24741E",
"F  c #317A1F",
"G  c #0C5F20",
"H  c #0C5B3F",
"J  c #345C29",
"K  c #2F5622",
"L  c #0F6B22",
"P  c #0E6521",
"I  c #0E7B29",
"U  c #0E7625",
"Y  c #107124",
"T  c #107B29",
"R  c #197522",
"E  c #126D21",
"W  c #266E27",
"Q  c #266B26",
"!  c #306725",
"~  c #2E7A2D",
"^  c #297725",
"/  c #317F20",
"(  c #424301",
")  c #4F4F00",
"_  c #565601",
"`  c #4B441C",
"'  c #57441C",
"]  c #594F09",
"[  c #72401F",
"{  c #58730F",
"}  c #686701",
"|  c #74611F",
" . c #5E4C23",
".. c #535423",
"X. c #4A5924",
"o. c #684826",
"O. c #744220",
"+. c #794B2A",
"@. c #685622",
"#. c #6B5229",
"$. c #7C5D32",
"%. c #6B6F31",
"&. c #1D334B",
"*. c #0A5B40",
"=. c #2E4359",
"-. c #096A5D",
";. c #3C7C48",
":. c #206A59",
">. c #314D6B",
",. c #076C61",
"<. c #4E544E",
"1. c #705243",
"2. c #5C7348",
"3. c #486F74",
"4. c #59626D",
"5. c #82532B",
"6. c #885A2E",
"7. c #895B39",
"8. c #8B6537",
"9. c #976A37",
"0. c #9A753C",
"q. c #8C6D24",
"w. c #A37A3E",
"e. c #A77539",
"r. c #926818",
"t. c #8C6646",
"y. c #916441",
"u. c #9F7B40",
"i. c #A47B41",
"p. c #A0764B",
"a. c #A47D5A",
"s. c #2E801F",
"d. c #1B8529",
"f. c #1F8829",
"g. c #268927",
"h. c #348521",
"j. c #358D22",
"k. c #399425",
"l. c #359A29",
"z. c #379928",
"x. c #299029",
"c. c #3EA129",
"v. c #6FBC1F",
"b. c #7A9A2A",
"n. c #41A429",
"m. c #43A92A",
"M. c #4EA02C",
"N. c #55A62D",
"B. c #59B024",
"V. c #7BB625",
"C. c #488E1A",
"Z. c #4C9F60",
"A. c #9D9409",
"S. c #A9A801",
"D. c #B6B700",
"F. c #A9863C",
"G. c #B38A31",
"H. c #9BAC2F",
"J. c #C3A72B",
"K. c #D0BB21",
"L. c #CEB90A",
"P. c #B1CF0B",
"I. c #BFE83A",
"U. c #A7C933",
"Y. c #DAD800",
"T. c #EBE30D",
"R. c #F2EE09",
"E. c #EEF704",
"W. c #FEFE00",
"Q. c #F5F500",
"!. c #D9C338",
"~. c #ECC83A",
"^. c #C7F33D",
"/. c #8A885A",
"(. c #AA845A",
"). c #B9925D",
"_. c #AF884B",
"`. c #AE8662",
"'. c #B99361",
"]. c #A3A779",
"[. c #939567",
"{. c #D1AB51",
"}. c #CDA34D",
"|. c #E4AF56",
" X c #C29E6B",
".X c #CAA777",
"XX c #C6A36F",
"oX c #677585",
"OX c #058CA2",
"+X c #0A8D9D",
"@X c #778FA6",
"#X c #16A7D7",
"$X c #02BBFC",
"%X c #07B7EF",
"&X c #05C0FF",
"*X c #D7B58B",
"=X c #D5BE98",
"-X c #C7AE88",
";X c #CEBDB1",
":X c #CDBDB2",
">X c #E3C59B",
",X c #EDD4AB",
"<X c #F4DDB5",
"1X c #EBCEA6",
"2X c #FDE4BB",
"3X c #FDE4BB",
"4X c #CACBCA",
"5X c #FFEAC1",
"6X c white",
"7X c None",
/* pixels */
"7X7X7X7X7X7X7X7X7X7X7X7X7X7X7X7X7X7X7X7X7X    9 i.i.i.i.i.i.u.+.[ [ 7X7X7X7X7X7X7X7X7X7X7X7X7X7X7X7X7X7X7X7X7X7X",
"7X7X7X7X7X7X7X7X7X7X7X7X7X7X7X7X7X7X7X7X7X' #.q.K.K.K.K.K.K.K.G.e.e.7X7X7X7X7X7X7X7X7X7X7X7X7X7X7X7X7X7X7X7X7X7X",
"7X7X7X7X7X7X7X7X7X7X7X7X7X7X7X7X7X7X7X  . _.|.~.W.W.W.W.W.W.W.~.|.}.i.i.7X7X7X7X7X7X7X7X7X7X7X7X7X7X7X7X7X7X7X7X",
"7X7X7X7X7X7X7X7X7X7X7X7X7X7X7X7X7X7X7X# & F.{.!.E.E.E.E.E.E.R.K.{.}.F.F.7X7X7X7X7X7X7X7X7X7X7X7X7X7X7X7X7X7X7X7X",
"7X7X7X7X7X7X7X7X7X7X7X7X7X7X7X7X    6 j.k.M.N.N.B.B.B.B.N.B.B.N.N.V.R.R.J.p.i.7X7X7X7X7X7X7X7X7X7X7X7X7X7X7X7X7X",
"7X7X7X7X7X7X7X7X7X7X7X7X7X7X7X7X    6 m.m.n.n.m.m.c.c.c.m.m.m.m.c.v.W.W.J.i.i.7X7X7X7X7X7X7X7X7X7X7X7X7X7X7X7X7X",
"7X7X7X7X7X7X7X7X7X7X7X7X7X7X7X7Xc M m S S S S S ^ S S S S S ^ S R C.P.P.b.%.%.7X7X7X7X7X7X7X7X7X7X7X7X7X7X7X7X7X",
"7X7X7X7X7X7X7X7X7X7X7X7X7X7X    h.m.h.4 4 4 4 4 h h h 4 4 h 4 h x L l.c.d.d.W O.O.7X7X7X7X7X7X7X7X7X7X7X7X7X7X7X",
"7X7X7X7X7X7X7X7X7X7X7X7X7X7XX # s.n.s.k k k k k k k k k k k k k k m c.k.g.I W #.+.7X7X7X7X7X7X7X7X7X7X7X7X7X7X7X",
"7X7X7X7X7X7X7X7X7X7X7X    5 P P m k A k.k.k.k.k.k.k.k.k.k.k.k.k.k.h.m m C I ^ 0.e.7X7X7X7X7X7X7X7X7X7X7X7X7X7X7X",
"7X7X7X7X7X7X7X7X7X7X7X    5 T T l 4 Z n.n.n.n.n.n.n.n.n.m.n.m.n.n.j.j h C I ^ u.i.7X7X7X7X7X7X7X7X7X7X7X7X7X7X7X",
"7X7X7X7X7X7X7X7X7X7X7X    > C V Z A s.n.n.n.n.n.n.n.n.n.n.n.n.n.m.j.h h C d.~ u.i.7X7X7X7X7X7X7X7X7X7X7X7X7X7X7X",
"7X7X7X7X7X7X7X7X7X7X7X    $ h j k.n.n.n.n.n.n.n.n.n.n.n.n.n.c.n.n.j.j h L I ^ _.i.7X7X7X7X7X7X7X7X7X7X7X7X7X7X7X",
"7X7X7X7X7X7X7X7X7X7X7X.   % h l j.n.n.n.n.n.n.n.n.n.n.c.n.n.n.n.n.k.k k P I ^ 0.0.7X7X7X7X7X7X7X7X7X7X7X7X7X7X7X",
"7X7X7X7X7X7Xi.i.'.*X-XM 3 l Y Y m c A n.n.n.n.n.n.n.n.n.n.n.n.n.n.z.k.k.Z l c M M /.*X-Xi.i.7X7X7X7X7X7X7X7X7X7X",
"7X7X7X7X7X7Xw.w.).*X-XN h n T T k 4 Z n.n.n.c.n.n.n.n.n.n.n.n.n.n.n.n.m.Z 4 j h h /.*X.Xi.w.7X7X7X7X7X7X7X7X7X7X",
"7X7X7X7X7X7X XXX*X>X=XK h v T T V v D c.n.n.n.n.n.n.n.n.n.n.n.n.n.k.A A m n v h h [.1X>X.XXX(.7X7X7X7X7X7X7X7X7X",
"7X7X7X7Xg 5.1X5X2X5X<XJ h v T T T T g.m.n.n.n.n.n.n.n.n.n.n.n.c.n./ .   G T Y j h ].5X2X2X5X(.a O.7X7X7X7X7X7X7X",
"7X7X7X7XO.+.1X<X3X3X<X! h v T T I U f.c.n.n.n.n.n.c.n.n.n.n.n.n.n./     z T E x x ].2X3X3X<X`.a O.7X7X7X7X7X7X7X",
"7X7X7X7X7X7X8.y.u.)._.M h l l v U I d.d.f.l.n.n.n.n.n.n.n.n.n.g.d.C     5 v l 4 x %.)._.y.y.7.7X7X7X7X7X7X7X7X7X",
"7X7X7X7X7X7Xg f 5.i.0.M h 4 h h Y I I I T l.m.n.n.n.n.n.n.n.n.g.I P     < h h j 4 | e.e.g g 7X7X7X7X7X7X7X7X7X7X",
"7X7X7X7X7X7XO.O.5.9.8.:.,.H h h z b n T T x.x.l.n.n.n.n.l.l.x.R P l     < h z -.,.2.9.8.O.O.7X7X7X7X7X7X7X7X7X7X",
"7X7X7X7X7X7X7X7X7Xg #.#X&XOXh 4 X   , T T T T g.n.n.n.n.l.T T v j 3     < 4 *.$X$X3.a g 7X7X7X7X7X7X7X7X7X7X7X7X",
"7X7X7X7X7X7X7X7X7Xg o.#X$X+Xj 4 #   , I T T T f.n.c.n.n.l.T T v j 3     < 4 *.%X$X3.a g 7X7X7X7X7X7X7X7X7X7X7X7X",
"7X7X7X7X7X7X7X7X7X+ - U.^.H.i i @   $ v v Y T T d.d.d.d.d.T T , X $ 3 3 q  .| I.^...@ + 7X7X7X7X7X7X7X7X7X7X7X7X",
"7X7X7X7X7X7X7X7X7X  O Y.W.L.a a @   # h h Y T I I I I I I I T >   # 4 4 i g r.W.W.}     7X7X7X7X7X7X7X7X7X7X7X7X",
"7X7X7X7X7X7X7X7X7X  O A.D.A.5.5.] ) B < 3 n L Y I T T T T T T >   * { { | +.q.S.D.)     7X7X7X7X7X7X7X7X7X7X7X7X",
"7X7X7X7X7X7X7X7X7X7X7X    0 i._.T.W.S.    3 h v T T T T T T T >   B W.W.J.i.8.    7X7X7X7X7X7X7X7X7X7X7X7X7X7X7X",
"7X7X7X7X7X7X7X7X7X7X7X    y i.w.T.W.S.    3 h v T T T T T T T >   8 Q.W.J.u.8.    7X7X7X7X7X7X7X7X7X7X7X7X7X7X7X",
"7X7X7X7X7X7X7X7X7X7X7X7X7X* 9 9 8 B } D.D.q X 5 T T T T Y v l $   O ( ( q 9 ; 7X7X7X7X7X7X7X7X7X7X7X7X7X7X7X7X7X",
"7X7X7X7X7X7X7X7X7X7X7X7X7X7X        _ W.W.8   > T T T T Y h x #               7X7X7X7X7X7X7X7X7X7X7X7X7X7X7X7X7X",
"7X7X7X7X7X7X7X7X7X7X7X7X7X7X        B Y.P.q   > L L L L n < 3 $ # # > > X     7X7X7X7X7X7X7X7X7X7X7X7X7X7X7X7X7X",
"7X7X7X7X7X7X7X7X7X7X7X7X7X7X7X7X    $ h j #   # h h h k 3     < h v T T ,     7X7X7X7X7X7X7X7X7X7X7X7X7X7X7X7X7X",
"7X7X7X7X7X7X7X7X7X7X7X7X7X7X7X7X    $ h 4 #   # h h h h 5     < h v T T >     7X7X7X7X7X7X7X7X7X7X7X7X7X7X7X7X7X",
"7X7X7X7X7X7X7X7X7X7X7X7X7X7X    x b z h h 3 < 1 # # # # > b G P L Q ....N G z X   7X7X7X7X7X7X7X7X7X7X7X7X7X7X7X",
"7X7X7X7X7X7X7X7X7X7X7X7X7X7X  X V d.V 4 h h h <         % T T T I ! a a Q I G     7X7X7X7X7X7X7X7X7X7X7X7X7X7X7X",
"7X7X7X7X7X7X7X7X7X7X7X7X7X7X  X ;.Z.;.M M c v 4 % % $ $ 7 I T T I Q O.O.2.Z.;.    7X7X7X7X7X7X7X7X7X7X7X7X7X7X7X",
"7X7X7X7X7X7X7X7X7X7X7X7X7X7X  o 4X6X:Xa O.Q T T T I T T T T T I I Q O.O.:X6X4Xo   7X7X7X7X7X7X7X7X7X7X7X7X7X7X7X",
"7X7X7X7X7X7X7X7X7X7X7X7X7X7X  o 4X6X:XO.O.W T T T I T I T I T T I Q O.O.:X6X4Xo   7X7X7X7X7X7X7X7X7X7X7X7X7X7X7X",
"7X7X7X7X7X7X7X7X7X7X7X    + : : oX@X4.= = ` ......................X.! ! <.<.<.7X7X7X7X7X7X7X7X7X7X7X7X7X7X7X7X7X",
"7X7X7X7X7X7X7X7X7X7X7X    + s s >.>.&.    u g g g g a a g O.O.g [  .T I >     7X7X7X7X7X7X7X7X7X7X7X7X7X7X7X7X7X",
"7X7X7X7X7X7X7X7X7X7X7X+ @ 0 1.1.=.=.w X # ' @.@.@.@.@.@.o.u u u u ` d.f.,     7X7X7X7X7X7X7X7X7X7X7X7X7X7X7X7X7X",
"7X7X7X7X7X7X7X7X7X  . u g a.3X,Xe   $ 4 h j.n.n.M.n.n.n.F     .   2 z.n.6     7X7X7X7X7X7X7X7X7X7X7X7X7X7X7X7X7X",
"7X7X7X7X7X7X7X7X7X  . d a a.5X<Xe   # h h j.n.n.n.n.n.m.F         2 n.n.6     7X7X7X7X7X7X7X7X7X7X7X7X7X7X7X7X7X",
"7X7X7X7X7X7X7X7X7X  . u a `.2X<Xe   > L C z.n.n.n.n.N 6 M o.#.u r y A A 1     7X7X7X7X7X7X7X7X7X7X7X7X7X7X7X7X7X",
"7X7X7X7X7X7X7X7X7X  . u g (.5X<Xe   , T T z.m.m.n.n.2   9 i.i.5.[ ' 4 4 #     7X7X7X7X7X7X7X7X7X7X7X7X7X7X7X7X7X",
"7X7X7X7X7X7X7X7X7X  . t d t.=X-Xe   , P C / h.h.h.h.2 . 0 w.i.6.+. .6 3 #     7X7X7X7X7X7X7X7X7X7X7X7X7X7X7X7X7X",
"7X7X7X7X7X7X7X7X7X7X7X.   o o o 7X7X7XX   . X X   . : r d i.i.i.e.$..   7X7X7X7X7X7X7X7X7X7X7X7X7X7X7X7X7X7X7X7X",
"7X7X7X7X7X7X7X7X7X7X7X          7X7X7X              : s f i.i.i.w.8.    7X7X7X7X7X7X7X7X7X7X7X7X7X7X7X7X7X7X7X7X",
"7X7X7X7X7X7X7X7X7X7X7X7X7X7X7X7X7X7X7X7X7X7X7X      : s f i.i.i.w.8.r r =   7X7X7X7X7X7X7X7X7X7X7X7X7X7X7X7X7X7X",
"7X7X7X7X7X7X7X7X7X7X7X7X7X7X7X7X7X7X7X7X7X7X7X7X    : r o.p.i.i.w.0.O.O.=     7X7X7X7X7X7X7X7X7X7X7X7X7X7X7X7X7X",
"7X7X7X7X7X7X7X7X7X7X7X7X7X7X7X7X7X7X7X7X7X7X7X7X  . : e d u.i.i.i.9.O.a =     7X7X7X7X7X7X7X7X7X7X7X7X7X7X7X7X7X",
"7X7X7X7X7X7X7X7X7X7X7X7X7X7X7X7X7X7X7X7X7X7X7X7X7X7X.   9 i.i.i.i.8.s s +     7X7X7X7X7X7X7X7X7X7X7X7X7X7X7X7X7X",
"7X7X7X7X7X7X7X7X7X7X7X7X7X7X7X7X7X7X7X7X7X7X7X7X7X7X    9 i.i.i._.9.s s +     7X7X7X7X7X7X7X7X7X7X7X7X7X7X7X7X7X",
"7X7X7X7X7X7X7X7X7X7X7X7X7X7X7X7X7X7X7X7X7X7X7X7X7X7X    = #.+.+.6.+.s s +     7X7X7X7X7X7X7X7X7X7X7X7X7X7X7X7X7X",
"7X7X7X7X7X7X7X7X7X7X7X7X7X7X7X7X7X7X7X7X7X7X7X7X7X7X    + s s f O.a s s +     7X7X7X7X7X7X7X7X7X7X7X7X7X7X7X7X7X",
"7X7X7X7X7X7X7X7X7X7X7X7X7X7X7X7X7X7X7X7X7X7X7X7X7X7X    o r 0 t p u 0 0 +     7X7X7X7X7X7X7X7X7X7X7X7X7X7X7X7X7X",
"7X7X7X7X7X7X7X7X7X7X7X7X7X7X7X7X7X7X7X7X7X7X7X7X7X7X      . . . . . . . 7X7X7X7X7X7X7X7X7X7X7X7X7X7X7X7X7X7X7X7X",
"7X7X7X7X7X7X7X7X7X7X7X7X7X7X7X7X7X7X7X7X7X7X7X7X7X7X                    7X7X7X7X7X7X7X7X7X7X7X7X7X7X7X7X7X7X7X7X",
"7X7X7X7X7X7X7X7X7X7X7X7X7X7X7X7X7X7X7X7X7X7X7X7X7X7X7X7X7X7X7X7X7X7X7X7X7X7X7X7X7X7X7X7X7X7X7X7X7X7X7X7X7X7X7X7X",
"7X7X7X7X7X7X7X7X7X7X7X7X7X7X7X7X7X7X7X7X7X7X7X7X7X7X7X7X7X7X7X7X7X7X7X7X7X7X7X7X7X7X7X7X7X7X7X7X7X7X7X7X7X7X7X7X",
"7X7X7X7X7X7X7X7X7X7X7X7X7X7X7X7X7X7X7X7X7X7X7X7X7X7X7X7X7X7X7X7X7X7X7X7X7X7X7X7X7X7X7X7X7X7X7X7X7X7X7X7X7X7X7X7X",
"7X7X7X7X7X7X7X7X7X7X7X7X7X7X7X7X7X7X7X7X7X7X7X7X7X7X7X7X7X7X7X7X7X7X7X7X7X7X7X7X7X7X7X7X7X7X7X7X7X7X7X7X7X7X7X7X"
};
