/* XPM */
static char *result[] = {
/* columns rows colors chars-per-pixel */
"59 62 202 2 ",
"   c #000101",
".  c #0A0604",
"X  c #020C04",
"o  c #060A0D",
"O  c #01050A",
"+  c #110D08",
"@  c #100C07",
"#  c #051206",
"$  c #061B08",
"%  c #1A1A01",
"&  c #14150A",
"*  c #18181A",
"=  c #391E0E",
"-  c #251710",
";  c #381F10",
":  c #26160B",
">  c #062107",
",  c #072B0C",
"<  c #082509",
"1  c #0B350B",
"2  c #0B3C0C",
"3  c #073D0D",
"4  c #073D15",
"5  c #093D15",
"6  c #073713",
"7  c #1A241D",
"8  c #27230A",
"9  c #212F13",
"0  c #3B2111",
"q  c #3B2318",
"w  c #2A3604",
"e  c #172738",
"r  c #43251C",
"t  c #4E3A1F",
"y  c #49371E",
"u  c #5C331E",
"i  c #542F1D",
"p  c #673A1D",
"a  c #703E1D",
"s  c #482D22",
"d  c #523E22",
"f  c #5C3721",
"g  c #403A30",
"h  c #753F20",
"j  c #603C25",
"k  c #0C420D",
"l  c #124B0F",
"z  c #10440D",
"x  c #0B4314",
"c  c #0D4910",
"v  c #134C11",
"b  c #1C4913",
"n  c #0E5D1A",
"m  c #0E5216",
"M  c #195514",
"N  c #25550C",
"B  c #28580C",
"V  c #254713",
"C  c #215215",
"Z  c #215917",
"A  c #335615",
"S  c #2F4710",
"D  c #0F611C",
"F  c #16661C",
"G  c #27731B",
"H  c #28741B",
"J  c #2E701C",
"K  c #0B4E26",
"L  c #0A4B26",
"P  c #184923",
"I  c #0D6321",
"U  c #0E6E25",
"Y  c #0F7226",
"T  c #0E7C29",
"R  c #0C7D26",
"E  c #107526",
"W  c #107C29",
"Q  c #157728",
"!  c #414116",
"~  c #49501B",
"^  c #74401E",
"/  c #695F11",
"(  c #487D15",
")  c #767802",
"_  c #425E25",
"`  c #475222",
"'  c #54592A",
"]  c #6E4C21",
"[  c #6D4827",
"{  c #744120",
"}  c #794623",
"|  c #7B4B25",
" . c #675125",
".. c #70552A",
"X. c #536434",
"o. c #4E6F27",
"O. c #2D455E",
"+. c #2A4967",
"@. c #2D5174",
"#. c #354E68",
"$. c #544B4A",
"%. c #5D7F48",
"&. c #737D4E",
"*. c #747350",
"=. c #66716A",
"-. c #84561C",
";. c #81512C",
":. c #845820",
">. c #8C5E31",
",. c #855431",
"<. c #926E3A",
"1. c #926B35",
"2. c #94713B",
"3. c #9D723C",
"4. c #9E7C35",
"5. c #826334",
"6. c #A2763E",
"7. c #A47B41",
"8. c #A97F43",
"9. c #A27854",
"0. c #827661",
"q. c #13812A",
"w. c #1C8529",
"e. c #258225",
"r. c #288B26",
"t. c #299129",
"y. c #3B9324",
"u. c #3B9A26",
"i. c #399D29",
"p. c #2F872F",
"a. c #3DA229",
"s. c #469928",
"d. c #489B29",
"f. c #41A529",
"g. c #43A82A",
"h. c #4EA322",
"j. c #56B025",
"k. c #799F0D",
"l. c #2B8C42",
"z. c #79CC74",
"x. c #818100",
"c. c #859D06",
"v. c #86A107",
"b. c #AE8A3A",
"n. c #93AB3B",
"m. c #94B234",
"M. c #BFB520",
"N. c #C4B31F",
"B. c #D3BE20",
"V. c #C7AE2C",
"C. c #95C717",
"Z. c #A0D215",
"A. c #CEDA04",
"S. c #CCD101",
"D. c #D8D204",
"F. c #E7E900",
"G. c #F4EB05",
"H. c #EBF503",
"J. c #F5F107",
"K. c yellow",
"L. c #FFF908",
"P. c #D7C624",
"I. c #EED229",
"U. c #D7EB08",
"Y. c #AA824A",
"T. c #AB8143",
"R. c #B9904E",
"E. c #869364",
"W. c #B9936E",
"Q. c #BC9770",
"!. c #C8994B",
"~. c #D29F4E",
"^. c #C9A247",
"/. c #D8A54F",
"(. c #E2AD55",
"). c #E7B450",
"_. c #CFAD7D",
"`. c #387E93",
"'. c #3D7A84",
"]. c #7AAF86",
"[. c #03A1CD",
"{. c #00ADEB",
"}. c #00B0EA",
"|. c #00BDFF",
" X c #8B98A6",
".X c #9BACBD",
"XX c #9D918A",
"oX c #CFAD83",
"OX c #D0AE83",
"+X c #D6B488",
"@X c #DEBC93",
"#X c #8BC197",
"$X c #81E182",
"%X c #E2C49D",
"&X c #F6DBB1",
"*X c #FDE2B9",
"=X c #CCD8CF",
"-X c #FFEBC2",
";X c #FFF1C7",
":X c white",
">X c #E9EEEA",
",X c None",
/* pixels */
",X,X,X,X,X,X,X,X,X,X,X,X,X,X,X,X,X,X,X,X,X,X,X,X,X,X,X,X,X,X,X,X,X,X,X,X,X,X,X,X,X,X,X,X,X,X,X,X,X,X,X,X,X,X,X,X,X,X,X",
",X,X,X,X,X,X,X,X,X,X,X,X,X,X,X,X,X,X,X,X,X,X,X,X,X,X,X,X,X,X,X,X,X,X,X,X,X,X,X,X,X,X,X,X,X,X,X,X,X,X,X,X,X,X,X,X,X,X,X",
",X,X,X,X,X,X,X,X,X,X,X,X,X,X,X,X,X,X,X,X,X,X,X,X,X,X,X,X,X,X,X,X,X,X,X,X,X,X,X,X,X,X,X,X,X,X,X,X,X,X,X,X,X,X,X,X,X,X,X",
",X,X,X,X,X,X,X,X,X,X,X,X,X,X,X,X,X,X,X,X,X,X,X  + <.8.7.7.7.7.7.>.{ ,X,X,X,X,X,X,X,X,X,X,X,X,X,X,X,X,X,X,X,X,X,X,X,X,X",
",X,X,X,X,X,X,X,X,X,X,X,X,X,X,X,X,X,X,X,X,X,X    @ <.7.7.7.7.7.7.>.a h ,X,X,X,X,X,X,X,X,X,X,X,X,X,X,X,X,X,X,X,X,X,X,X,X",
",X,X,X,X,X,X,X,X,X,X,X,X,X,X,X,X,X,X,X,X,X,X+ & - 4.b.b.b.b.b.b.1.| | ,X,X,X,X,X,X,X,X,X,X,X,X,X,X,X,X,X,X,X,X,X,X,X,X",
",X,X,X,X,X,X,X,X,X,X,X,X,X,X,X,X,X,X,X,X     .~.^.G.J.J.J.J.J.J.I.~.~.8.7.,X,X,X,X,X,X,X,X,X,X,X,X,X,X,X,X,X,X,X,X,X,X",
",X,X,X,X,X,X,X,X,X,X,X,X,X,X,X,X,X,X,X,X    ..(.).L.K.K.K.K.K.K.I.(./.8.7.,X,X,X,X,X,X,X,X,X,X,X,X,X,X,X,X,X,X,X,X,X,X",
",X,X,X,X,X,X,X,X,X,X,X,X,X,X,X,X,X,X  # C Z o.n.m.Z.Z.Z.Z.Z.Z.Z.m.m.n.B.B.V.,X3.} { ,X,X,X,X,X,X,X,X,X,X,X,X,X,X,X,X,X",
",X,X,X,X,X,X,X,X,X,X,X,X,X,X,X,X,X    # y.g.g.a.a.a.a.a.a.a.a.a.a.a.j.H.K.N.7.7.} ^ ^ ,X,X,X,X,X,X,X,X,X,X,X,X,X,X,X,X",
",X,X,X,X,X,X,X,X,X,X,X,X,X,X,X,X,X# X $ y.u.u.u.i.i.u.u.u.u.u.u.i.u.h.U.H.B.2.<.;.| ;.,X,X,X,X,X,X,X,X,X,X,X,X,X,X,X,X",
",X,X,X,X,X,X,X,X,X,X,X,X,X,X,X    V y.y.M l v v v v v v v v v v l l M h.j.J b A R./.R.7.7.,X,X,X,X,X,X,X,X,X,X,X,X,X,X",
",X,X,X,X,X,X,X,X,X,X,X,X,X,X,X    C g.a.l 2 k 2 2 2 k 5 k 2 2 k 2 k l u.g.G 2 V ^.).!.7.7.,X,X,X,X,X,X,X,X,X,X,X,X,X,X",
",X,X,X,X,X,X,X,X,X,X,X,X,X  X 6 5 M H H H H H G H H H H H H H H H H G G G F n G P.I.V.7.7.,X,X,X,X,X,X,X,X,X,X,X,X,X,X",
",X,X,X,X,X,X,X,X,X,X,X,X    X U q.D 2 v u.f.f.f.g.g.f.f.f.f.f.f.f.g.i.l 2 n R r.H.K.B.6.7.,X,X,X,X,X,X,X,X,X,X,X,X,X,X",
",X,X,X,X,X,X,X,X,X,X,X,X    X U Y D k M u.f.f.f.f.f.f.f.f.f.f.f.f.f.u.M v D Y w.A.H.V.6.7.,X,X,X,X,X,X,X,X,X,X,X,X,X,X",
",X,X,X,X,X,X,X,X,X,X,X,X    X k c n Y W a.a.f.f.f.f.s.a.a.f.f.f.f.f.f.y.u.G c v N B A ,X,X,X,X,X,X,X,X,X,X,X,X,X,X,X,X",
",X,X,X,X,X,X,X,X,X,X,X,X,X    1 k D W q.a.f.f.f.f.f.f.f.f.f.f.f.f.f.f.f.f.G k k 2 k ,X,X,X,X,X,X,X,X,X,X,X,X,X,X,X,X,X",
",X,X,X,X,X,X,X,X7.Y.oX,X' $ < n n D D D r.r.i.f.a.f.f.f.f.f.f.f.f.f.f.t.t.F k k k k X.,XoXY.7.,X,X,X,X,X,X,X,X,X,X,X,X",
",X,X,X,X,X,X,X7.7.Y.oX+X&.3 c R W n k c Y T r.f.f.f.f.f.f.f.a.f.f.g.a.q.W n k z k 3 &.@XoXY.7.4.,X,X,X,X,X,X,X,X,X,X,X",
",X,X,X,X,X,X,X8.Y.R.+X@X&.k k Y W n 2 x E T t.a.a.f.i.a.f.f.f.f.f.a.i.Q W n 2 2 k k &.@X+XR.Y.Y.,X,X,X,X,X,X,X,X,X,X,X",
",X,X,X,X,X{ h W.&X&X&X-XE.3 k R W x   # U W W W q.Q q.t.f.f.f.f.t.W W W W x   # 2 3 E.*X*X*X*XW.h { ,X,X,X,X,X,X,X,X,X",
",X,X,X,X,X{ a W.-X-X-X-XE.k c E q.x   X U W W W E W W t.f.f.f.f.t.T W W T 5     2 k E.*X*X-X;XW.a { ,X,X,X,X,X,X,X,X,X",
",X,X,X,X,X,X,X9.W.Q.oX+X&.k k n D ,   X U W W T W W E w.t.t.t.t.w.T W D D ,   X 1 k &._._.Q.W.9.,X,X,X,X,X,X,X,X,X,X,X",
",X,X,X,X,X,X,X,Xa } 3.6.' k k k k >   # U W T W W W W W T T E T W W Y k k >   X 2 z ' 6.3.} a ,X,X,X,X,X,X,X,X,X,X,X,X",
",X,X,X,X,X,X,X,X{ } 3.6.X.K K x k <   # I U Y E E W W W W W T W W W E x 2 >   X x K X.6.3.} { ,X,X,X,X,X,X,X,X,X,X,X,X",
",X,X,X,X,X,X,X,X,X,X| ^ =.}.[.K k k 2 1 # X , l c E W T W T W W W T U #   > 2 L [.}.'.} } ,X,X,X,X,X,X,X,X,X,X,X,X,X,X",
",X,X,X,X,X,X,X,X,X,X} a `.|.}.K k k k 2     > k c E W W W E W W W W U X   < k K }.|.`.^ { ,X,X,X,X,X,X,X,X,X,X,X,X,X,X",
",X,X,X,X,X,X,X,X,X,X0 = %.$Xz.` ! V 2 2 < < > > , m n U W W W W W W U X   8 ! ` z.$X%.= 0 ,X,X,X,X,X,X,X,X,X,X,X,X,X,X",
",X,X,X,X,X,X,X,X,X,X    -.K.G.-.h ! k k k k >   . 2 k n T W E T W W U X   = } -.G.K.x.    ,X,X,X,X,X,X,X,X,X,X,X,X,X,X",
",X,X,X,X,X,X,X,X,X,X    k.F.D.:.} ~ B N k k <   X 1 2 n W E W W W E I X   0 | :.D.F.)     ,X,X,X,X,X,X,X,X,X,X,X,X,X,X",
",X,X,X,X,X,X,X,X,X,X,X,X% % 8 1.6.N.F.A.N k k 2 1 X   < c c Y W D c k X   t 6.1.8 % % ,X,X,X,X,X,X,X,X,X,X,X,X,X,X,X,X",
",X,X,X,X,X,X,X,X,X,X,X,X    + <.7.P.K.H.N 2 3 3 3     $ k l E W D k 2 X   d Y.2.+     ,X,X,X,X,X,X,X,X,X,X,X,X,X,X,X,X",
",X,X,X,X,X,X,X,X,X,X,X,X,X  + t d / -.k.c.v.v.c.k.z 6 1 > , n n c k 2     8 d t +   ,X,X,X,X,X,X,X,X,X,X,X,X,X,X,X,X,X",
",X,X,X,X,X,X,X,X,X,X,X,X,X,X,X        % F.K.K.K.H.r.T x     2 x k k 2 .         ,X,X,X,X,X,X,X,X,X,X,X,X,X,X,X,X,X,X,X",
",X,X,X,X,X,X,X,X,X,X,X,X,X,X,X        % S.F.F.F.A.s.r.x     1 2 2 2 1 # X       ,X,X,X,X,X,X,X,X,X,X,X,X,X,X,X,X,X,X,X",
",X,X,X,X,X,X,X,X,X,X,X,X,X,X,X,X,X    X N N w % w D.H.)       X X   # I Y 6     ,X,X,X,X,X,X,X,X,X,X,X,X,X,X,X,X,X,X,X",
",X,X,X,X,X,X,X,X,X,X,X,X,X,X,X,X,X,X    1 x >   % F.K.)             X Y R 4     ,X,X,X,X,X,X,X,X,X,X,X,X,X,X,X,X,X,X,X",
",X,X,X,X,X,X,X,X,X,X,X,X,X,X,X,X,X, x x n n ,   & k.C.( 4 6     $ 4 P ].#X=.e e o   ,X,X,X,X,X,X,X,X,X,X,X,X,X,X,X,X,X",
",X,X,X,X,X,X,X,X,X,X,X,X,X,X,X    4 R T T T 5   X U R R W Y X   x T l.>X:X.X@.+.o     ,X,X,X,X,X,X,X,X,X,X,X,X,X,X,X,X",
",X,X,X,X,X,X,X,X,X,X,X,X,X,X,X. . 9 l.l.E Y 4 X $ U W W T U $ X x E p.=X>X X#.#.o     ,X,X,X,X,X,X,X,X,X,X,X,X,X,X,X,X",
",X,X,X,X,X,X,X,X,X,X,X,X,X  . q r XX>X=X7 O 5 Y U E W T T T U Y n x x * * s [ f .     ,X,X,X,X,X,X,X,X,X,X,X,X,X,X,X,X",
",X,X,X,X,X,X,X,X,X,X,X,X,X  O r r XX:X>X7   4 T T T T T T T T T n x 1 .   = } p .     ,X,X,X,X,X,X,X,X,X,X,X,X,X,X,X,X",
",X,X,X,X,X,X,X,X,X,X,X,X: = r i u =..X X*   9 _ _ _ _ _ _ _ _ _ ` ! S 5 5 9 0 ; .   ,X,X,X,X,X,X,X,X,X,X,X,X,X,X,X,X,X",
",X,X,X,X,X,X,X,X,X,X    0 } { ^ h $.@.+.o   ; h { h h h h h h h a a ] Q q.5     ,X,X,X,X,X,X,X,X,X,X,X,X,X,X,X,X,X,X,X",
",X,X,X,X,X,X,X,X,X,X    0 ^ { ;.,.$.+.O.X X q ] ] ] ] ] ] [ ] ] ] ] ] Q q.x O # ,X,X,X,X,X,X,X,X,X,X,X,X,X,X,X,X,X,X,X",
",X,X,X,X,X,X,X,X,X,X    ; { ,.%X&X*.o o 1 1 J s.s.s.s.s.d.d.d.d.s.d.d.f.a.r.U I X   ,X,X,X,X,X,X,X,X,X,X,X,X,X,X,X,X,X",
",X,X,X,X,X,X,X,X,X,X    0 { ,.&X;X0.  X 1 k G g.f.f.f.a.g.f.f.g.g.g.f.f.f.t.W E X     ,X,X,X,X,X,X,X,X,X,X,X,X,X,X,X,X",
",X,X,X,X,X,X,X,X,X,X,X,X: 0 r *.0.g   X m D e.g.f.f.f.i.t.r.Z M C C C C C b 4 4 X   ,X,X,X,X,X,X,X,X,X,X,X,X,X,X,X,X,X",
",X,X,X,X,X,X,X,X,X,X,X,X,X            X U T t.f.f.f.f.t.T U X                   ,X,X,X,X,X,X,X,X,X,X,X,X,X,X,X,X,X,X,X",
",X,X,X,X,X,X,X,X,X,X,X,X,X            X I U H i.y.y.y.e.U I & & + + + + + .     ,X,X,X,X,X,X,X,X,X,X,X,X,X,X,X,X,X,X,X",
",X,X,X,X,X,X,X,X,X,X,X,X,X,X,X,X,X,X,X,XX X # # # # # X O & ..3.<.<.<.<.2.y     ,X,X,X,X,X,X,X,X,X,X,X,X,X,X,X,X,X,X,X",
",X,X,X,X,X,X,X,X,X,X,X,X,X,X,X,X,X,X,X,X                  + <.8.8.8.7.8.8.~     ,X,X,X,X,X,X,X,X,X,X,X,X,X,X,X,X,X,X,X",
",X,X,X,X,X,X,X,X,X,X,X,X,X,X,X,X,X,X,X,X,X              ,X+ t d [ >.>.>.>.f - - .   ,X,X,X,X,X,X,X,X,X,X,X,X,X,X,X,X,X",
",X,X,X,X,X,X,X,X,X,X,X,X,X,X,X,X,X,X,X,X,X,X,X,X,X,X,X,X,X,X    ; h h h h u s r       ,X,X,X,X,X,X,X,X,X,X,X,X,X,X,X,X",
",X,X,X,X,X,X,X,X,X,X,X,X,X,X,X,X,X,X,X,X,X,X,X,X,X,X,X,X,X,X    ; j p p p i r ; .   ,X,X,X,X,X,X,X,X,X,X,X,X,X,X,X,X,X",
",X,X,X,X,X,X,X,X,X,X,X,X,X,X,X,X,X,X,X,X,X,X,X,X,X,X,X,X,X,X,X,X. @ . . @ . . . ,X,X,X,X,X,X,X,X,X,X,X,X,X,X,X,X,X,X,X",
",X,X,X,X,X,X,X,X,X,X,X,X,X,X,X,X,X,X,X,X,X,X,X,X,X,X,X,X,X,X,X,X                ,X,X,X,X,X,X,X,X,X,X,X,X,X,X,X,X,X,X,X",
",X,X,X,X,X,X,X,X,X,X,X,X,X,X,X,X,X,X,X,X,X,X,X,X,X,X,X,X,X,X,X,X,X            ,X,X,X,X,X,X,X,X,X,X,X,X,X,X,X,X,X,X,X,X",
",X,X,X,X,X,X,X,X,X,X,X,X,X,X,X,X,X,X,X,X,X,X,X,X,X,X,X,X,X,X,X,X,X,X,X,X,X,X,X,X,X,X,X,X,X,X,X,X,X,X,X,X,X,X,X,X,X,X,X",
",X,X,X,X,X,X,X,X,X,X,X,X,X,X,X,X,X,X,X,X,X,X,X,X,X,X,X,X,X,X,X,X,X,X,X,X,X,X,X,X,X,X,X,X,X,X,X,X,X,X,X,X,X,X,X,X,X,X,X",
",X,X,X,X,X,X,X,X,X,X,X,X,X,X,X,X,X,X,X,X,X,X,X,X,X,X,X,X,X,X,X,X,X,X,X,X,X,X,X,X,X,X,X,X,X,X,X,X,X,X,X,X,X,X,X,X,X,X,X"
};
