/* XPM */
static char *result[] = {
/* columns rows colors chars-per-pixel */
"57 63 206 2 ",
"   c #000101",
".  c #0A0504",
"X  c #030C04",
"o  c #0A0907",
"O  c #1A0E08",
"+  c #140C07",
"@  c #031204",
"#  c #041D0A",
"$  c #041907",
"%  c #1D110B",
"&  c #181703",
"*  c #21120D",
"=  c #341D0F",
"-  c #261611",
";  c #331D14",
":  c #062107",
">  c #062A0C",
",  c #082B09",
"<  c #072209",
"1  c #0A310A",
"2  c #0A3D0C",
"3  c #073B0C",
"4  c #062F10",
"5  c #083D15",
"6  c #083813",
"7  c #172D0E",
"8  c #202001",
"9  c #2F2216",
"0  c #3A2111",
"q  c #362317",
"w  c #3D3914",
"e  c #333A0E",
"r  c #121E2A",
"t  c #0F1C29",
"y  c #0E3622",
"u  c #1A2A3B",
"i  c #14212F",
"p  c #323033",
"a  c #432518",
"s  c #5A331B",
"d  c #64391C",
"f  c #6E3E1E",
"g  c #703E1E",
"h  c #4D2B21",
"j  c #523D21",
"k  c #443131",
"l  c #673C22",
"z  c #763F20",
"x  c #0D420D",
"c  c #10470F",
"v  c #15460F",
"b  c #0D4B12",
"n  c #0C4E1A",
"m  c #0C4411",
"M  c #124C10",
"N  c #174A16",
"B  c #0E5416",
"V  c #0E5E1C",
"C  c #0A511C",
"Z  c #145D1C",
"A  c #185713",
"S  c #25550C",
"D  c #2A4112",
"F  c #215315",
"G  c #334214",
"H  c #0F651E",
"J  c #1C6A1C",
"K  c #236A18",
"L  c #2B7B1D",
"P  c #28731B",
"I  c #0E6C24",
"U  c #0D6622",
"Y  c #0F7326",
"T  c #0E7B29",
"R  c #107526",
"E  c #107C29",
"W  c #1B7629",
"Q  c #126B23",
"!  c #227E28",
"~  c #327E20",
"^  c #4B4B01",
"/  c #59401B",
"(  c #73401F",
")  c #68471C",
"_  c #49720A",
"`  c #527709",
"'  c #5C6402",
"]  c #676A02",
"[  c #7C6F09",
"{  c #686419",
"}  c #4E5623",
"|  c #545A25",
" . c #574939",
".. c #744220",
"X. c #784623",
"o. c #7C4A26",
"O. c #714E26",
"+. c #6A5422",
"@. c #655826",
"#. c #674429",
"$. c #636B35",
"%. c #20374E",
"&. c #325375",
"*. c #395A7A",
"=. c #314859",
"-. c #514949",
";. c #544445",
":. c #675847",
">. c #5A755F",
",. c #6B7648",
"<. c #43617F",
"1. c #696D71",
"2. c #84561C",
"3. c #804F2C",
"4. c #8B5D31",
"5. c #845628",
"6. c #8D603E",
"7. c #936C39",
"8. c #976A37",
"9. c #9D733C",
"0. c #92602F",
"q. c #A77839",
"w. c #966A46",
"e. c #A47A42",
"r. c #A87F47",
"t. c #38811B",
"y. c #0F802B",
"u. c #14802A",
"i. c #1B8529",
"p. c #268D29",
"a. c #298D27",
"s. c #378A23",
"d. c #328623",
"f. c #2B9329",
"g. c #389324",
"h. c #3C9B26",
"j. c #319629",
"k. c #3A9E29",
"l. c #3EA129",
"z. c #559D1C",
"x. c #7F9D08",
"c. c #5FA71C",
"v. c #439F29",
"b. c #4C9B25",
"n. c #41A429",
"m. c #44AA2B",
"M. c #5EB223",
"N. c #58A92C",
"B. c #6FB920",
"V. c #788455",
"C. c #828200",
"Z. c #818902",
"A. c #859F07",
"S. c #B39713",
"D. c #89A407",
"F. c #97B006",
"G. c #A5B905",
"H. c #B8BA01",
"J. c #ABA70C",
"K. c #C5B40F",
"L. c #CDB624",
"P. c #D1BD20",
"I. c #C9AF26",
"U. c #BCCC04",
"Y. c #C5C400",
"T. c #DFD208",
"R. c #C3C01B",
"E. c #DFE000",
"W. c #E7E704",
"Q. c #EDF305",
"!. c #F2F903",
"~. c #FEFF00",
"^. c #FAF509",
"/. c #E4E611",
"(. c #EACD2E",
"). c #AD855B",
"_. c #B58F5B",
"`. c #A98149",
"'. c #869464",
"]. c #BA9469",
"[. c #AE8E6B",
"{. c #CA9749",
"}. c #DBAD54",
"|. c #D4A948",
" X c #E3B54B",
".X c #E2B945",
"XX c #E1AE55",
"oX c #E5B155",
"OX c #C3A06C",
"+X c #C7A471",
"@X c #496785",
"#X c #838183",
"$X c #CFAD83",
"%X c #D0AE83",
"&X c #D9B78E",
"*X c #DFBD92",
"=X c #A2C2AA",
"-X c #B5D9BD",
";X c #E4C59B",
":X c #FEE5BC",
">X c #C2C9D2",
",X c #FFEAC1",
"<X c #D8DFE6",
"1X c white",
"2X c #F1EFF1",
"3X c None",
/* pixels */
"3X3X3X3X3X3X3X3X3X3X3X3X3X3X3X3X3X3X3X3X3X3X3X3X3X3X3X3X3X3X3X3X3X3X3X3X3X3X3X3X3X3X3X3X3X3X3X3X3X3X3X3X3X3X3X3X3X",
"3X3X3X3X3X3X3X3X3X3X3X3X3X3X3X3X3X3X3X3X3X3X3X3X3X3X3X3X3X3X3X3X3X3X3X3X3X3X3X3X3X3X3X3X3X3X3X3X3X3X3X3X3X3X3X3X3X",
"3X3X3X3X3X3X3X3X3X3X3X3X3X3X3X3X3X3X3X3X3X3X3X3X3X3X3X3X3X3X3X3X3X3X3X3X3X3X3X3X3X3X3X3X3X3X3X3X3X3X3X3X3X3X3X3X3X",
"3X3X3X3X3X3X3X3X3X3X3X3X3X3X3X3X3X3X3X3X3X3X3X3X3X3X3X3X3X3X3X3X3X3X3X3X3X3X3X3X3X3X3X3X3X3X3X3X3X3X3X3X3X3X3X3X3X",
"3X3X3X3X3X3X3X3X3X3X3X3X3X3X3X3X3X3X3X3X3X3X3X..X.9.e.e.e.e.e.e.4.g g 3X3X3X3X3X3X3X3X3X3X3X3X3X3X3X3X3X3X3X3X3X3X",
"3X3X3X3X3X3X3X3X3X3X3X3X3X3X3X3X3X3X3X3X3X3X3Xl X.9.e.e.e.e.e.e.4.d g 3X3X3X3X3X3X3X3X3X3X3X3X3X3X3X3X3X3X3X3X3X3X",
"3X3X3X3X3X3X3X3X3X3X3X3X3X3X3X3X3X3X3X3X3X3XO.q.q.L.L.L.L.L.L.L.I.S.S.|.3X3X3X3X3X3X3X3X3X3X3X3X3X3X3X3X3X3X3X3X3X",
"3X3X3X3X3X3X3X3X3X3X3X3X3X3X3X3X3X3X3X3X    O.oX X^.~.~.~.~.~.~.~.~.^. XXXq.l ..3X3X3X3X3X3X3X3X3X3X3X3X3X3X3X3X3X",
"3X3X3X3X3X3X3X3X3X3X3X3X3X3X3X3X3X3X3X3Xo X @.}.|.Q.!.!.!.!.!.!.!.!.Q..X X`.X.X.3X3X3X3X3X3X3X3X3X3X3X3X3X3X3X3X3X",
"3X3X3X3X3X3X3X3X3X3X3X3X3X3X3X3X3X3X  @ ~ s.v.N.N.M.M.M.M.M.M.M.M.M.B./.!.(.{.{.o...3X3X3X3X3X3X3X3X3X3X3X3X3X3X3X",
"3X3X3X3X3X3X3X3X3X3X3X3X3X3X3X3X3X3X  X g.m.n.n.m.l.l.l.l.l.l.l.l.l.N.Q.~.(.oX}.o.g 3X3X3X3X3X3X3X3X3X3X3X3X3X3X3X",
"3X3X3X3X3X3X3X3X3X3X3X3X3X3X3X3X3X7 D N L L L L ~ L ~ L L L L d.L d.t.F.F.K.(.(.q.9.0.3X3X3X3X3X3X3X3X3X3X3X3X3X3X",
"3X3X3X3X3X3X3X3X3X3X3X3X3X3X3X    F m.h.M x 2 x 2 x x x x x x x x x x x 3 A.~.^..XXXq.g ( 3X3X3X3X3X3X3X3X3X3X3X3X",
"3X3X3X3X3X3X3X3X3X3X3X3X3X3X3XX X A n.g.A x c c M c c c b c x m c c x x 3 x.~.Q..X Xq.z X.3X3X3X3X3X3X3X3X3X3X3X3X",
"3X3X3X3X3X3X3X3X3X3X3X3X3X  X V H Z N A s.g.g.g.g.g.g.g.g.g.g.g.g.g.s.M x K s.b./.^.I.9.9.3X3X3X3X3X3X3X3X3X3X3X3X",
"3X3X3X3X3X3X3X3X3X3X3X3X    X Y y.Z 2 M h.n.n.n.n.n.n.n.n.n.n.m.n.n.h.M x V T a.Q.~.P.e.e.3X3X3X3X3X3X3X3X3X3X3X3X",
"3X3X3X3X3X3X3X3X3X3X3X3X    X B H J K K h.n.n.n.n.n.n.n.n.n.n.n.k.f.a.M x B H K F.G.J.e.e.3X3X3X3X3X3X3X3X3X3X3X3X",
"3X3X3X3X3X3X3X3X3X3X3X3X3X  X 2 x P m.l.n.n.n.n.n.n.n.n.n.n.n.n.a.E R b x x c x 5 x 3X3X3X3X3X3X3X3X3X3X3X3X3X3X3X",
"3X3X3X3X3X3X3X3X3X3X3X3Xo   X 1 x P l.l.n.n.n.n.n.n.n.n.n.n.l.l.a.E T m 2 x x x x x N 3X3X3X3X3X3X3X3X3X3X3X3X3X3X",
"3X3X3X3X3X3X3X3Xe.`.$X&X,.1 1 X X 1 A A h.n.n.n.l.n.n.n.n.h.i.i.E E I $ X , x x x 5 ,.&X%X`.e.3X3X3X3X3X3X3X3X3X3X",
"3X3X3X3X3X3X3X3Xq.`.$X&X,.x 2 X   : x M h.n.n.n.n.n.n.n.n.l.E E T E Y X   # x x x x V.&X+X`.e.3X3X3X3X3X3X3X3X3X3X",
"3X3X3X3X3X3X3X).OX+X;X;XV.x 2 X   , B Z h.n.n.n.n.j.j.j.j.j.E E U C n 4 > m B B x 3 V.;X;X+XOX_.3X3X3X3X3X3X3X3X3X",
"3X3X3X3X3X....].,X:X:X,X'.2 1 X   5 E u.l.l.n.n.h.E E E E E E E 5   X I E E E R b x '.:X:X:X,X].f ..3X3X3X3X3X3X3X",
"3X3X3X3X3X..f [.:X:X:X:X'.2 2 X   5 E u.l.l.n.l.k.i.E E R E E E 5   X I E E E R b 3 '.:X:X:X:X[.g ..3X3X3X3X3X3X3X",
"3X3X3X3X3X3X3X6.w.w._.].$.x 2     5 E E i.i.i.i.i.E E H b b < # , 1 2 Y E H M M x x $.]._.w.w.6.3X3X3X3X3X3X3X3X3X",
"3X3X3X3X3X3X3X( f X.9.q.| x 3 X   5 E E E T R T E E T H x 2     : x c Y E H 2 c x x | e.q...f g 3X3X3X3X3X3X3X3X3X",
"3X3X3X3X3X3X3X3X..X.8.8.@.D e X   5 E E E E E E E I Q b , , $ @ 1 x c H I B x 2 D D @.8.7.....3X3X3X3X3X3X3X3X3X3X",
"3X3X3X3X3X3X3X3X3X3X..( ( ( d X   5 E E T E E E R x x :   X 2 x x x x x x x x v ) ( ......3X3X3X3X3X3X3X3X3X3X3X3X",
"3X3X3X3X3X3X3X3X3X3X..( ( ( f .   5 E E E E R E R c x :   X 2 2 x x x x x x v v ) ( ( ( ..3X3X3X3X3X3X3X3X3X3X3X3X",
"3X3X3X3X3X3X3X3X3X3X* O [ T.K.&   > B B B B 2 # # @ @ : 1 1 2 c x x x x x G s ) K.T.[ % % 3X3X3X3X3X3X3X3X3X3X3X3X",
"3X3X3X3X3X3X3X3X3X3X    Z.~.W.&   # x x x x #         # x c c 2 x x x 2 x G g 2.!.~.Z.    3X3X3X3X3X3X3X3X3X3X3X3X",
"3X3X3X3X3X3X3X3X3X3X    ] H.J.w 9 7 1 , 1 1 : @ @ @ @ , x x x x S ` ` ` ` { 3.5.H.K.]     3X3X3X3X3X3X3X3X3X3X3X3X",
"3X3X3X3X3X3X3X3X3X3X3X3XX   + 7.q./         : x x x c 2 x x x 3 D.~.~.!.~.P.e.7.+ X   3X3X3X3X3X3X3X3X3X3X3X3X3X3X",
"3X3X3X3X3X3X3X3X3X3X3X3X3X  + 7.`.j         < c x x c x x x x 2 D.~.~.~.~.P.e.7.+   3X3X3X3X3X3X3X3X3X3X3X3X3X3X3X",
"3X3X3X3X3X3X3X3X3X3X3X3X3X3X3X9 9 %         ' U.G.S 2 x x S G.U.Z.^ ^ ^ ^ w 9 9 3X3X3X3X3X3X3X3X3X3X3X3X3X3X3X3X3X",
"3X3X3X3X3X3X3X3X3X3X3X3X3X3X3XX             C.~.Q.S 2 2 3 S Q.~.2.              3X3X3X3X3X3X3X3X3X3X3X3X3X3X3X3X3X",
"3X3X3X3X3X3X3X3X3X3X3X3X3X3X3X# # @ @ @ @ X ] Y.H.` _ _ _ ` H.Y.` $ @ @ @ @ # # 3X3X3X3X3X3X3X3X3X3X3X3X3X3X3X3X3X",
"3X3X3X3X3X3X3X3X3X3X3X3X3X  X I T V x x x x <   8 T.~.!.~.T.& X , c x x x V T I X   3X3X3X3X3X3X3X3X3X3X3X3X3X3X3X",
"3X3X3X3X3X3X3X3X3X3X3X3X3X  X I T V x x x x <   8 E.~.~.~.W.&   : x x x x V E I X   3X3X3X3X3X3X3X3X3X3X3X3X3X3X3X",
"3X3X3X3X3X3X3X3X        * = p =X-X>.@ < V I V C V c.c.c.c.z.Z C Z H H $ @ >.-X=X=.%.i         3X3X3X3X3X3X3X3X3X3X",
"3X3X3X3X3X3X3X          - h  .2X1X#X  X I E E u.T T Y T Y T E E T y.I X   #X1X2X@X&.u           3X3X3X3X3X3X3X3X3X",
"3X3X3X3X3X3X3X+ O O O O ; k ;.>X<X1.  X Y E E E T T T E T E E E E T I @   1.<X>X@X&.u + O O O + 3X3X3X3X3X3X3X3X3X",
"3X3X3X3X3X    0 z f f g ;.&.&.&.*.u   X I T E E T E E E T T R E E E I X   u *.*.&.&.-.f g g g 0     3X3X3X3X3X3X3X",
"3X3X3X3X3X    0 ......( ;.&.&.&.&.u   X I T T T T T T T T T T W T T I X   u &.&.&.&.-.f ..g X.0     3X3X3X3X3X3X3X",
"3X3X3X3X3X    0 ..o.).[.:.r r r r y n n } | } } } } } } | | | | } } } n C y r r r r :.[.).o...q     3X3X3X3X3X3X3X",
"3X3X3X3X3X    0 ..o.$X*X:.        5 y.W l z z X...z z z g g g g ..z #.W T 5         :.;X$Xo.X.0     3X3X3X3X3X3X3X",
"3X3X3X3X3X    = j l [.[. .    $ @ n i.! @.+.+.+.+.+.+.+.+.+.+.+.+.+.@.a.i.n @ @      .[.[.l d =     3X3X3X3X3X3X3X",
"3X3X3X3X3X3X3X  . . o o .   X U Y p.n.l.v.v.v.v.v.v.v.v.v.v.v.v.v.v.v.h.l.p.T I X     o . .     3X3X3X3X3X3X3X3X3X",
"3X3X3X3X3X3X3X              X Y T f.n.n.n.n.n.n.n.n.n.n.n.n.n.v.n.n.n.n.n.f.E Y X               3X3X3X3X3X3X3X3X3X",
"3X3X3X3X3X3X3X3X3X3X3X3X3X3X3X4 4 Z p.p.l.n.n.n.n.n.n.n.n.n.n.n.n.n.n.a.p.Z 4 > X     3X3X3X3X3X3X3X3X3X3X3X3X3X3X",
"3X3X3X3X3X3X3X3X3X3X3X3X3X3X3X    5 T u.l.n.n.n.m.n.n.n.n.n.n.m.n.n.l.E E 5         3X3X3X3X3X3X3X3X3X3X3X3X3X3X3X",
"3X3X3X3X3X3X3X3X3X3X3X3X3X3X3X    6 U Q d.s.s.s.s.s.s.s.s.s.s.s.s.s.d.Q U 6 o .       3X3X3X3X3X3X3X3X3X3X3X3X3X3X",
"3X3X3X3X3X3X3X3X3X3X3X3X3X          X X X X X X X X X X X X X X X X o X X - h q .     3X3X3X3X3X3X3X3X3X3X3X3X3X3X",
"3X3X3X3X3X3X3X3X3X3X3X3X                      .                           - h a o     3X3X3X3X3X3X3X3X3X3X3X3X3X3X",
"3X3X3X3X3X3X3X3X3X3X3X3X    . - - 0 a a a a %     3X3X3X3X3X3X3X          o * * 3X3X3X3X3X3X3X3X3X3X3X3X3X3X3X3X3X",
"3X3X3X3X3X3X3X3X3X3X3X3X    . a h l ( ( ( X.0     3X3X3X3X3X3X3X3X              3X3X3X3X3X3X3X3X3X3X3X3X3X3X3X3X3X",
"3X3X3X3X3X3X3X3X3X3X3X3X3X  . q q h d d d d =     3X3X3X3X3X3X3X3X              3X3X3X3X3X3X3X3X3X3X3X3X3X3X3X3X3X",
"3X3X3X3X3X3X3X3X3X3X3X3X3X3X3X. . . . . . . . 3X3X3X3X3X3X3X3X3X3X3X3X3X3X3X3X3X3X3X3X3X3X3X3X3X3X3X3X3X3X3X3X3X3X",
"3X3X3X3X3X3X3X3X3X3X3X3X3X3X3X                3X3X3X3X3X3X3X3X3X3X3X3X3X3X3X3X3X3X3X3X3X3X3X3X3X3X3X3X3X3X3X3X3X3X",
"3X3X3X3X3X3X3X3X3X3X3X3X3X3X3X3X3X3X3X3X3X3X3X3X3X3X3X3X3X3X3X3X3X3X3X3X3X3X3X3X3X3X3X3X3X3X3X3X3X3X3X3X3X3X3X3X3X",
"3X3X3X3X3X3X3X3X3X3X3X3X3X3X3X3X3X3X3X3X3X3X3X3X3X3X3X3X3X3X3X3X3X3X3X3X3X3X3X3X3X3X3X3X3X3X3X3X3X3X3X3X3X3X3X3X3X",
"3X3X3X3X3X3X3X3X3X3X3X3X3X3X3X3X3X3X3X3X3X3X3X3X3X3X3X3X3X3X3X3X3X3X3X3X3X3X3X3X3X3X3X3X3X3X3X3X3X3X3X3X3X3X3X3X3X",
"3X3X3X3X3X3X3X3X3X3X3X3X3X3X3X3X3X3X3X3X3X3X3X3X3X3X3X3X3X3X3X3X3X3X3X3X3X3X3X3X3X3X3X3X3X3X3X3X3X3X3X3X3X3X3X3X3X"
};
