/* XPM */
static char *result[] = {
/* columns rows colors chars-per-pixel */
"64 64 27 1 ",
"  c #524F4D",
". c #54514F",
"X c #565554",
"o c #585756",
"O c #5A5857",
"+ c #5D5C5B",
"@ c #615F5E",
"# c #62605F",
"$ c #5F5F60",
"% c #605F60",
"& c #5F6060",
"* c #646463",
"= c #686766",
"- c #696867",
"; c #676768",
": c #686768",
"> c #6C6B6A",
", c #706F6E",
"< c #71706F",
"1 c #6F6F70",
"2 c #706F70",
"3 c #737372",
"4 c #787777",
"5 c #797877",
"6 c #787778",
"7 c #797878",
"8 c None",
/* pixels */
"888888888888888888888888888+;>*&+O&*+&88888888888888888888888888",
"88888888888888888888888XO--::>>>>;*&;*-+X88888888888888888888888",
"88888888888888888888*->+X=>***---11-*+*+O;>*88888888888888888888",
"888888888888888888-,233=X==**--:>1>1>=@X*>3,**888888888888888888",
"8888888888888888=,3,,>,-X$-:==*&#+#@*>-O*,23>==*8888888888888888",
"88888888888888*-=**--,,*XXO+*OoXXOOXO@*X@=>>>*O*;*88888888888888",
"8888888888888->>,*@*-@oXo$*=*==+O*;-**OOXO@-,>+O@**8888888888888",
"88888888888833,34,,=@o+***=;;=-*+++*#+*==%OO*,;;==*;*88888888888",
"8888888888&33-333-#@+**@##&**==**-;-===----*+$=-->-*>&8888888888",
"888888888X&1-333@o@@-#**+++O@#*++-=:>-=;-:*:&OO+-=;=>=X888888888",
"88888888+*o$33>OO><@**@#=-=*@+OOOOO+@=:=->==+1>*X-1>=X$*88888888",
"88888888>>*X*=.@33<-@=*-*OO*>3>>311:%XOO*-:+*337*X*-o+>3=8888888",
"8888888===>=XX*1,33,$$*&*=+=375>-><4-O-*OO*+1->77-OX+3>,38888888",
"888888=**:3-X;3>,,,>*O&:--++>374=*-,*O=@*;+X>3-,33>X#33-3>888888",
"88888%==>=>X=5>333=O$*;>===+>2354>-=#**=*;-*X*3<3>3;.-33><=88888",
"88888:@=--O+63<3>@X*==---**$=@OO@#-,*>,,>-;>-XO336-3*X<33>-88888",
"8888**O=;*+371<3@X-=#=--=+*$+++OO**+OO*>>->>-=XO>3,,3+O34<=>8888",
"8888=OO=*O>6<><@.O*#*=:*X$*:1***=4331-+O*=:=-=+XO<,33,O*<-*,*888",
"888==*->*+31-3*X**+*=-=XO-=->>*O*2>>333=X+*=*O%-O#,<33$+,**,>888",
"888*>>>-O&+-3>X*>=#@=**;*=>-=>>=*3233>>&*+*-+***=O-,>*++**-<3+88",
"88*>3>>O*:*++O+,,-*;O$*;*O>>===#+=>,>>=&=;*O==*%***%+*=*o=-,3;88",
"88:33>#X-*=-*+:->-**$*+&*O*#+OO++OXO=-=**==$&;==**O+=*@*o@,-2>88",
"88-12-O+-:>:+*---*+&;;*=*+XX**,<3,**$O*=**+***-->-#*=@**#.,,,3*8",
"8X+==@X=->-*X=*>>*o*;**=*O+***>>,>*>>*$=;=$*-O%>>>>#=++**o*-*@X8",
"8+OoXoo=;-;O@*=2>@++****O**+**=,->=;=->+**%**+X*--:*+-+@*OOOXX+8",
"8-*+=@+*;=;O>-*,*+3>*==&;==;*#*>>=----**OO++;-%+=-;-O*@@**X+**:8",
"8=+=>#*@=;=X@O@,+*3<>-O=>-*;=*++*O@==****X+>1=***=*+O*@#*=O-*=>*",
"$-*>*O***>*+=%@@o<<<>-+>---#O&;-=*OO+=;&=OO>-;>$&++==*O+-=+>**;*",
"*+;>%O-*::+-3>-,+<><>+*>=-=OO-><;=**X=#*=*O==>3@=>>33$+*=;*=*@==",
"$*3>@O-@--O13>--#3>>,.**;-*O=;--=*=-&*#*#*O*>>*+O1366&&==;+*=*>:",
"X=11O+*O-=O>,*,#=733*O>---O*;*&***:>>O*=>3O*>=#*o3773o+;-=O%-->1",
"O>->@X+*;*X3>*3@+-*=#+3<>>+==**@O*-1>O->-2*+=@@@o34>>X+**+X@:->>",
"*>--*X+&+OO>>35+O@+=*+3:>>$=>-=%O**=;+--<3*+**=+O5>=2O+*$+o+-:1=",
"*>-;%O*--=O-443O+**:=O3>>=o;3-**=**=;X-:>>+#3<4>+<*-3O*:*$@+>1=#",
"-1==*O;=;*+<741@O*-3=X*****$-;**--;*++--*-X-3>3=#--,3O*-O=OO>3=+",
";>+*=$===&#,3,>=*>>=-+$==*=O$===>1-=o=-->-O>3-<#->>33O:>@-++>>+&",
"$-**-*=;*O==>*+*O>-;1+O=+=-OX+=;;>*OO;;=:**>333+#**=*@>-*=O*1=*=",
"+:;=-O*=++*oO+***=:>>*X%***;=@XO+O+=-=--;O=>>3>X-*@OO#>:+;+--@*+",
"8;-=*X+**+;+;;==%+--+OOo==--=-=--=*@==*:$***-3*+<**>O*=-*++>@@:+",
"8+OXXXO*#+-+*;=-=X$**&*&O:-=:--->-*=+*;+*==*+=+-,>#*o*=--OXoXO*8",
"8XO#=*o*#@#-+-:>-%X-=$*;**=>>=-2->===*X+;**=+O+->**O+-;;-X@=*+X8",
"88>1,>X@**@-**-;:-+$=+****O+;*,331=*+XO*=*=;*O=->==O->-=*X->>-$8",
"88>3-,@o=#**&X*=-=>*$****==*+X+**+XOO%O*$+****->>;&*>-*=OO>13>88",
"88=1,-=o#-*#+*&=**==O*-=*#,>--#O+*=->>O*=**O--->1=X+&;=;O=>31=88",
"888><-==@@@=>>+**#*$;$$*+->3333==>2=-,;@;*&=&*-->X-3*+$$*>>>=X88",
"888-<-#-#o><3,#O;=O#==+X+333-=,*+*>>==-*O+-;*O*=O+3-13++>,=*=888",
"8888<**,#@,<3,<@X+*=--=+O*-3<34-@@*2>=&X+;-***+XX<>>33O*=#O**888",
"8888-*,4<@@3<>3-OX->>>:--@OO@*>*+=+&$*+*;>;=#>OX>3<47=+==@*;8888",
"88888->34,.*3>43,Oo-3-->3>>+=*@O.oO=+**;--==-OO-<3<5-X=;-#=+8888",
"88888*3>33= =<,,33@.*-=*-=**,-,3433,&*==--**O@,<5<3>X=---*=88888",
"888888>2>33*X-33<>3>O+;=*=+&->*-343>*O=->;O#>,,,>33O+>--*-888888",
"88888883<>3=XO>57>-3+&O+*-+*33-=-463>+;;$$#@-<3,3>XX=1=*-+888888",
"8888888=6>*o+*.=76>:+--*OXX*>333,>73-OO+===+-333-X++o*->*8888888",
"88888888*;o+13=X&33&==->=**+O+OXOX+***;-*+&=+<3# *73*X=;88888888",
"888888888 *-=--=+O$+=*----:1-==$O@+*+@@O+*@=@+Oo-37>:*X888888888",
"8888888888&>=--==*$O===>--;:-:;;+=**@@#*+***@##333>>7-8888888888",
"88888888888*;*---=>*OO%=-=@#@O+*%:====****Oo*>,33>>3;88888888888",
"8888888888888;=%O+>,-+XXOO==-=*++--;;=*OoXO==#=<<>3*888888888888",
"88888888888888*;*O*>>--*X++OO+$OXO+$+OXX*->-=**=-=88888888888888",
"8888888888888888===:3,>-o;>=%OO++@*=-;$X=,,2,,<>*888888888888888",
"88888888888888888$==>11=X&;>>>1-=;=*===X*,,31>=88888888888888888",
"8888888888888888888X=1:$O&+=-33---=$*-;XO,>-%8888888888888888888",
"8888888888888888888888*X+-==+*-:>>1;---+X+8888888888888888888888",
"88888888888888888888888888$*%%#=>>:;;$$8888888888888888888888888"
};
