/* XPM */
static char *result[] = {
/* columns rows colors chars-per-pixel */
"41 64 70 1 ",
"  c #33312F",
". c #3D372A",
"X c #2D2E31",
"o c #373737",
"O c #3C3A35",
"+ c #363738",
"@ c #4A3D25",
"# c #423929",
"$ c #443E31",
"% c #54421E",
"& c #5B471E",
"* c #5E491D",
"= c #704F0C",
"- c #73510B",
"; c #7C5508",
": c #634B1B",
"> c #6E5016",
", c #6D521D",
"< c #765614",
"1 c #795712",
"2 c #7D5912",
"3 c #76581A",
"4 c #594725",
"5 c #594825",
"6 c #59503D",
"7 c #6C5425",
"8 c #63522F",
"9 c #745922",
"0 c #645535",
"q c #4F4F4F",
"w c #565044",
"e c #53514E",
"r c #4E4F50",
"t c #525252",
"y c #595753",
"u c #5A5856",
"i c #5C5C5C",
"p c #605F5C",
"a c #6F6043",
"s c #636363",
"d c #686662",
"f c #6C6C6C",
"g c #757066",
"h c #737373",
"j c #7C7C7C",
"k c #855A04",
"l c #8B5D01",
"z c #845C0D",
"x c #805A10",
"c c #8F6103",
"v c #8B600B",
"b c #966401",
"n c #986601",
"m c #9D6A03",
"M c #916408",
"N c #A36D01",
"B c #838383",
"V c #8D8D8D",
"C c #939393",
"Z c #979798",
"A c #9B9B9B",
"S c #A4A4A4",
"D c #AAAAAA",
"F c #B4B4B4",
"G c #BCBCBC",
"H c #C4C4C4",
"J c #CBCBCB",
"K c #D5D5D5",
"L c #D8D8D8",
"P c #5EB054",
/* pixels */
"PPPPPPPPPPPPPPPtrtttttttttPPPPPPPPPPPPPPP",
"PPPPPPPPPPPPPqiBihVVVVVhiBiqPPPPPPPPPPPPP",
"PPPPPPPPPPPqhBASpBDDDHFBsABBfqPPPPPPPPPPP",
"PPPPPPPPPPfjBDLDpBFFDLGBsADCjffPPPPPPPPPP",
"PPPPPPPqyfSJVBGZijDGAGDjiCZfBDDftrPPPPPPP",
"PPPPPPtrjHDDSBiyetuuypueeuyBZFJSftyPPPPPP",
"PPPPPtBCBjADBiw<;2;<;2<<<<wiBDDfBDStPPPPP",
"PPPPuBGGABhha,3bkcnnnnbblb3,ahhBZFFByPPPP",
"PPPihBGSBj08xbbNlbNNNNNnkNbbx80jBCAVVdPPP",
"PPdBAfBg66kknNNmlbNNNNNnlNNNbkk0wgBfHBiPP",
"PyCGSZd7kkmlbNNNlnNNNNNnlNNNblmlk7dASAjtP",
"tBBsip9cmNNlbNNNlnNNNNNnkNNNnlNmNM9piijVt",
"tVZBBt<nNNNlbNNNlbNNNNNblNNNblNNNb<yjVAVt",
"tVGGAu<nNNNlbNNNlbNNNNNnlNNNblNNNb<uASFAt",
"rjFHZu<bNNNlbNNNlnNNNNNnkNNNblNNNb<uDDGDt",
"ryBACy<nNNNkbNNNlnNNNNNnlNNNblNNNb<iGDAVr",
"rBBiyt<bNNNlbNNNkbNNNNNnlmNNblNNNb3rssiyq",
"tVZVBy<bNNNlnNNNlnNNNNNnlNNNnlNNNb<yBVVjr",
"tVGGAu<bNNNlbNNNlbNNNNNnlNNNblNNNb<yASDVt",
"tjZDBt<bNNNlbNNNlbNNNNNblNNNblNNNb3yADZjt",
"qssiie<bNNNlbNNNcnNNNNNnlmNNbcNNNc,tVAjuq",
"tDGSCu<bNNNlbNNNlnNNNNNblNNNblnmN>OeuujVr",
"tCHHAu<bNNNlbNNmlbNNNNNnlNNNb-@@@.+yVCFDt",
"tVFGAu<bNNNlbNNNlbNNNNNnlNNNn-XXXX+yAHJAt",
"tVCBjt<nNNNlbNNNlbNNNNNncmNNn;:*5@+tjFGVt",
"rBBdpe<nNNNlnNNNlbNNNNNnlmNNblNNN<$rpBCBt",
"ryZHAy<bNNNlnNNNlnNNNNNbcNNNblNNNb<yChiyq",
"tBSGHi<bNNNlMNNmlnNNNNNbcNNNblmNNn<uZAZBr",
"tVDDDu<bNNNlbNNNlbNNNNNnlmNNncNNNb<uZDDVt",
"tfBBZu<bNNNlnNNNcbNNNNNncmNNbcNNNb<uADDVt",
"tifjBy3bNNNlbNNNlbNNNNNnlmNNblNNNb<uZZVjt",
"tVHFit<bNNMkkmNNlbNNNNNnlmNNblNNNb3uVhiyq",
"eVDDCy<bNM@..:NNlnNNNNNblNNNnlNNNb<eiBAVr",
"tVDDAu<bNm2.5vNmlnNNNNNblNNNnkNNNb<yBSGDt",
"efhBAu<bNNN%<NNNlnNNNNNnlNNNblNNNb<uASFSt",
"qsfhBt<bNm2#*vNNlbNNNNNbkNNNblNNNb<tBBVjt",
"rVDVie<bN2%O#*MmlnNNNNNnlNNNblNNNb<eiiiuq",
"tVDSCu<nx%c;c<%nlbNNNNNnlNNNnlNNNb<uCSAVt",
"tVDSAu<n2#ncn2#mlnNNNNNnkNNNblNNNb<uZDDVt",
"qshhfe<nM>&4%:2mlnNNNNNnlNNNnkNNNb<iGFVsr",
"tshhft<bNm:%%<NNlbNNNNNnlNNNnlNNNb<uZCjst",
"tVDSZu<bNNNlbNNmlbNNNNNnkNNNnlNNNb<eipBVt",
"tVDDZu<bNNNlbNNNlbNNNNNnlNNNblNNNb<uZSDVr",
"tFGSZu<bNNmcbNNNlbNNNNNblNNNblNNNb<uASGFt",
"tGSffe<bNNNlnNNmcnNNNNNnlNNNncNNNn<tfCFAt",
"eBVhhe<nNNNlnNNNlnNNNNNnkNNNblNNNz5thjjft",
"qiVSAu<bNNmcbNNNlbNNNNNnlNNNbkzzz*oyZjsir",
"tVDDAu<bNNNcbNNmlbNNNNNnlNNNn=    oyZSDCt",
"tVSFHp<bNNNlbNNNlbNNNNNnlNNNn-   o+yZSGFt",
"risVJp<bNNNlbNNNlbNNNNNblNNNbkzzz&+tsCHFt",
"tfjBVt<bNNNlbNNNlnNNNNNnlNNNblNNNz4tjjBjt",
"tCDCde<bNNNlbNNNlnNNNNNnlNNNblNNNb<uZjfsr",
"rVFDZu<bNNNlbNNNlbNNNNNblNNNnlNNNb<uZDDVt",
"rVGHZu<bNNNlbNNNlbNNNNNblmNNnlNNNb<uZDSVr",
"qisfie<bNNNlbNNNlnNNNNNnlmNNblNNNb<uAJAuq",
"ehBBjy<bNNNlbNNmlnNNNNNblNNNblNNNb<efBBht",
"rVDDAu<bNNNlbNNNlbNNNNNnlNNNnlNNNb<efhZSt",
"tBASAy<nNNNlbNNNlbNNNNNblNNNnlNNNb<uADHDt",
"rijSCy<bNNNlbNNNlnNNNNNnkNNNblNNNb<uCJHVt",
"tSCpir<nNNNlbNNNlbNNNNNnlNNNblNNNn<eiGHVt",
"tASBBt<lcclkkccclllbllblklblkkcccl<yBBhsq",
"tSFDAu07777777777777777777777777770uABBjt",
"tASVBuqreqrrrreqrrqqeqrrqqqqrrrrqqrtBCSAt",
"rtttrqqqqqeqqqqqrrrqqqrrrqqqrqeqqqerttttq"
};
