/* XPM */
static char *result[] = {
/* columns rows colors chars-per-pixel */
"49 64 71 1 ",
"  c #33322E",
". c #3C372C",
"X c #3E382A",
"o c #3A3A39",
"O c #453B26",
"+ c #4C3F25",
"@ c #413929",
"# c #5B4517",
"$ c #5E4719",
"% c #7C580F",
"& c #6B4F17",
"* c #644C1A",
"= c #694E19",
"- c #6E5116",
"; c #6F541E",
": c #755414",
"> c #7B5711",
", c #7C5811",
"< c #73551A",
"1 c #76581D",
"2 c #544322",
"3 c #594F3C",
"4 c #5C523C",
"5 c #644E22",
"6 c #6C5425",
"7 c #67542D",
"8 c #695429",
"9 c #725721",
"0 c #765A21",
"q c #4F4F4F",
"w c #504F4D",
"e c #555047",
"r c #585142",
"t c #52504A",
"y c #59544B",
"u c #4E4F51",
"i c #545453",
"p c #585756",
"a c #595857",
"s c #5C5C5C",
"d c #605F5E",
"f c #60605F",
"g c #636363",
"h c #6C6C6C",
"j c #6E6F70",
"k c #737373",
"l c #7C7C7C",
"z c #855A01",
"x c #8C5E01",
"c c #885E0C",
"v c #805B10",
"b c #8E6005",
"n c #8C610A",
"m c #946301",
"M c #996601",
"N c #9D6901",
"B c #916409",
"V c #A36D01",
"C c #858075",
"Z c #848484",
"A c #8C8C8C",
"S c #939393",
"D c #9B9B9B",
"F c #A5A5A5",
"G c #A9A9A9",
"H c #B3B3B3",
"J c #BABABA",
"K c #C3C3C3",
"L c gray79",
"P c gray84",
"I c #5EB054",
/* pixels */
"IIIIIIIIIIIIIiiiapiaiiiIIIIIIIIIIIIIIIIIIIIIIIIII",
"IIIIIIIIIIIiiZkhSSDSSflkiiIIIIIIIIIIIIIIIIIIIIIII",
"IIIIIIIIIqiZGHkkGGGLGgADAliuIIIIIIIIIIIIIIIIIIIII",
"IIIIIIIqsAFlKKkkHKHPGgAGAlAliqIIIIIIIIIIIIIIIIIII",
"IIIIIIqgFGJAZlsslZlAkdhklAHJliuIIIIIIIIIIIIIIIIII",
"IIIIIgkZDGFZsisiiiiiaddidSHHZlSgIIIIIIIIIIIIIIIII",
"IIIIhSJDkZZhhggsddfffggghjZllGKAsIIIIIIzxmmzzIIII",
"IIIglGHAZgslZhgggfgfffdlAZddZADSZkIr8zxzNVVmzzIII",
"IIhSZlZfhAgggggsddghhjhdkZlgggZgSC46zmNxNVVmzxxzI",
"IdGGSlhAZZggggfggdhSSSkdhhggAAgwy0zzxVNxNVVxxVNzz",
"iSkdshAZhghZhfgghghhjjhgllgghAAs6mVmbVNxVVVmmVNzz",
"iSFDjahhAAAShZDDDSSSSDSklSAAZhgp<MVMxVNxNVVxmVMzz",
"iSLJlglhSSSSkhjjhjjhjkkgkSSSAgld<MVmxVNxNVVxmVNzz",
"igFGkhZhSSSkglSSSSSSSASkhhlSAhAd<MVMbVNxNVVmmVNzz",
"ilkhshZgkkklhAGFGGGGGFGDldgkjgAd<MVMxVNxNVVmmVNzz",
"pSAlgghglkgZkkZllllZlllljhkgkgja<MVMbVNxNVVxmVMzz",
"pSJHldklSShZkkllllllllCZjlZhAlja<MVMxVVxNVVmmVNzz",
"ilFSgjSSSAglhAGGGGGGGGGGZhkhSSSd<MVMxVMxNVVxmVNzz",
"ikhgahDSZZkgglSSSSSSSSSSlsfgZSSd5xVMxVMxNVVmmVMzz",
"aHJGkgAZhjSlhjjjjjhhhjhhjjggjZAso*NMxVVxNVVbmVNzz",
"iDLHlpgjSAhSFFDFFFDFFFDFFZkSAggio *cxVVxNVVxmVNzz",
"pSGFkhlhSAhSFDFFDDFFDFFDFZjSAhZdo .*xVVzNVVmmVNzz",
"iSkfijZhAhghhhhjhjhhjjhhjhgkAgZfo&bxxVVxVVVxmVNzz",
"ufFFhhZfghSSSSSSSSDSSSSSSSAghgAf5bVMxVNzNVVmxVMzz",
"ilHLZshhljDGFGFFGGFGGFGGGGShlgha1MVmxVVxNVVmmVNzz",
"pDGHZflZAglllklllllklkklklkhSCla<MVMxVNxNVVxmVNzz",
"ujlSlhSSAhllZZZZZZZZZZZZZllhSSSd<mVMxVVzNVVxmVNzz",
"ijZZgjSSlhFGGGFGFFGGFGGGGGShlSSd<MVMxVVxVVVmxVNzz",
"pSKSpgZlhgZSAAAAAAAAAAAAAAZgkZZa<MVmxVVzNVVmmVMzz",
"pSGGkaghAgjkkjkkkjkjkkkjkkhjAfgp<MVMxVVxNVVxxVNzz",
"pASFlhljAhDGFFFGFGFGFGFGFGAjAhZd<mVMxVNzNVVmmVNzz",
"usdZkjZhZjSDDDDDDDDDDDDDDDAjZgAd<MVMxVVxNVVmmVMz%",
"iSDkijlghghhhjhhhhhhhhhhhhhhggZs<mVMxVVzNVNxbVNzz",
"iSGDjsgjAhSSDSDSDDSDSDSDDSDAgfhi<MVMxVVxNV*@&VNzz",
"pSFGlgZZkhFGFGGGFFGGGFFGFFGDhZZs<mVMxVNzNVn2.<Nzz",
"ighhshSAgdkkkkkllkkklkkllkkjhSSd<MVMxVVxVVV*+cMzz",
"illZghSZhCAZZACZZZZAZAZZZZAlhASd<MVMxVVzNV:@*VNzz",
"pSGGldlkjFGGFGGGGFGFFGGFGFGDhlks<mVMxVVxM>=**vNzz",
"pFGGldhdhFGFGFGGGGGFGFGFGFFDgdji<MVMxVNxM+>M#2Mzz",
"aKFAghZggAASASAAAASAASASASAZggAg<MVMxVNxN=&:$:Nzz",
"pFZgajZsgkjhjjjkkjhjjhjkhjjhjhAs5xVMxVVzVV=O-VNzz",
"ufAFkhZghDFFFFDFFFFFFFFFFFFFDhZso&NMxVNxNVVxmVNzz",
"pAGGlilAkFFFFFFFFFFGGFFFFFFFDhgao =BxVVxVVVxxVNzz",
"iSFKAhlhhDFFFFFFFFFDFDFFFFFFDhCso .$xVNxNVVxmVMzz",
"udfHAjZffhjhhhhhhhhhhhjjjjhhhgAfo*ncxVVzNVVmmVNzz",
"iZAZfjZjSSSSSSSSSSSSSASSASSSAhAf5xVMxVNxNVVmmVMzz",
"pSFAgdjkFFFGFGFGFGGGFGFFFGGGDhha<MVMxVNxNVVxxVMzz",
"iDKHlidkFGFGFFGFFFFFGFGFGFFFDhsi<MVMmVVzVVVxmVVzz",
"ikSAgpjAFGGFGFGFFGFFGFFFFFGGFZgi<MVmxVNxNVVmbVNzz",
"uhjjsihAAAAAAAAAAAAAAAAAAAAAAZhi<MVMxVVxNVVbmVMzz",
"pDFGkuskjjkjkkkjhkkkkkkkkhkkkkgi<MVMxVVzNVVmmVNzz",
"iZDGlilFFFFFFFFFFFFFFFFFFFFFFFhi<mVMxVVzNVVbmVNzz",
"ugADkilFFGGFFGFGGFGGFGFFFGFFFFht<MVMxVVxNVVmmVNzz",
"aHlfaalDFDFFFDFDDFFDFDFFFDFDDDhi<MVmxVNxNVVmmVMz%",
"pFDSjughghhghgghhghgghhghhghhggi<MVMxVVxNVVxmVNzz",
"aHHGluuiiqqiiiiiqiiiiiiiiuiiiiiq<zMMxVNzNVVmbVNzz",
"ikhhsqqqwqqqqqiqqqqiqqqqqwuwuwuwr41xxVVzNVVxmVNzz",
"IIIIIIIIIIIIIIIIIIIIIIIIIIIIIIIIII4<zMNxNVVmmVNzz",
"IIIIIIIIIIIIIIIIIIIIIIIIIIIIIIIIIII48<mzNVVxmVMzz",
"IIIIIIIIIIIIIIIIIIIIIIIIIIIIIIIIIIIIuw69BmVmmVNzz",
"IIIIIIIIIIIIIIIIIIIIIIIIIIIIIIIIIIIIIiuw9<nmmVMzz",
"IIIIIIIIIIIIIIIIIIIIIIIIIIIIIIIIIIIIIIIIww6:cVmzz",
"IIIIIIIIIIIIIIIIIIIIIIIIIIIIIIIIIIIIIIIIIIww7>>>:",
"IIIIIIIIIIIIIIIIIIIIIIIIIIIIIIIIIIIIIIIIIIIIwewee"
};
