/* XPM */
static char *efa05f1ad2ab4756a90280aec1a865f4oPw8xxBjXt5ls5MW[] = {
/* columns rows colors chars-per-pixel */
"64 62 180 2 ",
"   c #5EB054",
".  c #FA4B1A",
"X  c #FA4E1B",
"o  c #FA4F1B",
"O  c #FA501B",
"+  c #FA511C",
"@  c #FA521C",
"#  c #FA531C",
"$  c #FA541D",
"%  c #FA551D",
"&  c #FA561D",
"*  c #FA571E",
"=  c #FA581E",
"-  c #FA591E",
";  c #FA5A1F",
":  c #FA5B1F",
">  c #FA5C1F",
",  c #FA5D1F",
"<  c #FA5E20",
"1  c #FA5F20",
"2  c #FA6020",
"3  c #FA6120",
"4  c #FA6121",
"5  c #FA6221",
"6  c #FA6321",
"7  c #FA6421",
"8  c #FA6422",
"9  c #FA6522",
"0  c #FA6722",
"q  c #FA6823",
"w  c #FA6923",
"e  c #FA6B24",
"r  c #FA6C24",
"t  c #FA6D25",
"y  c #FA6E25",
"u  c #FA6F25",
"i  c #FA7026",
"p  c #FA7226",
"a  c #FA7326",
"s  c #FA7327",
"d  c #FA7427",
"f  c #FA7527",
"g  c #FA7627",
"h  c #FA7628",
"j  c #FA7728",
"k  c #FA7928",
"l  c #FA7A29",
"z  c #FA7B29",
"x  c #FA7C29",
"c  c #FA7D2A",
"v  c #FA7E2A",
"b  c #FA7F2A",
"n  c #FA7E2B",
"m  c #FA7F2B",
"M  c #FA802B",
"N  c #FA812B",
"B  c #FA822B",
"V  c #FA832C",
"C  c #FA842C",
"Z  c #FA852C",
"A  c #FA862C",
"S  c #FA862D",
"D  c #FA882D",
"F  c #FA892D",
"G  c #FA882E",
"H  c #FA8A2E",
"J  c #FA8B2E",
"K  c #FA8A2F",
"L  c #FA8C2F",
"P  c #FA8D2F",
"I  c #FA8E2F",
"U  c #FA8F2F",
"Y  c #FA9030",
"T  c #FA9130",
"R  c #FA9231",
"E  c #FA9331",
"W  c #FA9132",
"Q  c #FA9332",
"!  c #FA9431",
"~  c #FA9432",
"^  c #FA9532",
"/  c #FA9633",
"(  c #FA9834",
")  c #FA9934",
"_  c #FA9A34",
"`  c #FA9B35",
"'  c #FA9A37",
"]  c #FA9C35",
"[  c #FA9D35",
"{  c #FA9D36",
"}  c #FA9E36",
"|  c #FA9F36",
" . c #FA9F37",
".. c #FAA137",
"X. c #FAA039",
"o. c #FAA238",
"O. c #FAA339",
"+. c #FAA03A",
"@. c #FAA539",
"#. c #FAA73A",
"$. c #FAA63C",
"%. c #FAA83A",
"&. c #FAA83B",
"*. c #FAA93B",
"=. c #FAA83C",
"-. c #FAAA3C",
";. c #FAAB3C",
":. c #FAAC3C",
">. c #FAAD3D",
",. c #FAAE3D",
"<. c #FAAF3E",
"1. c #FAB03E",
"2. c #FAB13E",
"3. c #FAB23F",
"4. c #FAB340",
"5. c #FAB440",
"6. c #FAB540",
"7. c #FAB541",
"8. c #FAB641",
"9. c #FAB741",
"0. c #FAB742",
"q. c #FAB842",
"w. c #FAB942",
"e. c #FAB943",
"r. c #FABA43",
"t. c #FABC43",
"y. c #FABC44",
"u. c #FABD44",
"i. c #FABD45",
"p. c #FABE44",
"a. c #FABE45",
"s. c #FABF45",
"d. c #FABD46",
"f. c #FAC046",
"g. c #FAC147",
"h. c #FAC248",
"j. c #FAC348",
"k. c #FAC349",
"l. c #FAC449",
"z. c #FAC64B",
"x. c #FAC74B",
"c. c #FAC84C",
"v. c #FAC94C",
"b. c #FACA4D",
"n. c #FACB4D",
"m. c #FACB4E",
"M. c #FACC4E",
"N. c #FACD4E",
"B. c #FACD4F",
"V. c #FACE4F",
"C. c #FACE50",
"Z. c #FACF50",
"A. c #FAD051",
"S. c #FAD252",
"D. c #FAD353",
"F. c #FAD453",
"G. c #FAD454",
"H. c #FAD554",
"J. c #FAD756",
"K. c #FAD856",
"L. c #FAD956",
"P. c #FAD957",
"I. c #FADA57",
"U. c #FADA58",
"Y. c #FADB58",
"T. c #FADC59",
"R. c #FADD59",
"E. c #FADE5A",
"W. c #FADF5B",
"Q. c #FAE05B",
"!. c #FAE05C",
"~. c #FAE15C",
"^. c #FAE15D",
"/. c #FAE25D",
"(. c #FAE35D",
"). c #FAE35E",
"_. c #FAE45E",
"`. c #FAE55F",
"'. c #FAE65F",
"]. c #FAE660",
/* pixels */
"                                                                                                                                ",
"                                                                                                                                ",
"                                                                                                                                ",
"                                                                                                                                ",
"                                                                                                                                ",
"                                                                                                                                ",
"                                                                                                                                ",
"                                                                                                                                ",
"                                                                                                                                ",
"                                                                                                                                ",
"                                                                                                                                ",
"                                                                                                                                ",
"                                                                                                                                ",
"                                                                                                                                ",
"                                                                                                                                ",
"                                                                                                                                ",
"                                                o         o o                                                                   ",
"                                              o o       + e *       o o                                                         ",
"                                                      u d e         o                                                           ",
"                                                    * M J :         o                                                           ",
"                                                    i J J : o                                                                   ",
"                                                  + M *.#.m * o                                                                 ",
"                                                  + m } } #.m * o                       o                                       ",
"                                                    5 M I 0.<.m * o                     o o                                     ",
"                                                      5 J 4.y.<.m * o                   o o                                     ",
"                                              o +     + M ' 0.y.<.m % o       o                                                 ",
"                                        o     + i 1     5 Z 4.t.q.:.m * o   o o                                                 ",
"                                        o     + l 9 O     5 E q.q.} I j *               + + O                                   ",
"                                              + l Z ,     * J 3.q.3.~ I l *             9 e o                                   ",
"                                              + m I 5 O   * C _ q.t.<.E M +           * e u o                                   ",
"                                            o * ' } Z :   * m E q.y.0.~ M : o       9 C i *                                     ",
"                                            O h <.q.~ ,     , J q.f.f.3.E l +       r Y i o                                     ",
"                                          O % m 3.y.~ ,     * K q.j.J.y.3.M O     9 I E i o                                     ",
"                                        o % j ~ 3.y./ 9 +   1 J q.v.R.j.0.M +     5 } *.j *                                     ",
"                                      o * j I :.f.y.o.Z : O V ' l.Q.R.y.0.M *     5 } <.E d :                                   ",
"                                      O d ~ _ 3.K.Z.q.E 9 1 K 0.R.'.~.v.3.V 1     9 } y.:.E d *                                 ",
"                                      o d :.j.v.R.~.l.;.o. .$.k.~.].].R.q.' m O   5 } f.f.<.E e                                 ",
"                                      o d <.K.'.].'.Z.Y.~.~.].].].~.].R.l.3.C , o 5 } M.K.f.#.u                                 ",
"                                      o d <.Y.].'.].'.].].].].].].].'.'.R.0._ M 3 i #.m.'.F.#.u                                 ",
"                                      o d <.K.].~.].].~.].~.'.].~.'.'.].R.m.y.} ' ;.l.D.'.J.#.u                                 ",
"                                      o d <.K.'.'.~.].'.~.].'.~.].'.~.].'.~.W.m.m.D.~.].'.J.#.u                                 ",
"                                      o d 3.D.Q.].].].].].].].].].].].].].].].].~.'.'.].'.D.#.u                                 ",
"                                      o j ..0.K.].].].].'.].].].~.'.'.~.~.].].~.].].'.'.].J.#.u                                 ",
"                                      o 9 C 3.M.~.~.'.].~.].'.~.].].].].'.].].'.'.].~.'.R.m.*.u                                 ",
"                                        O l ..q.Y.].].~.'.].~.'.].].].].].'.].].~.].'.R.M.0.} u                                 ",
"                                        O d Y <.M.~.'.'.~.].].].~.'.~.'.].~.].~.].].R.m.3.} M 1                                 ",
"                                        o 9 C 3.y.Z.W.'.].].].].].'.~.].].~.].'.'.W.m.t.;.M , o                                 ",
"                                          O j } #.0.m.D.~.].~.'.].].].].].'.].].R.m.y.0.} i o                                   ",
"                                          o 5 V I ..0.y.M.~.].'.'.'.~.'.'.'.'.R.m.t.3.' m 1 o                                   ",
"                                            o 5 u M } #.q.Y.].'.~.].].'.'.Q.Z.v.3...} V 1 o                                     ",
"                                                o 5 9 J 0.m.M.M.Z.Z.~.~.Z.x.0...} M 9 1 o                                       ",
"                                                  o O M } } ..o.e.y.m.m.q.0.} M e , o                                           ",
"                                                    O 5 5 5 e Z ' } } ' } ' M 1 o                                               ",
"                                                          o O 1 5 5 5 3 5 5 5                                                   ",
"                                                              o o o o o o o                                                     ",
"                                                                                                                                ",
"                                                                                                                                ",
"                                                                                                                                ",
"                                                                                                                                ",
"                                                                                                                                ",
"                                                                                                                                ",
"                                                                                                                                "
};
