/* XPM */
static char *ZnJvbnRfd2FsazEw[] = {
/* columns rows colors chars-per-pixel */
"54 66 226 2 ",
"   c #000001",
".  c #0B0604",
"X  c #020B04",
"o  c #0B0A0A",
"O  c #150D08",
"+  c #061105",
"@  c #081708",
"#  c #0B131C",
"$  c #1B1B1A",
"%  c #1A100C",
"&  c #25150B",
"*  c #281612",
"=  c #341D0F",
"-  c #093E15",
";  c #073613",
":  c #0D2F0D",
">  c #2D2416",
",  c #3A2111",
"<  c #382817",
"1  c #3F3018",
"2  c #18293A",
"3  c #3A3530",
"4  c #462719",
"5  c #522D18",
"6  c #4B381B",
"7  c #59341B",
"8  c #65391C",
"9  c #6E3E1E",
"0  c #653618",
"q  c #713E1D",
"w  c #4C2920",
"e  c #563C21",
"r  c #4B2F23",
"t  c #673A20",
"y  c #723E20",
"u  c #1B4311",
"i  c #1C4A13",
"p  c #0E4D12",
"a  c #244A15",
"s  c #16601E",
"d  c #0F681F",
"f  c #226D1E",
"g  c #314E23",
"h  c #0E6E25",
"j  c #0E7B29",
"k  c #0D7425",
"l  c #127C2A",
"z  c #187428",
"x  c #146F27",
"c  c #266E27",
"v  c #376825",
"b  c #29792A",
"n  c #5D401C",
"m  c #74401E",
"M  c #764B1E",
"N  c #7B730C",
"B  c #5C4B22",
"V  c #554A32",
"C  c #684723",
"Z  c #744120",
"A  c #7E4C28",
"S  c #6F552A",
"D  c #78582A",
"F  c #634B36",
"G  c #4D7926",
"H  c #7C6E36",
"J  c #403F45",
"K  c #365677",
"L  c #304D6B",
"P  c #574848",
"I  c #534A5F",
"U  c #4E4B49",
"Y  c #695A48",
"T  c #6E5A47",
"R  c #736762",
"E  c #5E6C62",
"W  c #83561C",
"Q  c #927513",
"!  c #83542C",
"~  c #875A38",
"^  c #804F27",
"/  c #8E6239",
"(  c #926635",
")  c #956A38",
"_  c #98763B",
"`  c #8E7133",
"'  c #A37837",
"]  c #A37F13",
"[  c #936642",
"{  c #9D7544",
"}  c #876D58",
"|  c #896C49",
" . c #A27643",
".. c #A47B41",
"X. c #A87F44",
"o. c #A47A55",
"O. c #A57C58",
"+. c #887669",
"@. c #907A6F",
"#. c #178129",
"$. c #198229",
"%. c #268D29",
"&. c #27822E",
"*. c #299129",
"=. c #2B942A",
"-. c #389526",
";. c #358A23",
":. c #3EA229",
">. c #3E8D1F",
",. c #68AA1A",
"<. c #419621",
"1. c #508126",
"2. c #6D9334",
"3. c #4CA927",
"4. c #42A529",
"5. c #49A32A",
"6. c #43A92A",
"7. c #7EA83A",
"8. c #689775",
"9. c #808001",
"0. c #9A8B39",
"q. c #AE893A",
"w. c #AD873B",
"e. c #B08D39",
"r. c #B89734",
"t. c #B4B126",
"y. c #B09711",
"u. c #C6AB28",
"i. c #CCB525",
"p. c #D2BD21",
"a. c #DAB739",
"s. c #C1A22B",
"d. c #DACA1A",
"f. c #DFD117",
"g. c #E9DB16",
"h. c #E0CF1A",
"j. c #DFF007",
"k. c #D7E40D",
"l. c #EBE50A",
"z. c #F1EC04",
"x. c #F2EB0A",
"c. c #E1F206",
"v. c #F6F206",
"b. c #FFFE00",
"n. c #F9F607",
"m. c #F6E71A",
"M. c #D8C222",
"N. c #ECD428",
"B. c #EBCA35",
"V. c #F0D729",
"C. c #AA834B",
"Z. c #AB8241",
"A. c #B38846",
"S. c #B58F5B",
"D. c #AF8A59",
"F. c #BA946D",
"G. c #BB9666",
"H. c #AF8F6B",
"J. c #A7A774",
"K. c #A9A976",
"L. c #C4974A",
"P. c #D09F4C",
"I. c #D4A34C",
"U. c #DDAB53",
"Y. c #D6A551",
"T. c #D0AA49",
"R. c #E2B746",
"E. c #E1AD52",
"W. c #E3B153",
"Q. c #C29E74",
"!. c #C8A67E",
"~. c #D2B36A",
"^. c #2B4D9B",
"/. c #2F519E",
"(. c #057BA9",
"). c #367C94",
"_. c #526790",
"`. c #6B769A",
"'. c #4664A5",
"]. c #4865A6",
"[. c #6DB4AC",
"{. c #29A9D0",
"}. c #06B4F2",
"|. c #42B9DD",
" X c #1BC3FA",
".X c #888583",
"XX c #B29C90",
"oX c #86B897",
"OX c #9BA291",
"+X c #BAA291",
"@X c #848EAE",
"#X c #B0B2B3",
"$X c #9FBDA3",
"%X c #CDAC83",
"&X c #C8A680",
"*X c #D0AE84",
"=X c #D6B58C",
"-X c #D5B487",
";X c #DBBB91",
":X c #CEB48C",
">X c #AFD5B8",
",X c #D7C19E",
"<X c #E2C49B",
"1X c #E8CB9F",
"2X c #EACDA4",
"3X c #E3CAA5",
"4X c #F2D6AD",
"5X c #F6DBB2",
"6X c #F6DCB4",
"7X c #EBD3AF",
"8X c #FEE5BC",
"9X c #FDE6BE",
"0X c #DBCCBF",
"qX c #98AAD0",
"wX c #ADB2C3",
"eX c #DBCCC1",
"rX c #D0CECD",
"tX c #E4D7CA",
"yX c #FFEAC2",
"uX c #F9E7C1",
"iX c #FFF1CD",
"pX c #E9ECF4",
"aX c #FFFFFF",
"sX c #FAF9F3",
"dX c #F3EEE8",
"fX c None",
/* pixels */
"fXfXfXfXfXfXfXfXfXfXfXfXfXfXfXfXfXfXfXfXfXfXfXfXfXfXfXfXfXfXfXfXfXfXfXfXfXfXfXfXfXfXfXfXfXfXfXfXfXfXfXfXfXfX",
"fXfXfXfXfXfXfXfXfXfXfXfXfXfXfXfXfXfXfXfXfXfXfXfXfXfXfXfXfXfXfXfXfXfXfXfXfXfXfXfXfXfXfXfXfXfXfXfXfXfXfXfXfXfX",
"fXfXfXfXfXfXfXfXfXfXfXfXfXfXfXfXfXfXfXfXfXfXfXfXfXfXfXfXfXfXfXfXfXfXfXfXfXfXfXfXfXfXfXfXfXfXfXfXfXfXfXfXfXfX",
"fXfXfXfXfXfXfXfXfXfXfXfXfXfXfXfXfXfXfX    - l j l l j l j l j -     fXfXfXfXfXfXfXfXfXfXfXfXfXfXfXfXfXfXfXfX",
"fXfXfXfXfXfXfXfXfXfXfXfXfXfXfXfXfXfXfX    - j j j j l j j j j -     fXfXfXfXfXfXfXfXfXfXfXfXfXfXfXfXfXfXfXfX",
"fXfXfXfXfXfXfXfXfXfXfXfXfXfXfXfXfXfX+ i i f *.%.%.%.%.%.%.%.*.f i i + fXfXfXfXfXfXfXfXfXfXfXfXfXfXfXfXfXfXfX",
"fXfXfXfXfXfXfXfXfXfXfXfXfXfXfXfX    + -.6.4.4.4.4.4.4.4.4.6.4.4.6.-.+     fXfXfXfXfXfXfXfXfXfXfXfXfXfXfXfXfX",
"fXfXfXfXfXfXfXfXfXfXfXfXfXfXfXfXX   @ -.:.:.:.:.:.:.:.:.<.:.:.:.<.-.@ X X fXfXfXfXfXfXfXfXfXfXfXfXfXfXfXfXfX",
"fXfXfXfXfXfXfXfXfXfXfXfXfXfX    ; h h l $.#.#.#.$.l $.l $.l $.l $.#.h h ;     fXfXfXfXfXfXfXfXfXfXfXfXfXfXfX",
"fXfXfXfXfXfXfXfXfXfXfXfXfXfX    - j j j j j l k l j l j l l j j j j j j -     fXfXfXfXfXfXfXfXfXfXfXfXfXfXfX",
"fXfXfXfXfXfXfXfXfXfXfXfXfXfX; ; s %.%.%.%.%.%.%.%.%.%.%.%.%.%.%.%.%.%.%.s ; ; fXfXfXfXfXfXfXfXfXfXfXfXfXfXfX",
"fXfXfXfXfXfXfXfXfXfXfX    X h j *.4.4.4.4.4.4.:.4.4.4.:.4.4.4.4.:.4.4.4.%.j h +     fXfXfXfXfXfXfXfXfXfXfXfX",
"fXfXfXfXfXfXfXfXfXfXfX    X x l -.3.3.5.5.3.3.3.5.4.5.3.3.3.3.3.3.3.5.5.=.#.h +     fXfXfXfXfXfXfXfXfXfXfXfX",
"fXfXfXfXfXfXfXfXfXfXfX    o H _ t.c.k.0.0.t.c.k.0._ t.c.j.j.j.j.c.k.0._ 2.-.;.+     fXfXfXfXfXfXfXfXfXfXfXfX",
"fXfXfXfXfXfXfXfXfXfXfXfX  O )  .p.b.n.w.{ p.b.v.q. .d.b.b.b.b.b.b.n.w. .2.:.=.o   fXfXfXfXfXfXfXfXfXfXfXfXfX",
"fXfXfXfXfXfXfXfXfXfXfX> 4 6 t.u.p.d.d.i.u.h.b.v.q. .p.b.b.b.b.l.d.d.i.u.t.7.2.p ; @ fXfXfXfXfXfXfXfXfXfXfXfX",
"fXfXfXfXfXfXfXfXfX    e ..q.v.b.p.{ q.v.b.b.b.v.w.{ p.b.b.b.b.p. .w.v.b.V.U.T.&.l -     fXfXfXfXfXfXfXfXfXfX",
"fXfXfXfXfXfXfXfXfX.   B Z.e.x.b.p...e.n.b.b.n.x.e.w.d.n.b.n.n.p. .w.x.b.N.T.T.;.l - .   fXfXfXfXfXfXfXfXfXfX",
"fXfXfXfX..X.G.;X!.t 5 y.x.g.r.r.L.Y.T.n.b.d.r.r.g.l.N.R.R.r.r.q...X.e.r.M.n.g.S C n 7 C !.=XG.X.X.fXfXfXfXfX",
"fXfXfXfX..' G.=X!.^ q y.b.v.q.' A.W.R.n.b.p.{ q.n.b.V.U.I.Z.{ '  .'  . .p.b.z.W y m q A !.=XG.....fXfXfXfXfX",
"fXfXfXfX) ( G.3X;X~ ! u.b.v.L.A.a.B.B.f.f.p.u.u.V.m.a.L.P.S.S.S.S.S.X. .p.b.z.( A [ C.D.<X<XG.( ( fXfXfXfXfX",
"fXfXfXfXZ 9 F.yX6XC. .p.b.n.R.U.N.b.v.w. .p.b.n.R.E.L.' C.*X=X=X=X*XC...p.b.v.q...*XyXuX9X9XF.q Z fXfXfXfXfX",
"fXfXfXfXZ q F.8X4XD.{ u.b.x.R.U.N.n.v.e...d.b.n.R.U.L.X.C.*X=X=X=X*XC...p.b.x.q. .-XuXuX8X8XF.m Z fXfXfXfXfX",
"fXfXfXfXfXfX~ [ } {.{.8.Q Q Z.A.M.b.b.l.g.N.R.R.A.A.S.!.%X4X6X6X8X6X2X2X~.r.r.P.I.oX X|.} [ ~ fXfXfXfXfXfXfX",
"fXfXfXfXfXfXq q F }.}.).9 y {  .p.b.b.b.b.V.U.Y.Z. .G.=X;X6X9X9X9X8XyXyX*X_ w.Y.W.[.}.}.F m m fXfXfXfXfXfXfX",
"fXfXfXfXfXfXfXm F (.(.8.] ] ( ( u.m.m.m.m.B.U.Y._ ( G.=X;X8X9X9X8X9X4X5X!.( ' a.B.8.(.(.F m fXfXfXfXfXfXfXfX",
"fXfXfXfXfXfXfXfXfX    N b.z.W q ' W.Y.U.U.U.U.P.^ q o.=X;X6X8X8X8X8X=X=Xo.q W z.b.9.    fXfXfXfXfXfXfXfXfXfX",
"fXfXfXfXfXfXfXfXfX  . ,.b.z.W q ' U.Y.U.U.U.U.I.^ y O.=X;X6X8X8X8X6X=X*Xo.q W z.b.9.    fXfXfXfXfXfXfXfXfXfX",
"fXfXfXfXfXfXfXfXfX    ,.v.z.' ) C < 6 ' A.A.A.A.F.F.;X5X4X<X<XF.[ / 3 3 F ) ' v.b.9.    fXfXfXfXfXfXfXfXfXfX",
"fXfXfXfXfXfXfXfXfX    Q b.v.q.X.e   . ` X.X.' C.*X=X2XyX8X;X;Xo.9 0     6 X.e.v.b.9.    fXfXfXfXfXfXfXfXfXfX",
"fXfXfXfXfXfXfXfXfX    N m.g.' ( T U U R } | ) { *X=X2X9X5XF.F.} P P U U D ( ' g.m.N     fXfXfXfXfXfXfXfXfXfX",
"fXfXfXfXfXfXfXfXfX    D W.I.^ q XXaXpX'./.I m A !.=X2X9X4X! Z I /.].pXaX+Xq ^ I.W.S     fXfXfXfXfXfXfXfXfXfX",
"fXfXfXfXfXfXfXfXfX    S E.P.A 9 XXaXpX]./.I Z ^ !.=X2X9X4X! m I /.].pXaX+Xq A P.U.S     fXfXfXfXfXfXfXfXfXfX",
"fXfXfXfXfXfXfXfXfXfXfX> 4 < & % .XaXpX].^.@XeX0X5X5X6X8X8XeXeX@X^.'.tXiX%X) / 6 6 > fXfXfXfXfXfXfXfXfXfXfXfX",
"fXfXfXfXfXfXfXfXfXfXfXfX        .XaXpX'.^.qXaXaXyX9X8X8XyXaXaXqX^.'.4XyX*XX.) o   fXfXfXfXfXfXfXfXfXfXfXfXfX",
"fXfXfXfXfXfXfXfXfXfXfX# # #     R tXrX`._.wXsXdXyX9X9X9X9XsXsXwX_.`.;X2XH.D S O   fXfXfXfXfXfXfXfXfXfXfXfXfX",
"fXfXfXfXfXfXfXfXfX    2 K L X   = Z ! &X=X2XuXyX9X9X9X9X9X9X9X2X:X%XC.Z.n     fXfXfXfXfXfXfXfXfXfXfXfXfXfXfX",
"fXfXfXfXfXfXfXfXfX    2 K L X   , y A &X*X2X6XyX9X9X9X9X9X9X9X2X=X%XC.Z.n     fXfXfXfXfXfXfXfXfXfXfXfXfXfXfX",
"fXfXfXfXfXfXfX  . 5 5 J L K #X#X@.y A ~ / Q.<X<X<X<X<X<X<X<X<XF.[ ~ ! ! 4     fXfXfXfXfXfXfXfXfXfXfXfXfXfXfX",
"fXfXfXfXfXfX    . 8 m U L _.pXaX&Xy Z y q o.;X=X=X=X=X=X=X=X=Xo.9 Z m m =     fXfXfXfXfXfXfXfXfXfXfXfXfXfXfX",
"fXfXfXfXfXfX    . / [ Y L E #XrX@.5 7 n n H J.J.J.J.J.J.J.H.H.| q Z B B V 3 3 fXfXfXfXfXfXfXfXfXfXfXfXfXfXfX",
"fXfXfXfXfXfX    $ 3X9XF.t t o o o   + : p s l l l j l #.h +   4 Z C z j oXaXtX2   fXfXfXfXfXfXfXfXfXfXfXfXfX",
"fXfXfXfXfXfX    $ 7X9XF.y 8 .       X - - s l l j j j #.h X   , Z C z k oXaXpX$     fXfXfXfXfXfXfXfXfXfXfXfX",
"fXfXfXfXfXfXfXfXfXV P 3 & &     * 4 4 s d k l l #.k j j k ; : @ & 1 $X>XOX+.R o     fXfXfXfXfXfXfXfXfXfXfXfX",
"fXfXfXfXfXfXfXfXfX              , M M z j j j #.k j j j k p p @   $ pXaXXX, 4     fXfXfXfXfXfXfXfXfXfXfXfXfX",
"fXfXfXfXfXfXfXfXfX              > B B c f c z c -.<.<.<.>.a u $ O > #XrX@.5 w % O O fXfXfXfXfXfXfXfXfXfXfXfX",
"fXfXfXfXfXfXfXfXfXfXfXfXfXfX    - l z C m m m D l.n.n.b.l.M m C Z 8 O o < y y y q =     fXfXfXfXfXfXfXfXfXfX",
"fXfXfXfXfXfXfXfXfXfXfXfXfXfX    - l z C m m m W z.b.b.b.v.W y Z Z t o   , y y y m ,     fXfXfXfXfXfXfXfXfXfX",
"fXfXfXfXfXfXfXfXfXfXfXfXfXfX    i =.-.1.1.G v v ,.,.,.,.,.v v v v g o   Y %X&XH.H.V     fXfXfXfXfXfXfXfXfXfX",
"fXfXfXfXfXfXfXfXfXfXfXfXfXfX    a 6.6.:.:.*.j j j j j j j l j j #.h +   } iXuX;X;XT     fXfXfXfXfXfXfXfXfXfX",
"fXfXfXfXfXfXfXfXfXfXfXfXfXfX    i ;.;.-.:.*.$.$.$.$.#.#.$.$.$.l j k X   Y ,X;XJ.F.V     fXfXfXfXfXfXfXfXfXfX",
"fXfXfXfXfXfXfXfXfXfXfXfXfXfXfXfXX X @ h j *.:.:.:.:.:.:.-.4.6.%.j h X   o o o o o .     fXfXfXfXfXfXfXfXfXfX",
"fXfXfXfXfXfXfXfXfXfXfXfXfXfXfXfXfX  o h j *.6.4.:.6.6.4.4.6.6.*.j h X                   fXfXfXfXfXfXfXfXfXfX",
"fXfXfXfXfXfXfXfXfXfXfXfXfXfX    % * * g g a u u u u u u u u u - ; ; fXfXfXfXfXfXfXfXfXfXfXfXfXfXfXfXfXfXfXfX",
"fXfXfXfXfXfXfXfXfXfXfXfXfXfX    * w w w w *                         fXfXfXfXfXfXfXfXfXfXfXfXfXfXfXfXfXfXfXfX",
"fXfXfXfXfXfXfXfXfXfXfXfXfXfX. . = w w w w *                         fXfXfXfXfXfXfXfXfXfXfXfXfXfXfXfXfXfXfXfX",
"fXfXfXfXfXfXfXfXfXfXfXfX  . < w 7 y t w w *     fXfXfXfXfXfXfXfXfXfXfXfXfXfXfXfXfXfXfXfXfXfXfXfXfXfXfXfXfXfX",
"fXfXfXfXfXfXfXfXfXfXfX    . < w e Z y w w *     fXfXfXfXfXfXfXfXfXfXfXfXfXfXfXfXfXfXfXfXfXfXfXfXfXfXfXfXfXfX",
"fXfXfXfXfXfXfXfXfXfXfX    . w t t Z y t t *     fXfXfXfXfXfXfXfXfXfXfXfXfXfXfXfXfXfXfXfXfXfXfXfXfXfXfXfXfXfX",
"fXfXfXfXfXfXfXfXfXfXfX    . t y Z Z Z Z Z ,     fXfXfXfXfXfXfXfXfXfXfXfXfXfXfXfXfXfXfXfXfXfXfXfXfXfXfXfXfXfX",
"fXfXfXfXfXfXfXfXfXfXfXfX  O 7 0 8 8 8 8 8 =     fXfXfXfXfXfXfXfXfXfXfXfXfXfXfXfXfXfXfXfXfXfXfXfXfXfXfXfXfXfX",
"fXfXfXfXfXfXfXfXfXfXfXfXfXfX. . . . . . . . fXfXfXfXfXfXfXfXfXfXfXfXfXfXfXfXfXfXfXfXfXfXfXfXfXfXfXfXfXfXfXfX",
"fXfXfXfXfXfXfXfXfXfXfXfXfXfX                fXfXfXfXfXfXfXfXfXfXfXfXfXfXfXfXfXfXfXfXfXfXfXfXfXfXfXfXfXfXfXfX",
"fXfXfXfXfXfXfXfXfXfXfXfXfXfXfXfXfXfXfXfXfXfXfXfXfXfXfXfXfXfXfXfXfXfXfXfXfXfXfXfXfXfXfXfXfXfXfXfXfXfXfXfXfXfX",
"fXfXfXfXfXfXfXfXfXfXfXfXfXfXfXfXfXfXfXfXfXfXfXfXfXfXfXfXfXfXfXfXfXfXfXfXfXfXfXfXfXfXfXfXfXfXfXfXfXfXfXfXfXfX",
"fXfXfXfXfXfXfXfXfXfXfXfXfXfXfXfXfXfXfXfXfXfXfXfXfXfXfXfXfXfXfXfXfXfXfXfXfXfXfXfXfXfXfXfXfXfXfXfXfXfXfXfXfXfX"
};
