/* XPM */
static char *result[] = {
/* columns rows colors chars-per-pixel */
"51 59 210 2 ",
"   c #000001",
".  c #080403",
"X  c #020C05",
"o  c #070B0B",
"O  c #130D08",
"+  c #041C08",
"@  c #191606",
"#  c #1B1815",
"$  c #26160B",
"%  c #381E0E",
"&  c #251410",
"*  c #2D1A12",
"=  c #371F11",
"-  c #082B0D",
";  c #083B09",
":  c #073E15",
">  c #083C15",
",  c #172913",
"<  c #3B2212",
"1  c #3C211A",
"2  c #44281C",
"3  c #58351E",
"4  c #6D3B1D",
"5  c #723E1E",
"6  c #4C2A21",
"7  c #512D21",
"8  c #473C2F",
"9  c #6F3F20",
"0  c #613621",
"q  c #753E20",
"w  c #15430E",
"e  c #0C4316",
"r  c #144814",
"t  c #0D5E1D",
"y  c #1C5619",
"u  c #08400A",
"i  c #215215",
"p  c #275618",
"a  c #194825",
"s  c #295925",
"d  c #3F5D24",
"f  c #0D6E25",
"g  c #0D6321",
"h  c #0E7B29",
"j  c #1B7528",
"k  c #127D29",
"l  c #147425",
"z  c #227F26",
"x  c #404015",
"c  c #66431E",
"v  c #73401F",
"b  c #415B24",
"n  c #45492B",
"m  c #684721",
"M  c #644722",
"N  c #754321",
"B  c #784522",
"V  c #7C4C2A",
"C  c #794A24",
"Z  c #75562C",
"A  c #6B5230",
"S  c #446025",
"D  c #597125",
"F  c #577934",
"G  c #736D33",
"H  c #2A4B6B",
"J  c #1C6F72",
"K  c #27425D",
"L  c #504746",
"P  c #6A5A46",
"I  c #6F5A50",
"U  c #7D705C",
"Y  c #797677",
"T  c #68656B",
"R  c #83532E",
"E  c #8B5C2E",
"W  c #835331",
"Q  c #8B5C31",
"!  c #875834",
"~  c #804F2C",
"^  c #956B38",
"/  c #9E743E",
"(  c #9A7F3F",
")  c #8C6830",
"_  c #A37A3F",
"`  c #A8793A",
"'  c #81541B",
"]  c #9B774E",
"[  c #A17643",
"{  c #A47A42",
"}  c #A87E46",
"|  c #A37A54",
" . c #A17751",
".. c #8A7968",
"X. c #158029",
"o. c #1A8329",
"O. c #278826",
"+. c #299129",
"@. c #379B29",
"#. c #379628",
"$. c #258134",
"%. c #31823D",
"&. c #3DA129",
"*. c #658E1D",
"=. c #418826",
"-. c #4E9C2B",
";. c #728E36",
":. c #749134",
">. c #6A9034",
",. c #42A629",
"<. c #42A829",
"1. c #4DA22C",
"2. c #2A8C42",
"3. c #7E875C",
"4. c #B19D14",
"5. c #89BE15",
"6. c #BAA00F",
"7. c #9C803F",
"8. c #AB853C",
"9. c #AE893A",
"0. c #B79635",
"q. c #B28E33",
"w. c #89B125",
"e. c #C9B41A",
"r. c #CDB624",
"t. c #D2BD21",
"y. c #C9A835",
"u. c #A1D314",
"i. c #9BCA18",
"p. c #E0DB08",
"a. c #E7E70A",
"s. c #F3EB0B",
"d. c #E6F304",
"f. c #F6F206",
"g. c #FFFF00",
"h. c #FEF908",
"j. c #FAF507",
"k. c #E4F91C",
"l. c #D5C021",
"z. c #E2C927",
"x. c #EDD429",
"c. c #F1D828",
"v. c #D9DC1F",
"b. c #AB834A",
"n. c #AB8145",
"m. c #AD8558",
"M. c #B9934E",
"N. c #899868",
"B. c #AD8763",
"V. c #BA946E",
"C. c #BC9767",
"Z. c #BA956F",
"A. c #B6A376",
"S. c #C49649",
"D. c #D29F4D",
"F. c #D3A24E",
"G. c #DEAC53",
"H. c #D8A652",
"J. c #CFA643",
"K. c #E3B749",
"L. c #E0AD55",
"P. c #E6B256",
"I. c #C29E72",
"U. c #CBA77F",
"Y. c #C9A679",
"T. c #D2B17F",
"R. c #D8AE69",
"E. c #E4BD7E",
"W. c #005D81",
"Q. c #284C9C",
"!. c #435F9F",
"~. c #506BA9",
"^. c #28B7DB",
"/. c #0BBBFA",
"(. c #1AC5E8",
"). c #878482",
"_. c #BBB090",
"`. c #9B9EAC",
"'. c #889DA7",
"]. c #A2A2A8",
"[. c #C0AE80",
"{. c #CEAC83",
"}. c #D0AE82",
"|. c #D3B383",
" X c #D6B48B",
".X c #D8B78D",
"XX c #DDBC93",
"oX c #C0B79B",
"OX c #DAC39C",
"+X c #E3C59C",
"@X c #E0C197",
"#X c #F0CB89",
"$X c #DCCDBC",
"%X c #EBCEA5",
"&X c #E7CAA0",
"*X c #E9D0AA",
"=X c #F2D6AE",
"-X c #EBD8BB",
";X c #F7DCB1",
":X c #FEE5BC",
">X c #FFE8BF",
",X c #CFDED0",
"<X c #EBDAC6",
"1X c #FFEAC2",
"2X c #FBE5C2",
"3X c #FFF2DD",
"4X c #EAF3EB",
"5X c #FFFFFD",
"6X c #EAECF3",
"7X c None",
/* pixels */
"7X7X7X7X7X7X7X7X7X7X7X7X7X7X7X7X7X7X7X7X7X7X7X7X7X7X7X7X7X7X7X7X7X7X7X7X7X7X7X7X7X7X7X7X7X7X7X7X7X7X7X",
"7X7X7X7X7X7X7X7X7X7X7X7X7X7X7X7X7X7X  7X7X7X7X7X7X7X7X7X7X7X7X  7X7X7X7X7X7X7X7X7X7X7X7X7X7X7X7X7X7X7X",
"7X7X7X7X7X7X7X7X7X7X7X7X7X7X7X7X7X    X f k k h k k k k k f X     7X7X7X7X7X7X7X7X7X7X7X7X7X7X7X7X7X7X",
"7X7X7X7X7X7X7X7X7X7X7X7X7X7X7X7X7XX X + l k k j k k k k k l + X X 7X7X7X7X7X7X7X7X7X7X7X7X7X7X7X7X7X7X",
"7X7X7X7X7X7X7X7X7X7X7X7X7X7X7X    > f l @.@.@.,.,.@.&.@.&.@.l f >     7X7X7X7X7X7X7X7X7X7X7X7X7X7X7X7X",
"7X7X7X7X7X7X7X7X7X7X7X7X7X7X7X    > k k ,.,.,.,.,.,.,.,.,.@.o.k >     7X7X7X7X7X7X7X7X7X7X7X7X7X7X7X7X",
"7X7X7X7X7X7X7X7X7X7X7X7X7X  X > > g h k +.+.+.+.+.+.+.+.O.+.k k g > > X   7X7X7X7X7X7X7X7X7X7X7X7X7X7X",
"7X7X7X7X7X7X7X7X7X7X7X7X    X f k h k h h h h h h h h h h h k h h k f X     7X7X7X7X7X7X7X7X7X7X7X7X7X",
"7X7X7X7X7X7X7X7X7X7X7X7XX X + l o.k k o.k k k o.j X.k k X.k k o.X.X.l + X X 7X7X7X7X7X7X7X7X7X7X7X7X7X",
"7X7X7X7X7X7X7X7X7X7X    > f l @.@.&.&.@.,.&.&.@.@.&.&.&.&.&.,.@.&.@.@.l f >     7X7X7X7X7X7X7X7X7X7X7X",
"7X7X7X7X7X7X7X7X7X7X    > k X.&.,.,.&.&.&.,.,.&.,.,.&.,.&.,.&.,.,.,.@.k k >     7X7X7X7X7X7X7X7X7X7X7X",
"7X7X7X7X7X7X7X7X7X7X    r +.+.>.;.w.u.u.u.u.w.;.:.:.;.w.u.i.:.;.;.:.>.#.+.r     7X7X7X7X7X7X7X7X7X7X7X",
"7X7X7X7X7X7X7X7X7X7X    i <.1.7.{ t.g.g.g.g.t.{ { { { t.g.f.9.{ { { ( 1.<.i     7X7X7X7X7X7X7X7X7X7X7X",
"7X7X7X7X7X7X7X7X7X7XX X p 1.-.7.{ t.g.g.f.f.t.9.9.{ [ t.g.f.0.9.8.{ ( -.1.p X X 7X7X7X7X7X7X7X7X7X7X7X",
"7X7X7X7X7X7X7X7X  X g f F 7.7._ [ t.g.f.0.8.t.f.s.8.[ t.g.g.f.f.r.{ { 7.7.F f g X   7X7X7X7X7X7X7X7X7X",
"7X7X7X7X7X7X7X7X  X f h F { { { [ t.g.f.8.[ t.g.f.8.[ t.g.g.g.g.t.{ { { { F h f X   7X7X7X7X7X7X7X7X7X",
"7X7X7X_ b.{.7XA < < d d ) S.S.t.t.z.x.x.l.t.t.t.t.t.t.l.c.x.l.t.t.t.r.8._ G b b < % A 7X{.b.{ 7X7X7X7X",
"7X7X{ { b.{..X| 4 q q q _ L.K.h.g.x.H.K.h.g.t.[ 8.f.g.x.L.H.} [ t.g.f.9.{ Q 5 q q 5 | .X{.b.{ { 7X7X7X",
"7X7X[ / }  XXXB.V W C B 8.K.K.s.f.x.L.K.s.f.r.[ 9.f.g.x.H.F.b.b.t.f.s.0.9.) B C W ~ B.XX|.} / / 7X7X7X",
"7X7XB B W *X:X;X=X%X} / e.h.s.0.8.l.g.s.0.9.8.{ 9.f.g.l.} b.{.}.I.8.q.a.f.r._ } &X=X;X:X*X! C B 7X7X7X",
"7X7XN v W =X1X2X>X;Xb.{ t.g.f.9.[ t.g.f.8.[ [ [ 9.j.g.t.[ } {. XC._ 9.f.g.l.[ b.;X2X1X1X=XV 5 N 7X7X7X",
"7X7X7Xv V V.Z. X*X@X^ Q q.t.t.S.S.l.g.j.l.t.y.S.S.4.6.0.C.I.+X%XY._ 8.z.x.y.{ b.+X*X XZ.V.W v 7X7X7X7X",
"7X7X7X7X7X5 9  . XY.V 9 Q { ` H.L.x.g.g.g.g.c.L.F.C 4 |  XXX:X>XT.( n.H.L.M.{ n.}. X| 4 4 7X7X7X7X7X7X",
"7X7X7X7X7Xm 4 B._._.E ' ) { ` H.G.x.h.j.f.f.z.D.S.! V m.XXXX:X>XT.n.b.D.F.S.9.b._.oX| 4 N 7X7X7X7X7X7X",
"7X7X7X7X7X7X7X^./.^.k.f.4.q ~ F.H.K.K.G.q.8.^ C E I.U.+X:X:X:X:X+X}.Y.! B 6.f.k.^./.^.7X7X7X7X7X7X7X7X",
"7X7X7X7X7X7X7X7X/.(.k.g.6.4 ' F.G.G.G.F.n.{ E 4 V {..X%X:X:X:X1X%X.X{.V q 6.g.k.(./.7X7X7X7X7X7X7X7X7X",
"7X7X7X7X7X7X7XW.W.J a.g.e.! ^ .X#XR.S.M.^ E [ | | +X%XXXT.T.|.T.V.| | Q ! e.g.a.J W.W.7X7X7X7X7X7X7X7X",
"7X7X7X7X7X7X7X    @ a.g.r._ b.;X>XT._ / N 5 |  XXX:X2X}./ _ _ _ E 5 C _ { t.g.p.@     7X7X7X7X7X7X7X7X",
"7X7X7X7X7X7X7X    @ p.g.r.[ } &X=XY._ _ R V m.XX@X:X1X|.} b.{ { Q q B ^ / r.h.p.@     7X7X7X7X7X7X7X7X",
"7X7X7X7X7X7X7X    @ J.K.` B C W R ^ _ } Y.U.OX:X:X:X>X+X{.Y.b.{ Q q q C v 8.K.J.@ .   7X7X7X7X7X7X7X7X",
"7X7X7X7X7X7X7X    @ S.P.` v N 5 q Q _ n.{. X+X:X:X:X:X%X X|.b.` E 4 v v v ` L.S.@     7X7X7X7X7X7X7X7X",
"7X7X7X7X7X7X7X7X  @ A Z 3 % 2 B.Z...T Y $X<X2X:X:X:X:X<X<X$XY T N.V.B.2 < 3 Z A @   7X7X7X7X7X7X7X7X7X",
"7X7X7X7X7X7X7X7X7X7X        # *X>X`.Q.~.6X5X3X:X:X>X:X3X5X6X!.Q.`.1X*X#         7X7X7X7X7X7X7X7X7X7X7X",
"7X7X7X7X7X7X7X7X7X7X        # OX:X].!.~.6X5X3X>X:X:X:X3X5X6X~.~.`.;XOX#         7X7X7X7X7X7X7X7X7X7X7X",
"7X7X7X7X7X7X7X7X7X7X7X7X    O ] b.|.-X-X2X1X1X:X:X:X:X1X1X2X-X-X[.b.] O     7X7X7X7X7X7X7X7X7X7X7X7X7X",
"7X7X7X7X7X7X7X7X7X7X7X7X7X  O ^ _ |.1X>X>X:X:X:X:X1X:X:X>X:X1X1X|.n.^ O   7X7X7X7X7X7X7X7X7X7X7X7X7X7X",
"7X7X7X7X7X7X7X7X7X7X7X7X- e e Z Q | V.Z.+X*X%X%X%X%X%X%X%X+XZ.Z.| E E e > - 7X7X7X7X7X7X7X7X7X7X7X7X7X",
"7X7X7X7X7X7X7X7X7X7X    : h j m v v v V U. X|.|. X X X X XU.V 5 v v m j h :     7X7X7X7X7X7X7X7X7X7X7X",
"7X7X7X7X7X7X7X7X7X7Xo o a 2.%.M c c c Z A.U.Y._.[.[.[.[.[.A.Z m c c M %.2.a O . 7X7X7X7X7X7X7X7X7X7X7X",
"7X7X7X7X7X7X7X7X  o K H '.4X,Xs w y j k $.$.$.$.$.$.$.$.$.$.j j y w s ,X4X).2 < .   7X7X7X7X7X7X7X7X7X",
"7X7X7X7X7X7X7X7X  o H H `.5X4Xs ; t h h l h k h k l h h h h h h f u s 4X5X].2 2 .   7X7X7X7X7X7X7X7X7X",
"7X7X7X7X7X7X7X$ < 1 L L T ).Y n d p h h h h l h h h h h k h k h p < n Y ..I 0 3 < < $ 7X7X7X7X7X7X7X7X",
"7X7X7X7X7X    < N N N v %   . 4 v S h h h h h h h h h k h h h h S v 4     % N v N B <     7X7X7X7X7X7X",
"7X7X7X7X7X    < V V W ! 2   X M C b j j j j z O.O.O.O.z j j j j S C M O   2 W W V ~ <     7X7X7X7X7X7X",
"7X7X7X7X7X    P U.T.*X=X3.; w #.-.D c m M c 4.d.d.d.d.4.M m m m D <.#.w ; 3.=X*X{.{.P     7X7X7X7X7X7X",
"7X7X7X7X7X    P XX@X:X1XN.u r @.,.D 5 5 v v 6.g.g.g.g.6.q N q q D &.@.i u N.1X1XXXXXP     7X7X7X7X7X7X",
"7X7X7X7X7X7X7X8 P P U ..n + - O.+.#.D D S d *.:.5.5.5.*.d S D D =.+.O.- + n U ..P P 8 7X7X7X7X7X7X7X7X",
"7X7X7X7X7X7X7X7X            X l X.+.&.&.X.X.h h f h h h h X.&.<.O.h f X             7X7X7X7X7X7X7X7X7X",
"7X7X7X7X7X7X7X7X            X g f O.&.@.o.X.k X.k k k k k $.@.&.O.f g X             7X7X7X7X7X7X7X7X7X",
"7X7X7X7X7X7X7X7X7X7X7X7X      X X e X.o.@.&.&.&.&.&.,.&.&.@.o.X.e X X       7X7X7X7X7X7X7X7X7X7X7X7X7X",
"7X7X7X7X7X7X7X7X7X7X7X7X7X        : k X.&.<.,.,.<.<.,.,.<.&.X.X.:         7X7X7X7X7X7X7X7X7X7X7X7X7X7X",
"7X7X7X7X7X7X7X7X7X7X7X7X$ < = & & , : e y i i i i i i i i y : > , $ & < < $ 7X7X7X7X7X7X7X7X7X7X7X7X7X",
"7X7X7X7X7X7X7X7X7X7X    < N q 7 6 &                             & 6 6 N B <     7X7X7X7X7X7X7X7X7X7X7X",
"7X7X7X7X7X7X7X7X7X7X    < N 9 7 6 * . .                     . . * 7 7 9 N <     7X7X7X7X7X7X7X7X7X7X7X",
"7X7X7X7X7X7X7X7X7X7X    < N v 9 9 3 1 1 .     7X7X7X7X    . 1 1 3 9 4 N N <     7X7X7X7X7X7X7X7X7X7X7X",
"7X7X7X7X7X7X7X7X7X7X    < N N N N 0 6 6 .     7X7X7X7X    . 6 6 0 N N N N <     7X7X7X7X7X7X7X7X7X7X7X",
"7X7X7X7X7X7X7X7X7X7X7X7X$ < < < < * & & .   7X7X7X7X7X7X  . & & * < < < < $ 7X7X7X7X7X7X7X7X7X7X7X7X7X",
"7X7X7X7X7X7X7X7X7X7X7X7X7X              7X7X7X7X7X7X7X7X7X7X              7X7X7X7X7X7X7X7X7X7X7X7X7X7X",
"7X7X7X7X7X7X7X7X7X7X7X7X                7X7X7X7X7X7X7X7X7X7X                7X7X7X7X7X7X7X7X7X7X7X7X7X"
};
