/* XPM */
static char *ZnJvbnRfd2Fsazk_[] = {
/* columns rows colors chars-per-pixel */
"53 65 230 2 ",
"   c #000001",
".  c #0B0704",
"X  c #020C05",
"o  c #0C0A04",
"O  c #07090B",
"+  c #160C09",
"@  c #061206",
"#  c #061D06",
"$  c #05131B",
"%  c #191815",
"&  c #18170A",
"*  c #27160D",
"=  c #361D0E",
"-  c #3A1F13",
";  c #2E1E15",
":  c #052A0E",
">  c #05230A",
",  c #0C360C",
"<  c #062E10",
"1  c #093913",
"2  c #153510",
"3  c #392415",
"4  c #332E1B",
"5  c #37342A",
"6  c #46271C",
"7  c #5D331B",
"8  c #553519",
"9  c #523616",
"0  c #663A1D",
"q  c #6B3B1C",
"w  c #64371B",
"e  c #723E1D",
"r  c #4C2A20",
"t  c #4B2720",
"y  c #5D3824",
"u  c #4D3124",
"i  c #6E3D20",
"p  c #643A21",
"a  c #733E20",
"s  c #0D440D",
"d  c #0C591D",
"f  c #174812",
"g  c #215215",
"h  c #295719",
"j  c #24411D",
"k  c #0C5F20",
"l  c #3B5B25",
"z  c #2D5325",
"x  c #0E6E25",
"c  c #0C6421",
"v  c #116922",
"b  c #0E7B29",
"n  c #1B7528",
"m  c #127D29",
"M  c #177526",
"N  c #227229",
"B  c #25771F",
"V  c #51441C",
"C  c #74411F",
"Z  c #78431F",
"A  c #69421E",
"S  c #666501",
"D  c #626C14",
"F  c #52443C",
"G  c #4F5122",
"H  c #684825",
"J  c #744221",
"K  c #7E4D2C",
"L  c #784824",
"P  c #674739",
"I  c #71572F",
"U  c #466425",
"Y  c #577625",
"T  c #4C7932",
"R  c #617F34",
"E  c #335373",
"W  c #2D4966",
"Q  c #3F717B",
"!  c #5B4840",
"~  c #585551",
"^  c #705B45",
"/  c #494D72",
"(  c #927019",
")  c #8C5B2C",
"_  c #84532D",
"`  c #845734",
"'  c #966637",
"]  c #9D723D",
"[  c #9B7F3F",
"{  c #906232",
"}  c #A4773B",
"|  c #A27D27",
" . c #966B48",
".. c #9C7448",
"X. c #8B7050",
"o. c #A27642",
"O. c #A47A42",
"+. c #A77D47",
"@. c #A47A56",
"#. c #907C67",
"$. c #188229",
"%. c #218A29",
"&. c #2A8B26",
"*. c #299029",
"=. c #369C29",
"-. c #399627",
";. c #258134",
":. c #338924",
">. c #3DA229",
",. c #56A31E",
"<. c #499129",
"1. c #738E36",
"2. c #739234",
"3. c #6A8D2D",
"4. c #42A629",
"5. c #45A329",
"6. c #55AD27",
"7. c #7C9824",
"8. c #AB8B14",
"9. c #98873B",
"0. c #AE893A",
"q. c #AB843D",
"w. c #B28C37",
"e. c #BB9C31",
"r. c #B79637",
"t. c #B59428",
"y. c #BEA12D",
"u. c #9AA319",
"i. c #D2BD1F",
"p. c #C9B40F",
"a. c #C1A52B",
"s. c #C6AD29",
"d. c #C8AC2A",
"f. c #D2BD21",
"g. c #CCAE31",
"h. c #9BCA18",
"j. c #A0D214",
"k. c #B1D50E",
"l. c #DDCE18",
"z. c #DFD016",
"x. c #CED108",
"c. c #E6DA12",
"v. c #E6DB12",
"b. c #EEE50C",
"n. c #F3ED09",
"m. c #E8F304",
"M. c #F6F207",
"N. c #FFFE00",
"B. c #FBF509",
"V. c #FAF607",
"C. c #F3E614",
"Z. c #D6C430",
"A. c #E9CB30",
"S. c #AB834A",
"D. c #BA8944",
"F. c #BD9148",
"G. c #AD8556",
"H. c #B38B54",
"J. c #A89F46",
"K. c #928565",
"L. c #B38D68",
"P. c #BA946E",
"I. c #BB9565",
"U. c #B99571",
"Y. c #AB8C6A",
"T. c #BFA37D",
"R. c #9E9C5C",
"E. c #C4964A",
"W. c #D9B346",
"Q. c #DEAC53",
"!. c #D7A552",
"~. c #D2A54E",
"^. c #E2B549",
"/. c #E4BB44",
"(. c #E1AD54",
"). c #E5B155",
"_. c #C4A16D",
"`. c #C9A67E",
"'. c #C4A276",
"]. c #C09C75",
"[. c #2E509D",
"{. c #365498",
"}. c #2D4D96",
"|. c #5F73A5",
" X c #516BA7",
".X c #596C9E",
"XX c #3EA1B7",
"oX c #4A9AA2",
"OX c #6A91AA",
"+X c #0CA5DD",
"@X c #02BCFC",
"#X c #00A7E8",
"$X c #1197C7",
"%X c #7FD1E0",
"&X c #AA9790",
"*X c #BBA191",
"=X c #AEA797",
"-X c #B4B0AC",
";X c #8D90A6",
":X c #C0AE80",
">X c #CDAA81",
",X c #D6B48B",
"<X c #D9B88F",
"1X c #D1B082",
"2X c #DBBB92",
"3X c #CAB18F",
"4X c #D7C5AD",
"5X c #EACDA4",
"6X c #E4CDA9",
"7X c #EDD1A7",
"8X c #F2D7AE",
"9X c #EAD6B8",
"0X c #F6DDB5",
"qX c #FEE5BC",
"wX c #FFE8BE",
"eX c #FEE1B4",
"rX c #E4C79C",
"tX c #B2B8C8",
"yX c #9EC9DB",
"uX c #FFEAC2",
"iX c #FDEACA",
"pX c #FCF1DE",
"aX c #D5DAE5",
"sX c #F1ECE8",
"dX c #FFF8E8",
"fX c #FFFFFE",
"gX c #FFFCF7",
"hX c #E6E6E7",
"jX c #E4DAD4",
"kX c None",
/* pixels */
"kXkXkXkXkXkXkXkXkXkXkXkXkXkXkXkXkXkXkXkXkXkXkXkXkXkXkXkXkXkXkXkXkXkXkXkXkXkXkXkXkXkXkXkXkXkXkXkXkXkXkXkXkX",
"kXkXkXkXkXkXkXkXkXkXkXkXkXkXkXkXkXkXkXkXkXkXkXkXkXkXkXkXkXkXkXkXkXkXkXkXkXkXkXkXkXkXkXkXkXkXkXkXkXkXkXkXkX",
"kXkXkXkXkXkXkXkXkXkXkXkXkXkXkXkXkXkXkXkXkXkX  > b b m b k   kXkXkXkXkXkXkXkXkXkXkXkXkXkXkXkXkXkXkXkXkXkXkX",
"kXkXkXkXkXkXkXkXkXkXkXkXkXkXkXkXkXkXkXkXkX    > m m b m d     kXkXkXkXkXkXkXkXkXkXkXkXkXkXkXkXkXkXkXkXkXkX",
"kXkXkXkXkXkXkXkXkXkXkXkXkXkXkXkXkXkXkXkXkX@ o 1 m m $.$.c @ @ kXkXkXkXkXkXkXkXkXkXkXkXkXkXkXkXkXkXkXkXkXkX",
"kXkXkXkXkXkXkXkXkXkXkXkXkXkXkXkX    < b m :.-.-.=.>.>.>.-.-.:.%.b k O   kXkXkXkXkXkXkXkXkXkXkXkXkXkXkXkXkX",
"kXkXkXkXkXkXkXkXkXkXkXkXkXkXkXkX    < m m =.5.4.5.5.4.5.4.4.4.%.b k     kXkXkXkXkXkXkXkXkXkXkXkXkXkXkXkXkX",
"kXkXkXkXkXkXkXkXkXkXkXkXkXkX    < 1 d b m %.*.*.*.*.*.*.*.*.*.$.m x s 1 > kXkXkXkXkXkXkXkXkXkXkXkXkXkXkXkX",
"kXkXkXkXkXkXkXkXkXkXkXkXkXkX    c b b b b b b b b m m m m m b b b m m m <     kXkXkXkXkXkXkXkXkXkXkXkXkXkX",
"kXkXkXkXkXkXkXkXkXkXkXkXkXkX@ @ x $.$.$.m m m $.m m m $.m m m $.m m m $.< X X kXkXkXkXkXkXkXkXkXkXkXkXkXkX",
"kXkXkXkXkXkXkXkXkXkXkX    < x x *.>.>.>.>.>.>.>.=.4.>.=.=.4.>.>.>.>.>.>.%.x d X   kXkXkXkXkXkXkXkXkXkXkXkX",
"kXkXkXkXkXkXkXkXkXkXkX    < b b >.>.>.>.>.>.>.>.4.4.>.4.>.4.>.>.>.>.4.>.$.b c     kXkXkXkXkXkXkXkXkXkXkXkX",
"kXkXkXkXkXkXkXkXkXkXkX    , *.*.3.1.7.j.j.j.h.h.1.1.1.1.7.j.j.j.j.h.2.1.<.*.B     kXkXkXkXkXkXkXkXkXkXkXkX",
"kXkXkXkXkXkXkXkXkXkXkX    f 5.5.9.O.g.N.N.N.N.c.+.o.o.+.e.N.N.N.N.v.+.O.3.>.:.X   kXkXkXkXkXkXkXkXkXkXkXkX",
"kXkXkXkXkXkXkXkXkXkXkXX X 2 5.5.9.0.d.M.M.V.N.v.0.0.} O.e.N.N.V.B.c.0.0.2.4.<.$ X kXkXkXkXkXkXkXkXkXkXkXkX",
"kXkXkXkXkXkXkXkXkX  X d x T [ S.c.M.l.0.w.b.N.N.M.n.e.O.e.N.N.d.q.y.n.M.Z.W.J.n x <     kXkXkXkXkXkXkXkXkX",
"kXkXkXkXkXkXkXkXkX  X c $.N O.+.b.N.z.} O.b.N.N.N.N.e...e.N.N.y.o.r.N.N.A.).J.m b <     kXkXkXkXkXkXkXkXkX",
"kXkXkXkXO.S.>XkXI 3 3 G U 1.f.f.f.i.g.E.F.C.N.n.f.f.f.f.l.N.N.a.O.0.f.f.A.A.Z.3.T V = 6 '.kXI.} kXkXkXkXkX",
"kXkXkXkXO.S.>X<XG.J Z A e 8.N.N.r.o.D.Q.Q.C.N.c.} O.v.N.N.N.N.a.o.O.O.O.c.N.b.S.+.) e ` >X<XI.} O.kXkXkXkX",
"kXkXkXkX] O.1X2XL.` K L a 8.N.V.e.+.F.^.^.C.M.l.S.} v.N.N.M.M.y.+.S.} o.l.N.b.w.0.{ L ` ,X2XI.] } kXkXkXkX",
"kXkXkXkXL _ 6XeX8X8X6XH.] a.N.N.^.!.A.B.B.y.0.q.O.O.v.N.b.0.w._.>X'.O.O.l.N.N.M.M.s.] S.8XqXL.J L kXkXkXkX",
"kXkXkXkXC K 7XuXwXwXeXH.} s.N.N./.Q.A.N.N.r...O.o.O.v.N.c.O.O.'.<X`.O.} z.N.N.N.N.s.} H.eXiXL.q J kXkXkXkX",
"kXkXkXkXe K L.P.=X%XyXK.o.s.N.V.g.F.g.N.N.l.i.f.f.f.f.f.g.I.I.2X5XrX1X1XZ.f.f.l.Z.R.oXOXU.U.@.kXkXkXkXkXkX",
"kXkXkXkXkXkXe e Q @X@XK.} s.N.V.r.o.a.N.N.N.N.N.N.N.e.o.H.<X,X8XuXwXwXuXU.] ....9.XX@X+XH q kXkXkXkXkXkXkX",
"kXkXkXkXkXkXJ e Q #X+XX.' a.V.M.0...y.V.V.V.V.B.B.M.t.] G.2X2X0XqXqXeXeXU.] [ 0.0.oX#X$XH J kXkXkXkXkXkXkX",
"kXkXkXkXkXkXkXkXkX$ $ H _ ' ^.^.) L ' ^.^.^.^.^.^.^.' a  .0X0X0XqX0X2X<X..J ( b.V.D $ $ kXkXkXkXkXkXkXkXkX",
"kXkXkXkXkXkXkXkXkX    7 q ' (.Q.) e ' (.Q.Q.Q.(.(.(.) e  .qXqXqXuX0X,X<X .q ( M.N.S     kXkXkXkXkXkXkXkXkX",
"kXkXkXkXkXkXkXkXkX  X 8.p.8.} ] 9 = A E.E.!.(.E.} } +.@.L.5X6X>XP.Y.^ ^ ` ) | M.N.S     kXkXkXkXkXkXkXkXkX",
"kXkXkXkXkXkXkXkXkX  + x.N.p.i i +   3 O.O.~.).E.e e P.<X,X,X3X{ a 8     H +.r.N.N.S     kXkXkXkXkXkXkXkXkX",
"kXkXkXkXkXkXkXkXkX  o x.N.p.a a ; % u @...E.!.q._ _ ].2X,X>X>X .P y % % I ..w.M.B.S     kXkXkXkXkXkXkXkXkX",
"kXkXkXkXkXkXkXkXkX  o r.^.w.J L 4XhXtX{.{.^ L  .'.>X5X0X2X_ K / }.|.aXhX@.Z ) W.^.H     kXkXkXkXkXkXkXkXkX",
"kXkXkXkXkXkXkXkXkX  o F.).D.J _ aXfXyX{.{.P q { ,X,X8XuX2Xa q / [.|.fXfXY.e _ Q.).V     kXkXkXkXkXkXkXkXkX",
"kXkXkXkXkXkXkXkXkX  o H I V = 6 4XdXtX[.{.;X*X3X5X5X0XuX9X*X*X|.[.|.pXpXX.= 6 I I 4 kXkXkXkXkXkXkXkXkXkXkX",
"kXkXkXkXkXkXkXkXkXkXkX        O 2XuX-X[.{.aXfXdXuXqXqXqXiXfXfXOX}.|.qXwX!         kXkXkXkXkXkXkXkXkXkXkXkX",
"kXkXkXkXkXkXkXkXkXkXkX. . . O % *XqX-X X XaXgXdXqXqXqXqXiXgXgXOX{.|.0X8XF         kXkXkXkXkXkXkXkXkXkXkXkX",
"kXkXkXkXkXkXkXkXkX  . 8 q F W W K.S.U.9X9X0XiXuXqXqXqXqXqXiXuX0X9X6XH.H.u     kXkXkXkXkXkXkXkXkXkXkXkXkXkX",
"kXkXkXkXkXkXkXkXkX  . 7 J ! E E ..[ _.wXuXwXqXwXqXuXqXqXwXwXwXwXwX5XS.O.4     kXkXkXkXkXkXkXkXkXkXkXkXkXkX",
"kXkXkXkXkXkXkXkXkX  . 7 J ! E E I { ..P.U.2X5X5X5X5X5X5X5X5X5X`.P.Y.{ ) =     kXkXkXkXkXkXkXkXkXkXkXkXkXkX",
"kXkXkXkXkXkXkXkXkX  . 7 J ! E E H C C q C ].,X,X,X,X,X,X,X,X,X .q q J C *     kXkXkXkXkXkXkXkXkXkXkXkXkXkX",
"kXkXkXkXkXkXkXkXkX    8 w F W W y 0 A A H Y.:X:X:X:X:X:XT.*XU.X.` ` ` ` ;     kXkXkXkXkXkXkXkXkXkXkXkXkXkX",
"kXkXkXkXkXkXkXkXkXkXkXo . . O O O . < M M N ;.;.;.;.;.;.N + % =XsXsXsXsX~     kXkXkXkXkXkXkXkXkXkXkXkXkXkX",
"kXkXkXkXkXkXkXkXkXkXkX              : $.m b b m b x b b d     -XfXfXfXfX~     kXkXkXkXkXkXkXkXkXkXkXkXkXkX",
"kXkXkXkXkXkXkXkXkXkXkXkXkX      ; - 4 $.b m m b b b b b c > > #.*X*X&X&X! % * .   kXkXkXkXkXkXkXkXkXkXkXkX",
"kXkXkXkXkXkXkXkXkXkXkXkXkXkX    7 a G $.b b b b b b b b x s s 9 e w t 3 t t -     kXkXkXkXkXkXkXkXkXkXkXkX",
"kXkXkXkXkXkXkXkXkXkXkXkXkXkXX @ V Z G n n M n B &.&.&.&.B f f V w p r r r u -     kXkXkXkXkXkXkXkXkXkXkXkX",
"kXkXkXkXkXkXkXkXkXkXkX    : x x <.<.<.A H H H ( m.m.m.m.x.A 0 *   * q i e J 7 .   kXkXkXkXkXkXkXkXkXkXkXkX",
"kXkXkXkXkXkXkXkXkXkXkX    < b $.>.>.Y Z e Z C ( N.N.N.N.x.e Z *   + q e e J 7     kXkXkXkXkXkXkXkXkXkXkXkX",
"kXkXkXkXkXkXkXkXkXkXkX    < b $.>.>.<.Y Y U l 7.N.N.N.N.x.G l &   ; P.U.G.@.X.    kXkXkXkXkXkXkXkXkXkXkXkX",
"kXkXkXkXkXkXkXkXkXkXkX    < m m =.4.4.4.>.$.b ,.N.N.N.N.k.$.m :   5 qXuX5X,XU.O   kXkXkXkXkXkXkXkXkXkXkXkX",
"kXkXkXkXkXkXkXkXkXkXkX    : x x *.>.>.4.4.%.$.,.m.m.m.m.k.m m :   5 6X6X3X>XK..   kXkXkXkXkXkXkXkXkXkXkXkX",
"kXkXkXkXkXkXkXkXkXkXkXkXkXkX@ @ x b *.4.4.>.>.4.6.6.6.6.>.b b f , , % % % + % kXkXkXkXkXkXkXkXkXkXkXkXkXkX",
"kXkXkXkXkXkXkXkXkXkXkXkXkXkX    c $.%.>.4.4.4.4.4.4.4.4.=.$.b d s ,           kXkXkXkXkXkXkXkXkXkXkXkXkXkX",
"kXkXkXkXkXkXkXkXkXkXkXkXkXkX    5 z l U U h g g g g g g f s 1 < > #   kX    kXkXkXkXkXkXkXkXkXkXkXkXkXkXkX",
"kXkXkXkXkXkXkXkXkXkXkXkXkXkX    - r 6 6 t .       X                 kXkXkXkXkXkXkXkXkXkXkXkXkXkXkXkXkXkXkX",
"kXkXkXkXkXkXkXkXkXkXkXkXkXkX. . 6 6 r r t +                         kXkXkXkXkXkXkXkXkXkXkXkXkXkXkXkXkXkXkX",
"kXkXkXkXkXkXkXkXkXkXkX    % 3 t p e p r 6 O     kXkXkXkXkXkXkXkXkXkXkXkXkXkXkXkXkXkXkXkXkXkXkXkXkXkXkXkXkX",
"kXkXkXkXkXkXkXkXkXkXkX    + r t i J p 6 t +     kXkXkXkXkXkXkXkXkXkXkXkXkXkXkXkXkXkXkXkXkXkXkXkXkXkXkXkXkX",
"kXkXkXkXkXkXkXkXkXkXkX    * y p i C q y 7 +     kXkXkXkXkXkXkXkXkXkXkXkXkXkXkXkXkXkXkXkXkXkXkXkXkXkXkXkXkX",
"kXkXkXkXkXkXkXkXkXkXkX    * J J J J J J a &     kXkXkXkXkXkXkXkXkXkXkXkXkXkXkXkXkXkXkXkXkXkXkXkXkXkXkXkXkX",
"kXkXkXkXkXkXkXkXkXkXkX    * 0 0 0 0 0 q 0 +     kXkXkXkXkXkXkXkXkXkXkXkXkXkXkXkXkXkXkXkXkXkXkXkXkXkXkXkXkX",
"kXkXkXkXkXkXkXkXkXkXkXkXkXkXo o . . . . . kXkXkXkXkXkXkXkXkXkXkXkXkXkXkXkXkXkXkXkXkXkXkXkXkXkXkXkXkXkXkXkX",
"kXkXkXkXkXkXkXkXkXkXkXkXkXkX              kXkXkXkXkXkXkXkXkXkXkXkXkXkXkXkXkXkXkXkXkXkXkXkXkXkXkXkXkXkXkXkX",
"kXkXkXkXkXkXkXkXkXkXkXkXkXkX            kXkXkXkXkXkXkXkXkXkXkXkXkXkXkXkXkXkXkXkXkXkXkXkXkXkXkXkXkXkXkXkXkX",
"kXkXkXkXkXkXkXkXkXkXkXkXkXkXkXkXkXkXkXkXkXkXkXkXkXkXkXkXkXkXkXkXkXkXkXkXkXkXkXkXkXkXkXkXkXkXkXkXkXkXkXkXkX",
"kXkXkXkXkXkXkXkXkXkXkXkXkXkXkXkXkXkXkXkXkXkXkXkXkXkXkXkXkXkXkXkXkXkXkXkXkXkXkXkXkXkXkXkXkXkXkXkXkXkXkXkXkX"
};
