/* XPM */
static char *result[] = {
/* columns rows colors chars-per-pixel */
"54 57 209 2 ",
"   c #000001",
".  c #020C05",
"X  c #080706",
"o  c #130D08",
"O  c #041C08",
"+  c #191606",
"@  c #1A1917",
"#  c #26160B",
"$  c #371E0E",
"%  c #251410",
"&  c #2D1A12",
"*  c #371F11",
"=  c #082B0D",
"-  c #083B09",
";  c #073E15",
":  c #083C15",
">  c #172913",
",  c #3B2212",
"<  c #3C211A",
"1  c #2A2520",
"2  c #43271C",
"3  c #58351E",
"4  c #4F3B1F",
"5  c #6D3B1C",
"6  c #6D3917",
"7  c #723E1E",
"8  c #4A2B22",
"9  c #512D21",
"0  c #4B3A2B",
"q  c #6F3F20",
"w  c #643924",
"e  c #753E20",
"r  c #15430E",
"t  c #0C4316",
"y  c #144814",
"u  c #0D5E1D",
"i  c #1C5619",
"p  c #08400A",
"a  c #215215",
"s  c #275618",
"d  c #194825",
"f  c #295925",
"g  c #3F5D24",
"h  c #0D6E25",
"j  c #0D6321",
"k  c #0E7B29",
"l  c #1B7528",
"z  c #127D29",
"x  c #147425",
"c  c #227F26",
"v  c #404015",
"b  c #66431E",
"n  c #74411F",
"m  c #415B24",
"M  c #49492C",
"N  c #684721",
"B  c #674526",
"V  c #754321",
"C  c #784422",
"Z  c #7C4C2A",
"A  c #794A24",
"S  c #75562B",
"D  c #6E5131",
"F  c #446025",
"G  c #597125",
"H  c #577934",
"J  c #736D33",
"K  c #2A4B6B",
"L  c #1C6F72",
"P  c #27425D",
"I  c #504746",
"U  c #6B5A45",
"Y  c #6F5A50",
"T  c #7D705C",
"R  c #747270",
"E  c #83532E",
"W  c #835331",
"Q  c #8A5C31",
"!  c #855837",
"~  c #804F2C",
"^  c #936B38",
"/  c #9D743D",
"(  c #9A7F3F",
")  c #8B6A2F",
"_  c #A87A3B",
"`  c #81541B",
"'  c #9A7647",
"]  c #987857",
"[  c #A17643",
"{  c #A47A42",
"}  c #A87E46",
"|  c #A37A54",
" . c #A67D58",
".. c #827561",
"X. c #158029",
"o. c #1A8329",
"O. c #278826",
"+. c #299129",
"@. c #379B29",
"#. c #379628",
"$. c #258134",
"%. c #31823D",
"&. c #3DA129",
"*. c #658E1D",
"=. c #418826",
"-. c #4E9C2B",
";. c #728E36",
":. c #749134",
">. c #6A9034",
",. c #42A629",
"<. c #46A62A",
"1. c #2A8C42",
"2. c #7E875C",
"3. c #B19D14",
"4. c #89BE15",
"5. c #BAA00F",
"6. c #9C803F",
"7. c #AB853C",
"8. c #AE893A",
"9. c #B79635",
"0. c #B28E33",
"q. c #89B125",
"w. c #C9B41A",
"e. c #CDB624",
"r. c #D2BD21",
"t. c #C9A835",
"y. c #A1D314",
"u. c #9BCA18",
"i. c #E0DB08",
"p. c #E7E70A",
"a. c #F3EB0B",
"s. c #E6F304",
"d. c #F6F206",
"f. c #FFFF00",
"g. c #FEF908",
"h. c #FAF507",
"j. c #E4F91C",
"k. c #D5C021",
"l. c #E2C927",
"z. c #EDD429",
"x. c #F1D828",
"c. c #D9DC1F",
"v. c #AC834A",
"b. c #AB8044",
"n. c #AD8559",
"m. c #B9934E",
"M. c #899868",
"N. c #B9946C",
"B. c #BE9A74",
"V. c #B28B66",
"C. c #B6A376",
"Z. c #C49649",
"A. c #D29F4E",
"S. c #D4A24E",
"D. c #DBA853",
"F. c #CFA643",
"G. c #E3B749",
"H. c #E1AE54",
"J. c #E5B155",
"K. c #C19D73",
"L. c #CAA77F",
"P. c #C9A578",
"I. c #D2B17F",
"U. c #005D81",
"Y. c #2B4E9B",
"T. c #37508F",
"R. c #425D9D",
"E. c #425285",
"W. c #516CA8",
"Q. c #28B7DB",
"!. c #0BBBFA",
"~. c #1AC5E8",
"^. c #878482",
"/. c #B09B91",
"(. c #BBB090",
"). c #9B9DAA",
"_. c #8D9CB4",
"`. c #99A5BD",
"'. c #C0AE80",
"]. c #CEAC83",
"[. c #D0AE83",
"{. c #D6B48B",
"}. c #D6B588",
"|. c #DDBC93",
" X c #C0B79B",
".X c #DAC39C",
"XX c #E4C69D",
"oX c #E0C197",
"OX c #DCC3A6",
"+X c #EBCEA5",
"@X c #E6CBA3",
"#X c #F2D6AE",
"$X c #EBD8BB",
"%X c #F7DCB1",
"&X c #EDD0A7",
"*X c #FEE5BC",
"=X c #FFE9BF",
"-X c #99AAD0",
";X c #D4D8CF",
":X c #E9DCC8",
">X c #FFEAC2",
",X c #FEE7C2",
"<X c #FFF1DA",
"1X c #E9E9EA",
"2X c #EAF3EB",
"3X c #FFF6E1",
"4X c #FFFFFE",
"5X c #EFEEF1",
"6X c #5EB054",
/* pixels */
"6X6X6X6X6X6X6X6X6X6X6X6X6X6X6X6X6X6X6X  X h k z z k z z z z h .   6X6X6X6X6X6X6X6X6X6X6X6X6X6X6X6X6X6X6X6X6X",
"6X6X6X6X6X6X6X6X6X6X6X6X6X6X6X6X6X6X. . O x X.z z z z z z z x O . . 6X6X6X6X6X6X6X6X6X6X6X6X6X6X6X6X6X6X6X6X",
"6X6X6X6X6X6X6X6X6X6X6X6X6X6X6X6X    : h x @.@.@.&.@.&.&.&.&.#.x h :     6X6X6X6X6X6X6X6X6X6X6X6X6X6X6X6X6X6X",
"6X6X6X6X6X6X6X6X6X6X6X6X6X6X6X6X    : z z ,.<.,.<.,.<.,.,.<.&.z z ;     6X6X6X6X6X6X6X6X6X6X6X6X6X6X6X6X6X6X",
"6X6X6X6X6X6X6X6X6X6X6X6X6X6X  . : : u z z O.+.+.+.+.+.+.+.+.O.z k u : : .   6X6X6X6X6X6X6X6X6X6X6X6X6X6X6X6X",
"6X6X6X6X6X6X6X6X6X6X6X6X6X    . h z z z k k z z k k z z k z k k z z z h .     6X6X6X6X6X6X6X6X6X6X6X6X6X6X6X",
"6X6X6X6X6X6X6X6X6X6X6X6X6X. . O x X.z z z z z z l X.z z z o.z z o.z z x O . . 6X6X6X6X6X6X6X6X6X6X6X6X6X6X6X",
"6X6X6X6X6X6X6X6X6X6X6X    : h x @.&.&.&.@.,.&.&.@.&.&.@.,.@.,.@.@.&.&.@.x h :     6X6X6X6X6X6X6X6X6X6X6X6X6X",
"6X6X6X6X6X6X6X6X6X6X6X    ; z X.@.,.,.&.,.&.&.,.,.,.,.,.&.&.,.&.&.&.,.&.X.k t     6X6X6X6X6X6X6X6X6X6X6X6X6X",
"6X6X6X6X6X6X6X6X6X6X6X    y +.+.>.;.q.y.y.y.y.q.;.:.;.;.q.y.u.:.:.:.:.>.#.+.y     6X6X6X6X6X6X6X6X6X6X6X6X6X",
"6X6X6X6X6X6X6X6X6X6X6X    a <.<.' { r.f.f.f.f.r.[ { { { r.f.h.8.[ { } 6.<.<.a     6X6X6X6X6X6X6X6X6X6X6X6X6X",
"6X6X6X6X6X6X6X6X6X6X6X. X s <.-.6._ r.f.f.d.d.r.8.8.{ { r.f.h.9.8.7.[ 6.-.-.s . . 6X6X6X6X6X6X6X6X6X6X6X6X6X",
"6X6X6X6X6X6X6X6X6X  . j h H 6.6.{ { r.f.d.9.7.r.h.p.8.[ r.f.f.d.d.e.{ _ 6.6.H h j .   6X6X6X6X6X6X6X6X6X6X6X",
"6X6X6X6X6X6X6X6X6X  . h k H 7.' ' [ r.f.d.7.' r.f.d.8.[ r.f.f.f.f.r.[ [ { [ H X.h .   6X6X6X6X6X6X6X6X6X6X6X",
"6X6X6X6X{ b.].6XD , , m g ) m.Z.r.r.l.z.z.r.r.r.r.r.r.r.l.z.z.r.r.r.k.e.7.{ J m g , , D 6X].v._ 6X6X6X6X6X6X",
"6X6X6X{ { v.[.{. .V N e 7 _ J.G.g.f.z.D.G.g.f.r.[ 7.d.f.z.D.D.} ' r.f.d.8.[ Q 7 e V q  .{.].v.{ { 6X6X6X6X6X",
"6X6X6X/ ' { }.|.V.E E A V _ G.G.a.d.z.G.G.a.d.e.' 0.d.f.z.S.S.v.v.e.d.p.9.8.) C A E E n.|.[.{ ' _ 6X6X6X6X6X",
"6X6X6XC V ! &X*X#X#XXXv./ r.g.a.9.7.r.h.a.9.8.7.[ 8.d.f.r.} v.L.{.m.8.9.a.d.e./ b.@X#X%X*X&X! A C 6X6X6X6X6X",
"6X6X6XV n W #X>X,X=X%Xv.[ r.f.d.8.[ r.f.d.8.[ _ _ 8.d.f.r._ v.[.{.N.' 8.d.g.k.' v.%X,X,X>X#XW 7 B 6X6X6X6X6X",
"6X6X6X6Xn E V.N.}.&XoX^ Q 0.r.e.Z.m.l.f.h.k.r.t.m.Z.5.5.9.N.K.XX&XP._ 7.l.x.t.{ v.oX+X{.N.N.Z V 6X6X6X6X6X6X",
"6X6X6X6X6X6Xe 5 | |.].Z 7 Q { } D.D.z.f.f.f.f.x.H.S.C 5 n.{.|.*X=XI._ b.D.D.Z.{ v.].|.| 5 5 6X6X6X6X6X6X6X6X",
"6X6X6X6X6X6XV q ] (.(.Q ` Q _ _ D.H.z.g.h.d.d.l.A.Z.! A n.|.|.%X*X}.b.v.A.A.Z.8.v.(. X] 5 V 6X6X6X6X6X6X6X6X",
"6X6X6X6X6X6X6X6XQ.!.Q.c.d.3.V E A.H.G.G.D.8.8.^ ~ E K.]..X*X*X*X=X@X].P.E A 3.d.j.Q.!.Q.6X6X6X6X6X6X6X6X6X6X",
"6X6X6X6X6X6X6X6X6X~.~.j.f.5.5 A S.H.H.D.D.7.} Q 7 Z L.}.@X=X=X,X,X&X{.].Z 5 5.f.j.~.!.6X6X6X6X6X6X6X6X6X6X6X",
"6X6X6X6X6X6X6X6XU.U.L s.f.w.Q Q S S / Z.m.^ W ' | n.oX+X+X+XXXB.N.] U U ! Q w.f.p.L U.U.6X6X6X6X6X6X6X6X6X6X",
"6X6X6X6X6X6X6X6X    + p.f.r.} ^ X   9 { / C 7 | {.|.*X=X+X}.].A q *   X ^ } k.f.p.+     6X6X6X6X6X6X6X6X6X6X",
"6X6X6X6X6X6X6X6X    + i.g.e./ ^ 1 @ M | ' 7 q  .|.oX%X=XXX].B.D q 8 @ 1 ^ ' e.g.i.+     6X6X6X6X6X6X6X6X6X6X",
"6X6X6X6X6X6X6X6X    + t.G._ n ! ;X1X`.T.E.q q N.*X%X,X,XK.~ D E.T._.1X;X! C _ G.t.+     6X6X6X6X6X6X6X6X6X6X",
"6X6X6X6X6X6X6X6X    + Z.J._ 7 ! 1X4X-XY.T.w 5 N.,X*X*X,XV.7 w E.Y.-X4X5X! 7 _ J.Z.+     6X6X6X6X6X6X6X6X6X6X",
"6X6X6X6X6X6X6X6X6X  o D S 3 $ 0 :X3X`.Y.R././.@X*X*X*X,XOX/./.R.Y.`.3X:X0 $ 4 S D +   6X6X6X6X6X6X6X6X6X6X6X",
"6X6X6X6X6X6X6X6X6X6X6X        @ @X>X).Y.W.5X4X3X*X*X*X*X3X4X5XR.Y.).>X@X@         6X6X6X6X6X6X6X6X6X6X6X6X6X",
"6X6X6X6X6X6X6X6X6X6X6X        @ .X%X).R.W.1X4X<X=X*X*X,X<X4X5XW.R.).%XoX@         6X6X6X6X6X6X6X6X6X6X6X6X6X",
"6X6X6X6X6X6X6X6X6X6X6X6X6X    o ' m.].$X$X>X,X,X=X*X*X*X,X,X,X$X$X].v.' o     6X6X6X6X6X6X6X6X6X6X6X6X6X6X6X",
"6X6X6X6X6X6X6X6X6X6X6X6X6X6X  o ^ { [.>X>X=X*X=X*X=X*X=X,X,X,X,X,XI.{ ^ o X 6X6X6X6X6X6X6X6X6X6X6X6X6X6X6X6X",
"6X6X6X6X6X6X6X6X6X6X6X6X6X= ; y S Q | N.B.XX+X+X+X+X+X+X@X@X@XB.N.| Q E : : = 6X6X6X6X6X6X6X6X6X6X6X6X6X6X6X",
"6X6X6X6X6X6X6X6X6X6X6X    ; k l b 7 n n Z L.{.{.}.{.}.{.{.{.].Z n n n N l z : X   6X6X6X6X6X6X6X6X6X6X6X6X6X",
"6X6X6X6X6X6X6X6X6X6X6X. X d $.1.b b b N S C.C.L.'.'. X].(.'.(.Z b b q N c 1.d X X 6X6X6X6X6X6X6X6X6X6X6X6X6X",
"6X6X6X6X6X6X6X6X6X  X P K _.2X;Xf r i l l $.+.$.c c c c c c l l z i - f ;X5X^.< < X   6X6X6X6X6X6X6X6X6X6X6X",
"6X6X6X6X6X6X6X6X6X  . K K `.4X2Xf p j k z k k k z k k k z z z k X.u p f 5X4X).2 2 X   6X6X6X6X6X6X6X6X6X6X6X",
"6X6X6X6X6X6X6X6X% < < I I R ^.R M v f k k z k k z z k k k k k k k f s b 2.^.Y 3 3 , , # 6X6X6X6X6X6X6X6X6X6X",
"6X6X6X6X6X6X    , V V n n $   X b n F z k k x k k k k k k k k k X.F n 6 X   $ e 7 7 7 $     6X6X6X6X6X6X6X6X",
"6X6X6X6X6X6X    < ~ Z W ! 2   o b n F x l l x x O.O.O.O.c l l l x F N b o . < ! W ~ ~ 2     6X6X6X6X6X6X6X6X",
"6X6X6X6X6X6X    U L.[.&X#X2.- r =.<.G n b b b 3.s.s.s.s.3.N N N b G ,.=.r - 2.%X+X].].U     6X6X6X6X6X6X6X6X",
"6X6X6X6X6X6X    U |.|.*X>XM.p y @.,.G 7 n n n w.f.f.f.f.5.q e n n G &.&.y - M.>X*X|.|.U     6X6X6X6X6X6X6X6X",
"6X6X6X6X6X6X6X6X0 U U T ..M = = O.+.%.G G F m *.4.4.4.4.*.m F G G =.+.O.= = M ..T U U 0 6X6X6X6X6X6X6X6X6X6X",
"6X6X6X6X6X6X6X6X6X      .     . h k +.<.&.X.k k k k k h k k X.&.,.+.k h .             6X6X6X6X6X6X6X6X6X6X6X",
"6X6X6X6X6X6X6X6X6X            . j h O.&.@.o.z z z z k z o.z o.@.&.O.h u .             6X6X6X6X6X6X6X6X6X6X6X",
"6X6X6X6X6X6X6X6X6X6X6X6X6X      . . t X.o.@.&.&.&.&.&.&.@.&.@.o.X.t . .       6X6X6X6X6X6X6X6X6X6X6X6X6X6X6X",
"6X6X6X6X6X6X6X6X6X6X6X6X6X6X        ; z X.@.<.<.,.,.<.,.,.,.&.X.X.;         6X6X6X6X6X6X6X6X6X6X6X6X6X6X6X6X",
"6X6X6X6X6X6X6X6X6X6X6X6X6X# , * % # > ; t i a a a a a a a a i t ; > % % , , # 6X6X6X6X6X6X6X6X6X6X6X6X6X6X6X",
"6X6X6X6X6X6X6X6X6X6X6X    , V N 9 8 %                             % 8 9 V V ,     6X6X6X6X6X6X6X6X6X6X6X6X6X",
"6X6X6X6X6X6X6X6X6X6X6X    , V e 9 9 & X X                     X X % 9 9 5 V ,     6X6X6X6X6X6X6X6X6X6X6X6X6X",
"6X6X6X6X6X6X6X6X6X6X6X    , V V q e 3 2 < X     6X6X6X6X      < < 3 N 5 V V ,     6X6X6X6X6X6X6X6X6X6X6X6X6X",
"6X6X6X6X6X6X6X6X6X6X6X    , V V V 7 w 8 2       6X6X6X6X    X 2 9 w C V V V ,     6X6X6X6X6X6X6X6X6X6X6X6X6X",
"6X6X6X6X6X6X6X6X6X6X6X6X6X# , , * , & % % X   6X6X6X6X6X6X  X % % & , , , , # 6X6X6X6X6X6X6X6X6X6X6X6X6X6X6X",
"6X6X6X6X6X6X6X6X6X6X6X6X6X6X              6X6X6X6X6X6X6X6X6X6X              6X6X6X6X6X6X6X6X6X6X6X6X6X6X6X6X",
"6X6X6X6X6X6X6X6X6X6X6X6X6X                6X6X6X6X6X6X6X6X6X6X                6X6X6X6X6X6X6X6X6X6X6X6X6X6X6X"
};
