/* XPM */
static char *result[] = {
/* columns rows colors chars-per-pixel */
"56 65 230 2 ",
"   c #000001",
".  c #0B0604",
"X  c #020D05",
"o  c #0C0B03",
"O  c #0B0908",
"+  c #160C0A",
"@  c #051306",
"#  c #061D06",
"$  c #1B150B",
"%  c #04171D",
"&  c #191714",
"*  c #27160C",
"=  c #351D0E",
"-  c #3A1F13",
";  c #241C17",
":  c #062B0E",
">  c #05230B",
",  c #0C360C",
"<  c #062D10",
"1  c #083E15",
"2  c #093411",
"3  c #143310",
"4  c #3B2212",
"5  c #382719",
"6  c #352E18",
"7  c #121D29",
"8  c #363029",
"9  c #45271C",
"0  c #5D341B",
"q  c #55361B",
"w  c #473718",
"e  c #663A1D",
"r  c #6C3B1B",
"t  c #673819",
"y  c #713E1C",
"u  c #4B2A20",
"i  c #4B2720",
"p  c #5E3823",
"a  c #502C20",
"s  c #693B20",
"d  c #733E20",
"f  c #0D440D",
"g  c #0C581C",
"h  c #1A4612",
"j  c #215215",
"k  c #2A5719",
"l  c #23401D",
"z  c #315625",
"x  c #0C6221",
"c  c #0E6E25",
"v  c #116B23",
"b  c #0E7B29",
"n  c #1B7528",
"m  c #127D29",
"M  c #1F7B27",
"N  c #22732A",
"B  c #26771F",
"V  c #524314",
"C  c #73401F",
"Z  c #79451F",
"A  c #69431E",
"S  c #676602",
"D  c #415E25",
"F  c #594B2B",
"G  c #6C432B",
"H  c #674725",
"J  c #754221",
"K  c #784522",
"L  c #7C4B2A",
"P  c #7B4B25",
"I  c #775429",
"U  c #725233",
"Y  c #466424",
"T  c #577724",
"R  c #567232",
"E  c #7F7C3A",
"W  c #3A526C",
"Q  c #335474",
"!  c #3A4F67",
"~  c #5A5143",
"^  c #715844",
"/  c #4C4F71",
"(  c #426F77",
")  c #7E6D52",
"_  c #916E19",
"`  c #86562B",
"'  c #875932",
"]  c #804E27",
"[  c #9D733D",
"{  c #8E6739",
"}  c #A47B3D",
"|  c #A77937",
" . c #966A46",
".. c #9A7645",
"X. c #8A6D51",
"o. c #A27643",
"O. c #A47B42",
"+. c #A97F43",
"@. c #A47A55",
"#. c #9C7C67",
"$. c #198229",
"%. c #258A27",
"&. c #368824",
"*. c #299029",
"=. c #369C29",
"-. c #389627",
";. c #258134",
":. c #3DA129",
">. c #46952A",
",. c #548730",
"<. c #728E36",
"1. c #689432",
"2. c #749234",
"3. c #42A629",
"4. c #45A62A",
"5. c #54A52E",
"6. c #7AA323",
"7. c #88BD15",
"8. c #91BC1F",
"9. c #938F37",
"0. c #AB843C",
"q. c #AE893A",
"w. c #B68A3B",
"e. c #B99834",
"r. c #81A42B",
"t. c #BBA52A",
"y. c #BAB738",
"u. c #BAA011",
"i. c #CDB913",
"p. c #C1A42D",
"a. c #C5AB29",
"s. c #C8AF27",
"d. c #D2BD21",
"f. c #C6A13C",
"g. c #99C71A",
"h. c #A1D214",
"j. c #CAC907",
"k. c #D0D000",
"l. c #DCCB19",
"z. c #DFD017",
"x. c #E5D906",
"c. c #E9DE10",
"v. c #E4D715",
"b. c #F1DF1D",
"n. c #EEE50C",
"m. c #E4EF05",
"M. c #F3ED09",
"N. c #E6F204",
"B. c #F6F206",
"V. c #FFFF00",
"C. c #FBF707",
"Z. c #F5E915",
"A. c #ECE116",
"S. c #EFD629",
"D. c #D8C222",
"F. c #AC8449",
"G. c #B88A43",
"H. c #B28B55",
"J. c #B08A55",
"K. c #918567",
"L. c #B38D68",
"P. c #BA956F",
"I. c #BA9565",
"U. c #AE8F6C",
"Y. c #BFA37D",
"T. c #8E8F59",
"R. c #C79949",
"E. c #D19F4C",
"W. c #CEA748",
"Q. c #D5A74B",
"!. c #DEAC52",
"~. c #D7A651",
"^. c #C3A252",
"/. c #E3B649",
"(. c #E6B94A",
"). c #E0AD53",
"_. c #E4B154",
"`. c #C39E70",
"'. c #C8A679",
"]. c #D2B17F",
"[. c #2A4D9B",
"{. c #33539B",
"}. c #355092",
"|. c #556EA7",
" X c #6879A4",
".X c #4F649B",
"XX c #3FA1B4",
"oX c #4897A1",
"OX c #6694AC",
"+X c #0CA6DD",
"@X c #02BCFE",
"#X c #00A8E8",
"$X c #1097C8",
"%X c #7ED2E2",
"&X c #96908A",
"*X c #BBA190",
"=X c #B4AFAB",
"-X c #89A1AE",
";X c #C0AE80",
":X c #CBAA83",
">X c #D6B48B",
",X c #DBBA8D",
"<X c #D5B586",
"1X c #DBBC93",
"2X c #CDB18D",
"3X c #E4C59B",
"4X c #D6C5AC",
"5X c #EACDA4",
"6X c #E5CBA5",
"7X c #EED3A8",
"8X c #F1D5AD",
"9X c #F5DDB7",
"0X c #E9D6BA",
"qX c #FEE6BD",
"wX c #FFE8BE",
"eX c #FBE0B5",
"rX c #DEC29F",
"tX c #B4BAC9",
"yX c #A3C8D7",
"uX c #FFEAC2",
"iX c #FDEAC9",
"pX c #F8EDDC",
"aX c #D7DBE3",
"sX c #CDD6EA",
"dX c #FDF6E7",
"fX c #FEFEFE",
"gX c #FFFCF7",
"hX c #E6E7E7",
"jX c #D5D1CF",
"kX c None",
/* pixels */
"kXkXkXkXkXkXkXkXkXkXkXkXkXkXkXkXkXkXkXkXkXkXkXkXkXkXkXkXkXkXkXkXkXkXkXkXkXkXkXkXkXkXkXkXkXkXkXkXkXkXkXkXkXkXkXkX",
"kXkXkXkXkXkXkXkXkXkXkXkXkXkXkXkXkXkXkXkXkXkXkXkXkXkXkXkXkXkXkXkXkXkXkXkXkXkXkXkXkXkXkXkXkXkXkXkXkXkXkXkXkXkXkXkX",
"kXkXkXkXkXkXkXkXkXkXkXkXkXkXkXkXkXkXkXkXkXkX    x b m b m #   kXkXkXkXkXkXkXkXkXkXkXkXkXkXkXkXkXkXkXkXkXkXkXkXkX",
"kXkXkXkXkXkXkXkXkXkXkXkXkXkXkXkXkXkXkXkXkXkX    g m b m m >     kXkXkXkXkXkXkXkXkXkXkXkXkXkXkXkXkXkXkXkXkXkXkXkX",
"kXkXkXkXkXkXkXkXkXkXkXkXkXkXkXkXkXkXkXkXkXkX@ @ v m $.m $.< o @ kXkXkXkXkXkXkXkXkXkXkXkXkXkXkXkXkXkXkXkXkXkXkXkX",
"kXkXkXkXkXkXkXkXkXkXkXkXkXkXkXkXkX    x b %.-.-.>.=.:.:.:.-.-.*.m b <     kXkXkXkXkXkXkXkXkXkXkXkXkXkXkXkXkXkXkX",
"kXkXkXkXkXkXkXkXkXkXkXkXkXkXkXkXkX    x b %.:.3.3.3.3.3.3.3.3.=.m b #     kXkXkXkXkXkXkXkXkXkXkXkXkXkXkXkXkXkXkX",
"kXkXkXkXkXkXkXkXkXkXkXkXkXkXkXkX> 1 1 c b $.*.*.*.*.*.*.*.*.*.%.b m g 1 1     kXkXkXkXkXkXkXkXkXkXkXkXkXkXkXkXkX",
"kXkXkXkXkXkXkXkXkXkXkXkXkXkX    : $.b b b b b b m m b m b b m b m m m m x     kXkXkXkXkXkXkXkXkXkXkXkXkXkXkXkXkX",
"kXkXkXkXkXkXkXkXkXkXkXkXkXkXX X 2 $.$.b m $.$.$.m m m m m $.m M m m m m x @ X kXkXkXkXkXkXkXkXkXkXkXkXkXkXkXkXkX",
"kXkXkXkXkXkXkXkXkXkXkXkX    g c $.:.:.=.:.:.:.:.=.3.:.:.:.=.=.=.:.:.:.:.-.c c <     kXkXkXkXkXkXkXkXkXkXkXkXkXkX",
"kXkXkXkXkXkXkXkXkXkXkXkX  X x b %.:.:.:.:.:.:.:.3.:.3.:.:.4.3.4.:.:.:.4.=.m b <     kXkXkXkXkXkXkXkXkXkXkXkXkXkX",
"kXkXkXkXkXkXkXkXkXkXkXkX    N *.>.2.2.g.h.8.<.2.8.h.h.h.h.r.<.6.h.h.r.<.1.*.*.2     kXkXkXkXkXkXkXkXkXkXkXkXkXkX",
"kXkXkXkXkXkXkXkXkXkXkXkX  X &.3.1.O.F.n.V.v.O.+.c.V.V.V.V.p.o.e.V.V.p.o.9.4.4.3     kXkXkXkXkXkXkXkXkXkXkXkXkXkX",
"kXkXkXkXkXkXkXkXkXkXkXkXX @ &.5.2.q.w.v.B.z.q.q.v.B.C.V.V.a.0.t.M.B.a.q.9.5.5.h X X kXkXkXkXkXkXkXkXkXkXkXkXkXkX",
"kXkXkXkXkXkXkXkXkX    < v v <.[ t.B.M.t.0.a.B.M.t.0.a.V.V.B.B.v.q.q.z.B.b.W.~.,.c g     kXkXkXkXkXkXkXkXkXkXkXkX",
"kXkXkXkXkXkXkXkXkX    2 $.m { 0.t.V.V.e...p.V.V.e...e.V.V.V.V.c.} O.v.V.C._._.,.b x     kXkXkXkXkXkXkXkXkXkXkXkX",
"kXkXkXkXkXO.I.kX'.9 = 6 Y Y t.d.d.d.d.f.G.f.d.d.d.d.v.V.V.V.V.c.O.o.a.d.D.S.S.9.R R 4 - ^ kX].F.+.kXkXkXkXkXkXkX",
"kXkXkXkXO.} I.>X:X' Z A d P x.V.z...O.Q.).E.o.O.c.V.V.V.V.V.V.c.0.....} e.C.V.a.O.[ J C L.,X:XF.O.kXkXkXkXkXkXkX",
"kXkXkXkX[ [ I.1X<X .I I K P n.V.z.F.F.W./.W.O.O.c.V.V.V.V.B.B.v.F.F.F...e.M.B.s.q.| P Z L.1X:Xo...kXkXkXkXkXkXkX",
"kXkXkXkXK J L.qX9X8X8X].[ } n.V.b.~.~.Z.C.l.O.O.c.V.V.V.V.a.0.G.:X:XH.} } q.q.l.B.v.[ [ <XwX3X` P kXkXkXkXkXkXkX",
"kXkXkXkXC y L.uXwX9XwX,X} 0.n.V.b.!./.Z.V.v.O.O.c.V.V.V.V.t.o.J.<X>XH.} } } o.z.V.M.q.} 1XuX7XL J kXkXkXkXkXkXkX",
"kXkXkXkXkXkX..P.Y.yXyX-X} 0.n.V.b.G.R.n.V.M.d.d.M.V.M.d.d.^.I.'.5X5X,X<X'.o.O.t.D.a.oXoX&XI.L.L y kXkXkXkXkXkXkX",
"kXkXkXkXkXkXkXd F +X@XXXO.} n.V.z.O.O.n.V.V.V.V.V.V.v.o.o.'.>X3XqXqXwXwX7XF.O.O.O.T.@X@X( y y kXkXkXkXkXkXkXkXkX",
"kXkXkXkXkXkXkXJ G $X#XoX[ | v.C.D...} c.C.C.C.C.C.C.v.O.O.'.1X3XqXqXeXqX3Xo.[ 0.q.T.+X#X( C J kXkXkXkXkXkXkXkXkX",
"kXkXkXkXkXkXkXkXkX% % 8 ] ] E.(.w.P P R._./././././.Q.O.O.1X9XqXqXqX6X1XY.P J i.C.j.% % kXkXkXkXkXkXkXkXkXkXkXkX",
"kXkXkXkXkXkXkXkXkX    * d d R.).w.C Z R.!.!.!.~.!.).E.o.} 3XiXqXuXwX3X>X`.J r i.V.k.o   kXkXkXkXkXkXkXkXkXkXkXkX",
"kXkXkXkXkXkXkXkXkX    w u.u.| | ` = 9 | R.R.!.!.w.| F.P.`.1X5XrXP.P.X.^ ^ { ' j.V.k.o   kXkXkXkXkXkXkXkXkXkXkXkX",
"kXkXkXkXkXkXkXkXkX    S V.V._ r 9     ' O.G.!.!.` y  .>X>X>X1XP.d d $   * [ O.z.V.k.o   kXkXkXkXkXkXkXkXkXkXkXkX",
"kXkXkXkXkXkXkXkXkX    S C.M._ Z a & & X...J.Q.Q.{ L  .,X>X:X:XU.G s 5 & 8 [ ..l.C.j.o   kXkXkXkXkXkXkXkXkXkXkXkX",
"kXkXkXkXkXkXkXkXkX    V (.Q.` y K.hXaX|.{./ P P L.'.>X9X9X@.] ^ }.}.tXaX4XL K w.(.e.O   kXkXkXkXkXkXkXkXkXkXkXkX",
"kXkXkXkXkXkXkXkXkX    F _.).` y U.fXfX X[./ C C `.>XrXqXqX .r p {.{.sXfXaXK Z G._.G.O   kXkXkXkXkXkXkXkXkXkXkXkX",
"kXkXkXkXkXkXkXkXkXkXkXw I I 9 = X.pXpX|.[.|.*X*XrX5X8XqXiX2X*X&X{.{.tXdX4X9 4 F I H X   kXkXkXkXkXkXkXkXkXkXkXkX",
"kXkXkXkXkXkXkXkXkXkXkXkX        ~ iXqX X[.OXfXfXiXqXqXqXuXdXfXsX{.{.=XwX2X@         kXkXkXkXkXkXkXkXkXkXkXkXkXkX",
"kXkXkXkXkXkXkXkXkXkXkXkX        ~ 9X8X X.X-XgXgXiXuXqXqXuXdXfXsX|..X=X9X2XO .       kXkXkXkXkXkXkXkXkXkXkXkXkXkX",
"kXkXkXkXkXkXkXkXkXkXkXkXkXkX    i J.@.rX0X0XiXiXuXuXqXqXqXuXuXuX0X0XY.@. .9 9 +     kXkXkXkXkXkXkXkXkXkXkXkXkXkX",
"kXkXkXkXkXkXkXkXkXkXkXkXkXkX    5 O.O.7XiXuX9XuXqXqXqXqXwXwXwXwXwXwX`.} { u u $     kXkXkXkXkXkXkXkXkXkXkXkXkXkX",
"kXkXkXkXkXkXkXkXkXkXkXkXkXkX    5 ' ' L.L.:X5X5X5X5X5X5X5X5X5X1XP.P...' I u i 9 = =     kXkXkXkXkXkXkXkXkXkXkXkX",
"kXkXkXkXkXkXkXkXkXkXkXkXkXkX    * J C C r { >X>X>X>X>X>X,X<X>XY.C y s J s i i s K t .   kXkXkXkXkXkXkXkXkXkXkXkX",
"kXkXkXkXkXkXkXkXkXkXkXkXkXkX    * J G U ' X.Y.Y.'.;X;X;X'.*X;XU.H H s e 0 i 9 q e q     kXkXkXkXkXkXkXkXkXkXkXkX",
"kXkXkXkXkXkXkXkXkXkXkXkXkXkX    7 W / jXdX-X$ & v ;.;.M ;.;.N ;.n n 3 . o . . . . . kXkXkXkXkXkXkXkXkXkXkXkXkXkX",
"kXkXkXkXkXkXkXkXkXkXkXkXkXkX    7 Q }.aXfX=X    g $.m m b m b b m b >               kXkXkXkXkXkXkXkXkXkXkXkXkXkX",
"kXkXkXkXkXkXkXkXkXkXkXkX    = - 8 Q Q &X*X) > > x m b b m m b m m m 6 4 *       kXkXkXkXkXkXkXkXkXkXkXkXkXkXkXkX",
"kXkXkXkXkXkXkXkXkXkXkXkX  . 0 K ~ Q Q p J V f f x b b b b b b b b m D Z 0     kXkXkXkXkXkXkXkXkXkXkXkXkXkXkXkXkX",
"kXkXkXkXkXkXkXkXkXkXkXkX  . t y F W ! F s V h h B *.%.&.%.M n n n n Y Z q @ @ kXkXkXkXkXkXkXkXkXkXkXkXkXkXkXkXkX",
"kXkXkXkXkXkXkXkXkXkXkXkX    t y d G s * . * e A j.N.N.N.N._ H H H A ,.>.-.v c :     kXkXkXkXkXkXkXkXkXkXkXkXkXkX",
"kXkXkXkXkXkXkXkXkXkXkXkX  . a y s d C +   * J J k.V.V.V.V._ d d y d T 3.-.m m :     kXkXkXkXkXkXkXkXkXkXkXkXkXkX",
"kXkXkXkXkXkXkXkXkXkXkXkX  . X.@.L.P.L.;   $ D Y 6.7.7.7.g.T Y Y T T >.4.=.m m :     kXkXkXkXkXkXkXkXkXkXkXkXkXkX",
"kXkXkXkXkXkXkXkXkXkXkXkX  O U.1X5XuXqX8   : b b b b b c b b b $.:.:.3.3.=.m m <     kXkXkXkXkXkXkXkXkXkXkXkXkXkX",
"kXkXkXkXkXkXkXkXkXkXkXkX  O K.*X2X6XrX8   < b m m $.$.$.m $.m $.3.3.:.:.-.c c :     kXkXkXkXkXkXkXkXkXkXkXkXkXkX",
"kXkXkXkXkXkXkXkXkXkXkXkXkXkX* $ & & & 3 , g m m =.:.=.:.:.:.=.:.3.3.$.$.x @ X kXkXkXkXkXkXkXkXkXkXkXkXkXkXkXkXkX",
"kXkXkXkXkXkXkXkXkXkXkXkXkXkX          , f g m m :.:.:.:.4.4.4.3.3.3.$.$.x     kXkXkXkXkXkXkXkXkXkXkXkXkXkXkXkXkX",
"kXkXkXkXkXkXkXkXkXkXkXkXkXkXkX    kX  # > : 1 1 g j j j j j j k Y Y z z 8 X   kXkXkXkXkXkXkXkXkXkXkXkXkXkXkXkXkX",
"kXkXkXkXkXkXkXkXkXkXkXkXkXkXkXkXkXkXkX                        . u u u u -     kXkXkXkXkXkXkXkXkXkXkXkXkXkXkXkXkX",
"kXkXkXkXkXkXkXkXkXkXkXkXkXkXkXkXkXkXkX                        + 9 u u a 5 . . kXkXkXkXkXkXkXkXkXkXkXkXkXkXkXkXkX",
"kXkXkXkXkXkXkXkXkXkXkXkXkXkXkXkXkXkXkXkXkXkXkXkXkXkXkXkXkX    + i u p J s 9 9 +     kXkXkXkXkXkXkXkXkXkXkXkXkXkX",
"kXkXkXkXkXkXkXkXkXkXkXkXkXkXkXkXkXkXkXkXkXkXkXkXkXkXkXkXkX    . u u s J s 9 u $     kXkXkXkXkXkXkXkXkXkXkXkXkXkX",
"kXkXkXkXkXkXkXkXkXkXkXkXkXkXkXkXkXkXkXkXkXkXkXkXkXkXkXkXkX    + 0 p e J s p p *     kXkXkXkXkXkXkXkXkXkXkXkXkXkX",
"kXkXkXkXkXkXkXkXkXkXkXkXkXkXkXkXkXkXkXkXkXkXkXkXkXkXkXkXkX    $ J C J C J J y *     kXkXkXkXkXkXkXkXkXkXkXkXkXkX",
"kXkXkXkXkXkXkXkXkXkXkXkXkXkXkXkXkXkXkXkXkXkXkXkXkXkXkXkXkX    * e e e e e s r *     kXkXkXkXkXkXkXkXkXkXkXkXkXkX",
"kXkXkXkXkXkXkXkXkXkXkXkXkXkXkXkXkXkXkXkXkXkXkXkXkXkXkXkXkXkXkXkXo . . . . . . kXkXkXkXkXkXkXkXkXkXkXkXkXkXkXkXkX",
"kXkXkXkXkXkXkXkXkXkXkXkXkXkXkXkXkXkXkXkXkXkXkXkXkXkXkXkXkXkXkXkX              kXkXkXkXkXkXkXkXkXkXkXkXkXkXkXkXkX",
"kXkXkXkXkXkXkXkXkXkXkXkXkXkXkXkXkXkXkXkXkXkXkXkXkXkXkXkXkXkXkXkXkX            kXkXkXkXkXkXkXkXkXkXkXkXkXkXkXkXkX",
"kXkXkXkXkXkXkXkXkXkXkXkXkXkXkXkXkXkXkXkXkXkXkXkXkXkXkXkXkXkXkXkXkXkXkXkXkXkXkXkXkXkXkXkXkXkXkXkXkXkXkXkXkXkXkXkX",
"kXkXkXkXkXkXkXkXkXkXkXkXkXkXkXkXkXkXkXkXkXkXkXkXkXkXkXkXkXkXkXkXkXkXkXkXkXkXkXkXkXkXkXkXkXkXkXkXkXkXkXkXkXkXkXkX"
};
