/* XPM */
static char *ZnJvbnRfd2Fsazc_[] = {
/* columns rows colors chars-per-pixel */
"54 66 219 2 ",
"   c #000001",
".  c #0C0705",
"X  c #030C04",
"o  c #0D0A06",
"O  c #160D08",
"+  c #051707",
"@  c #181009",
"#  c #191713",
"$  c #26150C",
"%  c #281912",
"&  c #361E12",
"*  c #05240A",
"=  c #083D15",
"-  c #073713",
";  c #14370E",
":  c #2B200F",
">  c #3A2111",
",  c #352915",
"<  c #2C2C10",
"1  c #162A36",
"2  c #3A3B3C",
"3  c #452719",
"4  c #45361D",
"5  c #56371C",
"6  c #502D17",
"7  c #6D3B1C",
"8  c #68391C",
"9  c #733E1D",
"0  c #543E23",
"q  c #54352C",
"w  c #723E21",
"e  c #673E27",
"r  c #0B440D",
"t  c #144613",
"y  c #0C5A1C",
"u  c #0D4814",
"i  c #224512",
"p  c #324616",
"a  c #225316",
"s  c #294A16",
"d  c #18641C",
"f  c #0C5F20",
"g  c #365D23",
"h  c #2C5C22",
"j  c #0D6D24",
"k  c #0C6522",
"l  c #126C23",
"z  c #0D7325",
"x  c #0D7A29",
"c  c #0B7A27",
"v  c #127D29",
"b  c #127225",
"n  c #246D26",
"m  c #336626",
"M  c #287628",
"N  c #72401F",
"B  c #6F411F",
"V  c #584228",
"C  c #4C463A",
"Z  c #534C34",
"A  c #6C4225",
"S  c #744221",
"D  c #7D4C26",
"F  c #7D4D2A",
"G  c #794420",
"H  c #6F552A",
"J  c #775333",
"K  c #537B2C",
"L  c #635D29",
"P  c #314E6B",
"I  c #32455A",
"U  c #545456",
"Y  c #665A49",
"T  c #4C5377",
"R  c #7A756D",
"E  c #9D7919",
"W  c #85542D",
"Q  c #835331",
"!  c #885A37",
"~  c #89572D",
"^  c #8D623A",
"/  c #936C3A",
"(  c #966A37",
")  c #9C793C",
"_  c #9F792C",
"`  c #A47B3E",
"'  c #A7773C",
"]  c #A27B2E",
"[  c #997559",
"{  c #976B48",
"}  c #A17743",
"|  c #A47A42",
" . c #A97F43",
".. c #A57B56",
"X. c #8F7461",
"o. c #865F44",
"O. c #14812A",
"+. c #1A8429",
"@. c #288D29",
"#. c #378B23",
"$. c #358923",
"%. c #2C9329",
"&. c #399D29",
"*. c #389827",
"=. c #3EA329",
"-. c #6BAE19",
";. c #419721",
":. c #4C8F25",
">. c #679532",
",. c #6F8E3B",
"<. c #42A529",
"1. c #47A52B",
"2. c #52A02D",
"3. c #79AE26",
"4. c #3C874C",
"5. c #548F4B",
"6. c #508645",
"7. c #429957",
"8. c #7D8A70",
"9. c #B59E15",
"0. c #BBA211",
"q. c #B9A00F",
"w. c #9A873B",
"e. c #8F982D",
"r. c #AE893A",
"t. c #AB853C",
"y. c #B28B36",
"u. c #BA9835",
"i. c #B29528",
"p. c #BFA12F",
"a. c #C6B019",
"s. c #C4AA2A",
"d. c #D2BD21",
"f. c #CFB22E",
"g. c #E1BA3E",
"h. c #8CC819",
"j. c #87C21C",
"k. c #DACA1A",
"l. c #DBCE11",
"z. c #E3D813",
"x. c #E0CF1A",
"c. c #EDE40D",
"v. c #EFE80C",
"b. c #F6F107",
"n. c #FFFF00",
"m. c #FBF509",
"M. c #F7F605",
"N. c #F6E818",
"B. c #F3ED09",
"V. c #EED628",
"C. c #E8C637",
"Z. c #DBC523",
"A. c #938355",
"S. c #AB834B",
"D. c #AB8245",
"F. c #B68A46",
"G. c #B38F56",
"H. c #908F6F",
"J. c #BC976A",
"K. c #B29471",
"L. c #C3964A",
"P. c #DEAB53",
"I. c #D8A650",
"U. c #CFAC4B",
"Y. c #E1B449",
"T. c #E5BD41",
"R. c #E1AD54",
"E. c #E2B157",
"W. c #C19D68",
"Q. c #C8A67C",
"!. c #C6AA63",
"~. c #2C4E9B",
"^. c #395392",
"/. c #3A7D8E",
"(. c #4865A7",
"). c #4F5C82",
"_. c #7D8699",
"`. c #17B5EA",
"'. c #00BCFF",
"]. c #919091",
"[. c #989CAD",
"{. c #8096AC",
"}. c #97A7B8",
"|. c #BDB9B7",
" X c #B2ADA9",
".X c #B69F8E",
"XX c #CCA982",
"oX c #C0AA8D",
"OX c #D0AE84",
"+X c #D6B58C",
"@X c #D8B68B",
"#X c #D8B890",
"$X c #C6BEB6",
"%X c #E0BD91",
"&X c #BFC4AE",
"*X c #E1C29B",
"=X c #EACDA4",
"-X c #EBD0A8",
";X c #F2D7AF",
":X c #F5DAAF",
">X c #F5DBB1",
",X c #FBDEB1",
"<X c #FFE6BD",
"1X c #FFEABF",
"2X c #FBE0B4",
"3X c #DDC5A1",
"4X c #99A8CB",
"5X c #ADD4CC",
"6X c #FFEBC2",
"7X c #F8E8CE",
"8X c #F8EAD5",
"9X c #FEF1DD",
"0X c #E3E3DF",
"qX c #F3EDEB",
"wX c #E8EBF3",
"eX c #FEFFFE",
"rX c #FFFDF1",
"tX c #ECE7E4",
"yX c None",
/* pixels */
"yXyXyXyXyXyXyXyXyXyXyXyXyXyXyXyXyXyXyXyXyXyXyXyXyXyXyXyXyXyXyXyXyXyXyXyXyXyXyXyXyXyXyXyXyXyXyXyXyXyXyXyXyXyX",
"yXyXyXyXyXyXyXyXyXyXyXyXyXyXyXyXyXyXyXyXyXyXyXyXyXyXyXyXyXyXyXyXyXyXyXyXyXyXyXyXyXyXyXyXyXyXyXyXyXyXyXyXyXyX",
"yXyXyXyXyXyXyXyXyXyXyXyXyXyXyXyXyXyXyXyXyXyXyXyXyXyXyXyXyXyXyXyXyXyXyXyXyXyXyXyXyXyXyXyXyXyXyXyXyXyXyXyXyXyX",
"yXyXyXyXyXyXyXyXyXyXyXyXyXyXyXyXyXyXyXyX    = v v x v =     yXyXyXyXyXyXyXyXyXyXyXyXyXyXyXyXyXyXyXyXyXyXyXyX",
"yXyXyXyXyXyXyXyXyXyXyXyXyXyXyXyXyXyXyXyX    - v v x v =     yXyXyXyXyXyXyXyXyXyXyXyXyXyXyXyXyXyXyXyXyXyXyXyX",
"yXyXyXyXyXyXyXyXyXyXyXyXyXyXyXyXyXyXyXX - - y v x v v y - - X yXyXyXyXyXyXyXyXyXyXyXyXyXyXyXyXyXyXyXyXyXyXyX",
"yXyXyXyXyXyXyXyXyXyXyXyXyXyXyX        X j v v v v v v v v z X         yXyXyXyXyXyXyXyXyXyXyXyXyXyXyXyXyXyXyX",
"yXyXyXyXyXyXyXyXyXyXyXyXyXyXyXX X X X + b O.v v v v v v v b + X X X X yXyXyXyXyXyXyXyXyXyXyXyXyXyXyXyXyXyXyX",
"yXyXyXyXyXyXyXyXyXyXyXyXyX  X f k M #.*.&.&.&.&.&.&.&.&.=.&.#.#.M j f X   yXyXyXyXyXyXyXyXyXyXyXyXyXyXyXyXyX",
"yXyXyXyXyXyXyXyXyXyXyXyX    X j x %.<.<.<.<.<.<.<.<.1.<.<.<.<.1.@.x z X     yXyXyXyXyXyXyXyXyXyXyXyXyXyXyXyX",
"yXyXyXyXyXyXyXyXyXyXyXyX    X z v +.%.%.%.%.%.%.%.%.%.%.%.%.%.%.+.v j X     yXyXyXyXyXyXyXyXyXyXyXyXyXyXyXyX",
"yXyXyXyXyXyXyXyXyXyXyXyXyX  X j v x v v v x v x v x x x v x v v v x j X   yXyXyXyXyXyXyXyXyXyXyXyXyXyXyXyXyX",
"yXyXyXyXyXyXyXyXyXyXyXyXX X X b O.v v v v v v v v v v v v v v v O.v z +   X yXyXyXyXyXyXyXyXyXyXyXyXyXyXyXyX",
"yXyXyXyXyXyXyXyXyXyX    - k j *.&.&.&.&.&.&.&.&.&.&.&.&.&.&.&.&.&.&.*.k k -     yXyXyXyXyXyXyXyXyXyXyXyXyXyX",
"yXyXyXyXyXyXyXyXyXyX    = O.O.=.<.=.=.<.<.<.<.=.<.<.<.=.=.=.=.=.=.<.=.O.O.=     yXyXyXyXyXyXyXyXyXyXyXyXyXyX",
"yXyXyXyXyXyXyXyXyXyX    u +.@.>.>.3.h.j.>.>.3.h.j.>.>.3.h.h.h.h.3.>.>.@.@.u     yXyXyXyXyXyXyXyXyXyXyXyXyXyX",
"yXyXyXyXyXyXyXyXyXyX    a <.2.) ` d.n.b.r.} d.n.b.r.} d.n.n.n.n.d.| | 1.<.a     yXyXyXyXyXyXyXyXyXyXyXyXyXyX",
"yXyXyXyXyXyXyXyXyXyXX   a 1.2.w.` d.n.v.y.D.k.n.b.r.| d.n.n.M.n.d.| w.1.1.a     yXyXyXyXyXyXyXyXyXyXyXyXyXyX",
"yXyXyXyXyXyXyXyX  X y k K A.w.z.v.d.u.p.z.c.B.n.b.r.} d.n.b.p.y.d.v.c.U.U.>.k y X   yXyXyXyXyXyXyXyXyXyXyXyX",
"yXyXyXyXyXyXyXyX  X z x K } y.M.n.d.{ r.M.n.n.n.b.t.} d.n.b.r.} d.n.m.R.E.,.c z X   yXyXyXyXyXyXyXyXyXyXyXyX",
"yXyXyXyXyXyXyXV $ : g m K F.F.k.x.d.s.f.M.n.v.l.k.s.s.z.n.b.r.} s.x.k.C.C.e.m g : $ V yXyXyXyXyXyXyXyXyXyXyX",
"yXyX| } S.XX#X..9 w G 9 ' R.P.D.} d.n.n.n.n.d.} r.b.n.n.n.b.r.| | | y.M.n.q.9 S S N ..#XXXD.| | yXyXyXyXyXyX",
"yXyX` ` S.OX#X..w G 9 9 F.Y.I.t.` k.n.n.n.n.d.| r.b.n.n.n.B.r.| | | r.b.n.9.w S D S ..#XOXS.` | yXyXyXyXyXyX",
"yXyXD W ! =X>X-X*X%X| ( f.N.N.c.c.Z.T.C.m.n.d.} r.b.n.k.u.u.Q.Q.G.` r.b.n.d./ } #X*X-X>X=X! D D yXyXyXyXyXyX",
"yXyXS 9 Q ;X6X<X1X>XS.| d.n.n.n.n.V.P.Y.m.n.d.} t.b.n.d.}  .OX#XJ.| r.b.n.d.| S.,X<X1X6X>XQ 9 w yXyXyXyXyXyX",
"yXyXyX9 Q XX+X&X5X5XG.F.Z.n.n.N.N.C.P.Y.m.n.x.s.s.M.n.d.} S.OX#XQ.W.!.V.N.f.} S.5X5X&XOXXXF S yXyXyXyXyXyXyX",
"yXyXyXyXyXS N /.'.`.!.R.V.n.m.Y.P.P.P.Y.m.n.n.n.n.n.n.d.}  .XX+X=X<X2XE.R.L.| A.`.'./.9 S yXyXyXyXyXyXyXyXyX",
"yXyXyXyXyXN 9 /.'.`.!.P.V.n.m.Y.P.P.P.Y.m.n.n.n.n.n.n.d.' ..OX+X=X1X,XE.P.F.D.A.`.'./.9 S yXyXyXyXyXyXyXyXyX",
"yXyXyXyXyX@ @ Z 8.8.^ ~ ] p.u.P.P.L.D.F.g.C.N.n.n.n.n.0.F ! =X>X=X*X+X( ~ 0.c.x.H.8.Z O @ yXyXyXyXyXyXyXyXyX",
"yXyXyXyXyX    5 ` ' S 7 ! |  .P.E.L.` D.I.P.V.n.n.n.n.q.7 Q ;X6X-X+XXXF 7 q.n.b.y. .0     yXyXyXyXyXyXyXyXyX",
"yXyXyXyXyX    V F.r.E E ] | ` ) | ) | ` I.P.C.z.z.l.l.9.^ { OX+XK.A.X.! J 0.n.b.u.F.V     yXyXyXyXyXyXyXyXyX",
"yXyXyXyXyX    H E.Y.m.n.d.} / O   V D.D.I.R.F.| ) G 7 ..+XXXQ w > . @ / | d.n.m.Y.R.H     yXyXyXyXyXyXyXyXyX",
"yXyXyXyXyX    H R.Y.m.n.d.| { @   q  .D.I.P.F.` ' w w ..+XQ.F w >   @ { | d.n.m.Y.R.H     yXyXyXyXyXyXyXyXyX",
"yXyXyXyXyXyXyX, , 4 i.s._ F !  X|.].).T ~ ( ~ W Q J.K...! o.T T _.|. X! D y.C.f.0 , , yXyXyXyXyXyXyXyXyXyXyX",
"yXyXyXyXyXyXyXyXX o ) | ! 7 Q qXeX4X~.^.e 9 9 7 F Q.+X..7 e ^.~.4XeXqXQ 7 ' E.L.@   yXyXyXyXyXyXyXyXyXyXyXyX",
"yXyXyXyXyXyXyXyX  O H J J D o.8XrX4X~.^.X.[ [ { ..+X=XK.[ X.^.~.4XeX8Xo.D ( D.) @   yXyXyXyXyXyXyXyXyXyXyXyX",
"yXyXyXyXyXyXyXyXyXyX    0 | S.,X6X[.~.(.wXeX9X2X,X,X6X9XeXwX(.~.[.6X>XS.` 5   X yXyXyXyXyXyXyXyXyXyXyXyXyXyX",
"yXyXyXyXyXyXyXyXyXyX    0 | S.,X1X[.~.(.wXeX9X<X6X6X2XqXeXwX(.~.[.6X>XS.| 0     yXyXyXyXyXyXyXyXyXyXyXyXyXyX",
"yXyXyXyXyXyXyXyX  o 3 6 , , 4 G.W.oX|.$X7X8X7X,X<X<X<X6X8X7X$X$XoXW.G.4 , % yXyXyXyXyXyXyXyXyXyXyXyXyXyXyXyX",
"yXyXyXyXyXyXyX    . 9 N &   . / ` OX6X1X<X<X<X6X<X<X<X6X<X<X1X6XOX` / o   yXyXyXyXyXyXyXyXyXyXyXyXyXyXyXyXyX",
"yXyXyXyXyXyXyXO @ $ e Z q U C ^ ( J.*X*X;X:X>X;X;X;X>X>X>X;X*X*XJ./ ^ o     yXyXyXyXyXyXyXyXyXyXyXyXyXyXyXyX",
"yXyXyXyXyX    > w e P P [.eXtXJ N N D F XX#X+X+X+X+X+X+X#XXXJ G G S 8 o     yXyXyXyXyXyXyXyXyXyXyXyXyXyXyXyX",
"yXyXyXyXyX    > G A T P }.eXtX! N N N W Q.@X+X+X+X+X+X+X@XQ.F S N D 8 o     yXyXyXyXyXyXyXyXyXyXyXyXyXyXyXyX",
"yXyXyXyXyX    > w F H.].R U U % $ < p p 6.5.5.5.5.5.5.6.5.6.p p g m a X     yXyXyXyXyXyXyXyXyXyXyXyXyXyXyXyX",
"yXyXyXyXyX    > 9 W XX%XY         + r r z c c c c c c c c z r r y c j X   yXyXyXyXyXyXyXyXyXyXyXyXyXyXyXyXyX",
"yXyXyXyXyX    & 5 e A.K.Z     + + ; i i n n $.*.;.;.*.$.n n i i m 7.4.# o o yXyXyXyXyXyXyXyXyXyXyXyXyXyXyXyX",
"yXyXyXyXyXyXyX    . . . X   X j x g S B N e 9.n.M.M.n.q.B B N 7 .XeX0Xq 3 #     yXyXyXyXyXyXyXyXyXyXyXyXyXyX",
"yXyXyXyXyXyXyX              X z O.Z 9 S N 7 q.n.n.n.n.0.7 N N N .XeXtXZ q $     yXyXyXyXyXyXyXyXyXyXyXyXyXyX",
"yXyXyXyXyXyXyXyXyXyX    * y y @.%.:.K K m m :.-.-.-.-.:.m g : $ U _._.A 8 6 3 3 .   yXyXyXyXyXyXyXyXyXyXyXyX",
"yXyXyXyXyXyXyXyXyXyX    = O.v &.<.<.=.=.O.c c z z c z z x j X   1 ^.P A N 9 9 7 .     yXyXyXyXyXyXyXyXyXyXyX",
"yXyXyXyXyXyXyXyXyXyX    - k l &.<.<.<.&.+.+.+.+.+.O.+.O.v j * + 1 P I J ~ ! o.J .     yXyXyXyXyXyXyXyXyXyXyX",
"yXyXyXyXyXyXyXyXyXyX      . + #.<.<.<.<.<.=.=.=.=.=.=.@.c v z z = X # K.OX=X<X3X#     yXyXyXyXyXyXyXyXyXyXyX",
"yXyXyXyXyXyXyXyXyXyX        o *.1.<.<.<.<.<.<.<.<.<.<.@.x x c v =   # oX+X-X6X-X#     yXyXyXyXyXyXyXyXyXyXyX",
"yXyXyXyXyXyXyXyXyXyX    @ % & t t d @.@.&.<.<.<.<.<.=.&.%.@.d y *   X q Z Y Y Y yXyXyXyXyXyXyXyXyXyXyXyXyXyX",
"yXyXyXyXyXyXyXyXyXyX    $ q 3     = x v =.<.1.<.<.<.<.<.1.*.t r *               yXyXyXyXyXyXyXyXyXyXyXyXyXyX",
"yXyXyXyXyXyXyXyXyXyX    @ 3 & .   - j l $.#.#.#.#.#.#.#.#.$.r ; +               yXyXyXyXyXyXyXyXyXyXyXyXyXyX",
"yXyXyXyXyXyXyXyXyXyXyXyX. .         X X X X X X o X X X X X   X   yXyXyXyXyXyXyXyXyXyXyXyXyXyXyXyXyXyXyXyXyX",
"yXyXyXyXyXyXyXyXyXyXyXyX                                          yXyXyXyXyXyXyXyXyXyXyXyXyXyXyXyXyXyXyXyXyX",
"yXyXyXyXyXyXyXyXyXyXyXyXyXyXyXyXyXyXyXyXyXyXyXyXyXyXyXyXyXyXyXyXyXyXyXyXyXyXyXyXyXyXyXyXyXyXyXyXyXyXyXyXyXyX",
"yXyXyXyXyXyXyXyXyXyXyXyXyXyXyXyXyXyXyXyXyXyXyXyXyXyXyXyXyXyXyXyXyXyXyXyXyXyXyXyXyXyXyXyXyXyXyXyXyXyXyXyXyXyX",
"yXyXyXyXyXyXyXyXyXyXyXyXyXyXyXyXyXyXyXyXyXyXyXyXyXyXyXyXyXyXyXyXyXyXyXyXyXyXyXyXyXyXyXyXyXyXyXyXyXyXyXyXyXyX",
"yXyXyXyXyXyXyXyXyXyXyXyXyXyXyXyXyXyXyXyXyXyXyXyXyXyXyXyXyXyXyXyXyXyXyXyXyXyXyXyXyXyXyXyXyXyXyXyXyXyXyXyXyXyX",
"yXyXyXyXyXyXyXyXyXyXyXyXyXyXyXyXyXyXyXyXyXyXyXyXyXyXyXyXyXyXyXyXyXyXyXyXyXyXyXyXyXyXyXyXyXyXyXyXyXyXyXyXyXyX",
"yXyXyXyXyXyXyXyXyXyXyXyXyXyXyXyXyXyXyXyXyXyXyXyXyXyXyXyXyXyXyXyXyXyXyXyXyXyXyXyXyXyXyXyXyXyXyXyXyXyXyXyXyXyX",
"yXyXyXyXyXyXyXyXyXyXyXyXyXyXyXyXyXyXyXyXyXyXyXyXyXyXyXyXyXyXyXyXyXyXyXyXyXyXyXyXyXyXyXyXyXyXyXyXyXyXyXyXyXyX",
"yXyXyXyXyXyXyXyXyXyXyXyXyXyXyXyXyXyXyXyXyXyXyXyXyXyXyXyXyXyXyXyXyXyXyXyXyXyXyXyXyXyXyXyXyXyXyXyXyXyXyXyXyXyX"
};
