/* XPM */
static char *result[] = {
/* columns rows colors chars-per-pixel */
"56 66 218 2 ",
"   c #010101",
".  c #030B04",
"X  c #090807",
"o  c #150D09",
"O  c #041708",
"+  c #141212",
"@  c #27180D",
"#  c #2D1A15",
"$  c #05250D",
"%  c #05290E",
"&  c #092E0F",
"*  c #062D11",
"=  c #083713",
"-  c #11380D",
";  c #2A2419",
":  c #382816",
">  c #333415",
",  c #13202E",
"<  c #393A3C",
"1  c #482818",
"2  c #46351B",
"3  c #5D341A",
"4  c #54381D",
"5  c #512C15",
"6  c #6A3A1C",
"7  c #713E1D",
"8  c #4B3127",
"9  c #673A20",
"0  c #733E20",
"q  c #0C430D",
"w  c #0A4E1A",
"e  c #1B4312",
"r  c #0C571B",
"t  c #254413",
"y  c #2F4D1A",
"u  c #0D641E",
"i  c #355722",
"p  c #0D6422",
"a  c #0D6A23",
"s  c #156822",
"d  c #0D7A29",
"f  c #0D7927",
"g  c #127C29",
"h  c #1A7624",
"j  c #246D26",
"k  c #356726",
"l  c #2C7A2C",
"z  c #2D781E",
"x  c #72401F",
"c  c #79471F",
"v  c #6F411F",
"b  c #584A39",
"n  c #534A2B",
"m  c #694421",
"M  c #744221",
"N  c #7C4C25",
"B  c #7D4D2A",
"V  c #784726",
"C  c #735030",
"Z  c #467627",
"A  c #4E7D32",
"S  c #736E2C",
"D  c #1C3345",
"F  c #1D4E5B",
"G  c #33516F",
"H  c #255C5B",
"J  c #594B41",
"K  c #5A554F",
"L  c #675A48",
"P  c #494E73",
"I  c #656566",
"U  c #977416",
"Y  c #81522A",
"T  c #8B592B",
"R  c #865835",
"E  c #925F2D",
"W  c #8E613E",
"Q  c #896934",
"!  c #996C38",
"~  c #9D753C",
"^  c #9A7228",
"/  c #A37B3E",
"(  c #A17726",
")  c #A17D16",
"_  c #946844",
"`  c #977359",
"'  c #8E6B50",
"]  c #A27643",
"[  c #A47B41",
"{  c #A77E43",
"}  c #A67C53",
"|  c #826555",
" . c #1A8329",
".. c #1A852A",
"X. c #238C29",
"o. c #2A8524",
"O. c #378B23",
"+. c #388A24",
"@. c #2D9329",
"#. c #399D29",
"$. c #359728",
"%. c #3EA329",
"&. c #6AAD1A",
"*. c #419621",
"=. c #538B2C",
"-. c #679432",
";. c #42A529",
":. c #45A62A",
">. c #72A32B",
",. c #5B991D",
"<. c #548F4B",
"1. c #4B9551",
"2. c #94853C",
"3. c #8D8234",
"4. c #A7813E",
"5. c #BB9C31",
"6. c #B69435",
"7. c #B3873C",
"8. c #BEA12F",
"9. c #BFA230",
"0. c #82BB1F",
"q. c #C5AA2A",
"w. c #CEB433",
"e. c #E2BD3C",
"r. c #C2AB18",
"t. c #8BC719",
"y. c #D8CB0A",
"u. c #DCCC19",
"i. c #DED117",
"p. c #E5DA09",
"a. c #E2D415",
"s. c #E6DA12",
"d. c #E8DE10",
"f. c #EDDB1D",
"g. c #ECE40D",
"h. c #F2EC0A",
"j. c #FEFE00",
"k. c #F7F506",
"l. c #F7EA14",
"z. c #EBE010",
"x. c #E5CC2A",
"c. c #E9C838",
"v. c #ECD02E",
"b. c #A98147",
"n. c #B48A45",
"m. c #AA845C",
"M. c #B78F52",
"N. c #988164",
"B. c #A78666",
"V. c #B19168",
"C. c #A79E46",
"Z. c #CD9D4D",
"A. c #D1A14E",
"S. c #DCAB4E",
"D. c #DEAC53",
"F. c #D6A550",
"G. c #D5AE4D",
"H. c #E3B846",
"J. c #E1AE54",
"K. c #E5B256",
"L. c #C19D69",
"P. c #C19D76",
"I. c #C6A375",
"U. c #C8A57B",
"Y. c #C6A369",
"T. c #E8BF76",
"R. c #2B4E9B",
"E. c #2D509D",
"W. c #33539C",
"Q. c #515D84",
"!. c #6479AC",
"~. c #606789",
"^. c #2E97B5",
"/. c #6E85B9",
"(. c #788594",
"). c #69CE9C",
"_. c #0E9CD0",
"`. c #01B8FB",
"'. c #38B9DE",
"]. c #44B6C9",
"[. c #00C0FF",
"{. c #8A98A9",
"}. c #B9B6B5",
"|. c #BFB1A0",
" X c #ADA49D",
".X c #CAAA83",
"XX c #D0AE84",
"oX c #D5B48B",
"OX c #D8B78E",
"+X c #D5B489",
"@X c #D9BA92",
"#X c #CFB997",
"$X c #CABCB2",
"%X c #C6B8AA",
"&X c #87D181",
"*X c #DFC097",
"=X c #E1C39B",
"-X c #E6C89F",
";X c #D4C4B1",
":X c #E7CAA3",
">X c #EED2A7",
",X c #F2D6AD",
"<X c #F6DBB2",
"1X c #F8DDB4",
"2X c #FEE6BD",
"3X c #FFEABF",
"4X c #B6BDD1",
"5X c #B8C4E0",
"6X c #D4D3D3",
"7X c #E7DBD0",
"8X c #FFECC2",
"9X c #FBEACD",
"0X c #FFEED1",
"qX c #D3DAE7",
"wX c #FEF6EB",
"eX c #FEFEFE",
"rX c #FFFEF2",
"tX c None",
/* pixels */
"tXtXtXtXtXtXtXtXtXtXtXtXtXtXtXtXtXtXtXtXtXtXtXtXtXtXtXtXtXtXtXtXtXtXtXtXtXtXtXtXtXtXtXtXtXtXtXtXtXtXtXtXtXtXtXtX",
"tXtXtXtXtXtXtXtXtXtXtXtXtXtXtXtXtXtXtXtXtXtXtXtXtXtXtXtXtXtXtXtXtXtXtXtXtXtXtXtXtXtXtXtXtXtXtXtXtXtXtXtXtXtXtXtX",
"tXtXtXtXtXtXtXtXtXtXtXtXtXtXtXtXtXtXtXtXtXtXtXtXtXtXtXtXtXtXtXtXtXtXtXtXtXtXtXtXtXtXtXtXtXtXtXtXtXtXtXtXtXtXtXtX",
"tXtXtXtXtXtXtXtXtXtXtXtXtXtXtXtXtXtXtXtX    % g g d g r     tXtXtXtXtXtXtXtXtXtXtXtXtXtXtXtXtXtXtXtXtXtXtXtXtXtX",
"tXtXtXtXtXtXtXtXtXtXtXtXtXtXtXtXtXtXtXtX    $ g g d g r     tXtXtXtXtXtXtXtXtXtXtXtXtXtXtXtXtXtXtXtXtXtXtXtXtXtX",
"tXtXtXtXtXtXtXtXtXtXtXtXtXtXtXtXtXtXtXtX& = w g g g g a = = O tXtXtXtXtXtXtXtXtXtXtXtXtXtXtXtXtXtXtXtXtXtXtXtXtX",
"tXtXtXtXtXtXtXtXtXtXtXtXtXtXtX          p d g g d g g g g d $         tXtXtXtXtXtXtXtXtXtXtXtXtXtXtXtXtXtXtXtXtX",
"tXtXtXtXtXtXtXtXtXtXtXtXtXtXtX. . . . . p  .g g g g g g  .g * . . . . tXtXtXtXtXtXtXtXtXtXtXtXtXtXtXtXtXtXtXtXtX",
"tXtXtXtXtXtXtXtXtXtXtXtXtX    r a h O.O.#.%.#.#.#.#.#.#.#.#.$.O.o.a a $     tXtXtXtXtXtXtXtXtXtXtXtXtXtXtXtXtXtX",
"tXtXtXtXtXtXtXtXtXtXtXtXtX  . p d X.:.:.;.;.;.;.;.;.;.;.:.;.:.:.#.g g %     tXtXtXtXtXtXtXtXtXtXtXtXtXtXtXtXtXtX",
"tXtXtXtXtXtXtXtXtXtXtXtXtX    p d  .@.@.@.@.@.@.@.@.@.@.@.@.@.@.X.g d %     tXtXtXtXtXtXtXtXtXtXtXtXtXtXtXtXtXtX",
"tXtXtXtXtXtXtXtXtXtXtXtXtX    p g g d g f g d d d g g f g f d g g d g %     tXtXtXtXtXtXtXtXtXtXtXtXtXtXtXtXtXtX",
"tXtXtXtXtXtXtXtXtXtXtXtXtX. . p g g g g g g g g g g g g g g g g g g g * X   tXtXtXtXtXtXtXtXtXtXtXtXtXtXtXtXtXtX",
"tXtXtXtXtXtXtXtXtXtX    * a a @.#.#.#.#.#.#.#.#.#.#.#.#.#.#.#.#.#.#.#.h a r     tXtXtXtXtXtXtXtXtXtXtXtXtXtXtXtX",
"tXtXtXtXtXtXtXtXtXtX    *  .g #.;.;.%.#.;.;.;.%.%.%.;.;.%.%.%.%.%.;.;.X.d p     tXtXtXtXtXtXtXtXtXtXtXtXtXtXtXtX",
"tXtXtXtXtXtXtXtXtXtX    = X...-.-.>.t.t.>.-.>.t.t.>.-.>.t.t.t.t.0.-.-.+.X.h     tXtXtXtXtXtXtXtXtXtXtXtXtXtXtXtX",
"tXtXtXtXtXtXtXtXtXtX    e ;.:.2.] q.j.j.5.] q.j.j.5.] 8.j.j.j.j.d.4.4.-.;.z .   tXtXtXtXtXtXtXtXtXtXtXtXtXtXtXtX",
"tXtXtXtXtXtXtXtXtXtX    e :.:.2./ q.j.j.5.[ q.j.j.5.] 8.j.j.j.k.d.4.b.-.:.+..   tXtXtXtXtXtXtXtXtXtXtXtXtXtXtXtX",
"tXtXtXtXtXtXtXtX    r p Z 2.2.i.h.h.j.j.h.g.h.j.j.5.] 5.j.j.q.6.9.g.g.w.G.C.p p %     tXtXtXtXtXtXtXtXtXtXtXtXtX",
"tXtXtXtXtXtXtXtX  . p  .A ] b.g.j.j.j.j.j.j.j.j.j.5.] 8.j.j.q.] 5.j.j.c.D.C. . .%     tXtXtXtXtXtXtXtXtXtXtXtXtX",
"tXtXtXtXtXtXtXb @ @ i k S n.n.h.j.h.i.a.k.j.h.a.i.6.] 8.j.j.q.] 6.u.i.x.c.q.k k > @ : tXtXtXtXtXtXtXtXtXtXtXtXtX",
"tXtXtX[ b..XOXm.7 M M x ~ J.K.l.j.i.[ / g.j.a.[ / / ] 8.j.j.9.] [ [ [ i.j.p.N x M v R XXOXM.[ [ tXtXtXtXtXtXtXtX",
"tXtXtX[ { XXOXm.V V x x ! D.S.k.j.a.[ 4.g.j.a.[ ] b.[ 9.k.j.q.] [ [ [ i.j.p.V M V V R XXoXV./ ] tXtXtXtXtXtXtXtX",
"tXtXtXY R -X1X>X=X@X{ ! / n.n.g.j.f.A.A.l.j.a.[ [ u.g.u.5.6.Y.U.L.[ 4.i.j.g.~ ! P.*X:X<X2Xm.N N tXtXtXtXtXtXtXtX",
"tXtXtX7 B ,X8X9X8X2XM.] [ ] 4.g.j.l.D.D.l.j.a.[ [ d.j.s.[ [ I.OXU.[ b.a.j.g.4./ *X3X3X3X8XB.7 7 tXtXtXtXtXtXtXtX",
"tXtXtXM B .XXXXXoXXXb.] 7.q.q.f.l.v.D.D.l.j.s.[ / d.j.s.[ [ I.OXXXL.V.x.l.x.b.[ +X,X>X+X+X} 7 M tXtXtXtXtXtXtXtX",
"tXtXtXtXtXM M M M V ~ ] q.j.j.H.D.D.D.D.l.j.a.[ [ s.j.s./ [ I.oX*X2X3XT.S.A./ / P.OXV.V M tXtXtXtXtXtXtXtXtXtXtX",
"tXtXtXtXtX0 m 9 m V ~ ] q.j.j.H.D.D.D.D.l.j.a.[ 4.d.j.s.[ ] I.oX*X2X2XT.S.A.b./ P.#X.X0 7 tXtXtXtXtXtXtXtXtXtXtX",
"tXtXtXtXtX@ + F _.^.L Y ^ 5.5.G.D.Z.n.n.e.e.x.d.g.k.j.y.Y Y +X<X>X*X*X} T ^ s.p.).'.^., o tXtXtXtXtXtXtXtXtXtXtX",
"tXtXtXtXtX  X F `.`.J 6 Y [ [ F.J.Z.[ [ Z.D.c.j.j.j.j.y.x x @X8X2XOXoX_ 6 U j.j.).`._.+   tXtXtXtXtXtXtXtXtXtXtX",
"tXtXtXtXtX    F ].].3.) ( { ] ~ ~ / [ [ A.D.H.s.s.y.y.r.W W P.@XU.N.N.W N ( k.j.&X].^.X   tXtXtXtXtXtXtXtXtXtXtX",
"tXtXtXtXtX    m K.J.k.j.u.{ ] @   : b./ A.J.Z.[ [ Y 7 W +X+X_ 7 4     C [ 6.j.j.v.K.7.X   tXtXtXtXtXtXtXtXtXtXtX",
"tXtXtXtXtX    m D.D.l.j.u.[ ] @ . : [ } A.D.Z.] { Y 0 W oXoXW 7 3     C ] 6.k.j.v.J.n.o   tXtXtXtXtXtXtXtXtXtXtX",
"tXtXtXtXtXtXtX; > 4 w.c.5.B C  X}.{.Q.Q._ E T Y Y P.@XP.W W K W.~.}.4X` N ^ e.c.S : : tXtXtXtXtXtXtXtXtXtXtXtXtX",
"tXtXtXtXtXtXtXtX  o n.K.n.7 V 7XeX5XE.W.8 M 7 7 0 @X9XOX7 6 P R.!.eXeXN.6 T D.J.4     tXtXtXtXtXtXtXtXtXtXtXtXtX",
"tXtXtXtXtXtXtXtX  X Q / ! Y T 7XrX4XW.W.| ` ` _ ` :X8X-X` ` Q.E.!.rXwX` 5 m / 4.2     tXtXtXtXtXtXtXtXtXtXtXtXtX",
"tXtXtXtXtXtXtXtXtXtX    2 ] { >X8X}.R.W.qXeXwX1X2X2X2X9XeXeX!.E.!.2X3XJ         tXtXtXtXtXtXtXtXtXtXtXtXtXtXtXtX",
"tXtXtXtXtXtXtXtXtXtX    2 { b.>X8X}.W.W.qXeXwX2X2X2X2X9XeXeX/.E.!.2X3XJ         tXtXtXtXtXtXtXtXtXtXtXtXtXtXtXtX",
"tXtXtXtXtXtXtXtXtXtXtXtX@ ; : m.V..X%X}.9X9X9X2X2X2X2X8X0X0X;X}.|.V.V.2   o 5 5 @     tXtXtXtXtXtXtXtXtXtXtXtXtX",
"tXtXtXtXtXtXtXtXtXtXtXtXtX    Q [ Y.8X8X3X2X2X3X2X2X2X2X2X8X8X8X>X/ / :   o M M @     tXtXtXtXtXtXtXtXtXtXtXtXtX",
"tXtXtXtXtXtXtXtXtXtXtXtXtX  X C ~ M.*X*X,X<X<X<X<X<X<X<X<X<X-X*XU.! ! b < 8 9 9 # o o tXtXtXtXtXtXtXtXtXtXtXtXtX",
"tXtXtXtXtXtXtXtXtXtXtXtXtX  X 3 V M 0 Y P.OXoXoXoX+X+XoXoX+X_ M c c x ;XeX6X8 8 9 0 6 X   tXtXtXtXtXtXtXtXtXtXtX",
"tXtXtXtXtXtXtXtXtXtXtXtXtX  X 4 0 m M 0 P.OXoXoX+X+X+X+XOX+X_ 7 M M M ;XeX6X8 1 9 0 3     tXtXtXtXtXtXtXtXtXtXtX",
"tXtXtXtXtXtXtXtXtXtXtXtXtX    y k i t y A <.<.<.<.<.<.1.<.<.i t > @ o J K I B.B.R 7 6     tXtXtXtXtXtXtXtXtXtXtX",
"tXtXtXtXtXtXtXtXtXtXtXtXtX    p d a q q a f f f f f f f d d w q &         ; oX@X_ V 3     tXtXtXtXtXtXtXtXtXtXtX",
"tXtXtXtXtXtXtXtXtXtXtXtX+ + + 1.1.l e t j j l *.*.*.*.O.j h t t - O O .   ; B.V.C 3 5 X   tXtXtXtXtXtXtXtXtXtXtX",
"tXtXtXtXtXtXtXtXtXtX    , G G qXeX%Xx v M m U k.k.k.k.y.c m 0 x n f f %     X X X     tXtXtXtXtXtXtXtXtXtXtXtXtX",
"tXtXtXtXtXtXtXtXtXtX    , G G qXeX$X7 M x 7 ) j.j.j.j.y.c x 0 7 m  .f %               tXtXtXtXtXtXtXtXtXtXtXtXtX",
"tXtXtXtXtXtXtXtX  . : 1 8 b J {.{.I # # i k Z &.&.&.&.,.k k Z =.=.@.@.s w =       tXtXtXtXtXtXtXtXtXtXtXtXtXtXtX",
"tXtXtXtXtXtXtXtX    6 7 7 7 0 < G D     p d d d d d d d d d $.;.%.:.:.X...p     tXtXtXtXtXtXtXtXtXtXtXtXtXtXtXtX",
"tXtXtXtXtXtXtXtX  X C _ R R C P F D O O p d g ..g  ..... . .$.;.%.%.;.h a w     tXtXtXtXtXtXtXtXtXtXtXtXtXtXtXtX",
"tXtXtXtXtXtXtXtX  o #X1X:X.X.X;   % f f d d ..*.%.%.%.#.%.%.;.;.;.;.;.-   X     tXtXtXtXtXtXtXtXtXtXtXtXtXtXtXtX",
"tXtXtXtXtXtXtXtX  o ;X8X,XoX.X;   % g  .g g ..;.:.%.:.%.;.%.;.;.;.:.:.-         tXtXtXtXtXtXtXtXtXtXtXtXtXtXtXtX",
"tXtXtXtXtXtXtXtXtXtXL L L b b o   $ r r o.@.$.;.;.;.%.%.;.;.@.X.h e e ; # o     tXtXtXtXtXtXtXtXtXtXtXtXtXtXtXtX",
"tXtXtXtXtXtXtXtXtXtX              O q q O.:.:.;.:.%.:.:.;.;...g r     # 8 1     tXtXtXtXtXtXtXtXtXtXtXtXtXtXtXtX",
"tXtXtXtXtXtXtXtXtXtX              O - q z O.O.+.+.O.O.O.O.O.h a r     # 1 #     tXtXtXtXtXtXtXtXtXtXtXtXtXtXtXtX",
"tXtXtXtXtXtXtXtXtXtXtXtXtXtXtXtXtXtX  . . . . . . . . X . . . . .           tXtXtXtXtXtXtXtXtXtXtXtXtXtXtXtXtXtX",
"tXtXtXtXtXtXtXtXtXtXtXtXtXtXtXtXtXtX                                        tXtXtXtXtXtXtXtXtXtXtXtXtXtXtXtXtXtX",
"tXtXtXtXtXtXtXtXtXtXtXtXtXtXtXtXtXtXtXtXtXtXtXtXtXtXtXtXtXtXtXtXtXtXtXtXtXtXtXtXtXtXtXtXtXtXtXtXtXtXtXtXtXtXtXtX",
"tXtXtXtXtXtXtXtXtXtXtXtXtXtXtXtXtXtXtXtXtXtXtXtXtXtXtXtXtXtXtXtXtXtXtXtXtXtXtXtXtXtXtXtXtXtXtXtXtXtXtXtXtXtXtXtX",
"tXtXtXtXtXtXtXtXtXtXtXtXtXtXtXtXtXtXtXtXtXtXtXtXtXtXtXtXtXtXtXtXtXtXtXtXtXtXtXtXtXtXtXtXtXtXtXtXtXtXtXtXtXtXtXtX",
"tXtXtXtXtXtXtXtXtXtXtXtXtXtXtXtXtXtXtXtXtXtXtXtXtXtXtXtXtXtXtXtXtXtXtXtXtXtXtXtXtXtXtXtXtXtXtXtXtXtXtXtXtXtXtXtX",
"tXtXtXtXtXtXtXtXtXtXtXtXtXtXtXtXtXtXtXtXtXtXtXtXtXtXtXtXtXtXtXtXtXtXtXtXtXtXtXtXtXtXtXtXtXtXtXtXtXtXtXtXtXtXtXtX",
"tXtXtXtXtXtXtXtXtXtXtXtXtXtXtXtXtXtXtXtXtXtXtXtXtXtXtXtXtXtXtXtXtXtXtXtXtXtXtXtXtXtXtXtXtXtXtXtXtXtXtXtXtXtXtXtX",
"tXtXtXtXtXtXtXtXtXtXtXtXtXtXtXtXtXtXtXtXtXtXtXtXtXtXtXtXtXtXtXtXtXtXtXtXtXtXtXtXtXtXtXtXtXtXtXtXtXtXtXtXtXtXtXtX",
"tXtXtXtXtXtXtXtXtXtXtXtXtXtXtXtXtXtXtXtXtXtXtXtXtXtXtXtXtXtXtXtXtXtXtXtXtXtXtXtXtXtXtXtXtXtXtXtXtXtXtXtXtXtXtXtX"
};
