/* XPM */
static char *ZnJvbnRfd2Fsazg_[] = {
/* columns rows colors chars-per-pixel */
"55 65 212 2 ",
"   c #000001",
".  c #0B0604",
"X  c #020B04",
"o  c #0D0B09",
"O  c #180D08",
"+  c #051305",
"@  c #061507",
"#  c #1A1714",
"$  c #1A120C",
"%  c #23160D",
"&  c #351D0E",
"*  c #291812",
"=  c #301B11",
"-  c #0B3C0C",
";  c #073312",
":  c #073B14",
">  c #093E15",
",  c #153D15",
"<  c #05230C",
"1  c #392515",
"2  c #362915",
"3  c #392F25",
"4  c #45261A",
"5  c #5B321B",
"6  c #4F3B1E",
"7  c #65391C",
"8  c #6A3A1B",
"9  c #713E1D",
"0  c #4C2A21",
"q  c #512D20",
"w  c #543921",
"e  c #473831",
"r  c #673A20",
"t  c #733C20",
"y  c #0C420E",
"u  c #105117",
"i  c #13631E",
"p  c #27721B",
"a  c #0E6E25",
"s  c #0D6722",
"d  c #136B23",
"f  c #0F7B29",
"g  c #117B29",
"h  c #177627",
"j  c #257C2B",
"k  c #346727",
"l  c #2F552A",
"z  c #43451A",
"x  c #5F451E",
"c  c #74401E",
"v  c #77700C",
"b  c #5E4C22",
"n  c #524E2F",
"m  c #694426",
"M  c #744220",
"N  c #7C4A25",
"B  c #7C4A28",
"V  c #6A5526",
"C  c #644936",
"Z  c #715E20",
"A  c #2B4D59",
"S  c #39506A",
"D  c #2F5275",
"F  c #584948",
"G  c #534B5F",
"H  c #4F4D4D",
"J  c #6E5742",
"K  c #746D53",
"L  c #677E6F",
"P  c #83561C",
"I  c #85562B",
"U  c #895B35",
"Y  c #946936",
"T  c #987A3C",
"R  c #8F652D",
"E  c #A47A3F",
"W  c #A37838",
"Q  c #927F09",
"!  c #946742",
"~  c #9C724C",
"^  c #876E58",
"/  c #946E54",
"(  c #9B7657",
")  c #866F49",
"_  c #A27643",
"`  c #A37A42",
"'  c #A87F44",
"]  c #AD7F49",
"[  c #A47B55",
"{  c #8A756D",
"}  c #807F7F",
"|  c #178129",
" . c #258D29",
".. c #288B2B",
"X. c #348622",
"o. c #338C25",
"O. c #2D9229",
"+. c #399D29",
"@. c #3A9525",
"#. c #3DA329",
"$. c #7F9319",
"%. c #669133",
"&. c #719235",
"*. c #4DAA26",
"=. c #42A529",
"-. c #49A32A",
";. c #6F9935",
":. c #61926C",
">. c #808001",
",. c #9B9D15",
"<. c #BEA10F",
"1. c #9A8939",
"2. c #AD873B",
"3. c #AE893A",
"4. c #B68C3A",
"5. c #B79634",
"6. c #B3B427",
"7. c #9E9124",
"8. c #C5AA2A",
"9. c #CAB226",
"0. c #D2BD21",
"q. c #D7BA2F",
"w. c #D4B239",
"e. c #DCBE2F",
"r. c #AFD30E",
"t. c #DBCB1A",
"y. c #DCCC17",
"u. c #DFD116",
"i. c #EADB18",
"p. c #D5E50B",
"a. c #CEE408",
"s. c #F1EC04",
"d. c #F3ED09",
"f. c #E1F206",
"g. c #F6F107",
"h. c #FFFE00",
"j. c #FAF508",
"k. c #F3E615",
"l. c #D9C323",
"z. c #EFD629",
"x. c #E9D127",
"c. c #E8C53A",
"v. c #F0D629",
"b. c #AB8247",
"n. c #BA8943",
"m. c #B28B56",
"M. c #A98865",
"N. c #BD9866",
"B. c #B9946D",
"V. c #BC9767",
"C. c #B79873",
"Z. c #A7A674",
"A. c #A8A876",
"S. c #C39649",
"D. c #CC994A",
"F. c #D6A44E",
"G. c #D9A752",
"H. c #DEAB54",
"J. c #D5A550",
"K. c #CFAB47",
"L. c #E2B649",
"P. c #E1AE54",
"I. c #E3B153",
"U. c #C19D73",
"Y. c #C8A57C",
"T. c #D0AD7A",
"R. c #E8C359",
"E. c #2A4D9A",
"W. c #2F519E",
"Q. c #057BA8",
"!. c #367D92",
"~. c #44609F",
"^. c #4764A5",
"/. c #6476A3",
"(. c #7582A4",
"). c #5D9698",
"_. c #06B4F2",
"`. c #41B9DE",
"'. c #35C7F6",
"]. c #00C0FF",
"[. c #808080",
"{. c #B89F8F",
"}. c #BAA58D",
"|. c #858EAF",
" X c #CCAA82",
".X c #D6B58C",
"XX c #D6B488",
"oX c #DBBB93",
"OX c #D4BC99",
"+X c #CFAF82",
"@X c #D9C19D",
"#X c #E3C49B",
"$X c #EBCD9F",
"%X c #F0CB8A",
"&X c #E9CCA2",
"*X c #EAD2AC",
"=X c #F3D8AE",
"-X c #EED9B8",
";X c #FEE5BD",
":X c #FAE6BE",
">X c #D8C9BC",
",X c #97A9D0",
"<X c #B3B9C9",
"1X c #DCCDC2",
"2X c #E9DCCA",
"3X c #FFEAC2",
"4X c #F8E7C2",
"5X c #FFF2D3",
"6X c #FFF9EC",
"7X c #E8ECF3",
"8X c #FFFEFE",
"9X c None",
/* pixels */
"9X9X9X9X9X9X9X9X9X9X9X9X9X9X9X9X9X9X9X9X9X9X9X9X9X9X9X9X9X9X9X9X9X9X9X9X9X9X9X9X9X9X9X9X9X9X9X9X9X9X9X9X9X9X9X",
"9X9X9X9X9X9X9X9X9X9X9X9X9X9X9X9X9X9X9X9X9X9X9X9X9X9X9X9X9X9X9X9X9X9X9X9X9X9X9X9X9X9X9X9X9X9X9X9X9X9X9X9X9X9X9X",
"9X9X9X9X9X9X9X9X9X9X9X9X9X9X9X9X9X9X    > g f f g f g g g g >     9X9X9X9X9X9X9X9X9X9X9X9X9X9X9X9X9X9X9X9X9X9X",
"9X9X9X9X9X9X9X9X9X9X9X9X9X9X9X9X9X9X    : g g g g g g f f g :     9X9X9X9X9X9X9X9X9X9X9X9X9X9X9X9X9X9X9X9X9X9X",
"9X9X9X9X9X9X9X9X9X9X9X9X9X9X9X9X9XX : : u g f f f g f f f g i ; : X 9X9X9X9X9X9X9X9X9X9X9X9X9X9X9X9X9X9X9X9X9X",
"9X9X9X9X9X9X9X9X9X9X9X9X9X9X9X    X a f g f f f f g f f f f g g a X     9X9X9X9X9X9X9X9X9X9X9X9X9X9X9X9X9X9X9X",
"9X9X9X9X9X9X9X9X9X9X9X9X9X9X9XX X @ a g g g f f g g g f g g g g a @ X X 9X9X9X9X9X9X9X9X9X9X9X9X9X9X9X9X9X9X9X",
"9X9X9X9X9X9X9X9X9X9X9X9X9X    : a a g g g g g g g f f g g f f g f a a :     9X9X9X9X9X9X9X9X9X9X9X9X9X9X9X9X9X",
"9X9X9X9X9X9X9X9X9X9X9X9X9X    : | f f f f f f f f f f f f f f f f f f :     9X9X9X9X9X9X9X9X9X9X9X9X9X9X9X9X9X",
"9X9X9X9X9X9X9X9X9X9X9X9X9X; ; i  . . . . . . ... . . . . . . . ... . .i ; ; 9X9X9X9X9X9X9X9X9X9X9X9X9X9X9X9X9X",
"9X9X9X9X9X9X9X9X9X9X    + a g O.=.=.=.=.#.=.=.+.=.=.#.=.=.=.=.=.=.#.=.O.g a X     9X9X9X9X9X9X9X9X9X9X9X9X9X9X",
"9X9X9X9X9X9X9X9X9X9X    X a g O.-.-.*.*.*.=.-.*.*.-.-.-.*.*.*.*.*.-.-.O.g a +     9X9X9X9X9X9X9X9X9X9X9X9X9X9X",
"9X9X9X9X9X9X9X9X9X9X    + o.+.%.T 1.p.f.6.1.1.p.f.6.T 1.p.f.p.f.p.1.~ %.#.o.@     9X9X9X9X9X9X9X9X9X9X9X9X9X9X",
"9X9X9X9X9X9X9X9X9X9X9X  + @.#.&._ 2.j.h.0.~ 4.g.h.0.E 4.g.h.h.h.j.3.~ %.#.o.o   9X9X9X9X9X9X9X9X9X9X9X9X9X9X9X",
"9X9X9X9X9X9X9X9X9X9X< ; : %.%.7.9.9.y.u.0.9.9.j.h.0.E 3.g.h.k.y.t.9.9.6.;.;.u ; < 9X9X9X9X9X9X9X9X9X9X9X9X9X9X",
"9X9X9X9X9X9X9X9X    y f h 1.~ l.h.g.2.~ 0.h.h.h.h.0.` 3.g.h.0.T 2.g.h.z.I.K.j g y     9X9X9X9X9X9X9X9X9X9X9X9X",
"9X9X9X9X9X9X9X9X    , h j T E 0.h.d.3.W t.h.h.h.h.0.` 3.g.h.0.~ 3.s.h.x.H.K...f y   . 9X9X9X9X9X9X9X9X9X9X9X9X",
"9X9X9X` ` B..XY.m 5 x b V S.F.S.5.5.i.k.x.L.c.j.h.0._ 3.g.h.l.E ` 4.5.0.j.i.Z m m 5 r Y..XN.` ` 9X9X9X9X9X9X9X",
"9X9X9X` ` V..X XB 8 c c I F.P.S._ 2.g.h.z.H.I.j.h.0.~ 2.g.h.0.~ T ` ~ t.h.s.P 9 t 9 B Y..XV.` ` 9X9X9X9X9X9X9X",
"9X9X9XY Y V.&XoXm.M.! I U e.c.q.8.9.i.k.z.x.c.u.u.0.8.9.t.u.w.m.m.' _ 0.h.s.R I ! [ M.oX&XV.R Y 9X9X9X9X9X9X9X",
"9X9X9XM 9 B.4X;X:X;XT.W 3.d.h.h.h.j.L.H.z.h.d.3._ 0.h.g.3._ V..X+X] ~ 0.h.d.3.E XX3X;X;X3XB.9 M 9X9X9X9X9X9X9X",
"9X9X9XM 9 B.;X:X:X:XT.~ 3.d.h.j.h.j.L.H.z.h.d.3.` 0.h.g.3.` V..X+Xm.` 0.h.d.3.E +X4X:X:X;XC.9 t 9X9X9X9X9X9X9X",
"9X9X9X9X9XU Y ^ `.'./.P I w.L.w.5.5.G.H.z.h.g.3.E 0.h.g.3.E V..X.X&X&XR.c.w.b.E ).'.`.^ ! U 9X9X9X9X9X9X9X9X9X",
"9X9X9X9X9X9 9 C _._.!.8 I F.P.S._ b.G.H.v.h.d.3.~ 0.h.g.3.E V..XoX;X3X$XH.F.b.b.)._._.C 9 t 9X9X9X9X9X9X9X9X9X",
"9X9X9X9X9X9XM C Q.Q.L >.7.4.4.4.` b.F.H.z.h.g.9.5.l.k.v.2.W U.$X#X=X=XT.n.4.8.8.:.Q.Q.C M 9X9X9X9X9X9X9X9X9X9X",
"9X9X9X9X9X9X9X9X    >.h.s.P 9 I ` b.G.H.z.h.h.h.h.v.I.G.] E T.;X;XoXoX[ 9 P s.h.>.    9X9X9X9X9X9X9X9X9X9X9X9X",
"9X9X9X9X9X9X9X9X    >.h.s.N c U ` ' F.H.x.h.h.h.h.v.G.F.] E Y.;X=X.XXX( c P s.j.>.    9X9X9X9X9X9X9X9X9X9X9X9X",
"9X9X9X9X9X9X9X9X    >.h.s.2.Y m * 2 T n.K.c.L.c.c.5.I Y U.+X[ ! ! 3 3 b Y W d.h.>.    9X9X9X9X9X9X9X9X9X9X9X9X",
"9X9X9X9X9X9X9X9X    v h.g.3.] 6   . ! ` S.P.H.P.P.W 8 I  X.X[ t 7     6 b.4.g.h.v     9X9X9X9X9X9X9X9X9X9X9X9X",
"9X9X9X9X9X9X9X9X    v i.y.W T C H H K ^ b.n.S.n.S.] ~ [ M.B./ F F H H J Y W i.k.Q     9X9X9X9X9X9X9X9X9X9X9X9X",
"9X9X9X9X9X9X9X9X    w b.T N 9 {.8X7X^.W.G M M M 9 B.4X&XU 9 G W.^.7X8X{.9 N F.I.V     9X9X9X9X9X9X9X9X9X9X9X9X",
"9X9X9X9X9X9X9X9X    w b.T c 9 }.8X7X^.W.G M B m 9 B.4X=XU t G W.^.7X8X}.8 N F.P.V     9X9X9X9X9X9X9X9X9X9X9X9X",
"9X9X9X9X9X9X9X9X9X9X% = 2 R Y  X5X2X^.E.|.1X>XOX.X*X;X:X1X1X|.E.~.2X5XM.o % 2 3 2 9X9X9X9X9X9X9X9X9X9X9X9X9X9X",
"9X9X9X9X9X9X9X9X9X9X9X  o Y ' +X3X-X~.E.,X8X8X3X3X;X;X3X8X8X,XE.~.-X3X^         9X9X9X9X9X9X9X9X9X9X9X9X9X9X9X",
"9X9X9X9X9X9X9X9X9X9XO $ = K ^ C.$XOX(./.<X6X6X3X;X;X;X3X6X6X<X/.(.OX$XK         9X9X9X9X9X9X9X9X9X9X9X9X9X9X9X",
"9X9X9X9X9X9X9X9X  X 1 M t S D K ` m.=X;X;X3X;X;X;X;X;X;X;X;X;X;X=Xm.' w     9X9X9X9X9X9X9X9X9X9X9X9X9X9X9X9X9X",
"9X9X9X9X9X9X9X9X    1 c C S D K E b.=X3X;X;X;X;X;X;X;X;X;X;X;X;X=Xb.E x     9X9X9X9X9X9X9X9X9X9X9X9X9X9X9X9X9X",
"9X9X9X9X9X9X9X9X    1 c t S D G I I ~ ~ C.$X#X#X#X#X#X#X#X#XC.[ ~ I I 4     9X9X9X9X9X9X9X9X9X9X9X9X9X9X9X9X9X",
"9X9X9X9X9X9X9X9X    & c m S D H 9 c t 9 [ .X.X.X.X.XXX.XOX.X[ 8 9 9 9 &     9X9X9X9X9X9X9X9X9X9X9X9X9X9X9X9X9X",
"9X9X9X9X9X9X9X9X    & 7 q A A n M M b b ) Z.Z.Z.Z.Z.Z.Z.M.M.( ^ / / / e     9X9X9X9X9X9X9X9X9X9X9X9X9X9X9X9X9X",
"9X9X9X9X9X9X9X9X9X9X    . - y z M m h g h h g g f g g h @   M.8X8X8X8XL     9X9X9X9X9X9X9X9X9X9X9X9X9X9X9X9X9X",
"9X9X9X9X9X9X9X9X9X9X    X - y z c x g | g g g g f | g a X   /.8X8X8X8X[.    9X9X9X9X9X9X9X9X9X9X9X9X9X9X9X9X9X",
"9X9X9X9X9X9X9X9X9X9X9X9X9X@ @ y k k n b ,.r.r.r.r.$.b z .   e { { { { J q 4 .   9X9X9X9X9X9X9X9X9X9X9X9X9X9X9X",
"9X9X9X9X9X9X9X9X9X9X9X9X9X    : | h x 9 <.h.h.h.h.<.c 8 .   % 4 4 4 4 q M 7 o     9X9X9X9X9X9X9X9X9X9X9X9X9X9X",
"9X9X9X9X9X9X9X9X9X9X9X9X9XX X u | j b V ,.a.a.a.a.,.V b @ X 2 C r q q r t 7 .     9X9X9X9X9X9X9X9X9X9X9X9X9X9X",
"9X9X9X9X9X9X9X9X9X9X9X  X - - p =.#.=.-. .f | | h O.=.@.y y K .X{.I t t t 7 .     9X9X9X9X9X9X9X9X9X9X9X9X9X9X",
"9X9X9X9X9X9X9X9X9X9X    X - y p =.=.=.=.O.g f f g O.=.@.u y K oX XI 9 t t 7 .     9X9X9X9X9X9X9X9X9X9X9X9X9X9X",
"9X9X9X9X9X9X9X9X9X9X9X9X9X+ @ u  . .#.#.+.O.O.O.O.+.=.#.d i l n F U. X X XC.$     9X9X9X9X9X9X9X9X9X9X9X9X9X9X",
"9X9X9X9X9X9X9X9X9X9X9X9X9X    > g g #.=.=.=.=.=.=.=.=.=.| g >   # *X3X3X5X*X#     9X9X9X9X9X9X9X9X9X9X9X9X9X9X",
"9X9X9X9X9X9X9X9X9X9X9X9X9X    ; s s X.X.X.X.X.X.o.X.X.X.s s ;   # }.@X@XOX X#   9X9X9X9X9X9X9X9X9X9X9X9X9X9X9X",
"9X9X9X9X9X9X9X9X9X9X9X9X9X      X X X X X X . X . X X X X X       o o o o o 9X9X9X9X9X9X9X9X9X9X9X9X9X9X9X9X9X",
"9X9X9X9X9X9X9X9X9X9X9X9X9X                                                  9X9X9X9X9X9X9X9X9X9X9X9X9X9X9X9X9X",
"9X9X9X9X9X9X9X9X9X9X9X9X9X    O * * * = O     9X9X9X9X9X9X9X9X9X9X9X9X9X9X9X9X9X9X9X9X9X9X9X9X9X9X9X9X9X9X9X9X",
"9X9X9X9X9X9X9X9X9X9X9X9X9X    * 0 0 0 q *     9X9X9X9X9X9X9X9X9X9X9X9X9X9X9X9X9X9X9X9X9X9X9X9X9X9X9X9X9X9X9X9X",
"9X9X9X9X9X9X9X9X9X9X9X9X9X. . * q q 0 0 %     9X9X9X9X9X9X9X9X9X9X9X9X9X9X9X9X9X9X9X9X9X9X9X9X9X9X9X9X9X9X9X9X",
"9X9X9X9X9X9X9X9X9X9X9X  . 4 4 w M r 0 0 *     9X9X9X9X9X9X9X9X9X9X9X9X9X9X9X9X9X9X9X9X9X9X9X9X9X9X9X9X9X9X9X9X",
"9X9X9X9X9X9X9X9X9X9X    . 0 0 w M t 0 0 *     9X9X9X9X9X9X9X9X9X9X9X9X9X9X9X9X9X9X9X9X9X9X9X9X9X9X9X9X9X9X9X9X",
"9X9X9X9X9X9X9X9X9X9X    . q r r M t w r =     9X9X9X9X9X9X9X9X9X9X9X9X9X9X9X9X9X9X9X9X9X9X9X9X9X9X9X9X9X9X9X9X",
"9X9X9X9X9X9X9X9X9X9X    . 7 t M M M M M 1     9X9X9X9X9X9X9X9X9X9X9X9X9X9X9X9X9X9X9X9X9X9X9X9X9X9X9X9X9X9X9X9X",
"9X9X9X9X9X9X9X9X9X9X9X  . 5 7 7 7 7 r r &     9X9X9X9X9X9X9X9X9X9X9X9X9X9X9X9X9X9X9X9X9X9X9X9X9X9X9X9X9X9X9X9X",
"9X9X9X9X9X9X9X9X9X9X9X9X9X. . . . . . . . 9X9X9X9X9X9X9X9X9X9X9X9X9X9X9X9X9X9X9X9X9X9X9X9X9X9X9X9X9X9X9X9X9X9X",
"9X9X9X9X9X9X9X9X9X9X9X9X9X                9X9X9X9X9X9X9X9X9X9X9X9X9X9X9X9X9X9X9X9X9X9X9X9X9X9X9X9X9X9X9X9X9X9X",
"9X9X9X9X9X9X9X9X9X9X9X9X9X9X9X9X9X9X9X9X9X9X9X9X9X9X9X9X9X9X9X9X9X9X9X9X9X9X9X9X9X9X9X9X9X9X9X9X9X9X9X9X9X9X9X",
"9X9X9X9X9X9X9X9X9X9X9X9X9X9X9X9X9X9X9X9X9X9X9X9X9X9X9X9X9X9X9X9X9X9X9X9X9X9X9X9X9X9X9X9X9X9X9X9X9X9X9X9X9X9X9X",
"9X9X9X9X9X9X9X9X9X9X9X9X9X9X9X9X9X9X9X9X9X9X9X9X9X9X9X9X9X9X9X9X9X9X9X9X9X9X9X9X9X9X9X9X9X9X9X9X9X9X9X9X9X9X9X"
};
