/* XPM */
static char *result[] = {
/* columns rows colors chars-per-pixel */
"53 65 234 2 ",
"   c #000001",
".  c #0C0604",
"X  c #020C05",
"o  c #0D0906",
"O  c #0B0A0A",
"+  c #130C0A",
"@  c #140B07",
"#  c #051206",
"$  c #081A09",
"%  c #17130C",
"&  c #171410",
"*  c #1C1A1A",
"=  c #080F16",
"-  c #27170C",
";  c #331C0E",
":  c #251813",
">  c #05290E",
",  c #173B0E",
"<  c #062E10",
"1  c #083813",
"2  c #0D390E",
"3  c #382414",
"4  c #333314",
"5  c #172738",
"6  c #12312C",
"7  c #282E35",
"8  c #482918",
"9  c #5A341A",
"0  c #4F341A",
"q  c #663A1D",
"w  c #6C3C1D",
"e  c #613519",
"r  c #723E1D",
"t  c #4B2920",
"y  c #482E29",
"u  c #483623",
"i  c #573724",
"p  c #513229",
"a  c #623B21",
"s  c #743E20",
"d  c #783F20",
"f  c #0C5B1D",
"g  c #114813",
"h  c #215315",
"j  c #364E1E",
"k  c #30771E",
"l  c #105C20",
"z  c #0E6F25",
"x  c #0D6321",
"c  c #0C7A27",
"v  c #0E7B29",
"b  c #0E7126",
"n  c #117C29",
"m  c #177527",
"M  c #126C23",
"N  c #227C28",
"B  c #2F692A",
"V  c #246022",
"C  c #404518",
"Z  c #5F5511",
"A  c #69411E",
"S  c #73401F",
"D  c #7A471E",
"F  c #666601",
"G  c #594522",
"H  c #425D25",
"J  c #4A5522",
"K  c #57483A",
"L  c #555531",
"P  c #6C4B21",
"I  c #684726",
"U  c #744221",
"Y  c #7B4A25",
"T  c #7D4D2A",
"R  c #784725",
"E  c #6D5132",
"W  c #5A7524",
"Q  c #496D2D",
"!  c #72602B",
"~  c #24384D",
"^  c #2E5072",
"/  c #324E6B",
"(  c #0A5B78",
")  c #584D4B",
"_  c #6B5850",
"`  c #49615D",
"'  c #736647",
"]  c #4E5273",
"[  c #757173",
"{  c #8E6D1A",
"}  c #83532D",
"|  c #8A5B2E",
" . c #825331",
".. c #885B34",
"X. c #87613B",
"o. c #966937",
"O. c #9B793E",
"+. c #937133",
"@. c #A57B3F",
"#. c #A2753A",
"$. c #B07E3D",
"%. c #926718",
"&. c #936643",
"*. c #9E734A",
"=. c #8E6F50",
"-. c #A17743",
";. c #A47A42",
":. c #A97F43",
">. c #A57B56",
",. c #A37D59",
"<. c #9D7F6B",
"1. c #188329",
"2. c #278826",
"3. c #299029",
"4. c #379727",
"5. c #368824",
"6. c #3CA129",
"7. c #469A29",
"8. c #558A2A",
"9. c #6B8D30",
"0. c #42A529",
"q. c #48A42B",
"w. c #55AD25",
"e. c #53A72C",
"r. c #75A419",
"t. c #73985A",
"y. c #72975A",
"u. c #678A4D",
"i. c #729771",
"p. c #53835A",
"a. c #AB8B17",
"s. c #88BE15",
"d. c #98833B",
"f. c #AA843C",
"g. c #AE893A",
"h. c #A7803E",
"j. c #B08B37",
"k. c #BA9A32",
"l. c #B99E2C",
"z. c #BFA22E",
"x. c #94A02E",
"c. c #CCB714",
"v. c #C4A92B",
"b. c #D2BD21",
"n. c #D1B52C",
"m. c #E2BD3D",
"M. c #DBD315",
"N. c #D6CA14",
"B. c #E4D715",
"V. c #E2D509",
"C. c #ECE30B",
"Z. c #F2ED08",
"A. c #EAF504",
"S. c #E5F104",
"D. c #F5F107",
"F. c #FFFE00",
"G. c #FAF607",
"H. c #F6EA15",
"J. c #DCC32F",
"K. c #E4CE25",
"L. c #EED529",
"P. c #E9D027",
"I. c #F2D929",
"U. c #E7C635",
"Y. c #948453",
"T. c #AB8144",
"R. c #AB844C",
"E. c #B58A44",
"W. c #B38C55",
"Q. c #BA9568",
"!. c #B08E6C",
"~. c #BEA17C",
"^. c #CB9C4D",
"/. c #C39649",
"(. c #C09252",
"). c #D6A84B",
"_. c #D9A751",
"`. c #DEAB54",
"'. c #D3A150",
"]. c #C6A54E",
"[. c #E2B44A",
"{. c #E1AE54",
"}. c #C19C74",
"|. c #C7A57B",
" X c #CCAA75",
".X c #EAC274",
"XX c #2A4D9B",
"oX c #32529C",
"OX c #2D519E",
"+X c #005B82",
"@X c #4A7980",
"#X c #5F76AC",
"$X c #3FA2B7",
"%X c #7A8590",
"&X c #6E85B8",
"*X c #5FABB6",
"=X c #15ACDF",
"-X c #06B7F6",
";X c #2CAED8",
":X c #6BB9C8",
">X c #0CC1FF",
",X c #8EB694",
"<X c #939BAD",
"1X c #B2B3B1",
"2X c #9F9688",
"3X c #CDAB82",
"4X c #D5B48B",
"5X c #D8B68D",
"6X c #DAB98D",
"7X c #D3B182",
"8X c #DBBB91",
"9X c #D8B790",
"0X c #CBB389",
"qX c #8AC298",
"wX c #E2C39B",
"eX c #E9CCA3",
"rX c #EDD1A7",
"tX c #F2D6AE",
"yX c #F5DBB2",
"uX c #FDE4BB",
"iX c #FFE9BF",
"pX c #DEC09A",
"aX c #BBC5DE",
"sX c #CBCCD0",
"dX c #E4DCCF",
"fX c #FFEBC2",
"gX c #FCE8C9",
"hX c #FFF3DE",
"jX c #F2E8D1",
"kX c #FFFFFE",
"lX c #F9F7F5",
"zX c #F0ECE8",
"xX c #CED6E9",
"cX c None",
/* pixels */
"cXcXcXcXcXcXcXcXcXcXcXcXcXcXcXcXcXcXcXcXcXcXcXcXcXcXcXcXcXcXcXcXcXcXcXcXcXcXcXcXcXcXcXcXcXcXcXcXcXcXcXcXcX",
"cXcXcXcXcXcXcXcXcXcXcXcXcXcXcXcXcXcXcXcXcXcXcXcXcXcXcXcXcXcXcXcXcXcXcXcXcXcXcXcXcXcXcXcXcXcXcXcXcXcXcXcXcX",
"cXcXcXcXcXcXcXcXcXcXcXcXcXcXcXcXcXcXcXcXcXcXcXcXcXcXcXcXcXcXcXcXcXcXcXcXcXcXcXcXcXcXcXcXcXcXcXcXcXcXcXcXcX",
"cXcXcXcXcXcXcXcXcXcXcXcXcXcXcXcXcXcXcXcXcXcXcXcXcXcXcXcXcXcXcXcXcXcXcXcXcXcXcXcXcXcXcXcXcXcXcXcXcXcXcXcXcX",
"cXcXcXcXcXcXcXcXcXcXcXcXcXcXcXcXcXcXcXcXcXcXcXcXcXcXcXcXcXcXcXcXcXcXcXcXcXcXcXcXcXcXcXcXcXcXcXcXcXcXcXcXcX",
"cXcXcXcXcXcXcXcXcXcXcXcXcXcXcXcXcXcXcX    x v v v n n n v n n >     cXcXcXcXcXcXcXcXcXcXcXcXcXcXcXcXcXcXcX",
"cXcXcXcXcXcXcXcXcXcXcXcXcXcXcXcXcXcXcXX   l 1.v v n v v v n v $     cXcXcXcXcXcXcXcXcXcXcXcXcXcXcXcXcXcXcX",
"cXcXcXcXcXcXcXcXcXcXcXcXcXcXcXcXcXcX$ 1 g m 3.3.3.3.3.3.3.3.3.l 1 1     cXcXcXcXcXcXcXcXcXcXcXcXcXcXcXcXcX",
"cXcXcXcXcXcXcXcXcXcXcXcXcXcXcXcX    > n n 4.q.0.0.0.0.0.0.0.q.1.1.x     cXcXcXcXcXcXcXcXcXcXcXcXcXcXcXcXcX",
"cXcXcXcXcXcXcXcXcXcXcXcXcXcXcXcXX X 1 v v 4.6.4.6.0.4.0.6.6.6.2.v x # X cXcXcXcXcXcXcXcXcXcXcXcXcXcXcXcXcX",
"cXcXcXcXcXcXcXcXcXcXcXcXcXcX    l z b n v 1.n 1.1.n n n 1.n n n n v z z >     cXcXcXcXcXcXcXcXcXcXcXcXcXcX",
"cXcXcXcXcXcXcXcXcXcXcXcXcXcX    x v n n v v v v n n n v v n v v v v v v >     cXcXcXcXcXcXcXcXcXcXcXcXcXcX",
"cXcXcXcXcXcXcXcXcXcXcXcXcX> 1 g 1.3.3.3.3.3.3.3.3.3.3.3.3.3.3.3.3.3.3.3.l 2 1 X   cXcXcXcXcXcXcXcXcXcXcXcX",
"cXcXcXcXcXcXcXcXcXcXcX    < 1.v 6.6.0.0.0.6.6.6.0.0.0.0.0.6.0.0.0.0.0.0.1.1.x     cXcXcXcXcXcXcXcXcXcXcXcX",
"cXcXcXcXcXcXcXcXcXcXcXX X , n N q.e.w.w.w.w.w.w.7.q.7.e.q.w.w.w.w.w.q.q.3.1.z # X cXcXcXcXcXcXcXcXcXcXcXcX",
"cXcXcXcXcXcXcXcXcX  X f z k Y.*.].].J.A.A.A.A.N.T.d.d.*.l.A.A.A.A.M.d.*.9.6.4.b b <     cXcXcXcXcXcXcXcXcX",
"cXcXcXcXcXcXcXcXcX  X x 1.Q ;.:.'.{.U.F.F.F.F.B.;.-.;.;.k.F.F.F.F.C.;.-.9.6.4.1.1.<     cXcXcXcXcXcXcXcXcX",
"cXcXcXcXcXcXcXcXcX    j H 9.b.b.P.L.K.b.b.D.F.Z.b.b.j.-.k.F.F.M.b.b.J.b.x.9.8.v v <     cXcXcXcXcXcXcXcXcX",
"cXcXcXcXcXcXcXcXcX  . 9 r a.F.F.F.F.B.*.;.C.F.F.F.F.z.-.k.F.F.z.*.k.F.F.n.*.+.1.v <     cXcXcXcXcXcXcXcXcX",
"cXcXcXcXcXcXcXcXcX. @ U Y a.D.D.G.G.K.g.g.B.D.G.F.F.v.f.v.F.F.v.O.k.G.A.z.E.d.N m 2 . @ cXcXcXcXcXcXcXcXcX",
"cXcXcXcX;.T.3X9X,.e s E.'./.g.j.).[.U.D.Z.z.g.v.F.F.G.D.G.F.F.z.-.h.g.g.N.G.M.D I q q T 3X5XQ.@.;.cXcXcXcX",
"cXcXcXcX;.T.3X9XW.r U ^.{.^.;.;.'.{.U.F.F.k.-.z.F.F.F.F.F.F.F.z.*.#.@.;.M.F.V.D U s U T 3X4XQ.#.;.cXcXcXcX",
"cXcXcXcX..o.8XrX}.| | U.I.n.;.:.J.I.K.b.b.g.;.z.F.F.I.L.K.b.b.].Q.Q.;.;.M.F.C.o...R.!.|.eXeXQ.| X.cXcXcXcX",
"cXcXcXcXU T rXfX6X@.g.C.F.M.-.$.C.F.M.*.-.;.-.z.F.F.U.{.^.;.-.|.6X|.;.@.M.F.C.T.;.6XfXfXuXuX!.w S cXcXcXcX",
"cXcXcXcXD } 8XtX0XY.Y.B.C.c.:.g.C.F.B.g.g.g.g.v.G.G.m.`.^.:.:.}.4X|.R.R.K.F.C.T.#.0XdXyXyXyX!.w U cXcXcXcX",
"cXcXcXcXcXcX . .@X=X=X' %.#._.).H.F.F.D.D.D.D.B.[.[.E.T.W.3X4X4X6X8XtXyX.X[.).;.O.*X>X;X' T  .cXcXcXcXcXcX",
"cXcXcXcXcXcXD r ` -X-X) w o.{.[.H.F.F.F.F.F.F.H.{.`.E.:.W.4X4X4X4X8XiXiX.X{.).:.O.$X-X=XI s cXcXcXcXcXcXcX",
"cXcXcXcXcXcX; ; ` :X:X=.| #././.P.L.L.L.L.L.L.U././.o...*.4X4XpXeXeXeXrX(.#.f.b.J.p.+X( I U cXcXcXcXcXcXcX",
"cXcXcXcXcXcX    ) pX7XR.:.;.;.;.'.{.`.`.`.`.`.^.;.;.} r ..4X4XtXfXyX5X4X&.s %.D.F.F     cXcXcXcXcXcXcXcXcX",
"cXcXcXcXcXcX    K 0X|.E.g.f.O.O.E./.^._._._._.^.O.O. .Y &.4X4XeXtXeX~.~.&.R { G.F.F     cXcXcXcXcXcXcXcXcX",
"cXcXcXcXcXcX    3 T } V.G.c.S U 3 @ u f.T.T.T.o.R R !.3X3X4X4X*.} I & & P *.j.G.F.F     cXcXcXcXcXcXcXcXcX",
"cXcXcXcXcXcX    ; S D S.F.c.w S @   3 h.@.@.h.o.r r Q.5X4X5X5Xo.r 9     E ;.k.F.F.F     cXcXcXcXcXcXcXcXcX",
"cXcXcXcXcXcXcXcX- 3 8 n.I.l.s R =.%X[ [ [ X.| o.>.>.5XeX5X>.>._ ) ] [ 2X'  .#.P.I.Z     cXcXcXcXcXcXcXcXcX",
"cXcXcXcXcXcXcXcXcX  . E.{.T.s T xXlXaXOXXXK r X.4X5XyXfX8Xr r ] OX#XkXkX!.a } _.`.G     cXcXcXcXcXcXcXcXcX",
"cXcXcXcXcXcXcXcXcX  @ g.).$.U T dXkXaXoXoX_  .>.5X9XyXfXpX..X.oXOX#XlXkX<.e Y /.^.G     cXcXcXcXcXcXcXcXcX",
"cXcXcXcXcXcXcXcXcXcXcXY } | O.-.eXgX1XoXoXsXzXjXfXyXfXyXgXzXzX&XOX#XgXgX_ . @ @ % cXcXcXcXcXcXcXcXcXcXcXcX",
"cXcXcXcXcXcXcXcXcXcXcXU w | ;.T.rXfX1XoXoXxXkXlXfXfXuXuXgXkXkX&XXX#XuXfXK         cXcXcXcXcXcXcXcXcXcXcXcX",
"cXcXcXcXcXcXcXcXcXcXcXcXcXI i G Q.7X0X<X<XdXhXhXyXfXfXuXgXhXhX1X<X<X7X7XG         cXcXcXcXcXcXcXcXcXcXcXcX",
"cXcXcXcXcXcXcXcXcXcXcXcXcXcX    X.@.}.fXiXuXuXuXuXgXuXuXfXyXyXfXuXrX:.;.3     cXcXcXcXcXcXcXcXcXcXcXcXcXcX",
"cXcXcXcXcXcXcXcXcXcXcXcXcXcXX # ! o.Q.tXtXyXuXuXuXyXuXyXfXyXuXyXrXpX-.-.4 X X cXcXcXcXcXcXcXcXcXcXcXcXcXcX",
"cXcXcXcXcXcXcXcXcXcXcX    < z M P Y Y  . .|.9X5X9X9X8X6X9X9X8X*.} } D D V c f     cXcXcXcXcXcXcXcXcXcXcXcX",
"cXcXcXcXcXcXcXcXcXcXcX    < c c G D D S U }.6X5X5X5X5X5X5X6X5X&.r D r r V 1.x X   cXcXcXcXcXcXcXcXcXcXcXcX",
"cXcXcXcXcXcXcX    cX. 5 5 / qX,XL 0 j H H u.t.t.y.y.y.y.t.t.t.Q k j C 0 i.qX%X3 - + cX      cXcXcXcXcXcXcX",
"cXcXcXcXcXcX          ~ ^ <XkXkXB g f c v v c v c c v v c c c v c x g g 1XkXdXp t %         cXcXcXcXcXcXcX",
"cXcXcXcXcXcX. . . . + / ^ %XzXxXQ , g n n v n v v v v n n v v v c M g , ,XzX1Xp y : . . . . . cXcXcXcXcXcX",
"cXcXcXcX  . 9 q a e a / ^ ~ * : i I J v n n v v v v v v n n n v c B A w 3 * 7 / / K w q q w ;     cXcXcXcX",
"cXcXcXcX  . e S s s I ` oX~     9 d J v c v n v c c v v v v v v 1.N r r -   = ^ ^ ) r r r r ;     cXcXcXcX",
"cXcXcXcX  . =.>.>.>.,.7 6 6 1 g H W W H H H H W s.s.s.s.r.H H H H H W W :   O 5 5 _ >.>.>.>.u     cXcXcXcX",
"cXcXcXcX  + ~.9X9X9X3X*   < 1.1.4.6.8.D S D U { F.F.F.F.V.w r U s Z 0.0.,         =.8X6X5X8XK     cXcXcXcX",
"cXcXcXcX  + !.~.~.~.~.:   < z z 4.0.8.A A I A { A.A.S.S.N.P A P P ! 0.0.,         ' |.~.~.3XK     cXcXcXcX",
"cXcXcXcXcXcX& & % & & cXcXcXX # 5.0.q.7.7.2.m N 2.2.2.2.2.m m 4.7.7.0.0.,     cXcX& & & & & & cXcXcXcXcXcX",
"cXcXcXcXcXcX          cXcXcX    5.0.0.q.6.1.n v c v v c v v v 4.0.0.0.q.,     cXcX          cXcXcXcXcXcXcX",
"cXcXcXcXcXcXcX      cXcXcXcX  X g h h h h 2.3.3.3.3.3.3.3.3.3.3.3.2.h h $       cX          cXcXcXcXcXcXcX",
"cXcXcXcXcXcXcXcXcXcXcXcXcXcX              k 0.q.0.0.0.q.0.0.6.2.v x               cXcXcXcXcXcXcXcXcXcXcXcX",
"cXcXcXcXcXcXcXcXcXcXcXcXcXcX            . k 4.4.4.7.5.4.4.7.7.m m l O . . . O     cXcXcXcXcXcXcXcXcXcXcXcX",
"cXcXcXcXcXcXcXcXcXcXcXcXcXcXcXcX    + 8 8 % # # # # # # % 0 0 u t u q q q q 0 .   cXcXcXcXcXcXcXcXcXcXcXcX",
"cXcXcXcXcXcXcXcXcXcXcXcXcXcXcXcX    % t t +             @ t t 8 t p U s U D 9     cXcXcXcXcXcXcXcXcXcXcXcX",
"cXcXcXcXcXcXcXcXcXcXcXcXcXcXcXcXcXcX+ : : . cX        cX@ : : 8 9 q U s 8 3 ; .   cXcXcXcXcXcXcXcXcXcXcXcX",
"cXcXcXcXcXcXcXcXcXcXcXcXcXcXcXcXcXcXcX    cXcXcXcXcXcXcXcX    0 U U U U -     cXcXcXcXcXcXcXcXcXcXcXcXcXcX",
"cXcXcXcXcXcXcXcXcXcXcXcXcXcXcXcXcXcXcX    cXcXcXcXcXcXcXcX    8 w q q w -     cXcXcXcXcXcXcXcXcXcXcXcXcXcX",
"cXcXcXcXcXcXcXcXcXcXcXcXcXcXcXcXcXcXcXcXcXcXcXcXcXcXcXcXcXcXcX. . . . . cXcXcXcXcXcXcXcXcXcXcXcXcXcXcXcXcX",
"cXcXcXcXcXcXcXcXcXcXcXcXcXcXcXcXcXcXcXcXcXcXcXcXcXcXcXcXcXcXcX          cXcXcXcXcXcXcXcXcXcXcXcXcXcXcXcXcX",
"cXcXcXcXcXcXcXcXcXcXcXcXcXcXcXcXcXcXcXcXcXcXcXcXcXcXcXcXcXcXcXcX        cXcXcXcXcXcXcXcXcXcXcXcXcXcXcXcXcX",
"cXcXcXcXcXcXcXcXcXcXcXcXcXcXcXcXcXcXcXcXcXcXcXcXcXcXcXcXcXcXcXcXcXcXcXcXcXcXcXcXcXcXcXcXcXcXcXcXcXcXcXcXcX",
"cXcXcXcXcXcXcXcXcXcXcXcXcXcXcXcXcXcXcXcXcXcXcXcXcXcXcXcXcXcXcXcXcXcXcXcXcXcXcXcXcXcXcXcXcXcXcXcXcXcXcXcXcX"
};
