/* XPM */
static char *result[] = {
/* columns rows colors chars-per-pixel */
"50 58 200 2 ",
"   c #000001",
".  c #0B0604",
"X  c #020C05",
"o  c #0B0A09",
"O  c #150C09",
"+  c #071707",
"@  c #16120F",
"#  c #121511",
"$  c #371E0F",
"%  c #251511",
"&  c #291A11",
"*  c #361F10",
"=  c #391F10",
"-  c #21120F",
";  c #073B09",
":  c #073D15",
">  c #083C15",
",  c #073713",
"<  c #0F300E",
"1  c #3B2211",
"2  c #372912",
"3  c #3C3517",
"4  c #172839",
"5  c #45261D",
"6  c #47291A",
"7  c #4D3A1E",
"8  c #663A1C",
"9  c #6C3B1D",
"0  c #723E1E",
"q  c #4D2A21",
"w  c #563A21",
"e  c #4F3329",
"r  c #663A21",
"t  c #753E20",
"y  c #0B4517",
"u  c #0B4810",
"i  c #164814",
"p  c #124D12",
"a  c #3D4417",
"s  c #215215",
"d  c #244C1D",
"f  c #28701B",
"g  c #285621",
"h  c #0E6E25",
"j  c #0D6321",
"k  c #0E7B29",
"l  c #0F7527",
"z  c #1B7528",
"x  c #127D29",
"c  c #187527",
"v  c #1A6F25",
"b  c #22762B",
"n  c #267B3B",
"m  c #68421E",
"M  c #73401F",
"N  c #765A1E",
"B  c #7E7B05",
"V  c #415E25",
"C  c #514A2A",
"Z  c #694721",
"A  c #6B4821",
"S  c #754321",
"D  c #784523",
"F  c #7D4D2B",
"G  c #774B26",
"H  c #665024",
"J  c #705828",
"K  c #6F4E33",
"L  c #4B6628",
"P  c #587525",
"I  c #2D4E6F",
"U  c #554D4D",
"Y  c #675844",
"T  c #746954",
"R  c #60614B",
"E  c #7C7978",
"W  c #405B75",
"Q  c #83541C",
"!  c #807E00",
"~  c #814D26",
"^  c #83522B",
"/  c #885B28",
"(  c #8B5D32",
")  c #865735",
"_  c #9D733C",
"`  c #957A3E",
"'  c #906C34",
"]  c #A1773E",
"[  c #A2793E",
"{  c #A9773A",
"}  c #9F7A42",
"|  c #967449",
" . c #A17643",
".. c #A47A41",
"X. c #A97D42",
"o. c #A47A55",
"O. c #A17751",
"+. c #817460",
"@. c #14812A",
"#. c #1C8529",
"$. c #258526",
"%. c #2B8A26",
"&. c #279129",
"*. c #299029",
"=. c #399727",
"-. c #258134",
";. c #3DA129",
":. c #489429",
">. c #748E36",
",. c #759234",
"<. c #42A629",
"1. c #46A62A",
"2. c #298C41",
"3. c #7F997B",
"4. c #85B915",
"5. c #9A803F",
"6. c #AB853A",
"7. c #AE893A",
"8. c #A88237",
"9. c #B28B3B",
"0. c #B79734",
"q. c #BD9A2D",
"w. c #A9A519",
"e. c #D2BD21",
"r. c #CAAD2E",
"t. c #9BCA18",
"y. c #A0D214",
"u. c #D7D113",
"i. c #E6DD0B",
"p. c #EDE40D",
"a. c #F3EC03",
"s. c #F2E90F",
"d. c #F6F206",
"f. c #FFFE00",
"g. c #FAF508",
"h. c #FEFA08",
"j. c #F9F305",
"k. c #EAF107",
"l. c #D5C021",
"z. c #E2CA27",
"x. c #EDD428",
"c. c #F0D829",
"v. c #AC844C",
"b. c #B28D43",
"n. c #A98357",
"m. c #B9935B",
"M. c #BA8F4E",
"N. c #80AE40",
"B. c #BC9765",
"V. c #B9946E",
"C. c #BC9967",
"Z. c #B89773",
"A. c #B48E68",
"S. c #C1934B",
"D. c #C89D45",
"F. c #C69950",
"G. c #D5A54A",
"H. c #DFAC53",
"J. c #D9A753",
"K. c #DCB047",
"L. c #E2B54A",
"P. c #E6BA48",
"I. c #E0AD53",
"U. c #E7B356",
"Y. c #CCAA7C",
"T. c #C7A57B",
"R. c #D2B17F",
"E. c #85D47C",
"W. c #005C81",
"Q. c #476685",
"!. c #7FDF82",
"~. c #00BDFF",
"^. c #16B8F4",
"/. c #818183",
"(. c #88A389",
"). c #BBB093",
"_. c #C0AE80",
"`. c #CDAA82",
"'. c #D0AE85",
"]. c #D4B383",
"[. c #D6B48B",
"{. c #D9B88E",
"}. c #DBBB93",
"|. c #C1B082",
" X c #D7C39A",
".X c #E8C693",
"XX c #EBCEA5",
"oX c #E7CAA0",
"OX c #ECD3A9",
"+X c #F1D6AD",
"@X c #F5DAAF",
"#X c #F6DBB1",
"$X c #F9DFB5",
"%X c #FEE5BC",
"&X c #FFE8BF",
"*X c #FAE0B6",
"=X c #D2DCD6",
"-X c #FFEAC1",
";X c #F3F6F4",
":X c None",
/* pixels */
":X:X:X:X:X:X:X:X:X:X:X:X:X:X:X:X:X:X  : k k x k x k x x k :   :X:X:X:X:X:X:X:X:X:X:X:X:X:X:X:X:X:X:X",
":X:X:X:X:X:X:X:X:X:X:X:X:X:X:X:X:X    : x x k x x k x x k >     :X:X:X:X:X:X:X:X:X:X:X:X:X:X:X:X:X:X",
":X:X:X:X:X:X:X:X:X:X:X:X:X:X:X:X:XX X y #.x x @.x @.@.x @.y X X :X:X:X:X:X:X:X:X:X:X:X:X:X:X:X:X:X:X",
":X:X:X:X:X:X:X:X:X:X:X:X:X:X:X  X j h $.;.=.<.=.=.;.;.;.;.$.h j X   :X:X:X:X:X:X:X:X:X:X:X:X:X:X:X:X",
":X:X:X:X:X:X:X:X:X:X:X:X:X:X:X  X h k *.1.<.<.<.<.<.1.1.1.*.x h X   :X:X:X:X:X:X:X:X:X:X:X:X:X:X:X:X",
":X:X:X:X:X:X:X:X:X:X:X:X:X:X< : y l x #.*.*.*.*.*.*.&.*.*.#.k l y : < :X:X:X:X:X:X:X:X:X:X:X:X:X:X:X",
":X:X:X:X:X:X:X:X:X:X:X:X    y k x x x x k x x x l k x x x x x k x @.y     :X:X:X:X:X:X:X:X:X:X:X:X:X",
":X:X:X:X:X:X:X:X:X:X:X:XX X y @.x x x x x x x x x x x x x x x x x @.y X X :X:X:X:X:X:X:X:X:X:X:X:X:X",
":X:X:X:X:X:X:X:X:X:X  X j h $.;.;.;.;.;.;.;.;.;.;.=.;.;.;.;.=.;.=.;.$.h j X   :X:X:X:X:X:X:X:X:X:X:X",
":X:X:X:X:X:X:X:X:X    X h x &.<.;.;.;.;.;.;.;.;.<.<.;.;.;.<.<.;.1.<.*.k h X     :X:X:X:X:X:X:X:X:X:X",
":X:X:X:X:X:X:X:X:X    X b *.:.>.,.t.y.y.y.t.,.,.,.,.,.t.y.N.,.,.>.>.:.*.$.X     :X:X:X:X:X:X:X:X:X:X",
":X:X:X:X:X:X:X:X:X:X  + =.1.>...9.g.f.f.f.g.9. .....9.g.f.e.......X.>.<.=.o   :X:X:X:X:X:X:X:X:X:X:X",
":X:X:X:X:X:X:X:X:XX X + :.1.>...7.d.f.h.a.p.0.7.6...7.d.f.l.7.7...X.>.1.:.+ X X :X:X:X:X:X:X:X:X:X:X",
":X:X:X:X:X:X:X    > h b ` } } ..7.d.f.l.6.0.p.g.r...7.d.f.h.d.p.7.....5.` c h :     :X:X:X:X:X:X:X:X",
":X:X:X:X:X:X:X    y k $.` ....} 7.g.f.e.} 6.d.f.e.} 6.d.f.f.f.d.7. .....` x @.:     :X:X:X:X:X:X:X:X",
":X:X:X..B.:XZ.6 = 7 g L b.M.r.e.l.x.c.l.e.e.e.e.e.e.l.x.c.l.e.e.e.e.q...` L L 3 1 6 Z.:XB...:X:X:X:X",
":X:X....B.[.`.^ S 0 0 ~ G.H.c.f.h.L.J.c.f.d.7. .e.f.h.L.H.M. .6.d.f.e. ._ D M M M ^ `.[.B.....:X:X:X",
":X:X_ _ V.}.`.) ^ F D ^ G.L.x.j.s.P.L.x.d.p.7. .e.f.h.K.J.S.v.b.p.d.e.7.8.^ D G ^ ( '.}.B._ _ :X:X:X",
":X:XD D V.%X$X+X+XT._ 8.s.h.e.6.0.s.h.e.7.7.[  .e.f.d.9.v.m.'.Y.b.6.e.g.p.8._ T.+X+X$X-XV.D D :X:X:X",
":X:XS t V.-X-X-X-X].[ 7.d.f.e.} 6.d.f.e. ...[  .e.f.d.7.] B.[.'.v. .e.f.d.7.[ R.-X-X-X-XV.0 S :X:X:X",
":X:X:X:Xo.V.Z.oXXXB.( ' e.e.r.S.D.d.f.i.e.e.D.S.q.w.w.B.B.].XX.Xv...r.x.z.6.] T.XXoXZ.V.o.:X:X:X:X:X",
":X:X:X:X:X9 F Y.[.o.0 S _ [ M.I.L.h.f.f.f.h.L.U.{ t ~ `.[.XX-X#Xv.] S.H.J.6.[ C.[.`.F 9 :X:X:X:X:X:X",
":X:X:X:X:XS G ).).n.Q Q _ _ M.H.L.s.h.d.a.p.G.G.{ D ) '.{.OX%X#XM.v.M.G.F.9.7.C.).).F t :X:X:X:X:X:X",
":X:X:X:X:X:X:X^.^.E.a.i./ M { I.H.L.P.D.b.8.^ G o.`.'.#X$X*X-X$X[.R.o.~ / p.j.E.^.^.:X:X:X:X:X:X:X:X",
":X:X:X:X:X:X:X~.~.!.f.a.N 0 { H.H.I.I.S...] D 9 o.[.}.$X-X-X-X$X}.}.o.9 Q a.f.!.~.~.:X:X:X:X:X:X:X:X",
":X:X:X:X:X:X:XW.W.N.f.a.' ( F..X.XF.S.[ ( ( O.o.T.XXoX[.'.R.].Y.n.o.| ( ' a.f.N.W.W.:X:X:X:X:X:X:X:X",
":X:X:X:X:X:X:X    ! f.d.9.{ R.&X@Xb...( M F `.[.XX-X+XX.....[ _ D 9 ( ..7.d.f.!     :X:X:X:X:X:X:X:X",
":X:X:X:X:X:X:X    B f.s.{ ] Y.%XOXm.v.| F ( '.}.XX-X#Xm.v.v.v.X.) F ( _ 8.s.h.B     :X:X:X:X:X:X:X:X",
":X:X:X:X:X:X:X    J P.G.^ D n.}.}.@X#X@X+X+X$X*X%X%X%X#X#X@X#X+X`.`.O.D ^ G.P.J     :X:X:X:X:X:X:X:X",
":X:X:X:X:X:X:X    J U.J.~ S o.{.{.*X-X%X-X-X%X%X%X%X&X&X-X-X-X*X}.}.o.S ~ G.U.J     :X:X:X:X:X:X:X:X",
":X:X:X:X:X:X:X:X:X7 J H 1 = K o.o.Y.].R.R.].*X%X%X%X*X].R.R.R.Y.n.o.K $ 6 H J 7 :X:X:X:X:X:X:X:X:X:X",
":X:X:X:X:X:X:X:X:X:X        = M D _ ] ] ] v.@X&X%X&X@Xv.] [ [ _ D 0 $         :X:X:X:X:X:X:X:X:X:X:X",
":X:X:X:X:X:X:X:X:X:X        1 G F v.v.v.v.m.#X-X%X&X#Xm.v.v.v.v.F G 1         :X:X:X:X:X:X:X:X:X:X:X",
":X:X:X:X:X:X:X:X:X:X:X:X    7 ] X.XX#X#X#X#X%X%X%X%X%X#X@X@X$XXXX. .7     :X:X:X:X:X:X:X:X:X:X:X:X:X",
":X:X:X:X:X:X:X:X:X:X:X:X    w v.n.$X-X-X-X&X%X%X%X%X%X-X-X-X-X#Xv.6.w     :X:X:X:X:X:X:X:X:X:X:X:X:X",
":X:X:X:X:X:X:X:X:X:X  X : ; C ( ' A.V.[.XXXXXXXXXXXXXXXXXX'.V.A.' ( C : > X   :X:X:X:X:X:X:X:X:X:X:X",
":X:X:X:X:X:X:X:X:X  X + h @.g ~ 0 0 9 o.[.].[.[.[.[.].].{.o.0 0 t t g x c X     :X:X:X:X:X:X:X:X:X:X",
":X:X:X:X:X:X:X:X:Xo X # n -.L A Z Z m | Y.T.).T._._.).T.|.| Z Z Z 9 b 2.n # . . :X:X:X:X:X:X:X:X:X:X",
":X:X:X:X:X:X:X    4 I I =X;XZ.: i v x x #.-.#.-.-.-.-.-.-.b x z i ; Z.;X=Xe q %     :X:X:X:X:X:X:X:X",
":X:X:X:X:X:X:X    4 I Q.;X;X(.; y l k k @.@.k k k k k k k k x l u ; (.;X;Xe q %     :X:X:X:X:X:X:X:X",
":X:X:X:X:X  . * 1 e U U E /.R 3 a x x x k x k k k k k k k x k c a 7 R /.E r 8 6 1 * .   :X:X:X:X:X:X",
":X:X:X:X    . r S S 0 8 .   = M m l k k k k k @.k k k @.k l k c m S =   . 8 0 S S r .     :X:X:X:X:X",
":X:X:X:X    . A K ) ) K o   2 G H f c f c z %.$.%.%.%.c z z c b H H 2   o G ^ ^ F S o     :X:X:X:X:X",
":X:X:X:X    @ Z.`.}.+X}.d ; f 1.:.H m m m N i.k.k.k.u.N Z A Z H :.1.f , d  X@X}.`.Z.@     :X:X:X:X:X",
":X:X:X:X    # T.{.XX-XOXd u f 1.;.A M 0 M Q k.d.f.d.k.Q 0 t t A :.<.f u g +X-XXX{._.#     :X:X:X:X:X",
":X:X:X:X:X  @ Y Y T E T < + s *.%.P P P V :.,.4.4.t.,.L L L P P %.*.s + < T E T Y Y @   :X:X:X:X:X:X",
":X:X:X:X:X:X:X  .           y @.#.;.<.&.l @.l l l @.@.@.k &.;.;.@.@.u               :X:X:X:X:X:X:X:X",
":X:X:X:X:X:X:X              : h l =.<.%.l #.@.@.@.@.@.@.@.*.;.=.l h ,           .   :X:X:X:X:X:X:X:X",
":X:X:X:X:X:X:X:X:X:X:X:X      X + l @.*.;.;.;.;.;.;.;.;.=.*.@.c + X       :X:X:X:X:X:X:X:X:X:X:X:X:X",
":X:X:X:X:X:X:X:X:X:X:X:X        X h k *.1.<.<.<.<.1.<.<.1.*.k h X         :X:X:X:X:X:X:X:X:X:X:X:X:X",
":X:X:X:X:X:X:X:X:X:X  . = 1 & % & , : i s s s s s s s s s i : , % - & 1 * .   :X:X:X:X:X:X:X:X:X:X:X",
":X:X:X:X:X:X:X:X:X    o 9 S r q 5 X                     X     . 5 q r D 9 o     :X:X:X:X:X:X:X:X:X:X",
":X:X:X:X:X:X:X:X:X    . 8 t w q 5 O .                       . O 5 q r M 8 .     :X:X:X:X:X:X:X:X:X:X",
":X:X:X:X:X:X:X:X:X    . 8 S t t r 5 5 %     :X:X:X:X:X    - 5 6 9 t M M 8 o     :X:X:X:X:X:X:X:X:X:X",
":X:X:X:X:X:X:X:X:X    . 9 S S S t q q %     :X:X:X:X:X    % q q A S S S 8 o     :X:X:X:X:X:X:X:X:X:X",
":X:X:X:X:X:X:X:X:X:X  . * 1 1 1 1 % % @ :X:X:X:X:X:X:X:X:X@ % % = = 1 = = .   :X:X:X:X:X:X:X:X:X:X:X",
":X:X:X:X:X:X:X:X:X:X:X:X              :X:X:X:X:X:X:X:X:X:X:X              :X:X:X:X:X:X:X:X:X:X:X:X:X",
":X:X:X:X:X:X:X:X:X:X:X:X                :X:X:X:X:X:X:X:X:X                :X:X:X:X:X:X:X:X:X:X:X:X:X"
};
