/* XPM */
static char *result[] = {
/* columns rows colors chars-per-pixel */
"57 66 230 2 ",
"   c #000101",
".  c #0A0605",
"X  c #0B0A03",
"o  c #0D0C0C",
"O  c #030A05",
"+  c #170C08",
"@  c #1C160A",
"#  c #0A1711",
"$  c #28160B",
"%  c #281911",
"&  c #301E10",
"*  c #062B0F",
"=  c #082A0C",
"-  c #15370E",
";  c #083412",
":  c #0A320E",
">  c #2B2517",
",  c #392917",
"<  c #3E3117",
"1  c #3B3B3C",
"2  c #322E28",
"3  c #4A291D",
"4  c #482819",
"5  c #45351B",
"6  c #5C331A",
"7  c #55311A",
"8  c #502D16",
"9  c #64391C",
"0  c #6F3D1D",
"q  c #723E1E",
"w  c #4B2A20",
"e  c #4B2720",
"r  c #4C3526",
"t  c #663A21",
"y  c #723D21",
"u  c #0C430D",
"i  c #1B4311",
"p  c #1E4C13",
"a  c #0C581D",
"s  c #114E14",
"d  c #244616",
"f  c #37581F",
"g  c #26671B",
"h  c #0D5F20",
"j  c #115F22",
"k  c #344722",
"l  c #0D6321",
"z  c #0E6B23",
"x  c #0E7B29",
"c  c #0E7A27",
"v  c #127C29",
"b  c #167827",
"n  c #136322",
"m  c #266D27",
"M  c #366726",
"N  c #277923",
"B  c #59421C",
"V  c #4A481D",
"C  c #74411F",
"Z  c #695015",
"A  c #676701",
"S  c #5D4D22",
"D  c #584426",
"F  c #534E2F",
"G  c #6E4320",
"H  c #674A29",
"J  c #744221",
"K  c #7B4827",
"L  c #745830",
"P  c #4E7D25",
"I  c #716432",
"U  c #263F59",
"Y  c #2A4858",
"T  c #34526C",
"R  c #256059",
"E  c #49494A",
"W  c #574E46",
"Q  c #624743",
"!  c #6B5C4F",
"~  c #474D74",
"^  c #427774",
"/  c #676552",
"(  c #946F18",
")  c #A17E16",
"_  c #84532A",
"`  c #8F5D2D",
"'  c #875B36",
"]  c #886238",
"[  c #966B39",
"{  c #956837",
"}  c #937A3E",
"|  c #8B7A3F",
" . c #A77E3F",
".. c #926542",
"X. c #966A47",
"o. c #9D7449",
"O. c #8B6F54",
"+. c #A27643",
"@. c #A47B42",
"#. c #A87E44",
"$. c #A47B57",
"%. c #857366",
"&. c #A27F62",
"*. c #178129",
"=. c #198329",
"-. c #1F8829",
";. c #258D29",
":. c #2C8C29",
">. c #358723",
",. c #389C29",
"<. c #2F972A",
"1. c #3EA229",
"2. c #39811D",
"3. c #6AAD1A",
"4. c #419621",
"5. c #5C8D37",
"6. c #4CA927",
"7. c #42A529",
"8. c #49A429",
"9. c #44AA2A",
"0. c #749930",
"q. c #AE9017",
"w. c #94823D",
"e. c #8D823D",
"r. c #AA833B",
"t. c #B59434",
"y. c #BA9A32",
"u. c #B89634",
"i. c #AF9530",
"p. c #BCA52D",
"a. c #AAA52B",
"s. c #8C972A",
"d. c #CBBB0E",
"f. c #C5AB2A",
"g. c #C1A42D",
"h. c #CBB326",
"j. c #C6A437",
"k. c #D3BA23",
"l. c #D3AD3E",
"z. c #CECE00",
"x. c #DBCB19",
"c. c #DFD117",
"v. c #D3D00A",
"b. c #E6D915",
"n. c #DDEE08",
"m. c #DFF007",
"M. c #EBE30E",
"N. c #EFE80C",
"B. c #FEFE01",
"V. c #F8F703",
"C. c #F4E41A",
"Z. c #F8EC14",
"A. c #E9F109",
"S. c #E9CC2F",
"D. c #DAC423",
"F. c #A98145",
"G. c #B28645",
"H. c #B58A45",
"J. c #AD875D",
"K. c #B58E5A",
"L. c #B38C56",
"P. c #B79058",
"I. c #BF9347",
"U. c #A38A6B",
"Y. c #B18A65",
"T. c #BA9467",
"R. c #B99873",
"E. c #A68C75",
"W. c #A7A674",
"Q. c #A8A876",
"!. c #B4AC72",
"~. c #A8A557",
"^. c #CA9B4C",
"/. c #C89E44",
"(. c #D5A44E",
"). c #DDAB52",
"_. c #E3B945",
"`. c #E1AE52",
"'. c #E2B152",
"]. c #C9A67A",
"[. c #2D509C",
"{. c #32529C",
"}. c #294C9A",
"|. c #007EB0",
" X c #0D779D",
".X c #5B6B97",
"XX c #5A7D88",
"oX c #5D77B1",
"OX c #657697",
"+X c #248EB0",
"@X c #788AAD",
"#X c #608F89",
"$X c #08B7F5",
"%X c #21AEDA",
"&X c #3BC4EE",
"*X c #00C3FF",
"=X c #BCA78E",
"-X c #AFADB0",
";X c #919AB4",
":X c #CDAA83",
">X c #C8AE89",
",X c #D6B48C",
"<X c #D9B78D",
"1X c #DDBD93",
"2X c #C9B594",
"3X c #CDBCA3",
"4X c #A6CDAF",
"5X c #DBC19C",
"6X c #E2C49B",
"7X c #E8CA9F",
"8X c #E0C289",
"9X c #E9CCA2",
"0X c #F3D8AF",
"qX c #F5DAB1",
"wX c #FADFB6",
"eX c #EDD2AA",
"rX c #FFE6BD",
"tX c #FBE6BE",
"yX c #BDC8DF",
"uX c #CCCCCD",
"iX c #D9CAC1",
"pX c #D7D3D2",
"aX c #E4D7CA",
"sX c #FFECC5",
"dX c #FFF2CD",
"fX c #FFF7E9",
"gX c #FEFEFF",
"hX c #FCFAF3",
"jX c #CCD5EA",
"kX c None",
/* pixels */
"kXkXkXkXkXkXkXkXkXkXkXkXkXkXkXkXkXkXkXkXkXkXkXkXkXkXkXkXkXkXkXkXkXkXkXkXkXkXkXkXkXkXkXkXkXkXkXkXkXkXkXkXkXkXkXkXkX",
"kXkXkXkXkXkXkXkXkXkXkXkXkXkXkXkXkXkXkXkXkXkXkXkXkXkXkXkXkXkXkXkXkXkXkXkXkXkXkXkXkXkXkXkXkXkXkXkXkXkXkXkXkXkXkXkXkX",
"kXkXkXkXkXkXkXkXkXkXkXkXkXkXkXkXkXkXkXkXkXkXkXkXkXkXkXkXkXkXkXkXkXkXkXkXkXkXkXkXkXkXkXkXkXkXkXkXkXkXkXkXkXkXkXkXkX",
"kXkXkXkXkXkXkXkXkXkXkXkXkXkXkXkXkXkXkX    * v x v v x v x x *.h     kXkXkXkXkXkXkXkXkXkXkXkXkXkXkXkXkXkXkXkXkXkXkX",
"kXkXkXkXkXkXkXkXkXkXkXkXkXkXkXkXkXkXkX    = x x x x v v c x v a     kXkXkXkXkXkXkXkXkXkXkXkXkXkXkXkXkXkXkXkXkXkXkX",
"kXkXkXkXkXkXkXkXkXkXkXkXkXkXkXkXkXkXkXi p g ;.;.;.;.;.;.;.;.;.N p d = kXkXkXkXkXkXkXkXkXkXkXkXkXkXkXkXkXkXkXkXkXkX",
"kXkXkXkXkXkXkXkXkXkXkXkXkXkXkXkXkX  O N 7.7.7.7.7.7.7.7.7.7.7.7.9.7.-     kXkXkXkXkXkXkXkXkXkXkXkXkXkXkXkXkXkXkXkX",
"kXkXkXkXkXkXkXkXkXkXkXkXkXkXkXkXkXO O >.1.1.1.1.1.1.1.1.1.1.1.1.1.1.- O O kXkXkXkXkXkXkXkXkXkXkXkXkXkXkXkXkXkXkXkX",
"kXkXkXkXkXkXkXkXkXkXkXkXkXkX    * z z b *.*.*.=.=.v =.v =.v =.v *.*.z z h     kXkXkXkXkXkXkXkXkXkXkXkXkXkXkXkXkXkX",
"kXkXkXkXkXkXkXkXkXkXkXkXkXkX    * c x v x x x c v c x x v x v x x x x *.l O   kXkXkXkXkXkXkXkXkXkXkXkXkXkXkXkXkXkX",
"kXkXkXkXkXkXkXkXkXkXkXkXkXkX* ; a ;.;.;.;.;.;.;.;.;.;.;.;.;.;.;.;.;.;.;.b ; ; # kXkXkXkXkXkXkXkXkXkXkXkXkXkXkXkXkX",
"kXkXkXkXkXkXkXkXkXkXkXkX  O z x ;.9.1.1.7.7.1.7.7.7.7.7.7.7.9.9.7.9.1.7.<.x *.*     kXkXkXkXkXkXkXkXkXkXkXkXkXkXkX",
"kXkXkXkXkXkXkXkXkXkXkXkX  O n b :.6.6.1.8.8.6.6.8.7.8.6.6.6.6.9.7.7.8.4.4.=.*.;     kXkXkXkXkXkXkXkXkXkXkXkXkXkXkX",
"kXkXkXkXkXkXkXkXkXkXkXkX  . I X.a.m.n.i.o.a.m.m.i.e.a.n.m.m.m.v.w.} w.w.e.1.,.i     kXkXkXkXkXkXkXkXkXkXkXkXkXkXkX",
"kXkXkXkXkXkXkXkXkXkXkXkX  O I #.h.B.B.t.o.p.B.B.y.+.y.B.B.B.B.b.#.@.@.+.e.1.1.p     kXkXkXkXkXkXkXkXkXkXkXkXkXkXkX",
"kXkXkXkXkXkXkXkXkXkXkX% 5 5 i.h.k.x.x.h.h.x.B.B.y.+.p.B.B.B.B.M. . .y.h.a.s.0.m * * kXkXkXkXkXkXkXkXkXkXkXkXkXkXkX",
"kXkXkXkXkXkXkXkXkX    5 #.r.N.B.x.@.@.M.B.B.B.B.y.@.p.B.B.B.B.b. .+.c.B.Z.`.).5.c l O   kXkXkXkXkXkXkXkXkXkXkXkXkX",
"kXkXkXkXkXkXkXkXkX.   5 F.r.M.B.x.@.r.N.B.B.B.V.y.@.g.V.B.B.V.b. . .c.B.N.`.`.5.v n O   kXkXkXkXkXkXkXkXkXkXkXkXkX",
"kXkXkXkX . .T.,X:XH 3 q.N.M.g.t./.(.(.N.B.b.t.t.b.M.b._._.j.t.t.+. .r.t.f.Z.Z.s.S B 6 6 $.<X:X#.@.kXkXkXkXkXkXkXkX",
"kXkXkXkX@. .T.,X:X_ 0 q.B.B.t.o.H.).'.Z.B.b.+.@.M.B.Z.).).G.+.+. .+. . .u.B.B.q.y q q 0 Y.<X:X#.@.kXkXkXkXkXkXkXkX",
"kXkXkXkX{ ] T.7X1X{ K q.B.V.j.H.I.^.^.D.c.x.g.f.S.C.S.^.^.P.K.K.K.K.#.@.u.B.B.q._ ' $.$.].9X,X[ { kXkXkXkXkXkXkXkX",
"kXkXkXkX0 0 Y.rXtXL.@.h.B.B._.`.^.@. .@.+.p.B.B._.)./. .@.].,X,X,X,XK.+.u.B.B.f.+.P.rXrXrXsX9XK C kXkXkXkXkXkXkXkX",
"kXkXkXkXJ y Y.rXtXL.o.p.B.V._.).^. .#. .@.f.B.B.S.).^.@.@.].<X<X<X<XK.#.y.V.B.f.@.L.wXtXrXrX9XK q kXkXkXkXkXkXkXkX",
"kXkXkXkXkXkX' [ O.+X%X#X( (  .G.g.M.M.M.M.b._._.I.G.P.].].9XwXqXqXqXeX9X8Xy.u./.^.!.&X&X#X[ ..kXkXkXkXkXkXkXkXkXkX",
"kXkXkXkXkXkXkXq H %X$X+X0 y [ +.f.B.B.B.B.C.).).H. .L.,X,X0XrXrXrXrXrXsXeX#.@.^.).=X*X$X^ 0 C kXkXkXkXkXkXkXkXkXkX",
"kXkXkXkXkXkXkXJ H  X+X^ ) ) { { y.C.C.C.Z.S.).). .] #.,X,X0XrXrXrXrXqX0X1X[ { j.S.l.+X|.T C J kXkXkXkXkXkXkXkXkXkX",
"kXkXkXkXkXkXkXkXkX    A B.V.` 0 { ).).).).).).).` 9 ..,X,X0XrXrXrXrX6X<XR.J J d.B.z.X   kXkXkXkXkXkXkXkXkXkXkXkXkX",
"kXkXkXkXkXkXkXkXkX    A V.V.( q { ).).).).).).).` y ..,X,X0XrXrXrXtX6X:XR.J C d.B.z.X   kXkXkXkXkXkXkXkXkXkXkXkXkX",
"kXkXkXkXkXkXkXkXkX    A B.V.i.{ L , 5 [ H.G.G.H.T.R.:X0X0X9X6X:XX.X.r 2 r [ [ v.B.z.X   kXkXkXkXkXkXkXkXkXkXkXkXkX",
"kXkXkXkXkXkXkXkXkX    A B.V.t.#.H     ] @.#.@. .].,X6XrXrX6X,XR.C q $   $ F.#.c.B.z.X   kXkXkXkXkXkXkXkXkXkXkXkXkX",
"kXkXkXkXkXkXkXkXkX    A C.C.r.{ I E E ! %.O.{ [ ].,X6XrXrX:XT.&.Q Q E E W [ [ k.Z.d.X   kXkXkXkXkXkXkXkXkXkXkXkXkX",
"kXkXkXkXkXkXkXkXkX    D '.)._ 0 E.gXhXoX[.~ C C T.,X6XrXrXX.y Q {.{.yXgXaXK q G.'.H..   kXkXkXkXkXkXkXkXkXkXkXkXkX",
"kXkXkXkXkXkXkXkXkX    B ).(._ q E.gXgXoX{.~ J J R.<X1XrXrXo.J Q {.{.yXhXpXJ y G.'.G.. O kXkXkXkXkXkXkXkXkXkXkXkXkX",
"kXkXkXkXkXkXkXkXkXkXkX> < 5 ] { =XgXgXoX[.oXiXiX0X0XqXrXrXaXiX-X{.{.uXdX3X$ @ , < , kXkXkXkXkXkXkXkXkXkXkXkXkXkXkX",
"kXkXkXkXkXkXkXkXkXkXkXkX    ] r.:XgXgXoX}.@XgXgXdXrXrXrXrXhXgXjX{.{.-XsX2X          kXkXkXkXkXkXkXkXkXkXkXkXkXkXkX",
"kXkXkXkXkXkXkXkXkXkXkXkX  . H L U.aXaXOX.X;XfXfXsXrXrXrXrXfXhXpX.X.X2XeXR..   2 E 1 kXkXkXkXkXkXkXkXkXkXkXkXkXkXkX",
"kXkXkXkXkXkXkXkXkXkXkXkXkXkX    < #.#.].,X6XwXsXsXrXrXrXrXrXsXqX,X,XK.@.I .   ;XgXuXo   kXkXkXkXkXkXkXkXkXkXkXkXkX",
"kXkXkXkXkXkXkXkXkXkXkXkXkXkX    , @.#.].<X7XsXwXwXsXrXrXrXrXrX0X,X,XK. .] O   -XgXpXo   kXkXkXkXkXkXkXkXkXkXkXkXkX",
"kXkXkXkXkXkXkXkXkXkXkXkXkXkX    & _ _ ] ] &.6X6X6X6X6X6X6X6X6X:X....' _ H a s / %.! 7 8 $     kXkXkXkXkXkXkXkXkXkX",
"kXkXkXkXkXkXkXkXkXkXkXkXkXkX    $ J y J q ..<X<X,X,X,X,X,X<X<XR.C q C J S x *.d 4 3 q C $     kXkXkXkXkXkXkXkXkXkX",
"kXkXkXkXkXkXkXkXkXkXkXkXkXkX1 1 F D S G y ' U.U.W.W.W.Q.Q.Q.Q.U.S S B B V a l k 8 t ..X.,     kXkXkXkXkXkXkXkXkXkX",
"kXkXkXkXkXkXkXkXkXkXkXkX  o uXgX4Xc b S J 8 . O l v v v b v v v v v s u : O O 4 q ] wXwX!     kXkXkXkXkXkXkXkXkXkX",
"kXkXkXkXkXkXkXkXkXkXkXkX  o pXgX4Xc c S J 8     a *.v x v v v v v v a u :     8 y ' wXsX!     kXkXkXkXkXkXkXkXkXkX",
"kXkXkXkXkXkXkXkXkXkXkXkX  O XX@XXXR R > $ @ = * l v x x v v x v v b f B <     + $ & W W 2 kXkXkXkXkXkXkXkXkXkXkXkX",
"kXkXkXkXkXkXkXkXkXkXkXkX  . U T T }.T #   # u u z x x x x v x *.c x F C 6 O             kXkXkXkXkXkXkXkXkXkXkXkXkX",
"kXkXkXkXkXkXkXkXkXkXkX+ + + Y T Y Y U @ + @ i p 2.4.4.4.4.N b m m m V H V O             kXkXkXkXkXkXkXkXkXkXkXkXkX",
"kXkXkXkXkXkXkXkXkX    $ q y J J 3   . 7 G C C C v.B.V.V.V.( t J G G M v a     kXkXkXkXkXkXkXkXkXkXkXkXkXkXkXkXkXkX",
"kXkXkXkXkXkXkXkXkX    & J C C C 4     6 C C C C v.B.B.B.B.) y J C C m v h O   kXkXkXkXkXkXkXkXkXkXkXkXkXkXkXkXkXkX",
"kXkXkXkXkXkXkXkXkX    r Y.Y.].:X/ X . d M M M M 6.3.3.3.3.P M M P P ,.<.N     kXkXkXkXkXkXkXkXkXkXkXkXkXkXkXkXkXkX",
"kXkXkXkXkXkXkXkXkX    W 1X1XtXdXE.  O l *.v x x c x z x x x c *.8.7.7.9.>.    kXkXkXkXkXkXkXkXkXkXkXkXkXkXkXkXkXkX",
"kXkXkXkXkXkXkXkXkX    r E.R.2X5X%.    l x *.*.=.=.=.=.=.=.=.=.;.,.,.>.>.g     kXkXkXkXkXkXkXkXkXkXkXkXkXkXkXkXkXkX",
"kXkXkXkXkXkXkXkXkX      o o o X .   O l x -.1.1.1.1.1.1.1.1.1.<.v *.: O O kXkXkXkXkXkXkXkXkXkXkXkXkXkXkXkXkXkXkXkX",
"kXkXkXkXkXkXkXkXkX                    l v ;.7.7.9.7.9.7.9.7.9.,.v *.*     kXkXkXkXkXkXkXkXkXkXkXkXkXkXkXkXkXkXkXkX",
"kXkXkXkXkXkXkXkXkXkXkXkXkXkXkXkXkXkXkX* ; ; i i i i i i i i - d k k > % %     kXkXkXkXkXkXkXkXkXkXkXkXkXkXkXkXkXkX",
"kXkXkXkXkXkXkXkXkXkXkXkXkXkXkXkXkXkXkX                        o 3 e w w ,     kXkXkXkXkXkXkXkXkXkXkXkXkXkXkXkXkXkX",
"kXkXkXkXkXkXkXkXkXkXkXkXkXkXkXkXkXkXkX                        + e w w r 4 . . kXkXkXkXkXkXkXkXkXkXkXkXkXkXkXkXkXkX",
"kXkXkXkXkXkXkXkXkXkXkXkXkXkXkXkXkXkXkXkXkXkXkXkXkXkXkXkXkX    + 3 e t G 9 3 3 +     kXkXkXkXkXkXkXkXkXkXkXkXkXkXkX",
"kXkXkXkXkXkXkXkXkXkXkXkXkXkXkXkXkXkXkXkXkXkXkXkXkXkXkXkXkX    + e w t J t w w +     kXkXkXkXkXkXkXkXkXkXkXkXkXkXkX",
"kXkXkXkXkXkXkXkXkXkXkXkXkXkXkXkXkXkXkXkXkXkXkXkXkXkXkXkXkX    + t 6 y J y t t %     kXkXkXkXkXkXkXkXkXkXkXkXkXkXkX",
"kXkXkXkXkXkXkXkXkXkXkXkXkXkXkXkXkXkXkXkXkXkXkXkXkXkXkXkXkX    + y J J J G J y $     kXkXkXkXkXkXkXkXkXkXkXkXkXkXkX",
"kXkXkXkXkXkXkXkXkXkXkXkXkXkXkXkXkXkXkXkXkXkXkXkXkXkXkXkXkX    @ 9 9 9 9 9 9 9 $     kXkXkXkXkXkXkXkXkXkXkXkXkXkXkX",
"kXkXkXkXkXkXkXkXkXkXkXkXkXkXkXkXkXkXkXkXkXkXkXkXkXkXkXkXkXkXkXkX. . . . . . . kXkXkXkXkXkXkXkXkXkXkXkXkXkXkXkXkXkX",
"kXkXkXkXkXkXkXkXkXkXkXkXkXkXkXkXkXkXkXkXkXkXkXkXkXkXkXkXkXkXkXkX              kXkXkXkXkXkXkXkXkXkXkXkXkXkXkXkXkXkX",
"kXkXkXkXkXkXkXkXkXkXkXkXkXkXkXkXkXkXkXkXkXkXkXkXkXkXkXkXkXkXkXkXkXkXkXkXkXkXkXkXkXkXkXkXkXkXkXkXkXkXkXkXkXkXkXkXkX",
"kXkXkXkXkXkXkXkXkXkXkXkXkXkXkXkXkXkXkXkXkXkXkXkXkXkXkXkXkXkXkXkXkXkXkXkXkXkXkXkXkXkXkXkXkXkXkXkXkXkXkXkXkXkXkXkXkX",
"kXkXkXkXkXkXkXkXkXkXkXkXkXkXkXkXkXkXkXkXkXkXkXkXkXkXkXkXkXkXkXkXkXkXkXkXkXkXkXkXkXkXkXkXkXkXkXkXkXkXkXkXkXkXkXkXkX"
};
