/* XPM */
static char *result[] = {
/* columns rows colors chars-per-pixel */
"55 66 217 2 ",
"   c #010101",
".  c #0B0605",
"X  c #030A03",
"o  c #0B0A02",
"O  c #0E0C0B",
"+  c #170D09",
"@  c #051907",
"#  c #1D120A",
"$  c #25150C",
"%  c #2B1913",
"&  c #311F11",
"*  c #052B0F",
"=  c #05240D",
"-  c #073212",
";  c #093713",
":  c #0D350F",
">  c #3A2A19",
",  c #3F3019",
"<  c #2E2312",
"1  c #342B23",
"2  c #2B2721",
"3  c #462718",
"4  c #5D341A",
"5  c #5E3E1D",
"6  c #4F3018",
"7  c #64391C",
"8  c #6C3B1B",
"9  c #723E1D",
"0  c #4B2920",
"q  c #543423",
"w  c #653920",
"e  c #673A20",
"r  c #723D20",
"t  c #0E430D",
"y  c #0C5A1E",
"u  c #0E4B16",
"i  c #334B1D",
"p  c #10671F",
"a  c #0B5F20",
"s  c #35552A",
"d  c #0D6522",
"f  c #0E6B24",
"g  c #126521",
"h  c #0F7B29",
"j  c #117C29",
"k  c #187726",
"l  c #326E25",
"z  c #58421C",
"x  c #73401F",
"c  c #78421F",
"v  c #6A6903",
"b  c #6C7A1D",
"n  c #5C4824",
"m  c #545423",
"M  c #584539",
"N  c #684928",
"B  c #744221",
"V  c #7B4A27",
"C  c #695423",
"Z  c #795E3F",
"A  c #1C334B",
"S  c #2C4F71",
"D  c #3D5464",
"F  c #384851",
"G  c #534F4D",
"H  c #624743",
"J  c #695845",
"K  c #4A5370",
"L  c #4A6E75",
"P  c #606061",
"I  c #776758",
"U  c #8C631B",
"Y  c #A27D16",
"T  c #84542B",
"R  c #8D5C2D",
"E  c #8B5D37",
"W  c #946A39",
"Q  c #956838",
"!  c #8D753A",
"~  c #A3793F",
"^  c #966946",
"/  c #9D724C",
"(  c #946D54",
")  c #9D7654",
"_  c #886D52",
"`  c #A17643",
"'  c #A47B41",
"]  c #A87E44",
"[  c #A47B57",
"{  c #A17E61",
"}  c #1A8328",
"|  c #258C29",
" . c #2F8222",
".. c #358722",
"X. c #358B22",
"o. c #2E9429",
"O. c #379A29",
"+. c #3CA428",
"@. c #598B2F",
"#. c #6E9034",
"$. c #4CA927",
"%. c #42A429",
"&. c #49A429",
"*. c #58904B",
"=. c #7CAB4F",
"-. c #8E831D",
";. c #AB8A18",
":. c #95833C",
">. c #8D9035",
",. c #BD9F2F",
"<. c #A8813A",
"1. c #BA9A33",
"2. c #B59435",
"3. c #B08936",
"4. c #BFA22E",
"5. c #B1A92F",
"6. c #A5B812",
"7. c #CBBB0E",
"8. c #C5AB2A",
"9. c #C5AA2A",
"0. c #CAB326",
"q. c #D2BB25",
"w. c #D3AD39",
"e. c #AED20E",
"r. c #CECE00",
"t. c #DAC91A",
"y. c #D0D315",
"u. c #E2D415",
"i. c #E6DB12",
"p. c #EADC15",
"a. c #E1CF13",
"s. c #CEE408",
"d. c #DFF007",
"f. c #D0E608",
"g. c #EEE60C",
"h. c #FEFE01",
"j. c #F6F305",
"k. c #F3E31A",
"l. c #F8EC18",
"z. c #ECEF0C",
"x. c #EAC936",
"c. c #E6C33B",
"v. c #F1DC23",
"b. c #F3EA20",
"n. c #989752",
"m. c #A98147",
"M. c #BD8C43",
"N. c #B58844",
"B. c #B38C57",
"V. c #B59059",
"C. c #B78D4C",
"Z. c #8A8864",
"A. c #938F61",
"S. c #A98866",
"D. c #B38C67",
"F. c #BA9563",
"G. c #BB956E",
"H. c #BC9A74",
"J. c #A88974",
"K. c #A7A674",
"L. c #A9A876",
"P. c #C9994A",
"I. c #D4A44E",
"U. c #DEAB53",
"Y. c #D3A251",
"T. c #E5BE41",
"R. c #E1AE54",
"E. c #E3B154",
"W. c #C19D6D",
"Q. c #CBA87E",
"!. c #E7C140",
"~. c #2E509C",
"^. c #32529B",
"/. c #294C9A",
"(. c #007EB0",
"). c #0C789E",
"_. c #5B73AB",
"`. c #6779A6",
"'. c #1B84A6",
"]. c #788DA3",
"[. c #788EB3",
"{. c #628F92",
"}. c #06B6F4",
"|. c #45B6D7",
" X c #00C1FF",
".X c #39C4F1",
"XX c #B9A992",
"oX c #B2B0B2",
"OX c #8E97B0",
"+X c #CBA982",
"@X c #D5B48B",
"#X c #D8B78A",
"$X c #D7BC97",
"%X c #CBB290",
"&X c #CCBBA3",
"*X c #DFC098",
"=X c #E2C49B",
"-X c #E8CA9D",
";X c #EACB8B",
":X c #E9CCA3",
">X c #F5D9AC",
",X c #EDD0A5",
"<X c #FEE5BD",
"1X c #FBE6BE",
"2X c #D7C2A0",
"3X c #BFC9E0",
"4X c #D9CBC1",
"5X c #DCD5D1",
"6X c #FFEBC2",
"7X c #FAE8C8",
"8X c #FFEFD1",
"9X c #FFF3D3",
"0X c #FFF7E9",
"qX c #FEFEFE",
"wX c #FBF9F5",
"eX c #D7D3D5",
"rX c None",
/* pixels */
"rXrXrXrXrXrXrXrXrXrXrXrXrXrXrXrXrXrXrXrXrXrXrXrXrXrXrXrXrXrXrXrXrXrXrXrXrXrXrXrXrXrXrXrXrXrXrXrXrXrXrXrXrXrXrX",
"rXrXrXrXrXrXrXrXrXrXrXrXrXrXrXrXrXrXrXrXrXrXrXrXrXrXrXrXrXrXrXrXrXrXrXrXrXrXrXrXrXrXrXrXrXrXrXrXrXrXrXrXrXrXrX",
"rXrXrXrXrXrXrXrXrXrXrXrXrXrXrXrXrXrXrXrXrXrXrXrXrXrXrXrXrXrXrXrXrXrXrXrXrXrXrXrXrXrXrXrXrXrXrXrXrXrXrXrXrXrXrX",
"rXrXrXrXrXrXrXrXrXrXrXrXrXrXrXrXrX    * j j j j j h j j j y     rXrXrXrXrXrXrXrXrXrXrXrXrXrXrXrXrXrXrXrXrXrXrX",
"rXrXrXrXrXrXrXrXrXrXrXrXrXrXrXrXrX    = h j j h j h h h j y     rXrXrXrXrXrXrXrXrXrXrXrXrXrXrXrXrXrXrXrXrXrXrX",
"rXrXrXrXrXrXrXrXrXrXrXrXrXrXrXrXrX- - y h h h j j j h h j g ; ; @ rXrXrXrXrXrXrXrXrXrXrXrXrXrXrXrXrXrXrXrXrXrX",
"rXrXrXrXrXrXrXrXrXrXrXrXrXrXrX  X a } j h j k h h h j h j j j } *     rXrXrXrXrXrXrXrXrXrXrXrXrXrXrXrXrXrXrXrX",
"rXrXrXrXrXrXrXrXrXrXrXrXrXrXrXX X d h j h h h h j j h h j j j j * X X rXrXrXrXrXrXrXrXrXrXrXrXrXrXrXrXrXrXrXrX",
"rXrXrXrXrXrXrXrXrXrXrXrX    * f f h h h h k h h h h h h j j h j f f a     rXrXrXrXrXrXrXrXrXrXrXrXrXrXrXrXrXrX",
"rXrXrXrXrXrXrXrXrXrXrXrX    * h h h h h h h h h h h h h h h h h h h a   X rXrXrXrXrXrXrXrXrXrXrXrXrXrXrXrXrXrX",
"rXrXrXrXrXrXrXrXrXrXrXrX- - y | | | | | | | | | | | | | | | | | | | k ; - @ rXrXrXrXrXrXrXrXrXrXrXrXrXrXrXrXrX",
"rXrXrXrXrXrXrXrXrXrX  X d j | %.+.%.%.+.%.%.%.+.%.%.+.%.%.%.%.%.%.%.O.j j *     rXrXrXrXrXrXrXrXrXrXrXrXrXrXrX",
"rXrXrXrXrXrXrXrXrXrX  X g j | &.$.$.$.&.%.&.$.$.$.$.$.$.$.$.$.$.&.&.%.k k *     rXrXrXrXrXrXrXrXrXrXrXrXrXrXrX",
"rXrXrXrXrXrXrXrXrXrX  X  .+.@.:.:.y.d.y.:.:.y.d.z.d.d.d.d.d.d.d.5.m.#.O.O.:     rXrXrXrXrXrXrXrXrXrXrXrXrXrXrX",
"rXrXrXrXrXrXrXrXrXrXX X o.+.#./ ] g.h.u.` ~ p.h.h.h.h.h.h.h.h.h.5.~ :.%.%.: .   rXrXrXrXrXrXrXrXrXrXrXrXrXrXrX",
"rXrXrXrXrXrXrXrXrX@ - : @.#.>.0.9.t.t.t.9.0.z.h.j.t.t.j.h.j.t.t.0.9.5.=.=.s - * rXrXrXrXrXrXrXrXrXrXrXrXrXrXrX",
"rXrXrXrXrXrXrX    - j k m./ 8.h.h.2.` 9.h.h.h.h.u.' ' i.h.i.m.~ u.h.l.#X@X*.h g X   rXrXrXrXrXrXrXrXrXrXrXrXrX",
"rXrXrXrXrXrXrX.   - j k ! <.8.h.h.1.' 8.j.h.h.h.i.' ~ i.h.i.~ ' u.h.b.#X#X*.h g .   rXrXrXrXrXrXrXrXrXrXrXrXrX",
"rXrX' ' F.@X+XN 4 5 n C C.I.x.h.h.z.g.p.T.!.l.h.i.' ' i.h.i.<.' 3.2.8.l.l.-.n n 4 4 [ #X+Xm.' rXrXrXrXrXrXrXrX",
"rXrX] ' F.@X+XT x x x V P.E.x.h.h.h.h.k.U.U.l.h.u.' ' i.h.i.' ' ~ / 1.h.h.;.r x 9 9 S.#XQ.m.' rXrXrXrXrXrXrXrX",
"rXrXQ Q F.:X$XS.[ ^ T R w.x.v.h.h.k.k.v.x.x.t.u.t.9.9.t.u.q.V.V.m./ 4.h.h.;.T E [ [ Q.=X@XW W rXrXrXrXrXrXrXrX",
"rXrX9 9 D.6X<X<X6X#X~ <.z.h.h.h.h.T.U.c.h.h.1.` 4.h.h.1.` B.@X@XV.~ ,.j.h.9.` V.<X<X<X6X,XV B rXrXrXrXrXrXrXrX",
"rXrXr r D.<X<X1X7X%X` <.g.h.h.h.j.T.U.x.h.h.1.` ,.h.h.,.~ B.#X@XV.] 1.h.h.9.` V.>X<X1X<X=XV x rXrXrXrXrXrXrXrX",
"rXrXrXrXE Q _ |..X{.T T w.!.w.1.1.I.U.x.h.h.1.` 9.h.j.,.~ B.+X@X=X:X;XT.!.M.~ Z..X.X{.Q ^ rXrXrXrXrXrXrXrXrXrX",
"rXrXrXrXrX9 N }.}.'.x V P.E.P.` ] I.U.x.h.h.1./ 4.h.h.4.` B.@X@X>X7X>XR.R.P.` _ }.}.L x x rXrXrXrXrXrXrXrXrXrX",
"rXrXrXrXrXx N ).(.L Y ;.3.N.N.' ' I.U.x.h.h.q.4.q.k.k.1.~ V.=X=X,X>X=XP.3.1.8.n.'.(.D N B rXrXrXrXrXrXrXrXrXrX",
"rXrXrXrXrXrXrX    v h.j.U B T ~ ' Y.U.x.h.h.h.h.k.U.U.N.` F.<X<X=X@XH.B B 7.h.r.o   rXrXrXrXrXrXrXrXrXrXrXrXrX",
"rXrXrXrXrXrXrX    v h.j.U B T ~ ' Y.U.x.h.h.h.h.k.U.U.N.' V.<X<X2X@XG.B B 7.h.r.o   rXrXrXrXrXrXrXrXrXrXrXrXrX",
"rXrXrXrXrXrXrX    v h.j.3.W N < < W N.M.c.c.!.!.8.R R D.Q.G.^ ^ M 1 q ! W t.h.r.o   rXrXrXrXrXrXrXrXrXrXrXrXrX",
"rXrXrXrXrXrXrX    v h.j.2.m.N     E ' C.R.E.R.R.M.r 8 G.#XW.9 9 + X # ~ ] u.h.r.o   rXrXrXrXrXrXrXrXrXrXrXrXrX",
"rXrXrXrXrXrXrX    v l.k.<.Q Z G G I I ) C.M.M.2.N./ / D.G.{ H H G G H W Q q.l.7.o   rXrXrXrXrXrXrXrXrXrXrXrXrX",
"rXrXrXrXrXrXrX    n R.I.T 8 S.qXwX_.~.K B B V x ( <X<X/ r H ^.^.3XwX5XV x N.E.N..   rXrXrXrXrXrXrXrXrXrXrXrXrX",
"rXrXrXrXrXrXrX    n E.I.T 8 J.qXwX_.~.K B B B r / <X<X[ r H ^.~.3XwX5XV r N.R.N.o   rXrXrXrXrXrXrXrXrXrXrXrXrX",
"rXrXrXrXrXrXrXrXrX< , 3 8 8 S.8X8X_.~.`.4X4X2X@X-X<X<X4X4XoX^.^.oX9X&X% # < , > rXrXrXrXrXrXrXrXrXrXrXrXrXrXrX",
"rXrXrXrXrXrXrXrXrXrX    7 9 S.<X7X_.~.[.qXqX8X6X<X<X<X0XqX3X~.~.oX6X%X.         rXrXrXrXrXrXrXrXrXrXrXrXrXrXrX",
"rXrXrXrXrXrXrXrXrXrX  . 3 6 ^ -X=X`.`.OXwX0X7X<X<X<X<X0XqXeX`.`.&X,XL.# + + # # rXrXrXrXrXrXrXrXrXrXrXrXrXrXrX",
"rXrXrXrXrXrXrXrXrXrXrXrX    , ] ] ,X<X<X6X<X<X<X<X<X<X6X<X6X<X<XG.' W 0 3 w B 4     rXrXrXrXrXrXrXrXrXrXrXrXrX",
"rXrXrXrXrXrXrXrXrXrXrXrX    , ' ] ,X6X<X<X<X<X<X<X<X<X<X<X<X<X<XW.' W 0 0 w B 4     rXrXrXrXrXrXrXrXrXrXrXrXrX",
"rXrXrXrXrXrXrXrXrXrXrXrX    & T T ^ / D.:X*X=X=X=X=X=X=X=X@X) ) E T V 0 0 w B 4 .   rXrXrXrXrXrXrXrXrXrXrXrXrX",
"rXrXrXrXrXrXrXrXrXrXrXrX    $ 9 9 8 8 ^ @X#X@X@X@X#X@X#X#XW.9 r x x e 0 0 w B 4     rXrXrXrXrXrXrXrXrXrXrXrXrX",
"rXrXrXrXrXrXrXrXrXrXrXrX    > ( ( ( ( ) S.J.K.K.K.K.L.L.L.A.n m x x z 3 , 6 4 3 .   rXrXrXrXrXrXrXrXrXrXrXrXrX",
"rXrXrXrXrXrXrXrXrXrXrXrX    P qXwXwXwXoXX X a h j h j j j j j h m x z t t @     rXrXrXrXrXrXrXrXrXrXrXrXrXrXrX",
"rXrXrXrXrXrXrXrXrXrXrXrX    P qXqXqXqXoX    y j h h h h j h h h m B n t t @     rXrXrXrXrXrXrXrXrXrXrXrXrXrXrX",
"rXrXrXrXrXrXrXrXrXrX  . 3 3 G ].].].].K     i m b e.e.e.e.6.m m l l i @ @ X rXrXrXrXrXrXrXrXrXrXrXrXrXrXrXrXrX",
"rXrXrXrXrXrXrXrXrXrX    7 c M S S S S A     4 r Y h.h.h.h.a.c 9 l h a     rXrXrXrXrXrXrXrXrXrXrXrXrXrXrXrXrXrX",
"rXrXrXrXrXrXrXrXrXrX  . 7 9 M D K K L F X o z C -.f.s.s.s.e.C N l } g @ X rXrXrXrXrXrXrXrXrXrXrXrXrXrXrXrXrXrX",
"rXrXrXrXrXrXrXrXrXrX    4 9 B N B H.#XA.; t X.%.O.k k k k | %.%.%.%.X.t t @     rXrXrXrXrXrXrXrXrXrXrXrXrXrXrX",
"rXrXrXrXrXrXrXrXrXrX  . 4 9 x 9 x Q.#XA.t t X.%.O.h j h h | +.%.%.%.X.t t @     rXrXrXrXrXrXrXrXrXrXrXrXrXrXrX",
"rXrXrXrXrXrXrXrXrXrX  O S.+X+X+X+XJ q s d d O.+.+.o.o.o.o.O.+.%.o.| k @ @ X rXrXrXrXrXrXrXrXrXrXrXrXrXrXrXrXrX",
"rXrXrXrXrXrXrXrXrXrX  O 2X6X6X6X6X1   * h } O.%.%.%.%.%.%.%.%.%.} j a     rXrXrXrXrXrXrXrXrXrXrXrXrXrXrXrXrXrX",
"rXrXrXrXrXrXrXrXrXrX  O XX2X2X&X%X2   = d f l X.....X.X.........k d u     rXrXrXrXrXrXrXrXrXrXrXrXrXrXrXrXrXrX",
"rXrXrXrXrXrXrXrXrXrXrXrXo O O O O         X X X X X X X X X X X X X X     rXrXrXrXrXrXrXrXrXrXrXrXrXrXrXrXrXrX",
"rXrXrXrXrXrXrXrXrXrXrXrX                                                  rXrXrXrXrXrXrXrXrXrXrXrXrXrXrXrXrXrX",
"rXrXrXrXrXrXrXrXrXrXrXrXrXrXrXrXrXrXrXrXrXrXrXrXrXrXrX    O % % % % $     rXrXrXrXrXrXrXrXrXrXrXrXrXrXrXrXrXrX",
"rXrXrXrXrXrXrXrXrXrXrXrXrXrXrXrXrXrXrXrXrXrXrXrXrXrXrX    + 0 0 0 0 >     rXrXrXrXrXrXrXrXrXrXrXrXrXrXrXrXrXrX",
"rXrXrXrXrXrXrXrXrXrXrXrXrXrXrXrXrXrXrXrXrXrXrXrXrXrXrX    O 0 0 0 0 3 . . rXrXrXrXrXrXrXrXrXrXrXrXrXrXrXrXrXrX",
"rXrXrXrXrXrXrXrXrXrXrXrXrXrXrXrXrXrXrXrXrXrXrXrXrXrXrX    O 0 0 w r w 0 0 +     rXrXrXrXrXrXrXrXrXrXrXrXrXrXrX",
"rXrXrXrXrXrXrXrXrXrXrXrXrXrXrXrXrXrXrXrXrXrXrXrXrXrXrX    O 0 0 e B w 0 0 O     rXrXrXrXrXrXrXrXrXrXrXrXrXrXrX",
"rXrXrXrXrXrXrXrXrXrXrXrXrXrXrXrXrXrXrXrXrXrXrXrXrXrXrX    + 4 w r B r w w $     rXrXrXrXrXrXrXrXrXrXrXrXrXrXrX",
"rXrXrXrXrXrXrXrXrXrXrXrXrXrXrXrXrXrXrXrXrXrXrXrXrXrXrX    # x x B B B B B $     rXrXrXrXrXrXrXrXrXrXrXrXrXrXrX",
"rXrXrXrXrXrXrXrXrXrXrXrXrXrXrXrXrXrXrXrXrXrXrXrXrXrXrX    # 7 7 7 7 7 7 7 $     rXrXrXrXrXrXrXrXrXrXrXrXrXrXrX",
"rXrXrXrXrXrXrXrXrXrXrXrXrXrXrXrXrXrXrXrXrXrXrXrXrXrXrXrXrXrX. . . . . . . rXrXrXrXrXrXrXrXrXrXrXrXrXrXrXrXrXrX",
"rXrXrXrXrXrXrXrXrXrXrXrXrXrXrXrXrXrXrXrXrXrXrXrXrXrXrXrXrXrX              rXrXrXrXrXrXrXrXrXrXrXrXrXrXrXrXrXrX",
"rXrXrXrXrXrXrXrXrXrXrXrXrXrXrXrXrXrXrXrXrXrXrXrXrXrXrXrXrXrXrXrXrXrXrXrXrXrXrXrXrXrXrXrXrXrXrXrXrXrXrXrXrXrXrX",
"rXrXrXrXrXrXrXrXrXrXrXrXrXrXrXrXrXrXrXrXrXrXrXrXrXrXrXrXrXrXrXrXrXrXrXrXrXrXrXrXrXrXrXrXrXrXrXrXrXrXrXrXrXrXrX",
"rXrXrXrXrXrXrXrXrXrXrXrXrXrXrXrXrXrXrXrXrXrXrXrXrXrXrXrXrXrXrXrXrXrXrXrXrXrXrXrXrXrXrXrXrXrXrXrXrXrXrXrXrXrXrX"
};
