/* XPM */
static char *result[] = {
/* columns rows colors chars-per-pixel */
"30 30 20 1 ",
"  c #FF9F00",
". c #FFA201",
"X c #FFA301",
"o c #FEB401",
"O c #FEB501",
"+ c #FDBC01",
"@ c #FDBF00",
"# c #FDBE01",
"$ c #FDBF01",
"% c #FDC002",
"& c #FECB25",
"* c #FECC26",
"= c #FECC27",
"- c #FFE064",
"; c #FFE065",
": c #FFE166",
"> c #FFE167",
", c #FFE470",
"< c #FFE471",
"1 c #5EB054",
/* pixels */
"1111111111111111111,,,,,111111",
"11111111111111111,,,,,,,,<1111",
"1111111111111111,,,,,,,,<:=111",
"1111111111111111,,,,,,,<:&@$11",
"111111111111111,,,,,,1<;&@@@11",
"111111111111111,,,,,1111$@@@%1",
"111111111111111,,,,11111$@@@$1",
"111111111111111,,,,11111$@@@$1",
"111111111111111,,,<>1111$@@@%1",
"111111111111111,,<:*$11$@@@@11",
"111111111111111,<:&@@@@@@@@$11",
"111111111111111<:&@@@@@@@@$111",
"11111111111111<:&@@@@@@@@$1111",
"1111111111111<:&@$1$$$$$111111",
"111111111111<:&@$1111111111111",
"11111111111<:&@$11111111111111",
"1111111111<:&@$111111111111111",
"111111111<:&@$1111111111111111",
"11111111<:&@+11111111111111111",
"1111111<:&@o.11111111111111111",
"111111<:&@O.  1111111111111111",
"11111<:&@O.    111111111111111",
"1111<:&@O.      11111111111111",
"111<:&@O.      111111111111111",
"11<:&@O.    1 1111111111111111",
"11-&@o.    1111111111111111111",
"111$#X    11111111111111111111",
"111111     1111111111111111111",
"1111111   11111111111111111111",
"11111111 111111111111111111111"
};
