/* XPM */
static char *result[] = {
/* columns rows colors chars-per-pixel */
"59 60 220 2 ",
"   c #000001",
".  c #0B0604",
"X  c #010C05",
"o  c #0E0B09",
"O  c #130C08",
"+  c #051205",
"@  c #061F06",
"#  c #091809",
"$  c #16120E",
"%  c #1A1906",
"&  c #181715",
"*  c #23140D",
"=  c #20180E",
"-  c #361E0F",
";  c #251411",
":  c #221B14",
">  c #361F10",
",  c #072107",
"<  c #072A0C",
"1  c #0C3D0C",
"2  c #093D15",
"3  c #063C14",
"4  c #192819",
"5  c #27211B",
"6  c #3A2111",
"7  c #362415",
"8  c #35322E",
"9  c #44251C",
"0  c #47291D",
"q  c #4E3A1F",
"w  c #65391D",
"e  c #6B3B1D",
"r  c #63361C",
"t  c #723E1F",
"y  c #4B2A21",
"u  c #452C23",
"i  c #5B3720",
"p  c #57372E",
"a  c #6D3D20",
"s  c #623A25",
"d  c #743F20",
"f  c #0C420D",
"g  c #124B0F",
"h  c #0C4314",
"j  c #0D4810",
"k  c #0B4E18",
"l  c #134C10",
"z  c #0E5E1B",
"x  c #0E5216",
"c  c #1C5214",
"v  c #125213",
"b  c #224C19",
"n  c #215215",
"m  c #37511E",
"M  c #0F611C",
"N  c #12631C",
"B  c #27731B",
"V  c #2A781D",
"C  c #275420",
"Z  c #3B5A23",
"A  c #0E6E24",
"S  c #0E6322",
"D  c #176924",
"F  c #0E7B29",
"G  c #0D7325",
"H  c #117526",
"J  c #107827",
"K  c #1A7528",
"L  c #117C29",
"P  c #16782A",
"I  c #1E5826",
"U  c #5D411E",
"Y  c #74411F",
"T  c #524F2C",
"R  c #684721",
"E  c #6C4724",
"W  c #744221",
"Q  c #7B4926",
"!  c #6B5327",
"~  c #75552E",
"^  c #5A7425",
"/  c #5B7A35",
"(  c #417728",
")  c #776B15",
"_  c #225C64",
"`  c #404041",
"'  c #6A5945",
"]  c #645542",
"[  c #655450",
"{  c #6E6E51",
"}  c #757574",
"|  c #82551C",
" . c #87572E",
".. c #885A34",
"X. c #936C36",
"o. c #9C773E",
"O. c #866131",
"+. c #A97A3D",
"@. c #9C7846",
"#. c #967251",
"$. c #A37A41",
"%. c #A77C45",
"&. c #A57C56",
"*. c #8B7D67",
"=. c #14812A",
"-. c #1B8328",
";. c #278928",
":. c #299129",
">. c #3C9A26",
",. c #369B29",
"<. c #399626",
"1. c #26853A",
"2. c #348729",
"3. c #3DA229",
"4. c #6FAC18",
"5. c #489C2A",
"6. c #79943B",
"7. c #688836",
"8. c #41A529",
"9. c #47A72A",
"0. c #55A928",
"q. c #548815",
"w. c #798E5D",
"e. c #808001",
"r. c #B69C16",
"t. c #B89F0F",
"y. c #B9A00F",
"u. c #BFA613",
"i. c #AE893A",
"p. c #A9873A",
"a. c #B18C3C",
"s. c #B89733",
"d. c #B18F25",
"f. c #8E873F",
"g. c #D4BD1E",
"h. c #D2BD22",
"j. c #C9B02A",
"k. c #93C716",
"l. c #A3D414",
"z. c #A0C819",
"x. c #D6C41D",
"c. c #E8E508",
"v. c #F1EB05",
"b. c #ECF604",
"n. c #F6F206",
"m. c #FFFF00",
"M. c #FCF708",
"N. c #D9CC2E",
"B. c #E5CA29",
"V. c #EDD429",
"C. c #F2D829",
"Z. c #DAE108",
"A. c #AB8143",
"S. c #AB834A",
"D. c #B48A47",
"F. c #B88F53",
"G. c #BEA754",
"H. c #BA946D",
"J. c #B39979",
"K. c #AD967A",
"L. c #BEA57C",
"P. c #889667",
"I. c #C1944A",
"U. c #C59A48",
"Y. c #D39E4D",
"T. c #CCA84B",
"R. c #D4A24D",
"E. c #D8AD4A",
"W. c #D8A751",
"Q. c #DEAC53",
"!. c #E3B749",
"~. c #E1AE54",
"^. c #E7B156",
"/. c #C2A37E",
"(. c #C5A67C",
"). c #CEB371",
"_. c #E6D545",
"`. c #FAED59",
"'. c #FAEB62",
"]. c #005D82",
"[. c #2B4E9A",
"{. c #395393",
"}. c #435D9A",
"|. c #47598C",
" X c #506497",
".X c #5CA0A3",
"XX c #0CBDF8",
"oX c #30BBE5",
"OX c #18C0FC",
"+X c #828283",
"@X c #A49791",
"#X c #9DAB9A",
"$X c #C9AB88",
"%X c #D6B48C",
"&X c #DBB98F",
"*X c #D4B385",
"=X c #DBBB92",
"-X c #D0AE84",
";X c #89C097",
":X c #D8C299",
">X c #EBCEA4",
",X c #E5CCA9",
"<X c #E7D3AB",
"1X c #F6DBB1",
"2X c #EFDAB3",
"3X c #FFE6BD",
"4X c #FFE8BF",
"5X c #FAE0B6",
"6X c #D8D1B3",
"7X c #98A9CE",
"8X c #A1ACC9",
"9X c #D2D3CE",
"0X c #FFE9C2",
"qX c #FEE7C2",
"wX c #E5E3D3",
"eX c #E8E8E8",
"rX c #FFFEFD",
"tX c #FFFAF1",
"yX c #F0F0ED",
"uX c None",
/* pixels */
"uXuXuXuXuXuXuXuXuXuXuXuXuXuXuXuXuXuXuXuXuXuXuXuXuXuXuXuXuXuXuXuXuXuXuXuXuXuXuXuXuXuXuXuXuXuXuXuXuXuXuXuXuXuXuXuXuXuXuX",
"uXuXuXuXuXuXuXuXuXuXuXuXuXuXuXuXuXuXuXuXuXuXuXuXuXuXuXuXuXuXuXuXuXuXuXuXuXuXuXuXuXuXuXuXuXuXuXuXuXuXuXuXuXuXuXuXuXuXuX",
"uXuXuXuXuXuXuXuXuXuXuXuXuXuXuXuXuXuXuXuXuXuXuXuXuXuXuXuXuXuXuXuXuXuXuXuXuXuXuXuXuXuXuXuXuXuXuXuXuXuXuXuXuXuXuXuXuXuXuX",
"uXuXuXuXuXuXuXuXuXuXuXuXuXuXuX$.%.O.Y R K L z f l >.8.8.8.8.8.8.:.J L uXuXuXuXuXuXuXuXuXuXuXuXuXuXuXuXuXuXuXuXuXuXuXuX",
"uXuXuXuXuXuXuXuXuXuXuXuXuXuXuX$.$...t R K L z 1 g >.9.3.8.8.8.8.:.F F uXuXuXuXuXuXuXuXuXuXuXuXuXuXuXuXuXuXuXuXuXuXuXuX",
"uXuXuXuXuXuXuXuXuXuXuX$.I.uXQ.h.x.d...O./ / ( B B B B 2.8.8.8.8.<.:.;.L uXL L uXuXuXuXuXuXuXuXuXuXuXuXuXuXuXuXuXuXuXuX",
"uXuXuXuXuXuXuXuXuXuX@.+.I.Q.!.M.m.h.$.%.+.%.6.3.3.g f B 8.3.8.8.8.8.3.=.J L L L uXuXuXuXuXuXuXuXuXuXuXuXuXuXuXuXuXuXuX",
"uXuXuXuXuXuXuXuXuXuXi.i.U.W.E.v.n.h.%.%.A.A.6.0.5.v g B >.>.5.8.8.8.3.-.L =.L =.uXuXuXuXuXuXuXuXuXuXuXuXuXuXuXuXuXuXuX",
"uXuXuXuXuXuXuXuX$.i.c.M.h.%.A.i.i.U.W.W.W.W.W.T.T.5.3.B g v >.8.8.8.8.3.>.3.3.,.L L z f f uXuXuXuXuXuXuXuXuXuXuXuXuXuX",
"uXuXuXuXuXuXuXuX$.p.n.m.g.+.$.$.+.I.~.~.Q.Q.Q.Q.T.0.3.B f g >.8.8.8.8.5.8.3.8.>.-.L z f f uXuXuXuXuXuXuXuXuXuXuXuXuXuX",
"uXuXuXuXuXuXuXj.h.x.M.m.B.D.I.U.F.U.I.U.B.C.C.C.N.0.3.V f g >.8.8.8.8.8.8.8.8.3.L L A z z l f uXuXuXuXuXuXuXuXuXuXuXuX",
"uXuXuXuXuX$.$.h.m.m.m.m.V.Q.Q.~.^.D.@.i.n.m.m.m.b.0.9.B f g >.8.8.8.8.8.8.8.8.3.L L J F H j f f uXuXuXuXuXuXuXuXuXuXuX",
"uXuXuXuXuX$.$.h.m.m.M.M.V.Q.Q.Y.R.D.+.i.n.m.M.n.Z.0.8.B f g >.8.3.>.>.>.>.>.3.,.-.L L J H j f 1 uXuXuXuXuXuXuXuXuXuXuX",
"uXuXuXuXuX$.$.h.m.M.!.!.!.Q.Y. .Q X.+.i.n.m.x.p.p.0.8.V f g >.8.V g g g g D =.L J L L L H j f ,     uXuXuXuXuXuXuXuXuX",
"uXuXuXuXuX$.$.x.m.M.!.Q.Q.Q.R.| a ..+.p.n.M.h.$.f.9.3.N f g >.9.B 1 1 1 1 z F L L J L L H j 2 @     uXuXuXuXuXuXuXuXuX",
"uXuXuXuXuXuXuXd.y.r.U.I.I.I.F.&.&.F.H.G.h.g.s.+.p.z.l.4.B B B B B B B N z A L L L L F L J M z 3     uXuXuXuXuXuXuXuXuX",
"uXuXuXuXuXuXuXuXd W o.$.$.$.S.*X%X%X%X$XS.$.$.$.i.n.m.l.3.>.g 1 B 9.3.=.F L J L F J L L L L L 2     uXuXuXuXuXuXuXuXuX",
"uXuXuXuXuXuXuXuXW W +.$.o.X.@.(.%X%X=X%XS.%.A.i.s.c.n.k.3.<.v f B >.<.=.F L L L L L L F L L L 2     uXuXuXuXuXuXuXuXuX",
"uXuXuXuXuXuXuXuXuXuXuXuX% O 5 /.%X>X3X1X%X-X_.n.c.s.D.7.=.L J J M g v G L L F L J L J L F F L 2     uXuXuXuXuXuXuXuXuX",
"uXuXuXuXuXuXuXuXuXuXuXuXuX  O /.%X>X0X3X&X%X_.m.M.A.$./ F F F F z f f J L L J L L F L L L L L 2     uXuXuXuXuXuXuXuXuX",
"uXuXuXuXuXuXuXuXuXuXuXuX    O #.&.#.} *.=X>X`.m.n.i.+.f.6.7.-.L z f f z M M L L L L L F L L L k @ @ X   uXuXuXuXuXuXuX",
"uXuXuXuXuXuXuXuXuXuXuXuXuX  . w W >   O ,X0X'.m.n.i.$.I.~.T.1.F M f f f f z L L J F L J L L L z h 2 X     uXuXuXuXuXuX",
"uXuXuXuXuXuXuXuXuXuXuXuX$ $ & E E 7 & 8 <XqX'.n.c.a.%.I.R.U.2.1.D C C C n D F G J J J L F L L z 1 1       uXuXuXuXuXuX",
"uXuXuXuXuXuXuXuXuXuX    ] /.@X|.{.7XeXeXqX3X).a.a.R.E.+.Q ~ L.$X:X<X<X<X2Xw.f j j j M L L J L z 1 1 X     uXuXuXuXuXuX",
"uXuXuXuXuXuXuXuXuXuX    ' &X$X}.[.7XrXrX0X3X-X$.S.W.E.+.e  ./.-X>X4X4X0X0XP.1 f f f z L F L L M f 1 X     uXuXuXuXuXuX",
"uXuXuXuXuXuXuXuXuXuX    ' &X$X}.[.7XrXtX0X3X(. .X.B.V.d.t | =X>X1X4X5X*X).{ @ , , @ h z M J L k @ @ .   uXuXuXuXuXuXuX",
"uXuXuXuXuXuXuXuXuXuX    ' =X$X|.[.7XrXrX0X0XH.e | v.m.t.e  .1XqX0X4X1XS.$.i X       @ f j J L 3     uXuXuXuXuXuXuXuXuX",
"uXuXuXuXuXuXuXuXuXuX    ] /.@X X{.8XrXtXqX0XH.t | v.m.j.d  .6XwX2X5X>X$.X.q         @ 1 f A H 2     uXuXuXuXuXuXuXuXuX",
"uXuXuXuXuXuXuXuXuXuXuXuX$ $ 5 J.$X,X0X0X3X0XH.e | v.m.B.Y.H.oXXX.XD.@.= o .     uXuX  X X 1 l ,     uXuXuXuXuXuXuXuXuX",
"uXuXuXuXuXuXuXuXuXuXuXuX    & /.=X<XqXqX3X0XH.e | v.m.C.~.).XXXX.X+.X..         uXuX    X 1 f ,     uXuXuXuXuXuXuXuXuX",
"uXuXuXuXuXuXuXuXuXuXuXuXuX  $ ] ] K.>X>X>X>X(.&.%.r.t.g.C.N._ ]._ i U ! ~ ) e.e.uXuXuX  X @ , + uXuXuXuXuXuXuXuXuXuXuX",
"uXuXuXuXuXuXuXuXuXuXuXuXuXuXuX    ' &X%X%X%X%X=X$XQ a y.m.c.% .     $ U.^.C.m.m.uXuXuXuXuX    uXuXuXuXuXuXuXuXuXuXuXuX",
"uXuXuXuXuXuXuXuXuXuXuXuXuXuXuX    T $X/.L././.L.L.E r r.M.Z.%   . X % D.U.h.c.c.uXuXuXuXuX    uXuXuXuXuXuXuXuXuXuXuXuX",
"uXuXuXuXuXuXuXuXuXuXuXuXuX        o & & b b b b c o . ~ !.T.%   3 A M & % % = % uXuXuXuXuXuXuXuXuXuXuXuXuXuXuXuXuXuXuX",
"uXuXuXuXuXuXuXuXuXuXuXuXuX              1 f f f 1 X   ! ^.Y.$   h =.G +         uXuXuXuXuXuXuXuXuXuXuXuXuXuXuXuXuXuXuX",
"uXuXuXuXuXuXuXuXuXuXuXuX* 6 u } +X`   X 1 1 k M x .   m 6.7.o   @ 3 3 X uX    uXuXuXuXuXuXuXuXuXuXuXuXuXuXuXuXuXuXuXuX",
"uXuXuXuXuXuXuXuXuXuX    6 Y ..yXrX+X    1 f M F A X X 3 F A X         uXuXuXuXuXuXuXuXuXuXuXuXuXuXuXuXuXuXuXuXuXuXuXuX",
"uXuXuXuXuXuXuXuXuXuX    6 Y ..9XeX} X + f j M =.A o . j F A 4 4 o     uXuXuXuXuXuXuXuXuXuXuXuXuXuXuXuXuXuXuXuXuXuXuXuX",
"uXuXuXuXuXuXuXuXuXuX    6 W a 5 & k G N G H J L K U e Z F 1.9XeX} .       uXuXuXuXuXuXuXuXuXuXuXuXuXuXuXuXuXuXuXuXuXuX",
"uXuXuXuXuXuXuXuXuXuX    6 d s .   3 =.F L J L F K R W T G 1.yXrX.X.       uXuXuXuXuXuXuXuXuXuXuXuXuXuXuXuXuXuXuXuXuXuX",
"uXuXuXuXuXuXuXuXuXuXuXuX* 6 6 n c q.k.4.;.L F F H 7 - { ;X;X@X@X[ * ;       uXuXuXuXuXuXuXuXuXuXuXuXuXuXuXuXuXuXuXuXuX",
"uXuXuXuXuXuXuXuXuXuXuXuXuX  + <.8.l.m.b.;.F J =.A X   +XrXyXp 9 y y 9 .         uXuXuXuXuXuXuXuXuXuXuXuXuXuXuXuXuXuXuX",
"uXuXuXuXuXuXuXuXuXuXuXuX    + <.3.k.b.Z.2.J K K D o . } eX9Xp y y y 0 O . .     uXuXuXuXuXuXuXuXuXuXuXuXuXuXuXuXuXuXuX",
"uXuXuXuXuXuXuXuXuXuXuXuX    o <.9.9.0.0.R R R R R e s u & 5 y y i d e w s -         uXuXuXuXuXuXuXuXuXuXuXuXuXuXuXuXuX",
"uXuXuXuXuXuXuXuXuXuXuXuXuX  + <.3.3.3.5.E Y Y Y Y d W -     9 y i Y Y t W >           uXuXuXuXuXuXuXuXuXuXuXuXuXuXuXuX",
"uXuXuXuXuXuXuXuX      uX    + V :.,.8.8.^ ^ ^ ^ ^ ^ ^ m 3 2 : ; 0 t W &.&.~ > - .     uXuXuXuXuXuXuXuXuXuXuXuXuXuXuXuX",
"uXuXuXuXuXuXuX              X A F :.9.8.9.3.8.3.8.3.8.:.F A X   6 d  .(.&X&.W e .     uXuXuXuXuXuXuXuXuXuXuXuXuXuXuXuX",
"uXuXuXuXuXuXuX. . o . . .   X S G ;.3.3.3.9.8.8.8.8.9.:.=.H # X 7 s W H./.#.e r .     uXuXuXuXuXuXuXuXuXuXuXuXuXuXuXuX",
"uXuXuXuXuX    > e w w e -     X X h =.-.3.8.8.8.8.8.8.3.3.,.H A 2 . o $ $ 7 y y .     uXuXuXuXuXuXuXuXuXuXuXuXuXuXuXuX",
"uXuXuXuXuX    6 W W W W 6         2 L =.3.8.8.8.8.8.8.9.8.3.=.=.2         ; y 9 .     uXuXuXuXuXuXuXuXuXuXuXuXuXuXuXuX",
"uXuXuXuXuX    6 W d s i 9 ; ; ; ; 4 h h c n n n n n n n n c h 2 @   . $ ; ; ; ; .   uXuXuXuXuXuXuXuXuXuXuXuXuXuXuXuXuX",
"uXuXuXuXuX    6 W d 0 y 0 0 y y y ;                                 . 9 y ;     uXuXuXuXuXuXuXuXuXuXuXuXuXuXuXuXuXuXuX",
"uXuXuXuXuX    > w r y y y y y y y ;                                 . 7 y $     uXuXuXuXuXuXuXuXuXuXuXuXuXuXuXuXuXuXuX",
"uXuXuXuXuXuXuX. . O 9 y 9 y y y y ;     uXuXuXuXuXuXuXuXuXuXuXuX      . . . uXuXuXuXuXuXuXuXuXuXuXuXuXuXuXuXuXuXuXuXuX",
"uXuXuXuXuXuXuX    . u y y y y y y ;     uXuXuXuXuXuXuXuXuXuXuXuX            uXuXuXuXuXuXuXuXuXuXuXuXuXuXuXuXuXuXuXuXuX",
"uXuXuXuXuXuXuXuX    ; ; ; ; ; ; ; $ uXuXuXuXuXuXuXuXuXuXuXuXuXuXuX        uXuXuXuXuXuXuXuXuXuXuXuXuXuXuXuXuXuXuXuXuXuX",
"uXuXuXuXuXuXuXuXuXuX              uXuXuXuXuXuXuXuXuXuXuXuXuXuXuXuXuXuXuXuXuXuXuXuXuXuXuXuXuXuXuXuXuXuXuXuXuXuXuXuXuXuX",
"uXuXuXuXuXuXuXuXuXuX              uXuXuXuXuXuXuXuXuXuXuXuXuXuXuXuXuXuXuXuXuXuXuXuXuXuXuXuXuXuXuXuXuXuXuXuXuXuXuXuXuXuX",
"uXuXuXuXuXuXuXuXuXuXuXuXuXuXuXuXuXuXuXuXuXuXuXuXuXuXuXuXuXuXuXuXuXuXuXuXuXuXuXuXuXuXuXuXuXuXuXuXuXuXuXuXuXuXuXuXuXuXuX",
"uXuXuXuXuXuXuXuXuXuXuXuXuXuXuXuXuXuXuXuXuXuXuXuXuXuXuXuXuXuXuXuXuXuXuXuXuXuXuXuXuXuXuXuXuXuXuXuXuXuXuXuXuXuXuXuXuXuXuX"
};
