/* XPM */
static char *result[] = {
/* columns rows colors chars-per-pixel */
"62 60 219 2 ",
"   c #000101",
".  c #0A0604",
"X  c #020C05",
"o  c #0A0C07",
"O  c #110C08",
"+  c #051205",
"@  c #061F07",
"#  c #051B09",
"$  c #15110D",
"%  c #191806",
"&  c #161310",
"*  c #191613",
"=  c #1B1B1A",
"-  c #051218",
";  c #24190F",
":  c #261A12",
">  c #381E10",
",  c #351D0E",
"<  c #062107",
"1  c #082B0B",
"2  c #11280B",
"3  c #0B3D0B",
"4  c #09350A",
"5  c #093C15",
"6  c #073D15",
"7  c #1B2D1B",
"8  c #3A2214",
"9  c #2D3913",
"0  c #342F27",
"q  c #45261C",
"w  c #402A17",
"e  c #542F1D",
"r  c #65391C",
"t  c #6D3B1D",
"y  c #64371A",
"u  c #723F1E",
"i  c #4E2B20",
"p  c #493A2C",
"a  c #573B21",
"s  c #6F3F20",
"d  c #613621",
"f  c #723D20",
"g  c #783F20",
"h  c #0D420D",
"j  c #124B0F",
"k  c #15400D",
"l  c #0B4412",
"z  c #0D4910",
"x  c #0B4E18",
"c  c #134C10",
"v  c #1F4D14",
"b  c #0E5E1C",
"n  c #185612",
"m  c #215315",
"M  c #245B17",
"N  c #0F611C",
"B  c #16671C",
"V  c #27731B",
"C  c #347D1A",
"Z  c #0E6E25",
"A  c #0E6422",
"S  c #0F7225",
"D  c #0F7B29",
"F  c #0C7B27",
"G  c #107526",
"H  c #127926",
"J  c #1A7528",
"K  c #107C29",
"L  c #1B7826",
"P  c #186924",
"I  c #247B2E",
"U  c #5E471F",
"Y  c #75471D",
"T  c #4E5425",
"R  c #684723",
"E  c #744221",
"W  c #7C4B27",
"Q  c #695328",
"!  c #597325",
"~  c #527033",
"^  c #776B15",
"/  c #534A5D",
"(  c #6B5B46",
")  c #6B5B4C",
"_  c #71794B",
"`  c #726C4B",
"'  c #69656F",
"]  c #82551C",
"[  c #895D25",
"{  c #855530",
"}  c #804F2C",
"|  c #956C38",
" . c #9C733D",
".. c #866333",
"X. c #A6783B",
"o. c #947B1D",
"O. c #957546",
"+. c #A17742",
"@. c #A37A42",
"#. c #A97F44",
"$. c #A57B56",
"%. c #158029",
"&. c #1C8529",
"*. c #288F29",
"=. c #278C28",
"-. c #348922",
";. c #2A9129",
":. c #3B9A26",
">. c #389727",
",. c #3DA229",
"<. c #7DA21D",
"1. c #708D34",
"2. c #41A529",
"3. c #43A92A",
"4. c #4EA322",
"5. c #56AB26",
"6. c #56B025",
"7. c #64A329",
"8. c #2A8A41",
"9. c #7C9660",
"0. c #808001",
"q. c #B89D14",
"w. c #AB9412",
"e. c #BBA10F",
"r. c #BDA412",
"t. c #8E8F3C",
"y. c #AE893A",
"u. c #AA843A",
"i. c #B59237",
"p. c #96AD3B",
"a. c #8FBB12",
"s. c #D2BD1E",
"d. c #CAB822",
"f. c #D2BC22",
"g. c #A3D514",
"h. c #93C715",
"j. c #E4DC0C",
"k. c #E9E508",
"l. c #F1EB07",
"z. c #ECF704",
"x. c #F6F206",
"c. c yellow",
"v. c #FAF508",
"b. c #FBF707",
"n. c #F8ED11",
"m. c #D5C021",
"M. c #ECD328",
"N. c #F3DA2A",
"B. c #E0C925",
"V. c #D2E106",
"C. c #A98048",
"Z. c #B28A46",
"A. c #B7915B",
"S. c #889667",
"D. c #AA8867",
"F. c #BA946D",
"G. c #BA9772",
"H. c #AB9170",
"J. c #88B073",
"K. c #BEA17C",
"L. c #808B5E",
"P. c #C1944A",
"I. c #C69B47",
"U. c #D8A94B",
"Y. c #D8A751",
"T. c #DFAC53",
"R. c #D7A651",
"E. c #C8AF4F",
"W. c #E2B549",
"Q. c #E4B84A",
"!. c #E1AE53",
"~. c #E5B056",
"^. c #C29E71",
"/. c #C7A77C",
"(. c #CEB073",
"). c #ECDC47",
"_. c #FEF25D",
"`. c #E8D26F",
"'. c #2B4E9B",
"]. c #425D9B",
"[. c #807F8B",
"{. c #7F8080",
"}. c #4C9298",
"|. c #07B4F2",
" X c #19A7D3",
".X c #7ED1E1",
"XX c #8D8587",
"oX c #A69591",
"OX c #CDAA82",
"+X c #C5AB8E",
"@X c #D1AF83",
"#X c #D5B48C",
"$X c #D9B68D",
"%X c #DAB88E",
"&X c #DBBA91",
"*X c #D4B993",
"=X c #CAB796",
"-X c #C1BBB9",
";X c #A9C0AF",
":X c #DCC09A",
">X c #E3C49B",
",X c #ECCFA6",
"<X c #E3CDA8",
"1X c #EBD1A9",
"2X c #F6DCB3",
"3X c #F4D5AB",
"4X c #FDE4BB",
"5X c #FFE8BE",
"6X c #97A9CE",
"7X c #9AABD1",
"8X c #84C6CC",
"9X c #CCD6CF",
"0X c #FFEAC2",
"qX c #FFE7C1",
"wX c #FFF1DA",
"eX c #E6F2E9",
"rX c #FFFEFD",
"tX c #F0ECE6",
"yX c None",
/* pixels */
"yXyXyXyXyXyXyXyXyXyXyXyXyXyXyXyXyXyXyXyXyXyXyXyXyXyXyXyXyXyXyXyXyXyXyXyXyXyXyXyXyXyXyXyXyXyXyXyXyXyXyXyXyXyXyXyXyXyXyXyXyXyX",
"yXyXyXyXyXyXyXyXyXyXyXyXyXyXyXyXyXyXyXyXyXyXyXyXyXyXyXyXyXyXyXyXyXyXyXyXyXyXyXyXyXyXyXyXyXyXyXyXyXyXyXyXyXyXyXyXyXyXyXyXyXyX",
"yXyXyXyXyXyXyXyXyXyXyXyXyXyXyXyXyXyXyXyXyXyXyXyXyXyXyXyXyXyXyXyXyXyXyXyXyXyXyXyXyXyXyXyXyXyXyXyXyXyXyXyXyXyXyXyXyXyXyXyXyXyX",
"yXyXyXyXyXyXyXyXyXyXyXyXyXyXyXyXyXyXyXyXyXyXyXyXyXyXyXyXyXyXyXyXyXyXyXyXyXyXyXyXyXyXyXyXyXyXyXyXyXyXyXyXyXyXyXyXyXyXyXyXyXyX",
"yXyXyXyXyXyXyXyXyXyXyXyXyXyXyXyXyXyXyXyXyXyXyXyXyXyXyXyXyXyXyXyXyXyXyXyXyXyXyXyXyXyXyXyXyXyXyXyXyXyXyXyXyXyXyXyXyXyXyXyXyXyX",
"yXyXyXyXyXyXyXyXyXyXyXyXyX@.@.@. .W f C D G z h V 3.2.2.2.;.K yXyXyXyXyXyXyXyXyXyXyXyXyXyXyXyXyXyXyXyXyXyXyXyXyXyXyXyXyXyXyX",
"yXyXyXyXyXyXyXyXyXyXyXyX@.@.+.@. .W Y T D G z 3 V 3.2.2.3.;.D K yXyXyXyXyXyXyXyXyXyXyXyXyXyXyXyXyXyXyXyXyXyXyXyXyXyXyXyXyXyX",
"yXyXyXyXyXyXyXyXyXyXyXyXy.y.y.y.u.W Y T %.K z h V 2.2.2.3.;.K K yXyXyXyXyXyXyXyXyXyXyXyXyXyXyXyXyXyXyXyXyXyXyXyXyXyXyXyXyXyX",
"yXyXyXyXyXyXyX@.@.P.T.W.n.l.x.x.k.y.#.1.,.>.j h V 3.2.2.2.:.:.:.,.2.;.D G z h yXyXyXyXyXyXyXyXyXyXyXyXyXyXyXyXyXyXyXyXyXyXyX",
"yXyXyXyXyXyXyX+.@.P.T.W.b.c.c.c.v.y.@.1.,.:.j h V 2.2.2.2.2.2.3.2.2.;.D S z 3 yXyXyXyXyXyXyXyXyXyXyXyXyXyXyXyXyXyXyXyXyXyXyX",
"yXyXyXyXyX+.u.s.f.B.M.M.m.s.f.s.f.P.P.1.,.:.c h V 3.2.2.2.2.2.2.2.2.>.=.=.V V L yXG z h h h yXyXyXyXyXyXyXyXyXyXyXyXyXyXyXyX",
"yXyXyXyXX.+.y.b.c.c.c.x.y.+.+.X.#.Y.T.p.,.:.c h V 2.2.2.2.2.2.2.2.2.,.2.2.2.3.;.K G z h h h h yXyXyXyXyXyXyXyXyXyXyXyXyXyXyX",
"yXyXyXyXu.y.i.k.x.x.b.n.y.C.C.C.Z.U.Q.p.6.4.n z V :.:.2.2.2.2.2.2.2.2.2.2.2.2.;.K H x z z z h yXyXyXyXyXyXyXyXyXyXyXyXyXyXyX",
"yXyXE s q.x.l.i.y.I.Q.W.Y.Y.Y.U.U.n.b.c.z.V.4.:.V j n :.2.2.2.2.2.2.2.2.2.2.2.,.,.:.H G G G S z h yXyXyXyXyXyXyXyXyXyXyXyXyX",
"yXyXE f e.b.x.u. .P.!.!.T.!.!.T.Q.v.c.c.c.z.6.2.V 3 c :.2.2.2.2.2.2.2.2.2.2.3.2.2.,.L D D K G l h yXyXyXyXyXyXyXyXyXyXyXyXyX",
"yXyXyXyXw.q.q.P.P.P.P.P.P.P.P.P.I.v.c.j.f.d.5.2.V 3 c >.2.-.V V V V -.2.2.2.,.>.*.=.%.K K D J A b l yXyXyXyXyXyXyXyXyXyXyXyX",
"yXyXyXyXyXu E R.W.A.@.@.@.@.@.+.y.x.c.f.+.O.3.3.V 3 j :.2.V 3 3 3 3 V 3.2.2.3.*.K D K K H K K K D 6     yXyXyXyXyXyXyXyXyXyX",
"yXyXyXyXyXE W R.!.Z.|  .C.C.C.C.Z.l.x.d. .C.5.6.C j n >.:.V c c j j V ,.:.:.:.*.K K K G D D K D D l X X yXyXyXyXyXyXyXyXyXyX",
"yXyXyXyXyXyXyXyXyX: O : G.@X@X@X/.Z.y.u.@.y.k.z.h.>.-.n j V :.:.:.:.=.K %.%.%.K K K K K D D K K K D Z A X   yXyXyXyXyXyXyXyX",
"yXyXyXyXyXyXyXyXyXyX  * K.%X#X#X@X#.X.+.+.y.v.c.g.2.:.c 3 V 3.3.3.3.;.D K K K K D K D K D K K K K K K Z X     yXyXyXyXyXyXyX",
"yXyXyXyXyXyXyXyXyX    * +X#X&X,X>X/.F.d.d.f.f.f.<.=.=.N b B V V *.;.&.K K K K K D D K K K K K K K D K Z X     yXyXyXyXyXyXyX",
"yXyXyXyXyXyXyXyXyX    $ G.#X,X0X4X$X#X).c.n.y.@.~ D K K K b h j S D K K K K D D D D K K K G K G K K K Z X   yXyXyXyXyXyXyXyX",
"yXyXyXyXyXyXyXyXyX    $ G.OX&X<X<X$X*X).c.x.y.@._ H J G G b h z S G G G G S S G G G Z Z G G G G G G K Z # X X yXyXyXyXyXyXyX",
"yXyXyXyXyXyXyXyXyX    O Q W i * 0 <X4X_.c.n.y.+...U U c z N H G z z z z z z z h l l + X 1 z z z z A K D Z Z 5     yXyXyXyXyX",
"yXyXyXyXyXyXyXyXyXyX  . y Y ,   * <X0X_.c.x.y.@.[ E t 3 3 b F S h h h h h h h h h 3 X   < h l z 3 b K K K K l     yXyXyXyXyX",
"yXyXyXyXyXyXyXyXyXp ( ) / / ' [.XX2X0X`.s.f.I.P.| E W _ _ S.J.J.S.S.~ 6 h h h 4 < <   yX+ < < < @ l b b N N l @ @ X   yXyXyX",
"yXyXyXyXyXyXyX    ( &X+X].'.7XrXrX0X0X(. .#.Y.~.X.u } /.#X,X5X5XqX0XS.h h h h <     yXyXyX        @ h h 3 3 l h 3       yXyX",
"yXyXyXyXyXyXyX    ( %X+X].'.7XrXrX0X0X/. .X.U.Q.X.u } /.%X,X5X4X2X3X9.4 4 3 3 <     yXyXyX        @ 3 3 3 3 3 3 4 X   yXyXyX",
"yXyXyXyXyXyXyX    ( $X+X].'.6XrXrX0XqXG.E ] l.b.q.t W 1X4X4X5X2XF.Z.U X X   X   yXyXyXyXyXyXyXyXyX    X . X       yXyXyXyXyX",
"yXyXyXyXyXyXyX    ) &X+X'.'.6XrXrXqX0XF.t ] l.c.e.R { 3X5X5X5X2XC.@.p           yXyXyXyXyXyXyXyXyX                yXyXyXyXyX",
"yXyXyXyXyXyXyXyXyXp ) ) XXXX-XwXwX0X0XF.u ] l.c.s.X.Z..X8X;X(./.R U :         yXyXyXyXyXyXyXyXyXyXyX            yXyXyXyXyXyX",
"yXyXyXyXyXyXyXyXyXyX  $ OX*X,X5X4X4XqXF.t ] l.c.M.!.(.|.|.}.X.| O         yXyXyXyXyXyXyXyXyXyXyXyXyXyXyXyXyXyXyXyXyXyXyXyXyX",
"yXyXyXyXyXyXyXyXyXyX  & H.K.&X4X4X4X4XG.W [ j.x.M.W.E. X|.}.[ ..: & ; % % yXyXyXyXyXyXyXyXyXyXyXyXyXyXyXyXyXyXyXyXyXyXyXyXyX",
"yXyXyXyXyXyXyXyXyXyXyXyX& $ ` &X&X%X#X@XOXK.[ W e.c.j.7 - - O : y.I.m.k.k.yXyXyXyXyXyXyXyXyXyXyXyXyXyXyXyXyXyXyXyXyXyXyXyXyX",
"yXyXyXyXyXyXyXyXyXyXyXyX    ) &X%X#X%X#X$XOXW s e.c.k.%       $ I.~.N.c.c.yXyXyXyXyXyXyXyXyXyXyXyXyXyXyXyXyXyXyXyXyXyXyXyXyX",
"yXyXyXyXyXyXyXyXyXyXyXyXyXyXp ) ( _ _ _ _ _ 8 8 o.N.m.%   + < 2 Q Q ^ 0.0.yXyXyXyXyXyXyXyXyXyXyXyXyXyXyXyXyXyXyXyXyXyXyXyXyX",
"yXyXyXyXyXyXyXyXyXyXyXyXyXyXyX    4 h h h 4     Q ~.I.%   < h 3           yXyXyXyXyXyXyXyXyXyXyXyXyXyXyXyXyXyXyXyXyXyXyXyXyX",
"yXyXyXyXyXyXyXyXyXyXyXyXyXyXX o + z z z z h +   Q I.Z.* X 1 z l X         yXyXyXyXyXyXyXyXyXyXyXyXyXyXyXyXyXyXyXyXyXyXyXyXyX",
"yXyXyXyXyXyXyXyXyXyXyXyX    5 Z S S G S S Z h 3 2 $ % A Z G G A o     yXyXyXyXyXyXyXyXyXyXyXyXyXyXyXyXyXyXyXyXyXyXyXyXyXyXyX",
"yXyXyXyXyXyXyXyXyXyXyXyX    5 K K D D D %.G z 5 <   X S K D D S X   yXyXyXyXyXyXyXyXyXyXyXyXyXyXyXyXyXyXyXyXyXyXyXyXyXyXyXyX",
"yXyXyXyXyXyXyXyXyXyX  X 5 6 b D K K K b 6 6 b A x 6 6 6 6 b K Z X     yXyXyXyXyXyXyXyXyXyXyXyXyXyXyXyXyXyXyXyXyXyXyXyXyXyXyX",
"yXyXyXyXyXyXyXyXyX    X Z D D D K K K 6   X Z K D D Z X   6 %.S X   yXyXyXyXyXyXyXyXyXyXyXyXyXyXyXyXyXyXyXyXyXyXyXyXyXyXyXyX",
"yXyXyXyXyXyXyXyXyX    o L *.=.J L J L 5   X I 8.8.8.I X   5 L P # X X yXyXyXyXyXyXyXyXyXyXyXyXyXyXyXyXyXyXyXyXyXyXyXyXyXyXyX",
"yXyXyXyXyXyXyXyXyX    % V.z.w.d R R R 8   = 9XeXeXeX9X=   8 R R P S 5     yXyXyXyXyXyXyXyXyXyXyXyXyXyXyXyXyXyXyXyXyXyXyXyXyX",
"yXyXyXyXyXyXyXyXyX    % k.c.e.u E g g >   : tXrXrXrXeX=   > u R J %.6     yXyXyXyXyXyXyXyXyXyXyXyXyXyXyXyXyXyXyXyXyXyXyXyXyX",
"yXyXyXyXyXyXyXyXyX    % a.g.<.! ! ! ! 9   $ [.oXoXoX[.&   9 ! ! J D 6     yXyXyXyXyXyXyXyXyXyXyXyXyXyXyXyXyXyXyXyXyXyXyXyXyX",
"yXyXyXyXyXyXyXyXyX    + >.,.2.2.2.2.2.m   . q q q q q .   m 3.,.K K l     yXyXyXyXyXyXyXyXyXyXyXyXyXyXyXyXyXyXyXyXyXyXyXyXyX",
"yXyXyXyXyXyXyXyXyX    o C >.:.2.2.,.3.m   . q i i e q .   m 3.:.J Z 6     yXyXyXyXyXyXyXyXyXyXyXyXyXyXyXyXyXyXyXyXyXyXyXyXyX",
"yXyXyXyXyXyXyXyXyX      + o M 2.2.2.3.m   . r s f f y .   m 3.>.@ X X yXyXyXyXyXyXyXyXyXyXyXyXyXyXyXyXyXyXyXyXyXyXyXyXyXyXyX",
"yXyXyXyXyXyXyXyXyX          m 3.2.3.3.m   . y u u u y .   m 3.>.+     yXyXyXyXyXyXyXyXyXyXyXyXyXyXyXyXyXyXyXyXyXyXyXyXyXyXyX",
"yXyXyXyXyXyXyXyXyXyX        2 m m m m 2   $ D.F.D.$.O.O   2 m v o   yXyXyXyXyXyXyXyXyXyXyXyXyXyXyXyXyXyXyXyXyXyXyXyXyXyXyXyX",
"yXyXyXyXyXyXyXyXyXyXyXyX                  = <X0X,X#X+X&         yXyXyXyXyXyXyXyXyXyXyXyXyXyXyXyXyXyXyXyXyXyXyXyXyXyXyXyXyXyX",
"yXyXyXyXyXyXyXyXyXyXyXyX    . . .   .     * =X1X=X/.H.&         yXyXyXyXyXyXyXyXyXyXyXyXyXyXyXyXyXyXyXyXyXyXyXyXyXyXyXyXyXyX",
"yXyXyXyXyXyXyXyXyXyXyXyX    > t d i q ;     * = = * O       yXyXyXyXyXyXyXyXyXyXyXyXyXyXyXyXyXyXyXyXyXyXyXyXyXyXyXyXyXyXyXyX",
"yXyXyXyXyXyXyXyXyXyXyXyX    8 Y f i q ;                     yXyXyXyXyXyXyXyXyXyXyXyXyXyXyXyXyXyXyXyXyXyXyXyXyXyXyXyXyXyXyXyX",
"yXyXyXyXyXyXyXyXyXyXyXyX    8 E f d d q ; ;               yXyXyXyXyXyXyXyXyXyXyXyXyXyXyXyXyXyXyXyXyXyXyXyXyXyXyXyXyXyXyXyXyX",
"yXyXyXyXyXyXyXyXyXyXyXyX    8 E E E Y d i q           yXyXyXyXyXyXyXyXyXyXyXyXyXyXyXyXyXyXyXyXyXyXyXyXyXyXyXyXyXyXyXyXyXyXyX",
"yXyXyXyXyXyXyXyXyXyXyXyX    > y r r t e i > .         yXyXyXyXyXyXyXyXyXyXyXyXyXyXyXyXyXyXyXyXyXyXyXyXyXyXyXyXyXyXyXyXyXyXyX",
"yXyXyXyXyXyXyXyXyXyXyXyXyXyX. . . . . . . . yXyXyXyXyXyXyXyXyXyXyXyXyXyXyXyXyXyXyXyXyXyXyXyXyXyXyXyXyXyXyXyXyXyXyXyXyXyXyXyX",
"yXyXyXyXyXyXyXyXyXyXyXyXyXyXyX              yXyXyXyXyXyXyXyXyXyXyXyXyXyXyXyXyXyXyXyXyXyXyXyXyXyXyXyXyXyXyXyXyXyXyXyXyXyXyXyX"
};
