/* XPM */
static char *result[] = {
/* columns rows colors chars-per-pixel */
"55 61 225 2 ",
"   c #010101",
".  c #0B0605",
"X  c #030B03",
"o  c #0D0C0A",
"O  c #0C0807",
"+  c #120A08",
"@  c #041204",
"#  c #051908",
"$  c #1D100D",
"%  c #1B1311",
"&  c #26150D",
"*  c #2E1914",
"=  c #341D16",
"-  c #321C0F",
";  c #08260A",
":  c #0A3B0B",
">  c #0A360A",
",  c #15360E",
"<  c #082C11",
"1  c #073211",
"2  c #0C3914",
"3  c #163213",
"4  c #2C2419",
"5  c #3E221B",
"6  c #392615",
"7  c #2E3413",
"8  c #132C38",
"9  c #2D2923",
"0  c #39332A",
"q  c #352E25",
"w  c #4A2A15",
"e  c #44251D",
"r  c #49291D",
"t  c #462615",
"y  c #522C18",
"u  c #403218",
"i  c #5A341A",
"p  c #64381C",
"a  c #713F1E",
"s  c #4B2A20",
"d  c #532F21",
"f  c #48392A",
"g  c #5C3320",
"h  c #4B3C31",
"j  c #673920",
"k  c #743F20",
"l  c #0D420D",
"z  c #10450F",
"x  c #11490F",
"c  c #0C4D12",
"v  c #094C1A",
"b  c #164812",
"n  c #0D5416",
"m  c #0E5918",
"M  c #0C531C",
"N  c #195913",
"B  c #0F661F",
"V  c #19651B",
"C  c #1E731E",
"Z  c #256719",
"A  c #2C7C1E",
"S  c #26701A",
"D  c #347719",
"F  c #0F5921",
"G  c #344924",
"H  c #0F6A21",
"J  c #0C6622",
"K  c #1A6724",
"L  c #0E7325",
"P  c #0E7B29",
"I  c #0B7926",
"U  c #107B29",
"Y  c #147626",
"T  c #296C26",
"R  c #3B7423",
"E  c #3A4019",
"W  c #484702",
"Q  c #50500F",
"!  c #74421F",
"~  c #7C4E1E",
"^  c #7D511E",
"/  c #616101",
"(  c #5D4A23",
")  c #515523",
"_  c #564838",
"`  c #495F20",
"'  c #6E4525",
"]  c #744220",
"[  c #784322",
"{  c #7F4F28",
"}  c #6A5422",
"|  c #705230",
" . c #4D6F36",
".. c #76773A",
"X. c #0E3046",
"o. c #24394F",
"O. c #2F4F6E",
"+. c #26405B",
"@. c #5A4945",
"#. c #595243",
"$. c #535353",
"%. c #675D4B",
"&. c #4B7044",
"*. c #77654D",
"=. c #8A6519",
"-. c #9A7517",
";. c #875729",
":. c #8B5C37",
">. c #946833",
",. c #8B6131",
"<. c #A77E3F",
"1. c #A87B3F",
"2. c #A27E2D",
"3. c #957950",
"4. c #A47B42",
"5. c #A37A42",
"6. c #8F7969",
"7. c #2E811F",
"8. c #17832A",
"9. c #238B29",
"0. c #298C26",
"q. c #338621",
"w. c #348922",
"e. c #398D20",
"r. c #2D9329",
"t. c #319529",
"y. c #369B29",
"u. c #3A9E29",
"i. c #399525",
"p. c #3FA329",
"a. c #3FA829",
"s. c #508C2B",
"d. c #41A529",
"f. c #45AA29",
"g. c #6BAD2B",
"h. c #6AAD26",
"j. c #569758",
"k. c #BBBA02",
"l. c #ACB30A",
"z. c #AA833D",
"x. c #B28A3A",
"c. c #BB9D30",
"v. c #B59335",
"b. c #84A73B",
"n. c #B49717",
"m. c #CBB326",
"M. c #CDB02D",
"N. c #CAAC29",
"B. c #ABD310",
"V. c #DACE08",
"C. c #D9C81B",
"Z. c #D0CB0E",
"A. c #E4D616",
"S. c #E2D70A",
"D. c #D0EA09",
"F. c #E9E509",
"G. c #F2EC09",
"H. c #FFFE01",
"J. c #F9F20B",
"K. c #F5E716",
"L. c #FBF014",
"P. c #ECD426",
"I. c #ECD229",
"U. c #CECA2B",
"Y. c #A98343",
"T. c #B88A45",
"R. c #B29150",
"E. c #B1A149",
"W. c #9C8467",
"Q. c #A1966A",
"!. c #B9936A",
"~. c #AC9271",
"^. c #AD906F",
"/. c #9F8D4F",
"(. c #C69648",
"). c #CEA14A",
"_. c #DDAB52",
"`. c #D4A351",
"'. c #D8AB4A",
"]. c #E2B44B",
"[. c #E2AE53",
"{. c #E2B052",
"}. c #C29E6F",
"|. c #C7A47B",
" X c #D1B07F",
".X c #E3CD5F",
"XX c #F0D975",
"oX c #2A4D9A",
"OX c #536698",
"+X c #4E649A",
"@X c #6B728D",
"#X c #29AACF",
"$X c #00BBFF",
"%X c #7B90C0",
"&X c #798FC0",
"*X c #42B6CC",
"=X c #8D9B8D",
"-X c #ADB3A8",
";X c #9AA0B6",
":X c #CDAD88",
">X c #D4B38C",
",X c #D8B68D",
"<X c #DBB98F",
"1X c #CAB595",
"2X c #DABD97",
"3X c #E0BD95",
"4X c #AED5B8",
"5X c #D3C299",
"6X c #E3C49B",
"7X c #E1C296",
"8X c #FBE884",
"9X c #F6DDB5",
"0X c #F8DDB7",
"qX c #EBD4AE",
"wX c #FEE6BD",
"eX c #FFE9BF",
"rX c #D9C6A6",
"tX c #B5DCD4",
"yX c #CED1CB",
"uX c #FFEBC3",
"iX c #FFECCC",
"pX c #FEFEFE",
"aX c #F4F7F4",
"sX c #FFF8EC",
"dX c None",
/* pixels */
"dXdXdXdXdXdXdXdXdXdXdXdXdXdXdXdXdXdXdXdXdXdXdXdXdXdXdXdXdXdXdXdXdXdXdXdXdXdXdXdXdXdXdXdXdXdXdXdXdXdXdXdXdXdXdX",
"dXdXdXdXdXdXdXdXdXdXdXdXdXdXdXdXdXdXdXdXdXdXdXdXdXdXdXdXdXdXdXdXdXdXdXdXdXdXdXdXdXdXdXdXdXdXdXdXdXdXdXdXdXdXdX",
"dXdXdXdXdXdXdXdXdXdXdXdXdXdXdXdXdXdXdXdXdXdXdXdXdXdXdXdXdXdXdXdXdXdXdXdXdXdXdXdXdXdXdXdXdXdXdXdXdXdXdXdXdXdXdX",
"dXdXdXdXdXdXdXdXdXdXdXdXdXdXdXdXdXdXdXdXdXdXdXdXdXdXdXdXdXdXdXdXdXdXdXdXdXdXdXdXdXdXdXdXdXdXdXdXdXdXdXdXdXdXdX",
"dXdXdXdXdXdXdXdXdXdXdXdXdXdX4.4.>.[ ' T 8.J l l w.f.d.d.d.d.d.y.U U dXdXdXdXdXdXdXdXdXdXdXdXdXdXdXdXdXdXdXdXdX",
"dXdXdXdXdXdXdXdXdXdXdXdXdXdX4.4.>.;.^ D 8.C x x q.u.u.p.d.d.d.y.8.U dXdXdXdXdXdXdXdXdXdXdXdXdXdXdXdXdXdXdXdXdX",
"dXdXdXdXdXdXdXdXdXdXdXdX4.4.).`.].F.F.F.F.B.t.t.V b Z d.d.p.d.p.u.u.d.d.u.U U n l l dXdXdXdXdXdXdXdXdXdXdXdXdX",
"dXdXdXdXdXdXdXdXdXdXdXdX4.4.`._.I.H.H.H.H.D.a.p.N : N d.d.d.d.d.d.d.d.d.y.U U m : l dXdXdXdXdXdXdXdXdXdXdXdXdX",
"dXdXdXdXdXdXdXdXdXdXdXc.m.m.I.I.I.C.C.P.P.U.b.b.R S S A A i.a.d.d.d.d.d.u.0.0.H m m dXdXdXdXdXdXdXdXdXdXdXdXdX",
"dXdXdXdXdXdXdXdXdX4.5.m.H.H.H.H.C.5.5.`.{._._._.g.f.w.l l 7.d.d.d.p.d.p.d.d.p.9.U L l l dXdXdXdXdXdXdXdXdXdXdX",
"dXdXdXdXdXdXdXdXdXz.Y.m.H.J.H.H.C.<.4.`.].].]._.g.a.w.l l w.d.d.d.d.d.d.p.d.d.9.P L l l dXdXdXdXdXdXdXdXdXdXdX",
"dXdXdXdXdXdXdX4.z.A.G.C.v.v.'.].).1.Y.A.J.J.J.J.h.p.w.l l w.d.d.d.d.d.d.d.d.d.9.U L l l dXdXdXdXdXdXdXdXdXdXdX",
"dXdXdXdXdXdXdX4.z.G.H.C.5.4.`.[.(.<.<.F.H.H.H.H.h.a.w.l l 7.f.a.d.d.d.d.d.d.d.9.P L l l dXdXdXdXdXdXdXdXdXdXdX",
"dXdXdXdXdXdXdX,.>.F.H.A.R.T.T.1.z.4.4.F.H.F.C.C.h.a.7.l l w.d.u.A A 7.A q.p.d.9.P L m m n dXdXdXdXdXdXdXdXdXdX",
"dXdXdXdXdXdXdXk ;.F.H.P.[._.;.k ;.4.4.F.H.A.5.5.h.a.w.l l w.d.e.l l l : N u.d.9.U U U U m l l dXdXdXdXdXdXdXdX",
"dXdXdXdXdXdXdX] ~ S.H.A._.`.;.k :.Y.Y.A.H.C.5.5.g.f.e.x x 7.p.w.x x z z N u.p.9.P U U U n l l dXdXdXdXdXdXdXdX",
"dXdXdXdXdXdXdXdXdX=.=.=.;.:.^.|.|.|. XT.v.z.<.1.Z.D.B.i.e.Z n Z i.e.i.i.0.8.U U Y P P U m l > X   dXdXdXdXdXdX",
"dXdXdXdXdXdXdXdXdXk k k a [ }.,X>X>X>XR.1.1.1.1.F.H.D.f.p.N : N d.f.d.d.u.U P U Y 8.U U m l > X   dXdXdXdXdXdX",
"dXdXdXdXdXdXdXdXdX] ] p w y !.2X2X6X7X!.!.R.N.N.C.C.B.y.t.V n V A 7.t.t.r.U U U U U U U m l > X   dXdXdXdXdXdX",
"dXdXdXdXdXdXdXdXdX] ] t   O ~.,X6XeXwX7X:X.XH.H.c.5.*.U 8.P P B l l B U U U U U U U U P n l >     dXdXdXdXdXdX",
"dXdXdXdXdXdXdXdXdX] ] t   . ^.>X7XwX0X7X,X.XH.H.c.4...U P L U H l l B U U U U U P U U U m l > X   dXdXdXdXdXdX",
"dXdXdXdXdXdXdXdXdXdXdX$   . ' :.| q 0 1XwXXXH.H.c.4.Y.E.E.R c n L B m c n U U U U U U U m l >     dXdXdXdXdXdX",
"dXdXdXdXdXdXdXdXdXdXdXdX    i [ t     1XiX8XH.H.c.5.T._._.` : c C U n z c P U U U U U P m l > X   dXdXdXdXdXdX",
"dXdXdXdXdXdXdXdXdXdXdX9 f f @.@.@.$.$.rXuX8XA.A.(.T.T.T.T... . .j.j.j.&. .H H L P U U U m l > X   dXdXdXdXdXdX",
"dXdXdXdXdXdXdXdXdX    _ ,X:X+XoX%XpXpXiXeX7X4.4.).{.(.a a !.>X3XwXwXwXeX5Xx l B P U U U m l >     dXdXdXdXdXdX",
"dXdXdXdXdXdXdXdXdX    _ ,X:X+XoX%XpXpXiXeX7X1.5.).{.(.a a !.<X3XwXwXwXwX5Xb : V U U U P m l > X   dXdXdXdXdXdX",
"dXdXdXdXdXdXdXdXdX    _ ,X:X+XoX%XpXpXiXeX>X{ ;.C.L.C.a ] :X0X9XwXwX X!.3.@ @ : n n U U 2 X @ dXdXdXdXdXdXdXdX",
"dXdXdXdXdXdXdXdXdX    _ 2X>X+XoX&XpXpXiXeX:X! ! V.H.Z.a ] ,XuXwXwXwX}.1...    ; l c P P 1     dXdXdXdXdXdXdXdX",
"dXdXdXdXdXdXdXdXdX    h W.W.@XOX;XsXsXuXeX>X] ! V.H.V.>.>.-XtX4X6X6X/.| (     # > : L U 1     dXdXdXdXdXdXdXdX",
"dXdXdXdXdXdXdXdXdXdXdXdX  + ~.,X6XuXwXwXuX:Xk ! V.H.K.[._.*X$X#X5.5.4             # P U 1     dXdXdXdXdXdXdXdX",
"dXdXdXdXdXdXdXdXdXdXdXdX  O ^.>X6XuXuXwXuX>X] [ V.H.K.[.[.#X$X#X1.1.6 .           # L U <     dXdXdXdXdXdXdXdX",
"dXdXdXdXdXdXdXdXdXdXdXdXdXdXq 0 *.6X7X3X6X>X!.!.2.-.n.K.K. .X.8 4 4 *.6./.k.k.W   @ c n ;     dXdXdXdXdXdXdXdX",
"dXdXdXdXdXdXdXdXdXdXdXdXdXdX    _ >X>X,X,X,X,X,X:.j -.H.H.W         6.3XXXH.H./   X l l #     dXdXdXdXdXdXdXdX",
"dXdXdXdXdXdXdXdXdXdXdXdXdXdX    f W.W.Q.Q.Q.Q.Q.| y =.K.K.W   X @ @ %.W./.k.k.W   X ; > #     dXdXdXdXdXdXdXdX",
"dXdXdXdXdXdXdXdXdXdXdXdXdXdXdXdXdX.   , z z z z @   6 ]._.u   X l l # .   .             dXdXdXdXdXdXdXdXdXdXdX",
"dXdXdXdXdXdXdXdXdXdXdXdXdXdXdXdXdX    > l l l l @ X 6 _.{.6   @ l l @                   dXdXdXdXdXdXdXdXdXdXdX",
"dXdXdXdXdXdXdXdXdXdXdXdXdXdX    W l.l.D J m l : @   < s.j.N M F B B Q r =     8 o.o.    dXdXdXdXdXdXdXdXdXdXdX",
"dXdXdXdXdXdXdXdXdXdXdXdXdXdX    / H.J.e.8.B l 1 X   ; I P L U U U U ) [ p     o.O.+.    dXdXdXdXdXdXdXdXdXdXdX",
"dXdXdXdXdXdXdXdXdXdXdXdXdXdX; ; / Z.B.D J J &.&.3 # 1 T T Y U U U U ) k i # # 8 +.o.0 0 9 dXdXdXdXdXdXdXdXdXdX",
"dXdXdXdXdXdXdX            X R d.Z . .     $.aXaXj.I T ' ] T P P U U ) ! } L P <   q qXwX%.    dXdXdXdXdXdXdXdX",
"dXdXdXdXdXdXdX            X q.f.Z         $.pXpXj.I T k a T P U U U ) k ( U U 1   9 0XuX%.    dXdXdXdXdXdXdXdX",
"dXdXdXdX    & w w = * 5 w w 3 , 7 w w = * h 6.6.-X4X=X& & ) ) ( ) ) ` s.s.t.t.K M F #.#.9     dXdXdXdXdXdXdXdX",
"dXdXdXdX    - [ ] d s g ! ! +   & ! ] d s s e s yXaXyX    y k k ! k s.p.d.d.d.0.U J           dXdXdXdXdXdXdXdX",
"dXdXdXdX    = j j s s y p i 0 q f ] ] d y s s s -XyX=X# @ Q } } } } s.a.p.i.u.Y J M o +       dXdXdXdXdXdXdXdX",
"dXdXdXdX    & s s s s *   + 1XwX|.a k k k j s s % o < L L t.d.d.d.d.d.d.u.U U 1   o e s $         dXdXdXdXdXdX",
"dXdXdXdX    & s s s s *   o 1XuX:Xa a ] k j s s O   # P U t.d.d.d.d.d.d.u.Y U <   . e s &         dXdXdXdXdXdX",
"dXdXdXdXdXdX+ $ $ e s 5 * = #.%.6.|.|.f & & % % 2 v F t.t.p.d.d.d.d.Z , b G G 4 * = r s w w 6     dXdXdXdXdXdX",
"dXdXdXdXdXdXdX    5 s s s e .   #.uXwX0         J 8.9.d.d.d.d.d.d.f.,   + s s s s s s s j [ p     dXdXdXdXdXdX",
"dXdXdXdXdXdXdX  . = 5 5 5 = O   @.5X2X0         v J K w.w.w.w.w.e.q.,   . 5 e 5 5 e s s j k p     dXdXdXdXdXdX",
"dXdXdXdXdXdXdXdXdX    .   . dXdXdXo o dXdXdX    X X X X   X X X . . dXdXdX  .     + e s g ] p     dXdXdXdXdXdX",
"dXdXdXdXdXdXdXdXdX          dXdXdX    dXdXdX            .           dXdXdX        O e s j ] p .   dXdXdXdXdXdX",
"dXdXdXdXdXdXdXdXdXdXdXdXdXdXdXdXdXdXdXdXdXdXdXdXdXdXdXdXdXdXdXdXdXdXdXdXdXdXdX    . e s d g w .   dXdXdXdXdXdX",
"dXdXdXdXdXdXdXdXdXdXdXdXdXdXdXdXdXdXdXdXdXdXdXdXdXdXdXdXdXdXdXdXdXdXdXdXdXdXdX    O s s s s e .   dXdXdXdXdXdX",
"dXdXdXdXdXdXdXdXdXdXdXdXdXdXdXdXdXdXdXdXdXdXdXdXdXdXdXdXdXdXdXdXdXdXdXdXdXdXdX    . 5 5 5 e =     dXdXdXdXdXdX",
"dXdXdXdXdXdXdXdXdXdXdXdXdXdXdXdXdXdXdXdXdXdXdXdXdXdXdXdXdXdXdXdXdXdXdXdXdXdXdXdXdXdX  . .     dXdXdXdXdXdXdXdX",
"dXdXdXdXdXdXdXdXdXdXdXdXdXdXdXdXdXdXdXdXdXdXdXdXdXdXdXdXdXdXdXdXdXdXdXdXdXdXdXdXdXdX          dXdXdXdXdXdXdXdX",
"dXdXdXdXdXdXdXdXdXdXdXdXdXdXdXdXdXdXdXdXdXdXdXdXdXdXdXdXdXdXdXdXdXdXdXdXdXdXdXdXdXdXdXdXdXdXdXdXdXdXdXdXdXdXdX",
"dXdXdXdXdXdXdXdXdXdXdXdXdXdXdXdXdXdXdXdXdXdXdXdXdXdXdXdXdXdXdXdXdXdXdXdXdXdXdXdXdXdXdXdXdXdXdXdXdXdXdXdXdXdXdX",
"dXdXdXdXdXdXdXdXdXdXdXdXdXdXdXdXdXdXdXdXdXdXdXdXdXdXdXdXdXdXdXdXdXdXdXdXdXdXdXdXdXdXdXdXdXdXdXdXdXdXdXdXdXdXdX",
"dXdXdXdXdXdXdXdXdXdXdXdXdXdXdXdXdXdXdXdXdXdXdXdXdXdXdXdXdXdXdXdXdXdXdXdXdXdXdXdXdXdXdXdXdXdXdXdXdXdXdXdXdXdXdX",
"dXdXdXdXdXdXdXdXdXdXdXdXdXdXdXdXdXdXdXdXdXdXdXdXdXdXdXdXdXdXdXdXdXdXdXdXdXdXdXdXdXdXdXdXdXdXdXdXdXdXdXdXdXdXdX"
};
