/* XPM */
static char *result[] = {
/* columns rows colors chars-per-pixel */
"57 60 215 2 ",
"   c #000101",
".  c #0B0505",
"X  c #020B04",
"o  c #0E0C0A",
"O  c #0D0907",
"+  c #150C0A",
"@  c #031404",
"#  c #061C06",
"$  c #041C0A",
"%  c #041508",
"&  c #1D110A",
"*  c #1F1C18",
"=  c #22140D",
"-  c #2B1B0E",
";  c #321D0F",
":  c #2A1913",
">  c #351E16",
",  c #062A0E",
"<  c #092E09",
"1  c #062508",
"2  c #0A330B",
"3  c #0B3F0B",
"4  c #092E11",
"5  c #063211",
"6  c #0A3310",
"7  c #1B3610",
"8  c #3E231C",
"9  c #372A15",
"0  c #363311",
"q  c #3B3227",
"w  c #44261E",
"e  c #492919",
"r  c #46391A",
"t  c #542D17",
"y  c #6E3C1E",
"u  c #723F1E",
"i  c #4B2A21",
"p  c #512D20",
"a  c #45392C",
"s  c #533227",
"d  c #453F38",
"f  c #663C22",
"g  c #733E20",
"h  c #0D430D",
"j  c #0D4D12",
"k  c #094618",
"l  c #124511",
"z  c #1B4512",
"x  c #0E5315",
"c  c #0B541C",
"v  c #0E5919",
"b  c #1B5C15",
"n  c #185714",
"m  c #0F661E",
"M  c #1A661A",
"N  c #236B19",
"B  c #206617",
"V  c #2D771D",
"C  c #3A4D30",
"Z  c #0D6221",
"A  c #0F6A21",
"S  c #0F7225",
"D  c #0F7B29",
"F  c #107325",
"G  c #107B29",
"H  c #1A7725",
"J  c #116922",
"K  c #276B26",
"L  c #347B2F",
"P  c #105D20",
"I  c #464403",
"U  c #525402",
"Y  c #57421B",
"T  c #75431F",
"R  c #4D5723",
"E  c #574939",
"W  c #4E492D",
"Q  c #744221",
"!  c #7A4624",
"~  c #6B5223",
"^  c #725128",
"/  c #4C6635",
"(  c #4E722E",
")  c #73711C",
"_  c #575148",
"`  c #655746",
"'  c #5A7151",
"]  c #6C6251",
"[  c #5E5F78",
"{  c #9A7517",
"}  c #A07E16",
"|  c #87572B",
" . c #875A38",
".. c #956937",
"X. c #926E38",
"o. c #A57C3E",
"O. c #AB7C3D",
"+. c #936744",
"@. c #977451",
"#. c #A17642",
"$. c #A37B41",
"%. c #A37A56",
"&. c #2E801F",
"*. c #1B8429",
"=. c #16842A",
"-. c #238B29",
";. c #2C8421",
":. c #328521",
">. c #338A22",
",. c #3D822D",
"<. c #2E9429",
"1. c #3D9F28",
"2. c #369828",
"3. c #3EA329",
"4. c #449E28",
"5. c #599B2F",
"6. c #4D8524",
"7. c #659532",
"8. c #41A429",
"9. c #42A92A",
"0. c #62A433",
"q. c #6BAA18",
"w. c #748E79",
"e. c #AE9114",
"r. c #9FA402",
"t. c #B1B201",
"y. c #898F36",
"u. c #B6982C",
"i. c #A9833D",
"p. c #B28939",
"a. c #B89536",
"s. c #A6882A",
"d. c #A6A42C",
"f. c #CDBA0E",
"g. c #C19D3A",
"h. c #CBB325",
"j. c #CDB22B",
"k. c #C5AB29",
"l. c #B1D417",
"z. c #8ECA18",
"x. c #DBCE09",
"c. c #DCCC19",
"v. c #C8DF0A",
"b. c #E2D415",
"n. c #E6DB12",
"m. c #CCE60B",
"M. c #FEFE01",
"N. c #FAF40A",
"B. c #F3E71A",
"V. c #EFE80C",
"C. c #E9C935",
"Z. c #F0CC3A",
"A. c #FDF628",
"S. c #D6C121",
"D. c #AC8244",
"F. c #BB8E48",
"G. c #B78947",
"H. c #B38D5C",
"J. c #B78F56",
"K. c #9E8466",
"L. c #A38A6A",
"P. c #B58F69",
"I. c #AC9677",
"U. c #B39775",
"Y. c #AE946B",
"T. c #ABAE65",
"R. c #CB9D49",
"E. c #D5A64E",
"W. c #DDAB52",
"Q. c #D7A550",
"!. c #CDAB48",
"~. c #E3B250",
"^. c #C39D6A",
"/. c #C9A677",
"(. c #E3C969",
"). c #DFC94F",
"_. c #2E509D",
"`. c #30519C",
"'. c #3B5AA1",
"]. c #475381",
"[. c #028ABC",
"{. c #00BCFF",
"}. c #48C6EC",
"|. c #948D92",
" X c #809C86",
".X c #A79C96",
"XX c #9AA48E",
"oX c #BDAF88",
"OX c #A0B1B2",
"+X c #D6B58C",
"@X c #DCB98E",
"#X c #D8B68C",
"$X c #C4BE92",
"%X c #D7B48D",
"&X c #ACD2B5",
"*X c #E3C59A",
"=X c #E7C99C",
"-X c #F1D5AC",
";X c #F5DBB2",
":X c #F9DEB4",
">X c #E4C9A2",
",X c #FEE5BC",
"<X c #FFE8BF",
"1X c #FEE5B7",
"2X c #D7CEBF",
"3X c #DCD5D3",
"4X c #C2C2C3",
"5X c #FFEBC1",
"6X c #FFEAC9",
"7X c #FFEED1",
"8X c #D8DEEC",
"9X c #FFF7E8",
"0X c white",
"qX c #E5DFDA",
"wX c None",
/* pixels */
"wXwXwXwXwXwXwXwXwXwXwXwXwXwXwXwXwXwXwXwXwXwXwXwXwXwXwXwXwXwXwXwXwXwXwXwXwXwXwXwXwXwXwXwXwXwXwXwXwXwXwXwXwXwXwXwXwX",
"wXwXwXwXwXwXwXwXwXwXwXwXwXwXwXwXwXwXwXwXwXwXwXwXwXwXwXwXwXwXwXwXwXwXwXwXwXwXwXwXwXwXwXwXwXwXwXwXwXwXwXwXwXwXwXwXwX",
"wXwXwXwXwXwXwXwXwXwXwXwXwXwXwXwXwXwXwXwXwXwXwXwXwXwXwXwXwXwXwXwXwXwXwXwXwXwXwXwXwXwXwXwXwXwXwXwXwXwXwXwXwXwXwXwXwX",
"wXwXwXwXwXwXwXwXwXwXwXwXwXwXwXwXwXwXwXwXwXwXwXwXwXwXwXwXwXwXwXwXwXwXwXwXwXwXwXwXwXwXwXwXwXwXwXwXwXwXwXwXwXwXwXwXwX",
"wXwXwXwXwXwXwXwXwXwXwXwXwXwXwXwXwXwXwXwXwXwXwXwXwXwXwXwXwXwXwXwXwXwXwXwXwXwXwXwXwXwXwXwXwXwXwXwXwXwXwXwXwXwXwXwXwX",
"wXwXwXwXwXwXwXwXwXwXwXwXwXwXwX$.$...Q Q K =.m h h >.8.8.8.8.*.D G wXwXwXwXwXwXwXwXwXwXwXwXwXwXwXwXwXwXwXwXwXwXwXwX",
"wXwXwXwXwXwXwXwXwXwXwXwXwXwXwX$.$...y Q K D A h h >.8.8.8.8.-.D D wXwXwXwXwXwXwXwXwXwXwXwXwXwXwXwXwXwXwXwXwXwXwXwX",
"wXwXwXwXwXwXwXwXwXwXwXwXwXwXwXj.h.u.| | ,.-.H h l >.8.8.8.8.<.-.<.wXwXwXwXwXwXwXwXwXwXwXwXwXwXwXwXwXwXwXwXwXwXwXwX",
"wXwXwXwXwXwXwXwXwXwXD.$.F.~.~.N.M.c.#.#.5.8.:.3 h >.8.8.8.8.8.8.8.4.3.*.G G wXwXwXwXwXwXwXwXwXwXwXwXwXwXwXwXwXwXwX",
"wXwXwXwXwXwXwXwXwXwXi.i.F.W.W.V.M.c.D.D.5.8.:.h l >.9.8.8.8.8.8.8.8.8.-.G G wXwXwXwXwXwXwXwXwXwXwXwXwXwXwXwXwXwXwX",
"wXwXwXwXwXwXwXwX$.i.n.N.S.D.D.p.p.F.Q.E.0.9.:.3 h >.9.8.8.8.8.8.8.8.3.1.3.2.G G x h h wXwXwXwXwXwXwXwXwXwXwXwXwXwX",
"wXwXwXwXwXwXwXwX$.i.V.M.c.#.o.o.i.F.W.W.0.3.:.3 h >.9.9.8.8.8.8.8.8.8.8.8.2.G D x h h wXwXwXwXwXwXwXwXwXwXwXwXwXwX",
"wXwXwXwXwXwXwXu.h.h.c.c.k.F.F.F.G.g.Z.C.z.z.q.N B V V :.8.8.8.8.8.8.8.8.8.1.-.-.M v c wXwXwXwXwXwXwXwXwXwXwXwXwXwX",
"wXwXwXwXwX$.D.h.M.N.a.#.F.W.W.W.W.C.M.M.M.M.m.8.8.b h b 8.8.8.8.8.8.8.8.8.8.8.8.-.=.S h h wXwXwXwXwXwXwXwXwXwXwXwX",
"wXwXwXwXwX$.#.h.M.N.a.o.F.Q.Q.W.Q.C.M.M.N.M.l.8.8.b 3 b 8.8.1.1.2.4.1.8.8.8.8.3.-.D S j h wXwXwXwXwXwXwXwXwXwXwXwX",
"wXwXwXwXwX! ! e.M.M.!.E.G.| | O.D.j.M.M.k.a.d.8.3.b 3 b 8.8.B n n n n >.8.8.8.8.-.D D A F x h h wXwXwXwXwXwXwXwXwX",
"wXwXwXwXwXg y e.M.M.~.~.p.u T X.#.k.M.M.a.#.y.3.3.n 3 b 8.8.b 3 3 h 3 ;.8.8.8.8.-.G G G G v h h wXwXwXwXwXwXwXwXwX",
"wXwXwXwXwXg f e.f.f.R.R.G.+.+.H.H.!.c.c.h.k.d.7.7.V B N V ;.N B B B B ;.2.<.<.<.*.G G G G v h h wXwXwXwXwXwXwXwXwX",
"wXwXwXwXwXwXwXwXT Q X.$.P.+X+X+X#XU.$.i.n.M.b.$.#.5.8.>.h h >.8.8.8.8.*.D G G G G G D G G v h h wXwXwXwXwXwXwXwXwX",
"wXwXwXwXwXwXwXwXQ ! ..o.H.+X+X+X#X/.#.D.V.M.b.$.$.5.8.>.h h >.8.1.8.8.-.D G G D D G G G G v h h wXwXwXwXwXwXwXwXwX",
"wXwXwXwXwXwXwXwXwXwX- & E @X@X-X1X*X/./.B.M.b.$.$.,.*.H S S b n M *.*.G G G G G G G D D G F J J h 3 wXwXwXwXwXwXwX",
"wXwXwXwXwXwXwXwXwXwX  X E @X@X,X5X-X+X#XB.M.n.$.#.L D G G G j 3 j D D D D G G D G G D D G G G F j h wXwXwXwXwXwXwX",
"wXwXwXwXwXwXwXwXwXwX    s H.P..XI.oX*X*XA.M.b.$.$.( K K J Z j h j m m F G G D G G G G D G G G S h h wXwXwXwXwXwXwX",
"wXwXwXwXwXwXwXwXwXwX    ; u y + X _ 5X1XA.M.b.$.$.^ g Y h h h h h h h m G G D D D G G D G G G S l h wXwXwXwXwXwXwX",
"wXwXwXwXwXwXwXwXwXwXX   : Q g &   E <X,XA.M.b.$.$.| g Y z j l l l l l A D D D D G G G G G G G F h h wXwXwXwXwXwXwX",
"wXwXwXwXwXwXwXwX  o @.L.[ ].].OX4X3X,X,X!.u.R.R.R.| g  .Y.L.oX$X$X$X$X( j c j x < $ 1 j x m G F j h 1     wXwXwXwX",
"wXwXwXwXwXwXwXwX  o U.@X.X`.'.8X0X9X,X:XH.#.G.W.W...y  .+X+X;X5X<X<X<X' h h h h %   X 3 h m G F h h #     wXwXwXwX",
"wXwXwXwXwXwXwXwX  + U.%X|.`.'.8X0X9X5X:XH...p.C.C.| y ..@X*X1X<X:X*X=X/ < < < < %   X < < x J m h h #     wXwXwXwX",
"wXwXwXwXwXwXwXwX  o U.@X|._.'.8X0X9X,X1X+.y { M.N.{ y @.,X,X,X5X=XD.o.9         wXwXwX    1 h h h h #     wXwXwXwX",
"wXwXwXwXwXwXwXwX  o U.%X|._.'.8X0X9X,X:X+.y } M.M.{ u @.,X5X,X,X=Xo.o.9         wXwXwX    < h h h h #     wXwXwXwX",
"wXwXwXwXwXwXwXwXwXwXq q ` .X.X,X7X6X,X,X+.y } M.M.!.P.XX}.}.XXP.K.9 ; O     wXwXwXwXwXwXwXX X # 3 h #     wXwXwXwX",
"wXwXwXwXwXwXwXwXwXwX    E @X@X:X,X,X,X,X+.y } M.M.(.@XOX{.{.w.i.^           wXwXwXwXwXwXwX    X h h #     wXwXwXwX",
"wXwXwXwXwXwXwXwXwXwX    d K.L.>X;X;X;X-X%. .s.x.x.).(.T.[.[.' ^ ^ 9 9 r 0 I wXwXwXwXwXwXwXwX  X < 2 $     wXwXwXwX",
"wXwXwXwXwXwXwXwXwXwXwXwXwX. o Y.#X+X+X+X+X+XP.T T x.M.t.X       q Q.W.V.M.M.wXwXwXwXwXwXwXwXwXwX    wXwXwXwXwXwXwX",
"wXwXwXwXwXwXwXwXwXwXwXwXwX  . I.+X+X+X+X+X+XP.T Q x.M.t.X       9 W.W.B.M.M.wXwXwXwXwXwXwXwXwXwX    wXwXwXwXwXwXwX",
"wXwXwXwXwXwXwXwXwXwXwXwXwXwXwXq q W / / / / C = - g.Z.s.    # 2 7 r r I U U wXwXwXwXwXwXwXwXwXwXwXwXwXwXwXwXwXwXwX",
"wXwXwXwXwXwXwXwXwXwXwXwXwXwXwX    @ 3 3 3 3 <   X o.~.o.    2 h <           wXwXwXwXwXwXwXwXwXwXwXwXwXwXwXwXwXwXwX",
"wXwXwXwXwXwXwXwXwXwXwXwXwXwXwX$ $ < j x j x 2   X X.T.X.1 # 2 h 2           wXwXwXwXwXwXwXwXwXwXwXwXwXwXwXwXwXwXwX",
"wXwXwXwXwXwXwXwXwXwXwXwXwX  X P G S G D D D c   X P G G D D x 3 2     wXwXwXwXwXwXwXwXwXwXwXwXwXwXwXwXwXwXwXwXwXwX",
"wXwXwXwXwXwXwXwXwXwXwXwXwX    Z G G G G D D c     v D D D S x h 2     wXwXwXwXwXwXwXwXwXwXwXwXwXwXwXwXwXwXwXwXwXwX",
"wXwXwXwXwXwXwXwXwXwX    U t.r.;.D D D G G G c      X&X&X&X&XC @ @     wXwXwXwXwXwXwXwXwXwXwXwXwXwXwXwXwXwXwXwXwXwX",
"wXwXwXwXwXwXwXwXwXwX    U M.M.2.D D D G D G c   . 4X0X0X0X0X_         wXwXwXwXwXwXwXwXwXwXwXwXwXwXwXwXwXwXwXwXwXwX",
"wXwXwXwXwXwXwXwXwXwX    U m.v.6.N H D G G =.c   X .X3X3X3X3Xd   X % $ wXwXwXwXwXwXwXwXwXwXwXwXwXwXwXwXwXwXwXwXwXwX",
"wXwXwXwXwX              2 *.-.Y T R D D G G c     8 s s a i +   $ S S ,     wXwXwXwXwXwXwXwXwXwXwXwXwXwXwXwXwXwXwX",
"wXwXwXwXwX              6 G G ~ | Y D D D =.c     > i i i w +   $ D D ,     wXwXwXwXwXwXwXwXwXwXwXwXwXwXwXwXwXwXwX",
"wXwXwXwXwX    & e e .   5 G D ( ( ( R R R R 0     8 i i y f e e 9 4 4 k c 5 X   wXwXwXwXwXwXwXwXwXwXwXwXwXwXwXwXwX",
"wXwXwXwXwX    ; T y O   5 D =.2.9.6.g Q Q Q p     > i s Q u u u t     c =.Z X   wXwXwXwXwXwXwXwXwXwXwXwXwXwXwXwXwX",
"wXwXwXwXwX    ; T y & . 4 A A 2.8.6.~ ~ ~ ~ r % % > 8 s  . . . .Q     c =.P     wXwXwXwXwXwXwXwXwXwXwXwXwXwXwXwXwX",
"wXwXwXwXwX    ; T g e i : X X :.8.8.4.4.4.8.2.F S $   d ;X;X@X+XK.    c G Z     wXwXwXwXwXwXwXwXwXwXwXwXwXwXwXwXwX",
"wXwXwXwXwX    ; Q u p i :   X >.9.8.8.8.8.8.2.G D 1   E 5X5X*X@XL.X   c =.Z X   wXwXwXwXwXwXwXwXwXwXwXwXwXwXwXwXwX",
"wXwXwXwXwXwXwX= ; ; w i 8 : : 7 z b -.-.-.-.K 5 5 X   * ] ] ` E a     1 5 4 wXwXwXwXwXwXwXwXwXwXwXwXwXwXwXwXwXwXwX",
"wXwXwXwXwXwXwXwX  . 8 i i i i . . , G G D D c                               wXwXwXwXwXwXwXwXwXwXwXwXwXwXwXwXwXwXwX",
"wXwXwXwXwXwXwXwX  . > 8 8 8 8 O   , J J A A k                 . .   . .     wXwXwXwXwXwXwXwXwXwXwXwXwXwXwXwXwXwXwX",
"wXwXwXwXwXwXwXwXwXwX  .   . . wXwXwXX X X X X               > i i i i +     wXwXwXwXwXwXwXwXwXwXwXwXwXwXwXwXwXwXwX",
"wXwXwXwXwXwXwXwXwXwX          wXwXwX                        8 i i i i +     wXwXwXwXwXwXwXwXwXwXwXwXwXwXwXwXwXwXwX",
"wXwXwXwXwXwXwXwXwXwXwXwXwXwXwXwXwXwXwXwXwXwXwXwXwXwXwX      + = = & = o wXwXwXwXwXwXwXwXwXwXwXwXwXwXwXwXwXwXwXwXwX",
"wXwXwXwXwXwXwXwXwXwXwXwXwXwXwXwXwXwXwXwXwXwXwXwXwXwXwXwX              wXwXwXwXwXwXwXwXwXwXwXwXwXwXwXwXwXwXwXwXwXwX",
"wXwXwXwXwXwXwXwXwXwXwXwXwXwXwXwXwXwXwXwXwXwXwXwXwXwXwXwX              wXwXwXwXwXwXwXwXwXwXwXwXwXwXwXwXwXwXwXwXwXwX",
"wXwXwXwXwXwXwXwXwXwXwXwXwXwXwXwXwXwXwXwXwXwXwXwXwXwXwXwXwXwXwXwXwXwXwXwXwXwXwXwXwXwXwXwXwXwXwXwXwXwXwXwXwXwXwXwXwX",
"wXwXwXwXwXwXwXwXwXwXwXwXwXwXwXwXwXwXwXwXwXwXwXwXwXwXwXwXwXwXwXwXwXwXwXwXwXwXwXwXwXwXwXwXwXwXwXwXwXwXwXwXwXwXwXwXwX"
};
