/* XPM */
static char *result[] = {
/* columns rows colors chars-per-pixel */
"57 61 212 2 ",
"   c #010101",
".  c #0A0504",
"X  c #030C03",
"o  c #0B0A08",
"O  c #090807",
"+  c #180D09",
"@  c #041205",
"#  c #041C0A",
"$  c #071807",
"%  c #18150C",
"&  c #0C1219",
"*  c #080E15",
"=  c #22130D",
"-  c #2E1A0F",
";  c #321C0E",
":  c #2E1A14",
">  c #251814",
",  c #351E14",
"<  c #361E18",
"1  c #05240C",
"2  c #082B09",
"3  c #07290F",
"4  c #0B3C0B",
"5  c #0A360A",
"6  c #072E10",
"7  c #063211",
"8  c #0C3912",
"9  c #1C3210",
"0  c #2D2212",
"q  c #392717",
"w  c #3D3017",
"e  c #122531",
"r  c #3A3329",
"t  c #2F2820",
"y  c #101C29",
"u  c #432614",
"i  c #47281A",
"p  c #522D17",
"a  c #44351A",
"s  c #5C331A",
"d  c #45240F",
"f  c #683B1E",
"g  c #723F1F",
"h  c #4B2A20",
"j  c #563226",
"k  c #4C3428",
"l  c #683920",
"z  c #723F20",
"x  c #0D420D",
"c  c #10440F",
"v  c #124A0F",
"b  c #0C4B12",
"n  c #0B4C19",
"m  c #1A4815",
"M  c #0D5516",
"N  c #0B531C",
"B  c #0D5A1A",
"V  c #1B5C14",
"C  c #175412",
"Z  c #076705",
"A  c #0D631F",
"S  c #1B6419",
"D  c #2C7D1E",
"F  c #246719",
"G  c #0D6421",
"H  c #0F6B21",
"J  c #0F7326",
"K  c #0E7A29",
"L  c #0D7A27",
"P  c #107325",
"I  c #107B29",
"U  c #177A26",
"Y  c #116921",
"T  c #376424",
"R  c #217028",
"E  c #265C1D",
"W  c #474910",
"Q  c #75421F",
"!  c #4D4235",
"~  c #574A3B",
"^  c #5A4324",
"/  c #684626",
"(  c #744221",
")  c #7A4926",
"_  c #6C5429",
"`  c #4D7134",
"'  c #6E6F31",
"]  c #00324B",
"[  c #305070",
"{  c #3A7648",
"}  c #5B4748",
"|  c #565555",
" . c #78674C",
".. c #73654F",
"X. c #5C7746",
"o. c #937116",
"O. c #84542A",
"+. c #895D37",
"@. c #9A6833",
"#. c #966934",
"$. c #A47B3F",
"%. c #A27E2C",
"&. c #96724B",
"*. c #A37A42",
"=. c #A17743",
"-. c #957F64",
";. c #2E801F",
":. c #1B8529",
">. c #188329",
",. c #228A29",
"<. c #338721",
"1. c #338A22",
"2. c #398B20",
"3. c #2F9529",
"4. c #3A9E29",
"5. c #389726",
"6. c #3FA329",
"7. c #3FA82B",
"8. c #38B623",
"9. c #509227",
"0. c #6F9032",
"q. c #41A429",
"w. c #49A629",
"e. c #65A432",
"r. c #6AA81A",
"t. c #13FC0A",
"y. c #589155",
"u. c #6B9675",
"i. c #BABA02",
"p. c #AABE1D",
"a. c #AB853C",
"s. c #AE8B37",
"d. c #B18B3A",
"f. c #B89833",
"g. c #B99C23",
"h. c #9C9A28",
"j. c #C9B411",
"k. c #C29D36",
"l. c #CCB425",
"z. c #D0B033",
"x. c #A9D00F",
"c. c #8BC91A",
"v. c #DDD109",
"b. c #D9C81B",
"n. c #CCD210",
"m. c #E3D515",
"M. c #D1EA09",
"N. c #EDE40D",
"B. c #F2EC0A",
"V. c #FEFE01",
"C. c #FAF30B",
"Z. c #F5E717",
"A. c #F2E713",
"S. c #EACB34",
"D. c #EBCE2E",
"F. c #D9C029",
"G. c #A68545",
"H. c #BC8A43",
"J. c #B88B47",
"K. c #B2914F",
"L. c #B0A149",
"P. c #9B8366",
"I. c #A58A6A",
"U. c #A1966A",
"Y. c #BB956A",
"T. c #AE9372",
"R. c #C99B4B",
"E. c #D6A64E",
"W. c #DDAC52",
"Q. c #D4A251",
"!. c #CFAF4B",
"~. c #E4BA44",
"^. c #E1AE53",
"/. c #E2B052",
"(. c #C39E70",
"). c #CAA67B",
"_. c #D0AF7D",
"`. c #E4CE5E",
"'. c #FCEC7A",
"]. c #E6CC6F",
"[. c #2A4D9A",
"{. c #4E6499",
"}. c #5D6B96",
"|. c #6A718E",
" X c #35AFCD",
".X c #00BBFF",
"XX c #7E93C1",
"oX c #A9B0A7",
"OX c #9FA0AA",
"+X c #CCAF8C",
"@X c #D0AF89",
"#X c #D5B48C",
"$X c #D8B68D",
"%X c #DAB98F",
"&X c #C9B995",
"*X c #DDBC94",
"=X c #E0BC95",
"-X c #ABD0B4",
";X c #E2C49B",
":X c #E2C294",
">X c #F7DDB4",
",X c #FFE6BD",
"<X c #FFE9BF",
"1X c #DDCD96",
"2X c #B5DCD4",
"3X c #DCD6D4",
"4X c #C2CBC2",
"5X c #FFE9C2",
"6X c #FFEBCB",
"7X c #FFFFFE",
"8X c #FFF8EC",
"9X c None",
/* pixels */
"9X9X9X9X9X9X9X9X9X9X9X9X9X9X9X9X9X9X9X9X9X9X9X9X9X9X9X9X9X9X9X9X9X9X9X9X9X9X9X9X9X9X9X9X9X9X9X9X9X9X9X9X9X9X9X9X9X",
"9X9X9X9X9X9X9X9X9X9X9X9X9X9X9X9X9X9X9X9X9X9X9X9X9X9X9X9X9X9X9X9X9X9X9X9X9X9X9X9X9X9X9X9X9X9X9X9X9X9X9X9X9X9X9X9X9X",
"9X9X9X9X9X9X9X9X9X9X9X9X9X9X9X9X9X9X9X9X9X9X9X9X9X9X9X9X9X9X9X9X9X9X9X9X9X9X9X9X9X9X9X9X9X9X9X9X9X9X9X9X9X9X9X9X9X",
"9X9X9X9X9X9X9X9X9X9X9X9X9X9X9X9X9X9X9X9X9X9X9X9X9X9X9X9X9X9X9X9X9X9X9X9X9X9X9X9X9X9X9X9X9X9X9X9X9X9X9X9X9X9X9X9X9X",
"9X9X9X9X9X9X9X9X9X9X9X9X9X*.*.*.*.*.) g _ 7.6.V 4 M I I 9X9X9X9X9X9X9X9X9X9X9X9X9X9X9X9X9X9X9X9X9X9X9X9X9X9X9X9X9X",
"9X9X9X9X9X9X9X9X9X9X9X9X9Xa.a.s.s.a.O.z ' q.6.V 4 M I I 9X9X9X9X9X9X9X9X9X9X9X9X9X9X9X9X9X9X9X9X9X9X9X9X9X9X9X9X9X",
"9X9X9X9X9X9X9X9X*.*.J.^./.A.B.B.B.N.s.$.0.7.6.V c V 4.4.6.q.q.q.q.:.I I 9X9X9X9X9X9X9X9X9X9X9X9X9X9X9X9X9X9X9X9X9X",
"9X9X9X9X9X9X9X9X*.=.J.W./.C.V.V.V.V.f.=.#.7.6.C x V q.q.q.q.q.q.q.,.L L 9X9X9X9X9X9X9X9X9X9X9X9X9X9X9X9X9X9X9X9X9X",
"9X9X9X9X9X9X9X9Xl.l.l.D.D.b.l.b.l.b.l.l.h.q.q.V 4 S q.q.q.q.q.q.q.3.,.,.9X9X9X9X9X9X9X9X9X9X9X9X9X9X9X9X9X9X9X9X9X",
"9X9X9X9X9X9X*.a.B.V.V.V.V.d.*.*.$.$.N.V.M.q.q.V 4 V q.q.q.q.q.q.q.q.q.4.I I I I J x x 9X9X9X9X9X9X9X9X9X9X9X9X9X9X",
"9X9X9X9X9X9Xa.a.A.C.V.C.C.f.*.*.d.d.N.V.x.w.w.S c V q.4.q.q.q.q.q.q.q.3.>.I I I J x x 9X9X9X9X9X9X9X9X9X9X9X9X9X9X",
"9X9X9X*.=.l.B.N.f.f.k.~.~.E.^.S.B.N.S.`.!.!.L.e.5.;.C C <.q.q.q.q.q.q.6.4.4.:.I I P P M x x 9X9X9X9X9X9X9X9X9X9X9X",
"9X9X9X*.*.l.V.V.f.=.R.W.W.W./.S.V.V.~.W././.W.e.q.<.x x <.q.q.q.q.q.q.6.q.q.,.L I I I B x x 9X9X9X9X9X9X9X9X9X9X9X",
"9X9X9X*.*.g.j.j.@.+.G.^.W.H.$.k.b.b.D.D.z.R.R.e.6.1.x x <.q.4.;.D D <.<.q.q.,.L I I I A B M 9X9X9X9X9X9X9X9X9X9X9X",
"9X9X9X9X9X9X( z Q ( @./.Q.O.g O.*.a.N.V.m.$.a.9.q.1.x x <.q.2.x x x 4 C q.q.,.J I I I I K P x x 9X9X9X9X9X9X9X9X9X",
"9X9X9X9X9X9X( Q Q Q @.!.R.O.) O.*.G.m.V.b.$.$.e.w.2.x v 1.q.1.x x c c V 4.6.,.L I I I I L J v x 9X9X9X9X9X9X9X9X9X",
"9X9X9X9X9X9X9X9X9X9Xq : q I.(.)._.).H.f.d.=.$.n.N.x.5.5.S C S 2.5.U H U >.>.I I I I I I I I J J 9X9X9X9X9X9X9X9X9X",
"9X9X9X9X9X9X9X9X9X9X9X  O T.%X#X#X@XK.$.=.=.*.N.V.M.q.7.V 4 V q.q.:.I I L I I I I I I I K I I I 9X9X9X9X9X9X9X9X9X",
"9X9X9X9X9X9X9X9X9X9X9X  O T.%X*X;X;XY.K.K.l.l.b.m.p.3.3.S N S <.;.>.I I I I I I I I P I I I I I N 9X9X9X9X9X9X9X9X",
"9X9X9X9X9X9X9X9X9X9X9X  O T.%X;X5X5X*X#X`.V.V.f.=.' >.K K K H 4 x A I I I I I I I L I I I I K I 7     9X9X9X9X9X9X",
"9X9X9X9X9X9X9X9X9X9X9X  O T.@X;X>X>X=X&X].V.V.f.*.' U U I I H x c A >.I K K K K I I I I I I I I 7     9X9X9X9X9X9X",
"9X9X9X9X9X9X9X9X9X9X9X  . _ +./ r k &X>X'.V.V.f.*.G.L.L.T M B H H B b B K L >.K I I K I K I I K N 5 5     9X9X9X9X",
"9X9X9X9X9X9X9X9X9X9X9X    s Q u     &X6X'.V.V.f.*.J.^.^.` x b L L b 4 n I I >.K I I I I I I I I B x 4     9X9X9X9X",
"9X9X9X9X9X9X9X9X9X9Xt k k } } } | | ;X6X1XN.m.k.J.R.H.a.' ` ` y.y.y.X.` H H A A A N N A H H I I B x 4     9X9X9X9X",
"9X9X9X9X9X9X9X9X    ~ $X+X{.[.XX7X7X6X<X:X*.$.R.W.H.( ( (.#X=X5X<X<X<X&Xv x x x 5     2 x b I I B x 4     9X9X9X9X",
"9X9X9X9X9X9X9X9X    ~ $X+X{.[.XX7X7X6X<X:X$.*.E.E.R.( ( Y.#X=X5X,X,X<X&Xv x x x 5     2 x b J I B x 4 X   9X9X9X9X",
"9X9X9X9X9X9X9X9X    ~ $X+X{.[.XX7X7X6X<X#X) O.b.Z.j.z z @X>X>X5X<X_.Y.&.@ @ @ @ @ 9X9XX X 1 I I B x 4     9X9X9X9X",
"9X9X9X9X9X9X9X9X    ~ %X#X{.[.XX7X7X6X<X@XQ Q v.V.v.z z %X5X,X,X<XY.a.+.          9X9X    @ J I B c 4     9X9X9X9X",
"9X9X9X9X9X9X9X9X    ! P.-.|.}.OX8X8X5X5X@XQ Q v.V.v.#.+.oX2X4X1X;X&._ ^           9X9X    @ A H b 2 2     9X9X9X9X",
"9X9X9X9X9X9X9X9X9X9X9X  * T.%X;X,X,X,X,X@Xg Q v.V.Z.W.W. X.X XG.*.q X       9X9X9X9X9X    X 4 x #     9X9X9X9X9X9X",
"9X9X9X9X9X9X9X9X9X9X9X  O T.#X;X,X,X,X5X@Xg Q v.V.Z.W.^. X.X X=.*.q         9X9X9X9X9X    X 4 x #     9X9X9X9X9X9X",
"9X9X9X9X9X9X9X9X9X9X9X9X9Xr r  .;X;X;X;X#XY.Y.%.o.g.Z.Z.` ] e 0 0 ..P.G.i.i.9X9X9X9X9X9X9X9X@ @ @ 9X9X9X9X9X9X9X9X",
"9X9X9X9X9X9X9X9X9X9X9X9X9X    ! %X$X$X$X$X%X%X+.l o.V.V.W         -.*X].V.V.9X9X9X9X9X9X9X9X    9X9X9X9X9X9X9X9X9X",
"9X9X9X9X9X9X9X9X9X9X9X9X9X    r I.P.U.U.U.U.U./ p o.Z.Z.a     @ @ ..P.K.i.i.9X9X9X9X9X9X9X9X    9X9X9X9X9X9X9X9X9X",
"9X9X9X9X9X9X9X9X9X9X9X9X9X        . 8 c c c c @   a W.W.w   @ 8 x $     .   9X9X9X9X9X9X9X9X9X9X9X9X9X9X9X9X9X9X9X",
"9X9X9X9X9X9X9X9X9X9X9X9X9X          5 x x x 8 @   w W.W.w   @ c x $         9X9X9X9X9X9X9X9X9X9X9X9X9X9X9X9X9X9X9X",
"9X9X9X9X9X9X9X9X9X9X9X  . u p -     N H n @ # ..-. .a a m B B Y A 1     9X9X9X9X9X9X9X9X9X9X9X9X9X9X9X9X9X9X9X9X9X",
"9X9X9X9X9X9X9X9X9X9X9X    f Q i     G >.N     I.:XP.    G >.I K K 3     9X9X9X9X9X9X9X9X9X9X9X9X9X9X9X9X9X9X9X9X9X",
"9X9X9X9X9X9X9X9X9X9X* & & p f q # # G I G # # &.I. .# # n G G K I 3     9X9X9X9X9X9X9X9X9X9X9X9X9X9X9X9X9X9X9X9X9X",
"9X9X9X9X9X9X9X9X    e [ [ *   2 K K I K K J P 1 . 3 J J 1   1 K I 1     9X9X9X9X9X9X9X9X9X9X9X9X9X9X9X9X9X9X9X9X9X",
"9X9X9X9X9X9X9X9X    e [ [ &   6 L I I K K I J #   1 L L 1 . # K I 1     9X9X9X9X9X9X9X9X9X9X9X9X9X9X9X9X9X9X9X9X9X",
"9X9X9X9X9X9X  . q p q y y E F 9.x.x.1.K A 6 3 n n { -X-XoXoX|.3 3 q p q     9X9X9X9X9X9X9X9X9X9X9X9X9X9X9X9X9X9X9X",
"9X9X9X9X9X9X  . f Q d   X 2.w.c.V.V.5.>.N     A L u.7X7X7X7X4X.   p ) s     9X9X9X9X9X9X9X9X9X9X9X9X9X9X9X9X9X9X9X",
"9X9X9X9X9X9X  . p s q   X 2.w.r.M.M.9.F m + % n A y.3X3X3X3XOX    a / W $ $ 9X9X9X9X9X9X9X9X9X9X9X9X9X9X9X9X9X9X9X",
"9X9X9X9X9X9X9X9X  .     X <.q.w.w.w._ f z g z % X % k k k j <     N I U L J 6     9X9X9X9X9X9X9X9X9X9X9X9X9X9X9X9X",
"9X9X9X9X9X9X9X9X        X 2.q.q.q.q._ g z z z +   + h h h h <     N I I K K 6     9X9X9X9X9X9X9X9X9X9X9X9X9X9X9X9X",
"9X9X9X9X9X9X9X9X9X9X      U ,.3.6.6.9.9.` T T $   + h h l l s i u 9 7 7 6 7 @     9X9X9X9X9X9X9X9X9X9X9X9X9X9X9X9X",
"9X9X9X9X9X9X9X9X9X9X9X    H K ,.6.9.q.q.3.L L #   + h i l ( z z g =               9X9X9X9X9X9X9X9X9X9X9X9X9X9X9X9X",
"9X9X9X9X9X9X9X9X9X9X9X    N G :.8.8.6.q.5.>.U 7 @ & q < l ( z +.+.:               9X9X9X9X9X9X9X9X9X9X9X9X9X9X9X9X",
"9X9X9X9X9X9X9X9X9X9X9X    X   Z t.t.8.q.6.6.6.U K N . . p z &.>X>X!         9X9X9X9X9X9X9X9X9X9X9X9X9X9X9X9X9X9X9X",
"9X9X9X9X9X9X9X9X9X9X9X        Z t.t.8.w.q.w.q.:.>.N     p Q &.5X5X}         9X9X9X9X9X9X9X9X9X9X9X9X9X9X9X9X9X9X9X",
"9X9X9X9X9X9X9X9X9X  = u u : : 9 Z Z C m m m m 4 7 1     i j l ....>     9X9X9X9X9X9X9X9X9X9X9X9X9X9X9X9X9X9X9X9X9X",
"9X9X9X9X9X9X9X9X    - ( z j h :                         < h <           9X9X9X9X9X9X9X9X9X9X9X9X9X9X9X9X9X9X9X9X9X",
"9X9X9X9X9X9X9X9X    ; Q z p j < . . . . .               : i :           9X9X9X9X9X9X9X9X9X9X9X9X9X9X9X9X9X9X9X9X9X",
"9X9X9X9X9X9X9X9X    , ( z z ( s h h h i :     9X9X9X      . .     9X9X9X9X9X9X9X9X9X9X9X9X9X9X9X9X9X9X9X9X9X9X9X9X",
"9X9X9X9X9X9X9X9X    ; ( ( ( ( l h h h h ,     9X9X9X              9X9X9X9X9X9X9X9X9X9X9X9X9X9X9X9X9X9X9X9X9X9X9X9X",
"9X9X9X9X9X9X9X9X9X9X= ; ; ; , ; + = = > + 9X9X9X9X9X9X9X9X9X9X9X9X9X9X9X9X9X9X9X9X9X9X9X9X9X9X9X9X9X9X9X9X9X9X9X9X",
"9X9X9X9X9X9X9X9X9X9X9X                    9X9X9X9X9X9X9X9X9X9X9X9X9X9X9X9X9X9X9X9X9X9X9X9X9X9X9X9X9X9X9X9X9X9X9X9X",
"9X9X9X9X9X9X9X9X9X9X9X                    9X9X9X9X9X9X9X9X9X9X9X9X9X9X9X9X9X9X9X9X9X9X9X9X9X9X9X9X9X9X9X9X9X9X9X9X",
"9X9X9X9X9X9X9X9X9X9X9X9X9X9X9X9X9X9X9X9X9X9X9X9X9X9X9X9X9X9X9X9X9X9X9X9X9X9X9X9X9X9X9X9X9X9X9X9X9X9X9X9X9X9X9X9X9X",
"9X9X9X9X9X9X9X9X9X9X9X9X9X9X9X9X9X9X9X9X9X9X9X9X9X9X9X9X9X9X9X9X9X9X9X9X9X9X9X9X9X9X9X9X9X9X9X9X9X9X9X9X9X9X9X9X9X"
};
