/* XPM */
static char *result[] = {
/* columns rows colors chars-per-pixel */
"56 58 216 2 ",
"   c #000101",
".  c #0A0504",
"X  c #020C05",
"o  c #0A0C07",
"O  c #061205",
"+  c #081A08",
"@  c #1B1B01",
"#  c #15110C",
"$  c #18190A",
"%  c #04141A",
"&  c #151210",
"*  c #1A1917",
"=  c #120D09",
"-  c #371E0E",
";  c #251410",
":  c #241C14",
">  c #381F10",
",  c #251D0F",
"<  c #062107",
"1  c #072D0D",
"2  c #08280A",
"3  c #0B3D0C",
"4  c #09360A",
"5  c #093D15",
"6  c #073C15",
"7  c #142C0E",
"8  c #3C2215",
"9  c #2D3913",
"0  c #342F27",
"q  c #44251D",
"w  c #52321A",
"e  c #65391C",
"r  c #6C3B1D",
"t  c #64371B",
"y  c #723F1E",
"u  c #4C2A20",
"i  c #472D20",
"p  c #473726",
"a  c #593C21",
"s  c #542F20",
"d  c #6F3F20",
"f  c #613620",
"g  c #743F20",
"h  c #0D420D",
"j  c #13460E",
"k  c #0C4413",
"l  c #0D4910",
"z  c #124C10",
"x  c #1C4B13",
"c  c #0E5D1B",
"v  c #0D5418",
"b  c #1E5015",
"n  c #215315",
"m  c #245B17",
"M  c #234D19",
"N  c #0F621D",
"B  c #17621E",
"V  c #27731B",
"C  c #2A781D",
"Z  c #32791F",
"A  c #335223",
"S  c #0E6D24",
"D  c #0F6322",
"F  c #0E7225",
"G  c #0E7B29",
"H  c #0C7B27",
"J  c #107526",
"K  c #117827",
"L  c #107C29",
"P  c #1A7528",
"I  c #156724",
"U  c #247B30",
"Y  c #75411F",
"T  c #67401D",
"R  c #78720B",
"E  c #425D25",
"W  c #574B2B",
"Q  c #6A4721",
"!  c #654A27",
"~  c #744322",
"^  c #7B4A27",
"/  c #6B5328",
"(  c #5B7325",
")  c #4F702E",
"_  c #487D15",
"`  c #534A5D",
"'  c #6B5B46",
"]  c #6B5B4C",
"[  c #71794B",
"{  c #786750",
"}  c #69656F",
"|  c #82561D",
" . c #847F07",
".. c #875928",
"X. c #8C5E31",
"o. c #804F2C",
"O. c #966C35",
"+. c #9A783E",
"@. c #8F6B33",
"#. c #A5783B",
"$. c #A17742",
"%. c #A37A42",
"&. c #A97E43",
"*. c #A87F48",
"=. c #A57C57",
"-. c #926D4C",
";. c #13812A",
":. c #1A8329",
">. c #0F812A",
",. c #278C28",
"<. c #299129",
"1. c #3C9B26",
"2. c #389827",
"3. c #388623",
"4. c #3DA229",
"5. c #7F8000",
"6. c #459329",
"7. c #41A529",
"8. c #45A82B",
"9. c #52A62E",
"0. c #64A218",
"q. c #2A8A41",
"w. c #7C9660",
"e. c #808001",
"r. c #9F8E1C",
"t. c #86BB15",
"y. c #AC863B",
"u. c #AE893A",
"i. c #A7843A",
"p. c #B28D3C",
"a. c #89A53C",
"s. c #BFBF33",
"d. c #969C2B",
"f. c #D2BE1E",
"g. c #D2BD22",
"h. c #C8AC2C",
"j. c #94C715",
"k. c #A1D314",
"l. c #A0C819",
"z. c #E9E507",
"x. c #F1EB03",
"c. c #F2E90F",
"v. c #F6F206",
"b. c #FFFF00",
"n. c #FBF70A",
"m. c #EFF00D",
"M. c #D8C124",
"N. c #F1D829",
"B. c #E6CD28",
"V. c #DADB07",
"C. c #90884F",
"Z. c #AA8043",
"A. c #B18A47",
"S. c #B68C51",
"D. c #889667",
"F. c #AA8867",
"G. c #BA946C",
"H. c #B99671",
"J. c #AB9170",
"K. c #88B073",
"L. c #BEA17C",
"P. c #C5974A",
"I. c #D29F4E",
"U. c #D7AA4C",
"Y. c #D8A751",
"T. c #DDAA53",
"R. c #D7A452",
"E. c #C6A64E",
"W. c #E1AE54",
"Q. c #E4B055",
"!. c #E3B74A",
"~. c #C29E72",
"^. c #C6A67C",
"/. c #D7B87D",
"(. c #ECDC47",
"). c #FEF25D",
"_. c #E8D26F",
"`. c #2B4E9B",
"'. c #425D9B",
"]. c #807F8B",
"[. c #7F8080",
"{. c #4C9298",
"}. c #00AEEF",
"|. c #0094CB",
" X c #72B9C6",
".X c #7FD2E1",
"XX c #8D8587",
"oX c #A69591",
"OX c #CDAA81",
"+X c #C5AB8E",
"@X c #D1AF82",
"#X c #D5B58C",
"$X c #DAB88E",
"%X c #D9B68D",
"&X c #DCBB91",
"*X c #D5B892",
"=X c #CBB797",
"-X c #C1BBB9",
";X c #A9C0AF",
":X c #DCC09A",
">X c #E3C49B",
",X c #E7CDA7",
"<X c #EBD1A9",
"1X c #F6DCB3",
"2X c #FDE4BB",
"3X c #FFE8BE",
"4X c #97A9CE",
"5X c #9AABD1",
"6X c #CCD6CF",
"7X c #FFEAC2",
"8X c #FFE7C1",
"9X c #FFF1DA",
"0X c #E6F2E9",
"qX c #FFFEFD",
"wX c #F0ECE6",
"eX c #5EB054",
/* pixels */
"eXeXeXeXeXeXeXeXeXeXeXeXeXeXeXeXeXeXeXeXeXeXeXeXeXeXeXeXeXeXeXeXeXeXeXeXeXeXeXeXeXeXeXeXeXeXeXeXeXeXeXeXeXeXeXeX",
"eXeXeXeXeXeXeXeXeXeXeXeXeXeXeXeXeXeXeX%.eXeXeXeXeXeXeXeXeXeXeXeXeXeXeXeXeXK eXeXeXeXeXeXeXeXeXeXeXeXeXeXeXeXeXeX",
"eXeXeXeXeXeXeXeXeXeXeXeXeXeXeXeXeXeX%.%.#.~ Y A >.J l h V 7.7.7.7.7.7.4.;.L L eXeXeXeXeXeXeXeXeXeXeXeXeXeXeXeXeX",
"eXeXeXeXeXeXeXeXeXeXeXeXeXeXeXeXeXeXp.u.u.| | ) ;.K l h V 7.7.7.7.7.7.1.:.L ;.eXeXeXeXeXeXeXeXeXeXeXeXeXeXeXeXeX",
"eXeXeXeXeXeXeXeXeXeXeXeXeXeX%.&.Y.T.B.v.v.x.v.j.1.2.z h V 7.7.7.7.7.7.4.2.4.,.G K L L eXeXeXeXeXeXeXeXeXeXeXeXeX",
"eXeXeXeXeXeXeXeXeXeXeXeXeXeX$.&.Y.W.N.b.b.b.n.j.4.2.z 3 V 8.7.7.7.7.7.7.7.7.<.G K L K eXeXeXeXeXeXeXeXeXeXeXeXeX",
"eXeXeXeXeXeXeXeXeXeXeXeXeXh.f.g.P.S.h.M.M.B.N.M.a.a.Z V V V C 4.7.7.7.7.7.7.2.<.,.L L S eXeXeXeXeXeXeXeXeXeXeXeX",
"eXeXeXeXeXeXeXeXeXeXeX%.$.g.b.v.u.#.%.%.%.Y.W.T.W.U.9.7.V 3 z 1.7.7.7.7.7.7.7.8.4.;.L c h h eXeXeXeXeXeXeXeXeXeX",
"eXeXeXeXeXeXeXeXeXeXeXu.y.g.v.c.p.&.%.%.Z.U.!.T.Y.E.9.7.V h z 1.7.7.7.7.7.7.7.1.2.;.L N l l eXeXeXeXeXeXeXeXeXeX",
"eXeXeXeXeXeXeXeXeX%.y.c.v.g.y.p.R.Y.P.%.u.c.b.g.Z.i.8.8.V 3 z 1.7.7.7.7.7.7.<.;.;.K L K J S l h eXeXeXeXeXeXeXeX",
"eXeXeXeXeXeXeXeXZ.#.u.v.b.g.$.%.Y.W.S.#.u.v.b.g.$.C.6.4.V 3 z 1.8.7.7.7.7.8.,.L L L L G K J l h h eXeXeXeXeXeXeX",
"eXeXeXeXeXeXeXeXX.X.O.x.b.M.P.P.#.#.S.G.E.n.b.g.$.i.l.k.0.V V V V V V V V V P L K L L K L J l h h eXeXeXeXeXeXeX",
"eXeXeXeXeXeXeXeXY Y | x.b.N.W.I.^ y =.%X/.n.b.f.$.u.v.b.k.4.2.z 3 h h 3 3 3 N G G L L L L J l k eXeXeXeXeXeXeXeX",
"eXeXeXeXeXeXeXeXeXY | z.x.B.I.P...^ F.#X$Xc.v.g.$.u.v.b.k.2.2.z 3 l l l l l D L L L G L G J l l z eXeXeXeXeXeXeX",
"eXeXeXeXeXeXeXeXeXeXeXu.u.O.^ X.~.^.OX#X@XA.u.i.%.u.v.b.j.G K z h c J J J J J L L G K L L K J H c 3 h eXeXeXeXeX",
"eXeXeXeXeXeXeXeXeXeXeX%.%.X.y o.OX#X#X#XOX*.%.%.$.u.m.b.t.H F h 3 N L L L K L L L L L L L K K L c h h eXeXeXeXeX",
"eXeXeXeXeXeXeXeXeXeXeXeXeXa 8 w ^.#X&X<X>X~.G.E.f.f.g.g.d.) ) I c N c N H H S c c c c S G L L L N h h eXeXeXeXeX",
"eXeXeXeXeXeXeXeXeXeXeXeXeXeX  & ^.#X<X8X2X*X%X(.b.v.y.$.%.&.$.,.H N h h J L c h h h h c L L L L c h h eXeXeXeXeX",
"eXeXeXeXeXeXeXeXeXeXeXeXeX    & H.OX*X,X,X*X*X(.b.v.u.%.#.$.+.P H c l l J J c h h 3 3 v K J L L c 3 3 eXeXeXeXeX",
"eXeXeXeXeXeXeXeXeXeXeXeXeX    . Q o.i * 0 ,X2X).b.v.u.%.X.~ Q x h c H F l l h h 4 O . 2 l l J L k     eXeXeXeXeX",
"eXeXeXeXeXeXeXeXeXeXeXeXeXeX  . e ~ -   # ,X7X).b.v.y.%.X.g e j h c H F k 4 h h 3 X   < h l J L 5     eXeXeXeXeX",
"eXeXeXeXeXeXeXeXeXeXeXeXeXp ] ] ` ` } ].XX1X3X_.f.g.P.P.O.~ ~ [ [ w.K.K.D.D.) 3 3     < h h c c 1     eXeXeXeXeX",
"eXeXeXeXeXeXeXeXeXeXeX    ' $X+X'.`.5XqXqX7X7X@X+.&.U.W.#.d ^ OX#X<X3X3X3X7XD.3 3 X   < l h h h +     eXeXeXeXeX",
"eXeXeXeXeXeXeXeXeXeXeX    ' $X+X'.`.5XqXqX7X3X^.+.#.U.!.#.e ^ @X$X,X3X2X1X2Xw.4 4     + 3 3 l z 2     eXeXeXeXeX",
"eXeXeXeXeXeXeXeXeXeXeX    ' $X+X'.`.5XqXqX7X3XH.g ..z.n. .  : ,X3X2X3X1XS.A.W   X eXeX    O S K 6     eXeXeXeXeX",
"eXeXeXeXeXeXeXeXeXeXeX    ' >X+X'.`.4XqXqX7X3XG.y | x.b. .  * ,X7X7X3X2XS.Z.a     eXeXeX  X S L 5     eXeXeXeXeX",
"eXeXeXeXeXeXeXeXeXeXeXeXeXp ] ] '.oX-X9X9X3X3XG.y | x.b.R   *  X.X;X/.^.W a ,     eXeX    X v N 1     eXeXeXeXeX",
"eXeXeXeXeXeXeXeXeXeXeXeXeXeX  # ^.$X<X3X2X2X3XG.r | x.b.e.  % }.}.{.#.@.o         eXeX    X 3 h <     eXeXeXeXeX",
"eXeXeXeXeXeXeXeXeXeXeXeXeXeX  * G.L.:X2X2X2X2XF.r | x.b.e.  % |.}.{.O.X., # @ @ @ eXeXeX    3 3 +     eXeXeXeXeX",
"eXeXeXeXeXeXeXeXeXeXeXeXeXeXeXeX$ # { $X$X$X$XF.g | x.b.e.    % % % . , A.P.g.z.z.eXeXeXeXeX  X X eXeXeXeXeXeXeX",
"eXeXeXeXeXeXeXeXeXeXeXeXeXeXeXeX    ' $X$X*X*X=.g | x.b. .            = I.W.N.b.b.eXeXeXeXeX      eXeXeXeXeXeXeX",
"eXeXeXeXeXeXeXeXeXeXeXeXeXeXeXeXeXeXp ' ' [ [ W - w M.N.R   X 6 5 1 < 7 / / r.eXeXeXeXeXeXeXeX  eXeXeXeXeXeXeXeX",
"eXeXeXeXeXeXeXeXeXeXeXeXeXeXeXeXeXeXeX    4 h +   $ P.Q./   O F ;.N h 3     eXeXeXeXeXeXeXeXeXeXeXeXeXeXeXeXeXeX",
"eXeXeXeXeXeXeXeXeXeXeXeXeXeXeXeXeXeXX X O h l 1 X $ A.P.! . = N F c l 3 X     eXeXeXeXeXeXeXeXeXeXeXeXeXeXeXeXeX",
"eXeXeXeXeXeXeXeXeXeXeXeXeXeXeXeX    k N F J J F F D $ $ q r f o X k G D X     eXeXeXeXeXeXeXeXeXeXeXeXeXeXeXeXeX",
"eXeXeXeXeXeXeXeXeXeXeXeXeXeXeXeX    6 >.G G L L L F X   > ~ e .   5 >.S X     eXeXeXeXeXeXeXeXeXeXeXeXeXeXeXeXeX",
"eXeXeXeXeXeXeXeXeXeXeXeXeXeX  @ R 5.3.H L L G c 5 5 5 6 M E A o   5 G F X     eXeXeXeXeXeXeXeXeXeXeXeXeXeXeXeXeX",
"eXeXeXeXeXeXeXeXeXeXeXeXeX    @ z.b.j.F G G L 5   X F L G L S X   5 G F X   eXeXeXeXeXeXeXeXeXeXeXeXeXeXeXeXeXeX",
"eXeXeXeXeXeXeXeXeXeXeXeXeX    @ V.m.0.P P P P k   O U q.q.q.q.X   6 P I o   . eXeXeXeXeXeXeXeXeXeXeXeXeXeXeXeXeX",
"eXeXeXeXeXeXeXeXeXeXeXeXeX    X C <.( Q Q Q Q 8   * 6X0X0X0X6X*   : i i i i ;     eXeXeXeXeXeXeXeXeXeXeXeXeXeXeX",
"eXeXeXeXeXeXeXeXeXeXeXeXeX    X S H E y y y Y >   : wXqXqXqX0X*   ; u i u u ;     eXeXeXeXeXeXeXeXeXeXeXeXeXeXeX",
"eXeXeXeXeXeXeXeXeXeXeXeXeX    O U ,.6.( ( ( ( 9   # ].oXoXoX].&   ; u i A A 7     eXeXeXeXeXeXeXeXeXeXeXeXeXeXeX",
"eXeXeXeXeXeXeXeXeXeXeXeXeX    O 2.7.7.4.7.7.8.b   . q q q q 8 .   ; u i P L 5     eXeXeXeXeXeXeXeXeXeXeXeXeXeXeX",
"eXeXeXeXeXeXeXeXeXeXeXeXeXeX  O 3.2.1.8.6.4.4.b   . q u u s q .   : p p I S 6     eXeXeXeXeXeXeXeXeXeXeXeXeXeXeX",
"eXeXeXeXeXeXeXeXeXeXeXeXeXeXeXeX+ O m 8.4.:.;.k   . e ~ g d e .   M 6.3.+ X X eXeXeXeXeXeXeXeXeXeXeXeXeXeXeXeXeX",
"eXeXeXeXeXeXeXeXeXeXeXeXeXeXeXeX    n 8.4.;.G 5   . t r y y t .   n 8.1.O     eXeXeXeXeXeXeXeXeXeXeXeXeXeXeXeXeX",
"eXeXeXeXeXeXeXeXeXeXeXeXeXeXeXeXeXeX7 n b k 5 <   # F.G.F.=.-.=   7 n b O   eXeXeXeXeXeXeXeXeXeXeXeXeXeXeXeXeXeX",
"eXeXeXeXeXeXeXeXeXeXeXeXeXeXeXeXeXeXeX            * <X7X,X#XOX&         eXeXeXeXeXeXeXeXeXeXeXeXeXeXeXeXeXeXeXeX",
"eXeXeXeXeXeXeXeXeXeXeXeXeXeXeXeXeXeX. . . . . .   * =X<X=X+XJ.#         eXeXeXeXeXeXeXeXeXeXeXeXeXeXeXeXeXeXeXeX",
"eXeXeXeXeXeXeXeXeXeXeXeXeXeXeXeX    8 e t q q q q 8 * * & # # .     eXeXeXeXeXeXeXeXeXeXeXeXeXeXeXeXeXeXeXeXeXeX",
"eXeXeXeXeXeXeXeXeXeXeXeXeXeXeXeX    8 Y g u q u u q .               eXeXeXeXeXeXeXeXeXeXeXeXeXeXeXeXeXeXeXeXeXeX",
"eXeXeXeXeXeXeXeXeXeXeXeXeXeXeXeX    8 Y ~ f a s u q .             eXeXeXeXeXeXeXeXeXeXeXeXeXeXeXeXeXeXeXeXeXeXeX",
"eXeXeXeXeXeXeXeXeXeXeXeXeXeXeXeX    > Y Y ~ ~ e u q           eXeXeXeXeXeXeXeXeXeXeXeXeXeXeXeXeXeXeXeXeXeXeXeXeX",
"eXeXeXeXeXeXeXeXeXeXeXeXeXeXeXeX    > r e e e s i > .         eXeXeXeXeXeXeXeXeXeXeXeXeXeXeXeXeXeXeXeXeXeXeXeXeX",
"eXeXeXeXeXeXeXeXeXeXeXeXeXeXeXeXeXeX. = . . . . . . eXeXeXeXeXeXeXeXeXeXeXeXeXeXeXeXeXeXeXeXeXeXeXeXeXeXeXeXeXeX",
"eXeXeXeXeXeXeXeXeXeXeXeXeXeXeXeXeXeX                eXeXeXeXeXeXeXeXeXeXeXeXeXeXeXeXeXeXeXeXeXeXeXeXeXeXeXeXeXeX",
"eXeXeXeXeXeXeXeXeXeXeXeXeXeXeXeXeXeXeX  eXeXeXeX  eXeXeXeXeXeXeXeXeXeXeXeXeXeXeXeXeXeXeXeXeXeXeXeXeXeXeXeXeXeXeX",
"eXeXeXeXeXeXeXeXeXeXeXeXeXeXeXeXeXeXeXeXeXeXeXeXeXeXeXeXeXeXeXeXeXeXeXeXeXeXeXeXeXeXeXeXeXeXeXeXeXeXeXeXeXeXeXeX"
};
