/* XPM */
static char *result[] = {
/* columns rows colors chars-per-pixel */
"56 60 222 2 ",
"   c #000101",
".  c #0A0504",
"X  c #020C04",
"o  c #080A0A",
"O  c #110D0A",
"+  c #051205",
"@  c #051F06",
"#  c #0A1708",
"$  c #15110D",
"%  c #1B1705",
"&  c #171310",
"*  c #1A1819",
"=  c #22170D",
"-  c #351E0F",
";  c #251410",
":  c #291A14",
">  c #381F10",
",  c #062107",
"<  c #08290B",
"1  c #0C3D0C",
"2  c #09380B",
"3  c #063D14",
"4  c #093E15",
"5  c #073713",
"6  c #172B11",
"7  c #3B2211",
"8  c #392217",
"9  c #3D3918",
"0  c #24201F",
"q  c #172838",
"w  c #43251D",
"e  c #43291C",
"r  c #5C351C",
"t  c #542F1D",
"y  c #6B3B1E",
"u  c #65391C",
"i  c #713E1E",
"p  c #4B2A20",
"a  c #452820",
"s  c #573A22",
"d  c #4E382B",
"f  c #653B23",
"g  c #753F20",
"h  c #0D420D",
"j  c #12490F",
"k  c #0C4414",
"l  c #0D4910",
"z  c #0B4E18",
"x  c #124C10",
"c  c #1E4B16",
"v  c #0F5E1B",
"b  c #0E5516",
"n  c #195214",
"m  c #234A18",
"M  c #215215",
"N  c #23521C",
"B  c #3C4A1F",
"V  c #0F621D",
"C  c #14661D",
"Z  c #27731B",
"A  c #347D1A",
"S  c #154521",
"D  c #265621",
"F  c #3B5A23",
"G  c #0E6E24",
"H  c #0E6221",
"J  c #0E7B29",
"K  c #0E7425",
"L  c #117526",
"P  c #117827",
"I  c #107C29",
"U  c #1A7629",
"Y  c #277433",
"T  c #404718",
"R  c #74401F",
"E  c #774E1A",
"W  c #7E7C03",
"Q  c #435C24",
"!  c #5F4D22",
"~  c #6E4B21",
"^  c #674826",
"/  c #754221",
"(  c #7D4B23",
")  c #774421",
"_  c #6D5529",
"`  c #715829",
"'  c #60543F",
"]  c #436D29",
"[  c #797732",
"{  c #2F4F6E",
"}  c #28425C",
"|  c #435146",
" . c #6B5A46",
".. c #695A48",
"X. c #6F5A50",
"o. c #7A6C58",
"O. c #727874",
"+. c #82551D",
"@. c #835329",
"#. c #835331",
"$. c #8B5D30",
"%. c #946C38",
"&. c #9A753E",
"*. c #86632C",
"=. c #A9793B",
"-. c #81735F",
";. c #977346",
":. c #A17743",
">. c #A47A41",
",. c #AA7F44",
"<. c #A47B56",
"1. c #827661",
"2. c #14812A",
"3. c #1B8429",
"4. c #268828",
"5. c #358E23",
"6. c #299129",
"7. c #3B9A26",
"8. c #389727",
"9. c #29863A",
"0. c #3DA229",
"q. c #469928",
"w. c #489B27",
"e. c #5B8E2C",
"r. c #79933B",
"t. c #708E35",
"y. c #41A529",
"u. c #46A62A",
"i. c #54AC25",
"p. c #57B025",
"a. c #679C15",
"s. c #808001",
"d. c #B9A00F",
"f. c #BBA211",
"g. c #9B843C",
"h. c #AB843C",
"j. c #AD893A",
"k. c #A98D36",
"l. c #B28D3C",
"z. c #B2942F",
"x. c #94AA3D",
"c. c #8CA53D",
"v. c #A2A62B",
"b. c #D2BE1F",
"n. c #CEB823",
"m. c #D2BD21",
"M. c #CFB329",
"N. c #91C715",
"B. c #A3D514",
"V. c #E4DD09",
"C. c #E7E508",
"Z. c #F1EB07",
"A. c #EDF803",
"S. c #F6F306",
"D. c yellow",
"F. c #FEFA0A",
"G. c #FAF508",
"H. c #F5EB17",
"J. c #FEFC13",
"K. c #EBD329",
"L. c #F1D829",
"P. c #E4C92A",
"I. c #D3CD13",
"U. c #AD854E",
"Y. c #AB8144",
"T. c #B28A4E",
"R. c #BB9569",
"E. c #AB9170",
"W. c #AC8B69",
"Q. c #BFA17D",
"!. c #BEA67A",
"~. c #8D816D",
"^. c #C6984A",
"/. c #D29F4E",
"(. c #C9A442",
"). c #D4A24E",
"_. c #D8A94A",
"`. c #DDAA53",
"'. c #D8A751",
"]. c #E4B74B",
"[. c #E1AD53",
"{. c #E8B356",
"}. c #C2A57D",
"|. c #D4B57C",
" X c #C19D6D",
".X c #2C4F9C",
"XX c #3A5494",
"oX c #4B67A7",
"OX c #636C8F",
"+X c #807F8B",
"@X c #838394",
"#X c #828183",
"$X c #A49791",
"%X c #A0AD8B",
"&X c #C8AC87",
"*X c #D6B58C",
"=X c #DAB88D",
"-X c #DBBA91",
";X c #CAB093",
":X c #E0BE92",
">X c #8AC197",
",X c #D5C39A",
"<X c #E5C79D",
"1X c #ECD292",
"2X c #EBCEA6",
"3X c #E6D6AB",
"4X c #F0D5AC",
"5X c #F5DAAF",
"6X c #F6DCB2",
"7X c #FEE5BC",
"8X c #FFE8BF",
"9X c #FFE9A9",
"0X c #D0D3D2",
"qX c #FFEBC2",
"wX c #FFE7C1",
"eX c #FFF3DD",
"rX c #FAECC9",
"tX c #E8E8E9",
"yX c #E9EDF5",
"uX c #FFFFFE",
"iX c #EDF1ED",
"pX c None",
/* pixels */
"pXpXpXpXpXpXpXpXpXpXpXpXpXpXpXpXpXpXpXpXpXpXpXpXpXpXpXpXpXpXpXpXpXpXpXpXpXpXpXpXpXpXpXpXpXpXpXpXpXpXpXpXpXpXpXpX",
"pXpXpXpXpXpXpXpXpXpXpXpXpXpXpXpXpXpXpXpXpXpXpXpXpXpXpXpXpXpXpXpXpXpXpXpXpXpXpXpXpXpXpXpXpXpXpXpXpXpXpXpXpXpXpXpX",
"pXpXpXpXpXpXpXpXpXpXpXpXpXpXpXpXpXpXpXpXpXpXpXpXpXpXpXpXpXpXpXpXpXpXpXpXpXpXpXpXpXpXpXpXpXpXpXpXpXpXpXpXpXpXpXpX",
"pXpXpXpXpXpXpXpXpXpXpXpXpX>.>.>.>.$.R ~ w.u.Z 1 l L I pXpXpXpXpXpXpXpXpXpXpXpXpXpXpXpXpXpXpXpXpXpXpXpXpXpXpXpXpX",
"pXpXpXpXpXpXpXpXpXpXpXpXpX:.>.>.Y.$.i / q.0.Z h h L I pXpXpXpXpXpXpXpXpXpXpXpXpXpXpXpXpXpXpXpXpXpXpXpXpXpXpXpXpX",
"pXpXpXpXpXpXpXpX>.Y.'.pXM.b.n.Y.>.%.$.[ q.y.Z h x 4.6.6.pXy.y.y.6.I pXpXpXpXpXpXpXpXpXpXpXpXpXpXpXpXpXpXpXpXpXpX",
"pXpXpXpXpXpXpX>.=.Y.'.`.L.D.G.j.>.>.>.g.u.u.Z 1 x 7.y.y.y.y.y.y.6.I I pXpXpXpXpXpXpXpXpXpXpXpXpXpXpXpXpXpXpXpXpX",
"pXpXpXpXpXpXpXj.k.T.).`.P.G.Z.l.j.j.l.k.w.u.Z 4 x 7.y.y.y.y.y.y.6.2.I pXpXpXpXpXpXpXpXpXpXpXpXpXpXpXpXpXpXpXpXpX",
"pXpXpXpXpX>.>.n.S.C.l.Y.h.j.z.C.S.Z.S.C.i.0.Z h x 7.y.y.y.y.y.y.0.0.8.2.I I J L h h pXpXpXpXpXpXpXpXpXpXpXpXpXpX",
"pXpXpXpXpX:.:.m.D.S.j.>.=.&.h.S.D.D.D.A.i.0.Z h x 7.y.y.y.y.y.y.y.y.0.I P I I L l h pXpXpXpXpXpXpXpXpXpXpXpXpXpX",
"pXpXpX>.h.n.b.b.b.n.^.^.^.^.^.S.D.H.L.P.x.x.e.Z Z Z Z 5.y.y.y.7.y.y.y.6.6.3.I L V V b pXpXpXpXpXpXpXpXpXpXpXpXpX",
"pXpX>.>.j.S.D.b.:.,.'.`.[.[.].G.D.K.`.[.[.[.x.y.7.x 1 Z y.y.y.y.y.y.y.y.y.6.I I I I v h h pXpXpXpXpXpXpXpXpXpXpX",
"pXpXpX>.j.V.Z.n.&.>.'.`.'.)._.Z.S.L.].].'.'.c.0.7.x 1 Z y.y.7.7.7.7.7.y.y.6.P I I I V l l pXpXpXpXpXpXpXpXpXpXpX",
"pXpXpXpXpX+.+.( ) @.).[.=.( @.h.j.m.F.C.j.,.r.0.7.x h Z y.7.n x x x n 7.y.6.J I I I L L K l h pXpXpXpXpXpXpXpXpX",
"pXpXpXpXpX/ / i g ( '.{.=.y / &.>.b.D.S.j.>.t.0.7.j h Z y.7.x h h 1 j 7.y.6.P J I I I J L h h pXpXpXpXpXpXpXpXpX",
"pXpXpXpXpXpX/ / pX/ _ _ %.<.<.R.R.(.b.M.h.=.v.B.N.A Z Z Z Z Z Z Z Z Z 4.6.3.I I J I I I I V v k pXpXpXpXpXpXpXpX",
"pXpXpXpXpXpXpXpXpXpX    ..-X*X*X*XR.>.>.>.:.b.D.A.p.0.Z 1 x 7.y.y.y.0.I I I I I I I I L J I I 3     pXpXpXpXpXpX",
"pXpXpXpXpXpXpXpXpXpX    ..-X*X-X-X XY.Y.h.h.b.G.C.u.0.Z l x 8.7.7.7.0.2.I I I I I J I I I I I 4     pXpXpXpXpXpX",
"pXpXpXpXpXpXpXpXpXpX    ..*X-X6X7X<X&X|.H.S.m.j.g.4.2.I L K x x C 2.2.J I I I J J I J I I I I 4     pXpXpXpXpXpX",
"pXpXpXpXpXpXpXpXpXpX     .=X-X7X8X2X*X|.F.D.m.:.&.2.J J J P h h V J J P P J I I I I I I I J I 4     pXpXpXpXpXpX",
"pXpXpXpXpXpXpXpXpXpX    d <.<.-.o.&X2X1XJ.D.b.:.>.r.r.A v V V v v v V P I G v v v v G I I I I z @ @     pXpXpXpX",
"pXpXpXpXpXpXpXpXpXpX    > g y .   o.qX9XJ.D.b.:.U.`.{.[ 1 h K J v 1 l K I v 1 h h 1 v I I P I V h 1 X     pXpXpX",
"pXpXpXpXpXpXpXpXpXpX& $ e ) ^ 0 * 1.rX9XH.G.m.Y.Y./.).[ n N 9.9.Y N D L L v h h 1 1 v P L I I v 1 1       pXpXpX",
"pXpXpXpXpXpXpXpX  & E.}.OXXXoX0XtXrXwX6XT.j.^.'./.@.( <.&X!.3X3X3X3X,XD h j h 1 X   < h l P I V h 1 X     pXpXpX",
"pXpXpXpXpXpXpX    & Q.=X@X.XoXyXuXeX7X6XU.:.^.[./.( i <.*X-X6XwX7X8X3XN j h h 1 X   , h l L I v h 1 X     pXpXpX",
"pXpXpXpXpXpXpX    & Q.=X@X.XoXyXuXeX7X4X;.$.z.L.P.@.i W.2X2X7XwX<X*X!.6 , , , @   pX+ , < L I V 1 1       pXpXpX",
"pXpXpXpXpXpXpX    $ Q.=X@X.XoXyXuXeX7X4X#.i d.D.Z.+.i R.qXwX7XwX|.&.%.O         pXpXpX  X G I v h 1       pXpXpX",
"pXpXpXpXpXpXpXpX  & E.}.#XXXoXiXuXeX7X2X#.i d.D.Z.+.E R.6X5X5X6X}.%.*.O         pXpX    X G L v 1 2 .   pXpXpXpX",
"pXpXpXpXpXpXpXpXpXpX& $ X.;X;X6XwXwXwX4X#.i d.D.G._./.^.U.U.U.T.! o O       pXpXpXpX    X 1 l < X   pXpXpXpXpXpX",
"pXpXpXpXpXpXpXpXpXpX     .-X-X7X7X7X8X4X@.i d.G.G._.[.l.>.Y.>.Y.s         pXpXpXpXpX    X 1 h ,     pXpXpXpXpXpX",
"pXpXpXpXpXpXpXpXpXpXpXpXd ..o.-X2X2X2X<X<.<.z.d.n.P.L.z.s s ! d ^ ` ` W s.s.pXpXpXpXpX    , , + pXpXpXpXpXpXpXpX",
"pXpXpXpXpXpXpXpXpXpXpXpXpX  O Q.*X*X*X*X*X*X<.y +.Z.G.a.        ` {.].F.D.D.pXpXpXpXpXpXpX    pXpXpXpXpXpXpXpXpX",
"pXpXpXpXpXpXpXpXpXpXpXpXpX  & E.&XQ.!.Q.!.&X;.u E C.F.W         _ ^.(.V.C.C.pXpXpXpXpXpXpX    pXpXpXpXpXpXpXpXpX",
"pXpXpXpXpXpXpXpXpXpXpXpXpXpXpX& & 6 N N M c 6 . = (.].`   X 2 1 < $ % % % % pXpXpXpXpXpXpXpXpXpXpXpXpXpXpXpXpXpX",
"pXpXpXpXpXpXpXpXpXpXpXpXpXpXpX    , h h h h ,   $ ^.{.`     1 h @           pXpXpXpXpXpXpXpXpXpXpXpXpXpXpXpXpXpX",
"pXpXpXpXpXpXpXpXpXpXpXpXpX        < V b < @ 9 _ ` ` ` B 3 4 v v 9 7 >       pXpXpXpXpXpXpXpXpXpXpXpXpXpXpXpXpXpX",
"pXpXpXpXpXpXpXpXpXpXpXpX          k 2.G +   ` {./.O   k I I I J F ~ y .   pXpXpXpXpXpXpXpXpXpXpXpXpXpXpXpXpXpXpX",
"pXpXpXpXpXpXpXpXpXpXpXpX+ + + % % n J K X   ^ ).Y.= . k I I U U F y r o o o pXpXpXpXpXpXpXpXpXpXpXpXpXpXpXpXpXpX",
"pXpXpXpXpXpXpXpXpXpX    n 7.w.V.C.a.J G X   o & = r y F I U ! ~ 7 . $ } { q     pXpXpXpXpXpXpXpXpXpXpXpXpXpXpXpX",
"pXpXpXpXpXpXpXpXpXpX    M 0.i.A.D.N.J G X       . y R Q 2.P ^ R >   o { { q     pXpXpXpXpXpXpXpXpXpXpXpXpXpXpXpX",
"pXpXpXpXpXpXpXpXpXpX    M y.u.B.B.e.2 z O.#X| k 4 8 7 9 Q Q / / 9 @ < q q d ..' $   pXpXpXpXpXpXpXpXpXpXpXpXpXpX",
"pXpXpXpXpXpXpXpXpXpX    M y.0.0.0.c   * tXuX>XI G X   7 ) i / / 9 h 1      .-X&X&     pXpXpXpXpXpXpXpXpXpXpXpXpX",
"pXpXpXpXpXpXpXpXpXpX    c 0.7.8.8.m   : 0XyX>X9.Y +   7 ~ ~ ~ ~ T x j X   ..&XW.$     pXpXpXpXpXpXpXpXpXpXpXpXpX",
"pXpXpXpXpXpXpXpXpXpX    k 2.U @ X : a a f d $XiX0X* . m w.q.w.q.q.7.5.j 5 < & $       pXpXpXpXpXpXpXpXpXpXpXpXpX",
"pXpXpXpXpXpXpXpXpXpX    k 2.G X   ; p p w w $XuXtX*   n y.y.y.y.0.y.7.x h ,           pXpXpXpXpXpXpXpXpXpXpXpXpX",
"pXpXpXpXpXpXpXpXpXpX    @ 3 5 X   - f r f s X.#XO.S 3 Z y.y.y.y.8.6.4.2 , +         pXpXpXpXpXpXpXpXpXpXpXpXpXpX",
"pXpXpXpXpXpXpXpXpXpX              > g i i i -   X G 2.6.y.y.y.y.6.I G X         pXpXpXpXpXpXpXpXpXpXpXpXpXpXpXpX",
"pXpXpXpXpXpXpXpXpXpX. . . . o     w #.#.#.$.e   X L 2.6.y.0.0.0.4.G H + . .     pXpXpXpXpXpXpXpXpXpXpXpXpXpXpXpX",
"pXpXpXpXpX        . 8 w w w > o   o.6X4X4X6Xo.  + 5.7.y.y.7.3.2.k X O r y >     pXpXpXpXpXpXpXpXpXpXpXpXpXpXpXpX",
"pXpXpXpXpX        . a a p p a .   o.qXwXqXqX1.  + 8.u.y.u.0.2.I 3   . f R 7     pXpXpXpXpXpXpXpXpXpXpXpXpXpXpXpX",
"pXpXpXpXpX    & 7 7 r u t p w .   d O.-.o.1.d   X c M M n M k 3 6 ; : f / 7     pXpXpXpXpXpXpXpXpXpXpXpXpXpXpXpX",
"pXpXpXpXpX    > / / / R s p w .                                 ; p t i / 7     pXpXpXpXpXpXpXpXpXpXpXpXpXpXpXpX",
"pXpXpXpXpX    > f y u u t w 8 .                               . : p p u y 7     pXpXpXpXpXpXpXpXpXpXpXpXpXpXpXpX",
"pXpXpXpXpXpXpX. . . . O . . .       pXpXpXpXpXpXpXpXpX    o > a w p w . . . pXpXpXpXpXpXpXpXpXpXpXpXpXpXpXpXpXpX",
"pXpXpXpXpXpXpX                      pXpXpXpXpXpXpXpXpXpX  o a p p p w .     pXpXpXpXpXpXpXpXpXpXpXpXpXpXpXpXpXpX",
"pXpXpXpXpXpXpXpX                  pXpXpXpXpXpXpXpXpXpX    . ; ; : ; ; .   pXpXpXpXpXpXpXpXpXpXpXpXpXpXpXpXpXpXpX",
"pXpXpXpXpXpXpXpXpXpXpXpXpXpXpXpXpXpXpXpXpXpXpXpXpXpXpX                pXpXpXpXpXpXpXpXpXpXpXpXpXpXpXpXpXpXpXpXpX",
"pXpXpXpXpXpXpXpXpXpXpXpXpXpXpXpXpXpXpXpXpXpXpXpXpXpXpXpX              pXpXpXpXpXpXpXpXpXpXpXpXpXpXpXpXpXpXpXpXpX",
"pXpXpXpXpXpXpXpXpXpXpXpXpXpXpXpXpXpXpXpXpXpXpXpXpXpXpXpXpXpXpXpXpXpXpXpXpXpXpXpXpXpXpXpXpXpXpXpXpXpXpXpXpXpXpXpX",
"pXpXpXpXpXpXpXpXpXpXpXpXpXpXpXpXpXpXpXpXpXpXpXpXpXpXpXpXpXpXpXpXpXpXpXpXpXpXpXpXpXpXpXpXpXpXpXpXpXpXpXpXpXpXpXpX"
};
