/* XPM */
static char *result[] = {
/* columns rows colors chars-per-pixel */
"56 60 219 2 ",
"   c #000101",
".  c #0A0504",
"X  c #020C04",
"o  c #0B0908",
"O  c #140C08",
"+  c #051305",
"@  c #081806",
"#  c #15110E",
"$  c #191806",
"%  c #191714",
"&  c #191613",
"*  c #051218",
"=  c #22120F",
"-  c #251D0F",
";  c #361E0E",
":  c #251511",
">  c #261D13",
",  c #371E12",
"<  c #072107",
"1  c #092709",
"2  c #0B3D0B",
"3  c #09350B",
"4  c #063C14",
"5  c #093C15",
"6  c #152910",
"7  c #3A2111",
"8  c #382417",
"9  c #2C2515",
"0  c #182C3A",
"q  c #2C3033",
"w  c #101B27",
"e  c #43251D",
"r  c #48281B",
"t  c #5A331E",
"y  c #65391C",
"u  c #6B3B1D",
"i  c #723E1E",
"p  c #4C2A20",
"a  c #493A2C",
"s  c #593922",
"d  c #5D3F37",
"f  c #683B20",
"g  c #733E20",
"h  c #783E20",
"j  c #0D420D",
"k  c #124B0F",
"l  c #15400D",
"z  c #0B4413",
"x  c #0D4810",
"c  c #134C10",
"v  c #13431A",
"b  c #0E5D1B",
"n  c #0E5516",
"m  c #195513",
"M  c #224715",
"N  c #205115",
"B  c #14661C",
"V  c #0F621D",
"C  c #27731B",
"Z  c #2B701A",
"A  c #0E6E24",
"S  c #0F6322",
"D  c #0F7225",
"F  c #0E7B29",
"G  c #0B7B26",
"H  c #107526",
"J  c #1B7529",
"K  c #107C29",
"L  c #117728",
"P  c #186F2C",
"I  c #316E23",
"U  c #5E441F",
"Y  c #74411F",
"T  c #6E481D",
"R  c #415D24",
"E  c #534935",
"W  c #684824",
"Q  c #744322",
"!  c #7B4A27",
"~  c #695328",
"^  c #7F502F",
"/  c #5A7525",
"(  c #536F2C",
")  c #607415",
"_  c #2E526C",
"`  c #534A5D",
"'  c #6B5B46",
"]  c #6B594B",
"[  c #745A48",
"{  c #497447",
"}  c #717A4B",
"|  c #756A57",
" . c #6B7146",
".. c #706D72",
"X. c #82551C",
"o. c #875B28",
"O. c #885931",
"+. c #804F2C",
"@. c #956B36",
"#. c #9E743D",
"$. c #8C6730",
"%. c #A8793B",
"&. c #947B1D",
"*. c #A17643",
"=. c #A47A42",
"-. c #A97E44",
";. c #A87F48",
":. c #837561",
">. c #987D40",
",. c #14812A",
"<. c #1C8328",
"1. c #278D28",
"2. c #299029",
"3. c #3B9A26",
"4. c #399626",
"5. c #348C22",
"6. c #3DA129",
"7. c #3FA829",
"8. c #7AAF15",
"9. c #479C29",
"0. c #41A529",
"q. c #47A627",
"w. c #56AB26",
"e. c #56B025",
"r. c #7DA625",
"t. c #308D46",
"y. c #7B916A",
"u. c #808001",
"i. c #B89D12",
"p. c #BDA411",
"a. c #9B813E",
"s. c #AE893A",
"d. c #AC863B",
"f. c #B48E3C",
"g. c #96B235",
"h. c #D2BD1E",
"j. c #D2BD22",
"k. c #C6B225",
"l. c #90C315",
"z. c #A2D414",
"x. c #E2DB08",
"c. c #E8DE10",
"v. c #E8E506",
"b. c #F1EC03",
"n. c #ECF704",
"m. c #F6F206",
"M. c yellow",
"N. c #FCF708",
"B. c #F8ED11",
"V. c #D5C021",
"C. c #E1C927",
"Z. c #ECD429",
"A. c #E9D026",
"S. c #F2D92A",
"D. c #D2E106",
"F. c #AA8248",
"G. c #B28945",
"H. c #BB9152",
"J. c #879566",
"K. c #B8936D",
"L. c #BA9671",
"P. c #AB9170",
"I. c #BEA17D",
"U. c #808B5E",
"Y. c #C69949",
"T. c #DAAC4A",
"R. c #DAA852",
"E. c #CFAF4C",
"W. c #E3B649",
"Q. c #E1AD54",
"!. c #E5B056",
"~. c #C29E71",
"^. c #C8A77B",
"/. c #CEB073",
"(. c #ECDC47",
"). c #FEF25D",
"_. c #E8D26F",
"`. c #2B4E9B",
"'. c #425D9B",
"]. c #807F8B",
"[. c #7F8080",
"{. c #4C9298",
"}. c #07B4F2",
"|. c #19A7D3",
" X c #7ED1E1",
".X c #8B8588",
"XX c #AA988C",
"oX c #A3A38E",
"OX c #CDAA81",
"+X c #C5AB8E",
"@X c #D1AF83",
"#X c #D5B48B",
"$X c #D9B68D",
"%X c #DAB88E",
"&X c #DBBA91",
"*X c #D7BC97",
"=X c #CCB897",
"-X c #C1BBB9",
";X c #A9C0AF",
":X c #E3C49B",
">X c #ECCFA6",
",X c #E3CCA7",
"<X c #E9D2AC",
"1X c #F6DCB2",
"2X c #F4D5AB",
"3X c #FDE4BB",
"4X c #FFE8BE",
"5X c #DCC09A",
"6X c #97A9CE",
"7X c #9AABD1",
"8X c #84C6CC",
"9X c #D6DDD5",
"0X c #FFE9C2",
"qX c #FFE7C1",
"wX c #FFF2C7",
"eX c #FFF1DA",
"rX c #FFFEFD",
"tX c #F0F2EA",
"yX c None",
/* pixels */
"yXyXyXyXyXyXyXyXyXyXyXyXyXyXyXyXyXyXyXyXyXyXyXyXyXyXyXyXyXyXyXyXyXyXyXyXyXyXyXyXyXyXyXyXyXyXyXyXyXyXyXyXyXyXyXyX",
"yXyXyXyXyXyXyXyXyXyXyXyXyXyXyXyXyXyXyXyXyXyXyXyXyXyXyXyXyXyXyXyXyXyXyXyXyXyXyXyXyXyXyXyXyXyXyXyXyXyXyXyXyXyXyXyX",
"yXyXyXyXyXyXyXyXyXyXyXyXyXyXyXyXyXyXyXyXyXyXyXyXyXyXyXyXyXyXyXyXyXyXyXyXyXyXyXyXyXyXyXyXyXyXyXyXyXyXyXyXyXyXyXyX",
"yXyXyXyXyXyXyXyXyXyXyXyXyXyXyXyXyXyXyXyXyXyXyXyXyXyXyXyXyXyXyXyXyXyXyXyXyXyXyXyXyXyXyXyXyXyXyXyXyXyXyXyXyXyXyXyX",
"yXyXyXyXyXyXyXyXyXyXyXyXyXyXyXyXyXyXyXyXyXyXyXyXyXyXyXyXyXyXyXyXyXyXyXyXyXyXyXyXyXyXyXyXyXyXyXyXyXyXyXyXyXyXyXyX",
"yXyXyXyXyXyXyXyXyXyXyXyXyX=.%.Q Q R K H x j C 0.0.0.0.2.K yXyXyXyXyXyXyXyXyXyXyXyXyXyXyXyXyXyXyXyXyXyXyXyXyXyXyX",
"yXyXyXyXyXyXyXyXyXyXyXyX=.=.#.Q g R G H x j C 0.0.0.0.2.K K yXyXyXyXyXyXyXyXyXyXyXyXyXyXyXyXyXyXyXyXyXyXyXyXyXyX",
"yXyXyXyXyXyXyXyXyXyXyXyXf.s.d.o.X.( K L x j C 0.0.0.q.2.K ,.yXyXyXyXyXyXyXyXyXyXyXyXyXyXyXyXyXyXyXyXyXyXyXyXyXyX",
"yXyXyXyXyXyXyXyX=.;.R.R.A.m.m.b.b.l.6.4.k j C q.0.0.9.6.3.6.6.0.2.F F yXyXyXyXyXyXyXyXyXyXyXyXyXyXyXyXyXyXyXyXyX",
"yXyXyXyXyXyXyXyX=.;.R.R.S.M.M.M.M.z.6.4.k j C 0.0.0.0.0.7.0.0.0.2.F F yXyXyXyXyXyXyXyXyXyXyXyXyXyXyXyXyXyXyXyXyX",
"yXyXyXyXyXyXyXk.h.j.Z.S.C.h.h.A.S.g.7.4.c j C 0.0.6.0.0.0.0.0.0.3.2.2.,.yXb j yXyXyXyXyXyXyXyXyXyXyXyXyXyXyXyXyX",
"yXyXyXyXyX=.*.h.M.M.M.M.h.*.-.R.R.g.7.4.k j C 0.0.0.0.0.0.0.0.0.0.0.3.K F b j z yXyXyXyXyXyXyXyXyXyXyXyXyXyXyXyX",
"yXyXyXyXyXs.d.j.m.m.N.N.j.-.G.T.W.g.e.w.m k Z 3.3.0.0.0.0.0.0.0.0.6.3.<.K V x x yXyXyXyXyXyXyXyXyXyXyXyXyXyXyXyX",
"yXyXyX=.f.v.m.j.d.f.T.W.T.R.T.B.N.m.n.D.q.4.C k m 3.0.0.0.0.6.9.0.0.0.6.6.1.D A x j yXyXyXyXyXyXyXyXyXyXyXyXyXyX",
"yXyX=.=.f.m.M.h.*.-.R.Q.Q.R.W.N.M.M.M.n.w.7.C j k 3.0.0.0.0.0.0.0.0.0.0.q.2.K H x j yXyXyXyXyXyXyXyXyXyXyXyXyXyX",
"yXyXO.$.@.b.M.C.Y.H.%.%.f.Y.Y.m.M.v.V.k.w.7.C j c 3.0.5.C C C C 5.0.0.0.0.2.K L V V n yXyXyXyXyXyXyXyXyXyXyXyXyX",
"yXyXi g X.b.M.S.R.R.! u $.=.s.N.M.j.=.>.q.0.I 2 c 3.0.C 2 j 2 2 C q.0.0.0.2.F K F K b z j yXyXyXyXyXyXyXyXyXyXyX",
"yXyXyXQ X.x.b.C.R.Y.O.! @.F.G.v.m.k.=.a.w.e.5.x m 4.4.C c c c c C 0.3.6.6.1.L K K K b 2 j yXyXyXyXyXyXyXyXyXyXyX",
"yXyXyXyXyXX.o.$.-.F.^.OXOXOXOXG.s.F.=.d.v.n.l.3.5.m c C 3.3.4.3.2.K K K ,.K K K K K V j j yXyXyXyXyXyXyXyXyXyXyX",
"yXyXyXyXyXi g $.-.F.#X#X#X#X/.F.%.=.=.d.m.M.z.7.3.c 2 C 0.0.0.q.2.K K K F F K K K K b 2 j yXyXyXyXyXyXyXyXyXyXyX",
"yXyXyXyXyXyXyXs s ~ OX#X:X>X:XL.K.E.j.j.j.j.r.2.1.B V B C C 2.2.<.K K K F F K K K K A b b j j yXyXyXyXyXyXyXyXyX",
"yXyXyXyXyXyXyXyX  # L.#X>X4X3X&X=XZ.M.m.s.*.( G K K K b j x F F K K H F F F K F K K K K H x j j yXyXyXyXyXyXyXyX",
"yXyXyXyXyXyXyX    & P.OX&X,X,X*X*X(.M.m.f.=. .L J H L b j x A H L F K F F J K K K K L K H x j j yXyXyXyXyXyXyXyX",
"yXyXyXyXyXyXyX    O W ^ p & q ,X1X).M.m.d.=.o.W U c x j j j x x S K K K K F K K K K K K H x j j yXyXyXyXyXyXyXyX",
"yXyXyXyXyXyXyXyX  . u i ;   & ,X0X).M.m.s.*.O.i u l 2 2 2 j j 2 S ,.G F F F K F K K K K H x j yXyXyXyXyXyXyXyXyX",
"yXyXyXyXyXyXyXa ' ' ` ` ..:..X1X4X_.h.k.Y.Y.@.i Q } } y.U.J.J.U.( b S z 4 4 4 z b b A K H x j 1 yXyXyXyXyXyXyXyX",
"yXyXyXyXyX    ' &X+X'.`.7XrXrX0X4X@X%.F.R.Q.%.i ^ ^.%X>X4X4X4XwXJ.j 3 X         3 j b K H x j <     yXyXyXyXyXyX",
"yXyXyXyXyX    ' &X+X'.`.7XrXrX0X0X/.#.%.T.W.%.u ^ OX&X>X4X3X1X1XU.3 3         X 3 3 b H D x j 1     yXyXyXyXyXyX",
"yXyXyXyXyX    ' &X+X'.`.6XrXrX0X0XL.Q o.v.N.i.g ^ <X3XqX4X1XH.H.U X X yXyXyXyXyXX   1 c x j j @     yXyXyXyXyXyX",
"yXyXyXyXyX    ' &X+X'.`.6XrXrX0X0XK.i X.b.M.i.g +.2X4XwX4X1XG.=.s     yXyXyXyXyX    < j j 2 j 1     yXyXyXyXyXyX",
"yXyXyXyXyXyXyXa [ ' '..X-XeXeX4X4XK.u X.b.M.h.%.F.8X X;X/.^.E U >     yXyXyXyXyXyXyX@ < 1 2 j <     yXyXyXyXyXyX",
"yXyXyXyXyXyXyXyX. > /.%X>XqX3X4X4XK.i X.b.M.S.Q./.}.}.{.%.@.o         yXyXyXyXyXyXyXyX  X 2 j <     yXyXyXyXyXyX",
"yXyXyXyXyXyXyXyX  & P.L.5X3X3X3X3XL.! o.x.b.A.W.E.|.}.{.@.$.- # $ $ $ yXyXyXyXyXyXyXyX    3 2 @     yXyXyXyXyXyX",
"yXyXyXyXyXyXyXyXyXyX& # | &X%X%X&X@XOX~.o.X.k.N.x.6 * X O - G.Y.j.v.v.yXyXyXyXyXyXyXyXyXyXX   X yXyXyXyXyXyXyXyX",
"yXyXyXyXyXyXyXyXyXyX    ' &X%X$X/.#X$X^.+.g i.M.v.$       # E.!.S.M.M.yXyXyXyXyXyXyXyXyXyX      yXyXyXyXyXyXyXyX",
"yXyXyXyXyXyXyXyXyXyXyXyXa ' ' } y.} }  .e ; &.S.j.$   X < 6 W ~ ) X.8.yXyXyXyXyXyXyXyXyXyXyX  yXyXyXyXyXyXyXyXyX",
"yXyXyXyXyXyXyXyXyXyXyXyXyX    3 j j j 3 X   ~ !.Y.$   < j 2     . .   yXyXyXyXyXyXyXyXyXyXyXyXyXyXyXyXyXyXyXyXyX",
"yXyXyXyXyXyXyXyXyXyXyXyXX X + j k j j 2 X   ~ Y.G.& X 1 x z           yXyXyXyXyXyXyXyXyXyXyXyXyXyXyXyXyXyXyXyXyX",
"yXyXyXyXyXyXyXyXyXyX    4 D D H H b j j 2 2 1 $ $ S D D H A X     yXyXyXyXyXyXyXyXyXyXyXyXyXyXyXyXyXyXyXyXyXyXyX",
"yXyXyXyXyXyXyXyXyXyX    4 ,.F F K b 2 2 j j <   + A F F K A X   yXyXyXyXyXyXyXyXyXyXyXyXyXyXyXyXyXyXyXyXyXyXyXyX",
"yXyXyXyXyXyXyXyX  X 4 5 b K L z 4 { .X[.K S q 7 8 P K F F P 0 0 w yXyXyXyXyXyXyXyXyXyXyXyXyXyXyXyXyXyXyXyXyXyXyX",
"yXyXyXyXyXyXyX    X A F F F A X   .XrXtX2.,.R h W J F F F F _ _ 0     yXyXyXyXyXyXyXyXyXyXyXyXyXyXyXyXyXyXyXyXyX",
"yXyXyXyXyXyXyX    X C 1.<.F A X   ..tX9Xt.t.( g W J F J J P _ _ q % % yXyXyXyXyXyXyXyXyXyXyXyXyXyXyXyXyXyXyXyXyX",
"yXyXyXyXyXyXyX    $ D.n.8.F A X   8 d ] 9XtXoXf W J J I W U # . | <X=X%   yXyXyXyXyXyXyXyXyXyXyXyXyXyXyXyXyXyXyX",
"yXyXyXyXyXyXyXyX  $ v.M.l.G G X   = r d tXrX+Xi T J L R i u .   :.0X<X%     yXyXyXyXyXyXyXyXyXyXyXyXyXyXyXyXyXyX",
"yXyXyXyXyXyXyX    + 8.l./ 4 5 9 ; e p s .XXX] ; 8 I R ( / ( 5 5 { :.| %   yXyXyXyXyXyXyXyXyXyXyXyXyXyXyXyXyXyXyX",
"yXyXyXyXyX        X A F 4   . u h f p p r p =   . u i / 7.6.,.,.5     yXyXyXyXyXyXyXyXyXyXyXyXyXyXyXyXyXyXyXyXyX",
"yXyXyXyXyX    . . + S A v % > f h t p p e e - X $ U T / 0.6.,.,.5     yXyXyXyXyXyXyXyXyXyXyXyXyXyXyXyXyXyXyXyXyX",
"yXyXyXyXyX    : p , * X | <X*X+.Q Q Y y O   M 3.4.9.9.0.0.6.K K 5         yXyXyXyXyXyXyXyXyXyXyXyXyXyXyXyXyXyXyX",
"yXyXyXyXyX    : p p     :.wX1X+.f g Q u .   m q.0.0.0.0.0.6.,.,.5           yXyXyXyXyXyXyXyXyXyXyXyXyXyXyXyXyXyX",
"yXyXyXyXyXyXyXO : : : = E | :.L.L.[ ; 7 1 @ Z 0.0.0.q.I N m 5 5 6 , , .     yXyXyXyXyXyXyXyXyXyXyXyXyXyXyXyXyXyX",
"yXyXyXyXyXyXyXyX  . 8 p :   % <XwX:.    2 2 C 0.0.0.q.N         8 ! u .     yXyXyXyXyXyXyXyXyXyXyXyXyXyXyXyXyXyX",
"yXyXyXyXyXyXyXyX  . 8 p :   & =X<X|   X 3 3 Z 5.4.5.4.M . . . . e Q u .     yXyXyXyXyXyXyXyXyXyXyXyXyXyXyXyXyXyX",
"yXyXyXyXyXyXyXyXyXyX. .       % % o       X o + + * + > 8 p 8 , t Y y o     yXyXyXyXyXyXyXyXyXyXyXyXyXyXyXyXyXyX",
"yXyXyXyXyXyXyXyXyXyX                                . : p p p p y Y u .     yXyXyXyXyXyXyXyXyXyXyXyXyXyXyXyXyXyX",
"yXyXyXyXyXyXyXyXyXyXyX                    yX    . = = 8 p p s f r ; , .   yXyXyXyXyXyXyXyXyXyXyXyXyXyXyXyXyXyXyX",
"yXyXyXyXyXyXyXyXyXyXyXyXyXyXyXyXyXyXyXyXyXyXyX  . p p p p p g Q 7     yXyXyXyXyXyXyXyXyXyXyXyXyXyXyXyXyXyXyXyXyX",
"yXyXyXyXyXyXyXyXyXyXyXyXyXyXyXyXyXyXyXyXyXyXyX  . 8 p 8 8 p f y ;     yXyXyXyXyXyXyXyXyXyXyXyXyXyXyXyXyXyXyXyXyX",
"yXyXyXyXyXyXyXyXyXyXyXyXyXyXyXyXyXyXyXyXyXyXyXyXyX. . . . . . o o yXyXyXyXyXyXyXyXyXyXyXyXyXyXyXyXyXyXyXyXyXyXyX",
"yXyXyXyXyXyXyXyXyXyXyXyXyXyXyXyXyXyXyXyXyXyXyXyXyX              yXyXyXyXyXyXyXyXyXyXyXyXyXyXyXyXyXyXyXyXyXyXyXyX"
};
