/* XPM */
static char *result[] = {
/* columns rows colors chars-per-pixel */
"55 61 227 2 ",
"   c #000001",
".  c #0A0604",
"X  c #020B04",
"o  c #0D0B09",
"O  c #160C07",
"+  c #130E0B",
"@  c #1A0D09",
"#  c #051205",
"$  c #091907",
"%  c #1C120C",
"&  c #18180A",
"*  c #181512",
"=  c #21120D",
"-  c #2D1C0E",
";  c #291812",
":  c #371D0D",
">  c #072107",
",  c #0A2809",
"<  c #0B3D0C",
"1  c #0A350D",
"2  c #053913",
"3  c #0D3311",
"4  c #392010",
"5  c #3B291A",
"6  c #2C220F",
"7  c #342D25",
"8  c #393632",
"9  c #172C2E",
"0  c #43251D",
"q  c #482819",
"w  c #512D19",
"e  c #5A321B",
"r  c #4A3A17",
"t  c #663A1D",
"y  c #6D3C1E",
"u  c #63361C",
"i  c #713E1E",
"p  c #4C2A20",
"a  c #5B3720",
"s  c #4F382E",
"d  c #6E3D20",
"f  c #663A20",
"g  c #763F20",
"h  c #0D420D",
"j  c #11470F",
"k  c #0D4911",
"l  c #0B4519",
"z  c #134D10",
"x  c #184414",
"c  c #0E5D1B",
"v  c #0C5418",
"b  c #175614",
"n  c #275016",
"m  c #0F641D",
"M  c #19681B",
"N  c #27731B",
"B  c #2C7C1E",
"V  c #2E751C",
"C  c #2A741A",
"Z  c #324A38",
"A  c #0E6C23",
"S  c #0E6622",
"D  c #0E7B29",
"F  c #0D7627",
"G  c #107526",
"H  c #117C29",
"J  c #187427",
"K  c #116F25",
"L  c #227924",
"P  c #357033",
"I  c #5A491D",
"U  c #75431E",
"Y  c #7A5B1E",
"T  c #515823",
"R  c #4E522D",
"E  c #694821",
"W  c #744220",
"Q  c #7D4B28",
"!  c #695624",
"~  c #7D5131",
"^  c #6D522E",
"/  c #506F34",
"(  c #00344A",
")  c #1B4843",
"_  c #5C4847",
"`  c #4C4B4D",
"'  c #695A47",
"]  c #735B47",
"[  c #5C7948",
"{  c #6E6556",
"}  c #7E7E7E",
"|  c #697466",
" . c #82561D",
".. c #835429",
"X. c #865733",
"o. c #905C2E",
"O. c #936C37",
"+. c #906C31",
"@. c #A6793C",
"#. c #997416",
"$. c #94754F",
"%. c #A47A41",
"&. c #A97E43",
"*. c #A27844",
"=. c #867761",
"-. c #8E7B70",
";. c #188229",
":. c #278926",
">. c #358A23",
",. c #388E24",
"<. c #2B9229",
"1. c #379224",
"2. c #399325",
"3. c #3B9A26",
"4. c #3C9E29",
"5. c #319629",
"6. c #29893F",
"7. c #3DA129",
"8. c #2F811F",
"9. c #64A51B",
"0. c #469A25",
"q. c #538E37",
"w. c #41A429",
"e. c #45A929",
"r. c #54A827",
"t. c #7BA137",
"y. c #298940",
"u. c #5B9353",
"i. c #AE9219",
"p. c #88BD15",
"a. c #B9BA00",
"s. c #B9A00F",
"d. c #9A803E",
"f. c #AE893A",
"g. c #AA853C",
"h. c #B3893A",
"j. c #B79738",
"k. c #A89C32",
"l. c #B6A132",
"z. c #84A73B",
"x. c #C8AF17",
"c. c #C5AA2A",
"v. c #CDB525",
"b. c #D2BD20",
"n. c #D4BA29",
"m. c #CEAE33",
"M. c #96C915",
"N. c #A1D314",
"B. c #BBC12F",
"V. c #DBC91B",
"C. c #D6CE19",
"Z. c #E6DA13",
"A. c #DBEA09",
"S. c #EBE605",
"D. c #F1EB07",
"F. c #E8F404",
"G. c #F6F207",
"H. c #FFFF00",
"J. c #FAF409",
"K. c #FAEE15",
"L. c #E6E910",
"P. c #EED528",
"I. c #ECD327",
"U. c #DDC724",
"Y. c #AB8143",
"T. c #AE864E",
"R. c #B98A44",
"E. c #B9914F",
"W. c #9C8666",
"Q. c #869365",
"!. c #A2976B",
"~. c #BA946E",
"^. c #BC9664",
"/. c #BD9D78",
"(. c #A08768",
"). c #BEA07C",
"_. c #A99D47",
"`. c #C7994A",
"'. c #D3A34E",
"]. c #DBAB4F",
"[. c #DCAA52",
"{. c #D8A651",
"}. c #D2AD49",
"|. c #E1AE53",
" X c #E4B153",
".X c #E4B848",
"XX c #C39F71",
"oX c #C9A77C",
"OX c #D1B07F",
"+X c #C6AE64",
"@X c #F9EB53",
"#X c #F0DE65",
"$X c #2B4E9A",
"%X c #435D9A",
"&X c #737889",
"*X c #5D6C96",
"=X c #529AA0",
"-X c #00BBFF",
";X c #19B8EB",
":X c #818182",
">X c #BFBBBA",
",X c #CDAA82",
"<X c #C3AA8C",
"1X c #D6B48C",
"2X c #DAB98E",
"3X c #D8B68D",
"4X c #DCBB92",
"5X c #ADCDB6",
"6X c #DFC096",
"7X c #E3C59B",
"8X c #D3CAAB",
"9X c #E7CCA4",
"0X c #F6DBB3",
"qX c #EFD5AE",
"wX c #FEE5BC",
"eX c #FFE8BF",
"rX c #FAE0B7",
"tX c #98A9CE",
"yX c #B0B3C2",
"uX c #B5DBD2",
"iX c #FFE9C2",
"pX c #FFE7C1",
"aX c #FFF2C8",
"sX c #FFFEFD",
"dX c #F3F0E9",
"fX c #D8DEDA",
"gX c None",
/* pixels */
"gXgXgXgXgXgXgXgXgXgXgXgXgXgXgXgXgXgXgXgXgXgXgXgXgXgXgXgXgXgXgXgXgXgXgXgXgXgXgXgXgXgXgXgXgXgXgXgXgXgXgXgXgXgXgX",
"gXgXgXgXgXgXgXgXgXgXgXgXgXgXgXgXgXgXgXgXgXgXgXgXgXgXgXgXgXgXgXgXgXgXgXgXgXgXgXgXgXgXgXgXgXgXgXgXgXgXgXgXgXgXgX",
"gXgXgXgXgXgXgXgXgXgXgXgXgXgXgXgXgXgXgXgXgXgXgXgXgXgXgXgXgXgXgXgXgXgXgXgXgXgXgXgXgXgXgXgXgXgXgXgXgXgXgXgXgXgXgX",
"gXgXgXgXgXgXgXgXgXgXgXgXgXgXgXgXgXgXgXgXgXgXgXgXgXgXgXgXgXgXgXgXgXgXgXgXgXgXgXgXgXgXgXgXgXgXgXgXgXgXgXgXgXgXgX",
"gXgXgXgXgXgXgXgXgXgXgXgXgXgXgX@.%.o.U E 0.w.C h z 3.w.w.w.w.w.w.w.w.w.gXgXgXgXgXgXgXgXgXgXgXgXgXgXgXgXgXgXgXgX",
"gXgXgXgXgXgXgXgXgXgXgXgXgXgXgXY.&.+.Q Y r.r.B h z 2.4.4.w.w.w.w.w.w.w.gXgXgXgXgXgXgXgXgXgXgXgXgXgXgXgXgXgXgXgX",
"gXgXgXgXgXgXgXgXgXgXgXgXgX%.Y.'.{.U.S.S.F.F.M.5.2.b z B w.w.w.7.w.w.w.w.w.w.w.3.z h gXgXgXgXgXgXgXgXgXgXgXgXgX",
"gXgXgXgXgXgXgXgXgXgXgXgXgX%.%.].|.P.H.H.H.H.N.7.3.z < N e.w.w.w.7.w.w.w.w.w.w.3.z h gXgXgXgXgXgXgXgXgXgXgXgXgX",
"gXgXgXgXgXgXgXgXgXgXgXgXc.v.c.`.`.m.V.V.P.P.B.z.t.C N N L B w.w.w.w.w.w.w.w.7.4.M c v gXgXgXgXgXgXgXgXgXgXgXgX",
"gXgXgXgXgXgXgXgXgXgX%.%.b.H.J.f.*.*.*.Y.].[.[.[.'.r.7.N h z 3.w.w.7.w.w.w.w.w.7.H H c h h gXgXgXgXgXgXgXgXgXgX",
"gXgXgXgXgXgXgXgXgXgXg.g.b.J.D.h.%.&.%.Y.{.].[..X}.r.7.N h z 3.w.w.w.w.w.7.w.w.7.H H c h h gXgXgXgXgXgXgXgXgXgX",
"gXgXgXgXgXgXgXgX%.f.Z.D.b.h.j.'.{.'.'.'.R.Y.n.J.L.r.e.N < z 3.7.w.w.w.w.w.w.w.4.;.H c h h gXgXgXgXgXgXgXgXgXgX",
"gXgXgXgXgXgXgX%.%.f.G.H.b.*.&.[.[.|.|.{.Y.*.b.H.F.r.w.N < z 3.w.w.w.w.w.w.w.w.7.H H c h h gXgXgXgXgXgXgXgXgXgX",
"gXgXgXgXgXgXgX%.%.f.G.H.U.R.R.&.h.R.`.`.c.c.b.C.C.r.w.N h z 3.w.1.B 8.B B 2.w.7.;.H A b v gXgXgXgXgXgXgXgXgXgX",
"gXgXgXgXgXgXgX%.%.f.G.H.P.[.'.Q d X.&.f.G.H.b.*.d.w.e.C h z 3.w.N h h < < N w.7.H H H D G k h h gXgXgXgXgXgXgX",
"gXgXgXgXgXgXgX%.%.f.D.H.I.{.'...W O.&.f.D.H.v.*.@.r.e.V h z 2.w.N h h z h C w.4.H H D H G k h h gXgXgXgXgXgXgX",
"gXgXgXgXgXgXgX%.&.&.m..Xh...X.~.oXoX,XoXj.j.g.@.g.A.A.M.<.>.b b C 1.1.1.1.:.;.;.H H H H G k h >     gXgXgXgXgX",
"gXgXgXgXgXgXgX%.&.&.|.|.@.i ~ ,X1X1X1XoXT.O.%.*.f.D.H.N.7.3.k < C e.7.e.e.<.D D H H G H G k h >     gXgXgXgXgX",
"gXgXgXgXgXgXgXgX@.&.h.`...q a oX3X6X7X7X^.^.T.%.f.G.H.M.5.:.c v M 8.8.<.5.:.D D H H H H F h h >     gXgXgXgXgX",
"gXgXgXgXgXgXgXgXgXgXi U 4   * /.1X9XpX0X4X1X^.%.f.G.H.p.F D D ;.m h k F D D D D D H D H F k h >     gXgXgXgXgX",
"gXgXgXgXgXgXgXgXgXgXW W 4   * /.1X7X0X0X4X1X^.@.h.D.H.p.H H H H c h h F D D D D H H H H G h h >     gXgXgXgXgX",
"gXgXgXgXgXgXgXgXgXgXgXgXO   o ~ X.^ 7 ` 9X0X#XL.Z.l.j.h._._.b k m F m v k m D D H G H H F k h >     gXgXgXgXgX",
"gXgXgXgXgXgXgXgXgXgXgXgXgX  . y d :   + 9XpX@XH.J.f.*.`. X'.n < c F F h < c ;.D H ;.D H F h h >     gXgXgXgXgX",
"gXgXgXgXgXgXgXgXgXgXgXgX7 s s _ _ _ ` | qXpX#XI.V.j.R.h.`.&./ / u.u.u.[ [ P m m m m G D G 1 1 $     gXgXgXgXgX",
"gXgXgXgXgXgXgXgXgXgX    ' 4X<X%X$XtXsXsXiXeXOX%.&.[. X@.i Q oX1X9XeXeXwXeXQ.< h h h c H K X   gXgXgXgXgXgXgXgX",
"gXgXgXgXgXgXgXgXgXgX    ' 2X<X%X$XtXsXsXiXeXOX@.&.{. X@.i ..oX1X9XwXwXwXeXQ.< h h < m D K X     gXgXgXgXgXgXgX",
"gXgXgXgXgXgXgXgXgXgX    ' 2X<X%X$XtXsXsXiXpX~.Q o.Z.K.i.i X.9X0XrXwX0X+X^.^ X # < h c H K X     gXgXgXgXgXgXgX",
"gXgXgXgXgXgXgXgXgXgX    ' 4X<X%X$XtXsXsXiXpX~.y  .D.H.s.y ..qXwXeXwX0XE.@.I   X < h m D F X     gXgXgXgXgXgXgX",
"gXgXgXgXgXgXgXgXgXgX    R W.W.*X*XyXdXdXpXpX~.i  .D.H.x.o.$.5XuX8X7X6X] ~ 5   X , , v A c X     gXgXgXgXgXgXgX",
"gXgXgXgXgXgXgXgXgXgXgXgX    * ).1X9XeXeXwXpX~.y  .S.H.I.[.+X;X-X=X&.O.+ X           > h < X     gXgXgXgXgXgXgX",
"gXgXgXgXgXgXgXgXgXgXgXgX    & ).3X9XeXeXpXpX~.g  .S.H.I.|.+X;X-X=X@.O.O             > h 2 .   gXgXgXgXgXgXgXgX",
"gXgXgXgXgXgXgXgXgXgXgXgX    o 7 5 =.7X7X6X7X,X~.^.#.#.x.K.V.) ( 9 6 5 =.W.k.a.a.gXgX# # # gXgXgXgXgXgXgXgXgXgX",
"gXgXgXgXgXgXgXgXgXgXgXgXgX        ' 3X3X3X3X2X2X,X~ y s.H.A.&       % ,X4X@XH.H.gXgXgX    gXgXgXgXgXgXgXgXgXgX",
"gXgXgXgXgXgXgXgXgXgXgXgXO % ; 8 ` { W.(.!.!.!.!.W.f w i.K.Z.&     # & =.W.l.a.a.gXgXgX    gXgXgXgXgXgXgXgXgXgX",
"gXgXgXgXgXgXgXgXgXgX    4 d ~ dXsX:X  X < h j j < X   ! |.`.*   $ h < X   .   . gXgXgXgXgXgXgXgXgXgXgXgXgXgXgX",
"gXgXgXgXgXgXgXgXgXgX    4 g ~ dXsX&X  X < h < h <     ^ |.`.%   > h < X         gXgXgXgXgXgXgXgXgXgXgXgXgXgXgX",
"gXgXgXgXgXgXgXgXgXgXgXgX% = ; ` ` Z c c A m A A c o   n q./ o   6 I r X     gXgXgXgXgXgXgXgXgXgXgXgXgXgXgXgXgX",
"gXgXgXgXgXgXgXgXgXgXgXgXgX        h ;.D H H H H K X X 2 D A X X : W y .   gXgXgXgXgXgXgXgXgXgXgXgXgXgXgXgXgXgX",
"gXgXgXgXgXgXgXgXgXgXgXgX      , , n 0.3.H H G H G & @ l D F Z 8 s e w # X X gXgXgXgXgXgXgXgXgXgXgXgXgXgXgXgXgX",
"gXgXgXgXgXgXgXgXgXgXgXgX    # ,.7.M.H.S.:.H H H J E i T D 6.fXsX}   X 1 h >         gXgXgXgXgXgXgXgXgXgXgXgXgX",
"gXgXgXgXgXgXgXgXgXgXgXgXgX  # 2.7.N.H.F.:.D H H M E i T D P dXsX:X  X < h >         gXgXgXgXgXgXgXgXgXgXgXgXgX",
"gXgXgXgXgX                  o 2.7.r.9.9.T T T T T : @ =.5X5X-.-._ : ; $ $ X   . q q -     gXgXgXgXgXgXgXgXgXgX",
"gXgXgXgXgX                  # 2.w.<.F K E W d i u .   =XsXdXs p q p 0         . t U 4     gXgXgXgXgXgXgXgXgXgX",
"gXgXgXgXgXO O O @ @ o . .   # ,.4.<.;.:.! ! ! ! I & # | fXyXs 0 p p p 7 7 *   . t U q O O gXgXgXgXgXgXgXgXgXgX",
"gXgXgX  o u y y d d p q =   X K D <.7.7.w.0.w.0.0.H F l o + p p f d ..9XwX{ . o u W W W u .   gXgXgXgXgXgXgXgX",
"gXgX    . t U U d g p p =   X K D <.e.w.w.w.w.w.7.;.H 2   X 7 p f d X.qXiX|   o t W W W t o     gXgXgXgXgXgXgX",
"gXgX    . y W W g d p p 0 ; ; 3 3 3 x x :.;.5.w.w.5.<.J l l * @ ] ,X/.{ ' 7   . w a f W y .     gXgXgXgXgXgXgX",
"gXgX    . y W W W d p p p p 7 .       X A D <.e.w.e.e.<.;.K X   =.aX9X*       . 5 p e W t .     gXgXgXgXgXgXgX",
"gXgXgX  . e e t d f p p p p 0 .       X c S L >.>.>.>.L S v X   { 8X<X* X     . 0 p e d a .     gXgXgXgXgXgXgX",
"gXgXgXgXgX.   ; p p p p p p 7 .     gXgXX X   X X X . X   X     . . + gXgX    . 0 p p p p .     gXgXgXgXgXgXgX",
"gXgXgXgXgX    ; p p q p p p p .     gXgX                              gXgX    . p p p p 0 .     gXgXgXgXgXgXgX",
"gXgXgXgXgXgXgXO = = = = = = + gXgXgXgXgXgXgXgXgXgXgXgXgXgXgXgXgXgXgXgXgXgXgXgXgX* = % = @ gXgXgXgXgXgXgXgXgXgX",
"gXgXgXgXgXgXgXgX              gXgXgXgXgXgXgXgXgXgXgXgXgXgXgXgXgXgXgXgXgXgXgXgXgX          gXgXgXgXgXgXgXgXgXgX",
"gXgXgXgXgXgXgXgX              gXgXgXgXgXgXgXgXgXgXgXgXgXgXgXgXgXgXgXgXgXgXgXgXgX          gXgXgXgXgXgXgXgXgXgX",
"gXgXgXgXgXgXgXgXgXgXgXgXgXgXgXgXgXgXgXgXgXgXgXgXgXgXgXgXgXgXgXgXgXgXgXgXgXgXgXgXgXgXgXgXgXgXgXgXgXgXgXgXgXgXgX",
"gXgXgXgXgXgXgXgXgXgXgXgXgXgXgXgXgXgXgXgXgXgXgXgXgXgXgXgXgXgXgXgXgXgXgXgXgXgXgXgXgXgXgXgXgXgXgXgXgXgXgXgXgXgXgX",
"gXgXgXgXgXgXgXgXgXgXgXgXgXgXgXgXgXgXgXgXgXgXgXgXgXgXgXgXgXgXgXgXgXgXgXgXgXgXgXgXgXgXgXgXgXgXgXgXgXgXgXgXgXgXgX",
"gXgXgXgXgXgXgXgXgXgXgXgXgXgXgXgXgXgXgXgXgXgXgXgXgXgXgXgXgXgXgXgXgXgXgXgXgXgXgXgXgXgXgXgXgXgXgXgXgXgXgXgXgXgXgX",
"gXgXgXgXgXgXgXgXgXgXgXgXgXgXgXgXgXgXgXgXgXgXgXgXgXgXgXgXgXgXgXgXgXgXgXgXgXgXgXgXgXgXgXgXgXgXgXgXgXgXgXgXgXgXgX",
"gXgXgXgXgXgXgXgXgXgXgXgXgXgXgXgXgXgXgXgXgXgXgXgXgXgXgXgXgXgXgXgXgXgXgXgXgXgXgXgXgXgXgXgXgXgXgXgXgXgXgXgXgXgXgX",
"gXgXgXgXgXgXgXgXgXgXgXgXgXgXgXgXgXgXgXgXgXgXgXgXgXgXgXgXgXgXgXgXgXgXgXgXgXgXgXgXgXgXgXgXgXgXgXgXgXgXgXgXgXgXgX"
};
