/* XPM */
static char *result[] = {
/* columns rows colors chars-per-pixel */
"61 60 227 2 ",
"   c #000001",
".  c #030C04",
"X  c #0D0806",
"o  c #120D0B",
"O  c #150C07",
"+  c #041204",
"@  c #041B0A",
"#  c #061607",
"$  c #19130B",
"%  c #141210",
"&  c #24140E",
"*  c #2C1A0E",
"=  c #321D0E",
"-  c #271612",
";  c #321C14",
":  c #361F18",
">  c #05240D",
",  c #0C2309",
"<  c #062B0E",
"1  c #092D0A",
"2  c #062507",
"3  c #0A330B",
"4  c #0B3E0C",
"5  c #073813",
"6  c #183814",
"7  c #10340F",
"8  c #342316",
"9  c #342B11",
"0  c #362E26",
"q  c #3B3227",
"w  c #45251D",
"e  c #4E2C16",
"r  c #57321A",
"t  c #552F18",
"y  c #6E3C1E",
"u  c #61371B",
"i  c #713F1E",
"p  c #4C2A21",
"a  c #512D20",
"s  c #45392C",
"d  c #723E20",
"f  c #693C21",
"g  c #0D420D",
"h  c #0C4813",
"j  c #1C4612",
"k  c #124511",
"l  c #0E5315",
"z  c #0D591B",
"x  c #0A531C",
"c  c #1A5A14",
"v  c #185615",
"b  c #3E5D1C",
"n  c #0F651E",
"m  c #0F681F",
"M  c #1D6117",
"N  c #1D731F",
"B  c #206617",
"V  c #236B19",
"C  c #2D7A1E",
"Z  c #30781E",
"A  c #0D6622",
"S  c #0F6921",
"D  c #0F7325",
"F  c #0E7B29",
"G  c #0D7C27",
"H  c #107B29",
"J  c #127727",
"K  c #146E25",
"L  c #256C26",
"P  c #247127",
"I  c #2E7135",
"U  c #3E4A26",
"Y  c #454505",
"T  c #525201",
"R  c #55421B",
"E  c #75441F",
"W  c #6A411F",
"Q  c #5B6304",
"!  c #584B3B",
"~  c #4F4F2C",
"^  c #6E4220",
"/  c #674E2B",
"(  c #734120",
")  c #7C4B26",
"_  c #78592E",
"`  c #6A5322",
"'  c #547D25",
"]  c #4A6635",
"[  c #467529",
"{  c #726818",
"}  c #575551",
"|  c #685A4C",
" . c #586E4C",
".. c #404D7E",
"X. c #796F72",
"o. c #80531D",
"O. c #906819",
"+. c #8B5B2A",
"@. c #865C39",
"#. c #89673A",
"$. c #916535",
"%. c #9B773B",
"&. c #A4783D",
"*. c #8F6240",
"=. c #926642",
"-. c #937453",
";. c #A17643",
":. c #A37A41",
">. c #A87E42",
",. c #A17853",
"<. c #917D77",
"1. c #967F63",
"2. c #2F811F",
"3. c #30831F",
"4. c #1C8529",
"5. c #178129",
"6. c #0F802B",
"7. c #238B29",
"8. c #2B8322",
"9. c #358B23",
"0. c #338524",
"q. c #2E9429",
"w. c #359B29",
"e. c #3D9F28",
"r. c #3A9826",
"t. c #3FA329",
"y. c #4E8F28",
"u. c #6D9034",
"i. c #41A429",
"p. c #43A92A",
"a. c #4BA728",
"s. c #5DA432",
"d. c #66B226",
"f. c #68A818",
"g. c #3F9553",
"h. c #409755",
"j. c #798C74",
"k. c #A38315",
"l. c #AE9512",
"z. c #9DA303",
"x. c #B0B002",
"c. c #A8A800",
"v. c #A5862B",
"b. c #AB843E",
"n. c #B59336",
"m. c #B59232",
"M. c #999F2F",
"N. c #C49E3C",
"B. c #C6AC28",
"V. c #CBB326",
"C. c #D3B236",
"Z. c #AED317",
"A. c #BFE10E",
"S. c #8ECA18",
"D. c #DFD017",
"F. c #DDD00C",
"G. c #E0D216",
"H. c #E6DA12",
"J. c #D6EC09",
"K. c #ECE40A",
"L. c #F1EB09",
"P. c #FEFE01",
"I. c #F8F506",
"U. c #F6EC1D",
"Y. c #ECD428",
"T. c #E8C934",
"R. c #F2D62D",
"E. c #F8F028",
"W. c #AE8344",
"Q. c #B88D47",
"!. c #B6905C",
"~. c #B38B55",
"^. c #B38C66",
"/. c #B59976",
"(. c #AB9370",
"). c #9F8668",
"_. c #D1A14E",
"`. c #DDAA53",
"'. c #D7A752",
"]. c #CDAE4A",
"[. c #E3B945",
"{. c #E3AF55",
"}. c #C29D6E",
"|. c #C8A577",
" X c #CD9D4D",
".X c #E2C86B",
"XX c #DFC951",
"oX c #2E509D",
"OX c #30519C",
"+X c #3D5CA2",
"@X c #485481",
"#X c #018ABC",
"$X c #00BCFF",
"%X c #48C6EC",
"&X c #918B92",
"*X c #AB9C92",
"=X c #9AA98A",
"-X c #BEB187",
";X c #ACAEB0",
":X c #92B7B4",
">X c #D5B48B",
",X c #D8B68D",
"<X c #DCB98E",
"1X c #D7B786",
"2X c #DCBA90",
"3X c #C5B58D",
"4X c #C5CB98",
"5X c #E3C59A",
"6X c #E5C89A",
"7X c #DAC8AC",
"8X c #F1D5AC",
"9X c #F5DBB2",
"0X c #F9DEB5",
"qX c #E5CAA3",
"wX c #FEE5BC",
"eX c #FEE6BA",
"rX c #C0C1C1",
"tX c #FFEBC1",
"yX c #FFEAC8",
"uX c #FFEED1",
"iX c #DBE1EE",
"pX c #DEE4F2",
"aX c #FFF6E6",
"sX c #FEFFFE",
"dX c #F5FAF6",
"fX c #F0DEC4",
"gX c None",
/* pixels */
"gXgXgXgXgXgXgXgXgXgXgXgXgXgXgXgXgXgXgXgXgXgXgXgXgXgXgXgXgXgXgXgXgXgXgXgXgXgXgXgXgXgXgXgXgXgXgXgXgXgXgXgXgXgXgXgXgXgXgXgXgX",
"gXgXgXgXgXgXgXgXgXgXgXgXgXgXgXgXgXgXgXgXgXgXgXgXgXgXgXgXgXgXgXgXgXgXgXgXgXgXgXgXgXgXgXgXgXgXgXgXgXgXgXgXgXgXgXgXgXgXgXgXgX",
"gXgXgXgXgXgXgXgXgXgXgXgXgXgXgXgXgXgXgXgXgXgXgXgXgXgXgXgXgXgXgXgXgXgXgXgXgXgXgXgXgXgXgXgXgXgXgXgXgXgXgXgXgXgXgXgXgXgXgXgXgX",
"gXgXgXgXgXgXgXgXgXgXgXgXgXgXgXgXgXgXgXgXgXgXgXgXgXgXgXgXgXgXgXgXgXgXgXgXgXgXgXgXgXgXgXgXgXgXgXgXgXgXgXgXgXgXgXgXgXgXgXgXgX",
"gXgXgXgXgXgXgXgXgXgXgXgXgXgXgXgXgXgXgXgXgXgXgXgXgXgXgXgXgXgXgXgXgXgXgXgXgXgXgXgXgXgXgXgXgXgXgXgXgXgXgXgXgXgXgXgXgXgXgXgXgX",
"gXgXgXgXgXgXgXgXgXgXgX:.:.:.>.$.( ( P 6.m g g 9.i.i.i.i.4.H H gXgXgXgXgXgXgXgXgXgXgXgXgXgXgXgXgXgXgXgXgXgXgXgXgXgXgXgXgXgX",
"gXgXgXgXgXgXgXgXgXgXgX:.;.:.>.$.i ^ P H m g k 9.i.i.i.t.4.F H gXgXgXgXgXgXgXgXgXgXgXgXgXgXgXgXgXgXgXgXgXgXgXgXgXgXgXgXgXgX",
"gXgXgXgXgXgXgXgXgXgXC.V.V.b.:.v.l.l.9.7.K k k 9.i.i.i.i.q.7.q.gXgXgXgXgXgXgXgXgXgXgXgXgXgXgXgXgXgXgXgXgXgXgXgXgXgXgXgXgXgX",
"gXgXgXgXgXgX:.W.'.`.R.P.P.n.:.B.P.P.d.p.3.g h 9.p.i.i.i.i.i.i.i.i.i.i.w.H H F H H gXgXgXgXgXgXgXgXgXgXgXgXgXgXgXgXgXgXgXgX",
"gXgXgXgXgXgXW.b._.'.T.I.I.n.b.B.P.P.d.t.3.g g 9.i.i.i.i.i.i.i.i.i.i.i.r.H H F F H gXgXgXgXgXgXgXgXgXgXgXgXgXgXgXgXgXgXgXgX",
"gXgXgX:.:.V.L.K.n.W.b.n.m.H.I.Y.[.[.s.t.3.g g 9.i.i.i.i.i.i.i.i.i.i.i.e.t.e.4.F H H H v g g gXgXgXgXgXgXgXgXgXgXgXgXgXgXgX",
"gXgXgX:.;.V.P.I.b.:.&.:.&.L.P.Y.'.'.s.t.2.g g 9.p.i.i.i.i.i.i.i.i.i.i.i.i.i.7.J F H H l g g gXgXgXgXgXgXgXgXgXgXgXgXgXgXgX",
"gXgXgXB.V.F.P.I.N.Q.Q.Q.N.Y.U.Y.T.T.S.S.f.B B C C 9.i.i.i.i.i.i.i.i.i.i.i.i.q.7.7.H H n z l gXgXgXgXgXgXgXgXgXgXgXgXgXgXgX",
"( ( ) K.P.P.P.P.[.{.`.{.`.`.`.T.P.P.P.P.A.t.i.c 4 c i.i.i.i.i.i.i.i.i.i.i.i.i.i.w.H H H H D h g gXgXgXgXgXgXgXgXgXgXgXgXgX",
"( ( ) K.P.P.I.I.[.'.`.`.`.`.`.T.P.P.P.P.A.w.t.c g M i.i.t.t.i.r.r.i.i.i.i.i.t.t.w.H H H G D h g gXgXgXgXgXgXgXgXgXgXgXgXgX",
"gXgXgXO.O.v.[.[.Q.W.W.W.W.W.>.C.P.I.B.n.M.i.e.c g c i.t.B j v v v 9.i.i.i.i.q.4.H H H H J J D D l g g gXgXgXgXgXgXgXgXgXgX",
"gXgXgXd y %.{.'.W.:.W.&.%.;.;.B.P.P.n.;.M.w.t.v g M i.i.c 4 g 4 4 0.p.i.i.i.7.J G F H H H H H H z 4 g gXgXgXgXgXgXgXgXgXgX",
"gXgXgX( y &.{._._ / #.!.!.!.!.].D.D.V.B.M.u.u.V M N 2.2.V B B B V 8.q.q.q.w.4.F F F H H H H H H n x l gXgXgXgXgXgXgXgXgXgX",
"gXgXgXgXgXgXgXgX    ! ,X3X,X,X}.:.:.K.P.G.:.;.s.i.9.g g 9.i.i.i.i.4.H H H H H H H H F H H H H H J H S .   gXgXgXgXgXgXgXgX",
"gXgXgXgXgXgXgXgX    ! ,X>X,X,X}.>.W.K.P.G.;.;.s.t.8.g g 9.i.t.t.i.4.F H H H H H H H H H H H H H H H A .   gXgXgXgXgXgXgXgX",
"gXgXgXgXgXgXgXgX    ! ,X>X8X0X6X|.|.U.P.G.&.%.0.4.H S D c v M 5.4.H H H H H H G H H H H H H H H H H S .   gXgXgXgXgXgXgXgX",
"gXgXgXgXgXgXgXgX    ! <X,XwXyX8X>X<XU.P.G.:.W.I H H 6.6.l 4 l G H H H H H H H H F H H H H H H H H H S     gXgXgXgXgXgXgXgX",
"gXgXgXgXgXgXgXgX    s ^.^./.(.3X5X6XU.P.G.:.:.[ L L m S z l z m m m m S S S n m A x x z S S n S J F D < < @ gXgXgXgXgXgXgX",
"gXgXgXgXgXgXgXgX    = ) y o   | tXeXE.P.G.:.&.) E r g g S G m g g g g g g g g g 3     1 h g g g A H H F H 5     gXgXgXgXgX",
"gXgXgXgXgXgXgXgX    : ( d $ X | eXeXE.P.G.:.:.) E R h h D 5.J k j g g g g g g g 3     1 g g g g n H J J H 5     gXgXgXgXgX",
"gXgXgXgXgXgX  o 1.).X...@X;XrXrXeXeX].m.N._. X+.E @.(.(.-X4X4X4X3XI g g g g 2 + + gXgX. + + . . 3 l l l l 4 3 1     gXgXgX",
"gXgXgXgXgXgX  o /.<X&XoX+XpXsXaXwXeX!.;.Q.`.`.+.y $.,X,X9XwXwXtXwX .g g g g +     gXgX          2 g g g g g g 4 .   gXgXgX",
"gXgXgXgXgXgX  o /.<X&XoX+XiXsXaXeXeX~.$.W.T.T.+.y =.5X5X0XwX9X5X5X] 2 3 1 3 +     gXgXgX        2 1 1 3 1 1 1 1     gXgXgX",
"gXgXgXgXgXgX  o /.<X&XoX+XiXsXaXwX0X*.y k.P.P.O.y ,.eXeXwXtX6X>.:.8         gXgXgXgXgXgXgXgXgXgX                gXgXgXgXgX",
"gXgXgXgXgXgX  o /.,X&XOX+XiXsXaXwXeX*.y k.P.P.O.y ,.eXeXwXwX6X;.%.8         gXgXgXgXgXgXgXgXgXgX                gXgXgXgXgX",
"gXgXgXgXgXgXgXgXq q | *X*XfXuXyXtX0X*.y k.P.I._.^.=X%X%X=X}.-.9 8 X     gXgXgXgXgXgXgXgXgXgXgXgXgXgXgXgXgXgXgXgXgXgXgXgXgX",
"gXgXgXgXgXgXgXgX    ! <X<X0XwXwXtX0X@.y v.P.P..X,X:X$X$Xj.&._           gXgXgXgXgXgXgXgXgXgXgXgXgXgXgXgXgXgXgXgXgXgXgXgXgX",
"gXgXgXgXgXgXgXgX    ! ).).qX9X9X8X8X,.@.v.F.F.XXXX=X#X#X .@./ 0 0 U Y e gXgXgXgXgXgXgXgXgXgXgXgXgXgXgXgXgXgXgXgXgXgXgXgXgX",
"gXgXgXgXgXgXgXgXgXgXgX  o (.,X,X>X>X>X>X^.E ) F.P.x.. .     q >X>XY.P.P.gXgXgXgXgXgXgXgXgXgXgXgXgXgXgXgXgXgXgXgXgXgXgXgXgX",
"gXgXgXgXgXgXgXgXgXgXgX  X /.,X>X>X>X1X1X^.i E F.P.x.        q >X3XE.P.P.gXgXgXgXgXgXgXgXgXgXgXgXgXgXgXgXgXgXgXgXgXgXgXgXgX",
"gXgXgXgXgXgXgXgXgXgXgXgXgXq q ~ ] ] ] ] ~ O * m.T.v.    @ 1 7 s s Y T T gXgXgXgXgXgXgXgXgXgXgXgXgXgXgXgXgXgXgXgXgXgXgXgXgX",
"gXgXgXgXgXgXgXgXgXgXgXgXgX    + 4 4 4 g 2     b.{.&.    3 g 1           gXgXgXgXgXgXgXgXgXgXgXgXgXgXgXgXgXgXgXgXgXgXgXgXgX",
"gXgXgXgXgXgXgXgXgXgXgXgXgX@ @ < l l h l 4 + + #.Q._ @ @ g l 5           gXgXgXgXgXgXgXgXgXgXgXgXgXgXgXgXgXgXgXgXgXgXgXgXgX",
"gXgXgXgXgXgXgXgXgXgXgX  . A G H J F H H A g 4 # . < J G H H z     gXgXgXgXgXgXgXgXgXgXgXgXgXgXgXgXgXgXgXgXgXgXgXgXgXgXgXgX",
"gXgXgXgXgXgXgXgXgXgXgX    A H H H H F H n g g .   < H H H H z     gXgXgXgXgXgXgXgXgXgXgXgXgXgXgXgXgXgXgXgXgXgXgXgXgXgXgXgX",
"gXgXgXgXgXgXgXgX    T x.z.2.G G F F 5 < h A A x x h < < S H z     gXgXgXgXgXgXgXgXgXgXgXgXgXgXgXgXgXgXgXgXgXgXgXgXgXgXgXgX",
"gXgXgXgXgXgXgXgX    { P.P.r.G G G G #   > G F F F x     z 6.z     gXgXgXgXgXgXgXgXgXgXgXgXgXgXgXgXgXgXgXgXgXgXgXgXgXgXgXgX",
"gXgXgXgXgXgXgXgX    Q J.J.9.P P P L #   6 g.g.g.g.I     v P c @ # gXgXgXgXgXgXgXgXgXgXgXgXgXgXgXgXgXgXgXgXgXgXgXgXgXgXgXgX",
"gXgXgXgXgXgXgXgX    j a.a.` f ^ ( W O   } dXdXdXdX;X  . a ( ~ D J >     gXgXgXgXgXgXgXgXgXgXgXgXgXgXgXgXgXgXgXgXgXgXgXgXgX",
"gXgXgXgXgXgXgXgX    j i.y.` d d d d O   } sXsXsXsX;XX   e E R J F >     gXgXgXgXgXgXgXgXgXgXgXgXgXgXgXgXgXgXgXgXgXgXgXgXgX",
"gXgXgXgXgXgXgXgX    j p.t.y.' ' ' ' o   0 <.<.<.<.}     ~ y.y.G F >     gXgXgXgXgXgXgXgXgXgXgXgXgXgXgXgXgXgXgXgXgXgXgXgXgX",
"gXgXgXgXgXgXgXgX    j p.i.i.i.i.i.i.,   o w w w p ;     Z p.w.H F >     gXgXgXgXgXgXgXgXgXgXgXgXgXgXgXgXgXgXgXgXgXgXgXgXgX",
"gXgXgXgXgXgXgXgX    6 9.0.i.i.i.i.i.@   & a a a a 8     Z p.q.A A >     gXgXgXgXgXgXgXgXgXgXgXgXgXgXgXgXgXgXgXgXgXgXgXgXgX",
"gXgXgXgXgXgXgXgXgXgXgX. + 9.i.i.i.e.,   * i i E ( e     Z p.C . . gXgXgXgXgXgXgXgXgXgXgXgXgXgXgXgXgXgXgXgXgXgXgXgXgXgXgXgX",
"gXgXgXgXgXgXgXgXgXgXgX  X 0.p.p.i.t.,   & i i i ( w     Z p.Z     gXgXgXgXgXgXgXgXgXgXgXgXgXgXgXgXgXgXgXgXgXgXgXgXgXgXgXgX",
"gXgXgXgXgXgXgXgXgXgXgX    6 j j j j .   s |.|.^.^._     6 j j gXgXgXgXgXgXgXgXgXgXgXgXgXgXgXgXgXgXgXgXgXgXgXgXgXgXgXgXgXgX",
"gXgXgXgXgXgXgXgXgXgXgX                  } tXyX2X2X1.          gXgXgXgXgXgXgXgXgXgXgXgXgXgXgXgXgXgXgXgXgXgXgXgXgXgXgXgXgXgX",
"gXgXgXgXgXgXgXgXgXgXgX    X O O X   X   ! 7X5X-X/.-.  X       gXgXgXgXgXgXgXgXgXgXgXgXgXgXgXgXgXgXgXgXgXgXgXgXgXgXgXgXgXgX",
"gXgXgXgXgXgXgXgXgXgXgX    t y r p w p p ; o o X o - p 0 o     gXgXgXgXgXgXgXgXgXgXgXgXgXgXgXgXgXgXgXgXgXgXgXgXgXgXgXgXgXgX",
"gXgXgXgXgXgXgXgXgXgXgX  X u ) u p p p p ;         o p p o     gXgXgXgXgXgXgXgXgXgXgXgXgXgXgXgXgXgXgXgXgXgXgXgXgXgXgXgXgXgX",
"gXgXgXgXgXgXgXgXgXgXgXgXgX= = * & $ & - o     $ - & & & o gXgXgXgXgXgXgXgXgXgXgXgXgXgXgXgXgXgXgXgXgXgXgXgXgXgXgXgXgXgXgXgX",
"gXgXgXgXgXgXgXgXgXgXgXgXgX                    : a :     gXgXgXgXgXgXgXgXgXgXgXgXgXgXgXgXgXgXgXgXgXgXgXgXgXgXgXgXgXgXgXgXgX",
"gXgXgXgXgXgXgXgXgXgXgXgXgX                    : p -     gXgXgXgXgXgXgXgXgXgXgXgXgXgXgXgXgXgXgXgXgXgXgXgXgXgXgXgXgXgXgXgXgX",
"gXgXgXgXgXgXgXgXgXgXgXgXgXgXgXgXgXgXgXgXgX        X gXgXgXgXgXgXgXgXgXgXgXgXgXgXgXgXgXgXgXgXgXgXgXgXgXgXgXgXgXgXgXgXgXgXgX",
"gXgXgXgXgXgXgXgXgXgXgXgXgXgXgXgXgXgXgXgXgX          gXgXgXgXgXgXgXgXgXgXgXgXgXgXgXgXgXgXgXgXgXgXgXgXgXgXgXgXgXgXgXgXgXgXgX"
};
