/* XPM */
static char *result[] = {
/* columns rows colors chars-per-pixel */
"60 60 230 2 ",
"   c #000101",
".  c #0A0604",
"X  c #030C04",
"o  c #0C0A09",
"O  c #120B09",
"+  c #100707",
"@  c #051105",
"#  c #051C06",
"$  c #0D1F0C",
"%  c #181709",
"&  c #191511",
"*  c #191715",
"=  c #0B121C",
"-  c #27160C",
";  c #251511",
":  c #271C18",
">  c #341D12",
",  c #062107",
"<  c #07260A",
"1  c #0C3D0C",
"2  c #0A340A",
"3  c #093B15",
"4  c #0F3413",
"5  c #3A2216",
"6  c #312E0E",
"7  c #0F1B27",
"8  c #182A3A",
"9  c #242323",
"0  c #44251D",
"q  c #49281E",
"w  c #452511",
"e  c #46361B",
"r  c #5B331A",
"t  c #54361B",
"y  c #532E18",
"u  c #67391D",
"i  c #723F1E",
"p  c #4B2A20",
"a  c #563A23",
"s  c #4D362B",
"d  c #653920",
"f  c #663820",
"g  c #743E20",
"h  c #0D420D",
"j  c #0D4B11",
"k  c #0C4915",
"l  c #134D11",
"z  c #174716",
"x  c #0E5215",
"c  c #0E5D1B",
"v  c #0C541A",
"b  c #185A15",
"n  c #114A0F",
"m  c #224C1A",
"M  c #34561C",
"N  c #0F631D",
"B  c #0D681F",
"V  c #1C6318",
"C  c #27731B",
"Z  c #2B771D",
"A  c #2B6F1C",
"S  c #275523",
"D  c #0D6421",
"F  c #0E6D23",
"G  c #0F7124",
"H  c #0E7B29",
"J  c #067822",
"K  c #107526",
"L  c #107C29",
"P  c #197627",
"I  c #176626",
"U  c #286B26",
"Y  c #287630",
"T  c #464402",
"R  c #75431F",
"E  c #7E7D02",
"W  c #425E25",
"Q  c #564839",
"!  c #544D2B",
"~  c #6A4623",
"^  c #744221",
"/  c #7B4A23",
"(  c #7B5836",
")  c #6A5432",
"_  c #527A31",
"`  c #756D2D",
"'  c #2F4E6D",
"]  c #165567",
"[  c #53514B",
"{  c #675947",
"}  c #7E6D57",
"|  c #417E68",
" . c #90780F",
".. c #8B5D34",
"X. c #865529",
"o. c #926938",
"O. c #9B743C",
"+. c #8C6732",
"@. c #A57D3E",
"#. c #8F7457",
"$. c #A37A42",
"%. c #A67C43",
"&. c #A67C55",
"*. c #837662",
"=. c #2F821F",
"-. c #14802A",
";. c #1F882A",
":. c #228A29",
">. c #2A8B26",
",. c #338721",
"<. c #348B22",
"1. c #299029",
"2. c #3A9425",
"3. c #3B9926",
"4. c #3B9F29",
"5. c #359929",
"6. c #268436",
"7. c #3EA229",
"8. c #77B71A",
"9. c #5A9C2E",
"0. c #4A9230",
"q. c #76933D",
"w. c #6E832D",
"e. c #41A529",
"r. c #44A92B",
"t. c #52A42D",
"y. c #6AAF2A",
"u. c #58961A",
"i. c #459457",
"p. c #708E6D",
"a. c #808000",
"s. c #B89F13",
"d. c #B3A713",
"f. c #868939",
"g. c #AD893A",
"h. c #A8823E",
"j. c #B08B39",
"k. c #BA9934",
"l. c #B39522",
"z. c #BFA22E",
"x. c #CCB61B",
"c. c #C4A72A",
"v. c #CDB626",
"b. c #D2BD21",
"n. c #D7B92B",
"m. c #CCAC35",
"M. c #B0D713",
"N. c #8AC91A",
"B. c #DED207",
"V. c #D8C90F",
"C. c #E3D714",
"Z. c #D3E708",
"A. c #EAE30B",
"S. c #F3EE08",
"D. c #FEFE01",
"F. c #F8F308",
"G. c #F3E517",
"H. c #E7F204",
"J. c #EED529",
"K. c #ECD12D",
"L. c #D6C320",
"P. c #AB8347",
"I. c #BA8C47",
"U. c #AC8456",
"Y. c #B89151",
"T. c #9B8467",
"R. c #BB9669",
"E. c #B59876",
"W. c #A8916D",
"Q. c #BFA57D",
"!. c #978240",
"~. c #C1944A",
"^. c #C59946",
"/. c #D09F4F",
"(. c #CCA74D",
"). c #D2A14D",
"_. c #D9AB4E",
"`. c #DEAB53",
"'. c #D8A750",
"]. c #DFB446",
"[. c #E2B549",
"{. c #E1AE53",
"}. c #E8B257",
"|. c #C5A57D",
" X c #C09B66",
".X c #E8C94E",
"XX c #EFDB6C",
"oX c #2A4D9A",
"OX c #395393",
"+X c #005B83",
"@X c #4F6499",
"#X c #596995",
"$X c #505F8B",
"%X c #7887AE",
"&X c #33B2D2",
"*X c DeepSkyBlue",
"=X c #7E92C1",
"-X c #49B3CA",
";X c #16C0FE",
":X c #A59590",
">X c #B1AFAF",
",X c #98AC9D",
"<X c #C7AB85",
"1X c #D0AF88",
"2X c #CCB38C",
"3X c #D6B48C",
"4X c #D8B78D",
"5X c #DAB88E",
"6X c #D4B280",
"7X c #CBB998",
"8X c #DABB93",
"9X c #E2BF93",
"0X c #88C096",
"qX c #D4C294",
"wX c #E3C498",
"eX c #EACDA4",
"rX c #E6CDA8",
"tX c #E6D7AC",
"yX c #F2DBB3",
"uX c #FFE6BD",
"iX c #FFE9BF",
"pX c #EBD691",
"aX c #FFEAC2",
"sX c #FEEAC9",
"dX c #E5E4C7",
"fX c #E5E7E4",
"gX c #FFFFFE",
"hX c #FFFBF6",
"jX c #D8CECD",
"kX c None",
/* pixels */
"kXkXkXkXkXkXkXkXkXkXkXkXkXkXkXkXkXkXkXkXkXkXkXkXkXkXkXkXkXkXkXkXkXkXkXkXkXkXkXkXkXkXkXkXkXkXkXkXkXkXkXkXkXkXkXkXkXkXkXkX",
"kXkXkXkXkXkXkXkXkXkXkXkXkXkXkXkXkXkXkXkXkXkXkXkXkXkXkXkXkXkXkXkXkXkXkXkXkXkXkXkXkXkXkXkXkXkXkXkXkXkXkXkXkXkXkXkXkXkXkXkX",
"kXkXkXkXkXkXkXkXkXkXkXkXkXkXkXkXkXkXkXkXkXkXkXkXkXkXkXkXkXkXkXkXkXkXkXkXkXkXkXkXkXkXkXkXkXkXkXkXkXkXkXkXkXkXkXkXkXkXkXkX",
"kXkXkXkXkXkXkXkXkXkXkXkXkXkX%.%.o.R ~ U L F h h <.r.r.e.e.e.r.5.L L L L L kXkXkXkXkXkXkXkXkXkXkXkXkXkXkXkXkXkXkXkXkXkXkX",
"kXkXkXkXkXkXkXkXkXkXkXkXkXkX$.$.+.g g U H D h h <.r.e.e.e.e.e.5.H H H H L kXkXkXkXkXkXkXkXkXkXkXkXkXkXkXkXkXkXkXkXkXkXkX",
"kXkXkXkXkXkXkXkXkXkX$.I.kX{.v.b.x.s.s.w._ _ C C C C =.e.e.e.7.4.1.>.1.1.>.L L kXkXkXkXkXkXkXkXkXkXkXkXkXkXkXkXkXkXkXkXkX",
"kXkXkXkXkXkXkXkXkX%.%.I.{.[.F.D.D.D.D.k.$.f.7.e.b 1 b e.r.e.e.e.e.e.e.e.5.L L kXkXkXkXkXkXkXkXkXkXkXkXkXkXkXkXkXkXkXkXkX",
"kXkXkXkXkXkXkXkXkXg.g.I.'._.G.S.S.F.F.k.P.f.t.t.V n V 3.2.4.e.e.e.e.e.r.4.-.L kXkXkXkXkXkXkXkXkXkXkXkXkXkXkXkXkXkXkXkXkX",
"kXkXkXkXkXkXkX$.h.A.F.L.$.%.g.g.^.[.[.'.`.(.(.(.9.e.,.l l <.r.7.e.e.e.e.4.4.3.:.L F h h kXkXkXkXkXkXkXkXkXkXkXkXkXkXkXkX",
"kXkXkXkXkXkXkX$.h.S.D.L.@.@.$.$.I.`.`.'.`.`.{.'.y.e.,.h 1 ,.7.r.e.e.e.e.e.e.e.:.L K h h kXkXkXkXkXkXkXkXkXkXkXkXkXkXkXkX",
"kXkXkXkXkXkXc.b.b.b.L.m.~.~.~.^.I.~.^.K.J.J.J.J.y.7.,.h h ,.r.e.e.e.e.7.e.e.e.:.H K N c x kXkXkXkXkXkXkXkXkXkXkXkXkXkXkX",
"kXkXkXkX$.$.v.D.F.j.$.I.{.{.{.{./.$.P.A.D.D.D.D.8.4.,.1 h ,.e.e.7.e.r.r.e.e.e.:.L L L L v h h kXkXkXkXkXkXkXkXkXkXkXkXkX",
"kXkXkXkX$.$.v.D.F.k.%.~.{.`.).).I.$.h.A.D.D.S.S.8.e.,.h h <.e.e.3.3.3.2.3.e.4.:.H L L L c k h kXkXkXkXkXkXkXkXkXkXkXkXkX",
"kXkXkXkX$.$.v.D.F.].'._.`.'.../ ..@.P.A.D.C.g.g.9.e.,.h h <.e.<.x l l l b L L L L L L H L K D X   kXkXkXkXkXkXkXkXkXkXkX",
"kXkXkXkX$.$.v.D.D.[._.{._.'.X.i X.%.h.A.D.C.$.$.0.7.=.h h <.r.<.h 1 h 1 j L L H L H L K L L D X   kXkXkXkXkXkXkXkXkXkXkX",
"kXkXkXkXkXkXl.s.s.^.^.~.~.~.&.&.U.R.R.v.b.c.$.%.N.M.8.C C C C C C C V c N L L L L L L L H H D     kXkXkXkXkXkXkXkXkXkXkX",
"kXkXkXkXkXkXkXg ^ O.%.$.%.%.<X4X4X3X3XU.$.$.$.@.A.D.Z.r.e.b 1 b e.e.:.L L L L L L L L L L L D X   kXkXkXkXkXkXkXkXkXkXkX",
"kXkXkXkXkXkXkX^ ^ O.%.O.o.O.|.4X4X8X3XY.&.P.g.g.C.F.M.7.7.b h b 4.4.;.L L L L L H L L L L L F X X kXkXkXkXkXkXkXkXkXkXkX",
"kXkXkXkXkXkXkXkXkXkXkXkXO & E.6XwXuXuX3X<X.XS.S.z.g.f.-.-.x h x L -.L H H L L H L L H K L L G 1 1 #     kXkXkXkXkXkXkXkX",
"kXkXkXkXkXkXkXkXkXkXkXkX  + R.5XwXaXiX8X7X.XD.D.k.$.` H H l 1 x L L L H L L L K H L L L H L G j 1 #     kXkXkXkXkXkXkXkX",
"kXkXkXkXkXkXkXkXkXkXkXkX  . #.&.#.*.*.8XrXXXD.D.k.$.h.q.q.U c c c N J H L L L H L L H L L L G h h #     kXkXkXkXkXkXkXkX",
"kXkXkXkXkXkXkXkXkXkXkXkX    y i w     7XiXpXD.D.k.$.P.{.{.0.H F h h N H H L L L L L L L L L K h h #     kXkXkXkXkXkXkXkX",
"kXkXkXkXkXkXkXkXkXkXkXkX- & a g s * 9 7XiXXXF.F.k.P.I./.(.0.Y Y S S 6.6.6.G K K K H L L L L F h h #     kXkXkXkXkXkXkXkX",
"kXkXkXkXkXkXkXkXkX    Q |.:X@XOX%XfXfXsXiXpXI.j.(._.I.X./ W.<X2XtXtXtXtX<Xl j n h x K L H L K h h #     kXkXkXkXkXkXkXkX",
"kXkXkXkXkXkXkXkXkX    Q 8X2X@XoX=XgXgXsXuXwX%.%./.`.I.i i R.3X9XuXiXiXaXqXl h h h x H L L H G h h #     kXkXkXkXkXkXkXkX",
"kXkXkXkXkXkXkXkXkX    Q 4X2X#XoX=XgXgXsXuX4X+...n.J.v.R ^ <XeXyXuXiXqX|.W.< , , , < c c G L G j h #     kXkXkXkXkXkXkXkX",
"kXkXkXkXkXkXkXkXkX    Q 5X6X@XoX=XgXgXsXiX1Xi R B.D.V.R g 8XaXuXiXiXR.h.(         X 1 h D L G h h #     kXkXkXkXkXkXkXkX",
"kXkXkXkXkXkXkXkXkX    Q |.:X#XOX,XgXhXsXiX1Xg R B.D.V.R / 7XdXyXyXyXY.o.) .       X 1 1 N -.G h h #     kXkXkXkXkXkXkXkX",
"kXkXkXkXkXkXkXkXkXkXkXkX* * W.<X7XsXsXuXaX1Xg R B.D.G.)./.-X;X-XU.P.e O +     kXkXkXX   v H G j h #     kXkXkXkXkXkXkXkX",
"kXkXkXkXkXkXkXkXkXkXkXkX  . E.3XrXsXuXuXaX1Xi R B.D.G.{.`.&X*X&X$.@.:         kXkXkX    k -.K h h #     kXkXkXkXkXkXkXkX",
"kXkXkXkXkXkXkXkXkXkXkXkX  o { { &.eXeXeXrX3X&.&.l.s.x.J.J.| +X] ! t ) / ` E a.kXkXkX    3 N v < < @ kXkXkXkXkXkXkXkXkXkX",
"kXkXkXkXkXkXkXkXkXkXkXkXkXkX    [ 3X3X1X3X3X3X3X..g  .D.D.T         h.}.[.D.D.kXkXkX    < h 2     kXkXkXkXkXkXkXkXkXkXkX",
"kXkXkXkXkXkXkXkXkXkXkXkXkXkX    Q E.Q.|.|.Q.|.Q.( u  .F.F.T     X X +.^.m.A.A.kXkXkX    < 1 2     kXkXkXkXkXkXkXkXkXkXkX",
"kXkXkXkXkXkXkXkXkXkXkXkXkXkXkXkXkX& & z m m m z $ . t [.[.6 X X 4 1 $ & % % % kXkXkXkXkXX   X kXkXkXkXkXkXkXkXkXkXkXkXkX",
"kXkXkXkXkXkXkXkXkXkXkXkXkXkXkXkXkX    2 h h h h @   e `.`.5   @ 1 h @         kXkXkXkXkX      kXkXkXkXkXkXkXkXkXkXkXkXkX",
"kXkXkXkXkXkXkXkXkXkXkXkXkXkXkXkX< 3 3 c N x h 1 @   : q.q.S 3 k c N 6 5 >     kXkXkXkXkXkX  kXkXkXkXkXkXkXkXkXkXkXkXkXkX",
"kXkXkXkXkXkXkXkXkXkXkXkXkXkX    < -.H L H F 1 1 X   < H H H L -.H L ! R r     kXkXkXkXkXkXkXkXkXkXkXkXkXkXkXkXkXkXkXkXkX",
"kXkXkXkXkXkXkXkXkXkXkXkXkXkX@ @ 4 ,.>.K F I S S $ X < P P H H L P P ! u y o o kXkXkXkXkXkXkXkXkXkXkXkXkXkXkXkXkXkXkXkXkX",
"kXkXkXkXkXkXkXkXkXkXkXkX  . Z 2.8.H.H.m X [ fXfXi.F U ~ ~ U H U ~ ~ - . * ' ' 7     kXkXkXkXkXkXkXkXkXkXkXkXkXkXkXkXkXkX",
"kXkXkXkXkXkXkXkXkXkXkXkX  X ,.e.N.D.D.6   [ gXgXi.J U i g U H U R ^ -   = ' ' 7     kXkXkXkXkXkXkXkXkXkXkXkXkXkXkXkXkXkX",
"kXkXkXkXkXkXkXkXkXkXkX    X ,.e.u. .E 6 ; s :X:X,X0Xp.5 > W W W W M z 3 3 8 8 [ { Q .   kXkXkXkXkXkXkXkXkXkXkXkXkXkXkXkX",
"kXkXkXkXkXkXkXkXkX        X ,.r.A     > p p 0 p jXgX>X    r R ! -.H -.-.D     #.wXE..   kXkXkXkXkXkXkXkXkXkXkXkXkXkXkXkX",
"kXkXkXkXkXkXkXkXkX. . . . o Z 0.V + . q p p p s >XfX,Xo X t R ! -.-.H G v     } |.T..   kXkXkXkXkXkXkXkXkXkXkXkXkXkXkXkX",
"kXkXkXkXkXkXkX  . r u r 5 5 % @ > u u f ^ d p p 9 9 4 F F 2.0.e.4.e.V j 4     o & & kXkXkXkXkXkXkXkXkXkXkXkXkXkXkXkXkXkX",
"kXkXkXkXkXkXkX  . u g d p p .   - i i g g d p p O   < H L 5.e.7.r.e.V h 2           kXkXkXkXkXkXkXkXkXkXkXkXkXkXkXkXkXkX",
"kXkXkXkXkXkXkX  . r ^ d p p o   s R.W.U.&.( ; ; 4 3 v 1.1.4.e.3.C C 4 # $ ; ; > 5 >     kXkXkXkXkXkXkXkXkXkXkXkXkXkXkXkX",
"kXkXkXkXkXkXkX  . r ^ f p q o   { aXaX8X8X*.    N L :.e.e.e.r.<.h h @   + p p f R u .   kXkXkXkXkXkXkXkXkXkXkXkXkXkXkXkX",
"kXkXkXkXkXkXkX  . r u r p q O   [ rXrX<XQ.#.    v K P 2.2.2.3.Z 1 1 @   o q p u R r     kXkXkXkXkXkXkXkXkXkXkXkXkXkXkXkX",
"kXkXkXkXkXkXkXkXkX. . ; q p q q > * * * & O     X X X @ @ @ @ o   X     O q p d ^ r     kXkXkXkXkXkXkXkXkXkXkXkXkXkXkXkX",
"kXkXkXkXkXkXkXkXkX    ; p p p p >                                       O q p d g r .   kXkXkXkXkXkXkXkXkXkXkXkXkXkXkXkX",
"kXkXkXkXkXkXkXkXkXkXkXO ; ; ; ; O           kX                          + p q a d p .   kXkXkXkXkXkXkXkXkXkXkXkXkXkXkXkX",
"kXkXkXkXkXkXkXkXkXkXkXkX                    kXkXkXkXkXkXkXkXkXkXkXkX    + q p 0 p 5     kXkXkXkXkXkXkXkXkXkXkXkXkXkXkXkX",
"kXkXkXkXkXkXkXkXkXkXkXkX                    kXkXkXkXkXkXkXkXkXkXkXkX    + 0 0 0 p >     kXkXkXkXkXkXkXkXkXkXkXkXkXkXkXkX",
"kXkXkXkXkXkXkXkXkXkXkXkXkXkXkXkXkXkXkXkXkXkXkXkXkXkXkXkXkXkXkXkXkXkXkXkXkX. .     . kXkXkXkXkXkXkXkXkXkXkXkXkXkXkXkXkXkX",
"kXkXkXkXkXkXkXkXkXkXkXkXkXkXkXkXkXkXkXkXkXkXkXkXkXkXkXkXkXkXkXkXkXkXkXkXkX          kXkXkXkXkXkXkXkXkXkXkXkXkXkXkXkXkXkX",
"kXkXkXkXkXkXkXkXkXkXkXkXkXkXkXkXkXkXkXkXkXkXkXkXkXkXkXkXkXkXkXkXkXkXkXkXkXkX      kXkXkXkXkXkXkXkXkXkXkXkXkXkXkXkXkXkXkX",
"kXkXkXkXkXkXkXkXkXkXkXkXkXkXkXkXkXkXkXkXkXkXkXkXkXkXkXkXkXkXkXkXkXkXkXkXkXkXkXkXkXkXkXkXkXkXkXkXkXkXkXkXkXkXkXkXkXkXkXkX",
"kXkXkXkXkXkXkXkXkXkXkXkXkXkXkXkXkXkXkXkXkXkXkXkXkXkXkXkXkXkXkXkXkXkXkXkXkXkXkXkXkXkXkXkXkXkXkXkXkXkXkXkXkXkXkXkXkXkXkXkX",
"kXkXkXkXkXkXkXkXkXkXkXkXkXkXkXkXkXkXkXkXkXkXkXkXkXkXkXkXkXkXkXkXkXkXkXkXkXkXkXkXkXkXkXkXkXkXkXkXkXkXkXkXkXkXkXkXkXkXkXkX",
"kXkXkXkXkXkXkXkXkXkXkXkXkXkXkXkXkXkXkXkXkXkXkXkXkXkXkXkXkXkXkXkXkXkXkXkXkXkXkXkXkXkXkXkXkXkXkXkXkXkXkXkXkXkXkXkXkXkXkXkX"
};
