/* XPM */
static char *_bc0acd52ca94eaad1c7876f41832530r7C4znUCtwzSuTXD[] = {
/* columns rows colors chars-per-pixel */
"56 61 215 2 ",
"   c None",
".  c #000101",
"X  c #0A0504",
"o  c #020C05",
"O  c #050A0C",
"+  c #0C0908",
"@  c #120D09",
"#  c #031B0A",
"$  c #071706",
"%  c #181509",
"&  c #161311",
"*  c #1A1919",
"=  c #22150E",
"-  c #361E0F",
";  c #251411",
":  c #2B1812",
">  c #381F10",
",  c #062107",
"<  c #072A0B",
"1  c #0C3D0C",
"2  c #0A350B",
"3  c #182715",
"4  c #083D15",
"5  c #073D15",
"6  c #192E11",
"7  c #392214",
"8  c #24201F",
"9  c #172A39",
"0  c #43251D",
"q  c #422B1F",
"w  c #5B341A",
"e  c #6C3B1E",
"r  c #65381C",
"t  c #713E1E",
"y  c #4C2A21",
"u  c #523D26",
"i  c #4A342A",
"p  c #693F26",
"a  c #743E20",
"s  c #0D420D",
"d  c #124B0F",
"f  c #0D4911",
"g  c #0D4713",
"h  c #134C10",
"j  c #154513",
"k  c #0F5E1B",
"l  c #0E5215",
"z  c #155413",
"x  c #234F1B",
"c  c #28531C",
"v  c #0F611C",
"b  c #15661C",
"n  c #27731B",
"m  c #347D1A",
"M  c #265520",
"N  c #285820",
"B  c #0D6E25",
"V  c #0D6321",
"C  c #0F7225",
"Z  c #0E7B29",
"A  c #0B7B27",
"S  c #107526",
"D  c #1B7528",
"F  c #117C29",
"G  c #117927",
"H  c #277430",
"J  c #454D15",
"K  c #74411F",
"L  c #774E1A",
"P  c #7B5E1E",
"I  c #7A7A04",
"U  c #425D25",
"Y  c #544935",
"T  c #694725",
"R  c #754322",
"E  c #7B4A26",
"W  c #715928",
"Q  c #6A5328",
"!  c #446626",
"~  c #5A7225",
"^  c #516824",
"/  c #2A4866",
"(  c #2D4F71",
")  c #315476",
"_  c #37516D",
"`  c #1E516B",
"'  c #514A4C",
"]  c #6C5C48",
"[  c #796A55",
"{  c #83541C",
"}  c #807F00",
"|  c #815128",
" . c #865831",
".. c #916C38",
"X. c #9E733E",
"o. c #8A6431",
"O. c #A5783C",
"+. c #94724F",
"@. c #A47A41",
"#. c #A97F43",
"$. c #A07742",
"%. c #A47B56",
"&. c #A77D58",
"*. c #14812A",
"=. c #1A8329",
"-. c #298C27",
";. c #299129",
":. c #3B9A26",
">. c #379627",
",. c #30852A",
"<. c #3CA129",
"1. c #489428",
"2. c #728D3B",
"3. c #41A529",
"4. c #49A62C",
"5. c #54AB27",
"6. c #57B025",
"7. c #64A218",
"8. c #2A8A41",
"9. c #759B63",
"0. c #818000",
"q. c #AC9415",
"w. c #B9A00F",
"e. c #BBA212",
"r. c #B48F33",
"t. c #90AA3C",
"y. c #BFBF33",
"u. c #80B316",
"i. c #D1BD1F",
"p. c #D2BC22",
"a. c #C2AD26",
"s. c #94C716",
"d. c #A3D315",
"f. c #E6E506",
"g. c #F2EC03",
"h. c #EAF504",
"j. c #FFFF00",
"k. c #FCF709",
"l. c #FEFA0A",
"z. c #F6F305",
"x. c #FBF717",
"c. c #D5C021",
"v. c #E5CA29",
"b. c #EFD629",
"n. c #E6D527",
"m. c #F0D829",
"M. c #EED536",
"N. c #DCDD08",
"B. c #AB8348",
"V. c #B28A51",
"C. c #968767",
"Z. c #BA9567",
"A. c #AB9170",
"S. c #B1916F",
"D. c #BFA17D",
"F. c #BEA67A",
"G. c #948457",
"H. c #C2944A",
"J. c #C79A48",
"K. c #D29F4E",
"L. c #C9A442",
"P. c #D6A64E",
"I. c #D7A551",
"U. c #DEAA54",
"Y. c #D9A854",
"T. c #CEAE4B",
"R. c #E2B54A",
"E. c #E6BC46",
"W. c #E1AC54",
"Q. c #E8B256",
"!. c #C3A67D",
"~. c #D4B47C",
"^. c #D1AE7E",
"/. c #C19D6D",
"(. c #EAD843",
"). c #005B82",
"_. c #2C4F9C",
"`. c #3A5494",
"'. c #4B67A7",
"]. c #636C8F",
"[. c #807F8B",
"{. c #73B3BC",
"}. c #08BAF7",
"|. c #2CB9E5",
" X c #6AB8C9",
".X c #17C0FB",
"XX c #838394",
"oX c #8796A5",
"OX c #99AABA",
"+X c #B5A082",
"@X c #C9AC85",
"#X c #D6B58C",
"$X c #D9B68D",
"%X c #DAB78C",
"&X c #DBBB91",
"*X c #CAB093",
"=X c #D5C39A",
"-X c #E6C99B",
";X c #EBCEA5",
":X c #E1CFA5",
">X c #E7D4AA",
",X c #F1D6AD",
"<X c #F5DBB2",
"1X c #FEE5BC",
"2X c #FFE8BF",
"3X c #FFE9A9",
"4X c #CED5D3",
"5X c #FFEAC2",
"6X c #FFE7C1",
"7X c #FFF3DD",
"8X c #E9E3C8",
"9X c #E8E7E8",
"0X c #E6F2E9",
"qX c #E9EDF5",
"wX c #FFFFFE",
/* pixels */
"                                                                                                                ",
"                                                                                                                ",
"                                                                                                                ",
"                                                                                                                ",
"                                                                                                                ",
"                                                                                                                ",
"                                                    F *.<.3.3.3.:.h s v *.D T K  .#.@.                          ",
"                                                    F *.:.3.3.3.:.h 1 k A D T K o.@.@.                          ",
"                                          G *.<.  >.-.;.<.3.3.3.:.h 1 b ;.>.q.e.r.H.H.I.  H.@.                  ",
"                                        G Z *.<.3.<.3.3.3.3.3.3.:.h s n 3.6.h.j.m.U.W.U.W.H.@.@.                ",
"                                        *.F =.:.3.3.3.3.3.3.3.3.:.h 4 n 3.5.f.l.m.E.R.R.R.J.#.#.                ",
"                                s f G F -.<.:.3.3.3.3.3.3.3.3.3.:.h s n 3.5.T.R.b.k.l.l.l.v.I.K.B.@.            ",
"                                s f S Z -.3.3.3.3.3.3.3.3.3.3.3.:.h s n <.4.K.U.b.j.j.j.j.b.U.K.#.$.            ",
"                              l k v -.-.>.3.3.3.3.3.3.3.3.3.,.n n n n 7.d.d.n.b.b.m.b.b.b.b.b.b.c.i.a.          ",
"                          s s v F *.:.3.3.3.3.3.3.3.3.3.3.3.n 1 j :.<.d.j.j.j.j.b.U.U.U.W.b.j.j.j.j.p.$.@.      ",
"                          f s v F *.<.3.3.3.3.:.:.:.:.:.3.3.n s h :.<.d.l.k.j.j.b.I.P.P.K.v.k.k.j.j.i.X.O.      ",
"                      s f B C G F *.<.3.3.3.:.z h h h z :.3.n s h :.<.t.R.v.k.j.c.#.O.| L r.R.E.k.j.e.a E       ",
"                    s s f S F F G *.:.3.3.4.:.j 1 s s h :.3.n s h >.<.t.W.W.l.j.i.$.X.E t O.W.R.k.j.w.a K       ",
"                    s s f S F Z G F ;.;.;.;.;.n n n n n n n n n m s.d.y.U.U.p.i.L.Z.Z.&.%.V.J.V.e.e.q.          ",
"                      1 f S F F F G Z Z F F F 3.3.3.4.:.h s n 3.6.h.j.b.U.Y.B.X.Z.#X#X#X%XZ.O.X.R a             ",
"                    f f f G Z Z F F F Z Z G F :.:.:.:.>.z s n <.5.h.j.b.U.P.B.B./.=X&X#X#XS.....R R             ",
"                s s k G G Z F G F Z Z F F F F F =.v d z B S G *.-.h.j.b.U.U.^.^.-X1X<X&X%X] @ @                 ",
"                s s k G G F G Z F F G F Z Z G F F v 1 f A Z Z A -.h.j.n.U.U.%X#X-X5X5X=X&X] . .                 ",
"                s s v G Z F F F F Z Z F Z Z G v k l s s k v N ! ^ a.p.v.b.M.-X;X+X+.[ %.&.u . .                 ",
"                s s k F G F G G F G G G G G A f 1 s s s s 1 q L R X.$.i.j.x.3X5X[ . X r t > . .                 ",
"                s s k F G G G S B B G A G A B M M c M x z x J R E O.B.p.z.x.3X5XC.* : p T q & &                 ",
"            . o 1 1 v F G g f < o $ s f f s M =X>X>X>X:X@X@X+.a E K.P.J.r.V.<X1X9X9X4X'.`.].!.A.& .             ",
"          . . . 1 s k F G f s , . . 1 s s s M >X5X2X2X1X#X$X%.a E P.W.J.$.B.<X2X7XwXqX'.`.XX$XD.& . .           ",
"          . . . 1 s l k k < , $   X # , , , 6 F.~.-X1X1X;X;XA.e L v.m.r.| +.,X1X7XwXqX'._.XX$XD.& . .           ",
"          . . o 1 s s s 2 X .       . . . . @ ..O.~.1X1X1X5XZ.e { g.j.w.t  .,X1X7XwXqX'._.XX%X!.& . .           ",
"          . . . 1 s s 1 2 . .       . . . . % W ..!.<X<X8X8XS.E  .g.j.w.t | ,X1X7XwX9X'.`.[.!.A.& .             ",
"          . . o 1 s , . o               . . X @ + T V.C.|.}.{.@X~.k.j.q.a  .,X1X6X6X1X*X*X] & &                 ",
"          . . o 1 s , . .                 . . . . u #.G.}.}. X&X=Xl.j.w.r | ,X1X1X1X1X&X&X] . .                 ",
"            . . , , $                   0.0.} W W T i Y ` ).9.(.M.e.w.r.%.A.-X;X;X;X&X[ ] i                     ",
"                . .                     j.j.l.Q.Q.W . . . . 0.j.g.L p %.$X#X#X#X#X#XD.@ .                       ",
"                . .                     f.f.N.a.J.Q . . . . I l.f.L w +.@XF.!.F.D.D.A.& .                       ",
"                                        % % % % % < 1 2 . . W E.L.: X 3 x x x x 6 & &                           ",
"                                        X . . . . , s 1 . . W Q.J.% . , s s 1 s # . .                           ",
"                                          . . . . , s 1 g 5 ! 2.~ @ . < v v k v l 4 5 o .                       ",
"                                              . . , d f A Z A A D O . g Z Z F Z F F C o . .                     ",
"                                              . . # 1 g =.8.8.,.H o . 4 F F G F F F S $ o o                     ",
"                                              . . X . 8 4X0XqX0X4X* . 4 Z F Z F F F G S C 4 . .                 ",
"                                              . . . . * qXwXwXwX0X* . 4 F F F F Z G A =.*.s . .                 ",
"                                          . o 5 g # . & oXOXOXOXoX* . g Z F A A H U ^ 7.s.J . . .   . .         ",
"                                        . . o B Z 4 . O / ( ( ( / O . 5 *.G G *.U a { g.j.7.. . . . . . .       ",
"                                        o o # v C 5 X & / _ _ ) / O . 4 D D D D ! L P N.h.I . . X X X . .       ",
"                                    . . 5 B V # o 7 r r T p ' ) / O . 7 T T T T ~ 1.1.-.-.j . X w e - . .       ",
"                                    . . 4 F B o . > R a R R ' ) / O . > K t t R ~ <.<.*.Z 4 . X r K 7 . .       ",
"                                    . . 4 Z B o . u &.%.R K i 9 9 4 5 N ~ ~ ~ ~ 1.3.:.j 4 3 ; : p K > . .       ",
"                                    . . 4 *.C o X ] &X@X| K > . o C Z -.3.3.3.3.3.3.>.X . ; y y K R 7 . .       ",
"                                    . . 5 C V o . ' @XS.R e - . O V B -.:.<.<.<.:.>.,.O X : y y r r 7 . .       ",
"                                        o o o . . X & & + + X . . o o g =.*.*.=.g $ @ 7 7 y y 0 @ X X           ",
"                                          . . . . . . . . . . . . . . 5 *.Z Z Z 5 . X y y y y y X . .           ",
"                                        . . . = ; & ; ; X . . . . . . # g 5 5 g <   X ; ; ; & ; X .             ",
"                                        . . X 0 y y y y O . . . . . . . . . . .       . . . . .                 ",
"                                          . X 7 0 0 0 7 X . . . . . . . . . . .       . . . . .                 ",
"                                              X X X X X . . .                                                   ",
"                                              . . . . . . . .                                                   ",
"                                                . . . . . .                                                     ",
"                                                                                                                ",
"                                                                                                                "
};
