/* XPM */
static char *e526a53c80544b39c1aaf19dd7f18fbe3RM5twGnfp7SPs1X[] = {
/* columns rows colors chars-per-pixel */
"58 61 227 2 ",
"   c None",
".  c #010101",
"X  c #0A0605",
"o  c #0E0807",
"O  c #050C05",
"+  c #150C06",
"@  c #1A0E09",
"#  c #140C0A",
"$  c #031305",
"%  c #031A08",
"&  c #1D110D",
"*  c #181804",
"=  c #0C121A",
"-  c #070D14",
";  c #28180C",
":  c #2C1B12",
">  c #321C15",
",  c #381F18",
"<  c #04220C",
"1  c #092B09",
"2  c #072B0D",
"3  c #0B3C0B",
"4  c #15350E",
"5  c #083412",
"6  c #122F10",
"7  c #2A2618",
"8  c #3E221B",
"9  c #392714",
"0  c #393A10",
"q  c #0E2A22",
"w  c #3C342A",
"e  c #2D2E26",
"r  c #0E1826",
"t  c #45261E",
"y  c #49291E",
"u  c #482A17",
"i  c #5C341B",
"p  c #56301F",
"a  c #4B3216",
"s  c #64381D",
"d  c #6E3D1E",
"f  c #62371B",
"g  c #713F1E",
"h  c #4B2920",
"j  c #472D21",
"k  c #473A2B",
"l  c #523928",
"z  c #623720",
"x  c #6A3D21",
"c  c #733F20",
"v  c #0D420D",
"b  c #0D4D13",
"n  c #0B4A19",
"m  c #1A4211",
"M  c #144712",
"N  c #0E5A19",
"B  c #0C5218",
"V  c #155312",
"C  c #185817",
"Z  c #194C0F",
"A  c #2B561A",
"S  c #0F661F",
"D  c #1D6116",
"F  c #246A19",
"G  c #29771D",
"H  c #396513",
"J  c #0F6B21",
"K  c #0D6622",
"L  c #196C26",
"P  c #0F7325",
"I  c #0E7B29",
"U  c #0C7826",
"Y  c #107224",
"T  c #107B29",
"R  c #107827",
"E  c #256E27",
"W  c #2B6C26",
"Q  c #317025",
"!  c #365C23",
"~  c #4A4A01",
"^  c #545501",
"/  c #564713",
"(  c #74411F",
")  c #7A4B1E",
"_  c #6F401F",
"`  c #616101",
"'  c #525723",
"]  c #524437",
"[  c #51522A",
"{  c #744220",
"}  c #7B4B26",
"|  c #69502E",
" . c #486432",
".. c #4F6423",
"X. c #1E3247",
"o. c #28425D",
"O. c #3C544F",
"+. c #325374",
"@. c #395979",
"#. c #314C71",
"$. c #387646",
"%. c #514F48",
"&. c #645D53",
"*. c #4D566A",
"=. c #5C704C",
"-. c #997417",
";. c #875629",
":. c #8D5F3D",
">. c #8A613A",
",. c #936735",
"<. c #99692E",
"1. c #A57D3E",
"2. c #A37439",
"3. c #907153",
"4. c #A47B41",
"5. c #A37A42",
"6. c #A37950",
"7. c #897862",
"8. c #1B8329",
"9. c #1A842A",
"0. c #238B29",
"q. c #208326",
"w. c #328521",
"e. c #338A22",
"r. c #3E9E27",
"t. c #359A29",
"y. c #3A9E29",
"u. c #389224",
"i. c #2F9429",
"p. c #3FA329",
"a. c #499A1F",
"s. c #78BC1B",
"d. c #69A818",
"f. c #538126",
"g. c #529032",
"h. c #41A429",
"j. c #48A82B",
"k. c #6BA733",
"l. c #70B02B",
"z. c #609B30",
"x. c #54A167",
"c. c #BDB417",
"v. c #BA9C32",
"b. c #B48A3B",
"n. c #A0BF29",
"m. c #87A71E",
"M. c #C6AE16",
"N. c #CEB22C",
"B. c #8AC918",
"V. c #DACC09",
"C. c #D9CD07",
"Z. c #DBCA19",
"A. c #C3DE0D",
"S. c #E7DB12",
"D. c #E5D713",
"F. c #CCE70B",
"G. c #EAE20B",
"H. c #FEFE01",
"J. c #F9F40A",
"K. c #F7E916",
"L. c #F6E719",
"P. c #F0E50F",
"I. c #EBCD32",
"U. c #E8C53A",
"Y. c #ECD527",
"T. c #DDC32A",
"R. c #B78B46",
"E. c #B38F51",
"W. c #96836F",
"Q. c #AC946E",
"!. c #BA9666",
"~. c #A89478",
"^. c #AF9272",
"/. c #ADAA7B",
"(. c #A59351",
"). c #C89849",
"_. c #C18F46",
"`. c #D4A54D",
"'. c #DEAB53",
"]. c #D7A651",
"[. c #CDAE4B",
"{. c #E4BB43",
"}. c #E0B448",
"|. c #E0AD53",
" X c #C09C75",
".X c #C19E6A",
"XX c #CDA974",
"oX c #DCC26E",
"OX c #E5C67D",
"+X c #2B4E9B",
"@X c #1C7C99",
"#X c #536799",
"$X c #6D7696",
"%X c #0086BD",
"&X c #778CBD",
"*X c #59A7A6",
"=X c #00BEFF",
"-X c #23ADD7",
";X c #51BACE",
":X c #778EC0",
">X c #3FC7F3",
",X c #AC9B88",
"<X c #BABBBA",
"1X c #BDAC8D",
"2X c #CFB08C",
"3X c #D5B48C",
"4X c #DBB98E",
"5X c #C7B894",
"6X c #CDB593",
"7X c #C7B6A5",
"8X c #AFD3B7",
"9X c #C8C898",
"0X c #D7C39B",
"qX c #E3C49A",
"wX c #E8CA9A",
"eX c #FFED85",
"rX c #F3D8AF",
"tX c #F5DCB5",
"yX c #EBCEA4",
"uX c #FEE5BD",
"iX c #FFE9BF",
"pX c #C8CDD1",
"aX c #FFEAC1",
"sX c #FFECCE",
"dX c #FFF3C8",
"fX c #FFFFFE",
"gX c #D2D9E0",
/* pixels */
"                                                                                                                    ",
"                                                                                                                    ",
"                                                                                                                    ",
"                                        T T t.h.h.h.h.h.h.e.v v J I W c { ,.4.4.                                    ",
"                                        I T t.h.h.h.h.h.j.e.v 3 K U E x x ,.4.4.                                    ",
"                                      t.0.0.p.h.h.h.h.w.G G F F d.s.m.2.2.R.).R.                                    ",
"                        v v N I 9.y.p.h.h.h.h.h.r.h.h.D 3 C j.j.F.H.J.|.|.|.|.`.4.5.                                ",
"                        v v N 9.T y.h.h.h.h.h.h.h.r.r.C v F j.j.A.H.L.}.|.}.}.`.R.4.                                ",
"                    v v J J q.y.p.p.h.h.h.h.h.h.w.Z V w.u.z.[.[.}.{.U.J.J.J.J.L.`.`.R.1.5.                          ",
"                    v v Y I 0.h.p.h.h.h.h.h.h.h.w.v v e.p.k.'.].'.'.{.H.H.H.H.J.|.'.R.1.5.                          ",
"                    v b Y T 0.h.h.p.p.h.h.h.h.h.w.v v e.p.l.I.I.I.I.I.Z.Z.Y.Y.Y.I.I.N.N.N.                          ",
"                    v v Y T 0.h.h.h.h.h.h.h.h.h.w.v v e.p.s.H.H.H.H.G.4.5.).|.{.H.H.H.H.G.b.R.                      ",
"                    v b Y R 0.h.h.p.r.r.p.p.p.h.e.v v e.p.s.J.H.H.H.S.1.5.).].}.H.H.H.H.G.2.2.                      ",
"              v v N Y Y R I 0.h.p.D V Z V C u.h.e.v v e.p.l.{.{.K.H.G.4.5.;.;.<.}.{.L.H.G.;.)                       ",
"              v v N T T T I 0.h.p.V v 3 v v e.p.e.v v e.p.k.].'.L.H.P.4.2.;.d ;.|.|.L.H.G.( {                       ",
"              3 v N T T T I 8.i.e.G D F F D G w.G D L d.B.n.'.'.T.D.N.E.!.6.6.5.4.4.M.M.c.) {                       ",
"          . . 3 v N T I I T R I 9.t.p.h.p.p.V v D h.p.F.H.K.'.'.R.2.E.2X3X3X4X^.} c c c c                           ",
"          . . 3 v N T T T T T T U t.p.p.p.p.V v D p.r.F.H.K.}.'.R.R.E.2X3X3X4X!.} x c c {                           ",
"          . . 3 v N T T T T T T I 9.9.9.9.8.b v V 9.9.A.H.K.'.'.XXXX3XtXtX4X4X^.& @ y { {                           ",
"          . . 3 v N T I T T T I I U U 9.9.R b 3 b U 9.A.H.K.'.'.XX3X0XiXaXyX4X~.X . u { {                           ",
"          . . 3 v N R T I T T T I I R Y S S b v A g.g.c.D.Z.I.U.qXqX4X~.~.^.E.3.X . u { (                           ",
"          . . 3 v N T T T T T T T T R S v v v 3 ..'.|.R.5.v.H.H.eXaX5X. . u c i . .                                 ",
"          . . 3 v N T T T T T T T 9.9.S Z M M v ..'.|.R.5.v.H.H.eXaX6X+ o y ;.i X .                                 ",
"          . . 3 v N I T T I J b C /.8X9X9X5X/.Q.(.>.;.R.`.).v.v.wXaXtX<XpX$X+X*.W.Q.k . .                           ",
"          . . 3 v N T I I I S v Z 0XaXaXuXuXqX4X^.c c _.|.].6.5.wXaXsXfXfX:X+X#X3X4X] . .                           ",
"          . . 1 1 n 9.U J J B 1 4 /.qXyXuXuXyXqX^.c c N.U.N.,.,.4XaXsXfXfX&X+X#X2X3X] . .                           ",
"              . . 5 T U b v 1 . X >.5..XuXuXuXiX4Xc { V.H.V.{ c 3XaXsXfXfX&X+X#X2X3X] . .                           ",
"              . . 5 T U b v 1 . - } 1..XuXuXuXiX3Xc { V.H.V.} { 3XuXsXfXfX&X+X#X2X3X] . .                           ",
"              . . 5 9.U < $ O . O ; 7 [ .X!.;X>X*X_._.G.H.V.{ c 3XaXaXsXsX7X,XW.w e 7                               ",
"              . . 5 I U $ . . . . . . 9 4.(.-X=X;X|.|.K.H.V.{ c 3XaXuXuXaXqX4XQ.. .                                 ",
"              . . 2 J S $ . * ~ ~ w w l } | @X%X*X{.U.Z.C.M.>.3.3XrXrXrXtX,XW.3.X .                                 ",
"              . . % v 3 O . ^ H.H.oX6X3.. . . . ~ H.H.-.g :.3X2X3X3X3X4X4Xk . .                                     ",
"              . . % v 3 O . ` H.H.oX3X7.. . . . ~ H.H.-.d >.3X3X3X3X3X3X3Xk . .                                     ",
"                  O $ $ . . * ~ ~ k w e 1 1 O . a I.U./ @ 7  . . . .[ w k :                                         ",
"                    . . . . . . . . . % v v O . a {.].9 . $ 3 3 3 v 1 . X                                           ",
"                    . . = = - . . # @ * V b 2 % ! (.(.7 . % b B Z Z Z m A                                           ",
"                    . . o.+.X.. . i c ' I I I U R T T % . < I I R U a.H.H.^ . .           . . . . .                 ",
"                    . O o.@.X.. X f c ' T I I I T T I % . < U I I I h.J.H.^ . .           . . . . .                 ",
"              . . %.,X~.e r q N B / c ' T T I I W [ ' A n $.8X8X! < 4 ^ ^ H G A . . . . o : > t a u . .             ",
"              . X &.sXtXe . 5 I R | c ' I I U 9.W { { W U x.fXfX%.. . . . F j.w.. . . . X t h s { s X .             ",
"              . . ] 5X5Xe $ n T 8...} ..E E E E ! i f $.g.*XgXgX%.O - @ @ A w.F & @ # o @ t h z ( s X .             ",
"              . . X X O K U q.h.p.h.h.f._ { { { u X X <XfXpX@.@.+.#.*.d g ; X * _ _ p y h h h z { f X .             ",
"              . . . . O K T 0.h.p.p.p.f.{ { { { u . . 8XfXpX+.+.+.+.*.g ( ; . + _ ( i h h h h i { s X .             ",
"          . . . . # : : 6 2 B 0.0.p.p.a.f.f.f.f...b B *.&.*.+.+.%.%.] { { 3.,X7.: ; 8 y h h h 8 ; ;                 ",
"          . . . . @ h h o . 2 I 9.t.p.p.j.p.p.p.t.9.U % . = +.+.l c c c g 4XdX6XX . : h h h h @ . .                 ",
"          . . + + : h h & # 6 L L w.e.u.p.h.p.j.t.9.9.5 % r o.o.k z x :.>. X6X,X# o > h t 8 8 & . .                 ",
"          . X i c i h h x x z j t # O m p.p.p.p.p.p.p.9.I N O . . . k tXtX%.- # j h h h , X .                       ",
"          . X s { z h h x { x h y o . M p.j.j.p.p.j.p.9.I N . . . . w aXuX%.. X h h h h 8 X .                       ",
"          . X f { z h h : : ; @ ; X   1 4 m m m m m m 5 5 < . . .   e &.&.w   X @ & & & @                           ",
"          . X f { z h h X . . . .       X . . . . . . . . . . .       . .       . . . . .                           ",
"          . . i c i h t X . . . .       . . . . . . . . . . . .       . .       . . . . .                           ",
"          . . t h h h t X . .                                                                                       ",
"          . X 8 h y h t X . .                                                                                       ",
"          . . t h h h t X . .                                                                                       ",
"          . . t h h h t X . .                                                                                       ",
"          . . , t 8 t t X . .                                                                                       ",
"              X X X . X                                                                                             ",
"              . . . . .                                                                                             ",
"                                                                                                                    ",
"                                                                                                                    ",
"                                                                                                                    "
};
