/* XPM */
static char *result[] = {
/* columns rows colors chars-per-pixel */
"55 60 220 2 ",
"   c #000101",
".  c #0A0504",
"X  c #010B04",
"o  c #07080A",
"O  c #061305",
"+  c #071C07",
"@  c #15120E",
"#  c #1A1805",
"$  c #061313",
"%  c #181513",
"&  c #140D07",
"*  c #23170F",
"=  c #251411",
"-  c #2A1B11",
";  c #361E10",
":  c #3A1F10",
">  c #351D0E",
",  c #072107",
"<  c #08290A",
"1  c #0B3C0B",
"2  c #09370A",
"3  c #083E15",
"4  c #063B14",
"5  c #172C0E",
"6  c #3A2212",
"7  c #2D3913",
"8  c #182939",
"9  c #2F2A26",
"0  c #43251D",
"q  c #412918",
"w  c #6B3B1D",
"e  c #65391C",
"r  c #723F1F",
"t  c #4C2A21",
"y  c #483A2C",
"u  c #573A20",
"i  c #502C21",
"p  c #693B20",
"a  c #743E20",
"s  c #0D420D",
"d  c #114A0F",
"f  c #11450F",
"g  c #0E4A11",
"h  c #0C4914",
"j  c #134C11",
"k  c #164516",
"l  c #0E5E1B",
"z  c #195413",
"x  c #215215",
"c  c #215917",
"v  c #234D19",
"b  c #0F611C",
"n  c #19681B",
"m  c #27731B",
"M  c #2A771D",
"N  c #337B1D",
"B  c #0D6C24",
"V  c #0D6322",
"C  c #0E7325",
"Z  c #0E7B29",
"A  c #0B7B26",
"S  c #107526",
"D  c #197528",
"F  c #107C29",
"G  c #107827",
"H  c #156E25",
"J  c #247C2C",
"K  c #2D6926",
"L  c #164B23",
"P  c #5E401E",
"I  c #75411F",
"U  c #7C571D",
"Y  c #78720B",
"T  c #425E25",
"R  c #415722",
"E  c #584935",
"W  c #674824",
"Q  c #754321",
"!  c #7C4A28",
"~  c #6A5329",
"^  c #526B27",
"/  c #28435C",
"(  c #2C4A68",
")  c #335575",
"_  c #2E4F71",
"`  c #4E4C4F",
"'  c #6B5B47",
"]  c #685948",
"[  c #717A4C",
"{  c #756B51",
"}  c #787B7C",
"|  c #69656F",
" . c #487D55",
".. c #82551C",
"X. c #875928",
"o. c #865731",
"O. c #804F2C",
"+. c #946B36",
"@. c #9E743C",
"#. c #856435",
"$. c #A7793B",
"%. c #947B1D",
"&. c #A37A41",
"*. c #A67C43",
"=. c #827561",
"-. c #178229",
";. c #268E29",
":. c #288F29",
">. c #278727",
",. c #29912A",
"<. c #3C9B26",
"1. c #389526",
"2. c #358A24",
"3. c #3CA129",
"4. c #41A429",
"5. c #43A92A",
"6. c #54A92A",
"7. c #56B025",
"8. c #5D9A1F",
"9. c #308E46",
"0. c #759658",
"q. c #648F54",
"w. c #818000",
"e. c #B89D12",
"r. c #8BBB17",
"t. c #BDA411",
"y. c #AE893A",
"u. c #B4903A",
"i. c #89A53C",
"p. c #BFBF33",
"a. c #D3BC1D",
"s. c #D3BD23",
"d. c #D1B729",
"f. c #92C615",
"g. c #8AC014",
"h. c #A1D314",
"j. c #E2DB0A",
"k. c #E9E707",
"l. c #F1EC03",
"z. c #F3EA0E",
"x. c #EAF404",
"c. c #F6F206",
"v. c #FFFF00",
"b. c #FCF709",
"n. c #FDF807",
"m. c #F7EA15",
"M. c #E8CC2C",
"N. c #EFD629",
"B. c #E9D026",
"V. c #F2D929",
"C. c #E6C13E",
"Z. c #D4D417",
"A. c #AB8143",
"S. c #AA824A",
"D. c #B28A46",
"F. c #B99546",
"G. c #B7915B",
"H. c #879566",
"J. c #BA946C",
"K. c #B99671",
"L. c #AB9170",
"P. c #89B073",
"I. c #BEA17D",
"U. c #9A9654",
"Y. c #C1934A",
"T. c #C89A49",
"R. c #CCAA4E",
"E. c #D8A84C",
"W. c #D9B248",
"Q. c #D8A751",
"!. c #DEAB54",
"~. c #D7A552",
"^. c #CCAB57",
"/. c #E2B549",
"(. c #E4BA46",
"). c #E2AE54",
"_. c #E5B055",
"`. c #C29E71",
"'. c #C7A67C",
"]. c #D5B270",
"[. c #F6E664",
"{. c #2B4E9B",
"}. c #425D9B",
"|. c #4D6986",
" X c #807F8B",
".X c #7F8080",
"XX c #5B9C92",
"oX c #07B4F2",
"OX c #19A7D3",
"+X c #7ED1E1",
"@X c #858384",
"#X c #818193",
"$X c #CDAA81",
"%X c #C5AB8E",
"&X c #D1AF83",
"*X c #D5B48B",
"=X c #D9B78D",
"-X c #DBBB91",
";X c #D7BA94",
":X c #D1BDA6",
">X c #9AC0A3",
",X c #E2C49B",
"<X c #ECCFA6",
"1X c #E3CCA7",
"2X c #F5DBB2",
"3X c #F9DDB3",
"4X c #F0D3A9",
"5X c #FDE4BB",
"6X c #FFE8BE",
"7X c #DCC09A",
"8X c #97A9CE",
"9X c #9AABD1",
"0X c #84C6CC",
"qX c #D4E1DD",
"wX c #FFE9C2",
"eX c #FFE7C1",
"rX c #FFF1D1",
"tX c #FFFEFD",
"yX c #F0F3ED",
"uX c None",
/* pixels */
"uXuXuXuXuXuXuXuXuXuXuXuXuXuXuXuXuXuXuXuXuXuXuXuXuXuXuXuXuXuXuXuXuXuXuXuXuXuXuXuXuXuXuXuXuXuXuXuXuXuXuXuXuXuXuX",
"uXuXuXuXuXuXuXuXuXuXuXuXuXuXuXuXuXuXuXuXuXuXuXuXuXuXuXuXuXuXuXuXuXuXuXuXuXuXuXuXuXuXuXuXuXuXuXuXuXuXuXuXuXuXuX",
"uXuXuXuXuXuXuXuXuXuXuXuXuXuXuXuXuXuXF F F F :.5.4.4.4.4.4.<.j s l Z D W I #.*.uXuXuXuXuXuXuXuXuXuXuXuXuXuXuXuX",
"uXuXuXuXuXuXuXuXuXuXuXuXuXuXuXuXuXF F F F G :.4.4.4.4.4.4.<.j 1 l A D W a o.$.*.uXuXuXuXuXuXuXuXuXuXuXuXuXuXuX",
"uXuXuXuXuXuXuXuXuXuXuXuXuXuXuXuXuXF F -.F -.,.5.4.4.4.3.<.1.z d n :.2.U ..+.A.A.uXuXuXuXuXuXuXuXuXuXuXuXuXuXuX",
"uXuXuXuXuXuXuXuXuXuXuXuXuXuXuXF F ,.3.3.3.<.3.4.4.4.5.M d z 1.1.g.x.l.l.l.M.~.~.!.).Y.*.*.uXuXuXuXuXuXuXuXuXuX",
"uXuXuXuXuXuXuXuXuXuXuXuXuXuXuXF F :.4.4.4.4.4.4.4.4.3.m s d 1.3.h.v.v.v.v.N.!.!.!.!.F.*.&.uXuXuXuXuXuXuXuXuXuX",
"uXuXuXuXuXuXuXuXuXuXuXs l uXF :.:.1.4.4.4.4.4.4.3.M m m m N i.i.p.N.N.N.N.N.N.N.N.N.d.Y.F.*.*.uXuXuXuXuXuXuXuX",
"uXuXuXuXuXuXuXuXuXuXs s l F F 3.4.4.4.4.4.4.4.4.<.d 1 m 5.6.R.).!.!.!.!.!.N.v.v.v.v.N.!.~.*.&.&.uXuXuXuXuXuXuX",
"uXuXuXuXuXuXuXuXuXuXs g b F -.3.4.4.4.4.4.4.4.3.<.d s m 4.6.W././././.Q.~.M.b.b.b.b.N./.W.u.y.y.uXuXuXuXuXuXuX",
"uXuXuXuXuXuXuXuXs g S S G F F 3.4.4.4.4.4.4.4.4.<.d s m 3.7.k.b.b.b.m.u.*.T././././.N.b.b.c.c.s.&.*.uXuXuXuXuX",
"uXuXuXuXuXuXuXuXs s S F F F -.<.4.4.4.4.4.4.4.4.<.d 1 m 5.7.x.v.v.v.c.y.&.Y.).).!.!.N.v.v.v.v.a.&.*.uXuXuXuXuX",
"uXuXuXuXuXuXuX3 l b F Z F F F ;.>.1.3.5.4.4.4.4.<.j 1 m 5.6.M.B.m.v.l.y.*.$.$.$.Q.).C.N.N.n.v.s.&.&.uXuXuXuXuX",
"uXuXuXuXuX    3 -.F F F F F F F G :.5.3.4.4.4.4.<.d 3 m 3.6.^.!.N.v.c.y.*.X.w ! T.).!.!./.c.v.s.&.&.uXuXuXuXuX",
"uXuXuXuXuX    3 Z F F F G F F Z G :.3.3.4.4.<.<.1.z j N 7.7.R.!.M.c.z.D.*.+.! o.T.Q.Q.Q.W.z.l.a.&.&.uXuXuXuXuX",
"uXuXuXuXuX    3 Z Z Z F Z F F G F F -.-.3.4.M d z 1.<.f.b.x.W.!.T.y.D.$X&X&X$X'.D.A.A.A.$...U X.uXuXuXuXuXuXuX",
"uXuXuXuXuX    h F F Z F G F F Z F Z Z -.<.5.m s j <.3.h.v.b./.!.F.&.*.$X*X*X;X$XS.*.*.$.@.Q Q a uXuXuXuXuXuXuX",
"uXuXuX  X + + h F G F F Z F F G F G F F :.,.n s g >.;.f.v.b./.!.~.`.`.,X<X,X*X$XE u ~ uX@.! Q uXuXuXuXuXuXuXuX",
"uXuX    X 2 f l F Z F F F F F F F F F F Z Z l 1 g C A r.v.n./.!.].=X-X5XeX<X*XK.@   uXuXuXuXuXuXuXuXuXuXuXuXuX",
"uXuX    X 1 s l F F Z G F F F F Z F F G G C b h g J J r.b.z.(./.].-X-X1X1X;X$XK.@     uXuXuXuXuXuXuXuXuXuXuXuX",
"uXuX      1 1 l F F F F F F F Z F F G C g d l C J F.R.Y.y.u.z.n.[.5X1X9 % i O.a &     uXuXuXuXuXuXuXuXuXuXuXuX",
"uXuX    X 1 s l F Z Z F F F F F Z G G C s s l Z >.R.).Y.@.y.c.v.[.eX1X@ o : a w .   uXuXuXuXuXuXuXuXuXuXuXuXuX",
"uXuX    X 1 3 l F F F F H l l l l 9.P.P.0.H.0.0.0.$.$.D.F.T.s.a.[.5X3X@X|.=.| ) ] ' y uXuXuXuXuXuXuXuXuXuXuXuX",
"uXuX    . 1 s l F Z F F l s s 1 1 H.wXwXwXwX4X-X'.! w $.).~.A.@.&XeXrXtXtX9X{.}.%X-X'     uXuXuXuXuXuXuXuXuXuX",
"uXuX    X 1 1 l F F S S l 1 2 1 2 H.2X2X3XeX1X;X$X! r $.(.E.$.@.'.wXwXtXtX8X{.}.%X-X'     uXuXuXuXuXuXuXuXuXuX",
"uXuX    X 2 s l F S h g , X X X   E D.J.3XeX5X5X<Xo.r e.n.z.X.I K.eXwXtXtX8X}.}.%X-X'     uXuXuXuXuXuXuXuXuXuX",
"uXuX    . 1 s l F F g s ,         u *.S.3XeXeXeX2X! p e.v.l...w J.eXwXtXtX9X{.}.%X-X]     uXuXuXuXuXuXuXuXuXuX",
"uXuX    X 1 s l F S < , O uX      - u W '.&X>X+X0X*.&.s.v.l...r K.wXeXrXrX:X.X|.' ] y uXuXuXuXuXuXuXuXuXuXuXuX",
"uXuX    X 1 1 l F B X   uXuXuX        & +.$.XXoXoX].Q.B.v.l...w J.eXeX5XwX4X=X'.@   uXuXuXuXuXuXuXuXuXuXuXuXuX",
"uXuXuX    2 1 l S B X     uXuX# # # # * #.+.XXoXOX^./.B.l.j.X.! K.5X3X5X5X7XK.L.%   uXuXuXuXuXuXuXuXuXuXuXuXuX",
"uXuXuXuXuX.   < j 1 X     uXuXk.k.s.T.D.- & $ $ 5 k.n.a...X.'.'.&X-X-X=X-X{ @ @ uXuXuXuXuXuXuXuXuXuXuXuXuXuXuX",
"uXuXuXuXuX    , s 2 X     uXuXv.v.V._.T.@       # k.v.t.a O.'.=X=X=X=X=X-X'     uXuXuXuXuXuXuXuXuXuXuXuXuXuXuX",
"uXuXuXuXuXuXuXO , , X   uXuXuXw.8...U ~ 5 + O   # s.V.%.> q [ [ [ [ [ ] ] y uXuXuXuXuXuXuXuXuXuXuXuXuXuXuXuXuX",
"uXuXuXuXuXuXuXuX    uXuXuXuXuX          1 s ,   @ T._.~     2 2 s s 2   X uXuXuXuXuXuXuXuXuXuXuXuXuXuXuXuXuXuX",
"uXuXuXuXuXuXuXuX    uXuXuXuXuX    . . & s d < X % F.R.~   X s s g s s # # # uXuXuXuXuXuXuXuXuXuXuXuXuXuXuXuXuX",
"uXuXuXuXuXuXuXuXuXuXuXuXuXuXuX    ; w P H S C B C J >.k X O b A A A -.j.l.Y     uXuXuXuXuXuXuXuXuXuXuXuXuXuXuX",
"uXuXuXuXuXuXuXuXuXuXuXuXuXuXuX    6 Q W G -.Z F Z Z -.3   X C -.A A 1.x.v.w.    uXuXuXuXuXuXuXuXuXuXuXuXuXuXuX",
"uXuXuXuXuXuXuXuXuXuXuXuXuX  o 8 8 9 : 6 R T K F D K T v 4 L XX>X .1 x 8.r.8.x x O   uXuXuXuXuXuXuXuXuXuXuXuXuX",
"uXuXuXuXuXuXuXuXuXuXuXuX    o ( ) 8   . e a T F D W a T Z 9.yXtXH.. o B C ;.5.1.O     uXuXuXuXuXuXuXuXuXuXuXuX",
"uXuXuXuXuXuXuXuXuXuXuXuX@ % % / ( 8 X O W W T D K P w T 9.9.qXyX|.& $ V B >.3.1.O     uXuXuXuXuXuXuXuXuXuXuXuX",
"uXuXuXuXuXuXuXuXuXuX    ] '.L.% o 4 B H D D T Q p & & |.yXqX|.|.) ( / $ X c 4.1.O         uXuXuXuXuXuXuXuXuXuX",
"uXuXuXuXuXuXuXuXuXuX    ] -X$X%   h F F Z Z R ! w & . 0.tXyX|._ _ _ ( .   x 5.1.O         uXuXuXuXuXuXuXuXuXuX",
"uXuXuXuXuXuXuXuXuXuXuXuXy ' E o   < b b ;.;.2.^ ^ k 4 ` .X|.) ) ` ` ` q : 7 z v - = - : 6 .   uXuXuXuXuXuXuXuX",
"uXuXuXuXuXuXuXuXuXuXuXuXuX        , s j <.5.4.4.3.F -.3 . & ( ) ` Q I I I :   . 0 t p a w .     uXuXuXuXuXuXuX",
"uXuXuXuXuXuXuXuXuXuXuXuXo . . . . + 1 s 2.<.<.4.3.-.-.h X $ / ( ` a I O.o.t   . 0 0 u r e .     uXuXuXuXuXuXuX",
"uXuXuXuXuXuXuXuXuXuX    6 w e 0 0 * X X f j M 5.3.3.<.;.B V $ o : a O.,X3X{   o 0 t p Q e .     uXuXuXuXuXuXuX",
"uXuXuXuXuXuXuXuXuXuX    6 Q Q t t =   X 1 s M 5.5.5.5.,.F B X   6 Q o.3XrX=.  . 0 t e Q w .     uXuXuXuXuXuXuX",
"uXuXuXuXuXuXuXuXuXuX    6 Q Q t t =   . + , 1 x x x x k 4 4 X   * 6 0 { { E = = 0 t 0 6 6 .   uXuXuXuXuXuXuXuX",
"uXuXuXuXuXuXuXuXuXuX    6 Q Q t t =                                       = 0 t t t =     uXuXuXuXuXuXuXuXuXuX",
"uXuXuXuXuXuXuXuXuXuX    ; a p t t =                                       = 0 0 6 t =     uXuXuXuXuXuXuXuXuXuX",
"uXuXuXuXuXuXuXuXuXuX    = i t t t =     uXuXuXuXuXuXuXuXuXuXuXuX          . . . . . . uXuXuXuXuXuXuXuXuXuXuXuX",
"uXuXuXuXuXuXuXuXuXuX    = t t t t =     uXuXuXuXuXuXuXuXuXuXuXuX                      uXuXuXuXuXuXuXuXuXuXuXuX",
"uXuXuXuXuXuXuXuXuXuX    = t t t t =     uXuXuXuXuXuXuXuXuXuXuXuXuX                  uXuXuXuXuXuXuXuXuXuXuXuXuX",
"uXuXuXuXuXuXuXuXuXuX    = t t t t =     uXuXuXuXuXuXuXuXuXuXuXuXuXuXuXuXuXuXuXuXuXuXuXuXuXuXuXuXuXuXuXuXuXuXuX",
"uXuXuXuXuXuXuXuXuXuX    = t 0 6 0 =     uXuXuXuXuXuXuXuXuXuXuXuXuXuXuXuXuXuXuXuXuXuXuXuXuXuXuXuXuXuXuXuXuXuXuX",
"uXuXuXuXuXuXuXuXuXuXuXuXo   . . . . uXuXuXuXuXuXuXuXuXuXuXuXuXuXuXuXuXuXuXuXuXuXuXuXuXuXuXuXuXuXuXuXuXuXuXuXuX",
"uXuXuXuXuXuXuXuXuXuXuXuX            uXuXuXuXuXuXuXuXuXuXuXuXuXuXuXuXuXuXuXuXuXuXuXuXuXuXuXuXuXuXuXuXuXuXuXuXuX",
"uXuXuXuXuXuXuXuXuXuXuXuXuX        uXuXuXuXuXuXuXuXuXuXuXuXuXuXuXuXuXuXuXuXuXuXuXuXuXuXuXuXuXuXuXuXuXuXuXuXuXuX",
"uXuXuXuXuXuXuXuXuXuXuXuXuXuXuXuXuXuXuXuXuXuXuXuXuXuXuXuXuXuXuXuXuXuXuXuXuXuXuXuXuXuXuXuXuXuXuXuXuXuXuXuXuXuXuX",
"uXuXuXuXuXuXuXuXuXuXuXuXuXuXuXuXuXuXuXuXuXuXuXuXuXuXuXuXuXuXuXuXuXuXuXuXuXuXuXuXuXuXuXuXuXuXuXuXuXuXuXuXuXuXuX"
};
