/* XPM */
static char *_37a17b9dcfb460a8e560c0088bcf4ec9H783MMoQSmAHVnD[] = {
/* columns rows colors chars-per-pixel */
"55 60 220 2 ",
"   c None",
".  c #000001",
"X  c #0B0504",
"o  c #020C04",
"O  c #0C0A09",
"+  c #0A0909",
"@  c #130C09",
"#  c #180B06",
"$  c #031306",
"%  c #061F07",
"&  c #091A09",
"*  c #1C120C",
"=  c #191608",
"-  c #171311",
";  c #1B1817",
":  c #0B131F",
">  c #28180C",
",  c #251411",
"<  c #2A1914",
"1  c #361E18",
"2  c #062107",
"3  c #08290B",
"4  c #0C3D0C",
"5  c #0C330B",
"6  c #052E10",
"7  c #083C15",
"8  c #193A15",
"9  c #162D11",
"0  c #382515",
"q  c #2A2813",
"w  c #0F1B27",
"e  c #192A3A",
"r  c #1C2026",
"t  c #362E25",
"y  c #45271B",
"u  c #522E17",
"i  c #5C331B",
"p  c #543D1D",
"a  c #6C3B1D",
"s  c #67391D",
"d  c #723E1E",
"f  c #4C2A21",
"g  c #4E3224",
"h  c #6C3D20",
"j  c #723E20",
"k  c #793F20",
"l  c #0D420D",
"z  c #0D4A11",
"x  c #0D4614",
"c  c #164A13",
"v  c #0E5C1A",
"b  c #0C5319",
"n  c #1B5C15",
"m  c #135917",
"M  c #134B0F",
"N  c #234E1B",
"B  c #225217",
"V  c #325211",
"C  c #0F631D",
"Z  c #27731B",
"A  c #2B741C",
"S  c #0C5F20",
"D  c #275420",
"F  c #37522E",
"G  c #0E6E24",
"H  c #0D6322",
"J  c #0E7B29",
"K  c #0D7726",
"L  c #107426",
"P  c #107C29",
"I  c #1B7325",
"U  c #156F2F",
"Y  c #286E25",
"T  c #574B17",
"R  c #74411F",
"E  c #706B08",
"W  c #544922",
"Q  c #575223",
"!  c #55493A",
"~  c #485626",
"^  c #6A4426",
"/  c #744221",
"(  c #784823",
")  c #74582C",
"_  c #5A7325",
"`  c #716D31",
"'  c #035F7F",
"]  c #315375",
"[  c #304D6B",
"{  c #574A43",
"}  c #524E48",
"|  c #6B5B48",
" . c #716B53",
".. c #536A58",
"X. c #9D7A16",
"o. c #A17D1B",
"O. c #88582C",
"+. c #845634",
"@. c #86542A",
"#. c #8C663B",
"$. c #936B38",
"%. c #9B723D",
"&. c #946922",
"*. c #A67C3E",
"=. c #946845",
"-. c #917258",
";. c #A47A41",
":. c #A67C43",
">. c #A47B55",
",. c #817560",
"<. c #2E811F",
"1. c #39881E",
"2. c #1C8529",
"3. c #228B29",
"4. c #2A8824",
"5. c #318620",
"6. c #338A22",
"7. c #398F27",
"8. c #2A9029",
"9. c #27912A",
"0. c #3C9A26",
"q. c #379A29",
"w. c #3DA229",
"e. c #52A11E",
"r. c #76B91B",
"t. c #6FBB1F",
"y. c #479725",
"u. c #518326",
"i. c #41A529",
"p. c #43A92A",
"a. c #68AC2D",
"s. c #478C19",
"d. c #6E9178",
"f. c #808001",
"g. c #B39813",
"h. c #86BD15",
"j. c #B8A010",
"k. c #BAB804",
"l. c #B08837",
"z. c #B8AA37",
"x. c #D2BD21",
"c. c #CCB22E",
"v. c #A6D216",
"b. c #9ED015",
"n. c #D4CE12",
"m. c #D2E809",
"M. c #FFFE00",
"N. c #FCF709",
"B. c #FAF707",
"V. c #F5E31E",
"C. c #E5E901",
"Z. c #EED529",
"A. c #EED625",
"S. c #E8C53A",
"D. c #E8C737",
"F. c #E9CF25",
"G. c #FBF52F",
"H. c #E3D813",
"J. c #AA8244",
"K. c #B78B4A",
"L. c #B69056",
"P. c #AEAF43",
"I. c #99876B",
"U. c #A48968",
"Y. c #BA9468",
"T. c #B29674",
"R. c #AC9375",
"E. c #BFA77D",
"W. c #A1A97B",
"Q. c #C29648",
"!. c #CD9F50",
"~. c #D3A24E",
"^. c #DEAB54",
"/. c #D7A653",
"(. c #D4AE49",
"). c #E2B54A",
"_. c #E7BB48",
"`. c #E1AB54",
"'. c #E7B356",
"]. c #C3A47B",
"[. c #DBAD60",
"{. c #EDD446",
"}. c #005D80",
"|. c #2E519C",
" X c #3B5391",
".X c #3959A0",
"XX c #476582",
"oX c #4B639E",
"OX c #415C9A",
"+X c #01BDFF",
"@X c #1DBFF7",
"#X c #968F92",
"$X c #888A84",
"%X c #88BC94",
"&X c #B1AA87",
"*X c #B5B7B9",
"=X c #C9AC8B",
"-X c #D6B48B",
";X c #DBB98E",
":X c #D6B487",
">X c #D4BA95",
",X c #D0AE82",
"<X c #8AC096",
"1X c #DCC498",
"2X c #EACDA3",
"3X c #EACFA8",
"4X c #E7D4AC",
"5X c #F3D8AE",
"6X c #F5DDB5",
"7X c #FEE5BC",
"8X c #FFE8BE",
"9X c #FBE0B7",
"0X c #C5C6CD",
"qX c #E2DFC2",
"wX c #FFEAC2",
"eX c #F4EBCB",
"rX c #D7DDEA",
"tX c #FFF7E8",
"yX c #FFFFFE",
"uX c #E8EBEE",
/* pixels */
"                                                                                                              ",
"                                                                                                              ",
"                                                                                                              ",
"                                                                                                              ",
"                                                                                                              ",
"                                          P P 2.i.i.i.p.6.l l G J Y / / $.:.:.                                ",
"                                          P J 3.i.i.i.i.6.l l C P Y / R #.*.;.                                ",
"                                  J 3.  i.8.8.8.i.i.i.p.6.l l Z 8.y.j.j.l.Q.Q.^.  K.:.                        ",
"                                P P 3.i.i.i.i.i.i.i.i.i.6.l l 1.w.t.M.M.D.^.^.^.`.K.;.:.                      ",
"                                P 2.3.i.i.i.i.i.i.i.i.i.6.l l 5.p.a.B.N.D.).).).).Q.:.:.                      ",
"                      l 4 m P P q.0.0.i.i.i.i.i.i.i.w.i.6.l l 5.w.a.).).V.B.B.N.B.D./.~.:.:.                  ",
"                      l 4 m P P q.i.i.i.i.i.i.i.i.i.i.i.6.l 4 5.w.a./.^.V.M.M.M.M.F.^.~.;.;.                  ",
"                  l l v C I 8.8.w.i.i.i.i.i.i.i.i.i.<.Z Z Z Z r.b.v.Z.Z.Z.Z.A.A.Z.Z.Z.Z.x.x.c.                ",
"                  l l L P 3.i.i.w.i.i.i.i.i.i.i.i.w.m l n i.i.m.M.M.M.M.D.^.`.^.^.V.M.M.M.M.c.%.;.            ",
"                  l z L P 3.i.i.i.i.w.0.0.0.0.w.w.i.n l C w.i.n.N.N.M.M.D./.~.~.~.A.N.N.M.M.c.=.%.            ",
"            l l v L L P P 3.i.i.i.i.5.M M M M n i.i.n l n w.w.z.).S.M.M.c.:.*.@.( K.).S.M.M.g.( (             ",
"            l l m P P P J 3.i.i.i.i.<.l l l 4 n i.i.n l m w.w.P.`._.M.M.c.;.$.R R l.`._.M.M.g.h /             ",
"            l l m P J P P 2.8.8.8.8.4.Z Z Z Z Z Z Z Z Z s.b.b.c.`.(.x.x.Q.Y.Y.>.>.K.Q.K.j.j.X.                ",
"            l l b P J P P J J J K P 2.i.i.i.i.5.l l 1.w.t.M.M.S.^.~.;.;.].;X-X-X>XL.*.%./ j                   ",
"            z l v P J P J J P P J P 3.w.w.0.0.<.z z <.w.t.M.M.S.^.!.J.J.].;X;X-X-XL.$.$./ /                   ",
"        l z G L P P P P P P P P J P 2.P P m M m K K 2.J e.M.M.S.^.^.,X,X3X7X5X;X-X! O #                       ",
"        l l L P P P P J P P J P P P P J P b 4 b J J K 2.e.M.M.S.^.[.-X-X5XwX6X;X-X! . .                       ",
"        l z L P P P P P J P P P J P G v v l l z C v F ~ _ x.x.F.A.{.2X2XR. .,.>.>.y o .                       ",
"        l l G P P J P P P P P J P P C l l l l l 4 l p k @.;.;.H.M.G.7XwX{ X X j R > . .                       ",
"      4 l l L P J L L G G G G G K J I B D D D D c N ^ R ) *.J.H.B.G.6XwX| : r ^ h 0 - -                       ",
"  . . 2 l z L P C l l & o o o o 7 z _ 4X4X4X4X1XE.E.+.a O.^.^.K.l.!.9X7XeXuX0X X|.$X].U.O .                   ",
"  . . % l z L P C l 4 o . . . . 5 l d.9XwX8X8X5X-X-X#.a O./.`.K.;.Y.6XwXtXyXrX.X|.#X;XT.O .                   ",
"  . . % l l m C x 2 2 o   .   o % % ~ ].,X5X7X9X2X2X=.a &.A.F.l.O.>.7X7XtXyXrX.X|.#X;XT.O .                   ",
"  . . % l l l l 2 . .           . . 0 *.;.2XwX7X7X7X=.a X.M.M.X.a =.6X7XtXyXrX.X|.#X;XT.O .                   ",
"  . . % l l 4 4 2 . .           . . q $.$.1X6X6XqXqX>.( o.M.M.X.a =.6XwXtXyXrXoXOX#X].U.O .                   ",
"  . . % 4 4 o o o               . . X @ * =.L.$X@X@XW.~.c.M.M.X.a =.6XwXwXwX6X=X=X! @ -                       ",
"  . . 2 l 4 o . .               . . . . . ) l.d.+X+X&X'.S.M.M.X.a =.7X7X7XwX6X;X;X! . .                       ",
"      $ 2 2 o .                 f.f.E ) ) W p F }.}.P.Z.n.j.j.:.>.Y.2X2X2X2X>X| | t                           ",
"        . .                     M.M.V.'.`.0 . . . . k.M.n.a d Y.;X;X-X-X:X;XU.X X                             ",
"        . .                     C.C.n.Q.Q.q X o . . k.N.n.s s U.=XE.].].T.=XI.+ .                             ",
"                                = = * * = 5 4 3 . o l._.l.# X 8 c N N N 9 - *                                 ",
"                                . . . . . 5 l 3 . . :.'.J.. . 3 4 l l 4 $ . .                                 ",
"                                    . . . z C b 7 7 W ) W 2 % 4 l l v C x 7 6 o .                             ",
"                                      . . C 2.P P P 2 . $ l l l l M P P J 2.H . .                             ",
"                                      + + H P P P P 3 + & l z z z b G G P J H $ o                             ",
"                                . . w [ [ U P P J J W s W L L L K S $ o b J J G G 6 . .                       ",
"                                . X w ]  XU P P P J Q k Q K K K J S . . b J J K J 6 . .                       ",
"                            . +  .,...e e F ~ Y P P Q k ` %X%X%X%Xd.. . b J 4.h.h.V . .                       ",
"                            . + >XeXR.. . u R Q P P W k -.yXyXyXyX0X+ . b J 0.B.M.E . .                       ",
"                            . + &X3XI.o $ p ( Q I I W s ,.uXuXuXuX*X: X x G 6.C.C.E . .                       ",
"                                ; ; 8 U G 7.i.u.^ ^ > X w XXXXXXXX..h h > o 3 4.3.5 . . . .                   ",
"                                . . 6 P P q.i.u./ / # . : ] ] [ [ [ h j > X $ J J 6 . . . .                   ",
"                            . . . . 3 P P q.i.y._ _ V B 8 e e } { { j j  . . .7 7 9 , * . .                   ",
"                            . . . . 6 P P q.i.i.i.i.p.p.A o . u / k j j -XwX>X+ . < f 0 X .                   ",
"                            . . X X 3 G G 6.7.0.i.i.i.i.A o o u a / +.) =X3X&X+ X , f 1 X .                   ",
"                            . . u a y o o $ $ c i.i.i.p.1.4 4 & X g 4X5X| - < t f * X X                       ",
"                            . . s / u . . . . 9 p.i.p.p.6.l l $ . t wXwX{ . X f f * . .                       ",
"                            . . i / i , , , , q c B B B c 2 % o . ;  .,.t . X , , @                           ",
"                            . X i j h f f f f 1 . . . . . . . . . . X . . . . . .                             ",
"                            . . u s s f f f f 1 X X . . . . . . . . . . . . . . .                             ",
"                                X X > / j f f y y y @ . .                                                     ",
"                                . . > / R i f f f f @ . .                                                     ",
"                                    * 0 0 , , , , , X . .                                                     ",
"                                      . . . . . . . . . .                                                     ",
"                                      . . . . . . . . . .                                                     "
};
