/* XPM */
static char *_6746fe08d444e0de5efb7444a90cc36MzC2zYNKWH5Oczb2[] = {
/* columns rows colors chars-per-pixel */
"58 60 224 2 ",
"   c None",
".  c #000101",
"X  c #0B0504",
"o  c #020C05",
"O  c #090808",
"+  c #130B08",
"@  c #061205",
"#  c #041E05",
"$  c #091508",
"%  c #15110D",
"&  c #1A1A06",
"*  c #081514",
"=  c #171310",
"-  c #191814",
";  c #251511",
":  c #261E14",
">  c #381F10",
",  c #2B190E",
"<  c #072107",
"1  c #072B0B",
"2  c #0B3D0B",
"3  c #0A360B",
"4  c #063D14",
"5  c #093D15",
"6  c #073713",
"7  c #162A15",
"8  c #3A2111",
"9  c #372217",
"0  c #2B2C15",
"q  c #19293B",
"w  c #192737",
"e  c #172E25",
"r  c #2B2D2E",
"t  c #101B27",
"y  c #43251D",
"u  c #402A17",
"i  c #5A331B",
"p  c #66391D",
"a  c #6C3B1D",
"s  c #65371A",
"d  c #713E1E",
"f  c #4D2B21",
"g  c #49392A",
"h  c #573B21",
"j  c #502C20",
"k  c #683B21",
"l  c #723D21",
"z  c #0C420D",
"x  c #124B0F",
"c  c #0B4514",
"v  c #0D4910",
"b  c #0B4E18",
"n  c #124C10",
"m  c #164818",
"M  c #0E5D1B",
"N  c #0E5516",
"B  c #185613",
"V  c #224D17",
"C  c #0F621D",
"Z  c #126A14",
"A  c #27731B",
"S  c #347D1A",
"D  c #164822",
"F  c #3A5028",
"G  c #0E6321",
"H  c #0E6D24",
"J  c #0E7225",
"K  c #0E7C2A",
"L  c #0C7B26",
"P  c #107526",
"I  c #117927",
"U  c #107C29",
"Y  c #1A7528",
"T  c #186824",
"R  c #257D31",
"E  c #5D401D",
"W  c #74411E",
"Q  c #7F521C",
"!  c #495726",
"~  c #6A4825",
"^  c #744221",
"/  c #7B4927",
"(  c #6D5528",
")  c #634D38",
"_  c #557024",
"`  c #6B7325",
"'  c #38516C",
"]  c #325476",
"[  c #2D4E6F",
"{  c #28435C",
"}  c #514D5D",
"|  c #6C5B46",
" . c #685A48",
".. c #727B4C",
"X. c #726C4B",
"o. c #6E6F72",
"O. c #507367",
"+. c #82551C",
"@. c #875A28",
"#. c #845530",
"$. c #804F2C",
"%. c #946B38",
"&. c #9E733B",
"*. c #856435",
"=. c #A7783B",
"-. c #947B1D",
";. c #A37A41",
":. c #A67C43",
">. c #966A47",
",. c #10840E",
"<. c #15812A",
"1. c #0F8029",
"2. c #268A27",
"3. c #348A24",
"4. c #2A9129",
"5. c #279029",
"6. c #3B9A26",
"7. c #389526",
"8. c #3DA229",
"9. c #3DAC27",
"0. c #479A29",
"q. c #41A529",
"w. c #4AA62C",
"e. c #55AB28",
"r. c #6DB921",
"t. c #2AD119",
"y. c #11F508",
"u. c #13DA0A",
"i. c #2B8D42",
"p. c #648850",
"a. c #808001",
"s. c #B89D12",
"d. c #8BBB17",
"f. c #BBA211",
"g. c #B9A10F",
"h. c #AD893A",
"j. c #AB853B",
"k. c #B69430",
"l. c #91AD36",
"z. c #D3BC1D",
"x. c #D3BD23",
"c. c #D1B12F",
"v. c #93C515",
"b. c #A2D314",
"n. c #A7CD1B",
"m. c #E2DB0A",
"M. c #E8E707",
"N. c #F1EA08",
"B. c #EBF504",
"V. c #F6F206",
"C. c #FFFE01",
"Z. c #FBF609",
"A. c #FDF807",
"S. c #F9EF10",
"D. c #D6C62D",
"F. c #EFD629",
"G. c #E9D026",
"H. c #F1D829",
"J. c #E6CC2C",
"K. c #CEE408",
"L. c #A98046",
"P. c #B28A46",
"I. c #BB9647",
"U. c #B7915B",
"Y. c #879566",
"T. c #BA946C",
"R. c #BA9672",
"E. c #A98C6B",
"W. c #89B073",
"Q. c #BEA07D",
"!. c #9F9A54",
"~. c #C1934A",
"^. c #C79B48",
"/. c #CCA84E",
"(. c #D7A64B",
"). c #DEAB54",
"_. c #D9A752",
"`. c #D2AD52",
"'. c #E2B44A",
"]. c #E4BB44",
"[. c #E1AC54",
"{. c #E4B055",
"}. c #C29E71",
"|. c #C6A67D",
" X c #D5B270",
".X c #F5E45D",
"XX c #2B4E9B",
"oX c #425D9B",
"OX c #807F8B",
"+X c #7F8080",
"@X c #5B9C92",
"#X c #07B4F2",
"$X c #19A7D3",
"%X c #7ED1E1",
"&X c #858589",
"*X c #9AAABB",
"=X c #CDAA81",
"-X c #C5AB8E",
";X c #D5B48B",
":X c #D9B68D",
">X c #DAB88E",
",X c #DBBA91",
"<X c #D7BA94",
"1X c #CEB189",
"2X c #D1BDA6",
"3X c #9AC1A3",
"4X c #E3C49B",
"5X c #ECCFA6",
"6X c #E3CCA7",
"7X c #E9D1AA",
"8X c #F6DCB3",
"9X c #F4D5AB",
"0X c #FDE4BB",
"qX c #FFE8BE",
"wX c #DCC09A",
"eX c #97A9CE",
"rX c #9AABD1",
"tX c #84C6CC",
"yX c #FFE9C2",
"uX c #FFE7C1",
"iX c #FFF1D0",
"pX c #E5E9E6",
"aX c #FFFEFD",
"sX c #F4F4E6",
/* pixels */
"                                                                                                                    ",
"                                                                                                                    ",
"                                                      U C 2 n 6.q._ d / =.:.:.&.                                    ",
"                                                    U U M z n 6.q._ d ^ &.:.:.:.L.                                  ",
"                                                    U <.C z n 6.8.` / @.j.h.P.:.L.                                  ",
"                                      K U 8.q.q.q.q.8.8.A 2 n 6.8.l./.(.N.V.J._.(.).{.~.;.:.                        ",
"                                      K <.6.q.q.q.q.q.q.A z n 6.q.l.).'.Z.C.F.).).).).I.;.;.                        ",
"                        z M U U U   2.5.4.q.q.q.q.q.q.w.A 2 n 6.q.l.H.F.F.F.F.F.H.H.H.c.I.~.:.:.                    ",
"                      z z M U U I I 4.q.q.q.q.q.q.q.q.q.A z n 6.8.b.C.A.'._.F.C.C.C.C.F.[._.:.;.:.                  ",
"                      v v C U U <.U 4.q.q.q.q.q.q.q.6.6.A n B 0.e.n.A.S.].'.H.Z.Z.Z.Z.F.'.'.h.h.j.                  ",
"                  z v P P I <.Y 6.8.8.q.q.q.q.q.q.6.B x A 6.0././.`.'.].S.A.H.'.'.'.'.F.A.Z.V.V.x.;.:.              ",
"                  z z P U U U <.8.q.q.q.q.q.q.q.q.7.x 2 A 8.e./.[.).).'.Z.C.F.).).).).H.C.C.C.C.x.;.:.              ",
"                N M C P U U U U 8.q.3.A A A A 3.q.6.n z A q.e.J.H.H.F.G.x.x.k.=.=._.[.c.s.g.g.g.k.                  ",
"            z 2 C U U U U K U U 8.q.A z z 2 2 A q.6.n 2 A 8.e.B.C.C.C.V.h.:.@.d / (.[.=.l l l l                     ",
"            v v C U U K U K I U 6.q.A z x n x A 6.7.B x 3.e.r.B.A.V.V.S.P.L.%.$.@.~.^.&.l ^ ^ ^                     ",
"            P P I U U U U U U U U U U L I 7.6.A x B 4.7.v.B.B.].'.^.h.h.|.1X=X|.R.: + ;                             ",
"            U U U U I U I U U U U U U U U q.w.A 2 n 6.8.b.C.Z.'.).I.;.:.=X;X:X:XQ.= .                               ",
"        . $ J U U K U K K U U U U U U U U 2.4.Z z n 2.2.v.C.Z.'.)._.T.}.4X5X,X;XQ.= . .                             ",
"      . . o H U U U I U U K U U U I U U U U U M z v J L d.C.A.'.[. X;X,X0XyX5X;XQ.= . .                             ",
"      o . @ H U I I K U U I U U U K U U U P P M z n R R d.Z.N.].]. X<X,X6X7X<X=XR.% . .                             ",
"  . . # 2 z P U K U U I U U U U K I U U P N n c z V I./.I.h.k.S.C..XyX6Xr = j $.~ O . .                             ",
"  . . < z v P U K U K K U U U U K U U K J z 2 z 2 m /.{.~.;.j.V.C..XyX7X; . > +.s X .                               ",
"  . . < z v I U H M M 5 5 b M C M M p.W.W.Y.Y.p.....=.=.P.I.~.x.x. XuX8X&XY.oX} } | | g                             ",
"  . . < z v I U M z 5 . . < z z z 2 p.iXqXqXqX5X>X|./ d =.[._.:.;.=XuXuXaXaXrXXXoX-X,X| . .                         ",
"  . . < c v P U M 3 6 o . # 2 2 2 3 p.8X8X0XqX6X>X=X/ ^ =.'.'.:.&.|.yXyXaXaXrXXXoX-X,X| . .                         ",
"  . . < z v P U c . .     . . o . o ) P.U.8XqX0X0X5X/ l f.A.M.@.l R.qXyXaXaXrXXXoX-X>X| . .                         ",
"  . . < z v P <.c . .     . . . . . E L.P.0XqXqXqX9X$.a g.C.N.+.d T.yXyXaXaXeXXXoX-X,X| . .                         ",
"      $ < < M C 1 . .       . . . . : E E Q.1X*X%XtXL.=.z.C.N.+.a R.uXuXiXsX2X+XOX| | g                             ",
"        . . 2 z < . .           . . . . O %.=.@X#X#X X[.F.C.N.+.d T.uXuXuXyX5X:X|.= .                               ",
"        . o 6 2 < . .           & & & = : *.&.@X#X$X/.'.G.N.m.@./ R.8X0X0X8X<X|.E.- .                               ",
"            o . .               m.m.D.-XE.: + * * e M.Z.f.Q @.}.=X1X<X>X>X,XX.% =                                   ",
"            . . .               C.C..X:X|.% . . . & M.A.f.^ /  X>X>X:X>X>X,X| . .                                   ",
"              .                 -.r.Q | ) 1 < @ . & x.H.-.> 9 X.p.......| | r . .                                   ",
"                                . . . . . 3 z # . % ^.{.( . o 3 2 z 2 3 . . . . .                                   ",
"                                . . . . o 2 n 1 o & P.^.( % - 3 2 z z z o . X X +                                   ",
"                                    . . o H P P J T & %  .=XE.= . c L C @ . > p i X .                               ",
"                                      . o H K K U J o .  .4XQ.= . 5 U J o . 8 ^ a X .                               ",
"                                    . . o J K M 5 5 5 5 F |  .c 4 M U J c 5 0 8 8 w q t                             ",
"                                      . o J <.4 . O H K 4 . o H 1.K U U K U 5 . O [ ] w . .                         ",
"                                    X X $ G I D - e R i.D o * G H I K U 2.2.m $ * { [ w X X                         ",
"                                . . > l i $ o o.pXpXpXpX@XH G $ o c K 2.K.B.v.7.3.$ O ; f y O .                     ",
"                                . . > ^ a X . +XaXaXaXaX3XL J o . 4 K 2.B.C.b.8.7.o . , f 9 O . .                   ",
"                            . o 4 4 V ! F O . } *X*X*X*XO.z 5 8 9 0 ! _ v.b.r.w.7.@ . + ; ; . .                     ",
"                          . . o I 1.1.1.H o . w ] [ [ [ w o X a / / l ~ 0.6.8.q.7.@ . . . .                         ",
"                          . . o G H H H G $ O r ' ' [ ] q . O E ~ ~ W ( 0.q.8.8.3.@ . . . .                         ",
"                          . . . o o o o % i k k ~ ) ' ] q . o T Y 3.q.0.q.q.4.<.P o . .                             ",
"                          . . . . . . . X s l d ^ k ' ] q . o H L 5.q.q.w.q.5.K J o .                               ",
"                            . . . . . . + E.R.>.^ l q q e 5 c 2.5.7.q.9.t.t.,.5 6 X . .                             ",
"                                . . . . - 7XiXR.a p X . c U <.8.q.q.q.9.y.y.,.. . . .                               ",
"                                . . . . - <X6XE.l p X . 6 H I 3.7.7.7.6.u.y.Z . o O X X                             ",
"                                    . . . - - 9 f y X . o o o @ @ @ @ @ # # & u y p p 9 . .                         ",
"                                    . . . . . ; f y X . . . . . . . . . . . ; j f W W 8 . .                         ",
"                                      . . . . + ; ; . . .   . . . % ; ; ; ; y p k l ^ 8 . .                         ",
"                                          . . . . . . .       . . ; f f y f h W ^ ^ ^ 8 . .                         ",
"                                          . . . . . . .       . . ; f > y y i p a p a > . .                         ",
"                                                                  O X X . X X X X X X O                             ",
"                                                                  . . . . . . . . . . .                             ",
"                                                                    . . . . . . . . .                               ",
"                                                                                                                    ",
"                                                                                                                    "
};
