/* XPM */
static char *cd2c2c75a5924664b3d04b3de6231e3cnxVg2WvgbPcSiOof[] = {
/* columns rows colors chars-per-pixel */
"60 61 217 2 ",
"   c None",
".  c #000001",
"X  c #030B04",
"o  c #0D0C0A",
"O  c #0C0705",
"+  c #130C0A",
"@  c #160D07",
"#  c #041204",
"$  c #041B0A",
"%  c #071907",
"&  c #18140B",
"*  c #141210",
"=  c #23140E",
"-  c #2C190D",
";  c #241511",
":  c #321C14",
">  c #341F19",
",  c #301B0E",
"<  c #05260D",
"1  c #062B0E",
"2  c #092E09",
"3  c #0A2509",
"4  c #0A330B",
"5  c #0B3E0C",
"6  c #083813",
"7  c #163813",
"8  c #10330F",
"9  c #342516",
"0  c #362F10",
"q  c #111A31",
"w  c #382F25",
"e  c #3B3227",
"r  c #44261E",
"t  c #4F2F1C",
"y  c #58331A",
"u  c #522E17",
"i  c #6E3C1E",
"p  c #713F1E",
"a  c #4C2A21",
"s  c #44382C",
"d  c #6A3D21",
"f  c #723E20",
"g  c #0D420D",
"h  c #0E4E13",
"j  c #0A4314",
"k  c #184611",
"l  c #0E5315",
"z  c #0D5A1B",
"x  c #0A541C",
"c  c #1B5C14",
"v  c #185616",
"b  c #11440F",
"n  c #0F651E",
"m  c #1D6418",
"M  c #236B19",
"N  c #206517",
"B  c #2D781E",
"V  c #337B1D",
"C  c #0F6A21",
"Z  c #0D6522",
"A  c #0E7A29",
"S  c #0E7826",
"D  c #107B29",
"F  c #147626",
"G  c #146E25",
"H  c #256B26",
"J  c #247127",
"K  c #2C693B",
"L  c #3E5321",
"P  c #454405",
"I  c #535502",
"U  c #56421B",
"Y  c #76441F",
"T  c #7F511D",
"R  c #6B411F",
"E  c #5D4F22",
"W  c #4B4534",
"Q  c #564838",
"!  c #52582D",
"~  c #6C4525",
"^  c #734120",
"/  c #784726",
"(  c #7B582D",
")  c #68502D",
"_  c #547D25",
"`  c #4B6735",
"'  c #437D26",
"]  c #726718",
"[  c #27365A",
"{  c #56524B",
"}  c #6B5B4A",
"|  c #5A714F",
" . c #5D5F77",
".. c #916A19",
"X. c #A17F16",
"o. c #885A32",
"O. c #926635",
"+. c #8E6B34",
"@. c #A4783D",
"#. c #A16E37",
"$. c #916542",
"%. c #9B744F",
"&. c #887359",
"*. c #A47B41",
"=. c #A47A42",
"-. c #A37955",
";. c #2E811F",
":. c #1C8529",
">. c #1A8429",
",. c #0F802B",
"<. c #238B29",
"1. c #2C8421",
"2. c #328621",
"3. c #348B22",
"4. c #2D9429",
"5. c #3D9E28",
"6. c #349728",
"7. c #3EA229",
"8. c #499D1F",
"9. c #6EB41D",
"0. c #478724",
"q. c #5A8224",
"w. c #41A429",
"e. c #43A92A",
"r. c #66AF29",
"t. c #53A21F",
"y. c #3F9553",
"u. c #5B9366",
"i. c #AE9413",
"p. c #9EA302",
"a. c #B0B001",
"s. c #B18F2F",
"d. c #AFB43A",
"f. c #C29D3A",
"g. c #C5AC27",
"h. c #D2B72C",
"j. c #87C619",
"k. c #A1C91E",
"l. c #D7D30F",
"z. c #E1D315",
"x. c #E7DF05",
"c. c #CBE50B",
"v. c #FEFE01",
"b. c #FAF20C",
"n. c #F7F706",
"m. c #F1E413",
"M. c #F2DE21",
"N. c #E9C737",
"B. c #EACC33",
"V. c #E7C439",
"C. c #ECD02F",
"Z. c #F7EF2B",
"A. c #AE8344",
"S. c #B88C46",
"D. c #BD9048",
"F. c #B68F5C",
"G. c #B28B5B",
"H. c #A28969",
"J. c #B48D67",
"K. c #AE9575",
"L. c #B59876",
"P. c #AE946B",
"I. c #A19556",
"U. c #CC9D4D",
"Y. c #D3A44D",
"T. c #DDAA53",
"R. c #D7A654",
"E. c #CEB048",
"W. c #E4BB44",
"Q. c #E0B14D",
"!. c #E1B745",
"~. c #E0AC54",
"^. c #E9B358",
"/. c #C39D6F",
"(. c #C8A478",
"). c #DCAC60",
"_. c #E3C86A",
"`. c #E3C84F",
"'. c #3C4F87",
"]. c #2C4F9C",
"[. c #2E509D",
"{. c #375193",
"}. c #3B5BA2",
"|. c #525F85",
" X c #018BBD",
".X c #00BCFF",
"XX c #49C6EC",
"oX c #938D92",
"OX c #AA9B8C",
"+X c #9CAA8A",
"@X c #AEB0B2",
"#X c #A8BA9F",
"$X c #C5AA86",
"%X c #D5B48B",
"&X c #D8B68D",
"*X c #DCBA8E",
"=X c #CEBC91",
"-X c #C4CA98",
";X c #E3C49A",
":X c #E6C99C",
">X c #D9C8AC",
",X c #F1D5AC",
"<X c #F6DBB2",
"1X c #F9DEB4",
"2X c #E4CAA3",
"3X c #FDE5BC",
"4X c #FFE8BC",
"5X c #8296C3",
"6X c #C0C0C0",
"7X c #FFEBC1",
"8X c #FFEAC9",
"9X c #FFEED1",
"0X c #D9DFED",
"qX c #FFF7E8",
"wX c #FEFFFE",
"eX c #F5F9F6",
"rX c #E6E0DA",
/* pixels */
"                                                                                                                        ",
"                                                                                                                        ",
"                                                                                                                        ",
"                                                                                                                        ",
"                                                                                                                        ",
"                                                                                                                        ",
"                                                      D D :.w.w.w.e.3.g g C A J ^ f O.=.*.=.*.                          ",
"                                                      D D :.w.w.w.e.3.g g C A H ~ f O.=.=.=.=.                          ",
"                                                      4.<.4.w.w.w.w.3.g g F <.8.i.i.s.D.D.D.D.U.                        ",
"                                  D D D D D 6.w.w.w.w.w.w.w.w.w.7.w.3.g g 2.7.9.v.v.B.T.T.~.T.T.T.Y.A.*.                ",
"                                  D A D D >.6.w.w.w.w.w.w.w.w.w.e.e.3.g g 2.w.9.n.v.B.Q.Q.Q.Q.Q.Q.Y.A.*.                ",
"                        g g z D D D A :.5.5.w.w.w.w.w.w.w.w.w.w.e.e.3.g g 2.w.r.!.!.M.b.b.b.b.b.b.m.T.Y.D.=.*.          ",
"                        g 5 z D D A S <.w.w.w.w.w.w.w.w.w.w.w.w.e.e.3.g b J 5.r.R.T.M.v.v.v.v.v.v.b.Q.~.D.=.@.          ",
"                        l z n D D <.<.4.5.w.w.w.w.w.w.w.5.w.w.w.;.B B m M r.j.k.B.B.M.M.M.M.M.M.M.M.B.B.h.g.g.          ",
"                    g g F A A D D 5.w.w.w.w.w.w.w.w.w.w.w.w.w.w.m 5 v 7.e.c.v.v.v.v.N.T.T.T.T.T.T.!.v.v.v.v.x.T ^       ",
"                    g h G A D D D 6.7.7.w.w.w.w.w.5.w.5.w.5.w.w.c 5 c 5.7.c.v.v.v.v.N.R.T.T.T.T.T.!.b.v.v.n.x.o.f       ",
"              g g z C S S D D D D >.>.<.w.w.w.w.3.v v v v N w.w.c 5 c 7.7.d.W.B.v.v.g.A.A.A.A.A.A.S.W.W.s.....          ",
"              g 5 z D D D D A D D A A <.w.w.w.e.2.5 5 5 5 c w.w.m g v 7.5.d.T.W.v.v.g.=.=.=.@.*.*.A.T.~.O.f f           ",
"              x l n D D D D D D D D A >.4.6.4.4.1.m N N N M ;.;.M m V j.j.E.R.!.z.z.E.G.F.F.F.O.) ( Y.~.#.p ^           ",
"          . X Z >.D D D D D D D D D D D D D D A <.w.w.w.e.2.g g 3.7.9.v.v.V.T.Y.=.*.L.%X%X%X&XQ . .                     ",
"          . X C A S D D D D A D D D D D D D D A :.7.7.7.w.2.g g 2.7.9.v.v.N.T.R.*.=.(.%X%X%X&XQ . .                     ",
"          . X C A D D D D D D D D A D D S D D D >.:.:.m v c n S D >.t.v.v.N.T.T.(.(.:X<X,X%X&XQ . .                     ",
"          . . C D A D D A D D D D D D D D D D D A A D h 5 h ,.,.D S 8.v.v.N.~.).*X%X<X4X3X*X&XQ . .                     ",
"        $ 1 1 S A F C C n C n x x n C C C C C C n n n z l n n n H H q.z.z.B.B.`.:X;X$XOXK.P.L.s . .                     ",
"    . . 6 A D D A n g g g g 2 . . 4 g g g g g g g g g C ,.C g g U Y o.@.*.z.v.Z.4X4X} . @ i Y - . .                     ",
"    . . 6 D D D A n g g 5 g 3 . . 4 g g g g g g g h g S >.G b g y p / @.*.z.v.Z.4X4X{ O & d ^ : . .                     ",
". X 2 4 5 l l h l 4 # # # # X     # # 3 g g g 5 ` -X=X-X-X-XP.P.o.i o.U.Y.f.s.E.3X4X6X6X@X'. . .H.&.* .                 ",
". . 5 g g g g g g 3 . . . . .     . . # g g g g | 4X4X4X3X<X%X=XO.p o.~.T.S.*.F.3X4XqXwX0X}.[.oX*XL.+ .                 ",
". X 3 2 4 2 2 4 4 $ . . . .       . . % 4 2 2 2 ` ;X;X3X3X<X;X;X$.i o.V.W.s.O.G.3X4XqXwX0X}.{.oX*XL.o .                 ",
"    . . . . . . . .                     . . . . : s.%.2X3X3X3X3X%.i ..v.v.X.i $.<X4XqXwX0X}.[.oX&XL.o .                 ",
"    . . . . . . . .                     . . . . 9 %.A.;X7X3X7X3X%.d ..v.v.X.d $.3X3XqXwX0X}.[.oX&XL.o .                 ",
"                                            . . # , 9 %.F.+XXXXX+XL.Y.v.v.X.d O.3X3X8X8XrXOXOX} w w                     ",
"                                            . . . . . ( *.u..X.X@X*X_.v.v.X.i o.1X8X3X3X1X*X*XQ . .                     ",
"                                            0 P P w w ) ( |  X X+X_.`.l.l.s.o.-.,X<X<X<X2XH.H.W . .                     ",
"                                            v.v.M.$X%Xw . . . X a.v.l.Y Y J.%X%X%X%X%X&XK.+ .                           ",
"                                            v.v.Z.%X%Xw . . . . a.v.x.Y R J.%X%X%X%X%X&XK.o .                           ",
"                                            I I P s s 7 1 % . . s.B.s.; = W ` ` ` ` W s e                               ",
"                                            . . . . . 6 g 4 . . @.^.s.. . 2 g 5 5 g # . .                               ",
"                                            . . . . . 6 l g $ % ( S.o.# # 5 h h h h 1 $ $                               ",
"                                                  . X x S D A A 1 X % g g n A A S S A A C . .                           ",
"                                                  . . Z A D D ,.< . X 5 g n ,.D A D A A Z X .                           ",
"                                                  . . x ,.C 1 1 j x x C n j 1 6 D D A S 1.p.p.I . .                     ",
"                                                  . . Z ,.z . . x A S A A 1 . $ S A A S 5.v.v.] . .                     ",
"                                                  $ $ v J v . . K y.y.y.y.7 . % J J J J 0.c.c.I . .                     ",
"                                            . . < A G ! ^ y . . @XwXeXeXeX{ . @ R ^ ~ ^ E J :.5 . .                     ",
"                                            . . 1 A F E Y u . . @XwXwXwXwX{ . @ i p Y ^ E G A 4 . .                     ",
"                                            . . < D D ' q.L . . |.5X5X5X5X[ . & _ _ _ _ _ 6.4.5 . .                     ",
"                                            . . < D D 6.e.V . . [ ].].].[.q . 3 7.7.e.7.7.e.e.k . .                     ",
"                                            . . < C C 6.e.V . . [ }.'.'.'.q . 3 8.w.w.w.5.2.3.7 . .                     ",
"                                                  X X J w.B . . a / ~ f f ; O 3 w.w.w.w.2.o X                           ",
"                                                  . . V e.V . . t Y p p p = . 3 w.e.w.e.2.X .                           ",
"                                                      7 k 7 . . } F.J./.(.s . o k k k k 7 X .                           ",
"                                                      . . . . . H.*X;X7X7XQ . . . . . . . . .                           ",
"                                                      . . . O O } L.$X2X>XW . O O . O @ O . .                           ",
"                                                      . . + r r ; * + * * > r r r a y i u O .                           ",
"                                                      . . + a a + . . . . > a a a a d R i . .                           ",
"                                                          + = = ; - = . . * ; = = = , : ,                               ",
"                                                            . . 9 a > . . . . . . . . . .                               ",
"                                                            . . - a > . . . . . . . . . .                               ",
"                                                                O . O . .                                               ",
"                                                                . . . . .                                               "
};
