/* XPM */
static char *ae333a288bad4013a319dbbf5e5c34e8ZCNh5d9ZPEp6ZJ8E[] = {
/* columns rows colors chars-per-pixel */
"55 61 219 2 ",
"   c None",
".  c #000101",
"X  c #0A0504",
"o  c #030C04",
"O  c #06080B",
"+  c #150C08",
"@  c #051305",
"#  c #061607",
"$  c #15110C",
"%  c #1B120B",
"&  c #1B1A04",
"*  c #0B1519",
"=  c #111316",
"-  c #22130D",
";  c #2B1A0E",
":  c #351D0F",
">  c #251813",
",  c #361F14",
"<  c #092C09",
"1  c #07260A",
"2  c #0B3D0C",
"3  c #0A310A",
"4  c #083E15",
"5  c #063913",
"6  c #123011",
"7  c #3A2111",
"8  c #392718",
"9  c #322C18",
"0  c #161D27",
"q  c #152D31",
"w  c #372F25",
"e  c #42251D",
"r  c #482917",
"t  c #46331A",
"y  c #573419",
"u  c #493812",
"i  c #6E3C1D",
"p  c #65391D",
"a  c #713F1F",
"s  c #4B2A20",
"d  c #583923",
"f  c #45362A",
"g  c #6D3E20",
"h  c #663B20",
"j  c #733E20",
"k  c #0D420D",
"l  c #0D4B12",
"z  c #0B4613",
"x  c #134C10",
"c  c #134612",
"v  c #0E5D1B",
"b  c #0D5419",
"n  c #155616",
"m  c #10470E",
"M  c #2B581A",
"N  c #0F661F",
"B  c #18641B",
"V  c #226A19",
"C  c #27721B",
"Z  c #2B7A1D",
"A  c #0E6B23",
"S  c #126D24",
"D  c #0E7C29",
"F  c #0C7426",
"G  c #117426",
"H  c #117C29",
"J  c #197528",
"K  c #0C5F20",
"L  c #494901",
"P  c #74411E",
"I  c #4B5725",
"U  c #58473A",
"Y  c #4E5031",
"T  c #6A4624",
"R  c #754221",
"E  c #784422",
"W  c #7E4E2C",
"Q  c #7C4A23",
"!  c #6A5322",
"~  c #6A5926",
"^  c #75572D",
"/  c #4A6434",
"(  c #556222",
")  c #243E55",
"_  c #2A4764",
"`  c #2F5171",
"'  c #325374",
"]  c #394E70",
"[  c #3B7074",
"{  c #535356",
"}  c #6B5A46",
"|  c #52596F",
" . c #767A7D",
".. c #767950",
"X. c #82561D",
"o. c #8A592B",
"O. c #875833",
"+. c #946A37",
"@. c #9E743C",
"#. c #8A672B",
"$. c #AB7A3C",
"%. c #997350",
"&. c #A37A41",
"*. c #A97F43",
"=. c #A57D57",
"-. c #14812A",
";. c #198329",
":. c #278B28",
">. c #368B23",
",. c #348823",
"<. c #2A9229",
"1. c #3C9B26",
"2. c #3A9E29",
"3. c #399626",
"4. c #278337",
"5. c #3DA229",
"6. c #539519",
"7. c #449E29",
"8. c #459826",
"9. c #528936",
"0. c #41A429",
"q. c #49A52C",
"w. c #54AA29",
"e. c #72B71C",
"r. c #55955B",
"t. c #B09A11",
"y. c #83B917",
"u. c #BAA110",
"i. c #AE893A",
"p. c #B7932F",
"a. c #BDA127",
"s. c #9BAF27",
"d. c #CCB80F",
"f. c #D2BD21",
"g. c #DDBB37",
"h. c #CDB22B",
"j. c #8AC618",
"k. c #9DCF15",
"l. c #A1D314",
"z. c #A5CF19",
"x. c #93C420",
"c. c #DBCD0F",
"v. c #E2D218",
"b. c #F1EB04",
"n. c #E9F305",
"m. c #F5F207",
"M. c #FEFE01",
"N. c #FBF50A",
"B. c #FEF909",
"V. c #E3E301",
"C. c #D9C828",
"Z. c #E6CB2A",
"A. c #EED529",
"S. c #F1DB24",
"D. c #EBCC32",
"F. c #EAC63B",
"G. c #DEED06",
"H. c #AB834A",
"J. c #B79559",
"K. c #B88E4E",
"L. c #B4A749",
"P. c #948968",
"I. c #BA946C",
"U. c #AA936F",
"Y. c #B3A579",
"T. c #998F40",
"R. c #C1944A",
"E. c #C89A4B",
"W. c #C59947",
"Q. c #C28D45",
"!. c #CAA74D",
"~. c #D5A54E",
"^. c #DEAB53",
"/. c #D7A551",
"(. c #D2B746",
"). c #E1B44B",
"_. c #E3B846",
"`. c #E1AD54",
"'. c #E7B056",
"]. c #C7A67D",
"[. c #D1AD6A",
"{. c #C19C76",
"}. c #FFF25F",
"|. c #E1C470",
" X c #2C4E9B",
".X c #435D9B",
"XX c #4B6884",
"oX c #0D8AB4",
"OX c #509CA2",
"+X c #0ABDF8",
"@X c #49C4E7",
"#X c #8B8683",
"$X c #AC9B88",
"%X c #9AA69F",
"&X c #C8AA88",
"*X c #D0AE83",
"=X c #D5B48B",
"-X c #D7B68B",
";X c #DCBA90",
":X c #C8C195",
">X c #DDC099",
",X c #E5C79C",
"<X c #E7CEA8",
"1X c #EED2A8",
"2X c #F2D7AE",
"3X c #F6DBB2",
"4X c #FEE6BD",
"5X c #FFE8BF",
"6X c #D4C3AF",
"7X c #98A9CE",
"8X c #99ABD0",
"9X c #C6CBC9",
"0X c #FFEAC2",
"qX c #FFE9C5",
"wX c #FFEED0",
"eX c #FFFEFD",
"rX c #FFFCF7",
"tX c #E8EFEE",
"yX c #D8DEE6",
/* pixels */
"                                                                                                              ",
"                                                                                                              ",
"                                                                                                              ",
"                                    H H <.0.0.0.0.0.0.1.x 2 N D J T P O.*.&.                                  ",
"                                    D D :.0.0.0.0.0.0.1.x 2 v D G T g o.&.&.                                  ",
"                                  H :.:.2.0.0.0.0.>.Z C C V 6.e.y.t.t.p.K.R./.                                ",
"                          H D H H H 0.0.5.0.0.0.0.C 2 c 1.0.l.M.M.M.M.A.`.`.^.^.R.&.&.                        ",
"                          H H -.-.;.2.0.0.0.0.1.5.C m n 8.q.z.M.B.B.M.A.).).).).W.*.*.                        ",
"                k k v H ;.2.1.1.1.5.5.0.0.0.1.n x C 1.8.L.!.(._._._._.A.N.N.N.N.D./.E.i.&.                    ",
"                k k N H H 5.0.0.0.0.0.0.0.0.1.x k C 0.w.!.`.`.`.^.^.^.A.M.M.M.M.A.^./.H.&.                    ",
"                v b N H H 5.0.0.0.0.0.0.0.0.1.x k C 0.w.C.D.D.D.D.E.E.g.S.S.S.S.A.D.D.h.h.a.                  ",
"          k k k G H H D -.5.0.0.5.0.0.0.0.5.1.x k C 0.w.n.M.M.M.b.i.&.Q.^.^.^.^.A.M.M.M.M.f.&.&.              ",
"          2 k l G H H H H 1.5.5.1.0.7.1.1.5.1.x 2 C q.w.n.M.M.M.m.i.$.K././.^.^.A.M.B.M.M.f.&.&.              ",
"      . . 1 k l G H H H H -.;.B n x n x ,.0.1.x 4 C 0.w.(._.S.M.b.i.&.+.o.o.~.^.)._.F.B.M.f.&.&.              ",
"      . . # k l G H H H H H D v k 2 k 2 C q.1.x 2 C 5.q.!.^.A.M.m.i.$.o.i P ~.^.^.^.).B.M.f.&.&.              ",
"      . . < v v F H H H H H H N b n V V C Z Z V V 6.j.x.(.^.g.v.C.J.J.=.%.&.R.E.E.E.W.d.d.a.&.&.              ",
"      . . 5 -.H F H H G H H H H F -.1.0.C 2 m 1.5.l.M.B.).^.K.$.H.*X=X-X-X*XH.&.&.&.@.R R                     ",
"      . . z D D D H H H H D H D -.-.5.5.C 2 x 1.5.k.M.B._.^.R.&.H.*X-X-X=X*X&.@.&.&.&.Q R                     ",
"      . . 4 H H D D H H H H H H D D ;.;.B k m J -.j.M.m.).`.[.].*X2X3X,X=X].8 > 8                             ",
"      . . 4 H D H H H H H H H D H D D -.v k l G F j.M.N.).`.[.-X;X4XqX1X;X$X$ .                               ",
"      # @ l D D H H H H D D H N N N N N B b v 9.9.s.v.v.D.D.|.,X>X$X$XU.I.=.= . .                             ",
". . . 2 k v D D H H H H D D H N k k k k v D 4.!.`.W.@.i.m.M.}.0X<X= . : j p X .                               ",
". . o 2 k v H H H H H G F D H n m m m c B -.;.L.`.K.&.H.N.B.}.0X6X> O e j h + . X                             ",
". . . 2 k v H H H D N l n x l r.:X:X:X:X&XY.U.#.o.i././.p.a.[.4XqX9X9X#X] XXP.U.U . .                         ",
". . o 2 k v H D -.-.N k k k 3 P.qXqX0X0X1X=X&XW i $.`./.*.&.].0XqXeXeX8X X X&X;X} . .                         ",
"  . . < < b H H N N z < < < 1 ..,X,X3X4X1X>X=XW i i.F.g.$.#.].4XqXrXeX7X X.X&X;X} . .                         ",
"      . . 4 H F l k 1 . . . . I H.H.3X0X3XqX2XO.i u.M.b.X.i I.0XqXrXeX7X X.X&X;X} . .                         ",
"      . . 4 H G l k # . . . . d i.H.3X3X0X0X2XO.i u.M.b.X.i I.0XqXrXeX7X X.X&X;X} . .                         ",
"      . . 1 b l # @ o     . . $ > w J.J.OX@X@X!.Q.C.M.b.X.i I.0X0XqXwX6X$X$Xf w 9                             ",
"      . . 1 k 2 o . .     . . . . X +.$.OX+X+X[.`.A.M.m.X.i I.0XqXqXqX<X=X].= . .                             ",
"      . . # < < . .       L L u 9 t ^ ^ [ oXoX(.F.Z.c.d.+.O.{.3X3X2X3X&X=.%.$ .                               ",
"          . . .           M.M.A.`.W.% . o . - V.M.u.j W *X=X=X=X=X=X=X} O O                                   ",
"            . .           M.M.A.^.W.% . . . & V.M.u.P W ].=X=X=X=X=X=X} . .                                   ",
"                          L L L t w b v < . % h.F.#.% ; I / / / / w w > . . . .                               ",
"                          . . . . o F -.4 . $ E.'.^ . . 2 2 2 k 2 . o . . . . . .                             ",
"                          . . . . o b K 5 . $ T.L.I . o z l l k 2 o . O * * % % $                             ",
"                                    . O . . o F H 4 . o A H v k 2 . . q ' ] g R , . .                         ",
"                                    . . . . o F H 5 . o A -.v 2 2 o O q ' ] T j 7 . .                         ",
"                                . . . . { %X%X4.H M r u J D G A N b b 4 0 0 h E 7 . .                         ",
"                              . . . . . #XeXeX4.H I P T J D D H D D D 4 . X h E 7 . .                         ",
"                              . . . * O XXtX9Xr.r./ y y J D H H H 3.1.M 1 & y y : . .                         ",
"                          . . . . O _ ` ' | XXyXeX .. o A H H D :.G.M.k.7.>.@ . X                             ",
"                          . . . X O _ ' ' ` XXtXeXOXX o A D J G ,.n.B.k.5.3.@ X                               ",
"                      . . . . - r s U U { ` ` | } h r r I I I ( ( e.j.e.0.3.@ . .                             ",
"                    . . . . . , j a a a { ` _ O . : E a P a j j P 8.5.5.0.3.@ .                               ",
"                    . . . + + t O.O.E a f _ ) * # w ! ! ! ! ! ! ~ 0.0.5.2.,.o . .                             ",
"                    . . X p i =.*X].W R 8 . @ A G :.q.7.0.8.8.0.0.0.0.<.H G o . . . . . .                     ",
"                    . . X p a =.;X].O.E , . o A H :.0.0.0.0.0.0.0.0.0.<.D F o . . . . . .                     ",
"                    . . X s d d { d , ; 6 b b :.<.2.0.0.0.0.0.0.0.:.:.B < < O . - r r r r - . .               ",
"                    . . X e s - . X . . 4 -.H 2.0.q.0.0.q.0.0.0.5.-.H 4 . . . . 7 E P R P 7 . .               ",
"                      . X , e > X X . . 5 A S ,.>.,.>.>.>.>.>.>.,.S N 4 + X X X 7 j g j P 7 . .               ",
"                          X . - s , X . . o O X o o o o o o o o o . o : i p s s s s s g E 7 . .               ",
"                          . . > s e X . . . . . . . . . . . . . . . X , R a s s s s s g E 7 . .               ",
"                              + - % . . .                       . . . ; d d s s s s s ; : -                   ",
"                                . . . .                           . . > s s r s s s s . .                     ",
"                                . . . .                           . . - e e e e 8 s , X .                     ",
"                                                                      X X . X X . X .                         ",
"                                                                      . . . . . . . .                         ",
"                                                                                                              ",
"                                                                                                              ",
"                                                                                                              "
};
