/* XPM */
static char *e360d6ef19ed49ebba0a2e7effead395wnGiHXdNKbzfYvp3[] = {
/* columns rows colors chars-per-pixel */
"60 61 221 2 ",
"   c None",
".  c #000101",
"X  c #020B04",
"o  c #0D0C0A",
"O  c #0B0503",
"+  c #170C0A",
"@  c #031204",
"#  c #041C0A",
"$  c #091B07",
"%  c #171409",
"&  c #1D1816",
"*  c #2A170B",
"=  c #291911",
"-  c #361E12",
";  c #341E0F",
":  c #05260C",
">  c #0D240A",
",  c #092D09",
"<  c #06260C",
"1  c #0A3E0B",
"2  c #0A330A",
"3  c #063312",
"4  c #093A11",
"5  c #062F10",
"6  c #2A2719",
"7  c #362514",
"8  c #35360B",
"9  c #121D28",
"0  c #3C3529",
"q  c #232A24",
"w  c #48281C",
"e  c #4C3A1C",
"r  c #5E351A",
"t  c #573118",
"y  c #532D16",
"u  c #6E3B1E",
"i  c #723E1E",
"p  c #4C2A21",
"a  c #463A2D",
"s  c #553829",
"d  c #6A3C20",
"f  c #753F20",
"g  c #793F20",
"h  c #0D420D",
"j  c #0E4E13",
"k  c #0B4B18",
"l  c #164411",
"z  c #0E5215",
"x  c #0B541C",
"c  c #0C5A1D",
"v  c #1B5D15",
"b  c #175412",
"n  c #11480F",
"m  c #2C4817",
"M  c #0E661F",
"N  c #1E6216",
"B  c #256A19",
"V  c #2D7E1E",
"C  c #2C751D",
"Z  c #31771F",
"A  c #3A4C2E",
"S  c #0D6221",
"D  c #0F6A21",
"F  c #0F7728",
"G  c #0E7B29",
"H  c #0F7526",
"J  c #117324",
"K  c #107B29",
"L  c #147526",
"P  c #146C21",
"I  c #287127",
"U  c #4D481C",
"Y  c #77451D",
"T  c #7D511D",
"R  c #666601",
"E  c #4E5523",
"W  c #555B24",
"Q  c #554839",
"!  c #554737",
"~  c #5C4E22",
"^  c #684823",
"/  c #744120",
"(  c #7A4824",
")  c #6A5322",
"_  c #795B31",
"`  c #6A5438",
"'  c #4E662E",
"]  c #736126",
"[  c #01384C",
"{  c #223A52",
"}  c #365778",
"|  c #2A4057",
" . c #594A42",
".. c #594A47",
"X. c #4D4E50",
"o. c #587544",
"O. c #756957",
"+. c #635543",
"@. c #80521E",
"#. c #987318",
"$. c #A17F16",
"%. c #8B592B",
"&. c #885937",
"*. c #804E28",
"=. c #946738",
"-. c #9C793A",
";. c #A3773D",
":. c #A16F37",
">. c #916441",
",. c #996D4A",
"<. c #897457",
"1. c #987451",
"2. c #A47B42",
"3. c #A97E42",
"4. c #A17741",
"5. c #827A79",
"6. c #32841F",
"7. c #1B8429",
"8. c #17832A",
"9. c #228A29",
"0. c #288625",
"q. c #328521",
"w. c #348B22",
"e. c #388F24",
"r. c #2D9429",
"t. c #369124",
"y. c #3C9E29",
"u. c #369626",
"i. c #3FA229",
"p. c #4C9B1F",
"a. c #5EA71D",
"s. c #69B01D",
"d. c #439E29",
"f. c #41A429",
"g. c #43A92A",
"h. c #49A827",
"j. c #66AE28",
"k. c #589452",
"l. c #778F78",
"z. c #B4B500",
"x. c #B1A711",
"c. c #A8823D",
"v. c #A5803D",
"b. c #B18E2A",
"n. c #ADB327",
"m. c #C9B510",
"M. c #D8B931",
"N. c #A8D111",
"B. c #C1C200",
"V. c #DDCD11",
"C. c #E3D416",
"Z. c #EADA17",
"A. c #C2E10E",
"S. c #D7EC09",
"D. c #E9E806",
"F. c #FEFE01",
"G. c #F8F30B",
"H. c #F9ED12",
"J. c #F5E51B",
"K. c #F0EE0A",
"L. c #E7CE2F",
"P. c #EBCD32",
"I. c #E7C439",
"U. c #EDD929",
"Y. c #FBF32E",
"T. c #9C835D",
"R. c #AC8244",
"E. c #B68A46",
"W. c #B88C47",
"Q. c #B7915B",
"!. c #B88F4E",
"~. c #97846B",
"^. c #A5996D",
"/. c #BA9467",
"(. c #B49876",
"). c #A68E6D",
"_. c #C7994B",
"`. c #D4A44F",
"'. c #DDAD4F",
"]. c #DDAB53",
"[. c #D7A755",
"{. c #D8AD4C",
"}. c #E4BA44",
"|. c #E1B24C",
" X c #E1AD52",
".X c #E6B354",
"XX c #C19D6F",
"oX c #CBA97D",
"OX c #2E509C",
"+X c #2C4F9C",
"@X c #3A5AA1",
"#X c #62709A",
"$X c #03B9FD",
"%X c #938D92",
"&X c #9DB084",
"*X c #999EA2",
"=X c #BAB8B9",
"-X c #D6B58C",
";X c #D8B68D",
":X c #DBB98E",
">X c #D3B184",
",X c #D0B089",
"<X c #A7CFB1",
"1X c #AAD2B4",
"2X c #E2C49A",
"3X c #E9CB9D",
"4X c #F3D8AE",
"5X c #F6DBB3",
"6X c #EDD1A7",
"7X c #FEE5BC",
"8X c #FFE8BE",
"9X c #FDE4B7",
"0X c #D9CDA9",
"qX c #B9DACF",
"wX c #E1DEDD",
"eX c #FFEAC1",
"rX c #FFF2DB",
"tX c #D9DFEA",
"yX c #FFF7E9",
"uX c white",
"iX c #DDE3E9",
/* pixels */
"                                                                                                                        ",
"                                                                                                                        ",
"                                                                                                                        ",
"                                                                                                                        ",
"                                                                                                                        ",
"                                                                                                                        ",
"                                                      K G 9.f.f.f.f.w.h h D 8.L / / =.;.2.-.2.                          ",
"                                                      8.K 7.f.f.f.f.w.h h P 8.I T T =.R.R.R.R.                          ",
"                                        h h D G 9.f.f.y.y.y.f.f.f.f.w.h h 0.i.j.D.D.M.`.`.`.`.].].`.3.2.                ",
"                                        h h J G 7.f.f.f.f.f.f.f.f.f.w.h h 6.i.s.F.F.I.].].].]. X].`.3.2.                ",
"                                      L B B 0.9.r.f.f.f.f.f.f.f.f.g.w.n h 6.i.j.U.U.U.P.P.P.P.P.P.I.W.W.R.              ",
"                        h h h h h J 8.7.i.i.f.f.f.f.f.f.f.f.i.f.i.g.w.h h 6.i.j.'.].J.F.F.F.F.F.F.G.|..X_.2.2.          ",
"                        h j h h j J K 9.f.f.f.f.f.f.f.f.f.f.i.f.y.i.6.n n w.h.j.{. XJ.F.G.F.F.G.F.H.|.|._.v.c.          ",
"                    h n M J J J J t.y.i.f.f.f.f.i.f.f.f.f.f.f.f.B b N t.u.N.K.D.G.G.P.|.}.}.}.}.}.I.H.G.K.D.V.@./       ",
"                    h h J K K K G y.f.f.f.f.f.f.f.g.i.f.f.f.f.f.v 1 v f.i.A.F.F.F.F.P.]..X].].].].}.F.F.F.F.D.@.f       ",
"                  4 z c H K K K G r.r.u.f.f.f.f.u.V 6.V V q.f.f.v 1 v i.g.A.F.G.J.U.M._._._._._._.`.U.J.V.m.m.@./       ",
"              . . 3 K K K G K K G K G 9.f.f.f.f.q.h h h 1 v f.f.v 1 v f.i.A.F.H.'.].W.4.4.4.2.2.;.R.]. X:.u f           ",
"              . . 4 K F K K K K G K G 9.i.y.i.f.q.h h n h N y.y.N h v g.h.A.F.H.'.'.W.2.2.2.3.4.-.R.[. X:.i /           ",
"          . X x S D K K K K K K K K K K 7.7.7.7.9.e.t.e.e.6.b b V t.a.S.S.L.}.{.E.R.XXoXoXoX>X` % =                     ",
"          . X D 8.G K K K K K K K K K K G G F G 7.g.f.g.g.w.h h w.g.s.F.F.I.].`.;.;.XX;X-X-X-XQ . .                     ",
"          . X D G K K G K K K K K K G K K K K G 7.r.r.q.6.C z z 0.r.a.F.F.I.[.[.Q.Q.>X2X2X-X;XQ . .                     ",
"          . X D G G K K K K K G K K K K K K K K K K K z 1 z G 8.G G h.F.F.I.[..X-X-X4X8X9X-X;XQ . .                     ",
"          . X D K K K K K K F H K K K K K F K K K F F z h z G G G G h.F.F.I.'.].-X-X6X7X4X-X-XQ . .                     ",
"    . . 3 S S F K D j j j z 1 # # h j j j j j j j j z M D M z j U ~ _ b.b.U.H.Y.4X5XO.0 a &.&.7 . .                     ",
"    . . 4 8.8.G 8.M 1 h h h > . . 2 h h 1 h h h h h 2 D G D h 1 e g *.4.4.C.F.Y.7XeX .. O i i = . .                     ",
"    @ @ 4 D D D M j , , , , : . . < 2 2 h h h h N ' o.k.k.k.' ' ^ i %.E.c.M.C.U.7XeX~.X.......a a 0                     ",
". X 3 h h h h h h < . . . . .     . . @ h h h 1 o.eXeXeXeX4X,X,X>.u %.]. XW.;.Q.9X7XyXuXtX@X+X%X;X(.o .                 ",
". X 2 h h h h 4 h < . . . . .     . . @ h h h 1 o.eX5XeXeX5X-X-X=.i %.{. XW.;.Q.9X7XyXuXtX@X+X%X;X(.o .                 ",
"    @ @ @ @ @ X @ @                   X @ @ @ X A /./.6XeX7X4X4X,.f #.J.J.b.( ,.7X7XyXuXtX@X@X%X:X(.o .                 ",
"    . . . . . . . .                     . . . . ; ;.;.3XeX7XeX7X1.d #.G.F.$.f >.5XeXyXuXtX@X+X%X:X(.o .                 ",
"    . . . . . . .                       . . . . * _ _ >X3X0XqXqX1.%.b.F.F.$.u >.5XeXrXyXtX#X#X5.T.<.o .                 ",
"                                            . . . . . _ 3.l.$X$X&X XM.F.F.$.d >.7X7X7XeX5X-X-XQ . O                     ",
"                                            . . . . . _ ;.l.$X$X&X XI.F.F.$.d >.5XeXeX7X5X,X;XQ . .                     ",
"                                            z.z.x.-.-.e 7 q [ [ n.H.V.#.#.!./.XX2X2X2X2X,Xa 0 6                         ",
"                                            F.F.J. X X7 . . . . z.F.V.Y f /.:X;X;X;X;X:X(.O .                           ",
"                                            B.B.x.R.R.8 X X . . x.H.m.r t <.^.^.^.^.).~.<.o .                           ",
"                                            . O @ O O 2 h , . . ;..XR.. . , n n l l # . .                               ",
"                                            . . . . . 2 h 5 . . v..XR.. . , h h h 4 $ . .                               ",
"                                                . . . k M M x x m e 8 , , x D P D D S x k X .                           ",
"                                                  . . S 8.G G G : . X h h P K K K G K G S . .                           ",
"                                                  . . c G F S S < # : j j c S S K K K G P 8 8 8                         ",
"                                                  . . c 8.c . O x K F F F 5 . # F K G G e.K.F.R . .                     ",
"                                                  . . M G c . . x G F G G < . # F G G G t.F.F.R . .                     ",
"                                              . : x z A W 0 . . l.1X<X<X<XA . % E E E E W a.a.m . .                     ",
"                                            . . : G K ~ g t . . =XuXuXuXuXX.. + f f f g ~ L G 5 . .                     ",
"                                            . . : G K W ) e . . *XiXtXtXtXX.. % ) ) ) ) W 0.8.2 . .                     ",
"                                            . . < G K u.h.Z . . | } } } } 9 . $ y.d.d.d.d.f.i.l . .                     ",
"                                            . . < G G y.g.Z . . { } } } } 9 . > d.f.f.f.f.g.g.l . .                     ",
"                                                # 3 3 w.g.Z . . 0  . . . .& . > d.f.f.f.e.l l $ . .                     ",
"                                                  . . Z g.Z . . y Y i u i * . > d.f.f.g.w.O . . . .                     ",
"                                                  . . B e.B . . s &.&.&.&.= . $ q.e.w.w.C X . . . .                     ",
"                                                      X X X . . 1.>X-X5X9XQ . . X X X X . . .                           ",
"                                                      . . . . . ~.:X2X7XeX .. . . . . . . . .                           ",
"                                                          . . . a Q +.O.O.6 . O = = - w - . .                           ",
"                                                            . . . . . . . . . o p p d ( u . .                           ",
"                                                            . . . . . . . O O + w p d / r . .                           ",
"                                                                . . . . . = p p f / / / r . .                           ",
"                                                                . . . . . - p p / / / / r O .                           ",
"                                                                    . . . + = = - - 7 - * . .                           ",
"                                                                      . . . . . . . . . . . .                           ",
"                                                                      . . . . . . . . . . . .                           "
};
