/* XPM */
static char *e8cf0bc545a04654da635091504da277Amc1FV75Zs1HbELM[] = {
/* columns rows colors chars-per-pixel */
"56 61 226 2 ",
"   c None",
".  c #000001",
"X  c #0A0504",
"o  c #010B04",
"O  c #0B0806",
"+  c #08090A",
"@  c #140B06",
"#  c #190D06",
"$  c #041304",
"%  c #061E07",
"&  c #0A170A",
"*  c #1B1707",
"=  c #06161C",
"-  c #191612",
";  c #29170C",
":  c #331C0E",
">  c #391F0F",
",  c #2C1B13",
"<  c #331D15",
"1  c #062107",
"2  c #06260A",
"3  c #0B3E0B",
"4  c #0A350B",
"5  c #16380E",
"6  c #083E15",
"7  c #0A3210",
"8  c #0F2C10",
"9  c #2A221D",
"0  c #3A2111",
"q  c #3C251B",
"w  c #2F210F",
"e  c #1A2A3A",
"r  c #332C23",
"t  c #43261D",
"y  c #492A17",
"u  c #532E18",
"i  c #573319",
"p  c #49371C",
"a  c #64391C",
"s  c #6C3C1D",
"d  c #61371B",
"f  c #713E1E",
"g  c #4B2920",
"h  c #463A2D",
"j  c #583520",
"k  c #4E3F34",
"l  c #663A20",
"z  c #753F20",
"x  c #0D430D",
"c  c #0D480F",
"v  c #11480F",
"b  c #0D4910",
"n  c #0D4514",
"m  c #134D10",
"M  c #1A4913",
"N  c #0E5C1A",
"B  c #0D5318",
"V  c #1A5B14",
"C  c #215315",
"Z  c #0E641D",
"A  c #1D6115",
"S  c #10611C",
"D  c #27731B",
"F  c #2B7A1E",
"G  c #286F19",
"H  c #0E6C23",
"J  c #0C6020",
"K  c #0E7A29",
"L  c #0D7425",
"P  c #107426",
"I  c #117C29",
"U  c #1B7728",
"Y  c #1B6222",
"T  c #2D6925",
"R  c #227A28",
"E  c #3C7722",
"W  c #3C7237",
"Q  c #095C20",
"!  c #74401F",
"~  c #6B431F",
"^  c #59473D",
"/  c #5F503E",
"(  c #524B29",
")  c #684724",
"_  c #754220",
"`  c #7C4C2B",
"'  c #7A4825",
"]  c #6F5A30",
"[  c #5A7325",
"{  c #446420",
"}  c #6D6A2C",
"|  c #325476",
" . c #2C4B6A",
".. c #554D46",
"X. c #55505B",
"o. c #675948",
"O. c #717B4C",
"+. c #706D51",
"@. c #787779",
"#. c #736861",
"$. c #5C6C60",
"%. c #83571D",
"&. c #9B7618",
"*. c #875937",
"=. c #865429",
"-. c #93622D",
";. c #9B763C",
":. c #926F32",
">. c #A87639",
",. c #B07F3E",
"<. c #966A46",
"1. c #9E744A",
"2. c #A37A41",
"3. c #A67C41",
"4. c #827561",
"5. c #168129",
"6. c #228B29",
"7. c #298825",
"8. c #318520",
"9. c #348A23",
"0. c #299029",
"q. c #2B9127",
"w. c #3B9926",
"e. c #359B29",
"r. c #399E29",
"t. c #389526",
"y. c #328B3E",
"u. c #3DA129",
"i. c #6CB01B",
"p. c #41A429",
"a. c #44A92A",
"s. c #56AD28",
"d. c #659F26",
"f. c #7CC11D",
"g. c #6F8179",
"h. c #59945D",
"j. c #808001",
"k. c #9C893D",
"l. c #AE8A3A",
"z. c #B4952F",
"x. c #B4AC32",
"c. c #A3A62F",
"v. c #C7AD29",
"b. c #C3A028",
"n. c #D8B538",
"m. c #CDAD34",
"M. c #E4BE3E",
"N. c #D1BD1D",
"B. c #B5D60D",
"V. c #A5C41F",
"C. c #D0C907",
"Z. c #EADC17",
"A. c #CFE70C",
"S. c #E7E903",
"D. c #E9F305",
"F. c #FFFF00",
"G. c #FBF609",
"H. c #F6F207",
"J. c #F4E31C",
"K. c #F0EA04",
"L. c #EFD629",
"P. c #F2DA28",
"I. c #E8C539",
"U. c #FAF135",
"Y. c #D5CA2F",
"T. c #AA8145",
"R. c #B68946",
"E. c #B7914D",
"W. c #B6AC46",
"Q. c #849866",
"!. c #9F8C60",
"~. c #BA9666",
"^. c #AC9171",
"/. c #B09372",
"(. c #88AF72",
"). c #BFA17D",
"_. c #ABB176",
"`. c #C4984B",
"'. c #D29F4E",
"]. c #D4A44C",
"[. c #DEAB54",
"{. c #D7A752",
"}. c #D7B051",
"|. c #E2B549",
" X c #E5BC43",
".X c #E1AC54",
"XX c #E6B156",
"oX c #CEA973",
"OX c #DEC84A",
"+X c #33549E",
"@X c #2E519D",
"#X c #3557A1",
"$X c #496784",
"%X c #6A9081",
"&X c #02B0F0",
"*X c #7FD0DE",
"=X c #9D9392",
"-X c #83838B",
";X c #AA9E8A",
":X c #ADB0AD",
">X c #B6BB9F",
",X c #CCAA81",
"<X c #C4AE8D",
"1X c #D6B58C",
"2X c #D9B68D",
"3X c #DCB98E",
"4X c #DBBA90",
"5X c #CFB58F",
"6X c #DDC49F",
"7X c #E5CDA7",
"8X c #EDD2A7",
"9X c #F6DBB1",
"0X c #F9DEB5",
"qX c #F4D7AF",
"wX c #FEE5BB",
"eX c #FCE3B9",
"rX c #E2C8A1",
"tX c #80CEDA",
"yX c #FFEBC2",
"uX c #FFF2CE",
"iX c #CFD7E8",
"pX c #D3DBE8",
"aX c #FFF7E9",
"sX c white",
"dX c #E8EFEE",
"fX c #D1D4CF",
/* pixels */
"                                                                                                                ",
"                                                                                                                ",
"                                                                                                                ",
"                                    K 6.p.p.p.p.p.p.p.V 3 B I I ( ! ` T.T.                                      ",
"                                  I I 6.p.p.p.p.p.p.p.V 3 B K K ( s ' >.2.                                      ",
"                                  5.I 6.p.p.p.p.u.w.w.A m V 7.7.] =.%.T.T.                                      ",
"                    x x P K 6.p.p.r.r.p.p.p.p.p.9.m m 8.u.i.S.D.n.].].{.{.R.2.2.                                ",
"                    x x H K 6.p.p.p.p.p.p.p.p.p.9.3 x q.u.i.F.F.I.[..X.X.XR.2.2.                                ",
"                  B N S 7.0.e.p.p.p.p.p.p.u.F G G D T d.c.W.L.L.P.L.L.L.L.m.`.R.3.2.                            ",
"              x x N I I r.p.u.p.p.p.p.p.p.u.V 3 A p.p.W.XX[.{.}.J.F.F.F.F.I..X].3.2.                            ",
"              x x V I I r.p.p.p.p.p.p.u.p.p.V 3 A p.p.x.|.|.}.|.J.G.G.G.G.I.|.}.l.l.                            ",
"              x x N I I r.p.p.p.p.p.p.p.p.p.V 3 A p.p.A.G.G.G.G.I.|.|.|.|.J.G.G.H.H.v.2.2.                      ",
"              x 3 N I I r.p.u.p.p.p.p.p.p.u.V 3 A u.u.A.F.F.F.F.I..X[..X.XJ.F.F.F.F.v.2.3.                      ",
"          x x N N Z I 5.r.p.t.D G G D 8.p.p.V 3 A u.u.Y.L.J.F.F.n.E.R.>.>.m.L.J.F.F.v.2.2.                      ",
"          x x P I I I I r.p.F 3 x x 3 A p.u.V x A u.p.W.[. XF.F.b.2.:.f f l.[. XG.F.v.2.3.                      ",
"        3 x c P I I I I e.u.8.m m m m A w.w.V c G s.s.W..X XH.H.m.3.1.` =.R.'.|.G.G.v.2.2.                      ",
"    . . % x x P K I I K 5.I 6.w.w.w.w.8.m m 9.r.i.D.D.M.[.'.l.l.~.1XoXoX,X<.' -.|.|.E.>.3.                      ",
"    . . % x c P I I I I I I 6.a.p.p.p.8.x x 9.p.f.F.F.I.[.'.2.2.).1X2X2X2X<.! =.{..XE.>.2.                      ",
"    . . % x m P I I P I I I 5.q.0.F D A x x R 6.i.F.F.I.[.{.~.~.4X8X7X1X1X/ > u >.>.>.                          ",
"    . . % x x P K I I I I I I I K c x x x x H K s.F.F.M.[..X1X1XqXyX9X2X2Xk . # s _                             ",
"    . . % x c P I I K I I K I P L b b b x v I 6.d.K.K.I.}.XX4X4X6X7X6X,X,Xh . @ ~ !                             ",
"    . . 1 x x P I I P I I I Z c m Z U Z x v k.].`.l.l.Z.F.U.0XyXo.- 9 ` ` : . X                                 ",
"    . . 1 x x P I I I K K K Z 4 x Z 5.H 3 x l.XX].k.3.Z.F.U.yXwXk X @ l f ; . .                                 ",
"        $ 1 2 H I L N S N N W Q.Q.(.h.(.O.O.2.>.l.E.`.v.N.OXeXyX<X$X@.X.X.o.o./ O .                             ",
"          . o H I Z x x x 3 h.eXyXyXyXqX2X1X*.s -..X.XR.>.~.0XwXaXsXiX#X@X=X3X/.+ .                             ",
"          . . H I Z x x 3 4 O.9XqX0XyXqX2X2X*.s -.|.|.T.;.~.wXwXaXsXiX#X+X=X2X^.X .                             ",
"          . o H I J x x $ . p E.E.8XyX0X0X0X<.s &.G.G.&._ 1.wXwXaXsXpX#X+X=X2X^.+ .                             ",
"          . o H I Z x 3 o . q T.3.8XyXwXyX0X<.l &.F.F.&.l <.wXwXaXsXiX#X@X=X3X^.+ .                             ",
"          . . B S c 1 % o . - j k ~.oX>X*X*X!.>.b.F.F.&.z <.yXwXuXaXfX-X-X#.o./ X .                             ",
"          . . 6 x 2 . . . . . . X *.3.%X&X&X_..XI.F.F.&.s <.0XyXwXyX9X3X4Xh . .                                 ",
"          . . 4 3 1 . . * * * - ; ] ;.g.&X&X_.|.I.K.K.&.` 1.0X0X0XwX8X<XoXr . .                                 ",
"              o o .     S.S.Y.,X/.r O & = = C.G.C.%.=./.,X,X4X4X4X4X^.- - + . .                                 ",
"              . . .     F.F.U.2X1X9 . . . X C.F.C.! ! ~.4X2X2X1X2X3X!.. . . . .                                 ",
"                .       j.j.} o.o.8 1 $ . X x.P.z.> q } O.O.O.O.+.o...e e < 0 < . .                             ",
"                        . . . . . 4 x 2 . . l.XX;.. . 2 3 3 3 3 $ . = | | / ' i X .                             ",
"                        . . . . . 5 M 4 . X ;.}.;.. . 4 c c c c % o -  . .k s u . .                             ",
"                              . X i ~ y . . 9.s.F . . N K P K P H P N + + o O O                                 ",
"                              . . i ! u . . 7.u.F . . N I K I I K K N . . . . .                                 ",
"                    . . .   $ 1 1 w > ^ -Xg.y.6.T 0 0 Y K I I I d.V.i.V C & . .                                 ",
"                    . . . . $ v x o . X.sXsXh.K T _ _ T K K K I B.F.A.p.p.5 . .                                 ",
"                    O O . . $ 3 3 @ X X.dXdXh.y.W s a T U U U U B.D.A.p.p.5 . .                                 ",
"              . . : s d @ . . o o u a ^ $X$.fXdX:XO O i ) ) ) ) E 6.7.p.p.5 . . . . . . . . . . . .             ",
"              . . : _ s @ . . . X i _ ..@X| iXsX:X. . u f f _ z T L 5.p.p.5 . . . . . . . . . . . .             ",
"          . X : > u ! s @ . r 4.#.` f ) ....#.%X$.6 6 { [ [ [ [ 9.6.0.0.0.5 . O > 0 0 0 0 0 0 # . .             ",
"          . X a _ _ _ ~ @ . o.yXwX<.a _ _ z # . 1 K I e.p.p.u.a.p.p.r.I K 7 . # _ _ _ _ _ _ _ : . .             ",
"          . X d _ z _ l @ . ..7XrX<.` ` a a * o 7 I 5.e.p.p.u.u.t.t.9.H H 8 . # l l z _ _ _ _ : . .             ",
"          . X a _ l g g O . + - 9 <XqX^.X O B L I u.u.u.p.e.5.5.7 + + $ o 9 t t g g l _ _ _ _ : . .             ",
"          . X a _ j g y O . . . + 5XuX;X. . J 5.6.p.a.a.a.e.I K 2 . . . . < g g g g d _ _ _ _ : . .             ",
"          . X u j j g t O . .   + #.4.^ . . 7 6 n C C C C M 6 6 1   . . . , g g g g g j j > 0 ;                 ",
"          . . q g g g t @ . .     . . . . . . . . . . . . . . .       . . < g g g g g g g . .                   ",
"          . X < g q g q O . .     . . . . . . . . . . . . . . .       . . , g q q g q g < . .                   ",
"              X X X . X                                                   X X X X X X X X                       ",
"              . . . . .                                                   . . . . . . . .                       ",
"                . . .                                                       . . . . . .                         ",
"                                                                                                                ",
"                                                                                                                ",
"                                                                                                                ",
"                                                                                                                ",
"                                                                                                                ",
"                                                                                                                ",
"                                                                                                                "
};
