/* XPM */
static char *result[] = {
/* columns rows colors chars-per-pixel */
"56 60 218 2 ",
"   c #000101",
".  c #0B0604",
"X  c #020C05",
"o  c #050B0B",
"O  c #0E0906",
"+  c #061205",
"@  c #071B08",
"#  c #1B1B01",
"$  c #15110C",
"%  c #18190A",
"&  c #04141A",
"*  c #151311",
"=  c #1A1917",
"-  c #120D09",
";  c #371E0E",
":  c #241D15",
">  c #381F10",
",  c #251D0F",
"<  c #062107",
"1  c #072B0C",
"2  c #0B3D0C",
"3  c #09360A",
"4  c #093D15",
"5  c #073B15",
"6  c #132D0C",
"7  c #3A2314",
"8  c #2D3913",
"9  c #342F27",
"0  c #43251D",
"q  c #52321A",
"w  c #66391C",
"e  c #6C3B1D",
"r  c #64371A",
"t  c #723F1E",
"y  c #4B2A20",
"u  c #493A2C",
"i  c #593C21",
"p  c #542F20",
"a  c #633A22",
"s  c #753F20",
"d  c #783F20",
"f  c #0D420D",
"g  c #0C4413",
"h  c #0D4910",
"j  c #124C10",
"k  c #1C4B13",
"l  c #0E5D1B",
"z  c #0D5418",
"x  c #194B12",
"c  c #215315",
"v  c #245B17",
"b  c #254E1D",
"n  c #0F621D",
"m  c #17621E",
"M  c #27731B",
"N  c #2A781D",
"B  c #32791F",
"V  c #0E6D24",
"C  c #0F6322",
"Z  c #0E7225",
"A  c #0E7B29",
"S  c #0C7B27",
"D  c #107526",
"F  c #117827",
"G  c #1C7528",
"H  c #107C29",
"J  c #1A7727",
"K  c #186924",
"L  c #247B30",
"P  c #3A5421",
"I  c #70411E",
"U  c #78720B",
"Y  c #594B28",
"T  c #425E25",
"R  c #6A4621",
"E  c #6A4627",
"W  c #744322",
"Q  c #7A4927",
"!  c #6B5328",
"~  c #5A7425",
"^  c #4F702E",
"/  c #487D15",
"(  c #32475F",
")  c #39516B",
"_  c #2D4F72",
"`  c #284665",
"'  c #534A5D",
"]  c #6B5B46",
"[  c #6B5B4C",
"{  c #71794B",
"}  c #786750",
"|  c #69656F",
" . c #82561D",
".. c #847F07",
"X. c #875928",
"o. c #8C5E31",
"O. c #804F2C",
"+. c #966C35",
"@. c #9B783D",
"#. c #8F6B33",
"$. c #A5783B",
"%. c #A17742",
"&. c #A37A42",
"*. c #A97E43",
"=. c #A87F48",
"-. c #A57C57",
";. c #926D4C",
":. c #14812A",
">. c #1A8329",
",. c #278C28",
"<. c #299129",
"1. c #3C9B26",
"2. c #399827",
"3. c #348421",
"4. c #3DA129",
"5. c #7F8000",
"6. c #45902A",
"7. c #41A529",
"8. c #43A92A",
"9. c #4CA02C",
"0. c #52A62E",
"q. c #64A218",
"w. c #2A8A41",
"e. c #7C9660",
"r. c #808001",
"t. c #9F8E1C",
"y. c #86BB15",
"u. c #AC863B",
"i. c #AE893A",
"p. c #A7843A",
"a. c #B28D3C",
"s. c #89A53C",
"d. c #BFBF33",
"f. c #969C2B",
"g. c #D2BE1E",
"h. c #D2BD22",
"j. c #C8AC2C",
"k. c #94C715",
"l. c #A1D314",
"z. c #A0C819",
"x. c #E9E507",
"c. c #F1EB03",
"v. c #F2E90F",
"b. c #F6F206",
"n. c #FFFF00",
"m. c #FBF70A",
"M. c #EFF00D",
"N. c #D8C124",
"B. c #F1D829",
"V. c #E6CD28",
"C. c #DADB07",
"Z. c #90884F",
"A. c #AA8043",
"S. c #B18A47",
"D. c #B68C51",
"F. c #889667",
"G. c #AA8867",
"H. c #BA946C",
"J. c #B99671",
"K. c #AB9170",
"L. c #88B073",
"P. c #BEA17C",
"I. c #C5974A",
"U. c #D29F4E",
"Y. c #D7AA4C",
"T. c #D8A751",
"R. c #DDAA53",
"E. c #D7A452",
"W. c #C6A64E",
"Q. c #E1AE54",
"!. c #E4B055",
"~. c #E3B74A",
"^. c #C29E72",
"/. c #C6A67C",
"(. c #D7B87D",
"). c #ECDC47",
"_. c #FEF25D",
"`. c #E8D26F",
"'. c #2B4E9B",
"]. c #425D9B",
"[. c #807F8B",
"{. c #7F8080",
"}. c #4C9298",
"|. c #00AEEF",
" X c #0094CB",
".X c #72B9C6",
"XX c #7FD2E1",
"oX c #87868D",
"OX c #8796A5",
"+X c #99AABA",
"@X c #CDAA81",
"#X c #C5AB8E",
"$X c #D1AF82",
"%X c #D5B58C",
"&X c #DAB88E",
"*X c #D9B68D",
"=X c #DCBB91",
"-X c #D5B892",
";X c #CBB797",
":X c #C1BBB9",
">X c #A9C0AF",
",X c #DCC09A",
"<X c #E3C49B",
"1X c #E7CDA7",
"2X c #EBD1A9",
"3X c #F6DCB3",
"4X c #FDE4BB",
"5X c #FFE8BE",
"6X c #97A9CE",
"7X c #9AABD1",
"8X c #CCD6CF",
"9X c #FFEAC2",
"0X c #FFE7C1",
"qX c #FFF1DA",
"wX c #E6F2E9",
"eX c #FFFEFD",
"rX c #F0ECE5",
"tX c #5EB054",
/* pixels */
"tXtXtXtXtXtXtXtXtXtXtXtXtXtXtXtXtXtXtXtXtXtXtXtXtXtXtXtXtXtXtXtXtXtXtXtXtXtXtXtXtXtXtXtXtXtXtXtXtXtXtXtXtXtXtXtX",
"tXtXtXtXtXtXtXtXtXtXtXtXtXtXtXtXtXtXtXtXtXtXtXtXtXtXtXtXtXtXtXtXtXtXtXtXtXtXtXtXtXtXtXtXtXtXtXtXtXtXtXtXtXtXtXtX",
"tXtXtXtXtXtXtXtXtXtXtXtXtXtXtXtXtXtXtXtXtXtXtXtXtXtXtXtXtXtXtXtXtXtXtXtXtXtXtXtXtXtXtXtXtXtXtXtXtXtXtXtXtXtXtXtX",
"tXtXtXtXtXtXtXtXtXtXtXtXtXtXtXtXtXtXtXtXtXtXtXtXtXtXtXtXtXtXtXtXtXtXtXtXtXtXtXtXtXtXtXtXtXtXtXtXtXtXtXtXtXtXtXtX",
"tXtXtXtXtXtXtXtXtXtXtXtXtXtXtXtXtXtXH H 4.7.7.7.7.7.7.M f h D A T t W $.&.tXtXtXtXtXtXtXtXtXtXtXtXtXtXtXtXtXtXtX",
"tXtXtXtXtXtXtXtXtXtXtXtXtXtXtXtXtXH A >.1.7.7.7.7.7.8.M 2 h D A T t Q @.*.*.tXtXtXtXtXtXtXtXtXtXtXtXtXtXtXtXtXtX",
"tXtXtXtXtXtXtXtXtXtXtXtXtXtXtXtXtXH :.>.4.7.7.7.7.7.7.M 2 h F :.~  .X.p.i.i.tXtXtXtXtXtXtXtXtXtXtXtXtXtXtXtXtXtX",
"tXtXtXtXtXtXtXtXtXtXtXtXtXF A H A <.4.1.7.7.7.7.7.7.8.M 2 j 2.4.k.c.c.b.b.V.R.T.A.*.tXtXtXtXtXtXtXtXtXtXtXtXtXtX",
"tXtXtXtXtXtXtXtXtXtXtXtXtXH H F D ,.7.7.7.7.7.7.7.7.8.M 2 j 1.4.l.n.n.n.n.B.~.T.=.%.tXtXtXtXtXtXtXtXtXtXtXtXtXtX",
"tXtXtXtXtXtXtXtXtXtXtXtXC H H <.,.2.7.7.7.7.7.7.1.N M M M B s.s.d.B.V.N.h.j.D.I.h.g.j.tXtXtXtXtXtXtXtXtXtXtXtXtX",
"tXtXtXtXtXtXtXtXtXtXf f l H :.4.7.7.7.7.7.4.7.7.1.j 2 M 8.0.W.!.Q.R.E.*.%.&.&.i.b.n.g.%.&.tXtXtXtXtXtXtXtXtXtXtX",
"tXtXtXtXtXtXtXtXtXtXh h C H :.1.4.4.7.7.7.7.7.7.1.j 2 M 7.0.W.T.Q.~.Y.A.&.=.*.a.x.b.N.i.i.tXtXtXtXtXtXtXtXtXtXtX",
"tXtXtXtXtXtXtXtXf h Z D D A H H :.<.7.7.7.7.7.7.2.j f M 7.9.p.=.h.m.v.i.$.I.T.Y.S.i.h.b.c.i.$.tXtXtXtXtXtXtXtXtX",
"tXtXtXtXtXtXtXf f h D H H F H F F <.7.8.7.7.7.8.2.h 2 M 7.9.p.%.h.n.b.i.@.I.!.Y.*.%.g.n.b.i.&.&.tXtXtXtXtXtXtXtX",
"tXtXtXtXtXtXtXf f h D F H H H A F J N M M M M M N M M q.l.z.p.@.h.n.v.W.H.D.$.$.I.D.V.n.c.+.o.o.tXtXtXtXtXtXtXtX",
"tXtXtXtXtXtXtXtXf h D F F A H H H l f 2 f 2 f f j 1.4.l.n.b.A.%.h.n.m.(.%X-.e W E.R.B.n.b.Q s W tXtXtXtXtXtXtXtX",
"tXtXtXtXtXtXtXj h h A F A H H H H n h h h h f f j 2.2.k.n.b.i.&.h.c.v.&X*XD.Q o.I.U.V.c.x. .s tXtXtXtXtXtXtXtXtX",
"tXtXtXtXtXf f l D D F H F H F F H F D Z D D l f f F A k.n.M.i.&.A.i.S.$X%X@X@XJ.o.Q +.a.i.tXtXtXtXtXtXtXtXtXtXtX",
"tXtXtXtXtXf f l H A F H H H F H H H F A H :.l f h F S k.n.b.i.%.%.%.=.@X%X%X*X@XO.W o.&.&.tXtXtXtXtXtXtXtXtXtXtX",
"tXtXtXtXtXf f l H H A H V n m n n V H F n l l l m ^ ^ f.h.h.h.h.j.H.^.1X1X,X%X/.q > i tXtXtXtXtXtXtXtXtXtXtXtXtX",
"tXtXtXtXtXg f n H H A H n f f 2 f l A F h 2 n S L Z.&.=.&.u.b.n.).-X=X4X0X1X$X#X*   tXtXtXtXtXtXtXtXtXtXtXtXtXtX",
"tXtXtXtXtX3 2 z H H D D z 2 2 f 2 l S Z h h l S G #.$.&.&.i.b.n.).-X-X1X1X-X@XJ.$     tXtXtXtXtXtXtXtXtXtXtXtXtX",
"tXtXtXtXtXX X g H D h h 1   X 2 f f h h Z S l f x I W o.&.i.b.n._.3X1X9 * u O.W O     tXtXtXtXtXtXtXtXtXtXtXtXtX",
"tXtXtXtXtX    4 H D h h <     2 f f 2 f Z S l 2 f I s o.&.i.b.n._.0X1X$   ; s r .   tXtXtXtXtXtXtXtXtXtXtXtXtXtX",
"tXtXtXtXtX    1 l l f h <   X 2 g ^ F.F.L.L.e.{ { W s +.I.I.h.g.`.5X3XoXF.| ' ' ] ] u tXtXtXtXtXtXtXtXtXtXtXtXtX",
"tXtXtXtXtX    < f f f f <     3 2 F.9X9X5X5X2X*X/.Q s $.Q.T.*.%.$X5X9XeXeX7X'.].#X=X]     tXtXtXtXtXtXtXtXtXtXtX",
"tXtXtXtXtX    < h h 2 2 <   X 3 3 e.3X3X4X5X2X&X$XQ w $.~.Y.$.@./.9X5XeXeX6X'.].#X=X]     tXtXtXtXtXtXtXtXtXtXtX",
"tXtXtXtXtX    4 F C X X X tXtXX   Y D.D.3X5X4X4X1X:   r.n.x.X.s H.5X5XeXeX6X'.].#X*X]     tXtXtXtXtXtXtXtXtXtXtX",
"tXtXtXtXtX    4 :.V X   tXtXtX    i *.D.3X5X5X5X2X=   r.n.c. .e H.5X9XeXeX7X].].#X=X]     tXtXtXtXtXtXtXtXtXtXtX",
"tXtXtXtXtX    1 l z X     tXtX    , i Y /.$X>XXX.X*   r.n.c. .t H.5X5XqXqX:XoX].[ ] u tXtXtXtXtXtXtXtXtXtXtXtXtX",
"tXtXtXtXtX    < f 2 X     tXtX        O #.&.}.|.|.&   r.n.c. .e H.5X4X4X5X2X*X/.*   tXtXtXtXtXtXtXtXtXtXtXtXtXtX",
"tXtXtXtXtX    < 2 1 X   tXtXtX# # % $ , #.+.}.|. X&   U n.c. .t H.4X4X4X4X,X/.K.*   tXtXtXtXtXtXtXtXtXtXtXtXtXtX",
"tXtXtXtXtXtXtXX   X tXtXtXtXtXx.x.h.I.S., O o & &     r.n.c. .e -.=X=X=X=X} * $ tXtXtXtXtXtXtXtXtXtXtXtXtXtXtXtX",
"tXtXtXtXtXtXtX      tXtXtXtXtXn.n.B.!.U.$             r.n.b. .I -.=X*X*X=X]     tXtXtXtXtXtXtXtXtXtXtXtXtXtXtXtX",
"tXtXtXtXtXtXtXtX  tXtXtXtXtXtXtXtXt.! ! 6 @ 1 g 5 o   U B.N.q > Y { { ] ] u tXtXtXtXtXtXtXtXtXtXtXtXtXtXtXtXtXtX",
"tXtXtXtXtXtXtXtXtXtXtXtXtXtXtXtXtXtX    2 f n :.V o   ! !.I.$   < f 2     tXtXtXtXtXtXtXtXtXtXtXtXtXtXtXtXtXtXtX",
"tXtXtXtXtXtXtXtXtXtXtXtXtXtXtXtXtX    X g h z Z C o . ! I.a.% X 1 h g + X X tXtXtXtXtXtXtXtXtXtXtXtXtXtXtXtXtXtX",
"tXtXtXtXtXtXtXtXtXtXtXtXtXtXtXtXtX    X C F g X + r w 0 $ % C Z Z Z D V Z 5     tXtXtXtXtXtXtXtXtXtXtXtXtXtXtXtX",
"tXtXtXtXtXtXtXtXtXtXtXtXtXtXtXtXtX    X V :.4   O e d >   X V A :.A A H H 5   X tXtXtXtXtXtXtXtXtXtXtXtXtXtXtXtX",
"tXtXtXtXtXtXtXtXtXtXtXtXtXtXtXtXtX    X V H 4   o P T b 4 g 4 4 l A A A A / r.U #   tXtXtXtXtXtXtXtXtXtXtXtXtXtX",
"tXtXtXtXtXtXtXtXtXtXtXtXtXtXtXtXtXtX  X V A 4   o V S A A Z o   4 H S F :.k.n.x.#     tXtXtXtXtXtXtXtXtXtXtXtXtX",
"tXtXtXtXtXtXtXtXtXtXtXtXtXtXtXtXtXX X @ K G 4   o L w.w.w.L o   4 J J J S q.M.C.#     tXtXtXtXtXtXtXtXtXtXtXtXtX",
"tXtXtXtXtXtXtXtXtXtXtXtXtXtXtX    5 Z K Y R 7   = 8XwXwXwX8X=   > R R R R T ,.N X     tXtXtXtXtXtXtXtXtXtXtXtXtX",
"tXtXtXtXtXtXtXtXtXtXtXtXtXtXtX    4 :.J R W >   = wXeXeXeXwX=   > W W W W T A V X     tXtXtXtXtXtXtXtXtXtXtXtXtX",
"tXtXtXtXtXtXtXtXtXtXtXtXtXtXtX    4 H J ~ ~ 8   & OX+X+X+XOX*   8 ~ ~ ~ ~ 6.,.N X     tXtXtXtXtXtXtXtXtXtXtXtXtX",
"tXtXtXtXtXtXtXtXtXtXtXtXtXtXtX    4 H :.4.8.c   o ` _ _ _ ` o   c 8.7.8.4.8.7.2.+     tXtXtXtXtXtXtXtXtXtXtXtXtX",
"tXtXtXtXtXtXtXtXtXtXtXtXtXtXtX    5 Z D 2.8.c   o ` ) ) ) ( o   c 4.4.7.7.6.2.3.+   tXtXtXtXtXtXtXtXtXtXtXtXtXtX",
"tXtXtXtXtXtXtXtXtXtXtXtXtXtXtXtXtXX X @ 2.8.b   O a s E E a .   4 >.>.4.7.v + + tXtXtXtXtXtXtXtXtXtXtXtXtXtXtXtX",
"tXtXtXtXtXtXtXtXtXtXtXtXtXtXtXtXtX    + 2.8.c   . r s e t r .   4 :.:.4.8.c .   tXtXtXtXtXtXtXtXtXtXtXtXtXtXtXtX",
"tXtXtXtXtXtXtXtXtXtXtXtXtXtXtXtXtXtX  + k c 6   O ;.-.G.H.G.$   < 4 4 c c 2 tXtXtXtXtXtXtXtXtXtXtXtXtXtXtXtXtXtX",
"tXtXtXtXtXtXtXtXtXtXtXtXtXtXtXtXtXtXtXtX        = @X*X2X9X2X=             tXtXtXtXtXtXtXtXtXtXtXtXtXtXtXtXtXtXtX",
"tXtXtXtXtXtXtXtXtXtXtXtXtXtXtXtXtXtXtXtX        * K.J.-X1X;X= .   . . . . . tXtXtXtXtXtXtXtXtXtXtXtXtXtXtXtXtXtX",
"tXtXtXtXtXtXtXtXtXtXtXtXtXtXtXtXtXtXtXtXtXtX    . * * = = = > 0 0 0 0 r e >     tXtXtXtXtXtXtXtXtXtXtXtXtXtXtXtX",
"tXtXtXtXtXtXtXtXtXtXtXtXtXtXtXtXtXtXtXtXtXtX                0 y y y y s W 7     tXtXtXtXtXtXtXtXtXtXtXtXtXtXtXtX",
"tXtXtXtXtXtXtXtXtXtXtXtXtXtXtXtXtXtXtXtXtXtXtX            o 0 y p i r t W >     tXtXtXtXtXtXtXtXtXtXtXtXtXtXtXtX",
"tXtXtXtXtXtXtXtXtXtXtXtXtXtXtXtXtXtXtXtXtXtXtXtXtX        . 0 y a s W W W 7     tXtXtXtXtXtXtXtXtXtXtXtXtXtXtXtX",
"tXtXtXtXtXtXtXtXtXtXtXtXtXtXtXtXtXtXtXtXtXtXtXtXtX        . 7 y p w w w w 7     tXtXtXtXtXtXtXtXtXtXtXtXtXtXtXtX",
"tXtXtXtXtXtXtXtXtXtXtXtXtXtXtXtXtXtXtXtXtXtXtXtXtXtXtXtXtXtX. . . . O O . . tXtXtXtXtXtXtXtXtXtXtXtXtXtXtXtXtXtX",
"tXtXtXtXtXtXtXtXtXtXtXtXtXtXtXtXtXtXtXtXtXtXtXtXtXtXtXtXtXtX                tXtXtXtXtXtXtXtXtXtXtXtXtXtXtXtXtXtX",
"tXtXtXtXtXtXtXtXtXtXtXtXtXtXtXtXtXtXtXtXtXtXtXtXtXtXtXtXtXtXtX            tXtXtXtXtXtXtXtXtXtXtXtXtXtXtXtXtXtXtX"
};
