/* XPM */
static char *result[] = {
/* columns rows colors chars-per-pixel */
"59 61 223 2 ",
"   c #000101",
".  c #090504",
"X  c #010C05",
"o  c #090B0B",
"O  c #130C08",
"+  c #051206",
"@  c #051E06",
"#  c #0D1208",
"$  c #16120C",
"%  c #1B1705",
"&  c #081416",
"*  c #171410",
"=  c #1B1918",
"-  c #23140D",
";  c #371E0F",
":  c #251411",
">  c #281C13",
",  c #391F12",
"<  c #052007",
"1  c #092709",
"2  c #0C3C0C",
"3  c #09370B",
"4  c #1A251E",
"5  c #073C15",
"6  c #093C15",
"7  c #073713",
"8  c #142F0D",
"9  c #2B2315",
"0  c #3B2212",
"q  c #382316",
"w  c #3D3E18",
"e  c #2D3913",
"r  c #1A2939",
"t  c #103328",
"y  c #2D3631",
"u  c #101B27",
"i  c #43251D",
"p  c #47281D",
"a  c #4C371B",
"s  c #57371C",
"d  c #6C3B1D",
"f  c #67391C",
"g  c #713E1E",
"h  c #4C2A21",
"j  c #442F23",
"k  c #5C3420",
"l  c #6B3C20",
"z  c #733E20",
"x  c #0C420D",
"c  c #114A0F",
"v  c #11460F",
"b  c #0C4412",
"n  c #0D4A11",
"m  c #134C11",
"M  c #134017",
"N  c #0E5E1B",
"B  c #0E5216",
"V  c #185612",
"C  c #215215",
"Z  c #265815",
"A  c #254D1E",
"S  c #0F611C",
"D  c #15641D",
"F  c #27731B",
"G  c #2A781D",
"H  c #2B721C",
"J  c #325621",
"K  c #0D6D24",
"L  c #0E6221",
"P  c #146524",
"I  c #0E7325",
"U  c #0E7B29",
"Y  c #0A7A24",
"T  c #107526",
"R  c #117827",
"E  c #107C29",
"W  c #1B7727",
"Q  c #306826",
"!  c #79760A",
"~  c #425C24",
"^  c #5A4A33",
"/  c #6C4724",
"(  c #754221",
")  c #784321",
"_  c #7C4B27",
"`  c #695228",
"'  c #735829",
"]  c #5B7325",
"[  c #426A23",
"{  c #70772F",
"}  c #555518",
"|  c #263748",
" . c #2B4B6B",
".. c #38516B",
"X. c #325577",
"o. c #314E6D",
"O. c #27425C",
"+. c #584E58",
"@. c #6B5A46",
"#. c #655643",
"$. c #715D45",
"%. c #717C4C",
"&. c #746A54",
"*. c #7A7878",
"=. c #574F62",
"-. c #81551C",
";. c #875833",
":. c #82512E",
">. c #956C38",
",. c #9D733D",
"<. c #A8783B",
"1. c #8F671A",
"2. c #8F7749",
"3. c #A47A42",
"4. c #A57C45",
"5. c #A67C57",
"6. c #857863",
"7. c #178129",
"8. c #278927",
"9. c #378A25",
"0. c #299129",
"q. c #27902A",
"w. c #379425",
"e. c #3C9B26",
"r. c #399526",
"t. c #3DA129",
"y. c #459A28",
"u. c #41A529",
"i. c #47A727",
"p. c #53AA29",
"a. c #58B125",
"s. c #74A11B",
"d. c #768857",
"f. c #818000",
"g. c #B89E16",
"h. c #B9A010",
"j. c #AE893A",
"k. c #AB853A",
"l. c #B38B3A",
"z. c #B18B25",
"x. c #8FAD36",
"c. c #D2BD20",
"v. c #CAAF2B",
"b. c #D1BD1F",
"n. c #A5D216",
"m. c #8BC014",
"M. c #D8E809",
"N. c #EAE508",
"B. c #F1EC06",
"V. c #EAF504",
"C. c #F6F206",
"Z. c #FFFE01",
"A. c #FCF609",
"S. c #FEFA08",
"D. c #F4F805",
"F. c #FDFA18",
"G. c #D7C122",
"H. c #D9C92E",
"J. c #EED529",
"K. c #E6D527",
"L. c #F1D828",
"P. c #E0C925",
"I. c #E0DB08",
"U. c #AB8246",
"Y. c #B88F4B",
"T. c #BA946B",
"R. c #B79471",
"E. c #87AA70",
"W. c #BEA07C",
"Q. c #8C8B5D",
"!. c #C6984A",
"~. c #C9A64B",
"^. c #D5A64C",
"/. c #DDAA54",
"(. c #D9A753",
"). c #DEB249",
"_. c #E2B54A",
"`. c #E6B946",
"'. c #E1AD53",
"]. c #E6B355",
"[. c #C2A47E",
"{. c #C09A64",
"}. c #2B4F9D",
"|. c #4765A8",
" X c #76AA8A",
".X c #6DB4AB",
"XX c #04B1F1",
"oX c #10A0D1",
"OX c #7ED2E2",
"+X c #838495",
"@X c #918F9C",
"#X c #8CB691",
"$X c #8C9BA9",
"%X c #96ACB4",
"&X c #BFB39F",
"*X c #CDAA82",
"=X c #C4A782",
"-X c #D9B78D",
";X c #DBB98E",
":X c #D5B488",
">X c #DBBB92",
",X c #CDB287",
"<X c #E0BE92",
"1X c #DDC69D",
"2X c #E6CDA6",
"3X c #EAD3AC",
"4X c #F1D5AD",
"5X c #F5DAB0",
"6X c #FCE5A9",
"7X c #FEE4BB",
"8X c #FFE8BF",
"9X c #FBE1B7",
"0X c #88CDD4",
"qX c #CBCCCB",
"wX c #FFEBC2",
"eX c #FFECCE",
"rX c #FFF3DF",
"tX c #F1E6D6",
"yX c #E9E8E8",
"uX c #E9ECF4",
"iX c white",
"pX c #F6F3ED",
"aX c None",
/* pixels */
"aXaXaXaXaXaXaXaXaXaXaXaXaXaXaXaXaXaXaXaXaXaXaXaXaXaXaXaXaXaXaXaXaXaXaXaXaXaXaXaXaXaXaXaXaXaXaXaXaXaXaXaXaXaXaXaXaXaXaX",
"aXaXaXaXaXaXaXaXaXaXaXaXaXaXaXaXaXaXaXaXaXaXaXaXaXaXaXaXaXaXaXaXaXaXaXaXaXaXaXaXaXaXaXaXaXaXaXaXaXaXaXaXaXaXaXaXaXaXaX",
"aXaXaXaXaXaXaXaXaXaXaXaXaXaXaXaXaXaXaXaXaXaXaXaXaXaXaXaXaXaXaXaXaXaXaXaXaXaXaXaXaXaXaXaXaXaXaXaXaXaXaXaXaXaXaXaXaXaXaX",
"aXaXaXaXaXaXaXaXaXaXaXaXaXaXaXaXaXaXaXaXaXaXaXaXaXaXaXaXE T n x G u.y._ z ;.U.3.3.3.aXaXaXaXaXaXaXaXaXaXaXaXaXaXaXaXaX",
"aXaXaXaXaXaXaXaXaXaXaXaXaXaXaXaXaXaXaXaXaXaXaXaXaXaXaXR E I n x F u.y./ g ;.3.,.3.3.3.aXaXaXaXaXaXaXaXaXaXaXaXaXaXaXaX",
"aXaXaXaXaXaXaXaXaXaXaXaXaXaXaXaXaXaXaXaXaXaXaXaXaXaXaX7.E W n x F u.y.' -.>.U.U.j.j.l.aXaXaXaXaXaXaXaXaXaXaXaXaXaXaXaX",
"aXaXaXaXaXaXaXaXaXaXaXaXaXaXaXaXaXaXaXaXE U 0.u.u.u.u.t.t.r.c 2 F t.p.!.^.^.(.).B.C.J./.(.U.<.aXaXaXaXaXaXaXaXaXaXaXaX",
"aXaXaXaXaXaXaXaXaXaXaXaXaXaXaXaXaXaXaXaXU U 0.u.u.u.u.u.u.e.c x H u.p.~./././._.A.S.J./.(.4.3.aXaXaXaXaXaXaXaXaXaXaXaX",
"aXaXaXaXaXaXaXaXaXaXaXaXaXx n T E E aXE q.q.r.u.u.u.u.u.u.e.c 2 F t.p.K.J.J.J.J.J.J.J.J.J.c.c.v.aXaXaXaXaXaXaXaXaXaXaX",
"aXaXaXaXaXaXaXaXaXaXaXaXx 2 n T E E E 7.t.u.t.u.t.u.u.u.u.e.c x F t.p.V.Z.S.Z.A._.(.J.Z.Z.Z.Z.c.3.3.aXaXaXaXaXaXaXaXaX",
"aXaXaXaXaXaXaXaXaXaXaXaXn n n T E E 7.7.t.u.u.u.u.u.u.e.r.w.V c G p.a.N.A.Z.Z.A._.'.J.A.A.A.A.c.j.j.aXaXaXaXaXaXaXaXaX",
"aXaXaXaXaXaXaXaXaXaXx x N T T E U 8.t.e.t.u.u.u.u.u.u.H c V w.e.x.^.(._._.L.Z.A._.'.)._._._.).J.C.N.j.3.aXaXaXaXaXaXaX",
"aXaXaXaXaXaXaXaXaXaXx 2 N E U E E 0.u.u.i.u.u.u.u.u.u.F 2 c e.u.x.].'././.J.Z.A._.'.'./.'.'.'.J.Z.A.j.3.3.aXaXaXaXaXaX",
"aXaXaXaXaXaXaXaXx n N N K E E E U 0.u.e.G F F F F u.u.F 2 c e.t.x.J.L.L.J.P.b.v.<.<.!.'.(.<.<.z.h.g.k.3.aXaXaXaXaXaXaX",
"aXaXaXaXaXaXaXx x n I U E E E E E 0.u.e.c x x 2 c e.u.F x c e.t.n.Z.Z.S.Z.b.4.3.g g <.'.^.-.d z l l aXaXaXaXaXaXaXaXaX",
"aXaXaXaXaXaXaXx n m T E E E E E U 8.t.r.V c c c V w.e.F c V i.a.n.A.A.C.C.c.4.4.:._ ,.!.Y._ ( ) ) ( aXaXaXaXaXaXaXaXaX",
"aXaXaXaXaX    6 T T U E E E U E E E E 7.r.e.e.e.w.V c F e.i.M.D.K._.).l.j.T.[.[.[.[.2.% $ aXaXaXaXaXaXaXaXaXaXaXaXaXaX",
"aXaXaXaXaX    5 E E E T E T E E E E E 7.t.u.u.u.e.c 2 F u.a.V.Z.J./.(.U.<.T.:X:X<X<X@.    aXaXaXaXaXaXaXaXaXaXaXaXaXaX",
"aXaXaXaXaX    6 U E E E U E E E R E E E 8.0.8.F F S N W q.e.V.Z.J././.T.T.[.4X2X-X-X@.    aXaXaXaXaXaXaXaXaXaXaXaXaXaX",
"aXaXaXaXaX    6 E E U E E E U E E E E E R T N x x R U U R 8.V.Z.J././.:X[.6X8X7X>X-X@.    aXaXaXaXaXaXaXaXaXaXaXaXaXaX",
"aXaXaXaXaX  X 6 E E E E T T T T T R R E T T N x n Y Y W W r.N.C.J._.].:X>X1X2X2X*X*X^ .   aXaXaXaXaXaXaXaXaXaXaXaXaXaX",
"aXaXaX  . 3 2 N U E E U S v n n n S E T n n N I T c x { ~.~.l.U.G.A.F.6X7X6.* ; / :.i     aXaXaXaXaXaXaXaXaXaXaXaXaXaX",
"aXaX      2 x N E U E E N x x x 2 N E W x 3 N Y I x 2 { ].'.U.3.c.S.F.6XwX&.% . f g ;     aXaXaXaXaXaXaXaXaXaXaXaXaXaX",
"aXaX    X 2 x N E E S S b @ 1 2 x B S P d.E.E.E.E.d.%.2.<.<.Y.Y.v.c.H.6XwX&X|.*.=.=.+.$.#.$   aXaXaXaXaXaXaXaXaXaXaXaX",
"aXaX      2 2 S E T n x @     2 x x x A 3X8X8X8X9X;X>X5.d _ ^.'.!.<.U.5XwXrXiXuX|.}.+X;X=X*     aXaXaXaXaXaXaXaXaXaXaX",
"aXaX    X 2 x N E T b 2 @   X 2 2 2 2 A 1X5X9X8X9X>X>X5.d :.^._.Y.,.U.5XwXrXiXuX|.}.+X-XW.*     aXaXaXaXaXaXaXaXaXaXaX",
"aXaX      2 x N E I + X X aXaX  X   X $ 3.U.:X8X7X9X7XT.d -.N.Z.g.) ;.4XwXrXiXuX|.}.+X-XW.*     aXaXaXaXaXaXaXaXaXaXaX",
"aXaX    X 2 v N E K X   aXaXaX        # >.U.:XwXwX7X8XT.d -.B.Z.g.z :.4X7XrXiXuX|.}.+X>XW.*     aXaXaXaXaXaXaXaXaXaXaX",
"aXaXaX    < < b N B X     aXaXaXaX    . a a 2.:X,X0XOX@X<.<.C.Z.h.d :.4XwXeXpXtX@X+X*.' #.*   aXaXaXaXaXaXaXaXaXaXaXaX",
"aXaXaXaXaX    @ x 2       aXaXaXaXaX        a 4.Q.XXXX.X'.`.A.Z.g.z :.4XwX7X7X9X<X;X@.    aXaXaXaXaXaXaXaXaXaXaXaXaXaX",
"aXaXaXaXaX    @ x 3     aXaXaXaXaX% % % % % ^ >.2.oXXX X`.`.N.C.g._ ;.2X5X7X9X5X=X=X#.    aXaXaXaXaXaXaXaXaXaXaXaXaXaX",
"aXaXaXaXaXaXaX.   X aXaXaXaXaXaXaXN.M.N.!.!.` # & & & f.A.N.1.-.5.*X*X>X>X>X>X=X9 * * aXaXaXaXaXaXaXaXaXaXaXaXaXaXaXaX",
"aXaXaXaXaXaXaX      aXaXaXaXaXaXaXZ.Z.S.`.].'         f.S.C.-.g 5.;X-X-X:X:X;XW.$     aXaXaXaXaXaXaXaXaXaXaXaXaXaXaXaX",
"aXaXaXaXaXaXaXaX  aXaXaXaXaXaXaXaXf.f.! ' ' w < @     ! L.G.a ; ^ %.%.%.%.&.@.#.$   aXaXaXaXaXaXaXaXaXaXaXaXaXaXaXaXaX",
"aXaXaXaXaXaXaXaXaXaXaXaXaXaXaXaXaX          < n 6     ' ].!.$   @ x x 2 x @     aXaXaXaXaXaXaXaXaXaXaXaXaXaXaXaXaXaXaX",
"aXaXaXaXaXaXaXaXaXaXaXaXaXaXaXaXaX      O . 1 c b + X ` !.l.9 % 1 2 x x n <     aXaXaXaXaXaXaXaXaXaXaXaXaXaXaXaXaXaXaX",
"aXaXaXaXaXaXaXaXaXaXaXaXaXaXaXaXaX    . f d J T T K K M $ 9 Y.!.`   + K R 5         aXaXaXaXaXaXaXaXaXaXaXaXaXaXaXaXaX",
"aXaXaXaXaXaXaXaXaXaXaXaXaXaXaXaXaXaX  . f ) ~ R U E 7.6   $ !.].'   X K E 5         aXaXaXaXaXaXaXaXaXaXaXaXaXaXaXaXaX",
"aXaXaXaXaXaXaXaXaXaXaXaXaXaXaXaXaXu r r ; ; J ~ Q T E A ; i ` ' q   + K U [ f.s.Z C 2 aXaXaXaXaXaXaXaXaXaXaXaXaXaXaXaX",
"aXaXaXaXaXaXaXaXaXaXaXaXaXaXaX    r X. .o   ; ( ( W U ~ ) f .       X K U m.Z.D.a.i.C     aXaXaXaXaXaXaXaXaXaXaXaXaXaX",
"aXaXaXaXaXaXaXaXaXaXaXaXaXaXaX* * r o.O.o   0 ( / W W ~ d s + + & 4 4 L I s.V.M.a.u.C     aXaXaXaXaXaXaXaXaXaXaXaXaXaX",
"aXaXaXaXaXaXaXaXaXaXaXaXaX  * R.=X#.o & 3 3 a ) g / / 0 . # L S  XyXqX4 X m q.8.u.u.C     aXaXaXaXaXaXaXaXaXaXaXaXaXaX",
"aXaXaXaXaXaXaXaXaXaXaXaX    * W.>X$.  X 2 2 w ) g g ( 0   X K Y #XiXyX=   5 7.7.e.u.C     aXaXaXaXaXaXaXaXaXaXaXaXaXaX",
"aXaXaXaXaXaXaXaXaXaXaXaX    o ^ @.w @ 1 F F Q ] ] ] ] e   *  X#X%X%X$X| r t 5 M 8.q.m     aXaXaXaXaXaXaXaXaXaXaXaXaXaX",
"aXaXaXaXaXaXaXaXaXaXaXaX          < x m e.u.u.u.u.u.u.V   = yXiX%X . .X.X.r   X K E 6     aXaXaXaXaXaXaXaXaXaXaXaXaXaX",
"aXaXaXaXaXaXaXaXaXaXaXaXaX        @ 2 v r.t.u.u.u.u.u.Z X 4 qXyX$X........r   X L I 7     aXaXaXaXaXaXaXaXaXaXaXaXaXaX",
"aXaXaXaXaXaXaXaXaXaXaXaXaXaXaX        + T E 0.u.u.u.u.8.K P 4 = j / / / / q     X X X     aXaXaXaXaXaXaXaXaXaXaXaXaXaX",
"aXaXaXaXaXaXaXaXaXaXaXaXaXaXaX        X T E 0.u.u.u.u.0.E K X   , g d z g ,               aXaXaXaXaXaXaXaXaXaXaXaXaXaX",
"aXaXaXaXaXaXaXaXaXaXaXaXaXaXaX    * 0 q 6 6 D 0.0.t.u.e.q.8.+   ^ R.R.R.R.^   . : : : : : . aX    aXaXaXaXaXaXaXaXaXaX",
"aXaXaXaXaXaXaXaXaXaXaXaXaXaXaX    , ) f .   6 E 7.e.u.u.u.w.+   6.eXwXwXwX6.  . , h h h q .         aXaXaXaXaXaXaXaXaX",
"aXaXaXaXaXaXaXaXaXaXaXaXaXaXaX    0 ) f O . 6 K W 9.w.w.w.9.X   &.2X2X2X3X&.  . h h p h h O .       aXaXaXaXaXaXaXaXaX",
"aXaXaXaXaXaXaXaXaXaXaXaXaXaXaX    0 ) l i i > X X + + # + X     O = = = = o   . q h l z l l l ;     aXaXaXaXaXaXaXaXaX",
"aXaXaXaXaXaXaXaXaXaXaXaXaXaXaX    0 ( z h h :                                 . i h k ) ( ( ) 0     aXaXaXaXaXaXaXaXaX",
"aXaXaXaXaXaXaXaXaXaXaXaXaXaXaXaXaX: q , p h , : *       aX              aX      - : > 0 0 0 0 - aXaXaXaXaXaXaXaXaXaXaX",
"aXaXaXaXaXaXaXaXaXaXaXaXaXaXaXaXaXaX  . i h h h h .   aXaXaXaXaXaXaXaXaXaXaX                  aXaXaXaXaXaXaXaXaXaXaXaX",
"aXaXaXaXaXaXaXaXaXaXaXaXaXaXaXaXaXaX  . , i i h q .     aXaXaXaXaXaXaXaXaXaX                  aXaXaXaXaXaXaXaXaXaXaXaX",
"aXaXaXaXaXaXaXaXaXaXaXaXaXaXaXaXaXaXaXaX. . . . .       aXaXaXaXaXaXaXaXaXaXaXaXaXaXaXaXaXaXaXaXaXaXaXaXaXaXaXaXaXaXaX",
"aXaXaXaXaXaXaXaXaXaXaXaXaXaXaXaXaXaXaXaX                aXaXaXaXaXaXaXaXaXaXaXaXaXaXaXaXaXaXaXaXaXaXaXaXaXaXaXaXaXaXaX",
"aXaXaXaXaXaXaXaXaXaXaXaXaXaXaXaXaXaXaXaXaX            aXaXaXaXaXaXaXaXaXaXaXaXaXaXaXaXaXaXaXaXaXaXaXaXaXaXaXaXaXaXaXaX",
"aXaXaXaXaXaXaXaXaXaXaXaXaXaXaXaXaXaXaXaXaXaXaXaXaXaXaXaXaXaXaXaXaXaXaXaXaXaXaXaXaXaXaXaXaXaXaXaXaXaXaXaXaXaXaXaXaXaXaX",
"aXaXaXaXaXaXaXaXaXaXaXaXaXaXaXaXaXaXaXaXaXaXaXaXaXaXaXaXaXaXaXaXaXaXaXaXaXaXaXaXaXaXaXaXaXaXaXaXaXaXaXaXaXaXaXaXaXaXaX"
};
