/* XPM */
static char *result[] = {
/* columns rows colors chars-per-pixel */
"64 64 176 2 ",
"   c #000000",
".  c #060C03",
"X  c #090F05",
"o  c #0E0E0E",
"O  c #140D06",
"+  c #0E1308",
"@  c #0C1807",
"#  c #171008",
"$  c #1B130A",
"%  c #131E0A",
"&  c #0F0F10",
"*  c #0F1011",
"=  c #141415",
"-  c #1C1712",
";  c #1E1A14",
":  c #1E1E1E",
">  c #141A12",
",  c #2D1E0F",
"<  c #231E16",
"1  c #15210B",
"2  c #1C2216",
"3  c #1C2218",
"4  c #2D2115",
"5  c #27211A",
"6  c #29261F",
"7  c #352717",
"8  c #222323",
"9  c #2D2924",
"0  c gray17",
"q  c #2A2720",
"w  c #3A2F23",
"e  c #393224",
"r  c #275217",
"t  c #2D5D1A",
"y  c #33691E",
"u  c #386E22",
"i  c #3F6F2C",
"p  c #3B652B",
"a  c #6F431E",
"s  c #7B4A1F",
"d  c #416E28",
"f  c #41722D",
"g  c #4B7C29",
"h  c #527D2C",
"j  c #4C763B",
"k  c #547E36",
"l  c #5C5C5C",
"z  c #676767",
"x  c #6C6C6C",
"c  c #737A6E",
"v  c #7C7C7C",
"b  c #757B70",
"n  c #804E22",
"m  c #835023",
"M  c #87582D",
"N  c #8E5524",
"B  c #935A27",
"V  c #965C28",
"C  c #885930",
"Z  c #9B612B",
"A  c #9A6735",
"S  c #9B6934",
"D  c #976233",
"F  c #A87137",
"G  c #AE763A",
"H  c #B2793C",
"J  c #B87C3D",
"K  c #B1773A",
"L  c #A77544",
"P  c #B57D40",
"I  c #578D2F",
"U  c #5C8E32",
"Y  c #5D8D3B",
"T  c #558B30",
"R  c #638F3D",
"E  c #669D37",
"W  c #679E38",
"Q  c #699A3F",
"!  c #638E46",
"~  c #6D9E42",
"^  c #699448",
"/  c #749F4F",
"(  c #72A347",
")  c #73A24B",
"_  c #C1813F",
"`  c #B18854",
"'  c #B98247",
"]  c #C48541",
"[  c #C88743",
"{  c #CA8A45",
"}  c #CB8E4C",
"|  c #C8874A",
" . c #D08D47",
".. c #CD904E",
"X. c #D6914A",
"o. c #C4955A",
"O. c #CA9B5F",
"+. c #CF9452",
"@. c #D19452",
"#. c #D89654",
"$. c #E19955",
"%. c #E19D5C",
"&. c #EAA15B",
"*. c #FBAA5E",
"=. c #C89C63",
"-. c #C59E72",
";. c #DAA462",
":. c #DEA966",
">. c #DFAB68",
",. c #C7B27D",
"<. c #D4B97F",
"1. c #E2AE6C",
"2. c #FEAE61",
"3. c #E3B06F",
"4. c #FFB266",
"5. c #FFB66D",
"6. c #E5B372",
"7. c #E5B57B",
"8. c #E8B778",
"9. c #FFBA73",
"0. c #858B80",
"q. c #8D8D8D",
"w. c #888E82",
"e. c #8A9684",
"r. c #8F9A86",
"t. c #8F9A88",
"y. c #8D928B",
"u. c #909D87",
"i. c #929A8D",
"p. c #949394",
"a. c #969C92",
"s. c #999E93",
"d. c #9E9E9E",
"f. c #9BA196",
"g. c #9EA499",
"h. c #9FAB9A",
"j. c #9F9EA0",
"k. c #A09FA0",
"l. c #A3A3A3",
"z. c #A9A9A9",
"x. c #A8A7A8",
"c. c #AFB6AA",
"v. c #B2B9AC",
"b. c #B0B6AE",
"n. c #BBBBBB",
"m. c #B6B9B3",
"M. c #C7AB87",
"N. c #D5B797",
"B. c #DDBC91",
"V. c #E1B583",
"C. c #E6B986",
"Z. c #E2BD90",
"A. c #E3CA8E",
"S. c #E0C78D",
"D. c #FFC98C",
"F. c #E0C197",
"G. c #E2C299",
"H. c #E6CC90",
"J. c #F3C995",
"K. c #FDCC93",
"L. c #F5CC99",
"P. c #FFCF98",
"I. c #FCD19C",
"U. c #FAD395",
"Y. c #FBE09D",
"T. c #E0C5A6",
"R. c #E5CAA6",
"E. c #FBD5A3",
"W. c #FFD9A7",
"Q. c #F5D3AD",
"!. c #FFDCAC",
"~. c #FFDDB4",
"^. c #FFDFBA",
"/. c #FFE3A1",
"(. c #FFE0BC",
"). c #5EB054",
/* pixels */
").).).).).).).).).).).).).).).).).).).).).).).).).).).).).).).).).).).).).).).).).).).).).).).).).).).).).).).).).).).).).).).).",
").).).).).).).).).).).).).).).).).).).).).).).).).).).).).).).).).).).).).).).).).).).).).).).).).).).).).).).).).).).).).).).).",
").).).).).).).).).).).).).).).).).).).).).).).).).).).).).).).).).).).).).).).).).).).).).).).).).).).).).).).).).).).).).).).).",
").).).).).).).).).).).).).).).).).).).).).).).).).).).).).).).).).).).).).).).).).).).).).).).).).).).).).).).).).).).).).).).).",
").).).).).).).).).).).).).).).).).).).).).).).).).).).).).).).).).).).).).).).).).).).).).).).).).).).).).).).).).).).).).).).).",
").).).).).).).).).).).).).).).).).).).).).).).).).).).).).).).).).).).).).).).).).).).).).).).).).).).).).).).).).).).).).).).).",
").).).).).).).).).).).).).).).).).).).).).).).).).).).).).).).).).).).).).).).).).).).).).).).).).).).).).).).).).).).).).).).).",
").).).).).).).).).).).).).).).).).).).).).).).).).).).).).).).).).).).).).).).).).).).).).).).).).).).).).).).).).).).).).).).).",
").).).).).).).).).).).).).).).).).).).).).).).).).).).).).).).).).).).).).).).).).).).).).).).).).).).).).).).).).).).).).).).).",
").).).).).).).).).).).).).).).).).).).).).).).).).).).).).).).).).).).).).).).).).).).).).).).).).).).).).).).).).).).).).).).).",
").).).).).).).).).).).).).).).).).).).).).).).).).).).).                    ).).).).).).).).).).).).).).).).).).).).).).).).).).",
").).).).).).).).).).).).).).).).).).).).).).).).).).).).= = @ @ = : = = X . ).).).).).).).).).).).).).).).).).).).).).).).).).).",
").).).).).).).).).).).).).).).).).).).).).).).).      = a.h.Y ! g.x.z.s.p r .       ).).).).).).).).).).).).).).).).).).).).).).",
").).).).).).).).).).).).).).).).).).).).).).).).= = = 0 z.m.) ( c.n.b.h.f t @ . . . ).).).).).).).).).).).).).).).).).).).).).).",
").).).).).).).).).).).).).).).).).).).).).).. = p.z.z.z.n.v.) ~ g.s.j i u u t t t r .   ).).).).).).).).).).).).).).).).).).).).",
").).).).).).).).).).).).).).).).).).).).).).= 0 z.n.n.n.n.c.) ~ t.e.j i i i u u f p > o ).).).).).).).).).).).).).).).).).).).).",
").).).).).).).).).).).).).).).).).).).).  = p.z.n.n.l.l.j.f.~ W R ! e.i.p.e.T Y e.q.x l o   ).).).).).).).).).).).).).).).).).).",
").).).).).).).).).).).).).).).).).).).).  = z.n.n.m.l.d.j.s./ ~ U Y a.j.g.a.Y Y a.d.v z o   ).).).).).).).).).).).).).).).).).).",
").).).).).).).).).).).).).).).).).).).).  = z.n.l.j.d.d.j.g.a.u.~ ~ s.j.k.a.Y Y a.p.v z o   ).).).).).).).).).).).).).).).).).).",
").).).).).).).).).).).).).).).).).).).).= 0 z.n.l.d.d.d.d.j.j.a.~ ~ u.a.a.t.! ! i.a.0.x = o ).).).).).).).).).).).).).).).).).).",
").).).).).).).).).).).).).).).).).).  = p.z.n.n.l.j.d.d.j.j.j.a.~ W Y Y Y ! u.i.) / i.p.x l o   ).).).).).).).).).).).).).).).).",
").).).).).).).).).).).).).).).).).).  : z.n.z.z.q.q.d.d.j.j.q.0.~ E T T Y ! t.r.R R s.p.v z o   ).).).).).).).).).).).).).).).).",
").).).).).).).).).).).).).).).).).).  = z.z.0 = * 8 q.j.j.q.8 3 R W T Y r.r.! k % 3 q.d.v z o   ).).).).).).).).).).).).).).).).",
").).).).).).).).).).).).).).).).).).  = z.z.=   * 8 v q.d.q.8 > T U T Y s.a.k d % 2 0.a.v z o   ).).).).).).).).).).).).).).).).",
").).).).).).).).).).).).).).).).).).  = z.z.= & v q.: 8 q.j.q.v > 1 g Y s.q.: % h U Y ! c z o   ).).).).).).).).).).).).).).).).",
").).).).).).).).).).).).).).).).).).. = z.z.= = v L : 8 q.j.j.q.# X k ! s.q.= . h U I Y c z o   ).).).).).).).).).).).).).).).).",
").).).).).).).).).).).).).).).).).).  = z.z.=   * 8 v q.j.j.j.q.= * 0.s.s.q.=   X 1 U R c z o   ).).).).).).).).).).).).).).).).",
").).).).).).).).).).).).).).).).).).  = z.z.=   * 8 v q.p.d.q.v * * v q.d.q.=   & 2 U ~ c z o   ).).).).).).).).).).).).).).).).",
").).).).).).).).).).).).).).).).).).  = z.z.= & v v : 8 q.q.8 *     o 8 q.q.= o v 0.~ ~ c z o   ).).).).).).).).).).).).).).).).",
").).).).).).).).).).).).).).).).).).  = z.z.8 8 p.p.8 8 q.q.8 * = = = 8 q.q.8 8 q.f./ ~ b z o   ).).).).).).).).).).).).).).).).",
").).).).).).).).).).).).).).).).).).  = z.n.p.q.j.p.q.q.j.d.q.q.q.q.q.q.p.d.q.q.d.d.s.a.v z o   ).).).).).).).).).).).).).).).).",
").).).).).).).).).).).).).).).).).).  : x.n.l.d.j.j.j.j.j.j.j.j.d.d.j.j.l.d.j.j.d.d.k.p.v z o   ).).).).).).).).).).).).).).).).",
").).).).).).).).).).).).).).).).).).  ; x.n.l.d.d.j.d.d.d.d.d.d.d.d.d.d.d.d.d.d.d.d.j.d.v z o   ).).).).).).).).).).).).).).).).",
").).).).).).).).).).).).).).).).).).  = x.n.k.k.d.d.d.d.d.d.d.d.d.d.d.d.d.d.d.d.d.d.q.w.v z *   ).).).).).).).).).).).).).).).).",
").).).).).).).).).).).).).).).).).).  = l.n.k.k.k.g.d.d.d.d.d.d.d.d.d.d.d.d.d.d.l.q.8 3 z z o   ).).).).).).).).).).).).).).).).",
").).).).).).).).).).).).).).).).).).  = x.m.p.q.q.q.q.q.d.d.d.d.d.d.d.d.d.d.d.d.q.v 5 ; l l o   ).).).).).).).).).).).).).).).).",
").).).).).).).).).).).).).).).).).).  : z.z.0 & * = * 8 q.l.d.d.d.d.d.d.l.d.d.q.5 5 ` ` ; o         ).).).).).).).).).).).).).).",
").).).).).).).).).).).).).).).).).).  = p.p.9 ; ; - - q v q.d.d.d.d.q.q.q.q.q.v 5 4 O.O.7 $ # # # # ).).).).).).).).).).).).).).",
").).).).).).).).).).        ).).).).    * 0 M.G.S.A.S.,.q 8 y.k.j.q.8 = & = = < S J ;.1.=.` H G G S #       ).).).).).).).).).).",
").).).).).).).).).).# # $ < ).).).).  . - e G././././.A.e q v q.q.v $ O O O O , H { 1.6.3.1...{ [ H , # # # ).).).).).).).).).).",
").).).).).).      # S J #.| $         $ -.C.K.P.W.W./.W.A.,.q * * ; a m F K K H ] } L.I.6.>.>.;.[ ] K F G A O   ).).).).).).).).",
").).).).).).    O , J X.*.$.7 - - ; < 7 C.I.K.I.!.!./././.A.e ; ; 4 s V _ [ [ [ } O.E.W.7.>.>.>.+...@.@.@.' 7 $ ).).).).).).).).",
").).).).).).  O S J &.*.*.2.7.V.V.V.V.C.K.P.~.^.^.^.!.!.Y.Y.R.R.T.N.D V J [ ] } J.E.W.!.W.I.3.3.L.E.E.L.I.J.&.| $   ).).).).).).",
").).).).).).# , H  .*.*.2.4.D.K.K.P.I.I.P.I.^.(.^.^.!.~././.Q.Q.^.Q.A B J ] ] } J.E.E.E.E.I.8.7.E.!.!.!.!.W.9.%.<   ).).).).).).",
").).).).  # S J ]  .*.*.2.2.4.5.D.I.~.(.^.^.~.!.~.!.!././.U.L L Q.Q.A N V V ] [ } @.6.8.6.8.I.W.!.!.~.!.!.!.W.Z.;   ).).).).).).",
").).).).  # S K G J #.$.$.$.$.#.7.V.T.T.T.T.F.F.F.G.F.F.S.V.M M N.N.C s s m F G G G ` O.O.=.B.G.F.F.F.F.F.G.G.M.-   ).).).).).).",
").).).).    O # # # $ < $ $ $ < - - : ; ; ; ; ; ; ; ; ; 1 ; O O ; ; o O O O # # # # $ $ $ $ < ; ; ; = ; ; ; < -     ).).).).).).",
").).).).                                                                                                            ).).).).).).",
").).).).).).).).).).).).).).).).).).).).).).).).).).).).).).).).).).).).).).).).).).).).).).).).).).).).).).).).).).).).).).).).",
").).).).).).).).).).).).).).).).).).).).).).).).).).).).).).).).).).).).).).).).).).).).).).).).).).).).).).).).).).).).).).).).",
").).).).).).).).).).).).).).).).).).).).).).).).).).).).).).).).).).).).).).).).).).).).).).).).).).).).).).).).).).).).).).).).",
").).).).).).).).).).).).).).).).).).).).).).).).).).).).).).).).).).).).).).).).).).).).).).).).).).).).).).).).).).).).).).).).",
").).).).).).).).).).).).).).).).).).).).).).).).).).).).).).).).).).).).).).).).).).).).).).).).).).).).).).).).).).).).).).).).",
").).).).).).).).).).).).).).).).).).).).).).).).).).).).).).).).).).).).).).).).).).).).).).).).).).).).).).).).).).).).).).).).",
").).).).).).).).).).).).).).).).).).).).).).).).).).).).).).).).).).).).).).).).).).).).).).).).).).).).).).).).).).).).).).).).",
").).).).).).).).).).).).).).).).).).).).).).).).).).).).).).).).).).).).).).).).).).).).).).).).).).).).).).).).).).).).).).).).",
").).).).).).).).).).).).).).).).).).).).).).).).).).).).).).).).).).).).).).).).).).).).).).).).).).).).).).).).).).).).).).).).",
").).).).).).).).).).).).).).).).).).).).).).).).).).).).).).).).).).).).).).).).).).).).).).).).).).).).).).).).).).).).).).).).",
").).).).).).).).).).).).).).).).).).).).).).).).).).).).).).).).).).).).).).).).).).).).).).).).).).).).).).).).).).).).).).).).",
").).).).).).).).).).).).).).).).).).).).).).).).).).).).).).).).).).).).).).).).).).).).).).).).).).).).).).).).).).).).).).).).",
").).).).).).).).).).).).).).).).).).).).).).).).).).).).).).).).).).).).).).).).).).).).).).).).).).).).).).).).).).).).).).).).",
").).).).).).).).).).).).).).).).).).).).).).).).).).).).).).).).).).).).).).).).).).).).).).).).).).).).).).).).).).).).).).).).",
").).).).).).).).).).).).).).).).).).).).).).).).).).).).).).).).).).).).).).).).).).).).).).).).).).).).).).).).).).).).).).).).",
").).).).).).).).).).).).).).).).).).).).).).).).).).).).).).).).).).).).).).).).).).).).).).).).).).).).).).).).).).).).).).).)."
};
