/* XPM */
static char *a93befd6b2634caca52905b3e84c17c33qDe5orVMEg6uQ5U[] = {
/* columns rows colors chars-per-pixel */
"131 129 16 1 ",
"  c None",
". c #000001",
"X c #4A2920",
"o c #0D420D",
"O c #107B29",
"+ c #734120",
"@ c #315273",
"# c #A47B41",
"$ c #41A429",
"% c yellow",
"& c #DEAC52",
"* c #31529C",
"= c #00BAFF",
"- c #D5B48B",
"; c #FFE6BD",
": c white",
/* pixels */
"                                                                                                                                   ",
"                                                                                                                                   ",
"                                                                                                                                   ",
"                                                                                                                                   ",
"                                                                                                                                   ",
"                                                                                                                                   ",
"                                                                                                                                   ",
"                                                                                                                                   ",
"                                                                                                                                   ",
"                                      OOOOO$$$$$$$$$$$$$$$oooooOOOOO+++++#####                                                     ",
"                                      OOOOO$$$$$$$$$$$$$$$oooooOOOOO+++++#####                                                     ",
"                                      OOOOO$$$$$$$$$$$$$$$oooooOOOOO+++++#####                                                     ",
"                                      OOOOO$$$$$$$$$$$$$$$oooooOOOOO+++++#####                                                     ",
"                                      OOOOO$$$$$$$$$$$$$$$oooooOOOOO+++++#####                                                     ",
"                            OOOOOOOOOO$$$$$$$$$$$$$$$$$$$$ooooo$$$$$%%%%%%%%%%&&&&&#####                                           ",
"                            OOOOOOOOOO$$$$$$$$$$$$$$$$$$$$ooooo$$$$$%%%%%%%%%%&&&&&#####                                           ",
"                            OOOOOOOOOO$$$$$$$$$$$$$$$$$$$$ooooo$$$$$%%%%%%%%%%&&&&&#####                                           ",
"                            OOOOOOOOOO$$$$$$$$$$$$$$$$$$$$ooooo$$$$$%%%%%%%%%%&&&&&#####                                           ",
"                            OOOOOOOOOO$$$$$$$$$$$$$$$$$$$$ooooo$$$$$%%%%%%%%%%&&&&&#####                                           ",
"                       oooooOOOOO$$$$$$$$$$$$$$$$$$$$ooooo$$$$$&&&&&&&&&&##########%%%%%#####                                      ",
"                       oooooOOOOO$$$$$$$$$$$$$$$$$$$$ooooo$$$$$&&&&&&&&&&##########%%%%%#####                                      ",
"                       oooooOOOOO$$$$$$$$$$$$$$$$$$$$ooooo$$$$$&&&&&&&&&&##########%%%%%#####                                      ",
"                       oooooOOOOO$$$$$$$$$$$$$$$$$$$$ooooo$$$$$&&&&&&&&&&##########%%%%%#####                                      ",
"                       oooooOOOOO$$$$$$$$$$$$$$$$$$$$ooooo$$$$$&&&&&&&&&&##########%%%%%#####                                      ",
"                  oooooOOOOOOOOOOOOOOO$$$$$$$$$$$$$$$ooooo$$$$$#####%%%%%#####&&&&&#####%%%%%#####                                 ",
"                  oooooOOOOOOOOOOOOOOO$$$$$$$$$$$$$$$ooooo$$$$$#####%%%%%#####&&&&&#####%%%%%#####                                 ",
"                  oooooOOOOOOOOOOOOOOO$$$$$$$$$$$$$$$ooooo$$$$$#####%%%%%#####&&&&&#####%%%%%#####                                 ",
"                  oooooOOOOOOOOOOOOOOO$$$$$$$$$$$$$$$ooooo$$$$$#####%%%%%#####&&&&&#####%%%%%#####                                 ",
"                  oooooOOOOOOOOOOOOOOO$$$$$$$$$$$$$$$ooooo$$$$$#####%%%%%#####&&&&&#####%%%%%#####                                 ",
"                  oooooOOOOOOOOOOOOOOOooooooooooooooo$$$$$%%%%%#####%%%%%-----+++++&&&&&%%%%%+++++                                 ",
"                  oooooOOOOOOOOOOOOOOOooooooooooooooo$$$$$%%%%%#####%%%%%-----+++++&&&&&%%%%%+++++                                 ",
"                  oooooOOOOOOOOOOOOOOOooooooooooooooo$$$$$%%%%%#####%%%%%-----+++++&&&&&%%%%%+++++                                 ",
"                  oooooOOOOOOOOOOOOOOOooooooooooooooo$$$$$%%%%%#####%%%%%-----+++++&&&&&%%%%%+++++                                 ",
"                  oooooOOOOOOOOOOOOOOOooooooooooooooo$$$$$%%%%%#####%%%%%-----+++++&&&&&%%%%%+++++                                 ",
"             oooooOOOOOOOOOOOOOOOOOOOOOOOOOOOOOOoooooOOOOO%%%%%##########----------+++++#####                                   ooo",
"             oooooOOOOOOOOOOOOOOOOOOOOOOOOOOOOOOoooooOOOOO%%%%%##########----------+++++#####                                   ooo",
"             oooooOOOOOOOOOOOOOOOOOOOOOOOOOOOOOOoooooOOOOO%%%%%##########----------+++++#####                                   ooo",
"             oooooOOOOOOOOOOOOOOOOOOOOOOOOOOOOOOoooooOOOOO%%%%%##########----------+++++#####                                   ooo",
"             oooooOOOOOOOOOOOOOOOOOOOOOOOOOOOOOOoooooOOOOO%%%%%##########----------+++++#####                                   ooo",
"             oooooOOOOOOOOOOooooooooooOOOOOoooooOOOOO##########%%%%%-----;;;;;-----.....                                        ooo",
"             oooooOOOOOOOOOOooooooooooOOOOOoooooOOOOO##########%%%%%-----;;;;;-----.....                                        ooo",
"             oooooOOOOOOOOOOooooooooooOOOOOoooooOOOOO##########%%%%%-----;;;;;-----.....                                        ooo",
"             oooooOOOOOOOOOOooooooooooOOOOOoooooOOOOO##########%%%%%-----;;;;;-----.....                                        ooo",
"             oooooOOOOOOOOOOooooooooooOOOOOoooooOOOOO##########%%%%%-----;;;;;-----.....                                        ooo",
"             .....OOOOOooooo.....ooooooooooOOOOOooooo+++++#####%%%%%;;;;;.....+++++.....                                        ...",
"             .....OOOOOooooo.....ooooooooooOOOOOooooo+++++#####%%%%%;;;;;.....+++++.....                                        ...",
"             .....OOOOOooooo.....ooooooooooOOOOOooooo+++++#####%%%%%;;;;;.....+++++.....                                        ...",
"             .....OOOOOooooo.....ooooooooooOOOOOooooo+++++#####%%%%%;;;;;.....+++++.....                                        ...",
"             .....OOOOOooooo.....ooooooooooOOOOOooooo+++++#####%%%%%;;;;;.....+++++.....                                        ...",
"             .....oooooooooo.....ooooo;;;;;;;;;;-----+++++&&&&&#####;;;;;:::::*****-----.....                                   ...",
"             .....oooooooooo.....ooooo;;;;;;;;;;-----+++++&&&&&#####;;;;;:::::*****-----.....                                   ...",
"             .....oooooooooo.....ooooo;;;;;;;;;;-----+++++&&&&&#####;;;;;:::::*****-----.....                                   ...",
"             .....oooooooooo.....ooooo;;;;;;;;;;-----+++++&&&&&#####;;;;;:::::*****-----.....                                   ...",
"             .....oooooooooo.....ooooo;;;;;;;;;;-----+++++&&&&&#####;;;;;:::::*****-----.....                                   ...",
"             .....OOOOO.....     .....#####;;;;;;;;;;.....%%%%%+++++;;;;;:::::*****-----.....                                   ...",
"             .....OOOOO.....     .....#####;;;;;;;;;;.....%%%%%+++++;;;;;:::::*****-----.....                                   ...",
"             .....OOOOO.....     .....#####;;;;;;;;;;.....%%%%%+++++;;;;;:::::*****-----.....                                   ...",
"             .....OOOOO.....     .....#####;;;;;;;;;;.....%%%%%+++++;;;;;:::::*****-----.....                                   ...",
"             .....OOOOO.....     .....#####;;;;;;;;;;.....%%%%%+++++;;;;;:::::*****-----.....                                   ...",
"             .....ooooo.....     ..........#####=====.....%%%%%+++++;;;;;;;;;;-----.....                                        ...",
"             .....ooooo.....     ..........#####=====.....%%%%%+++++;;;;;;;;;;-----.....                                        ...",
"             .....ooooo.....     ..........#####=====.....%%%%%+++++;;;;;;;;;;-----.....                                        ...",
"             .....ooooo.....     ..........#####=====.....%%%%%+++++;;;;;;;;;;-----.....                                        ...",
"             .....ooooo.....     ..........#####=====.....%%%%%+++++;;;;;;;;;;-----.....                                        ...",
"                  .....          %%%%%&&&&&...............%%%%%+++++----------.....                                                ",
"                  .....          %%%%%&&&&&...............%%%%%+++++----------.....                                                ",
"                  .....          %%%%%&&&&&...............%%%%%+++++----------.....                                                ",
"                  .....          %%%%%&&&&&...............%%%%%+++++----------.....                                                ",
"                  .....          %%%%%&&&&&...............%%%%%+++++----------.....                                                ",
"                                      .....oooooOOOOO.....&&&&&.....ooooo.....                                                     ",
"                                      .....oooooOOOOO.....&&&&&.....ooooo.....                                                     ",
"                                      .....oooooOOOOO.....&&&&&.....ooooo.....                                                     ",
"                                      .....oooooOOOOO.....&&&&&.....ooooo.....                                                     ",
"                                      .....oooooOOOOO.....&&&&&.....ooooo.....                                                     ",
"                                      .....OOOOO.....+++++.....OOOOOOOOOOOOOOO.....                                                ",
"                                      .....OOOOO.....+++++.....OOOOOOOOOOOOOOO.....                                                ",
"                                      .....OOOOO.....+++++.....OOOOOOOOOOOOOOO.....                                                ",
"                                      .....OOOOO.....+++++.....OOOOOOOOOOOOOOO.....                                                ",
"                                      .....OOOOO.....+++++.....OOOOOOOOOOOOOOO.....                                                ",
"                                      .....OOOOO.....OOOOOOOOOO.....OOOOOOOOOO%%%%%.....                                           ",
"                                      .....OOOOO.....OOOOOOOOOO.....OOOOOOOOOO%%%%%.....                                           ",
"                                      .....OOOOO.....OOOOOOOOOO.....OOOOOOOOOO%%%%%.....                                           ",
"                                      .....OOOOO.....OOOOOOOOOO.....OOOOOOOOOO%%%%%.....                                           ",
"                                      .....OOOOO.....OOOOOOOOOO.....OOOOOOOOOO%%%%%.....                                           ",
"                                 .....OOOOO+++++.....::::::::::.....++++++++++OOOOO.....                                           ",
"                                 .....OOOOO+++++.....::::::::::.....++++++++++OOOOO.....                                           ",
"                                 .....OOOOO+++++.....::::::::::.....++++++++++OOOOO.....                                           ",
"                                 .....OOOOO+++++.....::::::::::.....++++++++++OOOOO.....                                           ",
"                                 .....OOOOO+++++.....::::::::::.....++++++++++OOOOO.....                                           ",
"                                 .....OOOOO$$$$$.....@@@@@@@@@@.....$$$$$$$$$$$$$$$.....                                           ",
"                                 .....OOOOO$$$$$.....@@@@@@@@@@.....$$$$$$$$$$$$$$$.....                                           ",
"                                 .....OOOOO$$$$$.....@@@@@@@@@@.....$$$$$$$$$$$$$$$.....                                           ",
"                                 .....OOOOO$$$$$.....@@@@@@@@@@.....$$$$$$$$$$$$$$$.....                                           ",
"                                 .....OOOOO$$$$$.....@@@@@@@@@@.....$$$$$$$$$$$$$$$.....                                           ",
"                                      .....$$$$$.....++++++++++.....OOOOO$$$$$.....                                                ",
"                                      .....$$$$$.....++++++++++.....OOOOO$$$$$.....                                                ",
"                                      .....$$$$$.....++++++++++.....OOOOO$$$$$.....                                                ",
"                                      .....$$$$$.....++++++++++.....OOOOO$$$$$.....                                                ",
"                                      .....$$$$$.....++++++++++.....OOOOO$$$$$.....                                                ",
"                                           ..........-----;;;;;...............                                                     ",
"                                           ..........-----;;;;;...............                                                     ",
"                                           ..........-----;;;;;...............                                                     ",
"                                           ..........-----;;;;;...............                                                     ",
"                                           ..........-----;;;;;...............                                                     ",
"                                                ...............XXXXXXXXXX+++++.....                                                ",
"                                                ...............XXXXXXXXXX+++++.....                                                ",
"                                                ...............XXXXXXXXXX+++++.....                                                ",
"                                                ...............XXXXXXXXXX+++++.....                                                ",
"                                                ...............XXXXXXXXXX+++++.....                                                ",
"                                                     ..........XXXXX++++++++++.....                                                ",
"                                                     ..........XXXXX++++++++++.....                                                ",
"                                                     ..........XXXXX++++++++++.....                                                ",
"                                                     ..........XXXXX++++++++++.....                                                ",
"                                                     ..........XXXXX++++++++++.....                                                ",
"                                                               ...............                                                     ",
"                                                               ...............                                                     ",
"                                                               ...............                                                     ",
"                                                               ...............                                                     ",
"                                                               ...............                                                     ",
"                                                                                                                                   ",
"                                                                                                                                   ",
"                                                                                                                                   ",
"                                                                                                                                   ",
"                                                                                                                                   ",
"                                                                                                                                   ",
"                                                                                                                                   ",
"                                                                                                                                   ",
"                                                                                                                                   ",
"                                                                                                                                   "
};
