/* XPM */
static char *ac87ec5660384bddcd73c69bcc74debbEYjcVIayvdm25ruY[] = {
/* columns rows colors chars-per-pixel */
"116 138 16 1 ",
"  c None",
". c #000001",
"X c #4A2920",
"o c #0D420D",
"O c #107B29",
"+ c #734120",
"@ c #315273",
"# c #A47B41",
"$ c #41A429",
"% c yellow",
"& c #DEAC52",
"* c #31529C",
"= c #00BAFF",
"- c #D5B48B",
"; c #FFE6BD",
": c white",
/* pixels */
"                                                                                                                    ",
"                                                                                                                    ",
"                                                                                                                    ",
"                                                                                                                    ",
"                                                                                                                    ",
"                                                                                                                    ",
"                                                                                                                    ",
"                                                                                                                    ",
"                                                                                                                    ",
"                                                                                                                    ",
"                                                                                                                    ",
"                                                                                                                    ",
"                                                                                                                    ",
"                                       .....OOOOOOOOOOOOOOOOOOOO.....                                               ",
"                                       .....OOOOOOOOOOOOOOOOOOOO.....                                               ",
"                                       .....OOOOOOOOOOOOOOOOOOOO.....                                               ",
"                                       .....OOOOOOOOOOOOOOOOOOOO.....                                               ",
"                                       .....OOOOOOOOOOOOOOOOOOOO.....                                               ",
"                                  .....OOOOO$$$$$$$$$$$$$$$$$$$$OOOOO.....                                          ",
"                                  .....OOOOO$$$$$$$$$$$$$$$$$$$$OOOOO.....                                          ",
"                                  .....OOOOO$$$$$$$$$$$$$$$$$$$$OOOOO.....                                          ",
"                                  .....OOOOO$$$$$$$$$$$$$$$$$$$$OOOOO.....                                          ",
"                                  .....OOOOO$$$$$$$$$$$$$$$$$$$$OOOOO.....                                          ",
"                             .....OOOOOOOOOOOOOOOOOOOOOOOOOOOOOOOOOOOOOOOO.....                                     ",
"                             .....OOOOOOOOOOOOOOOOOOOOOOOOOOOOOOOOOOOOOOOO.....                                     ",
"                             .....OOOOOOOOOOOOOOOOOOOOOOOOOOOOOOOOOOOOOOOO.....                                     ",
"                             .....OOOOOOOOOOOOOOOOOOOOOOOOOOOOOOOOOOOOOOOO.....                                     ",
"                             .....OOOOOOOOOOOOOOOOOOOOOOOOOOOOOOOOOOOOOOOO.....                                     ",
"                        .....OOOOO$$$$$$$$$$$$$$$$$$$$$$$$$$$$$$$$$$$$$$$$OOOOO.....                                ",
"                        .....OOOOO$$$$$$$$$$$$$$$$$$$$$$$$$$$$$$$$$$$$$$$$OOOOO.....                                ",
"                        .....OOOOO$$$$$$$$$$$$$$$$$$$$$$$$$$$$$$$$$$$$$$$$OOOOO.....                                ",
"                        .....OOOOO$$$$$$$$$$$$$$$$$$$$$$$$$$$$$$$$$$$$$$$$OOOOO.....                                ",
"                        .....OOOOO$$$$$$$$$$$$$$$$$$$$$$$$$$$$$$$$$$$$$$$$OOOOO.....                                ",
"                        .....$$$$$#####%%%%%%%%%%##########%%%%%##########$$$$$.....                                ",
"                        .....$$$$$#####%%%%%%%%%%##########%%%%%##########$$$$$.....                                ",
"                        .....$$$$$#####%%%%%%%%%%##########%%%%%##########$$$$$.....                                ",
"                        .....$$$$$#####%%%%%%%%%%##########%%%%%##########$$$$$.....                                ",
"                        .....$$$$$#####%%%%%%%%%%##########%%%%%##########$$$$$.....                                ",
"                   .....OOOOO##########%%%%%#####%%%%%#####%%%%%%%%%%##########OOOOO.....                           ",
"                   .....OOOOO##########%%%%%#####%%%%%#####%%%%%%%%%%##########OOOOO.....                           ",
"                   .....OOOOO##########%%%%%#####%%%%%#####%%%%%%%%%%##########OOOOO.....                           ",
"                   .....OOOOO##########%%%%%#####%%%%%#####%%%%%%%%%%##########OOOOO.....                           ",
"                   .....OOOOO##########%%%%%#####%%%%%#####%%%%%%%%%%##########OOOOO.....                           ",
"         #####-----++++++++++&&&&&%%%%%&&&&&%%%%%#####%%%%%&&&&&#####%%%%%#####++++++++++-----#####                 ",
"         #####-----++++++++++&&&&&%%%%%&&&&&%%%%%#####%%%%%&&&&&#####%%%%%#####++++++++++-----#####                 ",
"         #####-----++++++++++&&&&&%%%%%&&&&&%%%%%#####%%%%%&&&&&#####%%%%%#####++++++++++-----#####                 ",
"         #####-----++++++++++&&&&&%%%%%&&&&&%%%%%#####%%%%%&&&&&#####%%%%%#####++++++++++-----#####                 ",
"         #####-----++++++++++&&&&&%%%%%&&&&&%%%%%#####%%%%%&&&&&#####%%%%%#####++++++++++-----#####                 ",
"         +++++;;;;;;;;;;#####%%%%%#####%%%%%##########%%%%%#####-----#####%%%%%#####;;;;;;;;;;+++++                 ",
"         +++++;;;;;;;;;;#####%%%%%#####%%%%%##########%%%%%#####-----#####%%%%%#####;;;;;;;;;;+++++                 ",
"         +++++;;;;;;;;;;#####%%%%%#####%%%%%##########%%%%%#####-----#####%%%%%#####;;;;;;;;;;+++++                 ",
"         +++++;;;;;;;;;;#####%%%%%#####%%%%%##########%%%%%#####-----#####%%%%%#####;;;;;;;;;;+++++                 ",
"         +++++;;;;;;;;;;#####%%%%%#####%%%%%##########%%%%%#####-----#####%%%%%#####;;;;;;;;;;+++++                 ",
"              +++++-----+++++#####&&&&&%%%%%%%%%%&&&&&+++++-----;;;;;#####&&&&&#####-----+++++                      ",
"              +++++-----+++++#####&&&&&%%%%%%%%%%&&&&&+++++-----;;;;;#####&&&&&#####-----+++++                      ",
"              +++++-----+++++#####&&&&&%%%%%%%%%%&&&&&+++++-----;;;;;#####&&&&&#####-----+++++                      ",
"              +++++-----+++++#####&&&&&%%%%%%%%%%&&&&&+++++-----;;;;;#####&&&&&#####-----+++++                      ",
"              +++++-----+++++#####&&&&&%%%%%%%%%%&&&&&+++++-----;;;;;#####&&&&&#####-----+++++                      ",
"                   =====%%%%%+++++&&&&&&&&&&#####+++++-----;;;;;;;;;;-----+++++%%%%%=====                           ",
"                   =====%%%%%+++++&&&&&&&&&&#####+++++-----;;;;;;;;;;-----+++++%%%%%=====                           ",
"                   =====%%%%%+++++&&&&&&&&&&#####+++++-----;;;;;;;;;;-----+++++%%%%%=====                           ",
"                   =====%%%%%+++++&&&&&&&&&&#####+++++-----;;;;;;;;;;-----+++++%%%%%=====                           ",
"                   =====%%%%%+++++&&&&&&&&&&#####+++++-----;;;;;;;;;;-----+++++%%%%%=====                           ",
"                   .....%%%%%#####.....#####+++++-----;;;;;-----+++++.....#####%%%%%.....                           ",
"                   .....%%%%%#####.....#####+++++-----;;;;;-----+++++.....#####%%%%%.....                           ",
"                   .....%%%%%#####.....#####+++++-----;;;;;-----+++++.....#####%%%%%.....                           ",
"                   .....%%%%%#####.....#####+++++-----;;;;;-----+++++.....#####%%%%%.....                           ",
"                   .....%%%%%#####.....#####+++++-----;;;;;-----+++++.....#####%%%%%.....                           ",
"                   .....&&&&&+++++:::::*****+++++;;;;;;;;;;+++++*****:::::+++++&&&&&.....                           ",
"                   .....&&&&&+++++:::::*****+++++;;;;;;;;;;+++++*****:::::+++++&&&&&.....                           ",
"                   .....&&&&&+++++:::::*****+++++;;;;;;;;;;+++++*****:::::+++++&&&&&.....                           ",
"                   .....&&&&&+++++:::::*****+++++;;;;;;;;;;+++++*****:::::+++++&&&&&.....                           ",
"                   .....&&&&&+++++:::::*****+++++;;;;;;;;;;+++++*****:::::+++++&&&&&.....                           ",
"                        ..........;;;;;*****:::::;;;;;;;;;;:::::*****;;;;;..........                                ",
"                        ..........;;;;;*****:::::;;;;;;;;;;:::::*****;;;;;..........                                ",
"                        ..........;;;;;*****:::::;;;;;;;;;;:::::*****;;;;;..........                                ",
"                        ..........;;;;;*****:::::;;;;;;;;;;:::::*****;;;;;..........                                ",
"                        ..........;;;;;*****:::::;;;;;;;;;;:::::*****;;;;;..........                                ",
"                             .....#####;;;;;;;;;;;;;;;;;;;;;;;;;;;;;;#####.....                                     ",
"                             .....#####;;;;;;;;;;;;;;;;;;;;;;;;;;;;;;#####.....                                     ",
"                             .....#####;;;;;;;;;;;;;;;;;;;;;;;;;;;;;;#####.....                                     ",
"                             .....#####;;;;;;;;;;;;;;;;;;;;;;;;;;;;;;#####.....                                     ",
"                             .....#####;;;;;;;;;;;;;;;;;;;;;;;;;;;;;;#####.....                                     ",
"                        .....OOOOO++++++++++--------------------++++++++++OOOOO.....                                ",
"                        .....OOOOO++++++++++--------------------++++++++++OOOOO.....                                ",
"                        .....OOOOO++++++++++--------------------++++++++++OOOOO.....                                ",
"                        .....OOOOO++++++++++--------------------++++++++++OOOOO.....                                ",
"                        .....OOOOO++++++++++--------------------++++++++++OOOOO.....                                ",
"                   .....@@@@@:::::oooooOOOOOOOOOOOOOOOOOOOOOOOOOOOOOOooooo:::::XXXXX.....                           ",
"                   .....@@@@@:::::oooooOOOOOOOOOOOOOOOOOOOOOOOOOOOOOOooooo:::::XXXXX.....                           ",
"                   .....@@@@@:::::oooooOOOOOOOOOOOOOOOOOOOOOOOOOOOOOOooooo:::::XXXXX.....                           ",
"                   .....@@@@@:::::oooooOOOOOOOOOOOOOOOOOOOOOOOOOOOOOOooooo:::::XXXXX.....                           ",
"                   .....@@@@@:::::oooooOOOOOOOOOOOOOOOOOOOOOOOOOOOOOOooooo:::::XXXXX.....                           ",
"              .....++++++++++.....+++++OOOOOOOOOOOOOOOOOOOOOOOOOOOOOO+++++.....++++++++++.....                      ",
"              .....++++++++++.....+++++OOOOOOOOOOOOOOOOOOOOOOOOOOOOOO+++++.....++++++++++.....                      ",
"              .....++++++++++.....+++++OOOOOOOOOOOOOOOOOOOOOOOOOOOOOO+++++.....++++++++++.....                      ",
"              .....++++++++++.....+++++OOOOOOOOOOOOOOOOOOOOOOOOOOOOOO+++++.....++++++++++.....                      ",
"              .....++++++++++.....+++++OOOOOOOOOOOOOOOOOOOOOOOOOOOOOO+++++.....++++++++++.....                      ",
"              .....-----;;;;;ooooo$$$$$++++++++++%%%%%%%%%%++++++++++$$$$$ooooo;;;;;-----.....                      ",
"              .....-----;;;;;ooooo$$$$$++++++++++%%%%%%%%%%++++++++++$$$$$ooooo;;;;;-----.....                      ",
"              .....-----;;;;;ooooo$$$$$++++++++++%%%%%%%%%%++++++++++$$$$$ooooo;;;;;-----.....                      ",
"              .....-----;;;;;ooooo$$$$$++++++++++%%%%%%%%%%++++++++++$$$$$ooooo;;;;;-----.....                      ",
"              .....-----;;;;;ooooo$$$$$++++++++++%%%%%%%%%%++++++++++$$$$$ooooo;;;;;-----.....                      ",
"                   ...............OOOOO$$$$$OOOOOOOOOOOOOOOOOOOO$$$$$OOOOO...............                           ",
"                   ...............OOOOO$$$$$OOOOOOOOOOOOOOOOOOOO$$$$$OOOOO...............                           ",
"                   ...............OOOOO$$$$$OOOOOOOOOOOOOOOOOOOO$$$$$OOOOO...............                           ",
"                   ...............OOOOO$$$$$OOOOOOOOOOOOOOOOOOOO$$$$$OOOOO...............                           ",
"                   ...............OOOOO$$$$$OOOOOOOOOOOOOOOOOOOO$$$$$OOOOO...............                           ",
"                             ..........OOOOO$$$$$$$$$$$$$$$$$$$$OOOOO..........                                     ",
"                             ..........OOOOO$$$$$$$$$$$$$$$$$$$$OOOOO..........                                     ",
"                             ..........OOOOO$$$$$$$$$$$$$$$$$$$$OOOOO..........                                     ",
"                             ..........OOOOO$$$$$$$$$$$$$$$$$$$$OOOOO..........                                     ",
"                             ..........OOOOO$$$$$$$$$$$$$$$$$$$$OOOOO..........                                     ",
"                        .....+++++XXXXX..............................XXXXX+++++.....                                ",
"                        .....+++++XXXXX..............................XXXXX+++++.....                                ",
"                        .....+++++XXXXX..............................XXXXX+++++.....                                ",
"                        .....+++++XXXXX..............................XXXXX+++++.....                                ",
"                        .....+++++XXXXX..............................XXXXX+++++.....                                ",
"                        .....++++++++++XXXXX.....          .....XXXXX++++++++++.....                                ",
"                        .....++++++++++XXXXX.....          .....XXXXX++++++++++.....                                ",
"                        .....++++++++++XXXXX.....          .....XXXXX++++++++++.....                                ",
"                        .....++++++++++XXXXX.....          .....XXXXX++++++++++.....                                ",
"                        .....++++++++++XXXXX.....          .....XXXXX++++++++++.....                                ",
"                             ...............                    ...............                                     ",
"                             ...............                    ...............                                     ",
"                             ...............                    ...............                                     ",
"                             ...............                    ...............                                     ",
"                             ...............                    ...............                                     ",
"                                                                                                                    ",
"                                                                                                                    ",
"                                                                                                                    ",
"                                                                                                                    ",
"                                                                                                                    ",
"                                                                                                                    ",
"                                                                                                                    ",
"                                                                                                                    ",
"                                                                                                                    ",
"                                                                                                                    "
};
